<?xml version='1.0' encoding='UTF-8' standalone='no'?>
<svg width="210mm" baseProfile="tiny" xmlns:svg="http://www.w3.org/2000/svg" xmlns:freecad="http://www.freecadweb.org/wiki/index.php?title=Svg_Namespace" xmlns:rdf="http://www.w3.org/1999/02/22-rdf-syntax-ns#" height="297mm" xmlns:dc="http://purl.org/dc/elements/1.1/" xmlns:xlink="http://www.w3.org/1999/xlink" xmlns:cc="http://creativecommons.org/ns#" version="1.2" xmlns:sodipodi="http://sodipodi.sourceforge.net/DTD/sodipodi-0.dtd" xmlns="http://www.w3.org/2000/svg" viewBox="0 0 2100 2970" xmlns:inkscape="http://www.inkscape.org/namespaces/inkscape">
 <title>FreeCAD SVG Export</title>
 <desc>Drawing page: Page exported from FreeCAD document: small_top</desc>
 <defs/>
 <g inkscape:groupmode="layer" inkscape:label="TechDraw" id="Page">
  <g stroke="black" fill="none" fill-rule="evenodd" stroke-linejoin="bevel" stroke-width="1" stroke-linecap="square" id="DrawingContent">
   <g stroke="none" font-family="Source Code Pro" font-size="35.2778" fill="#ffffff" fill-opacity="1" font-style="normal" transform="matrix(1,0,0,1,1050,1485)" font-weight="400">
    <path d="M300,644.845 L335,644.803 C343.284,644.803 350,644.217 350,643.495 L350,624.81 L350,594.939 L350,-614.718 L350,-644.733 L-350,-644.733 L-350,-614.718 L-350,594.939 L-350,624.81 L-350,643.495 C-350,644.217 -343.284,644.803 -335,644.803 L-300,644.86 L300,644.845" fill-rule="evenodd" vector-effect="non-scaling-stroke"/>
   </g>
   <g stroke="none" font-family="Source Code Pro" font-size="35.2778" fill="#ffffff" fill-opacity="1" font-style="normal" transform="matrix(1,0,0,1,1050,1485)" font-weight="400">
    <path d="M-350,594.939 L350,594.939 L350,-614.718 L-350,-614.718 L-350,594.939" fill-rule="evenodd" vector-effect="non-scaling-stroke"/>
   </g>
   <g stroke="none" font-family="Source Code Pro" font-size="35.2778" fill="#ffffff" fill-opacity="1" font-style="normal" transform="matrix(1,0,0,1,1050,1485)" font-weight="400">
    <path d="M-350,-614.718 L350,-614.718 L350,-644.733 L-350,-644.733 L-350,-614.718" fill-rule="evenodd" vector-effect="non-scaling-stroke"/>
   </g>
   <g stroke="none" font-family="Source Code Pro" font-size="35.2778" fill="#ffffff" fill-opacity="1" font-style="normal" transform="matrix(1,0,0,1,1050,1485)" font-weight="400">
    <path d="M-350,624.81 L350,624.81 L350,594.939 L-350,594.939 L-350,624.81" fill-rule="evenodd" vector-effect="non-scaling-stroke"/>
   </g>
   <g stroke="none" font-family="Source Code Pro" font-size="35.2778" fill="#ffffff" fill-opacity="1" font-style="normal" transform="matrix(1,0,0,1,1050,1485)" font-weight="400">
    <path d="M-300,644.831 L300,644.803 L335,644.803 C343.284,644.803 350,644.217 350,643.495 L350,624.81 L-350,624.81 L-350,643.495 C-350,644.217 -343.284,644.803 -335,644.803 L-300,644.831" fill-rule="evenodd" vector-effect="non-scaling-stroke"/>
   </g>
   <g stroke="none" font-family="Source Code Pro" font-size="35.2778" fill="#ffffff" fill-opacity="1" font-style="normal" transform="matrix(1,0,0,1,1050,1485)" font-weight="400">
    <path d="M65,474.939 C65,439.04 35.8985,409.939 5.77111e-13,409.939 L5.79371e-13,409.939 C-35.8985,409.939 -65,439.04 -65,474.939 C-65,510.837 -35.8985,539.939 2.87733e-11,539.939 C35.8985,539.939 65,510.837 65,474.939 " fill-rule="evenodd" vector-effect="non-scaling-stroke"/>
   </g>
   <g stroke="none" font-family="Source Code Pro" font-size="35.2778" fill="#ffffff" fill-opacity="1" font-style="normal" transform="matrix(1,0,0,1,1050,1485)" font-weight="400">
    <path d="M65,474.939 C65,439.04 35.8985,409.939 5.77111e-13,409.939 L5.79371e-13,409.939 C-35.8985,409.939 -65,439.04 -65,474.939 L-65,474.939 C-64.9958,510.835 -35.8955,539.931 2.87411e-11,539.931 C35.8955,539.931 64.9958,510.835 65,474.939 " fill-rule="evenodd" vector-effect="non-scaling-stroke"/>
   </g>
   <g stroke="none" font-family="Source Code Pro" font-size="35.2778" fill="#ffffff" fill-opacity="1" font-style="normal" transform="matrix(1,0,0,1,1050,1485)" font-weight="400">
    <path d="M240,-464.718 C240,-486.809 222.091,-504.718 200,-504.718 C177.909,-504.718 160,-486.809 160,-464.718 C160,-442.626 177.909,-424.718 200,-424.718 C222.091,-424.718 240,-442.626 240,-464.718 " fill-rule="evenodd" vector-effect="non-scaling-stroke"/>
   </g>
   <g stroke="none" font-family="Source Code Pro" font-size="35.2778" fill="#ffffff" fill-opacity="1" font-style="normal" transform="matrix(1,0,0,1,1050,1485)" font-weight="400">
    <path d="M40,-164.718 C40,-186.809 22.0914,-204.718 6.45511e-13,-204.718 L6.46219e-13,-204.718 C-22.0914,-204.718 -40,-186.809 -40,-164.718 C-40,-142.626 -22.0914,-124.718 1.7977e-11,-124.718 C22.0914,-124.718 40,-142.626 40,-164.718 " fill-rule="evenodd" vector-effect="non-scaling-stroke"/>
   </g>
   <g stroke="none" font-family="Source Code Pro" font-size="35.2778" fill="#ffffff" fill-opacity="1" font-style="normal" transform="matrix(1,0,0,1,1050,1485)" font-weight="400">
    <path d="M240,-164.718 C240,-186.809 222.091,-204.718 200,-204.718 C177.909,-204.718 160,-186.809 160,-164.718 C160,-142.626 177.909,-124.718 200,-124.718 C222.091,-124.718 240,-142.626 240,-164.718 " fill-rule="evenodd" vector-effect="non-scaling-stroke"/>
   </g>
   <g stroke="none" font-family="Source Code Pro" font-size="35.2778" fill="#ffffff" fill-opacity="1" font-style="normal" transform="matrix(1,0,0,1,1050,1485)" font-weight="400">
    <path d="M40,-464.718 C40,-486.809 22.0914,-504.718 7.1537e-13,-504.718 L7.17273e-13,-504.718 C-22.0914,-504.718 -40,-486.809 -40,-464.718 C-40,-442.626 -22.0914,-424.718 1.80513e-11,-424.718 C22.0914,-424.718 40,-442.626 40,-464.718 " fill-rule="evenodd" vector-effect="non-scaling-stroke"/>
   </g>
   <g stroke="none" font-family="Source Code Pro" font-size="35.2778" fill="#ffffff" fill-opacity="1" font-style="normal" transform="matrix(1,0,0,1,1050,1485)" font-weight="400">
    <path d="M-160,-464.718 C-160,-486.809 -177.909,-504.718 -200,-504.718 C-222.091,-504.718 -240,-486.809 -240,-464.718 C-240,-442.626 -222.091,-424.718 -200,-424.718 C-177.909,-424.718 -160,-442.626 -160,-464.718 " fill-rule="evenodd" vector-effect="non-scaling-stroke"/>
   </g>
   <g stroke="none" font-family="Source Code Pro" font-size="35.2778" fill="#ffffff" fill-opacity="1" font-style="normal" transform="matrix(1,0,0,1,1050,1485)" font-weight="400">
    <path d="M-160,-164.718 C-160,-186.809 -177.909,-204.718 -200,-204.718 C-222.091,-204.718 -240,-186.809 -240,-164.718 C-240,-142.626 -222.091,-124.718 -200,-124.718 C-177.909,-124.718 -160,-142.626 -160,-164.718 " fill-rule="evenodd" vector-effect="non-scaling-stroke"/>
   </g>
   <g stroke="none" font-family="Source Code Pro" font-size="35.2778" fill="#ffffff" fill-opacity="1" font-style="normal" transform="matrix(1,0,0,1,1050,1485)" font-weight="400">
    <path d="M-190,474.939 C-190,452.848 -207.909,434.939 -230,434.939 C-252.091,434.939 -270,452.848 -270,474.939 C-270,497.03 -252.091,514.939 -230,514.939 C-207.909,514.939 -190,497.03 -190,474.939 " fill-rule="evenodd" vector-effect="non-scaling-stroke"/>
   </g>
   <g stroke="none" font-family="Source Code Pro" font-size="35.2778" fill="#ffffff" fill-opacity="1" font-style="normal" transform="matrix(1,0,0,1,1050,1485)" font-weight="400">
    <path d="M240,-464.718 C240,-486.809 222.091,-504.718 200,-504.718 C177.909,-504.718 160,-486.809 160,-464.718 L160,-464.718 C160.004,-442.629 177.912,-424.725 200,-424.725 C222.088,-424.725 239.996,-442.629 240,-464.718 " fill-rule="evenodd" vector-effect="non-scaling-stroke"/>
   </g>
   <g stroke="none" font-family="Source Code Pro" font-size="35.2778" fill="#ffffff" fill-opacity="1" font-style="normal" transform="matrix(1,0,0,1,1050,1485)" font-weight="400">
    <path d="M40,-164.718 C40,-186.809 22.0914,-204.718 6.45511e-13,-204.718 L6.46219e-13,-204.718 C-22.0914,-204.718 -40,-186.809 -40,-164.718 L-40,-164.718 C-39.9958,-142.629 -22.0884,-124.725 1.79826e-11,-124.725 C22.0884,-124.725 39.9958,-142.629 40,-164.718 " fill-rule="evenodd" vector-effect="non-scaling-stroke"/>
   </g>
   <g stroke="none" font-family="Source Code Pro" font-size="35.2778" fill="#ffffff" fill-opacity="1" font-style="normal" transform="matrix(1,0,0,1,1050,1485)" font-weight="400">
    <path d="M40,-464.718 C40,-486.809 22.0914,-504.718 7.1537e-13,-504.718 L7.17273e-13,-504.718 C-22.0914,-504.718 -40,-486.809 -40,-464.718 L-40,-464.718 C-39.9958,-442.629 -22.0884,-424.725 1.80524e-11,-424.725 C22.0884,-424.725 39.9958,-442.629 40,-464.718 " fill-rule="evenodd" vector-effect="non-scaling-stroke"/>
   </g>
   <g stroke="none" font-family="Source Code Pro" font-size="35.2778" fill="#ffffff" fill-opacity="1" font-style="normal" transform="matrix(1,0,0,1,1050,1485)" font-weight="400">
    <path d="M240,-164.718 C240,-186.809 222.091,-204.718 200,-204.718 C177.909,-204.718 160,-186.809 160,-164.718 L160,-164.718 C160.004,-142.629 177.912,-124.725 200,-124.725 C222.088,-124.725 239.996,-142.629 240,-164.718 " fill-rule="evenodd" vector-effect="non-scaling-stroke"/>
   </g>
   <g stroke="none" font-family="Source Code Pro" font-size="35.2778" fill="#ffffff" fill-opacity="1" font-style="normal" transform="matrix(1,0,0,1,1050,1485)" font-weight="400">
    <path d="M-160,-164.718 C-160,-186.809 -177.909,-204.718 -200,-204.718 C-222.091,-204.718 -240,-186.809 -240,-164.718 L-240,-164.718 C-239.996,-142.629 -222.088,-124.725 -200,-124.725 C-177.912,-124.725 -160.004,-142.629 -160,-164.718 " fill-rule="evenodd" vector-effect="non-scaling-stroke"/>
   </g>
   <g stroke="none" font-family="Source Code Pro" font-size="35.2778" fill="#ffffff" fill-opacity="1" font-style="normal" transform="matrix(1,0,0,1,1050,1485)" font-weight="400">
    <path d="M-160,-464.718 C-160,-486.809 -177.909,-504.718 -200,-504.718 C-222.091,-504.718 -240,-486.809 -240,-464.718 L-240,-464.718 C-239.996,-442.629 -222.088,-424.725 -200,-424.725 C-177.912,-424.725 -160.004,-442.629 -160,-464.718 " fill-rule="evenodd" vector-effect="non-scaling-stroke"/>
   </g>
   <g stroke="none" font-family="Source Code Pro" font-size="35.2778" fill="#ffffff" fill-opacity="1" font-style="normal" transform="matrix(1,0,0,1,1050,1485)" font-weight="400">
    <path d="M-190,474.939 C-190,452.848 -207.909,434.939 -230,434.939 C-252.091,434.939 -270,452.848 -270,474.939 L-270,474.939 C-269.996,497.027 -252.088,514.931 -230,514.931 C-207.912,514.931 -190.004,497.027 -190,474.939 " fill-rule="evenodd" vector-effect="non-scaling-stroke"/>
   </g>
   <g stroke="none" font-family="Source Code Pro" font-size="35.2778" fill="#ffffff" fill-opacity="1" font-style="normal" transform="matrix(1,0,0,1,1050,1485)" font-weight="400">
    <path d="M300,644.845 L300,644.917 L-300,644.86 L300,644.845" fill-rule="evenodd" vector-effect="non-scaling-stroke"/>
   </g>
   <g stroke="none" font-family="Source Code Pro" font-size="35.2778" fill="#ffffff" fill-opacity="1" font-style="normal" transform="matrix(1,0,0,1,1050,1485)" font-weight="400">
    <path d="M-65,474.939 C-65,510.837 -35.8985,539.939 2.87733e-11,539.939 C35.8985,539.939 65,510.837 65,474.939 L65,474.939 C64.9958,510.835 35.8955,539.931 2.87555e-11,539.931 C-35.8955,539.931 -64.9958,510.835 -65,474.939 " fill-rule="evenodd" vector-effect="non-scaling-stroke"/>
   </g>
   <g stroke="none" font-family="Source Code Pro" font-size="35.2778" fill="#ffffff" fill-opacity="1" font-style="normal" transform="matrix(1,0,0,1,1050,1485)" font-weight="400">
    <path d="M-270,474.939 C-270,497.03 -252.091,514.939 -230,514.939 C-207.909,514.939 -190,497.03 -190,474.939 L-190,474.939 C-190.004,497.027 -207.912,514.931 -230,514.931 C-252.088,514.931 -269.996,497.027 -270,474.939 " fill-rule="evenodd" vector-effect="non-scaling-stroke"/>
   </g>
   <g stroke="none" font-family="Source Code Pro" font-size="35.2778" fill="#ffffff" fill-opacity="1" font-style="normal" transform="matrix(1,0,0,1,1050,1485)" font-weight="400">
    <path d="M160,-464.718 C160,-442.626 177.909,-424.718 200,-424.718 C222.091,-424.718 240,-442.626 240,-464.718 L240,-464.718 C239.996,-442.629 222.088,-424.725 200,-424.725 C177.912,-424.725 160.004,-442.629 160,-464.718 " fill-rule="evenodd" vector-effect="non-scaling-stroke"/>
   </g>
   <g stroke="none" font-family="Source Code Pro" font-size="35.2778" fill="#ffffff" fill-opacity="1" font-style="normal" transform="matrix(1,0,0,1,1050,1485)" font-weight="400">
    <path d="M-240,-464.718 C-240,-442.626 -222.091,-424.718 -200,-424.718 C-177.909,-424.718 -160,-442.626 -160,-464.718 L-160,-464.718 C-160.004,-442.629 -177.912,-424.725 -200,-424.725 C-222.088,-424.725 -239.996,-442.629 -240,-464.718 " fill-rule="evenodd" vector-effect="non-scaling-stroke"/>
   </g>
   <g stroke="none" font-family="Source Code Pro" font-size="35.2778" fill="#ffffff" fill-opacity="1" font-style="normal" transform="matrix(1,0,0,1,1050,1485)" font-weight="400">
    <path d="M160,-164.718 C160,-142.626 177.909,-124.718 200,-124.718 C222.091,-124.718 240,-142.626 240,-164.718 L240,-164.718 C239.996,-142.629 222.088,-124.725 200,-124.725 C177.912,-124.725 160.004,-142.629 160,-164.718 " fill-rule="evenodd" vector-effect="non-scaling-stroke"/>
   </g>
   <g stroke="none" font-family="Source Code Pro" font-size="35.2778" fill="#ffffff" fill-opacity="1" font-style="normal" transform="matrix(1,0,0,1,1050,1485)" font-weight="400">
    <path d="M-40,-464.718 C-40,-442.626 -22.0914,-424.718 1.80513e-11,-424.718 C22.0914,-424.718 40,-442.626 40,-464.718 L40,-464.718 C39.9958,-442.629 22.0884,-424.725 1.80524e-11,-424.725 C-22.0884,-424.725 -39.9958,-442.629 -40,-464.718 " fill-rule="evenodd" vector-effect="non-scaling-stroke"/>
   </g>
   <g stroke="none" font-family="Source Code Pro" font-size="35.2778" fill="#ffffff" fill-opacity="1" font-style="normal" transform="matrix(1,0,0,1,1050,1485)" font-weight="400">
    <path d="M-40,-164.718 C-40,-142.626 -22.0914,-124.718 1.7977e-11,-124.718 C22.0914,-124.718 40,-142.626 40,-164.718 L40,-164.718 C39.9958,-142.629 22.0884,-124.725 1.79826e-11,-124.725 C-22.0884,-124.725 -39.9958,-142.629 -40,-164.718 " fill-rule="evenodd" vector-effect="non-scaling-stroke"/>
   </g>
   <g stroke="none" font-family="Source Code Pro" font-size="35.2778" fill="#ffffff" fill-opacity="1" font-style="normal" transform="matrix(1,0,0,1,1050,1485)" font-weight="400">
    <path d="M-240,-164.718 C-240,-142.626 -222.091,-124.718 -200,-124.718 C-177.909,-124.718 -160,-142.626 -160,-164.718 L-160,-164.718 C-160.004,-142.629 -177.912,-124.725 -200,-124.725 C-222.088,-124.725 -239.996,-142.629 -240,-164.718 " fill-rule="evenodd" vector-effect="non-scaling-stroke"/>
   </g>
   <g stroke="#000000" font-family="Source Code Pro" font-size="35.2778" fill="none" stroke-linejoin="bevel" font-style="normal" stroke-opacity="1" transform="matrix(1,0,0,1,1050,1485)" font-weight="400" stroke-width="1" stroke-linecap="round">
    <path d="M-350,-614.718 L-350,-644.733" fill-rule="evenodd" vector-effect="non-scaling-stroke"/>
   </g>
   <g stroke="#000000" font-family="Source Code Pro" font-size="35.2778" fill="none" stroke-linejoin="bevel" font-style="normal" stroke-opacity="1" transform="matrix(1,0,0,1,1050,1485)" font-weight="400" stroke-width="1" stroke-linecap="round">
    <path d="M-65,474.939 C-64.9958,510.835 -35.8955,539.931 2.87411e-11,539.931 C35.8955,539.931 64.9958,510.835 65,474.939 " fill-rule="evenodd" vector-effect="non-scaling-stroke"/>
   </g>
   <g stroke="#000000" font-family="Source Code Pro" font-size="35.2778" fill="none" stroke-linejoin="bevel" font-style="normal" stroke-opacity="1" transform="matrix(1,0,0,1,1050,1485)" font-weight="400" stroke-width="1" stroke-linecap="round">
    <path d="M160,-164.718 C160.004,-142.629 177.912,-124.725 200,-124.725 C222.088,-124.725 239.996,-142.629 240,-164.718 " fill-rule="evenodd" vector-effect="non-scaling-stroke"/>
   </g>
   <g stroke="#000000" font-family="Source Code Pro" font-size="35.2778" fill="none" stroke-linejoin="bevel" font-style="normal" stroke-opacity="1" transform="matrix(1,0,0,1,1050,1485)" font-weight="400" stroke-width="1" stroke-linecap="round">
    <path d="M160,-464.718 C160.004,-442.629 177.912,-424.725 200,-424.725 C222.088,-424.725 239.996,-442.629 240,-464.718 " fill-rule="evenodd" vector-effect="non-scaling-stroke"/>
   </g>
   <g stroke="#000000" font-family="Source Code Pro" font-size="35.2778" fill="none" stroke-linejoin="bevel" font-style="normal" stroke-opacity="1" transform="matrix(1,0,0,1,1050,1485)" font-weight="400" stroke-width="1" stroke-linecap="round">
    <path d="M-40,-164.718 C-39.9958,-142.629 -22.0884,-124.725 1.79826e-11,-124.725 C22.0884,-124.725 39.9958,-142.629 40,-164.718 " fill-rule="evenodd" vector-effect="non-scaling-stroke"/>
   </g>
   <g stroke="#000000" font-family="Source Code Pro" font-size="35.2778" fill="none" stroke-linejoin="bevel" font-style="normal" stroke-opacity="1" transform="matrix(1,0,0,1,1050,1485)" font-weight="400" stroke-width="1" stroke-linecap="round">
    <path d="M-40,-464.718 C-39.9958,-442.629 -22.0884,-424.725 1.80524e-11,-424.725 C22.0884,-424.725 39.9958,-442.629 40,-464.718 " fill-rule="evenodd" vector-effect="non-scaling-stroke"/>
   </g>
   <g stroke="#000000" font-family="Source Code Pro" font-size="35.2778" fill="none" stroke-linejoin="bevel" font-style="normal" stroke-opacity="1" transform="matrix(1,0,0,1,1050,1485)" font-weight="400" stroke-width="1" stroke-linecap="round">
    <path d="M-270,474.939 C-269.996,497.027 -252.088,514.931 -230,514.931 C-207.912,514.931 -190.004,497.027 -190,474.939 " fill-rule="evenodd" vector-effect="non-scaling-stroke"/>
   </g>
   <g stroke="#000000" font-family="Source Code Pro" font-size="35.2778" fill="none" stroke-linejoin="bevel" font-style="normal" stroke-opacity="1" transform="matrix(1,0,0,1,1050,1485)" font-weight="400" stroke-width="1" stroke-linecap="round">
    <path d="M-240,-164.718 C-239.996,-142.629 -222.088,-124.725 -200,-124.725 C-177.912,-124.725 -160.004,-142.629 -160,-164.718 " fill-rule="evenodd" vector-effect="non-scaling-stroke"/>
   </g>
   <g stroke="#000000" font-family="Source Code Pro" font-size="35.2778" fill="none" stroke-linejoin="bevel" font-style="normal" stroke-opacity="1" transform="matrix(1,0,0,1,1050,1485)" font-weight="400" stroke-width="1" stroke-linecap="round">
    <path d="M-240,-464.718 C-239.996,-442.629 -222.088,-424.725 -200,-424.725 C-177.912,-424.725 -160.004,-442.629 -160,-464.718 " fill-rule="evenodd" vector-effect="non-scaling-stroke"/>
   </g>
   <g stroke="#000000" font-family="Source Code Pro" font-size="35.2778" fill="none" stroke-linejoin="bevel" font-style="normal" stroke-opacity="1" transform="matrix(1,0,0,1,1050,1485)" font-weight="400" stroke-width="1" stroke-linecap="round">
    <path d="M350,-614.718 L350,-644.733" fill-rule="evenodd" vector-effect="non-scaling-stroke"/>
   </g>
   <g stroke="#000000" font-family="Source Code Pro" font-size="35.2778" fill="none" stroke-linejoin="bevel" font-style="normal" stroke-opacity="1" transform="matrix(1,0,0,1,1050,1485)" font-weight="400" stroke-width="1" stroke-linecap="round">
    <path d="M-350,594.939 L-350,-614.718" fill-rule="evenodd" vector-effect="non-scaling-stroke"/>
   </g>
   <g stroke="#000000" font-family="Source Code Pro" font-size="35.2778" fill="none" stroke-linejoin="bevel" font-style="normal" stroke-opacity="1" transform="matrix(1,0,0,1,1050,1485)" font-weight="400" stroke-width="1" stroke-linecap="round">
    <path d="M350,594.939 L350,-614.718" fill-rule="evenodd" vector-effect="non-scaling-stroke"/>
   </g>
   <g stroke="#000000" font-family="Source Code Pro" font-size="35.2778" fill="none" stroke-linejoin="bevel" font-style="normal" stroke-opacity="1" transform="matrix(1,0,0,1,1050,1485)" font-weight="400" stroke-width="1" stroke-linecap="round">
    <path d="M5.79371e-13,409.939 C-35.8985,409.939 -65,439.04 -65,474.939 " fill-rule="evenodd" vector-effect="non-scaling-stroke"/>
   </g>
   <g stroke="#000000" font-family="Source Code Pro" font-size="35.2778" fill="none" stroke-linejoin="bevel" font-style="normal" stroke-opacity="1" transform="matrix(1,0,0,1,1050,1485)" font-weight="400" stroke-width="1" stroke-linecap="round">
    <path d="M-65,474.939 C-65,510.837 -35.8985,539.939 2.87733e-11,539.939 C35.8985,539.939 65,510.837 65,474.939 " fill-rule="evenodd" vector-effect="non-scaling-stroke"/>
   </g>
   <g stroke="#000000" font-family="Source Code Pro" font-size="35.2778" fill="none" stroke-linejoin="bevel" font-style="normal" stroke-opacity="1" transform="matrix(1,0,0,1,1050,1485)" font-weight="400" stroke-width="1" stroke-linecap="round">
    <path d="M65,474.939 C65,439.04 35.8985,409.939 5.77111e-13,409.939 " fill-rule="evenodd" vector-effect="non-scaling-stroke"/>
   </g>
   <g stroke="#000000" font-family="Source Code Pro" font-size="35.2778" fill="none" stroke-linejoin="bevel" font-style="normal" stroke-opacity="1" transform="matrix(1,0,0,1,1050,1485)" font-weight="400" stroke-width="1" stroke-linecap="round">
    <path d="M200,-204.718 C177.909,-204.718 160,-186.809 160,-164.718 " fill-rule="evenodd" vector-effect="non-scaling-stroke"/>
   </g>
   <g stroke="#000000" font-family="Source Code Pro" font-size="35.2778" fill="none" stroke-linejoin="bevel" font-style="normal" stroke-opacity="1" transform="matrix(1,0,0,1,1050,1485)" font-weight="400" stroke-width="1" stroke-linecap="round">
    <path d="M160,-164.718 C160,-142.626 177.909,-124.718 200,-124.718 C222.091,-124.718 240,-142.626 240,-164.718 " fill-rule="evenodd" vector-effect="non-scaling-stroke"/>
   </g>
   <g stroke="#000000" font-family="Source Code Pro" font-size="35.2778" fill="none" stroke-linejoin="bevel" font-style="normal" stroke-opacity="1" transform="matrix(1,0,0,1,1050,1485)" font-weight="400" stroke-width="1" stroke-linecap="round">
    <path d="M240,-164.718 C240,-186.809 222.091,-204.718 200,-204.718 " fill-rule="evenodd" vector-effect="non-scaling-stroke"/>
   </g>
   <g stroke="#000000" font-family="Source Code Pro" font-size="35.2778" fill="none" stroke-linejoin="bevel" font-style="normal" stroke-opacity="1" transform="matrix(1,0,0,1,1050,1485)" font-weight="400" stroke-width="1" stroke-linecap="round">
    <path d="M200,-504.718 C177.909,-504.718 160,-486.809 160,-464.718 " fill-rule="evenodd" vector-effect="non-scaling-stroke"/>
   </g>
   <g stroke="#000000" font-family="Source Code Pro" font-size="35.2778" fill="none" stroke-linejoin="bevel" font-style="normal" stroke-opacity="1" transform="matrix(1,0,0,1,1050,1485)" font-weight="400" stroke-width="1" stroke-linecap="round">
    <path d="M160,-464.718 C160,-442.626 177.909,-424.718 200,-424.718 C222.091,-424.718 240,-442.626 240,-464.718 " fill-rule="evenodd" vector-effect="non-scaling-stroke"/>
   </g>
   <g stroke="#000000" font-family="Source Code Pro" font-size="35.2778" fill="none" stroke-linejoin="bevel" font-style="normal" stroke-opacity="1" transform="matrix(1,0,0,1,1050,1485)" font-weight="400" stroke-width="1" stroke-linecap="round">
    <path d="M240,-464.718 C240,-486.809 222.091,-504.718 200,-504.718 " fill-rule="evenodd" vector-effect="non-scaling-stroke"/>
   </g>
   <g stroke="#000000" font-family="Source Code Pro" font-size="35.2778" fill="none" stroke-linejoin="bevel" font-style="normal" stroke-opacity="1" transform="matrix(1,0,0,1,1050,1485)" font-weight="400" stroke-width="1" stroke-linecap="round">
    <path d="M6.46219e-13,-204.718 C-22.0914,-204.718 -40,-186.809 -40,-164.718 " fill-rule="evenodd" vector-effect="non-scaling-stroke"/>
   </g>
   <g stroke="#000000" font-family="Source Code Pro" font-size="35.2778" fill="none" stroke-linejoin="bevel" font-style="normal" stroke-opacity="1" transform="matrix(1,0,0,1,1050,1485)" font-weight="400" stroke-width="1" stroke-linecap="round">
    <path d="M-40,-164.718 C-40,-142.626 -22.0914,-124.718 1.7977e-11,-124.718 C22.0914,-124.718 40,-142.626 40,-164.718 " fill-rule="evenodd" vector-effect="non-scaling-stroke"/>
   </g>
   <g stroke="#000000" font-family="Source Code Pro" font-size="35.2778" fill="none" stroke-linejoin="bevel" font-style="normal" stroke-opacity="1" transform="matrix(1,0,0,1,1050,1485)" font-weight="400" stroke-width="1" stroke-linecap="round">
    <path d="M40,-164.718 C40,-186.809 22.0914,-204.718 6.45511e-13,-204.718 " fill-rule="evenodd" vector-effect="non-scaling-stroke"/>
   </g>
   <g stroke="#000000" font-family="Source Code Pro" font-size="35.2778" fill="none" stroke-linejoin="bevel" font-style="normal" stroke-opacity="1" transform="matrix(1,0,0,1,1050,1485)" font-weight="400" stroke-width="1" stroke-linecap="round">
    <path d="M7.17273e-13,-504.718 C-22.0914,-504.718 -40,-486.809 -40,-464.718 " fill-rule="evenodd" vector-effect="non-scaling-stroke"/>
   </g>
   <g stroke="#000000" font-family="Source Code Pro" font-size="35.2778" fill="none" stroke-linejoin="bevel" font-style="normal" stroke-opacity="1" transform="matrix(1,0,0,1,1050,1485)" font-weight="400" stroke-width="1" stroke-linecap="round">
    <path d="M-40,-464.718 C-40,-442.626 -22.0914,-424.718 1.80513e-11,-424.718 C22.0914,-424.718 40,-442.626 40,-464.718 " fill-rule="evenodd" vector-effect="non-scaling-stroke"/>
   </g>
   <g stroke="#000000" font-family="Source Code Pro" font-size="35.2778" fill="none" stroke-linejoin="bevel" font-style="normal" stroke-opacity="1" transform="matrix(1,0,0,1,1050,1485)" font-weight="400" stroke-width="1" stroke-linecap="round">
    <path d="M40,-464.718 C40,-486.809 22.0914,-504.718 7.1537e-13,-504.718 " fill-rule="evenodd" vector-effect="non-scaling-stroke"/>
   </g>
   <g stroke="#000000" font-family="Source Code Pro" font-size="35.2778" fill="none" stroke-linejoin="bevel" font-style="normal" stroke-opacity="1" transform="matrix(1,0,0,1,1050,1485)" font-weight="400" stroke-width="1" stroke-linecap="round">
    <path d="M-230,434.939 C-252.091,434.939 -270,452.848 -270,474.939 " fill-rule="evenodd" vector-effect="non-scaling-stroke"/>
   </g>
   <g stroke="#000000" font-family="Source Code Pro" font-size="35.2778" fill="none" stroke-linejoin="bevel" font-style="normal" stroke-opacity="1" transform="matrix(1,0,0,1,1050,1485)" font-weight="400" stroke-width="1" stroke-linecap="round">
    <path d="M-270,474.939 C-270,497.03 -252.091,514.939 -230,514.939 C-207.909,514.939 -190,497.03 -190,474.939 " fill-rule="evenodd" vector-effect="non-scaling-stroke"/>
   </g>
   <g stroke="#000000" font-family="Source Code Pro" font-size="35.2778" fill="none" stroke-linejoin="bevel" font-style="normal" stroke-opacity="1" transform="matrix(1,0,0,1,1050,1485)" font-weight="400" stroke-width="1" stroke-linecap="round">
    <path d="M-190,474.939 C-190,452.848 -207.909,434.939 -230,434.939 " fill-rule="evenodd" vector-effect="non-scaling-stroke"/>
   </g>
   <g stroke="#000000" font-family="Source Code Pro" font-size="35.2778" fill="none" stroke-linejoin="bevel" font-style="normal" stroke-opacity="1" transform="matrix(1,0,0,1,1050,1485)" font-weight="400" stroke-width="1" stroke-linecap="round">
    <path d="M-200,-204.718 C-222.091,-204.718 -240,-186.809 -240,-164.718 " fill-rule="evenodd" vector-effect="non-scaling-stroke"/>
   </g>
   <g stroke="#000000" font-family="Source Code Pro" font-size="35.2778" fill="none" stroke-linejoin="bevel" font-style="normal" stroke-opacity="1" transform="matrix(1,0,0,1,1050,1485)" font-weight="400" stroke-width="1" stroke-linecap="round">
    <path d="M-240,-164.718 C-240,-142.626 -222.091,-124.718 -200,-124.718 C-177.909,-124.718 -160,-142.626 -160,-164.718 " fill-rule="evenodd" vector-effect="non-scaling-stroke"/>
   </g>
   <g stroke="#000000" font-family="Source Code Pro" font-size="35.2778" fill="none" stroke-linejoin="bevel" font-style="normal" stroke-opacity="1" transform="matrix(1,0,0,1,1050,1485)" font-weight="400" stroke-width="1" stroke-linecap="round">
    <path d="M-160,-164.718 C-160,-186.809 -177.909,-204.718 -200,-204.718 " fill-rule="evenodd" vector-effect="non-scaling-stroke"/>
   </g>
   <g stroke="#000000" font-family="Source Code Pro" font-size="35.2778" fill="none" stroke-linejoin="bevel" font-style="normal" stroke-opacity="1" transform="matrix(1,0,0,1,1050,1485)" font-weight="400" stroke-width="1" stroke-linecap="round">
    <path d="M-200,-504.718 C-222.091,-504.718 -240,-486.809 -240,-464.718 " fill-rule="evenodd" vector-effect="non-scaling-stroke"/>
   </g>
   <g stroke="#000000" font-family="Source Code Pro" font-size="35.2778" fill="none" stroke-linejoin="bevel" font-style="normal" stroke-opacity="1" transform="matrix(1,0,0,1,1050,1485)" font-weight="400" stroke-width="1" stroke-linecap="round">
    <path d="M-240,-464.718 C-240,-442.626 -222.091,-424.718 -200,-424.718 C-177.909,-424.718 -160,-442.626 -160,-464.718 " fill-rule="evenodd" vector-effect="non-scaling-stroke"/>
   </g>
   <g stroke="#000000" font-family="Source Code Pro" font-size="35.2778" fill="none" stroke-linejoin="bevel" font-style="normal" stroke-opacity="1" transform="matrix(1,0,0,1,1050,1485)" font-weight="400" stroke-width="1" stroke-linecap="round">
    <path d="M-160,-464.718 C-160,-486.809 -177.909,-504.718 -200,-504.718 " fill-rule="evenodd" vector-effect="non-scaling-stroke"/>
   </g>
   <g stroke="#000000" font-family="Source Code Pro" font-size="35.2778" fill="none" stroke-linejoin="bevel" font-style="normal" stroke-opacity="1" transform="matrix(1,0,0,1,1050,1485)" font-weight="400" stroke-width="1" stroke-linecap="round">
    <path d="M-350,624.81 L-350,594.939" fill-rule="evenodd" vector-effect="non-scaling-stroke"/>
   </g>
   <g stroke="#000000" font-family="Source Code Pro" font-size="35.2778" fill="none" stroke-linejoin="bevel" font-style="normal" stroke-opacity="1" transform="matrix(1,0,0,1,1050,1485)" font-weight="400" stroke-width="1" stroke-linecap="round">
    <path d="M350,624.81 L350,594.939" fill-rule="evenodd" vector-effect="non-scaling-stroke"/>
   </g>
   <g stroke="#000000" font-family="Source Code Pro" font-size="35.2778" fill="none" stroke-linejoin="bevel" font-style="normal" stroke-opacity="1" transform="matrix(1,0,0,1,1050,1485)" font-weight="400" stroke-width="1" stroke-linecap="round">
    <path d="M-350,643.495 L-350,624.81" fill-rule="evenodd" vector-effect="non-scaling-stroke"/>
   </g>
   <g stroke="#000000" font-family="Source Code Pro" font-size="35.2778" fill="none" stroke-linejoin="bevel" font-style="normal" stroke-opacity="1" transform="matrix(1,0,0,1,1050,1485)" font-weight="400" stroke-width="1" stroke-linecap="round">
    <path d="M-335,644.803 L-300,644.803" fill-rule="evenodd" vector-effect="non-scaling-stroke"/>
   </g>
   <g stroke="#000000" font-family="Source Code Pro" font-size="35.2778" fill="none" stroke-linejoin="bevel" font-style="normal" stroke-opacity="1" transform="matrix(1,0,0,1,1050,1485)" font-weight="400" stroke-width="1" stroke-linecap="round">
    <path d="M-335,644.803 C-343.284,644.803 -350,644.217 -350,643.495 " fill-rule="evenodd" vector-effect="non-scaling-stroke"/>
   </g>
   <g stroke="#000000" font-family="Source Code Pro" font-size="35.2778" fill="none" stroke-linejoin="bevel" font-style="normal" stroke-opacity="1" transform="matrix(1,0,0,1,1050,1485)" font-weight="400" stroke-width="1" stroke-linecap="round">
    <path d="M300,644.803 L335,644.803" fill-rule="evenodd" vector-effect="non-scaling-stroke"/>
   </g>
   <g stroke="#000000" font-family="Source Code Pro" font-size="35.2778" fill="none" stroke-linejoin="bevel" font-style="normal" stroke-opacity="1" transform="matrix(1,0,0,1,1050,1485)" font-weight="400" stroke-width="1" stroke-linecap="round">
    <path d="M335,644.803 C343.284,644.803 350,644.217 350,643.495 " fill-rule="evenodd" vector-effect="non-scaling-stroke"/>
   </g>
   <g stroke="#000000" font-family="Source Code Pro" font-size="35.2778" fill="none" stroke-linejoin="bevel" font-style="normal" stroke-opacity="1" transform="matrix(1,0,0,1,1050,1485)" font-weight="400" stroke-width="1" stroke-linecap="round">
    <path d="M350,643.495 L350,624.81" fill-rule="evenodd" vector-effect="non-scaling-stroke"/>
   </g>
   <g stroke="#000000" font-family="Source Code Pro" font-size="35.2778" fill="none" stroke-linejoin="bevel" font-style="normal" stroke-opacity="1" transform="matrix(1,0,0,1,1050,1485)" font-weight="400" stroke-width="1" stroke-linecap="round">
    <path d="M-300,644.803 L300,644.803" fill-rule="evenodd" vector-effect="non-scaling-stroke"/>
   </g>
   <g stroke="#000000" font-family="Source Code Pro" font-size="35.2778" fill="none" stroke-linejoin="bevel" font-style="normal" stroke-opacity="1" transform="matrix(1,0,0,1,1050,1485)" font-weight="400" stroke-width="1" stroke-linecap="round">
    <path d="M-300,644.803 L-300,644.917" fill-rule="evenodd" vector-effect="non-scaling-stroke"/>
   </g>
   <g stroke="#000000" font-family="Source Code Pro" font-size="35.2778" fill="none" stroke-linejoin="bevel" font-style="normal" stroke-opacity="1" transform="matrix(1,0,0,1,1050,1485)" font-weight="400" stroke-width="1" stroke-linecap="round">
    <path d="M300,644.803 L300,644.917" fill-rule="evenodd" vector-effect="non-scaling-stroke"/>
   </g>
   <g stroke="#000000" font-family="Source Code Pro" font-size="35.2778" fill="none" stroke-linejoin="bevel" font-style="normal" stroke-opacity="1" transform="matrix(1,0,0,1,1050,1485)" font-weight="400" stroke-width="1" stroke-linecap="round">
    <path d="M350,-644.733 L-350,-644.733" fill-rule="evenodd" vector-effect="non-scaling-stroke"/>
   </g>
   <g stroke="#000000" font-family="Source Code Pro" font-size="35.2778" fill="none" stroke-linejoin="bevel" font-style="normal" stroke-opacity="1" transform="matrix(1,0,0,1,1050,1485)" font-weight="400" stroke-width="1" stroke-linecap="round">
    <path d="M-300,644.917 L300,644.917" fill-rule="evenodd" vector-effect="non-scaling-stroke"/>
   </g>
   <g stroke="#000000" font-family="Source Code Pro" font-size="35.2778" fill="none" stroke-linejoin="bevel" font-style="normal" stroke-opacity="1" transform="matrix(1,0,0,1,1050,1485)" font-weight="400" stroke-width="1" stroke-linecap="round">
    <path d="M-350,-614.718 L350,-614.718" fill-rule="evenodd" vector-effect="non-scaling-stroke"/>
   </g>
   <g stroke="#000000" font-family="Source Code Pro" font-size="35.2778" fill="none" stroke-linejoin="bevel" font-style="normal" stroke-opacity="1" transform="matrix(1,0,0,1,1050,1485)" font-weight="400" stroke-width="1" stroke-linecap="round">
    <path d="M-350,594.939 L350,594.939" fill-rule="evenodd" vector-effect="non-scaling-stroke"/>
   </g>
   <g stroke="#000000" font-family="Source Code Pro" font-size="35.2778" fill="none" stroke-linejoin="bevel" font-style="normal" stroke-opacity="1" transform="matrix(1,0,0,1,1050,1485)" font-weight="400" stroke-width="1" stroke-linecap="round">
    <path d="M-350,624.81 L350,624.81" fill-rule="evenodd" vector-effect="non-scaling-stroke"/>
   </g>
   <g stroke-dashoffset="0" stroke="#000000" font-family="Source Code Pro" font-size="35.2778" fill="none" stroke-linejoin="bevel" font-style="normal" stroke-opacity="1" stroke-dasharray="4,2" transform="matrix(1,0,0,1,1050,1485)" font-weight="400" stroke-width="1" stroke-linecap="round">
    <path d="M-200,-44.7177 L-200,-584.718" fill-rule="evenodd" vector-effect="non-scaling-stroke"/>
   </g>
   <g stroke-dashoffset="0" stroke="#000000" font-family="Source Code Pro" font-size="35.2778" fill="none" stroke-linejoin="bevel" font-style="normal" stroke-opacity="1" stroke-dasharray="4,2" transform="matrix(1,0,0,1,1050,1485)" font-weight="400" stroke-width="1" stroke-linecap="round">
    <path d="M7.10543e-13,-584.718 L7.10543e-13,-44.7177" fill-rule="evenodd" vector-effect="non-scaling-stroke"/>
   </g>
   <g stroke-dashoffset="0" stroke="#000000" font-family="Source Code Pro" font-size="35.2778" fill="none" stroke-linejoin="bevel" font-style="normal" stroke-opacity="1" stroke-dasharray="4,2" transform="matrix(1,0,0,1,1050,1485)" font-weight="400" stroke-width="1" stroke-linecap="round">
    <path d="M200,-44.7177 L200,-584.718" fill-rule="evenodd" vector-effect="non-scaling-stroke"/>
   </g>
   <g stroke-dashoffset="0" stroke="#000000" font-family="Source Code Pro" font-size="35.2778" fill="none" stroke-linejoin="bevel" font-style="normal" stroke-opacity="1" stroke-dasharray="4,2" transform="matrix(1,0,0,1,1050,1485)" font-weight="400" stroke-width="1" stroke-linecap="round">
    <path d="M-280,-464.718 L280,-464.718" fill-rule="evenodd" vector-effect="non-scaling-stroke"/>
   </g>
   <g stroke-dashoffset="0" stroke="#000000" font-family="Source Code Pro" font-size="35.2778" fill="none" stroke-linejoin="bevel" font-style="normal" stroke-opacity="1" stroke-dasharray="4,2" transform="matrix(1,0,0,1,1050,1485)" font-weight="400" stroke-width="1" stroke-linecap="round">
    <path d="M-280,-164.718 L280,-164.718" fill-rule="evenodd" vector-effect="non-scaling-stroke"/>
   </g>
   <g stroke-dashoffset="0" stroke="#000000" font-family="Source Code Pro" font-size="35.2778" fill="none" stroke-linejoin="bevel" font-style="normal" stroke-opacity="1" stroke-dasharray="4,2" transform="matrix(1,0,0,1,1050,1485)" font-weight="400" stroke-width="1" stroke-linecap="round">
    <path d="M5.73902e-13,574.939 L5.73902e-13,369.939" fill-rule="evenodd" vector-effect="non-scaling-stroke"/>
   </g>
   <g stroke-dashoffset="0" stroke="#000000" font-family="Source Code Pro" font-size="35.2778" fill="none" stroke-linejoin="bevel" font-style="normal" stroke-opacity="1" stroke-dasharray="4,2" transform="matrix(1,0,0,1,1050,1485)" font-weight="400" stroke-width="1" stroke-linecap="round">
    <path d="M-332.5,474.689 L145,474.689" fill-rule="evenodd" vector-effect="non-scaling-stroke"/>
   </g>
  </g>
 </g>
</svg>
