<?xml version="1.0" encoding="UTF-8" standalone="no"?>
<!-- Created with Inkscape (http://www.inkscape.org/) -->

<svg
   width="210mm"
   height="297mm"
   viewBox="0 0 210 297"
   version="1.1"
   id="svg852"
   inkscape:version="1.2.1 (9c6d41e410, 2022-07-14, custom)"
   sodipodi:docname="strat-sss-11h-floyd_freecad_top.svg"
   xmlns:inkscape="http://www.inkscape.org/namespaces/inkscape"
   xmlns:sodipodi="http://sodipodi.sourceforge.net/DTD/sodipodi-0.dtd"
   xmlns="http://www.w3.org/2000/svg"
   xmlns:svg="http://www.w3.org/2000/svg">
  <sodipodi:namedview
     id="namedview854"
     pagecolor="#505050"
     bordercolor="#ffffff"
     borderopacity="1"
     inkscape:showpageshadow="0"
     inkscape:pageopacity="0"
     inkscape:pagecheckerboard="1"
     inkscape:deskcolor="#505050"
     inkscape:document-units="mm"
     showgrid="false"
     inkscape:zoom="18.723643"
     inkscape:cx="-260.04555"
     inkscape:cy="-341.6536"
     inkscape:current-layer="g2876" />
  <defs
     id="defs849">
    <inkscape:path-effect
       effect="spiro"
       id="path-effect3002"
       is_visible="true"
       lpeversion="1" />
    <inkscape:path-effect
       effect="spiro"
       id="path-effect2880"
       is_visible="true"
       lpeversion="1" />
    <inkscape:path-effect
       effect="spiro"
       id="path-effect2032"
       is_visible="true"
       lpeversion="1" />
    <inkscape:path-effect
       effect="spiro"
       id="path-effect1810"
       is_visible="true"
       lpeversion="1" />
    <inkscape:path-effect
       effect="spiro"
       id="path-effect1517"
       is_visible="true"
       lpeversion="1" />
    <inkscape:path-effect
       effect="spiro"
       id="path-effect1158"
       is_visible="true"
       lpeversion="1" />
    <inkscape:path-effect
       effect="spiro"
       id="path-effect1097"
       is_visible="true"
       lpeversion="1" />
    <inkscape:path-effect
       effect="spiro"
       id="path-effect1151"
       is_visible="true"
       lpeversion="1" />
  </defs>
  <g
     inkscape:label="Layer 1"
     inkscape:groupmode="layer"
     id="layer1">
    <g
       id="g2876"
       transform="rotate(180,108.97937,55.560459)"
       inkscape:label="top"
       style="display:inline">
      <path
         d="m 295.5555,172.83052 c -0.94416,0.0717 -1.76762,-0.63561 -1.83937,-1.57976 -0.0716,-0.94417 0.63561,-1.76765 1.57983,-1.83937 0.94417,-0.0717 1.76766,0.63556 1.83941,1.57983 0.0716,0.94416 -0.6357,1.76765 -1.57987,1.8393 z"
         style="display:inline;fill:none;fill-opacity:1;fill-rule:evenodd;stroke:#040002;stroke-width:0.264583;stroke-linecap:butt;stroke-linejoin:miter;stroke-miterlimit:22.9256;stroke-dasharray:none;stroke-opacity:1"
         id="path2834" />
      <path
         d="m 218.04379,172.99718 c -0.94416,0.0717 -1.76772,-0.6356 -1.83936,-1.57976 -0.0717,-0.94427 0.63556,-1.76771 1.57972,-1.83936 0.94426,-0.0717 1.76775,0.63556 1.8394,1.57973 0.0718,0.94415 -0.6356,1.76774 -1.57976,1.83939 z"
         style="display:inline;fill:none;fill-opacity:1;fill-rule:evenodd;stroke:#040002;stroke-width:0.264583;stroke-linecap:butt;stroke-linejoin:miter;stroke-miterlimit:22.9256;stroke-dasharray:none;stroke-opacity:1"
         id="path2836" />
      <path
         d="m 282.99473,180.69748 -53.03302,0.006 c -4.99595,5.3e-4 -9.08388,-4.34143 -9.08454,-9.649 v 0 c -6.2e-4,-5.30756 4.08652,-9.65029 9.08247,-9.65089 l 53.033,-0.006 c 4.99596,-6.3e-4 9.08397,4.34132 9.08452,9.64888 v 0 c 6.2e-4,5.30756 -4.08663,9.65041 -9.08243,9.65093 z"
         style="display:inline;fill:none;stroke:#040002;stroke-width:0.264583;stroke-linecap:butt;stroke-linejoin:miter;stroke-miterlimit:22.9256;stroke-dasharray:none;stroke-opacity:1"
         id="path2838" />
      <path
         d="m 218.08974,112.8288 c -0.94416,0.0717 -1.76776,-0.6356 -1.83941,-1.57976 -0.0716,-0.94415 0.6356,-1.76771 1.57987,-1.83936 0.94417,-0.0716 1.76762,0.63556 1.83926,1.57973 0.0718,0.94425 -0.63556,1.76774 -1.57972,1.83939 z"
         style="display:inline;fill:none;fill-opacity:1;fill-rule:evenodd;stroke:#040002;stroke-width:0.264583;stroke-linecap:butt;stroke-linejoin:miter;stroke-miterlimit:22.9256;stroke-dasharray:none;stroke-opacity:1"
         id="path2840" />
      <path
         d="m 295.59005,112.71677 c -0.94423,0.0717 -1.76772,-0.6356 -1.83937,-1.57987 -0.0718,-0.94415 0.6356,-1.76761 1.57973,-1.83936 0.94416,-0.0716 1.76776,0.63556 1.83941,1.57983 0.0716,0.94415 -0.63561,1.76764 -1.57977,1.8394 z"
         style="display:inline;fill:none;fill-opacity:1;fill-rule:evenodd;stroke:#040002;stroke-width:0.264583;stroke-linecap:butt;stroke-linejoin:miter;stroke-miterlimit:22.9256;stroke-dasharray:none;stroke-opacity:1"
         id="path2842" />
      <path
         d="m 283.25327,120.80056 -53.03299,0.006 c -4.99588,5.3e-4 -9.08399,-4.34145 -9.08443,-9.64891 v 0 c -6.2e-4,-5.30767 4.08641,-9.65046 9.08247,-9.651 l 53.03288,-0.006 c 4.99598,-5.4e-4 9.08399,4.34142 9.08453,9.64898 v 0 c 5.2e-4,5.30757 -4.08652,9.65036 -9.08246,9.65089 z"
         style="display:inline;fill:none;stroke:#040002;stroke-width:0.264583;stroke-linecap:butt;stroke-linejoin:miter;stroke-miterlimit:22.9256;stroke-dasharray:none;stroke-opacity:1"
         id="path2844" />
      <path
         d="m 306.70244,122.8962 c -0.99809,0.0677 -1.86208,-0.68629 -1.92986,-1.68438 -0.0677,-0.99808 0.68649,-1.86208 1.68442,-1.92985 0.99804,-0.0677 1.86209,0.68634 1.92981,1.68437 0.0677,0.99809 -0.68643,1.86213 -1.68437,1.92986 z"
         style="display:inline;fill:none;fill-opacity:1;fill-rule:evenodd;stroke:#040002;stroke-width:0.377357;stroke-linecap:butt;stroke-linejoin:miter;stroke-miterlimit:22.9256;stroke-dasharray:none;stroke-opacity:1"
         id="path2862"
         inkscape:label="path2392" />
      <path
         d="m 220.89818,193.4899 c -0.99807,0.0677 -1.86207,-0.68644 -1.92984,-1.68452 -0.0678,-0.99809 0.68643,-1.86209 1.68436,-1.92986 0.99809,-0.0677 1.86213,0.68644 1.92986,1.68452 0.0677,0.99793 -0.68644,1.86209 -1.68438,1.92986 z"
         style="display:inline;fill:none;fill-opacity:1;fill-rule:evenodd;stroke:#040002;stroke-width:0.377357;stroke-linecap:butt;stroke-linejoin:miter;stroke-miterlimit:22.9256;stroke-dasharray:none;stroke-opacity:1"
         id="path2866" />
      <path
         d="m 138.41477,242.54447 c -0.99809,0.0677 -1.86209,-0.68643 -1.92986,-1.68451 -0.0678,-0.99808 0.68644,-1.86208 1.68438,-1.92985 0.99807,-0.0677 1.86207,0.68643 1.92985,1.68452 0.0677,0.99794 -0.68643,1.86207 -1.68437,1.92984 z"
         style="display:inline;fill:none;fill-opacity:1;fill-rule:evenodd;stroke:#040002;stroke-width:0.377357;stroke-linecap:butt;stroke-linejoin:miter;stroke-miterlimit:22.9256;stroke-dasharray:none;stroke-opacity:1"
         id="path2868" />
      <path
         d="m 146.2431,182.01937 c -0.9981,0.0677 -1.86211,-0.68645 -1.92983,-1.6844 -0.0677,-0.99809 0.68644,-1.8621 1.68439,-1.92984 0.9981,-0.0679 1.86211,0.6863 1.92983,1.68441 0.0677,0.99809 -0.68644,1.8621 -1.68439,1.92983 z"
         style="display:inline;fill:none;fill-opacity:1;fill-rule:evenodd;stroke:#040002;stroke-width:0.377362;stroke-linecap:butt;stroke-linejoin:miter;stroke-miterlimit:22.9256;stroke-dasharray:none;stroke-opacity:1"
         id="path2870" />
      <path
         d="m 301.21449,225.11833 c -0.99794,0.0678 -1.86199,-0.68633 -1.9297,-1.68441 -0.0679,-0.99805 0.68628,-1.86208 1.68436,-1.92982 0.99793,-0.0678 1.86192,0.68629 1.92985,1.68439 0.0678,0.99807 -0.68648,1.86206 -1.68451,1.92984 z"
         style="display:inline;fill:none;fill-opacity:1;fill-rule:evenodd;stroke:#040002;stroke-width:0.377356;stroke-linecap:butt;stroke-linejoin:miter;stroke-miterlimit:22.9256;stroke-dasharray:none;stroke-opacity:1"
         id="path2872" />
      <path
         id="path2874"
         style="display:inline;fill:none;stroke:#000000;stroke-width:0.264583px;stroke-linecap:butt;stroke-linejoin:miter;stroke-opacity:1"
         inkscape:label="contour"
         d="m 140.07719,253.07814 c 0.15903,-0.006 0.31761,-0.0258 0.47284,-0.061 0.31124,-0.0705 0.60841,-0.204 0.8661,-0.39223 0.23108,-0.16879 0.42843,-0.3792 0.60926,-0.60099 0.19106,-0.23435 0.36504,-0.48283 0.51263,-0.74673 0.23444,-0.4192 0.40031,-0.8736 0.54467,-1.3317 0.17405,-0.55233 0.31853,-1.11339 0.4625,-1.67432 0.1481,-0.57701 0.29583,-1.15401 0.43719,-1.73271 0.16745,-0.68553 0.32625,-1.37321 0.46302,-2.0655 0.16464,-0.83334 0.29722,-1.67282 0.44442,-2.50941 0.11999,-0.68203 0.24981,-1.36218 0.39325,-2.03967 0.10856,-0.51277 0.22474,-1.02413 0.3359,-1.53634 0.11591,-0.53412 0.2261,-1.06948 0.32711,-1.60662 0.1529,-0.81305 0.2845,-1.62984 0.45372,-2.43965 0.14099,-0.67469 0.30787,-1.34397 0.48834,-2.00918 0.14499,-0.53443 0.29902,-1.06674 0.46096,-1.59628 0.1955,-0.63929 0.40291,-1.27472 0.60151,-1.91306 0.16702,-0.53684 0.32771,-1.07565 0.50953,-1.60766 0.14021,-0.41025 0.29309,-0.81627 0.44958,-1.22059 0.14684,-0.37938 0.29694,-0.75766 0.46044,-1.13017 0.19707,-0.44898 0.41331,-0.88894 0.61392,-1.33635 0.22564,-0.50322 0.43139,-1.01553 0.66042,-1.51722 0.23217,-0.50857 0.48783,-1.00613 0.73743,-1.50637 0.25762,-0.51633 0.50901,-1.0354 0.78238,-1.54357 0.26168,-0.48643 0.54304,-0.96231 0.82785,-1.43557 0.28475,-0.47316 0.5729,-0.94405 0.86972,-1.40974 0.40255,-0.63158 0.82088,-1.25302 1.24747,-1.86862 0.42539,-0.61388 0.85932,-1.22193 1.30173,-1.82366 0.29577,-0.40227 0.59552,-0.80174 0.89813,-1.19889 0.33575,-0.44064 0.67548,-0.87917 1.03973,-1.29656 0.4111,-0.47108 0.85234,-0.91412 1.27641,-1.37356 0.42585,-0.46138 0.83401,-0.93906 1.25987,-1.40043 0.40827,-0.44232 0.83265,-0.86946 1.26246,-1.29088 0.32045,-0.31419 0.64392,-0.62538 0.97616,-0.92708 0.3644,-0.33089 0.73898,-0.65038 1.11156,-0.97203 0.4744,-0.40955 0.94575,-0.82253 1.43403,-1.21543 0.39822,-0.32045 0.80778,-0.62715 1.21439,-0.93689 0.37985,-0.28935 0.75725,-0.58143 1.13947,-0.86765 0.44564,-0.33372 0.89736,-0.65955 1.35495,-0.97669 0.43827,-0.30375 0.88231,-0.59968 1.33429,-0.88263 0.55557,-0.3478 1.12308,-0.67616 1.6924,-1.00097 0.63905,-0.36459 1.28025,-0.72504 1.92805,-1.07384 0.80989,-0.43608 1.62985,-0.85375 2.46238,-1.24488 0.51723,-0.243 1.03928,-0.47565 1.56631,-0.6966 0.53228,-0.22315 1.06952,-0.43401 1.61127,-0.63304 0.62721,-0.23042 1.2604,-0.44465 1.89963,-0.63924 0.54212,-0.16502 1.08855,-0.31624 1.63711,-0.45836 0.53197,-0.13783 1.06641,-0.26752 1.6061,-0.37104 0.58694,-0.11259 1.17949,-0.19414 1.77199,-0.27234 0.59953,-0.0792 1.19955,-0.15512 1.79937,-0.23202 0.71501,-0.0917 1.43004,-0.18452 2.14819,-0.24702 0.51886,-0.0452 1.03876,-0.0744 1.55856,-0.10697 0.55017,-0.0345 1.10042,-0.0731 1.65106,-0.0992 0.71518,-0.0335 1.43141,-0.0467 2.14716,-0.0284 0.67826,0.0173 1.35528,0.0628 2.03192,0.11266 0.47219,0.0348 0.94416,0.0719 1.41593,0.11213 0.61382,0.0523 1.22754,0.11038 1.8371,0.19948 0.57781,0.0845 1.15134,0.19704 1.72496,0.30644 0.60754,0.11587 1.21577,0.22796 1.82314,0.34468 0.61459,0.1181 1.22833,0.2409 1.8371,0.38602 0.65244,0.15552 1.29861,0.33655 1.94045,0.53124 0.66515,0.20176 1.32586,0.4182 1.98076,0.65112 0.628,0.22335 1.25071,0.46216 1.86965,0.70952 0.68328,0.27307 1.36197,0.5564 2.04277,0.8356 0.6486,0.26599 1.29903,0.52829 1.94613,0.79789 0.74934,0.31219 1.49452,0.63427 2.24069,0.95394 0.76369,0.32717 1.52822,0.65134 2.28979,0.98341 0.63944,0.27882 1.27675,0.56312 1.91978,0.83354 0.73359,0.30851 1.47454,0.59904 2.20968,0.90382 0.77875,0.32286 1.5516,0.66238 2.34559,0.94568 0.27582,0.0984 0.55424,0.1897 0.83458,0.2744 0.13542,-0.40596 0.29274,-0.80452 0.4718,-1.19321 0.12568,-0.27282 0.26181,-0.54051 0.39068,-0.81184 0.14562,-0.30659 0.28249,-0.61827 0.45062,-0.91312 0.10628,-0.18639 0.2245,-0.36555 0.34261,-0.54467 0.0954,-0.14475 0.19126,-0.28975 0.30438,-0.42116 0.1108,-0.12872 0.23754,-0.24317 0.35656,-0.36432 0.20553,-0.20921 0.38881,-0.43941 0.60203,-0.64079 0.25741,-0.24312 0.55561,-0.44112 0.87127,-0.60151 0.2083,-0.10584 0.42472,-0.19574 0.6475,-0.26614 0.14798,-0.0468 0.29865,-0.0848 0.44907,-0.12299 0.15833,-0.0402 0.31674,-0.0806 0.47491,-0.12143 0.29739,-0.0768 0.59406,-0.1551 0.89245,-0.2279 0.32119,-0.0784 0.64423,-0.15076 0.96738,-0.22066 0.52608,-0.11374 1.05327,-0.22149 1.58234,-0.32039 0.61975,-0.11586 1.24171,-0.21966 1.86655,-0.30386 0.71487,-0.0963 1.43284,-0.16669 2.14974,-0.24649 0.72868,-0.0811 1.45646,-0.17189 2.18488,-0.25529 0.53251,-0.061 1.06543,-0.11824 1.5999,-0.15864 0.60001,-0.0454 1.20139,-0.0698 1.80196,-0.10697 0.61562,-0.0381 1.23062,-0.0896 1.8464,-0.12506 0.68339,-0.0394 1.36771,-0.0591 2.05155,-0.0899 0.7783,-0.0351 1.55606,-0.085 2.33474,-0.11007 0.6448,-0.0207 1.28986,-0.0241 1.93477,-0.0413 0.62256,-0.0166 1.24483,-0.0462 1.86758,-0.0522 0.44245,-0.005 0.88519,0.002 1.32757,0.0114 0.44325,0.009 0.88598,0.0194 1.32912,0.0325 0.90678,0.0269 1.81365,0.0638 2.72025,0.0961 0.91047,0.0324 1.82107,0.0603 2.73058,0.11317 0.80777,0.047 1.61447,0.11389 2.42052,0.18449 0.96621,0.0847 1.93192,0.17453 2.8975,0.26613 0.67335,0.0639 1.34644,0.12876 2.01848,0.20516 0.84555,0.0962 1.68911,0.21092 2.52853,0.35088 0.65983,0.11002 1.31725,0.23573 1.96991,0.38241 0.55579,0.12491 1.10809,0.26511 1.66243,0.39635 0.41946,0.0993 0.84154,0.19405 1.24385,0.34882 0.39551,0.15215 0.76721,0.36079 1.12809,0.58291 0.37159,0.22871 0.73355,0.47238 1.08056,0.73691 0.32435,0.24726 0.6477,0.47367 0.90401,0.79092 0.19432,0.24052 0.4271,0.5232 0.59682,0.78167 0.18572,0.28282 0.30093,0.58221 0.45771,0.88204 0.1574,0.30101 0.27108,0.62505 0.33538,0.95859 l 0.11885,1.14464 -0.39067,22.85235 c 0.67989,0.44303 1.37485,0.86268 2.08307,1.25884 1.0924,0.61106 2.21656,1.16521 3.36414,1.66501 1.16543,0.50758 2.35436,0.95887 3.53002,1.44229 1.14228,0.46969 2.27314,0.97045 3.43751,1.38235 0.57663,0.20398 1.16079,0.38585 1.75132,0.54518 0.52899,0.14273 1.0642,0.2672 1.60817,0.3328 0.72892,0.0879 1.4664,0.069 2.19935,0.0264 0.77686,-0.0452 1.55765,-0.1177 2.30683,-0.32814 0.44334,-0.12453 0.87241,-0.29663 1.2852,-0.50075 0.46912,-0.23197 0.9182,-0.50559 1.33532,-0.82165 0.42616,-0.32291 0.81886,-0.69021 1.16995,-1.09348 0.30325,-0.32918 0.58219,-0.68061 0.83406,-1.05058 0.24873,-0.36537 0.47118,-0.74873 0.66456,-1.14618 0.10552,-0.21342 0.1942,-0.43521 0.2651,-0.66249 0.0634,-0.20345 0.11278,-0.41104 0.15658,-0.6196 0.0798,-0.37977 0.14248,-0.76281 0.18758,-1.14825 0.061,-0.52074 0.0901,-1.04513 0.11369,-1.5689 0.0212,-0.46968 0.0379,-0.9396 0.0429,-1.40973 0.005,-0.42269 4.4e-4,-0.84569 -0.0326,-1.26711 -0.0611,-0.78034 -0.21926,-1.54961 -0.37517,-2.31665 -0.0938,-0.46157 -0.18696,-0.92301 -0.28887,-1.38287 -0.27178,-1.2264 -0.60562,-2.43829 -0.89245,-3.66127 -0.40218,-1.71484 -0.71191,-3.44976 -1.07487,-5.17333 -0.26589,-1.26263 -0.56017,-2.51922 -0.83406,-3.78013 -0.2098,-0.96586 -0.40755,-1.93454 -0.57671,-2.90835 -0.19001,-1.09385 -0.344,-2.19345 -0.51624,-3.29024 -0.15523,-0.98848 -0.32539,-1.97462 -0.47026,-2.96467 -0.13823,-0.94463 -0.25346,-1.89236 -0.35915,-2.84117 -0.11007,-0.98819 -0.20997,-1.97764 -0.29507,-2.9683 -0.0881,-1.02591 -0.16003,-2.0532 -0.23823,-3.07991 -0.089,-1.16765 -0.18622,-2.3346 -0.26252,-3.50315 -0.0873,-1.33589 -0.1474,-2.6737 -0.2067,-4.01112 -0.0446,-1.00708 -0.0887,-2.01451 -0.0827,-3.02256 0.005,-0.72697 0.0356,-1.45356 0.0568,-2.18023 0.0297,-1.01204 0.0413,-2.02456 0.0739,-3.0365 0.0381,-1.18133 0.10478,-2.36173 0.17828,-3.54139 0.0707,-1.13551 0.14786,-2.27044 0.23306,-3.40496 0.0682,-0.90813 0.14111,-1.81601 0.21911,-2.72335 0.10767,-1.2521 0.22448,-2.50372 0.38085,-3.75067 0.12135,-0.96774 0.26653,-1.93232 0.39946,-2.89853 0.13844,-1.0063 0.26363,-2.01423 0.41651,-3.01843 0.15113,-0.99259 0.32961,-1.98087 0.53021,-2.96467 0.17541,-0.8603 0.36758,-1.71708 0.54932,-2.57607 0.21004,-0.99276 0.40603,-1.98855 0.6165,-2.98122 0.21651,-1.02117 0.44862,-2.03965 0.72295,-3.04684 0.19904,-0.73078 0.41985,-1.4553 0.62322,-2.18488 0.26481,-0.94997 0.49951,-1.90811 0.75241,-2.86132 0.22199,-0.8367 0.45802,-1.66932 0.69763,-2.50114 0.26432,-0.91761 0.53325,-1.83446 0.84129,-2.73834 0.22923,-0.67263 0.48024,-1.33776 0.72605,-2.00452 0.31115,-0.84397 0.61439,-1.69082 0.89452,-2.54558 0.30415,-0.92804 0.58063,-1.8649 0.89659,-2.78898 0.42891,-1.25443 0.92931,-2.48346 1.4366,-3.7083 0.35939,-0.86773 0.72281,-1.73404 1.10588,-2.59158 0.40995,-0.91771 0.84261,-1.82547 1.23403,-2.75125 0.43096,-1.01931 0.81097,-2.05909 1.22577,-3.08508 0.38247,-0.94601 0.79452,-1.87995 1.1777,-2.82567 0.38511,-0.9505 0.74093,-1.9125 1.11466,-2.86752 0.45689,-1.16752 0.93956,-2.3249 1.40199,-3.490231 H 150.7246 c 0.0241,0.07721 0.0465,0.154896 0.0708,0.232031 0.23302,0.73917 0.47887,1.47471 0.69143,2.22002 0.13399,0.46983 0.25496,0.94346 0.3669,1.41903 0.14727,0.62563 0.27905,1.25451 0.40308,1.88516 0.11439,0.58166 0.22182,1.16481 0.35243,1.74304 0.12715,0.56291 0.2765,1.12099 0.39791,1.68517 0.12453,0.57867 0.21956,1.16323 0.31316,1.7477 0.10941,0.68296 0.21658,1.3663 0.34261,2.04639 0.11723,0.63261 0.25117,1.26247 0.34417,1.8991 0.0922,0.63097 0.14435,1.26715 0.20205,1.90221 0.0365,0.4015 0.0752,0.80246 0.11059,1.20406 0.0482,0.54734 0.0902,1.09575 0.10955,1.64487 0.016,0.4571 0.0165,0.91426 0.0284,1.37149 0.0136,0.52073 0.0422,1.04136 0.0512,1.56218 0.0111,0.61514 -0.004,1.23034 -0.0207,1.84536 -0.0184,0.68918 -0.0377,1.3785 -0.0724,2.06706 -0.0344,0.68312 -0.0842,1.36547 -0.12971,2.04794 -0.0434,0.65175 -0.0829,1.30361 -0.13901,1.9544 -0.0625,0.72521 -0.14557,1.44872 -0.21807,2.17299 -0.0692,0.69108 -0.12893,1.3834 -0.24237,2.06861 -0.0845,0.51018 -0.1986,1.01499 -0.293,1.52342 -0.10465,0.56367 -0.1851,1.13182 -0.2713,1.69861 -0.0883,0.58067 -0.18215,1.16027 -0.28577,1.73839 -0.11262,0.62831 -0.23707,1.25437 -0.37362,1.87792 -0.12638,0.57709 -0.26328,1.15214 -0.4036,1.726 -0.15483,0.63319 -0.31339,1.26527 -0.478,1.896 -0.17289,0.66247 -0.35237,1.32328 -0.54157,1.98128 -0.17289,0.60128 -0.35399,1.20004 -0.53692,1.79834 -0.21732,0.71077 -0.43754,1.42087 -0.64079,2.13578 -0.16,0.56276 -0.30972,1.12909 -0.50229,1.68156 -0.17602,0.50501 -0.38722,0.99691 -0.5793,1.49603 -0.2076,0.53945 -0.3927,1.08725 -0.59324,1.62936 -0.26521,0.71695 -0.55704,1.42387 -0.83148,2.13733 -0.27052,0.70327 -0.52417,1.41268 -0.79685,2.11512 -0.29524,0.76057 -0.61274,1.51219 -0.92604,2.26549 -0.32213,0.77453 -0.63992,1.55138 -0.9741,2.32079 -0.37363,0.86026 -0.76754,1.711 -1.15135,2.56677 -0.30427,0.67843 -0.60244,1.35997 -0.89193,2.04484 -0.2767,0.6546 -0.54571,1.31253 -0.82683,1.96525 -0.30293,0.70335 -0.61984,1.40079 -0.92604,2.10272 -0.51941,1.19069 -1.00836,2.39435 -1.4795,3.60494 -0.28743,0.73855 -0.56811,1.4798 -0.86816,2.21331 -0.25875,0.63256 -0.53181,1.25883 -0.79065,1.89135 -0.21029,0.51387 -0.41122,1.0317 -0.60823,1.55081 -0.21772,0.57369 -0.43031,1.14952 -0.63769,1.72703 -0.26046,0.72532 -0.51251,1.4537 -0.75757,2.18436 -0.23497,0.70059 -0.46344,1.40309 -0.7028,2.1022 -0.15245,0.44526 -0.30962,0.88883 -0.46302,1.33377 -0.2012,0.58357 -0.39638,1.16922 -0.57671,1.75958 -0.18932,0.6198 -0.36216,1.24463 -0.54261,1.86707 -0.16939,0.58429 -0.34548,1.16673 -0.52089,1.74925 -0.15607,0.5183 -0.31128,1.03697 -0.46148,1.55701 -0.14402,0.49863 -0.28375,0.99832 -0.41806,1.49965 -0.12867,0.48031 -0.25274,0.96195 -0.3669,1.44591 -0.16637,0.70528 -0.31175,1.41556 -0.48266,2.11976 -0.12405,0.51114 -0.26148,1.01873 -0.37775,1.53169 -0.13207,0.5827 -0.23667,1.17131 -0.34107,1.75958 -0.1173,0.66093 -0.23452,1.32213 -0.34726,1.98386 -0.10403,0.61062 -0.20419,1.2218 -0.30179,1.83348 -0.10134,0.6352 -0.19953,1.27105 -0.29353,1.90738 -0.0869,0.58842 -0.16987,1.17717 -0.23977,1.76785 -0.063,0.5324 -0.11519,1.06597 -0.17829,1.59835 -0.0659,0.55554 -0.14403,1.11036 -0.17983,1.66863 -0.0287,0.44754 -0.0303,0.89657 -0.0491,1.34463 -0.0255,0.60584 -0.0824,1.20987 -0.11473,1.81539 -0.0317,0.60063 -0.0396,1.20204 -0.0357,1.80351 0.005,0.71232 0.0281,1.42463 0.0589,2.1363 0.0293,0.67855 0.0662,1.35695 0.11317,2.0345 0.0508,0.73279 0.11372,1.46464 0.17932,2.19625 0.0662,0.73822 0.13541,1.47643 0.22841,2.21175 0.0861,0.68063 0.19253,1.35819 0.28783,2.0376 0.10117,0.72135 0.18972,1.4447 0.30645,2.16369 0.10696,0.65885 0.23776,1.31374 0.38964,1.96371 0.15709,0.67223 0.33643,1.33902 0.53433,2.00039 0.16482,0.55082 0.34231,1.09799 0.5116,1.64745 0.21727,0.70516 0.42131,1.4145 0.64647,2.11718 0.29218,0.91183 0.62021,1.81263 0.99942,2.69183 0.2525,0.58543 0.52766,1.16066 0.79168,1.74098 0.18311,0.40249 0.36082,0.80734 0.53951,1.21181 0.1756,0.39747 0.35188,0.79478 0.54105,1.18597 0.23177,0.47928 0.48281,0.94961 0.75758,1.4056 0.21119,0.3505 0.4365,0.69227 0.6692,1.02888 0.22375,0.32365 0.45457,0.64287 0.70642,0.94516 0.26707,0.32057 0.55964,0.62371 0.90072,0.86403 0.21298,0.15006 0.44369,0.27428 0.68368,0.37569 0.32791,0.13856 0.67421,0.23463 1.02785,0.27543 0.1581,0.0182 0.31793,0.0253 0.47697,0.0191 z"
         sodipodi:nodetypes="ccssssssssssssssssssssssssssssssssssssssssssssssccccccsccssssssssssssscssscsssscscccscsccscccsccccccccssssssssscccsssssscssscscccccccsssssssssccccccccscsssssssssssssssssssscccssssscsccccccccccccssssssssssssssssssssssssssssssssssssssssscsccccssssssssssssssssssccc" />
    </g>
  </g>
</svg>
