<?xml version="1.0" encoding="UTF-8" standalone="no"?>
<!-- Created with Inkscape (http://www.inkscape.org/) -->

<svg
   width="210mm"
   height="297mm"
   viewBox="0 0 210 297"
   version="1.1"
   id="svg852"
   inkscape:version="1.2.1 (9c6d41e410, 2022-07-14, custom)"
   sodipodi:docname="strat-sss-11h-floyd_freecad_top.svg"
   xmlns:inkscape="http://www.inkscape.org/namespaces/inkscape"
   xmlns:sodipodi="http://sodipodi.sourceforge.net/DTD/sodipodi-0.dtd"
   xmlns="http://www.w3.org/2000/svg"
   xmlns:svg="http://www.w3.org/2000/svg">
  <sodipodi:namedview
     id="namedview854"
     pagecolor="#505050"
     bordercolor="#ffffff"
     borderopacity="1"
     inkscape:showpageshadow="0"
     inkscape:pageopacity="0"
     inkscape:pagecheckerboard="1"
     inkscape:deskcolor="#505050"
     inkscape:document-units="mm"
     showgrid="false"
     inkscape:zoom="0.82747596"
     inkscape:cx="-246.53284"
     inkscape:cy="-169.79345"
     inkscape:current-layer="layer1" />
  <defs
     id="defs849">
    <inkscape:path-effect
       effect="spiro"
       id="path-effect2032"
       is_visible="true"
       lpeversion="1" />
    <inkscape:path-effect
       effect="spiro"
       id="path-effect1810"
       is_visible="true"
       lpeversion="1" />
    <inkscape:path-effect
       effect="spiro"
       id="path-effect1517"
       is_visible="true"
       lpeversion="1" />
    <inkscape:path-effect
       effect="spiro"
       id="path-effect1158"
       is_visible="true"
       lpeversion="1" />
    <inkscape:path-effect
       effect="spiro"
       id="path-effect1097"
       is_visible="true"
       lpeversion="1" />
    <inkscape:path-effect
       effect="spiro"
       id="path-effect1151"
       is_visible="true"
       lpeversion="1" />
  </defs>
  <g
     inkscape:label="Layer 1"
     inkscape:groupmode="layer"
     id="layer1">
    <g
       id="g1806"
       transform="rotate(180,108.9853,55.558959)"
       inkscape:label="top"
       style="display:inline">
      <path
         d="m 295.5555,172.83052 c -0.94416,0.0717 -1.76762,-0.63561 -1.83937,-1.57976 -0.0716,-0.94417 0.63561,-1.76765 1.57983,-1.83937 0.94417,-0.0717 1.76766,0.63556 1.83941,1.57983 0.0716,0.94416 -0.6357,1.76765 -1.57987,1.8393 z"
         style="display:inline;fill:none;fill-opacity:1;fill-rule:evenodd;stroke:#040002;stroke-width:0.264583;stroke-linecap:butt;stroke-linejoin:miter;stroke-miterlimit:22.9256;stroke-dasharray:none;stroke-opacity:1"
         id="path1764" />
      <path
         d="m 218.04379,172.99718 c -0.94416,0.0717 -1.76772,-0.6356 -1.83936,-1.57976 -0.0717,-0.94427 0.63556,-1.76771 1.57972,-1.83936 0.94426,-0.0717 1.76775,0.63556 1.8394,1.57973 0.0718,0.94415 -0.6356,1.76774 -1.57976,1.83939 z"
         style="display:inline;fill:none;fill-opacity:1;fill-rule:evenodd;stroke:#040002;stroke-width:0.264583;stroke-linecap:butt;stroke-linejoin:miter;stroke-miterlimit:22.9256;stroke-dasharray:none;stroke-opacity:1"
         id="path1766" />
      <path
         d="m 282.99473,180.69748 -53.03302,0.006 c -4.99595,5.3e-4 -9.08388,-4.34143 -9.08454,-9.649 v 0 c -6.2e-4,-5.30756 4.08652,-9.65029 9.08247,-9.65089 l 53.033,-0.006 c 4.99596,-6.3e-4 9.08397,4.34132 9.08452,9.64888 v 0 c 6.2e-4,5.30756 -4.08663,9.65041 -9.08243,9.65093 z"
         style="display:inline;fill:none;stroke:#040002;stroke-width:0.264583;stroke-linecap:butt;stroke-linejoin:miter;stroke-miterlimit:22.9256;stroke-dasharray:none;stroke-opacity:1"
         id="path1768" />
      <path
         d="m 218.08974,112.8288 c -0.94416,0.0717 -1.76776,-0.6356 -1.83941,-1.57976 -0.0716,-0.94415 0.6356,-1.76771 1.57987,-1.83936 0.94417,-0.0716 1.76762,0.63556 1.83926,1.57973 0.0718,0.94425 -0.63556,1.76774 -1.57972,1.83939 z"
         style="display:inline;fill:none;fill-opacity:1;fill-rule:evenodd;stroke:#040002;stroke-width:0.264583;stroke-linecap:butt;stroke-linejoin:miter;stroke-miterlimit:22.9256;stroke-dasharray:none;stroke-opacity:1"
         id="path1770" />
      <path
         d="m 295.59005,112.71677 c -0.94423,0.0717 -1.76772,-0.6356 -1.83937,-1.57987 -0.0718,-0.94415 0.6356,-1.76761 1.57973,-1.83936 0.94416,-0.0716 1.76776,0.63556 1.83941,1.57983 0.0716,0.94415 -0.63561,1.76764 -1.57977,1.8394 z"
         style="display:inline;fill:none;fill-opacity:1;fill-rule:evenodd;stroke:#040002;stroke-width:0.264583;stroke-linecap:butt;stroke-linejoin:miter;stroke-miterlimit:22.9256;stroke-dasharray:none;stroke-opacity:1"
         id="path1772" />
      <path
         d="m 283.25327,120.80056 -53.03299,0.006 c -4.99588,5.3e-4 -9.08399,-4.34145 -9.08443,-9.64891 v 0 c -6.2e-4,-5.30767 4.08641,-9.65046 9.08247,-9.651 l 53.03288,-0.006 c 4.99598,-5.4e-4 9.08399,4.34142 9.08453,9.64898 v 0 c 5.2e-4,5.30757 -4.08652,9.65036 -9.08246,9.65089 z"
         style="display:inline;fill:none;stroke:#040002;stroke-width:0.264583;stroke-linecap:butt;stroke-linejoin:miter;stroke-miterlimit:22.9256;stroke-dasharray:none;stroke-opacity:1"
         id="path1774" />
      <path
         d="m 306.70244,122.8962 c -0.99809,0.0677 -1.86208,-0.68629 -1.92986,-1.68438 -0.0677,-0.99808 0.68649,-1.86208 1.68442,-1.92985 0.99804,-0.0677 1.86209,0.68634 1.92981,1.68437 0.0677,0.99809 -0.68643,1.86213 -1.68437,1.92986 z"
         style="display:inline;fill:none;fill-opacity:1;fill-rule:evenodd;stroke:#040002;stroke-width:0.377357;stroke-linecap:butt;stroke-linejoin:miter;stroke-miterlimit:22.9256;stroke-dasharray:none;stroke-opacity:1"
         id="path1792"
         inkscape:label="path2392" />
      <path
         d="m 221.39818,192.9899 c -0.99807,0.0677 -1.86207,-0.68644 -1.92984,-1.68452 -0.0678,-0.99809 0.68643,-1.86209 1.68436,-1.92986 0.99809,-0.0677 1.86213,0.68644 1.92986,1.68452 0.0677,0.99793 -0.68644,1.86209 -1.68438,1.92986 z"
         style="display:inline;fill:none;fill-opacity:1;fill-rule:evenodd;stroke:#040002;stroke-width:0.377357;stroke-linecap:butt;stroke-linejoin:miter;stroke-miterlimit:22.9256;stroke-dasharray:none;stroke-opacity:1"
         id="path1796" />
      <path
         d="m 138.91477,242.04447 c -0.99809,0.0677 -1.86209,-0.68643 -1.92986,-1.68451 -0.0678,-0.99808 0.68644,-1.86208 1.68438,-1.92985 0.99807,-0.0677 1.86207,0.68643 1.92985,1.68452 0.0677,0.99794 -0.68643,1.86207 -1.68437,1.92984 z"
         style="display:inline;fill:none;fill-opacity:1;fill-rule:evenodd;stroke:#040002;stroke-width:0.377357;stroke-linecap:butt;stroke-linejoin:miter;stroke-miterlimit:22.9256;stroke-dasharray:none;stroke-opacity:1"
         id="path1798" />
      <path
         d="m 146.2431,182.01937 c -0.9981,0.0677 -1.86211,-0.68645 -1.92983,-1.6844 -0.0677,-0.99809 0.68644,-1.8621 1.68439,-1.92984 0.9981,-0.0679 1.86211,0.6863 1.92983,1.68441 0.0677,0.99809 -0.68644,1.8621 -1.68439,1.92983 z"
         style="display:inline;fill:none;fill-opacity:1;fill-rule:evenodd;stroke:#040002;stroke-width:0.377362;stroke-linecap:butt;stroke-linejoin:miter;stroke-miterlimit:22.9256;stroke-dasharray:none;stroke-opacity:1"
         id="path1800" />
      <path
         d="m 301.71449,224.61833 c -0.99794,0.0678 -1.86199,-0.68633 -1.9297,-1.68441 -0.0679,-0.99805 0.68628,-1.86208 1.68436,-1.92982 0.99793,-0.0678 1.86192,0.68629 1.92985,1.68439 0.0678,0.99807 -0.68648,1.86206 -1.68451,1.92984 z"
         style="display:inline;fill:none;fill-opacity:1;fill-rule:evenodd;stroke:#040002;stroke-width:0.377356;stroke-linecap:butt;stroke-linejoin:miter;stroke-miterlimit:22.9256;stroke-dasharray:none;stroke-opacity:1"
         id="path1802" />
      <path
         id="path1804"
         style="display:inline;fill:none;stroke:#000000;stroke-width:0.264583px;stroke-linecap:butt;stroke-linejoin:miter;stroke-opacity:1"
         inkscape:label="contour"
         d="m 140.07716,253.07825 c 0.15904,-0.006 0.31762,-0.0258 0.47284,-0.061 0.31124,-0.0705 0.60841,-0.204 0.8661,-0.39223 0.23108,-0.16879 0.42844,-0.3792 0.60926,-0.60099 0.19107,-0.23435 0.36505,-0.48335 0.51264,-0.74725 0.23443,-0.4192 0.40031,-0.87308 0.54466,-1.33118 0.17406,-0.55233 0.31854,-1.11339 0.46251,-1.67432 0.1481,-0.577 0.29582,-1.15401 0.43718,-1.73271 0.16745,-0.68553 0.32625,-1.37372 0.46302,-2.06602 0.16464,-0.83334 0.29722,-1.6723 0.44442,-2.50889 0.12,-0.68203 0.24982,-1.3627 0.39326,-2.04019 0.10856,-0.51276 0.22474,-1.02361 0.33589,-1.53582 0.11592,-0.53413 0.2261,-1.06948 0.32712,-1.60662 0.15289,-0.81305 0.28449,-1.63035 0.45371,-2.44016 0.14099,-0.67469 0.30788,-1.34345 0.48835,-2.00867 0.14498,-0.53443 0.29901,-1.06674 0.46095,-1.59628 0.1955,-0.63929 0.40292,-1.27473 0.60151,-1.91306 0.16702,-0.53684 0.32772,-1.07565 0.50953,-1.60766 0.14021,-0.41024 0.2931,-0.81628 0.44959,-1.22059 0.14684,-0.37939 0.29693,-0.75766 0.46044,-1.13017 0.19707,-0.44898 0.4133,-0.88945 0.61391,-1.33687 0.22564,-0.50322 0.4314,-1.01501 0.66043,-1.5167 0.23216,-0.50857 0.48782,-1.00612 0.73742,-1.50637 0.25762,-0.51633 0.50901,-1.03592 0.78238,-1.54409 0.26168,-0.48643 0.54305,-0.9618 0.82786,-1.43505 0.28475,-0.47316 0.57341,-0.94405 0.87023,-1.40974 0.40255,-0.63158 0.82037,-1.25302 1.24695,-1.86862 0.42539,-0.61387 0.85932,-1.22245 1.30173,-1.82417 0.29576,-0.40228 0.59553,-0.80123 0.89814,-1.19838 0.33574,-0.44064 0.67548,-0.87917 1.03973,-1.29656 0.4111,-0.47108 0.85234,-0.91464 1.2764,-1.37408 0.42586,-0.46138 0.83401,-0.93854 1.25988,-1.39991 0.40827,-0.44232 0.83264,-0.86998 1.26245,-1.2914 0.32045,-0.31419 0.64392,-0.62486 0.97617,-0.92656 0.36439,-0.33089 0.73898,-0.65038 1.11156,-0.97203 0.4744,-0.40955 0.94626,-0.82304 1.43454,-1.21595 0.39823,-0.32044 0.80726,-0.62715 1.21388,-0.93689 0.37985,-0.28935 0.75724,-0.58142 1.13946,-0.86765 0.44564,-0.33371 0.89737,-0.65903 1.35496,-0.97616 0.43826,-0.30375 0.88231,-0.59969 1.33428,-0.88264 0.55557,-0.3478 1.12309,-0.67616 1.69241,-1.00097 0.63904,-0.36459 1.28025,-0.72503 1.92804,-1.07384 0.80989,-0.43608 1.62985,-0.85376 2.46239,-1.24488 0.51723,-0.243 1.03928,-0.47565 1.56631,-0.6966 0.53227,-0.22315 1.06951,-0.43453 1.61127,-0.63355 0.62721,-0.23042 1.26039,-0.44465 1.89962,-0.63924 0.54212,-0.16503 1.08855,-0.31573 1.63711,-0.45785 0.53197,-0.13783 1.06642,-0.26752 1.60611,-0.37104 0.58694,-0.11259 1.17949,-0.1941 1.77198,-0.27234 0.59953,-0.0792 1.19956,-0.15511 1.79938,-0.23202 0.71501,-0.0917 1.43004,-0.1845 2.14819,-0.24702 0.51886,-0.0452 1.03876,-0.0743 1.55856,-0.10697 0.55017,-0.0345 1.10042,-0.0732 1.65106,-0.0992 0.71518,-0.0338 1.4314,-0.0468 2.14715,-0.0284 0.67826,0.0174 1.35528,0.0628 2.03192,0.11266 0.4722,0.0348 0.94417,0.0719 1.41594,0.11213 0.61382,0.0523 1.22753,0.1098 1.83709,0.19896 0.57781,0.0845 1.15134,0.19704 1.72496,0.30644 0.60754,0.11587 1.21577,0.22848 1.82315,0.3452 0.61458,0.1181 1.22832,0.24039 1.83709,0.38551 0.65244,0.15552 1.29861,0.33705 1.94045,0.53175 0.66516,0.20176 1.32587,0.4182 1.98076,0.65112 0.628,0.22335 1.25072,0.46164 1.86966,0.709 0.68327,0.27307 1.36197,0.55693 2.04276,0.83612 0.6486,0.266 1.29902,0.52779 1.94614,0.79737 0.74935,0.31218 1.49453,0.63475 2.24069,0.95447 0.76367,0.32721 1.52865,0.65149 2.2903,0.9834 0.6395,0.27867 1.27643,0.56263 1.91926,0.83354 0.73336,0.30906 1.47364,0.60123 2.20969,0.90382 0.77966,0.32051 1.55495,0.65277 2.34559,0.94516 0.34554,0.12779 0.69401,0.24792 1.0449,0.36019 0.20457,-0.3473 0.39546,-0.70246 0.57257,-1.06454 0.14049,-0.2872 0.27238,-0.57889 0.416,-0.86455 0.15149,-0.30132 0.31596,-0.5959 0.46353,-0.89917 0.0993,-0.20405 0.19155,-0.41278 0.31833,-0.60099 0.17908,-0.26585 0.42104,-0.48166 0.64957,-0.70642 0.21558,-0.21202 0.42107,-0.43438 0.64441,-0.6382 0.21749,-0.19849 0.45471,-0.3806 0.72399,-0.49971 0.23831,-0.10542 0.4955,-0.15899 0.74724,-0.22635 0.26074,-0.0698 0.51715,-0.15509 0.77721,-0.22737 0.29605,-0.0823 0.59626,-0.14745 0.89555,-0.21704 0.24527,-0.057 0.49014,-0.11679 0.73691,-0.16692 0.6529,-0.13262 1.31736,-0.19637 1.97714,-0.28887 0.55693,-0.0781 1.11082,-0.17667 1.66708,-0.25942 0.7625,-0.11342 1.52893,-0.19658 2.29598,-0.27336 0.6863,-0.0687 1.37321,-0.13242 2.05931,-0.20309 0.54327,-0.056 1.08616,-0.1161 1.63039,-0.16175 0.60527,-0.0508 1.21229,-0.0835 1.81746,-0.13539 0.61453,-0.0527 1.22703,-0.12525 1.84227,-0.16898 0.68283,-0.0486 1.36757,-0.0613 2.05155,-0.0894 0.77843,-0.032 1.5561,-0.0839 2.33474,-0.11008 0.64478,-0.0216 1.28983,-0.0259 1.93477,-0.0418 0.62258,-0.0154 1.2449,-0.0418 1.86758,-0.0522 0.40536,-0.007 0.81115,-0.007 1.21647,0.002 0.41749,0.009 0.83484,0.0274 1.25212,0.0434 0.90651,0.0348 1.81333,0.0584 2.71973,0.0961 0.9284,0.0386 1.85615,0.0921 2.78381,0.14572 0.7894,0.0456 1.57888,0.0915 2.36729,0.15193 0.9671,0.0741 1.93239,0.17005 2.8975,0.26665 0.67351,0.0674 1.34682,0.1348 2.01848,0.2186 0.84306,0.10517 1.68307,0.23563 2.52078,0.37723 0.63318,0.10703 1.26494,0.22048 1.89497,0.34469 0.61014,0.12027 1.21833,0.25054 1.8278,0.37413 0.38477,0.078 0.77045,0.15377 1.14928,0.25683 0.38805,0.10557 0.7701,0.24045 1.12397,0.4315 0.3795,0.2049 0.72252,0.47171 1.04128,0.76223 0.28425,0.25907 0.5508,0.53805 0.79065,0.83871 0.2301,0.28845 0.436,0.59819 0.59272,0.93224 0.11562,0.24643 0.20361,0.50486 0.28267,0.76533 0.10024,0.33022 0.18637,0.66439 0.25787,1.00201 l 0.12816,0.80615 -0.39068,22.85183 c 0.83491,0.41382 1.66654,0.83369 2.49546,1.25936 1.11315,0.57163 2.22172,1.15437 3.36413,1.66501 1.16056,0.51875 2.35313,0.96177 3.53002,1.44229 1.14343,0.46686 2.27334,0.96941 3.43752,1.38183 0.57654,0.20424 1.16076,0.38643 1.75131,0.5457 0.529,0.14267 1.06421,0.26723 1.60817,0.3328 0.72892,0.0879 1.4664,0.0689 2.19935,0.0264 0.77687,-0.0451 1.55775,-0.11738 2.30684,-0.32814 0.44327,-0.12472 0.87266,-0.29717 1.28571,-0.50075 0.46947,-0.23138 0.91924,-0.50396 1.3348,-0.82217 0.42436,-0.32494 0.81135,-0.69664 1.16995,-1.09296 0.30026,-0.33182 0.58113,-0.68141 0.83406,-1.05058 0.24984,-0.36465 0.47235,-0.74813 0.66456,-1.14618 0.10552,-0.21342 0.1942,-0.43522 0.2651,-0.66249 0.0635,-0.20345 0.11273,-0.41104 0.15658,-0.6196 0.0798,-0.37978 0.14244,-0.76333 0.18759,-1.14877 0.061,-0.52074 0.0901,-1.04461 0.11368,-1.56838 0.0212,-0.46968 0.0377,-0.93961 0.0429,-1.40973 0.005,-0.42269 4.4e-4,-0.84569 -0.0326,-1.26711 -0.0611,-0.78034 -0.21926,-1.54961 -0.37517,-2.31665 -0.0938,-0.46157 -0.18697,-0.92301 -0.28887,-1.38286 -0.27178,-1.22642 -0.60511,-2.4383 -0.89194,-3.66128 -0.40218,-1.71483 -0.71243,-3.44976 -1.07538,-5.17333 -0.26589,-1.26262 -0.56017,-2.51922 -0.83406,-3.78013 -0.20981,-0.96586 -0.40756,-1.93454 -0.57671,-2.90835 -0.19001,-1.09385 -0.34401,-2.19345 -0.51625,-3.29024 -0.15523,-0.98847 -0.32538,-1.97463 -0.47025,-2.96467 -0.13823,-0.94463 -0.25347,-1.89287 -0.35916,-2.84169 -0.11007,-0.98819 -0.21,-1.97712 -0.29507,-2.96778 -0.0881,-1.02591 -0.15999,-2.0532 -0.23823,-3.07991 -0.089,-1.16766 -0.18616,-2.33512 -0.26251,-3.50367 -0.0873,-1.33589 -0.14744,-2.67318 -0.20671,-4.0106 -0.0446,-1.00708 -0.0884,-2.01451 -0.0822,-3.02256 0.005,-0.72697 0.035,-1.45356 0.0563,-2.18023 0.0297,-1.01203 0.0413,-2.02456 0.0739,-3.0365 0.0381,-1.18133 0.10483,-2.36173 0.17828,-3.54139 0.0707,-1.13551 0.1479,-2.27045 0.23307,-3.40496 0.0682,-0.90813 0.1416,-1.81601 0.21962,-2.72335 0.10767,-1.25209 0.22397,-2.50372 0.38034,-3.75067 0.12135,-0.96774 0.26653,-1.93232 0.39946,-2.89853 0.13844,-1.0063 0.26361,-2.01422 0.41651,-3.01842 0.15113,-0.99261 0.3296,-1.9814 0.5302,-2.9652 0.17542,-0.86029 0.36758,-1.71708 0.54932,-2.57607 0.21004,-0.99276 0.40603,-1.98803 0.6165,-2.9807 0.21651,-1.02117 0.44862,-2.03965 0.72295,-3.04684 0.19905,-0.73077 0.42036,-1.45529 0.62374,-2.18488 0.26481,-0.94997 0.49899,-1.90811 0.75189,-2.86132 0.22199,-0.8367 0.45802,-1.66984 0.69763,-2.50166 0.26432,-0.91761 0.53326,-1.83394 0.84129,-2.73781 0.22923,-0.67264 0.48024,-1.33778 0.72606,-2.00453 0.31115,-0.84397 0.61438,-1.69082 0.89452,-2.54558 0.30414,-0.92804 0.58062,-1.86542 0.89658,-2.7895 0.42892,-1.25443 0.92932,-2.48295 1.43661,-3.70778 0.35939,-0.86773 0.72281,-1.73404 1.10587,-2.59158 0.40995,-0.91772 0.84262,-1.82547 1.23404,-2.75125 0.43096,-1.0193 0.81096,-2.05909 1.22576,-3.08508 0.38247,-0.94601 0.79453,-1.87995 1.17771,-2.82567 0.38511,-0.9505 0.74093,-1.9125 1.11466,-2.86752 0.45818,-1.17083 0.94249,-2.33137 1.40611,-3.500049 H 150.72147 c 0.0251,0.08049 0.0486,0.161441 0.0739,0.241849 0.23302,0.73916 0.47887,1.47471 0.69143,2.22002 0.134,0.46983 0.25496,0.94346 0.36691,1.41903 0.14726,0.62563 0.27905,1.25451 0.40307,1.88516 0.11439,0.58165 0.22183,1.16481 0.35243,1.74304 0.12715,0.56291 0.27651,1.121 0.39791,1.68517 0.12453,0.57867 0.21953,1.16323 0.31316,1.7477 0.10941,0.68296 0.21659,1.3663 0.34262,2.04639 0.11723,0.63262 0.25113,1.26248 0.34416,1.8991 0.0922,0.63098 0.14432,1.26664 0.20206,1.9017 0.0365,0.4015 0.0752,0.80297 0.11058,1.20457 0.0483,0.54734 0.0903,1.09523 0.10956,1.64435 0.016,0.45711 0.0165,0.91477 0.0284,1.37201 0.0135,0.52073 0.0417,1.04136 0.0512,1.56218 0.0111,0.61513 -0.004,1.23034 -0.0207,1.84536 -0.0184,0.68919 -0.0377,1.37799 -0.0724,2.06654 -0.0344,0.68312 -0.0842,1.36547 -0.1297,2.04794 -0.0435,0.65175 -0.0829,1.30413 -0.13901,1.95492 -0.0625,0.72521 -0.14554,1.44821 -0.21808,2.17248 -0.0692,0.69107 -0.12892,1.38391 -0.24236,2.06912 -0.0845,0.51018 -0.19861,1.01499 -0.29301,1.52342 -0.10465,0.56367 -0.18515,1.1313 -0.2713,1.69809 -0.0883,0.58067 -0.18215,1.16079 -0.28577,1.73891 -0.11262,0.62831 -0.23655,1.25438 -0.3731,1.87792 -0.12638,0.5771 -0.26379,1.15213 -0.40411,1.726 -0.15483,0.63319 -0.3134,1.26528 -0.47801,1.896 -0.17289,0.66247 -0.35237,1.32328 -0.54157,1.98128 -0.17289,0.60128 -0.35398,1.20004 -0.53692,1.79834 -0.21732,0.71077 -0.43753,1.42087 -0.64078,2.13579 -0.16,0.56276 -0.30973,1.12908 -0.5023,1.68155 -0.17602,0.505 -0.38721,0.99691 -0.57929,1.49603 -0.2076,0.53944 -0.39271,1.08725 -0.59325,1.62936 -0.26521,0.71694 -0.55703,1.42335 -0.83147,2.13682 -0.27052,0.70327 -0.52417,1.41319 -0.79685,2.11563 -0.29525,0.76057 -0.61274,1.51218 -0.92604,2.2655 -0.32213,0.77453 -0.63993,1.55086 -0.9741,2.32027 -0.37364,0.86025 -0.76755,1.71152 -1.15136,2.56728 -0.30427,0.67844 -0.60243,1.35997 -0.89193,2.04484 -0.2767,0.6546 -0.54571,1.31254 -0.82682,1.96525 -0.30293,0.70336 -0.61984,1.40027 -0.92604,2.1022 -0.51941,1.19069 -1.00836,2.39487 -1.4795,3.60547 -0.28743,0.73854 -0.56812,1.47979 -0.86817,2.2133 -0.25874,0.63255 -0.5318,1.25884 -0.79064,1.89135 -0.21029,0.51387 -0.41123,1.03171 -0.60824,1.55081 -0.21772,0.57369 -0.4303,1.14901 -0.63768,1.72651 -0.26046,0.72532 -0.51252,1.4537 -0.75758,2.18437 -0.23497,0.70059 -0.46344,1.4036 -0.7028,2.10271 -0.15245,0.44526 -0.3091,0.88883 -0.4625,1.33377 -0.20121,0.58357 -0.3969,1.16923 -0.57723,1.75958 -0.18932,0.6198 -0.36215,1.24463 -0.5426,1.86707 -0.16939,0.58429 -0.34549,1.16673 -0.5209,1.74925 -0.15607,0.5183 -0.31127,1.03646 -0.46147,1.55649 -0.14402,0.49863 -0.28376,0.99884 -0.41806,1.50017 -0.12868,0.48031 -0.25274,0.96194 -0.36691,1.44591 -0.16637,0.70528 -0.31174,1.41556 -0.48265,2.11976 -0.12406,0.51114 -0.26149,1.01873 -0.37776,1.53169 -0.13207,0.5827 -0.23666,1.1713 -0.34106,1.75959 -0.1173,0.66093 -0.23401,1.32213 -0.34675,1.98385 -0.10404,0.61062 -0.20472,1.2218 -0.30231,1.83348 -0.10134,0.6352 -0.19957,1.27053 -0.29352,1.90686 -0.0869,0.58842 -0.16992,1.17769 -0.23978,1.76837 -0.063,0.5324 -0.11514,1.06597 -0.17828,1.59835 -0.0659,0.55554 -0.14399,1.11035 -0.17984,1.66864 -0.0287,0.44753 -0.0303,0.89604 -0.0491,1.3441 -0.0255,0.60585 -0.0819,1.20987 -0.1142,1.81539 -0.0321,0.60063 -0.0406,1.20256 -0.0362,1.80403 0.005,0.71231 0.0281,1.42463 0.0589,2.1363 0.0294,0.67854 0.0662,1.35643 0.11317,2.03398 0.0508,0.73279 0.11369,1.46465 0.17932,2.19625 0.0662,0.73822 0.13537,1.47643 0.22841,2.21175 0.0861,0.68064 0.19255,1.35871 0.28784,2.03812 0.10117,0.72135 0.18971,1.4447 0.30644,2.1637 0.10696,0.65885 0.23776,1.31373 0.38964,1.9637 0.15709,0.67223 0.33695,1.33903 0.53485,2.00039 0.16482,0.55082 0.34179,1.09799 0.51108,1.64745 0.21727,0.70516 0.42131,1.41399 0.64647,2.11667 0.29218,0.91182 0.62022,1.81262 0.99943,2.69182 0.25249,0.58543 0.52766,1.16117 0.79168,1.7415 0.18311,0.40249 0.36081,0.80734 0.5395,1.21181 0.1756,0.39747 0.35188,0.79478 0.54105,1.18597 0.23177,0.47928 0.48281,0.9491 0.75758,1.40509 0.2112,0.3505 0.4365,0.69278 0.66921,1.02939 0.22375,0.32365 0.45457,0.64235 0.70642,0.94465 0.26707,0.32056 0.55964,0.6237 0.90072,0.86403 0.21297,0.15006 0.44369,0.27479 0.68368,0.3762 0.32791,0.13856 0.6742,0.2341 1.02784,0.27492 0.1581,0.0183 0.31794,0.0258 0.47697,0.0196 z" />
    </g>
  </g>
</svg>
