<?xml version="1.0" encoding="UTF-8" standalone="no"?>
<!-- Created with Inkscape (http://www.inkscape.org/) -->

<svg
   width="210mm"
   height="297mm"
   viewBox="0 0 210 297"
   version="1.1"
   id="svg852"
   inkscape:version="1.2.1 (9c6d41e410, 2022-07-14, custom)"
   sodipodi:docname="strat-sss-11h-floyd_freecad_bottom.svg"
   xmlns:inkscape="http://www.inkscape.org/namespaces/inkscape"
   xmlns:sodipodi="http://sodipodi.sourceforge.net/DTD/sodipodi-0.dtd"
   xmlns="http://www.w3.org/2000/svg"
   xmlns:svg="http://www.w3.org/2000/svg">
  <sodipodi:namedview
     id="namedview854"
     pagecolor="#505050"
     bordercolor="#ffffff"
     borderopacity="1"
     inkscape:showpageshadow="0"
     inkscape:pageopacity="0"
     inkscape:pagecheckerboard="1"
     inkscape:deskcolor="#505050"
     inkscape:document-units="mm"
     showgrid="false"
     inkscape:zoom="1.6549519"
     inkscape:cx="51.965257"
     inkscape:cy="-73.416031"
     inkscape:current-layer="layer1" />
  <defs
     id="defs849">
    <inkscape:path-effect
       effect="spiro"
       id="path-effect2032"
       is_visible="true"
       lpeversion="1" />
    <inkscape:path-effect
       effect="spiro"
       id="path-effect1810"
       is_visible="true"
       lpeversion="1" />
    <inkscape:path-effect
       effect="spiro"
       id="path-effect1517"
       is_visible="true"
       lpeversion="1" />
    <inkscape:path-effect
       effect="spiro"
       id="path-effect1158"
       is_visible="true"
       lpeversion="1" />
    <inkscape:path-effect
       effect="spiro"
       id="path-effect1097"
       is_visible="true"
       lpeversion="1" />
    <inkscape:path-effect
       effect="spiro"
       id="path-effect1151"
       is_visible="true"
       lpeversion="1" />
  </defs>
  <g
     inkscape:label="Layer 1"
     inkscape:groupmode="layer"
     id="layer1">
    <g
       id="g1513"
       transform="rotate(180,108.9853,55.558959)"
       inkscape:label="bottom"
       style="display:inline">
      <path
         d="m 174.2917,84.574511 c -0.9797,0.0665 -1.82788,-0.6737 -1.89438,-1.653399 -0.0665,-0.979699 0.67377,-1.827777 1.65347,-1.894311 0.97973,-0.0665 1.82792,0.6737 1.89441,1.653434 0.0665,0.97977 -0.6738,1.827777 -1.6535,1.894276 z"
         style="display:inline;fill:none;fill-opacity:1;fill-rule:evenodd;stroke:#040002;stroke-width:0.264583;stroke-linecap:butt;stroke-linejoin:miter;stroke-miterlimit:22.9256;stroke-dasharray:none;stroke-opacity:1"
         id="path1459" />
      <path
         d="m 146.3795,54.081917 c -0.9797,0.0666 -1.82788,-0.6737 -1.89438,-1.653399 -0.0665,-0.979699 0.67377,-1.827814 1.6535,-1.894314 0.9797,-0.0665 1.82789,0.673703 1.89439,1.653508 0.0665,0.979699 -0.67381,1.827706 -1.65351,1.894205 z"
         style="display:inline;fill:none;fill-opacity:1;fill-rule:evenodd;stroke:#040002;stroke-width:0.264583;stroke-linecap:butt;stroke-linejoin:miter;stroke-miterlimit:22.9256;stroke-dasharray:none;stroke-opacity:1"
         id="path1461" />
      <path
         d="m 202.9829,49.344604 c -2.62449,0.17822 -4.89648,-1.80499 -5.0746,-4.42937 -0.17819,-2.62442 1.80492,-4.89652 4.42941,-5.0746 2.62459,-0.17823 4.89648,1.80488 5.07471,4.42937 0.17818,2.62442 -1.80492,4.89641 -4.42952,5.0746 z"
         style="display:inline;fill:none;fill-opacity:1;fill-rule:evenodd;stroke:#040002;stroke-width:0.264583;stroke-linecap:butt;stroke-linejoin:miter;stroke-miterlimit:22.9256;stroke-dasharray:none;stroke-opacity:1"
         id="path1463" />
      <path
         d="m 164.27281,28.405414 c -2.62449,0.17822 -4.89652,-1.80499 -5.07471,-4.42941 -0.17808,-2.62439 1.80499,-4.89649 4.42952,-5.07457 2.62449,-0.17822 4.89648,1.80488 5.07467,4.42937 0.17812,2.62442 -1.80499,4.89642 -4.42948,5.07461 z"
         style="display:inline;fill:none;fill-opacity:1;fill-rule:evenodd;stroke:#040002;stroke-width:0.264583;stroke-linecap:butt;stroke-linejoin:miter;stroke-miterlimit:22.9256;stroke-dasharray:none;stroke-opacity:1"
         id="path1465" />
      <path
         d="m 131.28809,-0.665176 c -2.62459,0.17819 -4.89648,-1.80491 -5.07467,-4.4294 -0.17822,-2.62439 1.80488,-4.89642 4.42948,-5.07461 2.62452,-0.17818 4.89652,1.80499 5.0746,4.42941 0.17822,2.62438 -1.80488,4.89649 -4.42941,5.0746 z"
         style="display:inline;fill:none;fill-opacity:1;fill-rule:evenodd;stroke:#040002;stroke-width:0.264583;stroke-linecap:butt;stroke-linejoin:miter;stroke-miterlimit:22.9256;stroke-dasharray:none;stroke-opacity:1"
         id="path1467" />
      <path
         d="m 169.42062,76.251001 c 0.6405,0.831603 -0.35271,1.788619 -1.35672,1.098833 L 151.39551,59.147629 c -0.59652,-1.092306 0.6484,-1.813807 1.4618,-1.34112 z"
         style="display:inline;fill:none;fill-opacity:1;fill-rule:evenodd;stroke:#040002;stroke-width:0.264583;stroke-linecap:butt;stroke-linejoin:miter;stroke-miterlimit:22.9256;stroke-dasharray:none;stroke-opacity:1"
         id="path1469" />
      <path
         d="m 218.08974,112.8288 c -0.94416,0.0717 -1.76776,-0.6356 -1.83941,-1.57976 -0.0716,-0.94415 0.6356,-1.76771 1.57987,-1.83936 0.94417,-0.0716 1.76762,0.63556 1.83926,1.57973 0.0718,0.94425 -0.63556,1.76774 -1.57972,1.83939 z"
         style="display:inline;fill:none;fill-opacity:1;fill-rule:evenodd;stroke:#040002;stroke-width:0.264583;stroke-linecap:butt;stroke-linejoin:miter;stroke-miterlimit:22.9256;stroke-dasharray:none;stroke-opacity:1"
         id="path1477" />
      <path
         d="m 295.59005,112.71677 c -0.94423,0.0717 -1.76772,-0.6356 -1.83937,-1.57987 -0.0718,-0.94415 0.6356,-1.76761 1.57973,-1.83936 0.94416,-0.0716 1.76776,0.63556 1.83941,1.57983 0.0716,0.94415 -0.63561,1.76764 -1.57977,1.8394 z"
         style="display:inline;fill:none;fill-opacity:1;fill-rule:evenodd;stroke:#040002;stroke-width:0.264583;stroke-linecap:butt;stroke-linejoin:miter;stroke-miterlimit:22.9256;stroke-dasharray:none;stroke-opacity:1"
         id="path1479" />
      <path
         d="m 283.25327,120.80056 -53.03299,0.006 c -4.99588,5.3e-4 -9.08399,-4.34145 -9.08443,-9.64891 v 0 c -6.2e-4,-5.30767 4.08641,-9.65046 9.08247,-9.651 l 53.03288,-0.006 c 4.99598,-5.4e-4 9.08399,4.34142 9.08453,9.64898 v 0 c 5.2e-4,5.30757 -4.08652,9.65036 -9.08246,9.65089 z"
         style="display:inline;fill:none;stroke:#040002;stroke-width:0.264583;stroke-linecap:butt;stroke-linejoin:miter;stroke-miterlimit:22.9256;stroke-dasharray:none;stroke-opacity:1"
         id="path1481" />
      <path
         d="m 219.3168,49.2231 c -0.94481,0.0641 -1.76259,-0.64967 -1.82669,-1.59437 -0.0642,-0.94481 0.64968,-1.76262 1.59438,-1.82672 0.94471,-0.0642 1.76262,0.64971 1.82672,1.59441 0.0641,0.9447 -0.64971,1.76258 -1.59441,1.82668 z"
         style="display:inline;fill:none;fill-opacity:1;fill-rule:evenodd;stroke:#040002;stroke-width:0.264583;stroke-linecap:butt;stroke-linejoin:miter;stroke-miterlimit:22.9256;stroke-dasharray:none;stroke-opacity:1"
         id="path1483" />
      <path
         d="m 295.34781,62.987505 c -0.9447,0.06421 -1.76251,-0.649675 -1.82661,-1.594379 -0.0642,-0.944703 0.64971,-1.762619 1.59441,-1.826718 0.94467,-0.0641 1.76248,0.64971 1.82669,1.594414 0.0641,0.94481 -0.64971,1.762584 -1.59449,1.826683 z"
         style="display:inline;fill:none;fill-opacity:1;fill-rule:evenodd;stroke:#040002;stroke-width:0.264583;stroke-linecap:butt;stroke-linejoin:miter;stroke-miterlimit:22.9256;stroke-dasharray:none;stroke-opacity:1"
         id="path1485" />
      <path
         d="m 281.58419,68.570108 -52.1601,-9.582609 c -4.9137,-0.902687 -8.14938,-5.912273 -7.19028,-11.132399 v 0 c 0.95899,-5.22019 5.764,-8.75259 10.67759,-7.8499 l 52.1601,9.58282 c 4.91381,0.90269 8.14931,5.9122 7.19028,11.132394 v 0 c -0.95899,5.220194 -5.76389,8.752488 -10.67759,7.849694 z"
         style="display:inline;fill:none;stroke:#040002;stroke-width:0.264583;stroke-linecap:butt;stroke-linejoin:miter;stroke-miterlimit:22.9256;stroke-dasharray:none;stroke-opacity:1"
         id="path1487"
         sodipodi:nodetypes="ccssccssc" />
      <path
         d="m 121.6615,-18.059659 c -0.99794,0.06775 -1.86194,-0.686441 -1.92968,-1.684546 -0.0678,-0.99809 0.6863,-1.862099 1.68441,-1.929832 0.99793,-0.06775 1.86194,0.686455 1.92981,1.684546 0.0678,0.997948 -0.68644,1.862114 -1.68454,1.929832 z"
         style="display:inline;fill:none;fill-opacity:1;fill-rule:evenodd;stroke:#040002;stroke-width:0.377362;stroke-linecap:butt;stroke-linejoin:miter;stroke-miterlimit:22.9256;stroke-dasharray:none;stroke-opacity:1"
         id="path1489" />
      <path
         d="m 153.7332,87.784028 c -0.99793,0.06777 -1.86193,-0.686438 -1.92971,-1.684371 -0.0678,-0.998085 0.68645,-1.862082 1.68438,-1.929805 0.99794,-0.06777 1.86208,0.686287 1.92985,1.684372 0.0677,0.998084 -0.68643,1.862081 -1.68452,1.929804 z"
         style="display:inline;fill:none;fill-opacity:1;fill-rule:evenodd;stroke:#040002;stroke-width:0.377357;stroke-linecap:butt;stroke-linejoin:miter;stroke-miterlimit:22.9256;stroke-dasharray:none;stroke-opacity:1"
         id="path1491" />
      <path
         d="m 131.71455,37.877477 c -0.99793,0.06775 -1.86209,-0.686288 -1.92986,-1.684365 -0.0678,-0.998091 0.68649,-1.862088 1.68452,-1.929862 0.99793,-0.06775 1.86199,0.686345 1.92971,1.684422 0.0677,0.998034 -0.68643,1.862088 -1.68437,1.929805 z"
         style="display:inline;fill:none;fill-opacity:1;fill-rule:evenodd;stroke:#040002;stroke-width:0.377357;stroke-linecap:butt;stroke-linejoin:miter;stroke-miterlimit:22.9256;stroke-dasharray:none;stroke-opacity:1"
         id="path1493" />
      <path
         d="m 203.97201,19.811185 c -0.99794,0.06775 -1.86193,-0.686274 -1.92971,-1.684365 -0.0678,-0.998077 0.68645,-1.862088 1.68438,-1.929805 0.99793,-0.06775 1.86213,0.686445 1.92985,1.684379 0.0677,0.998077 -0.68643,1.862074 -1.68452,1.929791 z"
         style="display:inline;fill:none;fill-opacity:1;fill-rule:evenodd;stroke:#040002;stroke-width:0.377357;stroke-linecap:butt;stroke-linejoin:miter;stroke-miterlimit:22.9256;stroke-dasharray:none;stroke-opacity:1"
         id="path1495" />
      <path
         d="m 307.06081,20.974211 c -0.99793,0.06789 -1.86208,-0.686331 -1.92986,-1.684366 -0.0677,-0.998091 0.68645,-1.862131 1.68452,-1.929862 0.99794,-0.06775 1.86193,0.686445 1.92971,1.684379 0.0677,0.998078 -0.68643,1.862074 -1.68437,1.929849 z"
         style="display:inline;fill:none;fill-opacity:1;fill-rule:evenodd;stroke:#040002;stroke-width:0.377357;stroke-linecap:butt;stroke-linejoin:miter;stroke-miterlimit:22.9256;stroke-dasharray:none;stroke-opacity:1"
         id="path1497" />
      <path
         d="m 306.70244,122.8962 c -0.99809,0.0677 -1.86208,-0.68629 -1.92986,-1.68438 -0.0677,-0.99808 0.68649,-1.86208 1.68442,-1.92985 0.99804,-0.0677 1.86209,0.68634 1.92981,1.68437 0.0677,0.99809 -0.68643,1.86213 -1.68437,1.92986 z"
         style="display:inline;fill:none;fill-opacity:1;fill-rule:evenodd;stroke:#040002;stroke-width:0.377357;stroke-linecap:butt;stroke-linejoin:miter;stroke-miterlimit:22.9256;stroke-dasharray:none;stroke-opacity:1"
         id="path1499"
         inkscape:label="path2392" />
      <path
         d="m 323.69625,72.255528 c -0.99808,0.06777 -1.86213,-0.686438 -1.92985,-1.684521 -0.0677,-0.998086 0.68643,-1.862082 1.68437,-1.929805 0.99809,-0.06777 1.86208,0.686438 1.92986,1.684521 0.0677,0.997934 -0.68645,1.862082 -1.68438,1.929805 z"
         style="display:inline;fill:none;fill-opacity:1;fill-rule:evenodd;stroke:#040002;stroke-width:0.377357;stroke-linecap:butt;stroke-linejoin:miter;stroke-miterlimit:22.9256;stroke-dasharray:none;stroke-opacity:1"
         id="path1501" />
      <path
         id="path1511"
         style="display:inline;fill:none;stroke:#000000;stroke-width:0.264583px;stroke-linecap:butt;stroke-linejoin:miter;stroke-opacity:1"
         inkscape:label="contour"
         d="m 312.786,123.76572 c 0.28798,-0.88633 0.55425,-1.78003 0.85576,-2.66185 0.42891,-1.25443 0.92932,-2.48294 1.43661,-3.70778 0.35939,-0.86773 0.7228,-1.73404 1.10587,-2.59158 0.40995,-0.91771 0.84262,-1.82547 1.23404,-2.75125 0.43096,-1.01931 0.81096,-2.05909 1.22576,-3.08508 0.38247,-0.94601 0.79453,-1.87995 1.17771,-2.82567 0.38511,-0.9505 0.74093,-1.9125 1.11466,-2.86752 0.48097,-1.22906 0.99154,-2.44646 1.47588,-3.674198 0.36209,-0.917853 0.70975,-1.841521 1.07538,-2.757972 0.32996,-0.827048 0.67419,-1.648311 0.99374,-2.479435 0.34305,-0.89223 0.65735,-1.795175 0.95136,-2.704744 0.25291,-0.782436 0.491,-1.569755 0.75448,-2.348694 0.28099,-0.830711 0.59069,-1.652084 0.85835,-2.487187 0.25835,-0.806069 0.47708,-1.624026 0.709,-2.438094 0.2121,-0.744509 0.43533,-1.485807 0.65267,-2.228804 0.24625,-0.841835 0.48529,-1.685914 0.69401,-2.53783 0.22396,-0.914131 0.41305,-1.836676 0.62426,-2.753837 0.21281,-0.924107 0.44811,-1.843497 0.61443,-2.777092 0.14916,-0.837263 0.24224,-1.683147 0.35605,-2.525944 0.10435,-0.772782 0.22634,-1.54319 0.34726,-2.313553 0.14983,-0.95449 0.29805,-1.909717 0.4036,-2.87011 0.0963,-0.875854 0.15697,-1.755202 0.20567,-2.634981 0.0397,-0.715823 0.0714,-1.432223 0.11731,-2.147672 0.0593,-0.924287 0.142,-1.847046 0.1912,-2.771924 0.0361,-0.67817 0.0545,-1.35704 0.0672,-2.036052 0.0156,-0.838105 0.0228,-1.676663 -10e-4,-2.514575 -0.0248,-0.870009 -0.083,-1.738839 -0.13591,-2.607593 -0.0416,-0.68327 -0.08,-1.366506 -0.12609,-2.049487 -0.0538,-0.796573 -0.11795,-1.592634 -0.20825,-2.385901 -0.0908,-0.798086 -0.20798,-1.593167 -0.33745,-2.385901 -0.11924,-0.730078 -0.24927,-1.458234 -0.37052,-2.18798 -0.12401,-0.746347 -0.23893,-1.494689 -0.39739,-2.234489 -0.16081,-0.750774 -0.366,-1.491213 -0.55449,-2.235522 -0.18177,-0.717788 -0.34812,-1.439541 -0.55759,-2.14974 -0.25955,-0.879982 -0.5847,-1.740062 -0.94619,-2.583305 -0.32968,-0.769044 -0.68983,-1.524937 -1.01234,-2.297017 -0.27248,-0.652306 -0.51782,-1.315943 -0.81804,-1.955953 -0.3493,-0.744629 -0.77088,-1.452999 -1.18753,-2.162142 -0.45914,-0.781464 -0.91398,-1.565793 -1.41076,-2.323889 -0.57504,-0.877525 -1.20509,-1.718385 -1.87172,-2.528528 -0.50397,-0.612465 -1.02885,-1.207619 -1.5689,-1.788521 -0.55347,-0.595337 -1.12326,-1.175806 -1.71876,-1.729094 -0.52421,-0.487046 -1.0688,-0.953202 -1.64176,-1.381827 -0.77831,-0.582243 -1.60637,-1.093687 -2.43551,-1.600936 -0.78302,-0.479037 -1.56886,-0.955599 -2.389,-1.367875 -0.69207,-0.347897 -1.40685,-0.649241 -2.10736,-0.979786 -0.79518,-0.375207 -1.5746,-0.789279 -2.40348,-1.082621 -0.91996,-0.325581 -1.88592,-0.496785 -2.84272,-0.688847 -0.70268,-0.141052 -1.40517,-0.294384 -2.11925,-0.355534 -0.22369,-0.01915 -0.44832,-0.02953 -0.67282,-0.03049 l -0.14366,17.07131 -0.004,0.04858 c -0.0631,0.238818 -0.14626,0.472517 -0.24908,0.697115 -0.058,0.126725 -0.12282,0.251146 -0.20412,0.364318 -0.098,0.136333 -0.21933,0.254698 -0.35037,0.359668 -0.16253,0.130202 -0.34087,0.240813 -0.52968,0.328663 l -0.55914,0.0894 -88.715,-0.0021 -0.0506,0.0016 c -0.26639,-0.05839 -0.52682,-0.144638 -0.77515,-0.257349 -0.12692,-0.05761 -0.25122,-0.122662 -0.36432,-0.204122 -0.13624,-0.09812 -0.25414,-0.219369 -0.35915,-0.350366 -0.13026,-0.162488 -0.24086,-0.340837 -0.32866,-0.529683 l -0.0899,-0.563273 -0.185,-17.121436 c -0.51876,-0.04949 -1.03813,-0.09566 -1.55753,-0.137976 -0.59166,-0.04821 -1.18395,-0.09167 -1.77663,-0.125057 -0.86634,-0.0488 -1.73378,-0.0757 -2.59933,-0.136942 -1.15499,-0.08172 -2.30462,-0.223986 -3.45767,-0.329696 -0.76301,-0.06995 -1.52731,-0.123891 -2.28978,-0.199471 -0.93214,-0.0924 -1.86121,-0.2175277 -2.79001,-0.3389975 -0.93066,-0.1217133 -1.86139,-0.240156 -2.78898,-0.3834391 -1.24593,-0.1924571 -2.48494,-0.4294699 -3.72122,-0.6764445 -1.76598,-0.352795 -3.53016,-0.7261856 -5.25704,-1.2371338 -1.75407,-0.5189941 -3.4638,-1.1780517 -5.14801,-1.8918742 -1.29328,-0.5481362 -2.57336,-1.1291416 -3.82095,-1.7745687 -0.93327,-0.4828201 -1.84745,-1.001441 -2.75642,-1.5285888 -0.96443,-0.559311 -1.92386,-1.1288091 -2.85461,-1.74252933 -0.88802,-0.58554192 -1.74886,-1.21056108 -2.60656,-1.83968097 -1.0762,-0.7893918 -2.14788,-1.5861261 -3.18792,-2.4225912 -1.22337,-0.9839119 -2.40187,-2.0222261 -3.622,-3.0101521 -0.87813,-0.7110112 -1.77764,-1.395339 -2.6541,-2.1083985 -1.36941,-1.1141048 -2.68126,-2.2966163 -4.02404,-3.4426843 -1.08873,-0.929235 -2.19773,-1.834986 -3.27939,-2.77244 -1.01135,-0.876514 -1.99851,-1.78041 -3.01584,-2.649968 -0.92114,-0.787337 -1.86649,-1.545737 -2.80396,-2.313554 -0.75989,-0.622375 -1.51507,-1.25107 -2.26653,-1.883605 -0.56564,-0.476125 -1.12919,-0.954505 -1.70894,-1.413351 -0.6616,-0.52363 -1.34356,-1.021457 -2.02365,-1.520837 -0.72994,-0.535988 -1.45832,-1.073972 -2.18539,-1.613855 -0.91842,-0.681976 -1.83612,-1.367925 -2.81172,-1.965255 -0.93423,-0.572 -1.91889,-1.061027 -2.93315,-1.474845 -0.73906,-0.301537 -1.49351,-0.56308 -2.25671,-0.796851 -0.68862,-0.210924 -1.38648,-0.399697 -2.0991,-0.503845 -0.67267,-0.09828 -1.35486,-0.12079 -2.0345,-0.10542 -0.69081,0.01562 -1.38297,0.07039 -2.05775,0.219108 -0.49684,0.1095 -0.98132,0.269248 -1.45935,0.443384 -0.46679,0.170041 -0.92866,0.354118 -1.38234,0.556555 -0.43596,0.194529 -0.86438,0.406138 -1.28468,0.632519 -0.42035,0.226406 -0.83253,0.468109 -1.22886,0.734323 -0.34215,0.229822 -0.67234,0.477581 -0.99271,0.736905 -0.34293,0.277585 -0.67483,0.568036 -0.9958,0.870748 -0.34131,0.321901 -0.67083,0.658445 -0.95808,1.029395 -0.22884,0.295517 -0.42989,0.611317 -0.63149,0.926042 -0.20329,0.317359 -0.4076,0.634382 -0.59169,0.963248 -0.15313,0.273552 -0.29193,0.555097 -0.41755,0.842326 -0.24848,0.568178 -0.44522,1.158665 -0.59841,1.759583 -0.19277,0.756176 -0.31711,1.528069 -0.41962,2.301668 -0.10379,0.783262 -0.18521,1.569938 -0.22531,2.359029 -0.0283,0.556613 -0.0361,1.114326 -0.0139,1.671216 0.0198,0.498308 0.0633,0.99538 0.0971,1.492932 0.0396,0.581741 0.0663,1.164268 0.11111,1.74563 0.0597,0.774117 0.15204,1.545494 0.26561,2.3135538 0.0993,0.6714663 0.21487,1.3408789 0.32453,2.01073 0.14347,0.8763198 0.27669,1.7539269 0.44029,2.626713 0.1282,0.6839444 0.27503,1.3647677 0.42478,2.0443197 0.24115,1.0943655 0.49078,2.18655806 0.74775,3.27731931 0.20598,0.87431879 0.41648,1.74779439 0.64544,2.61637779 0.24966,0.9471173 0.52082,1.8886806 0.75965,2.8385864 0.1478,0.5878483 0.28333,1.1787403 0.42168,1.7688843 0.092,0.3926223 0.18555,0.7845559 0.2899,1.1740885 0.2206,0.8235034 0.48944,1.6331962 0.74879,2.4453292 0.28507,0.892667 0.55866,1.78925 0.83354,2.685107 0.26685,0.869672 0.53518,1.738724 0.83148,2.598808 0.21324,0.618965 0.4408,1.232846 0.65474,1.851566 0.32612,0.943118 0.62019,1.897126 0.94361,2.841171 0.39318,1.147667 0.82971,2.280191 1.24385,3.420463 0.28052,0.772359 0.5509,1.548552 0.83458,2.319755 0.36562,0.993977 0.7531,1.979582 1.13274,2.968294 0.26707,0.695544 0.53011,1.392359 0.7922,2.089795 0.24521,0.652531 0.48932,1.305673 0.73639,1.957503 0.36347,0.95891 0.73323,1.915248 1.10588,2.870626 0.47728,1.223608 0.95962,2.445445 1.46761,3.656624 0.37008,0.882368 0.75369,1.759017 1.13275,2.637565 0.37211,0.862475 0.73998,1.726981 1.09347,2.597258 0.36687,0.903218 0.71833,1.812898 1.09399,2.712496 0.3011,0.721057 0.6174,1.435441 0.93069,2.15129 0.32708,0.747365 0.65079,1.496287 0.9834,2.241207 0.44872,1.00494 0.91371,2.002315 1.36633,3.005501 0.52727,1.168628 1.03782,2.344971 1.55959,3.516064 0.40786,0.915423 0.82259,1.827863 1.24696,2.735751 0.56912,1.217574 1.15539,2.427216 1.73012,3.642155 0.38235,0.808273 0.7596,1.618491 1.1343,2.430342 0.38186,0.827379 0.76101,1.656294 1.13171,2.488737 0.43334,0.973122 0.85537,1.951407 1.31155,2.914034 0.36515,0.770541 0.75193,1.530638 1.11053,2.304252 0.35994,0.77651 0.69088,1.566179 1.03404,2.350244 0.42964,0.981655 0.87859,1.955102 1.30225,2.939356 0.3478,0.808024 0.67871,1.622782 1.01286,2.436544 0.27717,0.674987 0.55637,1.349302 0.81959,2.02985 0.24261,0.627275 0.47124,1.260225 0.73122,1.880505 0.2419,0.577147 0.5108,1.142719 0.75654,1.718242 0.29757,0.696904 0.56123,1.407419 0.82941,2.11615 0.29245,0.772847 0.59008,1.54363 0.8723,2.320271 0.2731,0.751551 0.53149,1.508673 0.77876,2.269113 0.22227,0.683542 0.4358,1.370078 0.64492,2.057755 0.212,0.697145 0.41964,1.395358 0.63872,2.090315 0.23302,0.73917 0.47887,1.47471 0.69143,2.22002 0.13399,0.46983 0.25497,0.94346 0.36691,1.41903 0.14727,0.62563 0.27904,1.25451 0.40307,1.88516 0.11439,0.58166 0.22183,1.16481 0.35243,1.74304 0.12715,0.56291 0.2765,1.12099 0.39791,1.68517 0.12453,0.57867 0.21956,1.16323 0.31316,1.7477 0.10941,0.68296 0.21659,1.3663 0.34262,2.04639 0.11723,0.63261 0.25116,1.26248 0.34416,1.8991 0.0922,0.63097 0.14436,1.26664 0.20206,1.9017 0.0365,0.4015 0.0752,0.80298 0.11058,1.20457 0.0482,0.54734 0.0903,1.09523 0.10956,1.64435 0.016,0.45711 0.0165,0.91478 0.0284,1.37201 0.0136,0.52073 0.0422,1.04136 0.0512,1.56218 0.009,0.47285 -0.005,0.94568 -0.016,1.41851 z" />
    </g>
  </g>
</svg>
