<?xml version="1.0" encoding="UTF-8" standalone="no"?>
<!-- Created with Inkscape (http://www.inkscape.org/) -->

<svg
   width="210mm"
   height="297mm"
   viewBox="0 0 210 297"
   version="1.1"
   id="svg3013"
   inkscape:version="1.2.1 (9c6d41e410, 2022-07-14, custom)"
   sodipodi:docname="strat-sss-11h_freecad.svg"
   xmlns:inkscape="http://www.inkscape.org/namespaces/inkscape"
   xmlns:sodipodi="http://sodipodi.sourceforge.net/DTD/sodipodi-0.dtd"
   xmlns="http://www.w3.org/2000/svg"
   xmlns:svg="http://www.w3.org/2000/svg">
  <sodipodi:namedview
     id="namedview3015"
     pagecolor="#505050"
     bordercolor="#ffffff"
     borderopacity="1"
     inkscape:showpageshadow="0"
     inkscape:pageopacity="0"
     inkscape:pagecheckerboard="1"
     inkscape:deskcolor="#505050"
     inkscape:document-units="mm"
     showgrid="false"
     inkscape:zoom="1.1893044"
     inkscape:cx="-388.46237"
     inkscape:cy="52.972141"
     inkscape:current-layer="g484" />
  <defs
     id="defs3010" />
  <g
     inkscape:label="Layer 1"
     inkscape:groupmode="layer"
     id="layer1">
    <g
       id="g580"
       transform="translate(-656.25629,-40.102514)"
       style="display:inline;fill:none;stroke:#040002;stroke-width:0.264583;stroke-dasharray:none;stroke-opacity:1">
      <path
         d="m 654.7746,101.62922 c 0.94481,-0.0641 1.76259,0.64967 1.82669,1.59437 0.0642,0.94481 -0.64968,1.76262 -1.59438,1.82672 -0.94471,0.0642 -1.76262,-0.64971 -1.82672,-1.59441 -0.0641,-0.9447 0.64971,-1.76258 1.59441,-1.82668 z"
         style="fill:none;fill-opacity:1;fill-rule:evenodd;stroke:#040002;stroke-width:0.264583;stroke-linecap:butt;stroke-linejoin:miter;stroke-miterlimit:22.9256;stroke-dasharray:none;stroke-opacity:1"
         id="path2350" />
      <path
         d="m 656.14811,38.392494 c 0.9447,-0.06421 1.76248,0.64971 1.82668,1.594414 0.0641,0.944704 -0.64971,1.762513 -1.59448,1.826683 -0.94471,0.0641 -1.76252,-0.649675 -1.82672,-1.594485 -0.0641,-0.944703 0.64981,-1.762513 1.59452,-1.826612 z"
         style="fill:none;fill-opacity:1;fill-rule:evenodd;stroke:#040002;stroke-width:0.264583;stroke-linecap:butt;stroke-linejoin:miter;stroke-miterlimit:22.9256;stroke-dasharray:none;stroke-opacity:1"
         id="path2352" />
      <path
         d="m 578.6374,37.939597 c 0.94471,-0.0641 1.76259,0.649711 1.82668,1.594415 0.0641,0.944809 -0.64967,1.762584 -1.59437,1.826683 -0.94481,0.06421 -1.76262,-0.649675 -1.82672,-1.594379 -0.0642,-0.944704 0.64971,-1.762619 1.59441,-1.826719 z"
         style="fill:none;fill-opacity:1;fill-rule:evenodd;stroke:#040002;stroke-width:0.264583;stroke-linecap:butt;stroke-linejoin:miter;stroke-miterlimit:22.9256;stroke-dasharray:none;stroke-opacity:1"
         id="path2354" />
      <path
         d="m 699.7997,66.277813 c 0.9797,-0.0665 1.82788,0.6737 1.89438,1.653399 0.0665,0.979699 -0.67377,1.827777 -1.65347,1.894311 -0.97973,0.0665 -1.82792,-0.6737 -1.89441,-1.653434 -0.0665,-0.97977 0.6738,-1.827777 1.6535,-1.894276 z"
         style="fill:none;fill-opacity:1;fill-rule:evenodd;stroke:#040002;stroke-width:0.264583;stroke-linecap:butt;stroke-linejoin:miter;stroke-miterlimit:22.9256;stroke-dasharray:none;stroke-opacity:1"
         id="path2362" />
      <path
         d="m 727.7119,96.770407 c 0.9797,-0.0666 1.82788,0.6737 1.89438,1.653399 0.0665,0.979699 -0.67377,1.827814 -1.6535,1.894314 -0.9797,0.0665 -1.82789,-0.673703 -1.89439,-1.653508 -0.0665,-0.979699 0.67381,-1.827706 1.65351,-1.894205 z"
         style="fill:none;fill-opacity:1;fill-rule:evenodd;stroke:#040002;stroke-width:0.264583;stroke-linecap:butt;stroke-linejoin:miter;stroke-miterlimit:22.9256;stroke-dasharray:none;stroke-opacity:1"
         id="path2364" />
      <path
         d="m 671.1085,101.50772 c 2.62449,-0.17822 4.89648,1.80499 5.0746,4.42937 0.17819,2.62442 -1.80492,4.89652 -4.42941,5.0746 -2.62459,0.17823 -4.89648,-1.80488 -5.07471,-4.42937 -0.17818,-2.62442 1.80492,-4.89641 4.42952,-5.0746 z"
         style="fill:none;fill-opacity:1;fill-rule:evenodd;stroke:#040002;stroke-width:0.264583;stroke-linecap:butt;stroke-linejoin:miter;stroke-miterlimit:22.9256;stroke-dasharray:none;stroke-opacity:1"
         id="path2366" />
      <path
         d="m 709.81859,122.44691 c 2.62449,-0.17822 4.89652,1.80499 5.07471,4.42941 0.17808,2.62439 -1.80499,4.89649 -4.42952,5.07457 -2.62449,0.17822 -4.89648,-1.80488 -5.07467,-4.42937 -0.17812,-2.62442 1.80499,-4.89642 4.42948,-5.07461 z"
         style="fill:none;fill-opacity:1;fill-rule:evenodd;stroke:#040002;stroke-width:0.264583;stroke-linecap:butt;stroke-linejoin:miter;stroke-miterlimit:22.9256;stroke-dasharray:none;stroke-opacity:1"
         id="path2368" />
      <path
         d="m 742.80331,151.5175 c 2.62459,-0.17819 4.89648,1.80491 5.07467,4.4294 0.17822,2.62439 -1.80488,4.89642 -4.42948,5.07461 -2.62452,0.17818 -4.89652,-1.80499 -5.0746,-4.42941 -0.17822,-2.62438 1.80488,-4.89649 4.42941,-5.0746 z"
         style="fill:none;fill-opacity:1;fill-rule:evenodd;stroke:#040002;stroke-width:0.264583;stroke-linecap:butt;stroke-linejoin:miter;stroke-miterlimit:22.9256;stroke-dasharray:none;stroke-opacity:1"
         id="path2370" />
      <path
         d="m 578.74359,87.864815 c 0.9447,-0.06421 1.76251,0.649675 1.82661,1.594379 0.0642,0.944703 -0.64971,1.762619 -1.59441,1.826718 -0.94467,0.0641 -1.76248,-0.64971 -1.82669,-1.594414 -0.0641,-0.94481 0.64971,-1.762584 1.59449,-1.826683 z"
         style="fill:none;fill-opacity:1;fill-rule:evenodd;stroke:#040002;stroke-width:0.264583;stroke-linecap:butt;stroke-linejoin:miter;stroke-miterlimit:22.9256;stroke-dasharray:none;stroke-opacity:1"
         id="path2372" />
      <path
         d="m 704.67078,74.601323 c -0.6405,-0.831603 0.35271,-1.788619 1.35672,-1.098833 l 16.66839,18.202205 c 0.59652,1.092306 -0.6484,1.813807 -1.4618,1.34112 z"
         style="fill:none;fill-opacity:1;fill-rule:evenodd;stroke:#040002;stroke-width:0.264583;stroke-linecap:butt;stroke-linejoin:miter;stroke-miterlimit:22.9256;stroke-dasharray:none;stroke-opacity:1"
         id="path2374" />
      <path
         d="m 751.96661,170.59812 c 0.69969,-0.0475 1.30548,0.48129 1.35297,1.1811 0.0475,0.6998 -0.48119,1.30559 -1.181,1.35308 -0.69969,0.0475 -1.30548,-0.4813 -1.35307,-1.1811 -0.0475,-0.6997 0.48129,-1.3056 1.1811,-1.35308 z"
         style="fill:none;fill-opacity:1;fill-rule:evenodd;stroke:#040002;stroke-width:0.264583;stroke-linecap:butt;stroke-linejoin:miter;stroke-miterlimit:22.9256;stroke-dasharray:none;stroke-opacity:1"
         id="path2376" />
      <path
         d="m 720.48839,64.289522 c 0.6997,-0.04752 1.30549,0.481295 1.35301,1.180994 0.0475,0.699806 -0.4813,1.305596 -1.181,1.35308 -0.6997,0.04752 -1.30559,-0.481189 -1.35311,-1.180995 -0.0475,-0.699805 0.48129,-1.305595 1.1811,-1.353079 z"
         style="fill:none;fill-opacity:1;fill-rule:evenodd;stroke:#040002;stroke-width:0.264583;stroke-linecap:butt;stroke-linejoin:miter;stroke-miterlimit:22.9256;stroke-dasharray:none;stroke-opacity:1"
         id="path2382" />
      <path
         d="m 742.16799,114.62001 c 0.6997,-0.0475 1.3056,0.48119 1.35312,1.18099 0.0475,0.69981 -0.48133,1.3056 -1.1811,1.35312 -0.6997,0.0475 -1.30553,-0.48123 -1.35301,-1.18103 -0.0475,-0.69977 0.48129,-1.3056 1.18099,-1.35308 z"
         style="fill:none;fill-opacity:1;fill-rule:evenodd;stroke:#040002;stroke-width:0.264583;stroke-linecap:butt;stroke-linejoin:miter;stroke-miterlimit:22.9256;stroke-dasharray:none;stroke-opacity:1"
         id="path2384" />
      <path
         d="m 659.5727,131.77962 c 0.6997,-0.0475 1.30549,0.48118 1.35301,1.18099 0.0475,0.6998 -0.4813,1.3056 -1.181,1.35308 -0.6997,0.0475 -1.30563,-0.4813 -1.35311,-1.181 -0.0475,-0.6998 0.48129,-1.30559 1.1811,-1.35307 z"
         style="fill:none;fill-opacity:1;fill-rule:evenodd;stroke:#040002;stroke-width:0.264583;stroke-linecap:butt;stroke-linejoin:miter;stroke-miterlimit:22.9256;stroke-dasharray:none;stroke-opacity:1"
         id="path2386" />
      <path
         d="m 566.93869,129.4183 c 0.6997,-0.0476 1.3056,0.48122 1.35312,1.18099 0.0475,0.69981 -0.4813,1.30563 -1.1811,1.35312 -0.6997,0.0475 -1.30549,-0.4813 -1.35301,-1.181 -0.0475,-0.6998 0.48129,-1.30559 1.18099,-1.35311 z"
         style="fill:none;fill-opacity:1;fill-rule:evenodd;stroke:#040002;stroke-width:0.264583;stroke-linecap:butt;stroke-linejoin:miter;stroke-miterlimit:22.9256;stroke-dasharray:none;stroke-opacity:1"
         id="path2388" />
      <path
         d="m 567.5134,27.060707 c 0.69981,-0.04748 1.3056,0.481189 1.35312,1.180994 0.0475,0.699805 -0.48133,1.305595 -1.18103,1.353114 -0.69977,0.04748 -1.3056,-0.481224 -1.35308,-1.180994 -0.0475,-0.699805 0.48129,-1.30563 1.18099,-1.353114 z"
         style="fill:none;fill-opacity:1;fill-rule:evenodd;stroke:#040002;stroke-width:0.264583;stroke-linecap:butt;stroke-linejoin:miter;stroke-miterlimit:22.9256;stroke-dasharray:none;stroke-opacity:1"
         id="path2392" />
      <path
         d="m 550.39049,77.92971 c 0.6998,-0.04752 1.30563,0.481295 1.35311,1.1811 0.0475,0.699806 -0.48129,1.305596 -1.18099,1.35308 -0.69981,0.04752 -1.3056,-0.481295 -1.35312,-1.1811 -0.0475,-0.6997 0.4813,-1.305596 1.181,-1.35308 z"
         style="fill:none;fill-opacity:1;fill-rule:evenodd;stroke:#040002;stroke-width:0.264583;stroke-linecap:butt;stroke-linejoin:miter;stroke-miterlimit:22.9256;stroke-dasharray:none;stroke-opacity:1"
         id="path2394" />
      <path
         d="m 590.8778,29.862397 53.03139,0.418218 c 4.99579,0.03941 9.04889,4.413886 9.00712,9.721286 v 0 c -0.0418,5.307401 -4.16352,9.617322 -9.15931,9.577987 L 590.72561,49.1616 c -4.99582,-0.0393 -9.04899,-4.413779 -9.00712,-9.72118 v 0 c 0.0418,-5.307401 4.16363,-9.617428 9.15931,-9.578023 z"
         style="fill:none;stroke:#040002;stroke-width:0.264583;stroke-linecap:butt;stroke-linejoin:miter;stroke-miterlimit:22.9256;stroke-dasharray:none;stroke-opacity:1"
         id="path2404" />
      <path
         d="m 592.50721,82.282212 52.1601,9.582609 c 4.9137,0.902687 8.14938,5.912273 7.19028,11.132399 v 0 c -0.95899,5.22019 -5.764,8.75259 -10.67759,7.8499 l -52.1601,-9.58282 c -4.91381,-0.90269 -8.14931,-5.9122 -7.19028,-11.132394 v 0 c 0.95899,-5.220194 5.76389,-8.752488 10.67759,-7.849694 z"
         style="fill:none;stroke:#040002;stroke-width:0.264583;stroke-linecap:butt;stroke-linejoin:miter;stroke-miterlimit:22.9256;stroke-dasharray:none;stroke-opacity:1"
         id="path2406" />
      <path
         d="m 31.66683,85.234544 c 0.9447,-0.0642 1.76262,0.64971 1.82672,1.59441 0.0641,0.9447 -0.64971,1.76258 -1.59452,1.82668 -0.94471,0.0641 -1.76248,-0.64967 -1.82658,-1.59438 -0.0642,-0.9448 0.64967,-1.76261 1.59438,-1.82671 z"
         style="fill:none;fill-opacity:1;fill-rule:evenodd;stroke:#040002;stroke-width:0.264583;stroke-linecap:butt;stroke-linejoin:miter;stroke-miterlimit:22.9256;stroke-dasharray:none;stroke-opacity:1"
         id="path1622"
         transform="translate(547.49736,-107.46105)" />
      <path
         d="m 109.16565,85.741834 c 0.94477,-0.0641 1.76258,0.64971 1.82668,1.59452 0.0642,0.9447 -0.64971,1.76248 -1.59438,1.82668 -0.9447,0.0641 -1.76262,-0.64967 -1.82672,-1.59448 -0.0641,-0.9447 0.64971,-1.76251 1.59442,-1.82672 z"
         style="fill:none;fill-opacity:1;fill-rule:evenodd;stroke:#040002;stroke-width:0.264583;stroke-linecap:butt;stroke-linejoin:miter;stroke-miterlimit:22.9256;stroke-dasharray:none;stroke-opacity:1"
         id="path1624"
         transform="translate(547.49736,-107.46105)" />
      <path
         d="m 105.76173,65.863546 c 0.6998,-0.0475 1.30559,0.4813 1.35311,1.1811 0.0475,0.69981 -0.48129,1.3056 -1.18099,1.35312 -0.69981,0.0475 -1.30563,-0.4813 -1.35312,-1.1811 -0.0475,-0.6997 0.4813,-1.3056 1.181,-1.35312 z"
         style="fill:none;fill-opacity:1;fill-rule:evenodd;stroke:#040002;stroke-width:0.264583;stroke-linecap:butt;stroke-linejoin:miter;stroke-miterlimit:22.9256;stroke-dasharray:none;stroke-opacity:1"
         id="path1626"
         transform="translate(547.49736,-107.46105)" />
      <path
         d="m 188.59892,17.820543 c 0.69981,-0.04748 1.3056,0.481295 1.35312,1.1811 0.0475,0.699805 -0.4813,1.305595 -1.181,1.353114 -0.6998,0.04748 -1.30559,-0.481294 -1.35311,-1.1811 -0.0475,-0.699699 0.48129,-1.305595 1.18099,-1.353114 z"
         style="fill:none;fill-opacity:1;fill-rule:evenodd;stroke:#040002;stroke-width:0.264583;stroke-linecap:butt;stroke-linejoin:miter;stroke-miterlimit:22.9256;stroke-dasharray:none;stroke-opacity:1"
         id="path1644"
         transform="translate(547.49736,-107.46105)" />
      <path
         d="m 181.04083,77.354966 c 0.69981,-0.0475 1.3056,0.4813 1.35308,1.181 0.0475,0.6998 -0.48129,1.30559 -1.18099,1.35308 -0.69981,0.0476 -1.3056,-0.48119 -1.35308,-1.181 -0.0475,-0.6998 0.48129,-1.30559 1.18099,-1.35308 z"
         style="fill:none;fill-opacity:1;fill-rule:evenodd;stroke:#040002;stroke-width:0.264583;stroke-linecap:butt;stroke-linejoin:miter;stroke-miterlimit:22.9256;stroke-dasharray:none;stroke-opacity:1"
         id="path1646"
         transform="translate(547.49736,-107.46105)" />
      <path
         d="m 25.81082,33.659136 c 0.6997,-0.04748 1.30553,0.481225 1.35301,1.18103 0.0476,0.69977 -0.48119,1.305595 -1.18099,1.353079 -0.6997,0.04752 -1.30549,-0.481189 -1.35312,-1.180994 -0.0475,-0.699805 0.48133,-1.305595 1.1811,-1.353115 z"
         style="fill:none;fill-opacity:1;fill-rule:evenodd;stroke:#040002;stroke-width:0.264583;stroke-linecap:butt;stroke-linejoin:miter;stroke-miterlimit:22.9256;stroke-dasharray:none;stroke-opacity:1"
         id="path1656"
         transform="translate(547.49736,-107.46105)" />
      <path
         id="path1662"
         style="fill:none;stroke:#040002;stroke-width:0.264583;stroke-linecap:butt;stroke-linejoin:miter;stroke-miterlimit:22.9256;stroke-dasharray:none;stroke-opacity:1"
         transform="translate(547.49736,-107.46105)"
         d="m 98.96804,57.543638 c -0.91101,3.482517 -2.1748,4.653598 -5.5329,5.574313 -15.46182,2.175505 -30.13692,2.543915 -45.88961,-0.521794 -3.18911,-0.736106 -4.70408,-3.599321 -4.76169,-6.041813 L 42.871925,32.547629 28.74394,26.071941 c -2.04191,-0.725276 -15.56399,-1.012296 -10.87519,17.382102 0.56769,1.953225 0.89528,3.922818 1.35319,5.883416 3.09851,12.47641 3.5759,25.065814 3.10991,37.654301 -0.21731,12.744803 -1.89152,24.37141 -5.28662,36.22781 -3.34469,11.96118 -8.46578,22.63119 -13.26797,34.17178 -4.02583,9.58261 -7.09172,19.91039 -8.85793,30.249 -3.70117,16.59682 -0.3736,36.12611 9.17081,48.83609 5.22629,5.64952 12.64461,11.7651 26.86076,11.26747 l -0.08175,-10.7963 c 0.1553,-3.45289 1.79991,-5.05831 6.09759,-4.8955 l 65.92617,0.009 c 2.43989,0.35675 3.85962,1.98804 4.05993,4.75463 l 0.0654,10.97895 c 14.15525,0.16255 29.89186,0.47356 41.79066,6.21925 10.83039,5.22983 14.90447,9.68333 22.8805,16.38402 7.9478,6.67689 19.18007,16.21349 24.76267,19.1383 7.9092,4.1437 19.98369,-0.4778 20.1077,-13.12079 -0.16528,-5.94251 -1.11799,-12.20572 -2.31327,-18.01333 -2.66933,-11.5746 -7.08241,-23.2259 -11.01842,-34.32478 -3.7339,-10.3548 -8.04509,-19.64821 -12.66221,-29.61831 -6.02139,-12.79761 -11.74087,-25.45168 -15.30238,-39.32551 -2.7451,-13.64777 -3.07572,-24.06657 -0.31111,-36.9194 2.51612,-10.45439 7.15832,-20.20887 11.14492,-30.048689 7.53149,-15.666085 12.56668,-29.936898 13.1898,-48.081882 0.14019,-4.082627 -0.39663,-8.087607 -0.91941,-11.71441 -0.3851,-2.672221 -0.82582,-4.469412 -1.61262,-7.584404 -1.01738,-4.028405 -2.33419,-7.059789 -3.70219,-9.4627 -0.94269,-1.656186 -1.85808,-3.143391 -3.16639,-4.263815 -2.08552,-1.7859 -4.1957,-1.19507 -5.1664,0.657227 -0.0342,0.0654 -0.0604,0.136278 -0.0887,0.206586 -0.4493,1.117988 -0.39638,0.998997 -0.47597,1.282312 -0.45431,1.613394 -0.25591,0.857674 -0.453,1.599601 -0.83803,3.154186 -1.40931,6.953673 -1.90892,9.13638 -2.86988,12.537016 -6.02317,22.876485 -15.40808,32.135808 -19.94028,19.480097 -41.38839,18.326257 -66.35382,5.684607 -0.0218,-0.01102 -0.542307,-0.317221 -0.97931,-0.568474 z"
         sodipodi:nodetypes="cccccccccccccccccccscscccccccsccccccccccscc" />
      <path
         d="m 44.11784,77.430466 53.03138,0.41818 c 4.99573,0.0394 9.049,4.41392 9.00702,9.721208 v 0 c -0.0418,5.30751 -4.16341,9.6175 -9.15931,9.5781 l -53.03128,-0.41822 c -4.99583,-0.0394 -9.049,-4.41389 -9.00712,-9.72129 v 0 c 0.0419,-5.307398 4.16352,-9.617388 9.15931,-9.577978 z"
         style="fill:none;stroke:#040002;stroke-width:0.264583;stroke-linecap:butt;stroke-linejoin:miter;stroke-miterlimit:22.9256;stroke-dasharray:none;stroke-opacity:1"
         id="path1668"
         transform="translate(547.49736,-107.46105)" />
    </g>
    <g
       id="g378"
       transform="translate(-656.25629,-40.102514)"
       style="display:none;fill:none;stroke:#040002;stroke-width:0.264583;stroke-dasharray:none;stroke-opacity:1"
       inkscape:label="top">
      <path
         id="path376"
         style="fill:none;stroke:#040002;stroke-width:0.264583;stroke-linecap:butt;stroke-linejoin:miter;stroke-miterlimit:22.9256;stroke-dasharray:none;stroke-opacity:1"
         d="m 187.23269,5.9856425 c -1.0599,0.045152 -1.96649,0.6876941 -2.51251,1.7296101 -0.0342,0.0654 -0.0606,0.1363978 -0.0889,0.2067058 -0.4493,1.1179869 -0.39635,0.9992943 -0.47594,1.282609 -0.45431,1.6133926 -0.25559,0.8574596 -0.45268,1.5993856 -0.83803,3.154183 -1.40932,6.953688 -1.90893,9.136393 -2.86988,12.537004 -6.02346,22.876709 -15.40836,32.136023 -19.94026,19.480078 -41.38817,18.326045 -66.35358,5.684408 -0.0218,-0.01102 -0.542262,-0.317188 -0.979264,-0.568441 l -0.08475,0.3514 c -0.911009,3.482513 -2.174382,4.653622 -5.532478,5.574336 -15.461805,2.175503 -30.137032,2.543774 -45.889706,-0.521932 -3.189107,-0.736105 -4.704373,-3.599518 -4.761983,-6.042008 l 0.08837,-24.006287 -14.12782,-6.47609 C 26.702268,25.34648 13.180075,25.059777 17.868871,43.454156 c 0.567689,1.953223 0.894979,3.922766 1.352889,5.883362 3.098506,12.476398 3.575877,25.065558 3.109887,37.654033 -0.217309,12.74479 -1.891402,24.371379 -5.286499,36.227759 -3.344686,11.96117 -8.4657385,22.6315 -13.2679237,34.17208 -0.6168104,1.46818 -1.2024978,2.95915 -1.7730184,4.45967 H 177.18266 c -0.69041,-2.2114 -1.33634,-4.44664 -1.91926,-6.71742 -2.7451,-13.64775 -3.0757,-24.06689 -0.31109,-36.91971 2.51611,-10.45438 7.15846,-20.208482 11.14505,-30.048291 7.53148,-15.666069 12.56678,-29.936854 13.18989,-48.081819 0.14019,-4.082623 -0.39654,-8.087732 -0.91932,-11.714531 -0.3851,-2.672218 -0.82602,-4.469561 -1.61282,-7.58455 -1.01738,-4.028401 -2.3341,-7.059563 -3.7021,-9.462471 -0.94269,-1.6561847 -1.85842,-3.1433999 -3.16673,-4.2638228 -0.91242,-0.7813305 -1.82922,-1.107921 -2.65359,-1.0728027 z m 1.36633,11.8349365 c 0.69981,-0.04748 1.30537,0.481002 1.35289,1.180806 0.0475,0.699805 -0.48111,1.305887 -1.18081,1.353406 -0.6998,0.04748 -1.30589,-0.481518 -1.35341,-1.181323 -0.0475,-0.699698 0.48163,-1.30537 1.18133,-1.352889 z M 25.811021,33.658889 c 0.6997,-0.04748 1.30541,0.481519 1.352889,1.181323 0.0476,0.699769 -0.481523,1.305405 -1.181323,1.352889 -0.699699,0.04752 -1.305259,-0.481002 -1.352889,-1.180807 -0.0475,-0.699804 0.481554,-1.305885 1.181323,-1.353405 z M 105.7617,65.863641 c 0.6998,-0.0475 1.30537,0.481007 1.35289,1.180807 0.0475,0.699809 -0.48111,1.305886 -1.18081,1.353406 -0.69981,0.0475 -1.3054,-0.481524 -1.35289,-1.181324 -0.0475,-0.699699 0.48111,-1.305369 1.18081,-1.352889 z m 75.27912,11.491289 c 0.69981,-0.0475 1.30541,0.481107 1.35289,1.180806 0.0475,0.699799 -0.48111,1.305916 -1.1808,1.353406 -0.69981,0.0476 -1.30541,-0.481514 -1.35289,-1.181323 -0.0475,-0.6998 0.4811,-1.305399 1.1808,-1.352889 z m -136.922906,0.07545 53.031389,0.418062 c 4.995727,0.0394 9.048667,4.414088 9.006687,9.721371 -0.0418,5.307505 -4.16324,9.617627 -9.159133,9.578227 L 43.965469,96.729974 c -4.995825,-0.0394 -9.048565,-4.413975 -9.006685,-9.72137 0.0419,-5.307393 4.163345,-9.617637 9.15913,-9.578227 z m -12.450919,7.804175 c 0.944699,-0.0642 1.762662,0.649519 1.826762,1.594218 0.0641,0.944699 -0.649926,1.762662 -1.594735,1.826762 -0.944709,0.0641 -1.762662,-0.649509 -1.826762,-1.594218 -0.0642,-0.944799 0.650026,-1.762662 1.594735,-1.826762 z m 77.498625,0.507463 c 0.94477,-0.0641 1.76267,0.649408 1.82677,1.594217 0.0642,0.9447 -0.64955,1.762562 -1.59422,1.826762 -0.9447,0.0641 -1.76266,-0.649409 -1.82676,-1.594218 -0.0641,-0.944699 0.6495,-1.762552 1.59421,-1.826761 z M 20.016026,134.52198 c 0.69981,-0.0475 1.305369,0.48101 1.352889,1.18081 0.0475,0.69981 -0.481107,1.30538 -1.180806,1.35289 -0.699769,0.0475 -1.305409,-0.48104 -1.352889,-1.18081 -0.0475,-0.6998 0.481107,-1.30541 1.180806,-1.35289 z m 23.364466,2.80138 53.031388,0.41806 c 4.99579,0.0394 9.04897,4.41398 9.0072,9.72137 -0.0418,5.3074 -4.16386,9.61756 -9.159645,9.57823 l -53.031389,-0.41858 c -4.995815,-0.0393 -9.048555,-4.41346 -9.006685,-9.72085 0.0418,-5.3074 4.163456,-9.61764 9.159131,-9.57823 z m -12.240597,8.07755 c 0.944709,-0.0641 1.762672,0.64951 1.826762,1.59421 0.0641,0.94481 -0.649519,1.76268 -1.594218,1.82677 -0.944809,0.0642 -1.762662,-0.65004 -1.826762,-1.59474 -0.0642,-0.94471 0.649519,-1.76214 1.594218,-1.82624 z m 77.511035,0.45268 c 0.9447,-0.0642 1.76256,0.64951 1.82676,1.59422 0.0641,0.9447 -0.64997,1.76259 -1.59474,1.82676 -0.94471,0.0641 -1.76256,-0.64941 -1.82676,-1.59422 -0.0641,-0.94471 0.65003,-1.76266 1.59474,-1.82676 z"
         transform="translate(547.49736,-107.46105)" />
    </g>
    <g
       id="g484"
       transform="translate(-656.25629,-40.102514)"
       style="display:none;fill:none;stroke:#040002;stroke-width:0.264583;stroke-dasharray:none;stroke-opacity:1"
       inkscape:label="bottom">
      <path
         id="path482"
         style="fill:none;stroke:#040002;stroke-width:0.264583;stroke-linecap:butt;stroke-linejoin:miter;stroke-miterlimit:22.9256;stroke-dasharray:none;stroke-opacity:1"
         d="m 13.773513,133.2218 c -2.990362,8.13493 -6.5691901,15.93361 -9.9962887,24.16959 -4.025826,9.5826 -7.0916491,19.9102 -8.8578573,30.2488 -3.7011663,16.5968 -0.373384,36.12633 9.1710165,48.83629 5.2262847,5.64952 12.6442405,11.76516 26.8603755,11.26753 l -0.08165,-10.79624 c 0.1553,-3.45288 1.800143,-5.05863 6.097819,-4.89582 l 65.92621,0.009 c 2.43989,0.35675 3.85939,1.98816 4.0597,4.75475 l 0.0656,10.97866 c 14.15523,0.16255 29.89142,0.47357 41.79021,6.21925 10.83038,5.22983 14.90475,9.68333 22.88078,16.38402 7.94779,6.67688 19.18023,16.21356 24.76283,19.13836 7.90919,4.1437 19.98329,-0.47767 20.1073,-13.12064 -0.16528,-5.94251 -1.11776,-12.20577 -2.31304,-18.01337 -2.66933,-11.57459 -7.08244,-23.22617 -11.01845,-34.32504 -3.7339,-10.35479 -8.04516,-19.64826 -12.66228,-29.61835 -6.02138,-12.79759 -11.74092,-25.45143 -15.30242,-39.32525 -1.61681,-8.03828 -2.38749,-14.95676 -2.19005,-21.91184 z m 6.242513,1.30018 c 0.69981,-0.0475 1.305369,0.48101 1.352889,1.18081 0.0475,0.69981 -0.481107,1.30538 -1.180806,1.35289 -0.699769,0.0475 -1.305409,-0.48104 -1.352889,-1.18081 -0.0475,-0.6998 0.481107,-1.30541 1.180806,-1.35289 z m 23.364466,2.80138 53.031388,0.41806 c 4.99579,0.0394 9.04897,4.41398 9.0072,9.72137 -0.0418,5.3074 -4.16386,9.61756 -9.159645,9.57823 l -53.031389,-0.41858 c -4.995815,-0.0393 -9.048555,-4.41346 -9.006685,-9.72085 0.0418,-5.3074 4.163456,-9.61764 9.159131,-9.57823 z m -12.240597,8.07755 c 0.944709,-0.0641 1.762672,0.64951 1.826762,1.59421 0.0641,0.94481 -0.649519,1.76268 -1.594218,1.82677 -0.944809,0.0642 -1.762662,-0.65004 -1.826762,-1.59474 -0.0642,-0.94471 0.649519,-1.76214 1.594218,-1.82624 z m 77.511035,0.45268 c 0.9447,-0.0642 1.76256,0.64951 1.82676,1.59422 0.0641,0.9447 -0.64997,1.76259 -1.59474,1.82676 -0.94471,0.0641 -1.76256,-0.64941 -1.82676,-1.59422 -0.0641,-0.94471 0.65003,-1.76266 1.59474,-1.82676 z m 64.34026,25.89713 c 0.69969,-0.0475 1.30536,0.48111 1.35288,1.1808 0.0475,0.6998 -0.4811,1.3054 -1.1808,1.35289 -0.6997,0.0475 -1.30589,-0.48099 -1.35341,-1.1808 -0.0475,-0.6998 0.48152,-1.3054 1.18133,-1.35289 z m -20.68866,1.98799 c 0.97969,-0.0665 1.82744,0.67395 1.89394,1.65365 0.0665,0.9797 -0.67343,1.82792 -1.65313,1.89445 -0.97973,0.0665 -1.82797,-0.67391 -1.89446,-1.65364 -0.0665,-0.97977 0.67395,-1.82796 1.65365,-1.89446 z m 5.50199,6.98872 c 0.22429,-0.006 0.47453,0.0637 0.72553,0.23616 l 16.66824,18.20199 c 0.59651,1.09231 -0.64801,1.81421 -1.46141,1.34152 l -16.56333,-18.44487 c -0.48038,-0.6237 -0.0419,-1.31766 0.63097,-1.3348 z M 2.8930405,185.39071 c 0.6997993,-0.0475 1.3059258,0.48152 1.3534058,1.18133 0.0475,0.6998 -0.481624,1.3054 -1.1813233,1.35288 -0.6998093,0.0475 -1.305369,-0.48152 -1.352889,-1.18132 -0.0475,-0.6997 0.4811072,-1.30541 1.1808065,-1.35289 z m 40.2864295,4.21628 c 0.603513,-0.0204 1.216168,0.0236 1.83038,0.13643 l 52.160123,9.58236 c 4.913697,0.90269 8.149357,5.91253 7.190257,11.13265 -0.95899,5.22019 -5.763797,8.75234 -10.677382,7.84965 l -52.160124,-9.58287 c -4.913805,-0.90269 -8.149288,-5.91196 -7.190259,-11.13214 0.839116,-4.56767 4.622415,-7.8434 8.847005,-7.98608 z m -11.933121,5.71903 c 0.944699,-0.0642 1.762145,0.64952 1.826245,1.59422 0.0642,0.94471 -0.649519,1.76266 -1.594218,1.82676 -0.944669,0.0641 -1.762552,-0.64952 -1.826762,-1.59421 -0.0641,-0.94481 0.649956,-1.76267 1.594735,-1.82677 z m 148.968171,8.9054 c 0.9797,-0.0666 1.82795,0.67395 1.89445,1.65365 0.0665,0.97969 -0.67391,1.82744 -1.65364,1.89394 -0.9797,0.0665 -1.82796,-0.67332 -1.89446,-1.65313 -0.0665,-0.9797 0.67395,-1.82796 1.65365,-1.89446 z m -56.11596,4.72891 c 2.41277,0.0806 4.42033,1.97762 4.58732,4.43798 0.17819,2.62441 -1.80522,4.89654 -4.4297,5.07462 -2.62459,0.17823 -4.8964,-1.80522 -5.07463,-4.4297 -0.17818,-2.62442 1.80511,-4.89644 4.4297,-5.07463 0.16403,-0.0111 0.32646,-0.0136 0.48731,-0.008 z m -16.82119,0.12971 c 0.94481,-0.0641 1.76266,0.65004 1.82676,1.59474 0.0642,0.9448 -0.65004,1.76266 -1.59474,1.82676 -0.94471,0.0642 -1.76266,-0.65004 -1.82676,-1.59474 -0.0641,-0.9447 0.65004,-1.76266 1.59474,-1.82676 z m 87.39311,12.99094 c 0.6997,-0.0475 1.30589,0.48152 1.35341,1.18132 0.0475,0.69981 -0.48156,1.30537 -1.18133,1.35289 -0.69969,0.0475 -1.3054,-0.48101 -1.35288,-1.1808 -0.0475,-0.69977 0.4811,-1.30593 1.1808,-1.35341 z m -31.86162,7.81864 c 2.41278,0.0806 4.42026,1.97758 4.58732,4.43798 0.17808,2.62438 -1.80518,4.89602 -4.42971,5.0741 -2.62448,0.17822 -4.89643,-1.8047 -5.07462,-4.42918 -0.17812,-2.62442 1.8047,-4.89644 4.42919,-5.07463 0.16403,-0.0111 0.32697,-0.0136 0.48782,-0.008 z m -143.367476,6.97994 c 0.6997,-0.0476 1.305369,0.48104 1.352889,1.18081 0.0475,0.69981 -0.481007,1.30539 -1.180806,1.35288 -0.699699,0.0475 -1.305369,-0.4811 -1.352889,-1.1808 -0.0475,-0.6998 0.481107,-1.30537 1.180806,-1.35289 z m 92.634136,2.3611 c 0.6997,-0.0475 1.30537,0.48099 1.35289,1.1808 0.0475,0.6998 -0.4811,1.30593 -1.1808,1.35341 -0.6997,0.0475 -1.30593,-0.48163 -1.35341,-1.18133 -0.0475,-0.69979 0.48151,-1.3054 1.18132,-1.35288 z m 83.71789,19.72954 c 2.41284,0.0807 4.42026,1.97752 4.58732,4.43797 0.17822,2.62439 -1.80511,4.89644 -4.42971,5.07463 -2.62451,0.17818 -4.89654,-1.80529 -5.07462,-4.42971 -0.17822,-2.62437 1.80517,-4.89651 4.4297,-5.07462 0.16404,-0.0111 0.32645,-0.0137 0.48731,-0.008 z m 8.67596,19.08876 c 0.69969,-0.0475 1.3054,0.48151 1.35289,1.18132 0.0475,0.6998 -0.481,1.3054 -1.18081,1.35289 -0.69969,0.0475 -1.30582,-0.48101 -1.35341,-1.18081 -0.0475,-0.6997 0.48152,-1.30592 1.18133,-1.3534 z"
         transform="translate(547.49736,-107.46105)" />
    </g>
  </g>
</svg>
