<?xml version="1.0" encoding="UTF-8" standalone="no"?>
<!-- Created with Inkscape (http://www.inkscape.org/) -->

<svg
   width="210mm"
   height="297mm"
   viewBox="0 0 210 297"
   version="1.1"
   id="svg852"
   inkscape:version="1.2.1 (9c6d41e410, 2022-07-14, custom)"
   sodipodi:docname="strat-sss-11h-floyd_freecad_bottom.svg"
   xmlns:inkscape="http://www.inkscape.org/namespaces/inkscape"
   xmlns:sodipodi="http://sodipodi.sourceforge.net/DTD/sodipodi-0.dtd"
   xmlns="http://www.w3.org/2000/svg"
   xmlns:svg="http://www.w3.org/2000/svg">
  <sodipodi:namedview
     id="namedview854"
     pagecolor="#505050"
     bordercolor="#ffffff"
     borderopacity="1"
     inkscape:showpageshadow="0"
     inkscape:pageopacity="0"
     inkscape:pagecheckerboard="1"
     inkscape:deskcolor="#505050"
     inkscape:document-units="mm"
     showgrid="false"
     inkscape:zoom="1.1702277"
     inkscape:cx="-122.19844"
     inkscape:cy="296.52348"
     inkscape:current-layer="layer1" />
  <defs
     id="defs849">
    <inkscape:path-effect
       effect="spiro"
       id="path-effect3002"
       is_visible="true"
       lpeversion="1" />
    <inkscape:path-effect
       effect="spiro"
       id="path-effect2880"
       is_visible="true"
       lpeversion="1" />
    <inkscape:path-effect
       effect="spiro"
       id="path-effect2032"
       is_visible="true"
       lpeversion="1" />
    <inkscape:path-effect
       effect="spiro"
       id="path-effect1810"
       is_visible="true"
       lpeversion="1" />
    <inkscape:path-effect
       effect="spiro"
       id="path-effect1517"
       is_visible="true"
       lpeversion="1" />
    <inkscape:path-effect
       effect="spiro"
       id="path-effect1158"
       is_visible="true"
       lpeversion="1" />
    <inkscape:path-effect
       effect="spiro"
       id="path-effect1097"
       is_visible="true"
       lpeversion="1" />
    <inkscape:path-effect
       effect="spiro"
       id="path-effect1151"
       is_visible="true"
       lpeversion="1" />
  </defs>
  <g
     inkscape:label="Layer 1"
     inkscape:groupmode="layer"
     id="layer1">
    <g
       id="g2998"
       transform="rotate(180,108.97937,55.560459)"
       inkscape:label="bottom"
       style="display:inline">
      <path
         d="m 174.2917,84.574511 c -0.9797,0.0665 -1.82788,-0.6737 -1.89438,-1.653399 -0.0665,-0.979699 0.67377,-1.827777 1.65347,-1.894311 0.97973,-0.0665 1.82792,0.6737 1.89441,1.653434 0.0665,0.97977 -0.6738,1.827777 -1.6535,1.894276 z"
         style="display:inline;fill:none;fill-opacity:1;fill-rule:evenodd;stroke:#040002;stroke-width:0.264583;stroke-linecap:butt;stroke-linejoin:miter;stroke-miterlimit:22.9256;stroke-dasharray:none;stroke-opacity:1"
         id="path2944" />
      <path
         d="m 146.3795,54.081917 c -0.9797,0.0666 -1.82788,-0.6737 -1.89438,-1.653399 -0.0665,-0.979699 0.67377,-1.827814 1.6535,-1.894314 0.9797,-0.0665 1.82789,0.673703 1.89439,1.653508 0.0665,0.979699 -0.67381,1.827706 -1.65351,1.894205 z"
         style="display:inline;fill:none;fill-opacity:1;fill-rule:evenodd;stroke:#040002;stroke-width:0.264583;stroke-linecap:butt;stroke-linejoin:miter;stroke-miterlimit:22.9256;stroke-dasharray:none;stroke-opacity:1"
         id="path2946" />
      <path
         d="m 200.6912,57.282109 c -2.62449,0.17822 -4.89648,-1.80499 -5.0746,-4.42937 -0.17819,-2.62442 1.80492,-4.89652 4.42941,-5.0746 2.62459,-0.17823 4.89648,1.80488 5.07471,4.42937 0.17818,2.62442 -1.80492,4.89641 -4.42952,5.0746 z"
         style="display:inline;fill:none;fill-opacity:1;fill-rule:evenodd;stroke:#040002;stroke-width:0.264583;stroke-linecap:butt;stroke-linejoin:miter;stroke-miterlimit:22.9256;stroke-dasharray:none;stroke-opacity:1"
         id="path2948" />
      <path
         d="m 163.21447,31.580416 c -2.62449,0.17822 -4.89652,-1.80499 -5.07471,-4.42941 -0.17808,-2.62439 1.80499,-4.89649 4.42952,-5.07457 2.62449,-0.17822 4.89648,1.80488 5.07467,4.42937 0.17812,2.62442 -1.80499,4.89642 -4.42948,5.07461 z"
         style="display:inline;fill:none;fill-opacity:1;fill-rule:evenodd;stroke:#040002;stroke-width:0.264583;stroke-linecap:butt;stroke-linejoin:miter;stroke-miterlimit:22.9256;stroke-dasharray:none;stroke-opacity:1"
         id="path2950" />
      <path
         d="m 131.28809,-0.665176 c -2.62459,0.17819 -4.89648,-1.80491 -5.07467,-4.4294 -0.17822,-2.62439 1.80488,-4.89642 4.42948,-5.07461 2.62452,-0.17818 4.89652,1.80499 5.0746,4.42941 0.17822,2.62438 -1.80488,4.89649 -4.42941,5.0746 z"
         style="display:inline;fill:none;fill-opacity:1;fill-rule:evenodd;stroke:#040002;stroke-width:0.264583;stroke-linecap:butt;stroke-linejoin:miter;stroke-miterlimit:22.9256;stroke-dasharray:none;stroke-opacity:1"
         id="path2952" />
      <path
         d="m 169.42062,76.251001 c 0.6405,0.831603 -0.35271,1.788619 -1.35672,1.098833 L 151.39551,59.147629 c -0.59652,-1.092306 0.6484,-1.813807 1.4618,-1.34112 z"
         style="display:inline;fill:none;fill-opacity:1;fill-rule:evenodd;stroke:#040002;stroke-width:0.264583;stroke-linecap:butt;stroke-linejoin:miter;stroke-miterlimit:22.9256;stroke-dasharray:none;stroke-opacity:1"
         id="path2954" />
      <path
         d="m 218.08974,112.8288 c -0.94416,0.0717 -1.76776,-0.6356 -1.83941,-1.57976 -0.0716,-0.94415 0.6356,-1.76771 1.57987,-1.83936 0.94417,-0.0716 1.76762,0.63556 1.83926,1.57973 0.0718,0.94425 -0.63556,1.76774 -1.57972,1.83939 z"
         style="display:inline;fill:none;fill-opacity:1;fill-rule:evenodd;stroke:#040002;stroke-width:0.264583;stroke-linecap:butt;stroke-linejoin:miter;stroke-miterlimit:22.9256;stroke-dasharray:none;stroke-opacity:1"
         id="path2962" />
      <path
         d="m 295.59005,112.71677 c -0.94423,0.0717 -1.76772,-0.6356 -1.83937,-1.57987 -0.0718,-0.94415 0.6356,-1.76761 1.57973,-1.83936 0.94416,-0.0716 1.76776,0.63556 1.83941,1.57983 0.0716,0.94415 -0.63561,1.76764 -1.57977,1.8394 z"
         style="display:inline;fill:none;fill-opacity:1;fill-rule:evenodd;stroke:#040002;stroke-width:0.264583;stroke-linecap:butt;stroke-linejoin:miter;stroke-miterlimit:22.9256;stroke-dasharray:none;stroke-opacity:1"
         id="path2964" />
      <path
         d="m 283.25327,120.80056 -53.03299,0.006 c -4.99588,5.3e-4 -9.08399,-4.34145 -9.08443,-9.64891 v 0 c -6.2e-4,-5.30767 4.08641,-9.65046 9.08247,-9.651 l 53.03288,-0.006 c 4.99598,-5.4e-4 9.08399,4.34142 9.08453,9.64898 v 0 c 5.2e-4,5.30757 -4.08652,9.65036 -9.08246,9.65089 z"
         style="display:inline;fill:none;stroke:#040002;stroke-width:0.264583;stroke-linecap:butt;stroke-linejoin:miter;stroke-miterlimit:22.9256;stroke-dasharray:none;stroke-opacity:1"
         id="path2966" />
      <path
         d="m 219.3168,49.2231 c -0.94481,0.0641 -1.76259,-0.64967 -1.82669,-1.59437 -0.0642,-0.94481 0.64968,-1.76262 1.59438,-1.82672 0.94471,-0.0642 1.76262,0.64971 1.82672,1.59441 0.0641,0.9447 -0.64971,1.76258 -1.59441,1.82668 z"
         style="display:inline;fill:none;fill-opacity:1;fill-rule:evenodd;stroke:#040002;stroke-width:0.264583;stroke-linecap:butt;stroke-linejoin:miter;stroke-miterlimit:22.9256;stroke-dasharray:none;stroke-opacity:1"
         id="path2968" />
      <path
         d="m 295.34781,62.987505 c -0.9447,0.06421 -1.76251,-0.649675 -1.82661,-1.594379 -0.0642,-0.944703 0.64971,-1.762619 1.59441,-1.826718 0.94467,-0.0641 1.76248,0.64971 1.82669,1.594414 0.0641,0.94481 -0.64971,1.762584 -1.59449,1.826683 z"
         style="display:inline;fill:none;fill-opacity:1;fill-rule:evenodd;stroke:#040002;stroke-width:0.264583;stroke-linecap:butt;stroke-linejoin:miter;stroke-miterlimit:22.9256;stroke-dasharray:none;stroke-opacity:1"
         id="path2970" />
      <path
         d="m 281.58419,68.570108 -52.1601,-9.582609 c -4.9137,-0.902687 -8.14938,-5.912273 -7.19028,-11.132399 v 0 c 0.95899,-5.22019 5.764,-8.75259 10.67759,-7.8499 l 52.1601,9.58282 c 4.91381,0.90269 8.14931,5.9122 7.19028,11.132394 v 0 c -0.95899,5.220194 -5.76389,8.752488 -10.67759,7.849694 z"
         style="display:inline;fill:none;stroke:#040002;stroke-width:0.264583;stroke-linecap:butt;stroke-linejoin:miter;stroke-miterlimit:22.9256;stroke-dasharray:none;stroke-opacity:1"
         id="path2972"
         sodipodi:nodetypes="ccssccssc" />
      <path
         d="m 121.6615,-18.059659 c -0.99794,0.06775 -1.86194,-0.686441 -1.92968,-1.684546 -0.0678,-0.99809 0.6863,-1.862099 1.68441,-1.929832 0.99793,-0.06775 1.86194,0.686455 1.92981,1.684546 0.0678,0.997948 -0.68644,1.862114 -1.68454,1.929832 z"
         style="display:inline;fill:none;fill-opacity:1;fill-rule:evenodd;stroke:#040002;stroke-width:0.377362;stroke-linecap:butt;stroke-linejoin:miter;stroke-miterlimit:22.9256;stroke-dasharray:none;stroke-opacity:1"
         id="path2974" />
      <path
         d="m 153.7332,87.784028 c -0.99793,0.06777 -1.86193,-0.686438 -1.92971,-1.684371 -0.0678,-0.998085 0.68645,-1.862082 1.68438,-1.929805 0.99794,-0.06777 1.86208,0.686287 1.92985,1.684372 0.0677,0.998084 -0.68643,1.862081 -1.68452,1.929804 z"
         style="display:inline;fill:none;fill-opacity:1;fill-rule:evenodd;stroke:#040002;stroke-width:0.377357;stroke-linecap:butt;stroke-linejoin:miter;stroke-miterlimit:22.9256;stroke-dasharray:none;stroke-opacity:1"
         id="path2976" />
      <path
         d="m 131.71455,37.877477 c -0.99793,0.06775 -1.86209,-0.686288 -1.92986,-1.684365 -0.0678,-0.998091 0.68649,-1.862088 1.68452,-1.929862 0.99793,-0.06775 1.86199,0.686345 1.92971,1.684422 0.0677,0.998034 -0.68643,1.862088 -1.68437,1.929805 z"
         style="display:inline;fill:none;fill-opacity:1;fill-rule:evenodd;stroke:#040002;stroke-width:0.377357;stroke-linecap:butt;stroke-linejoin:miter;stroke-miterlimit:22.9256;stroke-dasharray:none;stroke-opacity:1"
         id="path2978" />
      <path
         d="m 203.97201,19.811185 c -0.99794,0.06775 -1.86193,-0.686274 -1.92971,-1.684365 -0.0678,-0.998077 0.68645,-1.862088 1.68438,-1.929805 0.99793,-0.06775 1.86213,0.686445 1.92985,1.684379 0.0677,0.998077 -0.68643,1.862074 -1.68452,1.929791 z"
         style="display:inline;fill:none;fill-opacity:1;fill-rule:evenodd;stroke:#040002;stroke-width:0.377357;stroke-linecap:butt;stroke-linejoin:miter;stroke-miterlimit:22.9256;stroke-dasharray:none;stroke-opacity:1"
         id="path2980" />
      <path
         d="m 307.06081,20.974211 c -0.99793,0.06789 -1.86208,-0.686331 -1.92986,-1.684366 -0.0677,-0.998091 0.68645,-1.862131 1.68452,-1.929862 0.99794,-0.06775 1.86193,0.686445 1.92971,1.684379 0.0677,0.998078 -0.68643,1.862074 -1.68437,1.929849 z"
         style="display:inline;fill:none;fill-opacity:1;fill-rule:evenodd;stroke:#040002;stroke-width:0.377357;stroke-linecap:butt;stroke-linejoin:miter;stroke-miterlimit:22.9256;stroke-dasharray:none;stroke-opacity:1"
         id="path2982" />
      <path
         d="m 306.70244,122.8962 c -0.99809,0.0677 -1.86208,-0.68629 -1.92986,-1.68438 -0.0677,-0.99808 0.68649,-1.86208 1.68442,-1.92985 0.99804,-0.0677 1.86209,0.68634 1.92981,1.68437 0.0677,0.99809 -0.68643,1.86213 -1.68437,1.92986 z"
         style="display:inline;fill:none;fill-opacity:1;fill-rule:evenodd;stroke:#040002;stroke-width:0.377357;stroke-linecap:butt;stroke-linejoin:miter;stroke-miterlimit:22.9256;stroke-dasharray:none;stroke-opacity:1"
         id="path2984"
         inkscape:label="path2392" />
      <path
         d="m 323.69625,72.255528 c -0.99808,0.06777 -1.86213,-0.686438 -1.92985,-1.684521 -0.0677,-0.998086 0.68643,-1.862082 1.68437,-1.929805 0.99809,-0.06777 1.86208,0.686438 1.92986,1.684521 0.0677,0.997934 -0.68645,1.862082 -1.68438,1.929805 z"
         style="display:inline;fill:none;fill-opacity:1;fill-rule:evenodd;stroke:#040002;stroke-width:0.377357;stroke-linecap:butt;stroke-linejoin:miter;stroke-miterlimit:22.9256;stroke-dasharray:none;stroke-opacity:1"
         id="path2986" />
      <path
         id="path2996"
         style="display:inline;fill:none;stroke:#000000;stroke-width:0.264583px;stroke-linecap:butt;stroke-linejoin:miter;stroke-opacity:1"
         inkscape:label="contour"
         d="M 312.72402 123.95321 C 312.73064 123.93308 312.7386 123.91341 312.7452 123.89327 C 313.04935 122.96523 313.32583 122.02837 313.64179 121.10429 C 314.0707 119.84986 314.5711 118.62082 315.07839 117.39599 C 315.43778 116.52826 315.8012 115.66195 316.18427 114.80441 C 316.59422 113.88669 317.02688 112.97894 317.4183 112.05316 C 317.84927 111.03386 318.22927 109.99407 318.64407 108.96808 C 319.02653 108.02207 319.4386 107.08813 319.82177 106.14241 C 320.20688 105.19191 320.5627 104.22991 320.93643 103.27489 C 321.4174 102.04582 321.92797 100.82843 322.41231 99.600691 C 322.77441 98.682838 323.12207 97.759171 323.4877 96.84272 C 323.81766 96.015671 324.16188 95.194409 324.48144 94.363285 C 324.82448 93.471055 325.13879 92.568109 325.4328 91.65854 C 325.68571 90.876105 325.92379 90.088786 326.18728 89.309846 C 326.46827 88.479135 326.77796 87.658279 327.04562 86.823176 C 327.30398 86.017107 327.5227 85.199151 327.75462 84.385082 C 327.96673 83.640573 328.18995 82.898758 328.4073 82.155761 C 328.65355 81.313927 328.89259 80.469847 329.10131 79.617931 C 329.32527 78.7038 329.51383 77.781772 329.72504 76.864611 C 329.93786 75.940504 330.17367 75.020598 330.33999 74.087003 C 330.48915 73.24974 330.58224 72.403855 330.69604 71.561059 C 330.8004 70.788277 330.92239 70.017868 331.04331 69.247505 C 331.19314 68.293016 331.34135 67.337789 331.4469 66.377396 C 331.54316 65.501542 331.60384 64.622194 331.65258 63.742415 C 331.69223 63.026591 331.72397 62.310192 331.76988 61.594742 C 331.82919 60.670455 331.91185 59.747696 331.96108 58.822818 C 331.99719 58.144649 332.01558 57.465778 332.02826 56.786767 C 332.04392 55.948661 332.05107 55.110104 332.02723 54.272192 C 332.00247 53.402183 331.9442 52.533869 331.89132 51.665116 C 331.84973 50.981845 331.81133 50.298093 331.76523 49.615112 C 331.71146 48.818538 331.64724 48.022478 331.55697 47.229211 C 331.46616 46.431124 331.349 45.636043 331.21953 44.84331 C 331.10029 44.113231 330.97026 43.385076 330.84901 42.65533 C 330.72499 41.908983 330.61008 41.16064 330.45162 40.420841 C 330.2908 39.670066 330.08561 38.929628 329.89713 38.185318 C 329.71536 37.46753 329.54901 36.745777 329.33954 36.035579 C 329.07999 35.155596 328.75483 34.296033 328.39334 33.452791 C 328.06366 32.683746 327.70351 31.927854 327.381 31.155773 C 327.10852 30.503467 326.86267 29.839314 326.56245 29.199303 C 326.21315 28.454674 325.79209 27.746305 325.37544 27.037161 C 324.91629 26.255697 324.46145 25.471369 323.96467 24.713272 C 323.38963 23.835747 322.75958 22.994887 322.09295 22.184744 C 321.58898 21.572279 321.0641 20.977125 320.52406 20.396223 C 319.97059 19.800887 319.4008 19.220417 318.8053 18.66713 C 318.28109 18.180083 317.7365 17.713928 317.16354 17.285302 C 316.38523 16.703059 315.55717 16.191616 314.72803 15.684366 C 313.945 15.20533 313.15916 14.728768 312.33903 14.316491 C 311.64696 13.968594 310.93218 13.667767 310.23166 13.337223 C 309.43649 12.962015 308.65706 12.547426 307.82819 12.254085 C 306.90822 11.928504 305.94226 11.7573 304.98547 11.565238 C 304.28279 11.424186 303.5803 11.270849 302.86622 11.209704 C 302.64253 11.19055 302.41789 11.180687 302.19339 11.179731 L 302.04973 28.779691 L 302.0456 28.828267 C 301.9825 29.067085 301.89933 29.300784 301.79652 29.525382 C 301.7385 29.652108 301.67374 29.776528 301.59239 29.889701 C 301.4944 30.026034 301.37306 30.144397 301.24203 30.249369 C 301.0795 30.37957 300.90116 30.490178 300.71235 30.578031 L 300.15321 30.667431 L 211.43821 30.665881 L 211.38756 30.666914 C 211.12118 30.608526 210.86075 30.522277 210.61242 30.409565 C 210.4855 30.351958 210.3612 30.28742 210.2481 30.20596 C 210.11186 30.107839 209.99345 29.986074 209.88843 29.855077 C 209.75817 29.692589 209.64756 29.514756 209.55977 29.325911 L 209.46985 28.762121 L 209.28485 11.111519 C 208.76609 11.062023 208.24724 11.016377 207.72784 10.974059 C 207.13618 10.925854 206.54389 10.882389 205.9512 10.849002 C 205.08487 10.800201 204.21742 10.772786 203.35188 10.711543 C 202.19688 10.629819 201.04726 10.487557 199.89421 10.381847 C 199.1312 10.311896 198.36638 10.257955 197.60391 10.182376 C 196.67177 10.08998 195.74322 9.9653654 194.81442 9.8438957 C 193.88375 9.7221824 192.95251 9.6037396 192.02492 9.4604566 C 190.77899 9.2679995 189.5405 9.0304699 188.30422 8.7834953 C 186.53823 8.4307003 184.77405 8.0573097 183.04718 7.5463615 C 181.29311 7.0273675 179.58338 6.3683099 177.89917 5.6544873 C 176.60588 5.1063511 175.3258 4.5253457 174.07821 3.8799187 C 173.14494 3.3970986 172.23076 2.8784777 171.32179 2.3513298 C 170.35736 1.7920189 169.39794 1.2225207 168.46719 0.60880049 C 167.57917 0.023258558 166.71832 -0.60176059 165.86063 -1.2308805 C 164.78443 -2.0202723 163.71274 -2.8164898 162.67271 -3.6529549 C 161.44934 -4.6368668 160.27083 -5.6756978 159.05071 -6.6636238 C 158.17258 -7.3746351 157.27307 -8.0589627 156.39661 -8.7720223 C 155.02719 -9.8861271 153.71482 -11.068638 152.37205 -12.214706 C 151.28332 -13.143942 150.17483 -14.049176 149.09318 -14.98663 C 148.08183 -15.863145 147.09415 -16.767556 146.07682 -17.637114 C 145.15568 -18.424451 144.21085 -19.182852 143.27338 -19.950668 C 142.51348 -20.573043 141.75831 -21.201739 141.00685 -21.834274 C 140.44121 -22.310398 139.87765 -22.788779 139.29791 -23.247624 C 138.63631 -23.771255 137.95435 -24.269082 137.27426 -24.768462 C 136.54432 -25.304449 135.81593 -25.842433 135.08886 -26.382317 C 134.17044 -27.064293 133.25274 -27.750241 132.27715 -28.347572 C 131.34292 -28.919572 130.35825 -29.408598 129.34399 -29.822417 C 128.60494 -30.123953 127.84997 -30.385497 127.08677 -30.619268 C 126.39815 -30.830192 125.70081 -31.018965 124.98819 -31.123113 C 124.31552 -31.221421 123.63333 -31.243903 122.95369 -31.228533 C 122.26288 -31.21291 121.57072 -31.157628 120.89593 -31.008908 C 120.39909 -30.899408 119.91462 -30.73966 119.43659 -30.565524 C 118.9698 -30.395483 118.50792 -30.211406 118.05424 -30.008969 C 117.61829 -29.81444 117.18987 -29.603347 116.76957 -29.376966 C 116.34922 -29.15056 115.93703 -28.908858 115.5407 -28.642644 C 115.19855 -28.412822 114.86837 -28.165063 114.548 -27.905738 C 114.20507 -27.628153 113.87316 -27.337186 113.55219 -27.034473 C 113.21088 -26.712573 112.88136 -26.376028 112.59411 -26.005079 C 112.36528 -25.709562 112.16423 -25.393762 111.96263 -25.079037 C 111.75933 -24.761677 111.55503 -24.444656 111.37093 -24.115789 C 111.2178 -23.842237 111.079 -23.561208 110.95339 -23.273979 C 110.7049 -22.705802 110.50817 -22.115314 110.35497 -21.514397 C 110.1622 -20.758221 110.03786 -19.986328 109.93536 -19.212729 C 109.83157 -18.429466 109.75013 -17.642791 109.71005 -16.8537 C 109.68178 -16.297088 109.67396 -15.738857 109.6961 -15.181967 C 109.7159 -14.683659 109.75941 -14.187104 109.79325 -13.689552 C 109.83282 -13.10781 109.85955 -12.524767 109.90435 -11.943405 C 109.96402 -11.169288 110.05639 -10.397911 110.16997 -9.629851 C 110.26927 -8.9583847 110.38483 -8.2894889 110.4945 -7.6196378 C 110.63796 -6.743318 110.77119 -5.8651941 110.93478 -4.992408 C 111.06298 -4.3084636 111.20982 -3.6281571 111.35956 -2.9486051 C 111.60072 -1.8542396 111.84984 -0.76204702 112.1068 0.32871422 C 112.31278 1.203033 112.5238 2.0765087 112.75276 2.945092 C 113.00242 3.8922094 113.27357 4.8337726 113.5124 5.7836784 C 113.6602 6.3715267 113.79573 6.9624186 113.93408 7.5525627 C 114.02613 7.945185 114.11964 8.3376354 114.22399 8.727168 C 114.44459 9.5506714 114.71342 10.359848 114.97278 11.17198 C 115.25785 12.064647 115.53144 12.96123 115.80632 13.857087 C 116.07317 14.72676 116.34149 15.596328 116.63779 16.456412 C 116.85103 17.075377 117.07859 17.689258 117.29253 18.307979 C 117.61865 19.251096 117.91272 20.204587 118.23614 21.148632 C 118.62933 22.2963 119.06586 23.428823 119.48 24.569095 C 119.76051 25.341455 120.03089 26.117648 120.31457 26.88885 C 120.6802 27.882827 121.06768 28.868432 121.44732 29.857144 C 121.71439 30.552688 121.97743 31.250019 122.23952 31.947456 C 122.48473 32.599988 122.72884 33.252612 122.97591 33.904443 C 123.33937 34.863352 123.70913 35.820207 124.08178 36.775585 C 124.55906 37.999193 125.04141 39.220513 125.54939 40.431693 C 125.91947 41.314061 126.30308 42.19071 126.68214 43.069258 C 127.05426 43.931732 127.42212 44.796238 127.77561 45.666515 C 128.14248 46.569734 128.49394 47.479413 128.8696 48.379011 C 129.17071 49.100069 129.48701 49.814453 129.8003 50.530301 C 130.12738 51.277667 130.45109 52.026589 130.7837 52.771508 C 131.23242 53.776448 131.6974 54.773823 132.15002 55.777009 C 132.67729 56.945637 133.18785 58.12198 133.70962 59.293074 C 134.11748 60.208497 134.5322 61.120936 134.95657 62.028824 C 135.52569 63.246399 136.11197 64.45604 136.6867 65.670979 C 137.06905 66.479252 137.4463 67.289987 137.821 68.101838 C 138.20286 68.929218 138.58202 69.757615 138.95271 70.590059 C 139.38605 71.563181 139.80756 72.541465 140.26374 73.504093 C 140.62889 74.274634 141.01619 75.03473 141.37478 75.808345 C 141.73472 76.584854 142.06567 77.374523 142.40883 78.158589 C 142.83847 79.140243 143.28742 80.113691 143.71108 81.097944 C 144.05888 81.905968 144.38926 82.721243 144.72342 83.535005 C 145.00059 84.209992 145.2803 84.88379 145.54352 85.564338 C 145.78614 86.191613 146.01477 86.824563 146.27474 87.444844 C 146.51664 88.02199 146.78555 88.587563 147.03129 89.163085 C 147.32885 89.85999 147.59251 90.570505 147.86069 91.279235 C 148.15314 92.052082 148.45078 92.823382 148.73299 93.600024 C 149.00609 94.351574 149.26449 95.10818 149.51176 95.868619 C 149.73402 96.552162 149.94756 97.238697 150.15668 97.926375 C 150.36868 98.62352 150.57632 99.321732 150.7954 100.01669 C 151.02841 100.75585 151.27427 101.4914 151.48683 102.23671 C 151.62082 102.70654 151.74179 103.18017 151.85373 103.65574 C 152.001 104.28137 152.13278 104.91025 152.25681 105.5409 C 152.3712 106.12255 152.47863 106.70571 152.60924 107.28394 C 152.73639 107.84685 152.88574 108.40494 153.00715 108.96911 C 153.13168 109.54778 153.22667 110.13234 153.32031 110.71681 C 153.42972 111.39977 153.53689 112.08311 153.66292 112.7632 C 153.78016 113.39582 153.91405 114.02567 154.00709 114.6623 C 154.0993 115.29328 154.1514 115.92946 154.20914 116.56451 C 154.24565 116.96602 154.28432 117.36697 154.31973 117.76857 C 154.36799 118.31591 154.41002 118.86431 154.42928 119.41344 C 154.44532 119.87054 154.44581 120.32769 154.45771 120.78493 C 154.47126 121.30566 154.49945 121.82629 154.50887 122.34711 C 154.51855 122.88249 154.50453 123.41788 154.49078 123.95321 L 312.72402 123.95321 z " />
    </g>
  </g>
</svg>
