<?xml version="1.0" encoding="UTF-8" standalone="no"?>
<!-- Created with Inkscape (http://www.inkscape.org/) -->

<svg
   width="210mm"
   height="297mm"
   viewBox="0 0 210 297"
   version="1.1"
   id="svg3013"
   inkscape:version="1.2.1 (9c6d41e410, 2022-07-14, custom)"
   sodipodi:docname="strat-sss-11h_freecad_top.svg"
   xmlns:inkscape="http://www.inkscape.org/namespaces/inkscape"
   xmlns:sodipodi="http://sodipodi.sourceforge.net/DTD/sodipodi-0.dtd"
   xmlns="http://www.w3.org/2000/svg"
   xmlns:svg="http://www.w3.org/2000/svg">
  <sodipodi:namedview
     id="namedview3015"
     pagecolor="#505050"
     bordercolor="#ffffff"
     borderopacity="1"
     inkscape:showpageshadow="0"
     inkscape:pageopacity="0"
     inkscape:pagecheckerboard="1"
     inkscape:deskcolor="#505050"
     inkscape:document-units="mm"
     showgrid="false"
     inkscape:zoom="1.1893044"
     inkscape:cx="-300.17547"
     inkscape:cy="344.73933"
     inkscape:current-layer="layer1" />
  <defs
     id="defs3010" />
  <g
     inkscape:label="Layer 1"
     inkscape:groupmode="layer"
     id="layer1">
    <g
       id="g378"
       transform="translate(-656.25629,-40.102514)"
       style="display:inline;fill:none;stroke:#040002;stroke-width:0.264583;stroke-dasharray:none;stroke-opacity:1"
       inkscape:label="top">
      <path
         id="path376"
         style="fill:none;stroke:#040002;stroke-width:0.264583;stroke-linecap:butt;stroke-linejoin:miter;stroke-miterlimit:22.9256;stroke-dasharray:none;stroke-opacity:1"
         d="m 187.23269,5.9856425 c -1.0599,0.045152 -1.96649,0.6876941 -2.51251,1.7296101 -0.0342,0.0654 -0.0606,0.1363978 -0.0889,0.2067058 -0.4493,1.1179869 -0.39635,0.9992943 -0.47594,1.282609 -0.45431,1.6133926 -0.25559,0.8574596 -0.45268,1.5993856 -0.83803,3.154183 -1.40932,6.953688 -1.90893,9.136393 -2.86988,12.537004 -6.02346,22.876709 -15.40836,32.136023 -19.94026,19.480078 -41.38817,18.326045 -66.35358,5.684408 -0.0218,-0.01102 -0.542262,-0.317188 -0.979264,-0.568441 l -0.08475,0.3514 c -0.911009,3.482513 -2.174382,4.653622 -5.532478,5.574336 -15.461805,2.175503 -30.137032,2.543774 -45.889706,-0.521932 -3.189107,-0.736105 -4.704373,-3.599518 -4.761983,-6.042008 l 0.08837,-24.006287 -14.12782,-6.47609 C 26.702268,25.34648 13.180075,25.059777 17.868871,43.454156 c 0.567689,1.953223 0.894979,3.922766 1.352889,5.883362 3.098506,12.476398 3.575877,25.065558 3.109887,37.654033 -0.217309,12.74479 -1.891402,24.371379 -5.286499,36.227759 -3.344686,11.96117 -8.4657385,22.6315 -13.2679237,34.17208 -0.6168104,1.46818 -1.2024978,2.95915 -1.7730184,4.45967 H 177.18266 c -0.69041,-2.2114 -1.33634,-4.44664 -1.91926,-6.71742 -2.7451,-13.64775 -3.0757,-24.06689 -0.31109,-36.91971 2.51611,-10.45438 7.15846,-20.208482 11.14505,-30.048291 7.53148,-15.666069 12.56678,-29.936854 13.18989,-48.081819 0.14019,-4.082623 -0.39654,-8.087732 -0.91932,-11.714531 -0.3851,-2.672218 -0.82602,-4.469561 -1.61282,-7.58455 -1.01738,-4.028401 -2.3341,-7.059563 -3.7021,-9.462471 -0.94269,-1.6561847 -1.85842,-3.1433999 -3.16673,-4.2638228 -0.91242,-0.7813305 -1.82922,-1.107921 -2.65359,-1.0728027 z m 1.36633,11.8349365 c 0.69981,-0.04748 1.30537,0.481002 1.35289,1.180806 0.0475,0.699805 -0.48111,1.305887 -1.18081,1.353406 -0.6998,0.04748 -1.30589,-0.481518 -1.35341,-1.181323 -0.0475,-0.699698 0.48163,-1.30537 1.18133,-1.352889 z M 25.811021,33.658889 c 0.6997,-0.04748 1.30541,0.481519 1.352889,1.181323 0.0476,0.699769 -0.481523,1.305405 -1.181323,1.352889 -0.699699,0.04752 -1.305259,-0.481002 -1.352889,-1.180807 -0.0475,-0.699804 0.481554,-1.305885 1.181323,-1.353405 z M 105.7617,65.863641 c 0.6998,-0.0475 1.30537,0.481007 1.35289,1.180807 0.0475,0.699809 -0.48111,1.305886 -1.18081,1.353406 -0.69981,0.0475 -1.3054,-0.481524 -1.35289,-1.181324 -0.0475,-0.699699 0.48111,-1.305369 1.18081,-1.352889 z m 75.27912,11.491289 c 0.69981,-0.0475 1.30541,0.481107 1.35289,1.180806 0.0475,0.699799 -0.48111,1.305916 -1.1808,1.353406 -0.69981,0.0476 -1.30541,-0.481514 -1.35289,-1.181323 -0.0475,-0.6998 0.4811,-1.305399 1.1808,-1.352889 z m -136.922906,0.07545 53.031389,0.418062 c 4.995727,0.0394 9.048667,4.414088 9.006687,9.721371 -0.0418,5.307505 -4.16324,9.617627 -9.159133,9.578227 L 43.965469,96.729974 c -4.995825,-0.0394 -9.048565,-4.413975 -9.006685,-9.72137 0.0419,-5.307393 4.163345,-9.617637 9.15913,-9.578227 z m -12.450919,7.804175 c 0.944699,-0.0642 1.762662,0.649519 1.826762,1.594218 0.0641,0.944699 -0.649926,1.762662 -1.594735,1.826762 -0.944709,0.0641 -1.762662,-0.649509 -1.826762,-1.594218 -0.0642,-0.944799 0.650026,-1.762662 1.594735,-1.826762 z m 77.498625,0.507463 c 0.94477,-0.0641 1.76267,0.649408 1.82677,1.594217 0.0642,0.9447 -0.64955,1.762562 -1.59422,1.826762 -0.9447,0.0641 -1.76266,-0.649409 -1.82676,-1.594218 -0.0641,-0.944699 0.6495,-1.762552 1.59421,-1.826761 z M 20.016026,134.52198 c 0.69981,-0.0475 1.305369,0.48101 1.352889,1.18081 0.0475,0.69981 -0.481107,1.30538 -1.180806,1.35289 -0.699769,0.0475 -1.305409,-0.48104 -1.352889,-1.18081 -0.0475,-0.6998 0.481107,-1.30541 1.180806,-1.35289 z m 23.364466,2.80138 53.031388,0.41806 c 4.99579,0.0394 9.04897,4.41398 9.0072,9.72137 -0.0418,5.3074 -4.16386,9.61756 -9.159645,9.57823 l -53.031389,-0.41858 c -4.995815,-0.0393 -9.048555,-4.41346 -9.006685,-9.72085 0.0418,-5.3074 4.163456,-9.61764 9.159131,-9.57823 z m -12.240597,8.07755 c 0.944709,-0.0641 1.762672,0.64951 1.826762,1.59421 0.0641,0.94481 -0.649519,1.76268 -1.594218,1.82677 -0.944809,0.0642 -1.762662,-0.65004 -1.826762,-1.59474 -0.0642,-0.94471 0.649519,-1.76214 1.594218,-1.82624 z m 77.511035,0.45268 c 0.9447,-0.0642 1.76256,0.64951 1.82676,1.59422 0.0641,0.9447 -0.64997,1.76259 -1.59474,1.82676 -0.94471,0.0641 -1.76256,-0.64941 -1.82676,-1.59422 -0.0641,-0.94471 0.65003,-1.76266 1.59474,-1.82676 z"
         transform="translate(547.49736,-107.46105)" />
    </g>
  </g>
</svg>
