<?xml version="1.0" encoding="UTF-8" standalone="no"?>
<!-- Created with Inkscape (http://www.inkscape.org/) -->

<svg
   width="210mm"
   height="297mm"
   viewBox="0 0 210 297"
   version="1.1"
   id="svg852"
   inkscape:version="1.2.1 (9c6d41e410, 2022-07-14, custom)"
   sodipodi:docname="strat-sss-11h-floyd_freecad.svg"
   xmlns:inkscape="http://www.inkscape.org/namespaces/inkscape"
   xmlns:sodipodi="http://sodipodi.sourceforge.net/DTD/sodipodi-0.dtd"
   xmlns="http://www.w3.org/2000/svg"
   xmlns:svg="http://www.w3.org/2000/svg">
  <sodipodi:namedview
     id="namedview854"
     pagecolor="#505050"
     bordercolor="#ffffff"
     borderopacity="1"
     inkscape:showpageshadow="0"
     inkscape:pageopacity="0"
     inkscape:pagecheckerboard="1"
     inkscape:deskcolor="#505050"
     inkscape:document-units="mm"
     showgrid="false"
     inkscape:zoom="1.1702277"
     inkscape:cx="-264.05117"
     inkscape:cy="282.85093"
     inkscape:current-layer="g2998" />
  <defs
     id="defs849">
    <inkscape:path-effect
       effect="spiro"
       id="path-effect3002"
       is_visible="true"
       lpeversion="1" />
    <inkscape:path-effect
       effect="spiro"
       id="path-effect2880"
       is_visible="true"
       lpeversion="1" />
    <inkscape:path-effect
       effect="spiro"
       id="path-effect2032"
       is_visible="true"
       lpeversion="1" />
    <inkscape:path-effect
       effect="spiro"
       id="path-effect1810"
       is_visible="true"
       lpeversion="1" />
    <inkscape:path-effect
       effect="spiro"
       id="path-effect1517"
       is_visible="true"
       lpeversion="1" />
    <inkscape:path-effect
       effect="spiro"
       id="path-effect1158"
       is_visible="true"
       lpeversion="1" />
    <inkscape:path-effect
       effect="spiro"
       id="path-effect1097"
       is_visible="true"
       lpeversion="1" />
    <inkscape:path-effect
       effect="spiro"
       id="path-effect1151"
       is_visible="true"
       lpeversion="1" />
  </defs>
  <g
     inkscape:label="Layer 1"
     inkscape:groupmode="layer"
     id="layer1">
    <g
       id="g2028"
       transform="rotate(180,108.97937,55.560459)"
       inkscape:label="full"
       style="display:none">
      <path
         d="m 174.2917,84.574511 c -0.9797,0.0665 -1.82788,-0.6737 -1.89438,-1.653399 -0.0665,-0.979699 0.67377,-1.827777 1.65347,-1.894311 0.97973,-0.0665 1.82792,0.6737 1.89441,1.653434 0.0665,0.97977 -0.6738,1.827777 -1.6535,1.894276 z"
         style="display:inline;fill:none;fill-opacity:1;fill-rule:evenodd;stroke:#040002;stroke-width:0.264583;stroke-linecap:butt;stroke-linejoin:miter;stroke-miterlimit:22.9256;stroke-dasharray:none;stroke-opacity:1"
         id="path1974" />
      <path
         d="m 146.3795,54.081917 c -0.9797,0.0666 -1.82788,-0.6737 -1.89438,-1.653399 -0.0665,-0.979699 0.67377,-1.827814 1.6535,-1.894314 0.9797,-0.0665 1.82789,0.673703 1.89439,1.653508 0.0665,0.979699 -0.67381,1.827706 -1.65351,1.894205 z"
         style="display:inline;fill:none;fill-opacity:1;fill-rule:evenodd;stroke:#040002;stroke-width:0.264583;stroke-linecap:butt;stroke-linejoin:miter;stroke-miterlimit:22.9256;stroke-dasharray:none;stroke-opacity:1"
         id="path1976" />
      <path
         d="m 200.6912,57.282109 c -2.62449,0.17822 -4.89648,-1.80499 -5.0746,-4.42937 -0.17819,-2.62442 1.80492,-4.89652 4.42941,-5.0746 2.62459,-0.17823 4.89648,1.80488 5.07471,4.42937 0.17818,2.62442 -1.80492,4.89641 -4.42952,5.0746 z"
         style="display:inline;fill:none;fill-opacity:1;fill-rule:evenodd;stroke:#040002;stroke-width:0.264583;stroke-linecap:butt;stroke-linejoin:miter;stroke-miterlimit:22.9256;stroke-dasharray:none;stroke-opacity:1"
         id="path1978" />
      <path
         d="m 163.21447,31.580416 c -2.62449,0.17822 -4.89652,-1.80499 -5.07471,-4.42941 -0.17808,-2.62439 1.80499,-4.89649 4.42952,-5.07457 2.62449,-0.17822 4.89648,1.80488 5.07467,4.42937 0.17812,2.62442 -1.80499,4.89642 -4.42948,5.07461 z"
         style="display:inline;fill:none;fill-opacity:1;fill-rule:evenodd;stroke:#040002;stroke-width:0.264583;stroke-linecap:butt;stroke-linejoin:miter;stroke-miterlimit:22.9256;stroke-dasharray:none;stroke-opacity:1"
         id="path1980" />
      <path
         d="m 131.28809,-0.665176 c -2.62459,0.17819 -4.89648,-1.80491 -5.07467,-4.4294 -0.17822,-2.62439 1.80488,-4.89642 4.42948,-5.07461 2.62452,-0.17818 4.89652,1.80499 5.0746,4.42941 0.17822,2.62438 -1.80488,4.89649 -4.42941,5.0746 z"
         style="display:inline;fill:none;fill-opacity:1;fill-rule:evenodd;stroke:#040002;stroke-width:0.264583;stroke-linecap:butt;stroke-linejoin:miter;stroke-miterlimit:22.9256;stroke-dasharray:none;stroke-opacity:1"
         id="path1982" />
      <path
         d="m 169.42062,76.251001 c 0.6405,0.831603 -0.35271,1.788619 -1.35672,1.098833 L 151.39551,59.147629 c -0.59652,-1.092306 0.6484,-1.813807 1.4618,-1.34112 z"
         style="display:inline;fill:none;fill-opacity:1;fill-rule:evenodd;stroke:#040002;stroke-width:0.264583;stroke-linecap:butt;stroke-linejoin:miter;stroke-miterlimit:22.9256;stroke-dasharray:none;stroke-opacity:1"
         id="path1984" />
      <path
         d="m 295.5555,172.83052 c -0.94416,0.0717 -1.76762,-0.63561 -1.83937,-1.57976 -0.0716,-0.94417 0.63561,-1.76765 1.57983,-1.83937 0.94417,-0.0717 1.76766,0.63556 1.83941,1.57983 0.0716,0.94416 -0.6357,1.76765 -1.57987,1.8393 z"
         style="display:inline;fill:none;fill-opacity:1;fill-rule:evenodd;stroke:#040002;stroke-width:0.264583;stroke-linecap:butt;stroke-linejoin:miter;stroke-miterlimit:22.9256;stroke-dasharray:none;stroke-opacity:1"
         id="path1986" />
      <path
         d="m 218.04379,172.99718 c -0.94416,0.0717 -1.76772,-0.6356 -1.83936,-1.57976 -0.0717,-0.94427 0.63556,-1.76771 1.57972,-1.83936 0.94426,-0.0717 1.76775,0.63556 1.8394,1.57973 0.0718,0.94415 -0.6356,1.76774 -1.57976,1.83939 z"
         style="display:inline;fill:none;fill-opacity:1;fill-rule:evenodd;stroke:#040002;stroke-width:0.264583;stroke-linecap:butt;stroke-linejoin:miter;stroke-miterlimit:22.9256;stroke-dasharray:none;stroke-opacity:1"
         id="path1988" />
      <path
         d="m 282.99473,180.69748 -53.03302,0.006 c -4.99595,5.3e-4 -9.08388,-4.34143 -9.08454,-9.649 v 0 c -6.2e-4,-5.30756 4.08652,-9.65029 9.08247,-9.65089 l 53.033,-0.006 c 4.99596,-6.3e-4 9.08397,4.34132 9.08452,9.64888 v 0 c 6.2e-4,5.30756 -4.08663,9.65041 -9.08243,9.65093 z"
         style="display:inline;fill:none;stroke:#040002;stroke-width:0.264583;stroke-linecap:butt;stroke-linejoin:miter;stroke-miterlimit:22.9256;stroke-dasharray:none;stroke-opacity:1"
         id="path1990" />
      <path
         d="m 218.08974,112.8288 c -0.94416,0.0717 -1.76776,-0.6356 -1.83941,-1.57976 -0.0716,-0.94415 0.6356,-1.76771 1.57987,-1.83936 0.94417,-0.0716 1.76762,0.63556 1.83926,1.57973 0.0718,0.94425 -0.63556,1.76774 -1.57972,1.83939 z"
         style="display:inline;fill:none;fill-opacity:1;fill-rule:evenodd;stroke:#040002;stroke-width:0.264583;stroke-linecap:butt;stroke-linejoin:miter;stroke-miterlimit:22.9256;stroke-dasharray:none;stroke-opacity:1"
         id="path1992" />
      <path
         d="m 295.59005,112.71677 c -0.94423,0.0717 -1.76772,-0.6356 -1.83937,-1.57987 -0.0718,-0.94415 0.6356,-1.76761 1.57973,-1.83936 0.94416,-0.0716 1.76776,0.63556 1.83941,1.57983 0.0716,0.94415 -0.63561,1.76764 -1.57977,1.8394 z"
         style="display:inline;fill:none;fill-opacity:1;fill-rule:evenodd;stroke:#040002;stroke-width:0.264583;stroke-linecap:butt;stroke-linejoin:miter;stroke-miterlimit:22.9256;stroke-dasharray:none;stroke-opacity:1"
         id="path1994" />
      <path
         d="m 283.25327,120.80056 -53.03299,0.006 c -4.99588,5.3e-4 -9.08399,-4.34145 -9.08443,-9.64891 v 0 c -6.2e-4,-5.30767 4.08641,-9.65046 9.08247,-9.651 l 53.03288,-0.006 c 4.99598,-5.4e-4 9.08399,4.34142 9.08453,9.64898 v 0 c 5.2e-4,5.30757 -4.08652,9.65036 -9.08246,9.65089 z"
         style="display:inline;fill:none;stroke:#040002;stroke-width:0.264583;stroke-linecap:butt;stroke-linejoin:miter;stroke-miterlimit:22.9256;stroke-dasharray:none;stroke-opacity:1"
         id="path1996" />
      <path
         d="m 219.3168,49.2231 c -0.94481,0.0641 -1.76259,-0.64967 -1.82669,-1.59437 -0.0642,-0.94481 0.64968,-1.76262 1.59438,-1.82672 0.94471,-0.0642 1.76262,0.64971 1.82672,1.59441 0.0641,0.9447 -0.64971,1.76258 -1.59441,1.82668 z"
         style="display:inline;fill:none;fill-opacity:1;fill-rule:evenodd;stroke:#040002;stroke-width:0.264583;stroke-linecap:butt;stroke-linejoin:miter;stroke-miterlimit:22.9256;stroke-dasharray:none;stroke-opacity:1"
         id="path1998" />
      <path
         d="m 295.34781,62.987505 c -0.9447,0.06421 -1.76251,-0.649675 -1.82661,-1.594379 -0.0642,-0.944703 0.64971,-1.762619 1.59441,-1.826718 0.94467,-0.0641 1.76248,0.64971 1.82669,1.594414 0.0641,0.94481 -0.64971,1.762584 -1.59449,1.826683 z"
         style="display:inline;fill:none;fill-opacity:1;fill-rule:evenodd;stroke:#040002;stroke-width:0.264583;stroke-linecap:butt;stroke-linejoin:miter;stroke-miterlimit:22.9256;stroke-dasharray:none;stroke-opacity:1"
         id="path2000" />
      <path
         d="m 281.58419,68.570108 -52.1601,-9.582609 c -4.9137,-0.902687 -8.14938,-5.912273 -7.19028,-11.132399 v 0 c 0.95899,-5.22019 5.764,-8.75259 10.67759,-7.8499 l 52.1601,9.58282 c 4.91381,0.90269 8.14931,5.9122 7.19028,11.132394 v 0 c -0.95899,5.220194 -5.76389,8.752488 -10.67759,7.849694 z"
         style="display:inline;fill:none;stroke:#040002;stroke-width:0.264583;stroke-linecap:butt;stroke-linejoin:miter;stroke-miterlimit:22.9256;stroke-dasharray:none;stroke-opacity:1"
         id="path2002"
         sodipodi:nodetypes="ccssccssc" />
      <path
         d="m 121.6615,-18.059659 c -0.99794,0.06775 -1.86194,-0.686441 -1.92968,-1.684546 -0.0678,-0.99809 0.6863,-1.862099 1.68441,-1.929832 0.99793,-0.06775 1.86194,0.686455 1.92981,1.684546 0.0678,0.997948 -0.68644,1.862114 -1.68454,1.929832 z"
         style="display:inline;fill:none;fill-opacity:1;fill-rule:evenodd;stroke:#040002;stroke-width:0.377362;stroke-linecap:butt;stroke-linejoin:miter;stroke-miterlimit:22.9256;stroke-dasharray:none;stroke-opacity:1"
         id="path2004" />
      <path
         d="m 153.7332,87.784028 c -0.99793,0.06777 -1.86193,-0.686438 -1.92971,-1.684371 -0.0678,-0.998085 0.68645,-1.862082 1.68438,-1.929805 0.99794,-0.06777 1.86208,0.686287 1.92985,1.684372 0.0677,0.998084 -0.68643,1.862081 -1.68452,1.929804 z"
         style="display:inline;fill:none;fill-opacity:1;fill-rule:evenodd;stroke:#040002;stroke-width:0.377357;stroke-linecap:butt;stroke-linejoin:miter;stroke-miterlimit:22.9256;stroke-dasharray:none;stroke-opacity:1"
         id="path2006" />
      <path
         d="m 131.71455,37.877477 c -0.99793,0.06775 -1.86209,-0.686288 -1.92986,-1.684365 -0.0678,-0.998091 0.68649,-1.862088 1.68452,-1.929862 0.99793,-0.06775 1.86199,0.686345 1.92971,1.684422 0.0677,0.998034 -0.68643,1.862088 -1.68437,1.929805 z"
         style="display:inline;fill:none;fill-opacity:1;fill-rule:evenodd;stroke:#040002;stroke-width:0.377357;stroke-linecap:butt;stroke-linejoin:miter;stroke-miterlimit:22.9256;stroke-dasharray:none;stroke-opacity:1"
         id="path2008" />
      <path
         d="m 203.97201,19.811185 c -0.99794,0.06775 -1.86193,-0.686274 -1.92971,-1.684365 -0.0678,-0.998077 0.68645,-1.862088 1.68438,-1.929805 0.99793,-0.06775 1.86213,0.686445 1.92985,1.684379 0.0677,0.998077 -0.68643,1.862074 -1.68452,1.929791 z"
         style="display:inline;fill:none;fill-opacity:1;fill-rule:evenodd;stroke:#040002;stroke-width:0.377357;stroke-linecap:butt;stroke-linejoin:miter;stroke-miterlimit:22.9256;stroke-dasharray:none;stroke-opacity:1"
         id="path2010" />
      <path
         d="m 307.06081,20.974211 c -0.99793,0.06789 -1.86208,-0.686331 -1.92986,-1.684366 -0.0677,-0.998091 0.68645,-1.862131 1.68452,-1.929862 0.99794,-0.06775 1.86193,0.686445 1.92971,1.684379 0.0677,0.998078 -0.68643,1.862074 -1.68437,1.929849 z"
         style="display:inline;fill:none;fill-opacity:1;fill-rule:evenodd;stroke:#040002;stroke-width:0.377357;stroke-linecap:butt;stroke-linejoin:miter;stroke-miterlimit:22.9256;stroke-dasharray:none;stroke-opacity:1"
         id="path2012" />
      <path
         d="m 306.70244,122.8962 c -0.99809,0.0677 -1.86208,-0.68629 -1.92986,-1.68438 -0.0677,-0.99808 0.68649,-1.86208 1.68442,-1.92985 0.99804,-0.0677 1.86209,0.68634 1.92981,1.68437 0.0677,0.99809 -0.68643,1.86213 -1.68437,1.92986 z"
         style="display:inline;fill:none;fill-opacity:1;fill-rule:evenodd;stroke:#040002;stroke-width:0.377357;stroke-linecap:butt;stroke-linejoin:miter;stroke-miterlimit:22.9256;stroke-dasharray:none;stroke-opacity:1"
         id="path2014"
         inkscape:label="path2392" />
      <path
         d="m 323.69625,72.255528 c -0.99808,0.06777 -1.86213,-0.686438 -1.92985,-1.684521 -0.0677,-0.998086 0.68643,-1.862082 1.68437,-1.929805 0.99809,-0.06777 1.86208,0.686438 1.92986,1.684521 0.0677,0.997934 -0.68645,1.862082 -1.68438,1.929805 z"
         style="display:inline;fill:none;fill-opacity:1;fill-rule:evenodd;stroke:#040002;stroke-width:0.377357;stroke-linecap:butt;stroke-linejoin:miter;stroke-miterlimit:22.9256;stroke-dasharray:none;stroke-opacity:1"
         id="path2016" />
      <path
         d="m 220.89818,193.4899 c -0.99807,0.0677 -1.86207,-0.68644 -1.92984,-1.68452 -0.0678,-0.99809 0.68643,-1.86209 1.68436,-1.92986 0.99809,-0.0677 1.86213,0.68644 1.92986,1.68452 0.0677,0.99793 -0.68644,1.86209 -1.68438,1.92986 z"
         style="display:inline;fill:none;fill-opacity:1;fill-rule:evenodd;stroke:#040002;stroke-width:0.377357;stroke-linecap:butt;stroke-linejoin:miter;stroke-miterlimit:22.9256;stroke-dasharray:none;stroke-opacity:1"
         id="path2018" />
      <path
         d="m 138.41477,242.54447 c -0.99809,0.0677 -1.86209,-0.68643 -1.92986,-1.68451 -0.0678,-0.99808 0.68644,-1.86208 1.68438,-1.92985 0.99807,-0.0677 1.86207,0.68643 1.92985,1.68452 0.0677,0.99794 -0.68643,1.86207 -1.68437,1.92984 z"
         style="display:inline;fill:none;fill-opacity:1;fill-rule:evenodd;stroke:#040002;stroke-width:0.377357;stroke-linecap:butt;stroke-linejoin:miter;stroke-miterlimit:22.9256;stroke-dasharray:none;stroke-opacity:1"
         id="path2020" />
      <path
         d="m 146.2431,182.01937 c -0.9981,0.0677 -1.86211,-0.68645 -1.92983,-1.6844 -0.0677,-0.99809 0.68644,-1.8621 1.68439,-1.92984 0.9981,-0.0679 1.86211,0.6863 1.92983,1.68441 0.0677,0.99809 -0.68644,1.8621 -1.68439,1.92983 z"
         style="display:inline;fill:none;fill-opacity:1;fill-rule:evenodd;stroke:#040002;stroke-width:0.377362;stroke-linecap:butt;stroke-linejoin:miter;stroke-miterlimit:22.9256;stroke-dasharray:none;stroke-opacity:1"
         id="path2022" />
      <path
         d="m 301.21449,225.11833 c -0.99794,0.0678 -1.86199,-0.68633 -1.9297,-1.68441 -0.0679,-0.99805 0.68628,-1.86208 1.68436,-1.92982 0.99793,-0.0678 1.86192,0.68629 1.92985,1.68439 0.0678,0.99807 -0.68648,1.86206 -1.68451,1.92984 z"
         style="display:inline;fill:none;fill-opacity:1;fill-rule:evenodd;stroke:#040002;stroke-width:0.377356;stroke-linecap:butt;stroke-linejoin:miter;stroke-miterlimit:22.9256;stroke-dasharray:none;stroke-opacity:1"
         id="path2024" />
      <path
         id="path2026"
         style="display:inline;fill:none;stroke:#000000;stroke-width:0.264583px;stroke-linecap:butt;stroke-linejoin:miter;stroke-opacity:1"
         d="m 284.27491,200.72287 c -0.0643,-0.33354 -0.17753,-0.6576 -0.33493,-0.95861 -0.15678,-0.29983 -0.35598,-0.57498 -0.5417,-0.8578 -0.16972,-0.25847 -0.32912,-0.52476 -0.52344,-0.76528 -0.25631,-0.31725 -0.56911,-0.5843 -0.89346,-0.83156 -0.34701,-0.26453 -0.70937,-0.50861 -1.08096,-0.73732 -0.36088,-0.22212 -0.73226,-0.43064 -1.12777,-0.58279 -0.40231,-0.15477 -0.82469,-0.24942 -1.24415,-0.34872 -0.55434,-0.13124 -1.10656,-0.27151 -1.66236,-0.39642 -0.65266,-0.14668 -1.31001,-0.27213 -1.96984,-0.38215 -0.83942,-0.13996 -1.68291,-0.25497 -2.52846,-0.35113 -0.67204,-0.0764 -1.34538,-0.14096 -2.01873,-0.20485 -0.96558,-0.0916 -1.93128,-0.1819 -2.89749,-0.26658 -0.80605,-0.0706 -1.61254,-0.13739 -2.42031,-0.18434 -0.90951,-0.0529 -1.82027,-0.0806 -2.73074,-0.11304 -0.9066,-0.0323 -1.81305,-0.0692 -2.71983,-0.0961 -0.44314,-0.0132 -0.88635,-0.0239 -1.3296,-0.0328 -0.44238,-0.009 -0.88487,-0.0157 -1.32732,-0.0112 -0.62275,0.006 -1.24501,0.0355 -1.86757,0.0521 -0.64491,0.0172 -1.29015,0.021 -1.93495,0.0417 -0.77868,0.0251 -1.55634,0.0748 -2.33464,0.10989 -0.68384,0.0308 -1.36822,0.0503 -2.05161,0.0897 -0.61578,0.0355 -1.23052,0.0873 -1.84614,0.12542 -0.60057,0.0372 -1.20196,0.0614 -1.80197,0.10679 -0.53447,0.0404 -1.06753,0.0976 -1.60004,0.15861 -0.72842,0.0834 -1.45602,0.17401 -2.1847,0.25515 -0.7169,0.0798 -1.43492,0.15055 -2.14979,0.24687 -0.62484,0.0842 -1.24695,0.18789 -1.8667,0.30375 -0.52907,0.0989 -1.05647,0.20668 -1.58255,0.32042 -0.32315,0.0699 -0.64583,0.14199 -0.96702,0.22038 -0.29839,0.0728 -0.59544,0.15103 -0.89283,0.22782 -0.15817,0.0408 -0.31645,0.0813 -0.47478,0.12152 -0.15042,0.0382 -0.30098,0.0763 -0.44896,0.12307 -0.22278,0.0704 -0.43923,0.16046 -0.64753,0.2663 -0.31566,0.16039 -0.61385,0.3581 -0.87126,0.60122 -0.21322,0.20138 -0.39668,0.43197 -0.60221,0.64118 -0.11902,0.12115 -0.24555,0.23524 -0.35635,0.36396 -0.11312,0.13141 -0.20871,0.27675 -0.30416,0.4215 -0.11811,0.17912 -0.23662,0.3582 -0.3429,0.54459 -0.16813,0.29485 -0.30473,0.60633 -0.45035,0.91292 -0.12887,0.27133 -0.26501,0.5392 -0.39069,0.81202 -0.17906,0.38869 -0.33677,0.7872 -0.47219,1.19316 -0.28034,-0.0847 -0.55859,-0.1763 -0.83441,-0.27471 -0.794,-0.2833 -1.56664,-0.62251 -2.34539,-0.94537 -0.73514,-0.30478 -1.47621,-0.59518 -2.2098,-0.90369 -0.64303,-0.27042 -1.28014,-0.55468 -1.91958,-0.8335 -0.76157,-0.33207 -1.52648,-0.65643 -2.29017,-0.9836 -0.74618,-0.31967 -1.49123,-0.64204 -2.24057,-0.95423 -0.64711,-0.2696 -1.29737,-0.53157 -1.94597,-0.79756 -0.6808,-0.2792 -1.3598,-0.56283 -2.04308,-0.8359 -0.61894,-0.24736 -1.2414,-0.48605 -1.8694,-0.7094 -0.6549,-0.23292 -1.31571,-0.44911 -1.98086,-0.65088 -0.64184,-0.19469 -1.28793,-0.37601 -1.94037,-0.53153 -0.60877,-0.14512 -1.22268,-0.26769 -1.83727,-0.38579 -0.60737,-0.11672 -1.21557,-0.2291 -1.82311,-0.34497 -0.57362,-0.1094 -1.1469,-0.22196 -1.72471,-0.30647 -0.60956,-0.0891 -1.22325,-0.14696 -1.83707,-0.19927 -0.47177,-0.0402 -0.94381,-0.0772 -1.416,-0.11199 -0.67664,-0.0499 -1.35385,-0.0954 -2.03211,-0.11273 -0.71575,-0.0183 -1.43211,-0.005 -2.14729,0.0285 -0.55064,0.0261 -1.10061,0.0645 -1.65078,0.099 -0.5198,0.0326 -1.0399,0.0618 -1.55876,0.10695 -0.71815,0.0625 -1.43324,0.15562 -2.14825,0.24731 -0.59982,0.0769 -1.19976,0.15285 -1.79929,0.23201 -0.5925,0.0782 -1.18492,0.15968 -1.77186,0.27227 -0.53969,0.10352 -1.07403,0.23324 -1.606,0.37107 -0.54856,0.14213 -1.09493,0.29295 -1.63705,0.45798 -0.63923,0.19459 -1.27241,0.40889 -1.89962,0.63931 -0.54176,0.19903 -1.07909,0.41009 -1.61137,0.63324 -0.52703,0.22095 -1.04908,0.45373 -1.56631,0.69673 -0.83253,0.39113 -1.65252,0.80868 -2.46241,1.24476 -0.6478,0.3488 -1.28914,0.70946 -1.92819,1.07405 -0.56932,0.32481 -1.137,0.65284 -1.69257,1.00064 -0.45198,0.28295 -0.89575,0.57886 -1.33402,0.88261 -0.45759,0.31714 -0.90922,0.64285 -1.35486,0.97657 -0.38222,0.28622 -0.76,0.57832 -1.13985,0.86767 -0.40661,0.30974 -0.81569,0.6164 -1.21392,0.93685 -0.48828,0.3929 -0.95976,0.80613 -1.43416,1.21568 -0.37258,0.32165 -0.74711,0.64116 -1.11151,0.97205 -0.33224,0.3017 -0.65591,0.61272 -0.97636,0.92691 -0.42981,0.42142 -0.85405,0.84875 -1.26232,1.29107 -0.42586,0.46137 -0.8341,0.93877 -1.25995,1.40015 -0.42407,0.45944 -0.86556,0.90296 -1.27666,1.37404 -0.36425,0.41739 -0.70388,0.85557 -1.03963,1.29621 -0.30261,0.39715 -0.60226,0.79656 -0.89803,1.19883 -0.44241,0.60173 -0.87611,1.20986 -1.3015,1.82374 -0.42659,0.6156 -0.84487,1.23705 -1.24742,1.86863 -0.29682,0.46569 -0.58504,0.93681 -0.86979,1.40997 -0.28481,0.47326 -0.56627,0.94875 -0.82795,1.43518 -0.27337,0.50817 -0.52487,1.02773 -0.7825,1.54406 -0.2496,0.50024 -0.50509,0.99775 -0.73726,1.50632 -0.22903,0.50169 -0.43508,1.01356 -0.66072,1.51678 -0.20061,0.44741 -0.41664,0.88784 -0.61371,1.33682 -0.1635,0.37251 -0.31385,0.75065 -0.46069,1.13003 -0.15649,0.40432 -0.30908,0.81023 -0.44929,1.22048 -0.18182,0.53201 -0.34267,1.07089 -0.50969,1.60773 -0.1986,0.63834 -0.40596,1.27394 -0.60146,1.91323 -0.16194,0.52954 -0.31572,1.06158 -0.46071,1.59601 -0.18047,0.66521 -0.34733,1.33429 -0.48832,2.00898 -0.16922,0.80981 -0.30101,1.62692 -0.45391,2.43997 -0.10101,0.53714 -0.21124,1.07253 -0.32715,1.60665 -0.11116,0.51221 -0.22755,1.02328 -0.33611,1.53605 -0.14344,0.67749 -0.2732,1.35783 -0.3932,2.03986 -0.1472,0.83659 -0.27976,1.67588 -0.4444,2.50922 -0.13677,0.6923 -0.29561,1.38008 -0.46306,2.06561 -0.14136,0.5787 -0.28887,1.15587 -0.43697,1.73288 -0.14397,0.56093 -0.28859,1.12203 -0.46264,1.67436 -0.14436,0.4581 -0.30992,0.91215 -0.54436,1.33135 -0.14759,0.2639 -0.32172,0.51251 -0.51278,0.74686 -0.18083,0.22179 -0.37845,0.43238 -0.60953,0.60117 -0.25769,0.18823 -0.55478,0.32181 -0.86602,0.39228 -0.31045,0.0703 -0.63327,0.078 -0.94947,0.0415 -0.35364,-0.0408 -0.70027,-0.13655 -1.02818,-0.27511 -0.23999,-0.10141 -0.47055,-0.22592 -0.68353,-0.37598 -0.34108,-0.24032 -0.63356,-0.54348 -0.90063,-0.86405 -0.25185,-0.30229 -0.48281,-0.62139 -0.70656,-0.94504 -0.23271,-0.33661 -0.45791,-0.67854 -0.66911,-1.02904 -0.27477,-0.45599 -0.52566,-0.92618 -0.75743,-1.40546 -0.18917,-0.39119 -0.3656,-0.7884 -0.5412,-1.18587 -0.17869,-0.40447 -0.35657,-0.80932 -0.53968,-1.21181 -0.26402,-0.58032 -0.53893,-1.15577 -0.79143,-1.7412 -0.37921,-0.8792 -0.7074,-1.77992 -0.99958,-2.69175 -0.22516,-0.70268 -0.42897,-1.41199 -0.64624,-2.11715 -0.16929,-0.54946 -0.34676,-1.09641 -0.51158,-1.64723 -0.1979,-0.66137 -0.37755,-1.32826 -0.53464,-2.00049 -0.15188,-0.64997 -0.28267,-1.30491 -0.38963,-1.96376 -0.11673,-0.719 -0.20504,-1.44226 -0.30621,-2.16361 -0.0953,-0.67941 -0.202,-1.35726 -0.28812,-2.03789 -0.093,-0.73532 -0.162,-1.47346 -0.22823,-2.21168 -0.0656,-0.73161 -0.12861,-1.46349 -0.17943,-2.19628 -0.047,-0.67755 -0.0836,-1.3558 -0.11294,-2.03435 -0.0308,-0.71167 -0.0536,-1.42376 -0.0589,-2.13608 -0.004,-0.60147 0.004,-1.2032 0.0357,-1.80383 0.0323,-0.60552 0.089,-1.20964 0.11449,-1.81549 0.0188,-0.44806 0.0206,-0.89687 0.0493,-1.34441 0.0358,-0.55828 0.11358,-1.11288 0.17947,-1.66842 0.0631,-0.53238 0.11543,-1.06601 0.1784,-1.59841 0.0699,-0.59068 0.15285,-1.17974 0.23972,-1.76816 0.094,-0.63633 0.19245,-1.27199 0.29379,-1.90719 0.0976,-0.61168 0.19783,-1.22295 0.30186,-1.83357 0.11274,-0.66173 0.22994,-1.32269 0.34724,-1.98362 0.1044,-0.58828 0.20894,-1.17681 0.34101,-1.75951 0.11627,-0.51296 0.25376,-1.02085 0.37781,-1.53199 0.17091,-0.7042 0.31627,-1.41436 0.48264,-2.11965 0.11416,-0.48396 0.2382,-0.96555 0.36687,-1.44586 0.13431,-0.50133 0.27367,-1.0013 0.41769,-1.49993 0.1502,-0.52004 0.30546,-1.0386 0.46153,-1.5569 0.17541,-0.58252 0.35186,-1.16474 0.52125,-1.74903 0.18045,-0.62244 0.3529,-1.24724 0.54222,-1.86704 0.18033,-0.59036 0.37591,-1.17596 0.57711,-1.75953 0.1534,-0.44494 0.31009,-0.88874 0.46254,-1.334 0.23936,-0.69911 0.46826,-1.40175 0.70323,-2.10234 0.24506,-0.73066 0.49673,-1.45912 0.75719,-2.18444 0.20738,-0.57751 0.42033,-1.15301 0.63805,-1.7267 0.19701,-0.51911 0.39794,-1.03676 0.60823,-1.55063 0.25884,-0.63252 0.5318,-1.25918 0.79055,-1.89174 0.30005,-0.73351 0.58088,-1.47469 0.86831,-2.21324 0.47114,-1.2106 0.9601,-2.4144 1.47951,-3.60509 0.3062,-0.70193 0.62295,-1.39925 0.92588,-2.1026 0.28112,-0.65272 0.55028,-1.31051 0.82698,-1.96511 0.2895,-0.68487 0.58726,-1.36624 0.89153,-2.04467 0.38381,-0.85577 0.77801,-1.70691 1.15164,-2.56717 0.33418,-0.76941 0.6518,-1.54588 0.97393,-2.32041 0.3133,-0.75331 0.63093,-1.50496 0.92617,-2.26553 0.27268,-0.70244 0.52615,-1.4122 0.79667,-2.11547 0.27444,-0.71346 0.56641,-1.42019 0.83162,-2.13714 0.20054,-0.54211 0.38572,-1.08989 0.59332,-1.62934 0.19208,-0.49912 0.40333,-0.99102 0.57935,-1.49603 0.19257,-0.55247 0.34232,-1.11871 0.50232,-1.68147 0.20325,-0.71492 0.42326,-1.42494 0.64058,-2.13571 0.18293,-0.5983 0.36398,-1.1972 0.53687,-1.79848 0.1892,-0.658 0.3686,-1.31878 0.54149,-1.98125 0.16461,-0.63073 0.32332,-1.26298 0.47815,-1.89618 0.14032,-0.57386 0.27747,-1.14855 0.40385,-1.72564 0.13655,-0.62355 0.2605,-1.24984 0.37312,-1.87815 0.10362,-0.57812 0.19765,-1.15794 0.28591,-1.73861 0.0862,-0.56679 0.16684,-1.13458 0.27149,-1.69825 0.0944,-0.50843 0.20824,-1.01325 0.2927,-1.52343 0.11344,-0.68521 0.17353,-1.37793 0.24275,-2.06901 0.0725,-0.72427 0.15521,-1.44757 0.21769,-2.17278 0.0561,-0.65079 0.0959,-1.30286 0.13932,-1.95461 0.0455,-0.68247 0.095,-1.36472 0.12945,-2.04784 0.0347,-0.68856 0.054,-1.37779 0.0724,-2.06697 0.0164,-0.61502 0.0321,-1.23029 0.021,-1.84543 -0.009,-0.52082 -0.038,-1.04111 -0.0516,-1.56184 -0.0119,-0.45723 -0.0122,-0.91475 -0.0282,-1.37186 -0.0193,-0.54912 -0.0613,-1.0972 -0.10955,-1.64454 -0.0354,-0.4016 -0.0742,-0.8029 -0.1107,-1.2044 -0.0577,-0.63506 -0.10984,-1.27109 -0.20205,-1.90206 -0.093,-0.63663 -0.22667,-1.26651 -0.3439,-1.89913 -0.12603,-0.68009 -0.23314,-1.36351 -0.34255,-2.04647 -0.0936,-0.58447 -0.18902,-1.16896 -0.31355,-1.74763 -0.12141,-0.56418 -0.27035,-1.12207 -0.3975,-1.68498 -0.13061,-0.57823 -0.23814,-1.16137 -0.35253,-1.74303 -0.12403,-0.63065 -0.25616,-1.25977 -0.40343,-1.8854 -0.11194,-0.47557 -0.23264,-0.94914 -0.36663,-1.41897 -0.21256,-0.74531 -0.45841,-1.48062 -0.69143,-2.21979 -0.21908,-0.694955 -0.42684,-1.393415 -0.63884,-2.090561 -0.20912,-0.687678 -0.42238,-1.374121 -0.64465,-2.057664 -0.24727,-0.76044 -0.50568,-1.517291 -0.77878,-2.268842 -0.28222,-0.776642 -0.58006,-1.547492 -0.87251,-2.32034 -0.26818,-0.708731 -0.53195,-1.419473 -0.82952,-2.116378 -0.24574,-0.575523 -0.51432,-1.141134 -0.75622,-1.718281 -0.25998,-0.620281 -0.48879,-1.25307 -0.7314,-1.880346 -0.26322,-0.680549 -0.54271,-1.354666 -0.81988,-2.029654 -0.33415,-0.813763 -0.665,-1.628954 -1.0128,-2.436979 -0.42366,-0.984255 -0.87233,-1.957545 -1.30197,-2.9392 -0.34316,-0.784066 -0.67423,-1.573562 -1.03417,-2.350072 -0.3586,-0.773615 -0.74557,-1.533746 -1.11072,-2.304288 -0.45618,-0.962628 -0.87808,-1.94104 -1.31142,-2.914163 -0.3707,-0.832444 -0.74981,-1.661116 -1.13167,-2.488496 -0.3747,-0.811852 -0.75206,-1.622482 -1.13441,-2.430756 -0.57473,-1.21494 -1.16074,-2.424543 -1.72986,-3.642119 -0.42437,-0.907889 -0.83932,-1.820164 -1.24718,-2.735588 -0.52177,-1.171095 -1.03193,-2.34736 -1.5592,-3.515989 -0.45262,-1.003187 -0.91782,-2.000683 -1.36654,-3.005624 -0.33261,-0.74492 -0.65614,-1.493858 -0.98322,-2.241224 -0.31329,-0.715849 -0.62987,-1.430322 -0.93097,-2.15138 -0.37566,-0.899599 -0.72709,-1.809102 -1.09396,-2.712321 -0.35349,-0.870278 -0.7213,-1.734672 -1.09342,-2.597147 -0.37906,-0.878549 -0.76263,-1.755184 -1.13271,-2.637553 -0.50799,-1.211181 -0.99044,-2.4329 -1.46772,-3.656509 -0.37265,-0.955379 -0.74217,-1.911985 -1.10564,-2.870896 -0.24707,-0.651831 -0.49134,-1.30472 -0.73655,-1.957252 -0.26209,-0.697437 -0.52525,-1.394474 -0.79232,-2.090019 -0.37964,-0.988713 -0.76718,-1.97446 -1.13281,-2.968438 -0.28368,-0.771203 -0.55412,-1.547211 -0.83464,-2.319571 -0.41414,-1.140273 -0.85028,-2.272685 -1.24346,-3.420354 -0.32342,-0.944046 -0.61761,-1.897934 -0.94373,-2.841053 -0.21394,-0.618721 -0.44157,-1.232647 -0.65481,-1.851613 -0.2963,-0.860085 -0.56467,-1.729496 -0.83152,-2.599169 -0.27488,-0.895858 -0.54823,-1.79222 -0.8333,-2.684888 -0.25935,-0.812133 -0.52855,-1.6216518 -0.74915,-2.445156 -0.10435,-0.389533 -0.19775,-0.7819063 -0.28979,-1.174529 -0.13835,-0.5901446 -0.27369,-1.1810391 -0.42149,-1.768888 -0.23883,-0.9499068 -0.51007,-1.8913377 -0.75973,-2.838456 -0.22896,-0.8685842 -0.43974,-1.7418533 -0.64572,-2.616173 -0.25697,-1.09076234 -0.50648,-2.1832844 -0.74763,-3.277651 -0.14975,-0.6795527 -0.29629,-1.3599179 -0.42449,-2.043863 -0.1636,-0.872787 -0.29721,-1.7508623 -0.44068,-2.627183 -0.10966,-0.6698517 -0.2251,-1.338808 -0.3244,-2.010275 -0.11358,-0.768061 -0.20603,-1.539441 -0.26569,-2.313559 -0.0448,-0.581362 -0.0711,-1.163992 -0.11068,-1.745734 -0.0338,-0.497553 -0.0774,-0.994568 -0.0972,-1.492877 -0.0221,-0.55689 -0.0146,-1.11475 0.0137,-1.671363 0.0401,-0.789092 0.12175,-1.575656 0.22554,-2.358919 0.10251,-0.7736 0.22687,-1.545589 0.41964,-2.301766 0.15319,-0.600918 0.3496,-1.191312 0.59808,-1.75949 0.12562,-0.287229 0.2645,-0.568704 0.41763,-0.842256 0.1841,-0.328867 0.38852,-0.645845 0.59181,-0.963205 0.2016,-0.314725 0.4026,-0.63058 0.63144,-0.926097 0.28725,-0.37095 0.61652,-0.707434 0.95783,-1.029335 0.32097,-0.302713 0.65332,-0.593363 0.99625,-0.870948 0.32037,-0.259325 0.65011,-0.507335 0.99226,-0.737158 0.39633,-0.266214 0.80887,-0.507718 1.22922,-0.734124 0.4203,-0.226382 0.84867,-0.437835 1.28463,-0.632364 0.45368,-0.202437 0.91546,-0.386497 1.38225,-0.556538 0.47803,-0.174136 0.96243,-0.333892 1.45927,-0.443392 0.67479,-0.14872 1.36721,-0.203527 2.05802,-0.219149 0.67964,-0.01537 1.36164,0.007 2.03431,0.105275 0.71262,0.104148 1.41023,0.292827 2.09885,0.503751 0.7632,0.233771 1.51815,0.495507 2.25721,0.797044 1.01426,0.413819 1.99853,0.902787 2.93276,1.474788 0.9756,0.597331 1.8936,1.283089 2.81202,1.965065 0.72707,0.539884 1.4554,1.078074 2.18534,1.614062 0.68009,0.499381 1.36178,0.996998 2.02338,1.520629 0.57975,0.458846 1.14362,0.937314 1.70926,1.413439 0.75146,0.632536 1.50626,1.261118 2.26615,1.883494 0.93747,0.767817 1.88281,1.52628 2.80395,2.313618 1.01733,0.869559 2.0045,1.773792 3.01585,2.650307 1.08166,0.937455 2.19062,1.842907 3.27935,2.772143 1.34278,1.146069 2.65493,2.3284481 4.02434,3.442554 0.87646,0.7130602 1.77576,1.3976411 2.65389,2.108653 1.22013,0.987927 2.39874,2.0263651 3.62211,3.010278 1.04004,0.8364659 2.1116,1.6328674 3.1878,2.42226 0.8577,0.62912054 1.71891,1.25420049 2.60693,1.839743 0.93075,0.6137208 1.88984,1.1832695 2.85427,1.742581 0.90897,0.5271484 1.82336,1.0455964 2.75663,1.528417 1.24759,0.6454277 2.52762,1.2265032 3.82091,1.77464 1.68421,0.7138232 3.39403,1.3729874 5.1481,1.891982 1.72688,0.5109487 3.49111,0.8844597 5.2571,1.237255 1.23628,0.2469748 2.47487,0.4841347 3.7208,0.676592 0.92759,0.1432832 1.85881,0.2617206 2.78947,0.383434 0.9288,0.1214699 1.85739,0.246244 2.78953,0.338641 0.76247,0.07558 1.52693,0.129454 2.28994,0.199405 1.15305,0.10571 2.30284,0.248136 3.45784,0.32986 0.86555,0.06124 1.73312,0.08833 2.59946,0.137133 0.59268,0.03339 1.18476,0.07693 1.77642,0.12514 0.5194,0.04232 1.03851,0.08823 1.55727,0.137723 l 0.18502,17.65072 0.0899,0.56344 c 0.0878,0.188846 0.1984,0.36707 0.32866,0.529558 0.10501,0.130997 0.22339,0.252311 0.35963,0.350433 0.1131,0.08146 0.23741,0.146191 0.36433,0.203798 0.24833,0.112711 0.50854,0.199211 0.77493,0.257599 l 0.0508,-0.0015 88.71494,0.0017 0.55917,-0.08945 c 0.18881,-0.08785 0.36703,-0.198458 0.52956,-0.32866 0.13104,-0.104971 0.25244,-0.223295 0.35043,-0.359628 0.0813,-0.113173 0.14579,-0.237604 0.2038,-0.36433 0.10282,-0.224598 0.18638,-0.458005 0.24948,-0.696824 l 0.004,-0.04868 0.14382,-17.600213 c 0.2245,9.55e-4 0.44896,0.01103 0.67265,0.03018 0.71408,0.06114 1.41654,0.214377 2.11922,0.355429 0.9568,0.192062 1.92263,0.363374 2.8426,0.688955 0.82888,0.293342 1.6085,0.707711 2.40368,1.082919 0.70052,0.330545 1.41506,0.63153 2.10713,0.979427 0.82014,0.412277 1.60595,0.889032 2.38897,1.368069 0.82914,0.50725 1.65763,1.018592 2.43594,1.600835 0.57296,0.428626 1.11731,0.894664 1.64152,1.381711 0.5955,0.553288 1.16526,1.133841 1.71873,1.729178 0.54005,0.580903 1.06482,1.176126 1.56879,1.788592 0.66663,0.810144 1.29702,1.650754 1.87206,2.52828 0.49678,0.758097 0.95161,1.542686 1.41075,2.324151 0.41665,0.709144 0.8378,1.417419 1.1871,2.162049 0.30022,0.640011 0.54597,1.303913 0.81845,1.95622 0.32251,0.772081 0.6825,1.527968 1.01218,2.297013 0.36149,0.843243 0.68671,1.702914 0.94626,2.582897 0.20947,0.710199 0.37579,1.432251 0.55756,2.15004 0.18849,0.74431 0.39376,1.484705 0.55457,2.23548 0.15846,0.7398 0.27342,1.488089 0.39743,2.234437 0.12125,0.729747 0.25124,1.45803 0.37048,2.188109 0.12947,0.792734 0.24628,1.587689 0.33709,2.385776 0.0903,0.793268 0.1548,1.589274 0.20857,2.385848 0.0461,0.682982 0.0843,1.366469 0.12588,2.04974 0.0529,0.868754 0.11128,1.737401 0.13604,2.607411 0.0238,0.837913 0.0164,1.676413 8e-4,2.514519 -0.0127,0.679012 -0.0308,1.358019 -0.0669,2.036189 -0.0492,0.924879 -0.13191,1.847648 -0.19122,2.771936 -0.0459,0.71545 -0.0778,1.431719 -0.11747,2.147543 -0.0487,0.87978 -0.1092,1.759205 -0.20546,2.63506 -0.10555,0.960394 -0.25403,1.915493 -0.40386,2.869983 -0.12092,0.770364 -0.24277,1.540662 -0.34712,2.313445 -0.11381,0.842797 -0.20686,1.688864 -0.35602,2.526128 -0.16632,0.933596 -0.40186,1.853199 -0.61467,2.777307 -0.21121,0.917162 -0.4002,1.839466 -0.62416,2.753598 -0.20872,0.851917 -0.44768,1.696125 -0.69393,2.53796 -0.21734,0.742998 -0.44042,1.48433 -0.65252,2.22884 -0.23192,0.814069 -0.45079,1.632139 -0.70914,2.438209 -0.26766,0.835104 -0.57732,1.656102 -0.85831,2.486814 -0.26348,0.77894 -0.50168,1.566169 -0.75459,2.348605 -0.29401,0.90957 -0.60796,1.81283 -0.95101,2.705061 -0.31955,0.831125 -0.66421,1.652343 -0.99417,2.479392 -0.36563,0.916452 -0.71318,1.840012 -1.07527,2.757865 -0.48434,1.227736 -0.99465,2.445136 -1.47562,3.674196 -0.37373,0.95503 -0.72972,1.91703 -1.11483,2.86753 -0.38318,0.94572 -0.79501,1.87963 -1.17748,2.82564 -0.4148,1.02599 -0.79496,2.06596 -1.22592,3.08527 -0.39142,0.92578 -0.82428,1.83339 -1.23423,2.75111 -0.38307,0.85754 -0.74611,1.72387 -1.1055,2.5916 -0.50729,1.22484 -1.0077,2.4535 -1.43661,3.70793 -0.31596,0.92408 -0.59275,1.86106 -0.8969,2.7891 -0.28013,0.85477 -0.58342,1.70178 -0.89457,2.54575 -0.24581,0.66676 -0.4966,1.3318 -0.72583,2.00444 -0.30804,0.90388 -0.57685,1.82059 -0.84117,2.7382 -0.23961,0.83182 -0.47563,1.66472 -0.69762,2.50142 -0.2529,0.95321 -0.48757,1.9113 -0.75238,2.86127 -0.20337,0.72958 -0.42447,1.45417 -0.62351,2.18495 -0.27433,1.00719 -0.50657,2.0254 -0.72308,3.04658 -0.21047,0.99267 -0.40614,1.98843 -0.61618,2.98119 -0.18174,0.85899 -0.37422,1.7157 -0.54964,2.576 -0.2006,0.9838 -0.37886,1.97221 -0.52999,2.96481 -0.15289,1.0042 -0.27798,2.0124 -0.41642,3.0187 -0.13293,0.96622 -0.27818,1.93078 -0.39953,2.89852 -0.15637,1.24695 -0.27298,2.49854 -0.38065,3.75064 -0.078,0.90734 -0.15136,1.81509 -0.21953,2.72322 -0.0852,1.13452 -0.16225,2.26963 -0.23296,3.40514 -0.0735,1.17966 -0.14003,2.35988 -0.17812,3.54121 -0.0326,1.01195 -0.0444,2.02446 -0.0741,3.0365 -0.0213,0.72667 -0.052,1.45319 -0.0565,2.18016 -0.006,1.00805 0.0378,2.01566 0.0824,3.02274 0.0593,1.33743 0.11965,2.67492 0.20694,4.01081 0.0763,1.16855 0.17328,2.33564 0.26226,3.50329 0.0782,1.02671 0.15033,2.05392 0.23843,3.07983 0.0851,0.99066 0.18505,1.98 0.29512,2.96819 0.10569,0.94882 0.22069,1.89671 0.35892,2.84134 0.14487,0.99005 0.3152,1.97617 0.47043,2.96465 0.17224,1.09679 0.3259,2.19659 0.51591,3.29044 0.16916,0.97381 0.36704,1.94243 0.57684,2.90829 0.27389,1.26091 0.56815,2.51738 0.83404,3.78001 0.36296,1.72357 0.67303,3.45849 1.07521,5.17333 0.28683,1.22298 0.6203,2.43487 0.89208,3.66128 0.10191,0.45986 0.1951,0.92159 0.28892,1.38316 0.15591,0.76704 0.31392,1.53611 0.37503,2.31645 0.033,0.42142 0.0376,0.84459 0.0329,1.26728 -0.005,0.47013 -0.0219,0.94006 -0.0431,1.40974 -0.0236,0.52377 -0.0528,1.04769 -0.1138,1.56843 -0.0451,0.38544 -0.10768,0.76885 -0.18752,1.14862 -0.0438,0.20856 -0.093,0.41623 -0.15643,0.61968 -0.0709,0.22728 -0.15966,0.44898 -0.26518,0.6624 -0.19338,0.39745 -0.4156,0.78087 -0.66433,1.14624 -0.25187,0.36997 -0.53092,0.72143 -0.83417,1.05061 -0.35109,0.40327 -0.74386,0.77023 -1.17003,1.09314 -0.41712,0.31606 -0.86594,0.58977 -1.33506,0.82174 -0.41279,0.20412 -0.84207,0.37627 -1.28541,0.5008 -0.74918,0.21044 -1.52977,0.28289 -2.30663,0.3281 -0.73295,0.0426 -1.47051,0.0618 -2.19943,-0.0261 -0.54397,-0.0656 -1.07917,-0.19026 -1.60816,-0.33299 -0.59053,-0.15933 -1.17491,-0.34143 -1.75154,-0.54542 -1.16437,-0.4119 -2.29507,-0.91224 -3.43735,-1.38193 -1.17566,-0.48342 -2.36464,-0.93478 -3.53007,-1.44236 -1.14758,-0.4998 -2.27167,-1.05388 -3.36407,-1.66494 -0.70823,-0.39616 -1.40308,-0.81623 -2.08297,-1.25926 l 0.39071,-22.85199 -0.1193,-1.14456 z"
         sodipodi:nodetypes="csssssssssscsssssssscccssssssscsssssssssscssssssssssssscsscsccscsssssssssssssssssssssssssssssssssssssssssssssscssssssssssssssssssssssssssssssssssssssssssssssssssssssssssssssssssssssscscsssssssssssssssssssssssssssssssssssssssssssssssssssssssssssssssssssssssssssssssssssssssssssssssssssscsscccsssccccssscccssssssssssssssssssssssccscscsssssssssssssssssssssssssssssssssssssscccscsssssssscscscscccccsssscssssscccc"
         inkscape:label="contour"
         inkscape:original-d="m 284.27491,200.72287 c -0.11069,-0.27175 -0.18337,-0.64832 -0.33493,-0.95861 -0.18333,-0.37534 -0.4472,-0.60243 -0.5417,-0.8578 -0.0945,-0.25537 -0.32556,-0.45442 -0.52344,-0.76528 -0.19788,-0.31088 -0.62967,-0.55172 -0.89346,-0.83156 -0.2638,-0.27986 -0.73355,-0.48295 -1.08096,-0.73732 -0.3474,-0.25437 -0.75295,-0.4386 -1.12777,-0.58279 -0.37482,-0.14419 -0.86079,-0.26288 -1.24415,-0.34872 -0.38336,-0.0858 -1.05286,-0.27142 -1.66236,-0.39642 -0.6095,-0.125 -1.33779,-0.26699 -1.96984,-0.38215 -0.63204,-0.11516 -1.68803,-0.22515 -2.52846,-0.35113 -0.84044,-0.12598 -1.34556,-0.13155 -2.01873,-0.20485 -0.67317,-0.0733 -1.9314,-0.17748 -2.89749,-0.26658 -0.9661,-0.0891 -1.63096,-0.13344 -2.42031,-0.18434 -0.78935,-0.0509 -1.80255,-0.0642 -2.73074,-0.11304 -0.92819,-0.0488 -1.81295,-0.0638 -2.71983,-0.0961 -0.90687,-0.0323 -0.91201,-0.0181 -1.3296,-0.0328 -0.4176,-0.0147 -0.92167,-0.0102 -1.32732,-0.0112 -0.40565,-0.001 -1.24478,0.035 -1.86757,0.0521 -0.62279,0.0171 -1.29307,0.0101 -1.93495,0.0417 -0.64187,0.0316 -1.55279,0.0914 -2.33464,0.10989 -0.78186,0.0184 -1.36748,0.06 -2.05161,0.0897 -0.68413,0.0296 -1.23168,0.0694 -1.84614,0.12542 -0.61446,0.056 -1.19507,0.0772 -1.80197,0.10679 -0.36479,0.0178 -1.04913,0.10441 -1.60004,0.15861 -0.5439,0.0535 -1.49742,0.19505 -2.1847,0.25515 -0.68727,0.0601 -1.38411,0.15607 -2.14979,0.24687 -0.76567,0.0908 -1.31077,0.21745 -1.8667,0.30375 -0.55594,0.0863 -0.92318,0.22452 -1.58255,0.32042 -0.65937,0.0959 -0.72119,0.16498 -0.96702,0.22038 -0.24583,0.0554 -0.59397,0.15572 -0.89283,0.22782 -0.14943,0.036 -0.33758,0.0859 -0.47478,0.12152 -0.13719,0.0357 -0.3193,0.0853 -0.44896,0.12307 -0.25933,0.0755 -0.41867,0.14179 -0.64753,0.2663 -0.22885,0.12451 -0.63756,0.45947 -0.87126,0.60122 -0.23369,0.14175 -0.39241,0.42349 -0.60221,0.64118 -0.111,0.11518 -0.24877,0.24557 -0.35635,0.36396 -0.10758,0.1184 -0.22258,0.28392 -0.30416,0.4215 -0.19579,0.33019 -0.22322,0.3518 -0.3429,0.54459 -0.11967,0.19279 -0.3153,0.60998 -0.45035,0.91292 -0.13505,0.30294 -0.26925,0.5097 -0.39069,0.81202 -0.12145,0.30232 -0.35606,0.76524 -0.47219,1.19316 -0.41137,-0.10649 -0.0882,0.0394 -0.83441,-0.27471 -0.74626,-0.31417 -1.61543,-0.64545 -2.34539,-0.94537 -0.72996,-0.29992 -1.56294,-0.64098 -2.2098,-0.90369 -0.64686,-0.26272 -1.15646,-0.5059 -1.91958,-0.8335 -0.76313,-0.3276 -1.54358,-0.66579 -2.29017,-0.9836 -0.74659,-0.31781 -1.59217,-0.68864 -2.24057,-0.95423 -0.64839,-0.26559 -1.27574,-0.50876 -1.94597,-0.79756 -0.67023,-0.28881 -1.39603,-0.6256 -2.04308,-0.8359 -0.64705,-0.21029 -1.22304,-0.47723 -1.8694,-0.7094 -0.64637,-0.23217 -1.33434,-0.47397 -1.98086,-0.65088 -0.64652,-0.17691 -1.32821,-0.4032 -1.94037,-0.53153 -0.61216,-0.12833 -1.22983,-0.27107 -1.83727,-0.38579 -0.60744,-0.11473 -1.24847,-0.24308 -1.82311,-0.34497 -0.57464,-0.10189 -1.11262,-0.24027 -1.72471,-0.30647 -0.6121,-0.0662 -1.36534,-0.16218 -1.83707,-0.19927 -0.47174,-0.0371 -0.73889,-0.0747 -1.416,-0.11199 -0.6771,-0.0373 -1.31662,-0.12273 -2.03211,-0.11273 -0.7155,0.01 -1.58395,0.007 -2.14729,0.0285 -0.56334,0.0213 -1.1136,0.0611 -1.65078,0.099 -0.53719,0.0379 -0.87407,0.0311 -1.55876,0.10695 -0.68468,0.0759 -1.54008,0.16892 -2.14825,0.24731 -0.60817,0.0784 -1.21325,0.14271 -1.79929,0.23201 -0.58604,0.0893 -1.23694,0.13698 -1.77186,0.27227 -0.53493,0.13528 -1.0486,0.2294 -1.606,0.37107 -0.55741,0.14166 -1.02726,0.23125 -1.63705,0.45798 -0.60978,0.22674 -1.28295,0.40535 -1.89962,0.63931 -0.61667,0.23397 -1.15195,0.42672 -1.61137,0.63324 -0.45942,0.20652 -0.66442,0.22586 -1.56631,0.69673 -0.90189,0.47087 -1.88773,0.91445 -2.46241,1.24476 -0.57468,0.3303 -1.38978,0.73578 -1.92819,1.07405 -0.53841,0.33827 -1.23826,0.7135 -1.69257,1.00064 -0.45431,0.28715 -0.85559,0.54474 -1.33402,0.88261 -0.47843,0.33788 -1.00348,0.71397 -1.35486,0.97657 -0.35138,0.26259 -0.74137,0.52607 -1.13985,0.86767 -0.39848,0.3416 -0.72287,0.55063 -1.21392,0.93685 -0.49106,0.38622 -1.07357,0.89014 -1.43416,1.21568 -0.36058,0.32554 -0.78882,0.6693 -1.11151,0.97205 -0.32269,0.30276 -0.58086,0.50533 -0.97636,0.92691 -0.39549,0.4216 -0.82178,0.80374 -1.26232,1.29107 -0.44053,0.48733 -0.86966,0.92339 -1.25995,1.40015 -0.39028,0.47676 -0.89081,0.96268 -1.27666,1.37404 -0.38585,0.41137 -0.77153,0.90378 -1.03963,1.29621 -0.26811,0.39243 -0.44203,0.58641 -0.89803,1.19883 -0.456,0.61243 -0.9064,1.21097 -1.3015,1.82374 -0.3951,0.61278 -0.93607,1.35967 -1.24742,1.86863 -0.31135,0.50898 -0.60118,0.94946 -0.86979,1.40997 -0.26861,0.46051 -0.58545,0.9287 -0.82795,1.43518 -0.24251,0.50649 -0.53889,1.05346 -0.7825,1.54406 -0.2436,0.4906 -0.51465,1.00816 -0.73726,1.50632 -0.2226,0.49815 -0.46119,1.07383 -0.66072,1.51678 -0.19952,0.44294 -0.46368,0.97933 -0.61371,1.33682 -0.15003,0.35749 -0.30167,0.72645 -0.46069,1.13003 -0.15901,0.40357 -0.26247,0.67191 -0.44929,1.22048 -0.18681,0.54858 -0.29767,0.95591 -0.50969,1.60773 -0.21203,0.6518 -0.45264,1.37816 -0.60146,1.91323 -0.14882,0.53507 -0.31307,1.02131 -0.46071,1.59601 -0.14765,0.57471 -0.29183,1.06161 -0.48832,2.00898 -0.19649,0.94737 -0.33927,1.88377 -0.45391,2.43997 -0.11465,0.55621 -0.24133,1.15139 -0.32715,1.60665 -0.0858,0.45526 -0.21191,0.84492 -0.33611,1.53605 -0.12421,0.69114 -0.26406,1.24109 -0.3932,2.03986 -0.12914,0.79877 -0.26247,1.79328 -0.4444,2.50922 -0.18192,0.71595 -0.31501,1.49134 -0.46306,2.06561 -0.14806,0.57427 -0.29573,1.17087 -0.43697,1.73288 -0.14123,0.56201 -0.28144,1.23031 -0.46264,1.67436 -0.18119,0.44405 -0.3737,1.08213 -0.54436,1.33135 -0.17066,0.24922 -0.31402,0.54271 -0.51278,0.74686 -0.1955,0.20082 -0.33213,0.39811 -0.60953,0.60117 -0.26537,0.19426 -0.55078,0.38828 -0.86602,0.39228 -0.31524,0.004 -0.60152,0.13549 -0.94947,0.0415 -0.34795,-0.094 -0.80162,-0.15507 -1.02818,-0.27511 -0.22655,-0.12005 -0.38044,-0.09 -0.68353,-0.37598 -0.30309,-0.2859 -0.66584,-0.53626 -0.90063,-0.86405 -0.23479,-0.3278 -0.48861,-0.60185 -0.70656,-0.94504 -0.21796,-0.34318 -0.41681,-0.56082 -0.66911,-1.02904 -0.25229,-0.46822 -0.5773,-1.01044 -0.75743,-1.40546 -0.18014,-0.39503 -0.36157,-0.7822 -0.5412,-1.18587 -0.17963,-0.40367 -0.27614,-0.63167 -0.53968,-1.21181 -0.26355,-0.58013 -0.4585,-0.84422 -0.79143,-1.7412 -0.33293,-0.89699 -0.78443,-1.98629 -0.99958,-2.69175 -0.21515,-0.70545 -0.47598,-1.56834 -0.64624,-2.11715 -0.17026,-0.54881 -0.33364,-0.98067 -0.51158,-1.64723 -0.17795,-0.66657 -0.40502,-1.34616 -0.53464,-2.00049 -0.12961,-0.65432 -0.28783,-1.24283 -0.38963,-1.96376 -0.10181,-0.72094 -0.21043,-1.48458 -0.30621,-2.16361 -0.0958,-0.67903 -0.21231,-1.30093 -0.28812,-2.03789 -0.0758,-0.73696 -0.16869,-1.47985 -0.22823,-2.21168 -0.0596,-0.73183 -0.13141,-1.5383 -0.17943,-2.19628 -0.048,-0.65797 -0.10424,-1.30271 -0.11294,-2.03435 -0.009,-0.73165 -0.071,-1.53507 -0.0589,-2.13608 0.0122,-0.60101 -0.003,-1.19892 0.0357,-1.80383 0.0384,-0.60489 0.0978,-1.36762 0.11449,-1.81549 0.0167,-0.44787 -0.0108,-0.78853 0.0493,-1.34441 0.0601,-0.55587 0.11974,-1.13588 0.17947,-1.66842 0.0597,-0.53254 0.0982,-1.00929 0.1784,-1.59841 0.0802,-0.58912 0.14152,-1.13269 0.23972,-1.76816 0.0982,-0.63547 0.1929,-1.29627 0.29379,-1.90719 0.10088,-0.61093 0.18585,-1.17263 0.30186,-1.83357 0.11601,-0.66094 0.2333,-1.39738 0.34724,-1.98362 0.11393,-0.58624 0.21481,-1.24911 0.34101,-1.75951 0.1262,-0.5104 0.21666,-0.8257 0.37781,-1.53199 0.16114,-0.70629 0.36853,-1.63952 0.48264,-2.11965 0.1141,-0.48014 0.22851,-0.9436 0.36687,-1.44586 0.13836,-0.50225 0.26844,-0.97668 0.41769,-1.49993 0.14926,-0.52324 0.27307,-0.97968 0.46153,-1.5569 0.18845,-0.57721 0.34025,-1.12694 0.52125,-1.74903 0.18101,-0.62208 0.33706,-1.289 0.54222,-1.86704 0.20516,-0.57804 0.42024,-1.31135 0.57711,-1.75953 0.15687,-0.44818 0.24282,-0.62906 0.46254,-1.334 0.21972,-0.70493 0.45056,-1.37446 0.70323,-2.10234 0.25266,-0.72788 0.54424,-1.60913 0.75719,-2.18444 0.21295,-0.5753 0.45784,-1.37919 0.63805,-1.7267 0.18021,-0.34751 0.29567,-0.74716 0.60823,-1.55063 0.31257,-0.80347 0.53865,-1.24901 0.79055,-1.89174 0.25189,-0.64273 0.36779,-0.93976 0.86831,-2.21324 0.50052,-1.27348 1.17748,-2.94992 1.47951,-3.60509 0.30203,-0.65516 0.65538,-1.46891 0.92588,-2.1026 0.2705,-0.63369 0.51611,-1.23248 0.82698,-1.96511 0.31087,-0.73262 0.51418,-1.20343 0.89153,-2.04467 0.37735,-0.84125 0.82732,-1.7854 1.15164,-2.56717 0.32433,-0.78177 0.68324,-1.59479 0.97393,-2.32041 0.2907,-0.72562 0.62367,-1.53596 0.92617,-2.26553 0.3025,-0.72957 0.50094,-1.40606 0.79667,-2.11547 0.29573,-0.7094 0.64253,-1.58566 0.83162,-2.13714 0.18909,-0.55149 0.41666,-1.09274 0.59332,-1.62934 0.17665,-0.5366 0.39663,-0.9716 0.57935,-1.49603 0.18272,-0.52443 0.60056,-1.98145 0.50232,-1.68147 -0.0711,0.21699 0.46163,-1.53364 0.64058,-2.13571 0.17895,-0.60207 0.36471,-1.18148 0.53687,-1.79848 0.17217,-0.61701 0.39593,-1.34981 0.54149,-1.98125 0.14556,-0.63143 0.33648,-1.29884 0.47815,-1.89618 0.14168,-0.59735 0.28666,-1.10972 0.40385,-1.72564 0.1172,-0.61591 0.25535,-1.29468 0.37312,-1.87815 0.11776,-0.58347 0.19394,-1.1753 0.28591,-1.73861 0.092,-0.5633 0.20302,-1.14509 0.27149,-1.69825 0.0685,-0.55317 0.21152,-0.83403 0.2927,-1.52343 0.0812,-0.68941 0.16992,-1.34501 0.24275,-2.06901 0.0728,-0.72399 0.17099,-1.5215 0.21769,-2.17278 0.0467,-0.65127 0.0959,-1.27227 0.13932,-1.95461 0.0434,-0.68235 0.10506,-1.35912 0.12945,-2.04784 0.0244,-0.68873 0.0652,-1.45209 0.0724,-2.06697 0.007,-0.61487 0.0379,-1.32508 0.021,-1.84543 -0.017,-0.52035 -0.0425,-1.10482 -0.0516,-1.56184 -0.009,-0.45702 0.008,-0.82395 -0.0282,-1.37186 -0.0362,-0.54791 -0.0729,-1.24333 -0.10955,-1.64454 -0.0366,-0.4012 -0.0436,-0.57065 -0.1107,-1.2044 -0.0671,-0.63376 -0.0877,-1.26928 -0.20205,-1.90206 -0.11437,-0.63278 -0.22999,-1.21723 -0.3439,-1.89913 -0.11392,-0.68189 -0.23829,-1.46418 -0.34255,-2.04647 -0.10425,-0.58228 -0.18132,-1.18624 -0.31355,-1.74763 -0.13224,-0.5614 -0.28026,-1.10423 -0.3975,-1.68498 -0.11725,-0.58074 -0.21831,-1.11483 -0.35253,-1.74303 -0.13421,-0.62821 -0.28148,-1.41268 -0.40343,-1.8854 -0.12194,-0.47273 -0.13642,-0.6793 -0.36663,-1.41897 -0.23021,-0.73966 -0.47875,-1.5232 -0.69143,-2.21979 -0.21268,-0.69659 -0.42422,-1.404938 -0.63884,-2.090561 -0.21462,-0.685625 -0.38532,-1.301649 -0.64465,-2.057664 -0.25932,-0.756015 -0.4882,-1.495658 -0.77878,-2.268842 -0.29057,-0.773181 -0.59627,-1.615146 -0.87251,-2.32034 -0.27624,-0.705197 -0.57771,-1.543884 -0.82952,-2.116378 -0.2518,-0.572495 -0.51268,-1.091764 -0.75622,-1.718281 -0.24354,-0.626518 -0.45838,-1.204061 -0.7314,-1.880346 -0.27303,-0.676286 -0.48254,-1.217592 -0.81988,-2.029654 -0.33733,-0.812061 -0.57907,-1.457512 -1.0128,-2.436979 -0.43373,-0.979469 -0.95752,-2.156108 -1.30197,-2.9392 -0.34446,-0.783093 -0.6642,-1.58224 -1.03417,-2.350072 -0.36998,-0.767831 -0.67384,-1.333164 -1.11072,-2.304288 -0.43688,-0.971124 -0.93447,-2.08493 -1.31142,-2.914163 -0.37696,-0.829233 -0.75379,-1.678509 -1.13167,-2.488496 -0.37787,-0.809988 -0.55806,-1.216983 -1.13441,-2.430756 -0.57636,-1.213776 -1.31439,-2.730521 -1.72986,-3.642119 -0.41546,-0.911598 -0.72772,-1.563857 -1.24718,-2.735588 -0.51947,-1.171731 -1.10395,-2.514378 -1.5592,-3.515989 -0.45525,-1.00161 -1.03906,-2.258813 -1.36654,-3.005624 -0.32747,-0.74681 -0.67316,-1.524363 -0.98322,-2.241224 -0.31006,-0.716863 -0.56658,-1.247538 -0.93097,-2.15138 -0.36439,-0.903843 -0.72975,-1.846869 -1.09396,-2.712321 -0.36421,-0.865451 -0.71612,-1.718244 -1.09342,-2.597147 -0.37731,-0.878953 -0.64374,-1.418982 -1.13271,-2.637553 -0.48897,-1.218572 -1.09943,-2.699808 -1.46772,-3.656509 -0.36828,-0.956701 -0.86039,-2.218743 -1.10564,-2.870896 -0.24525,-0.652153 -0.47271,-1.260844 -0.73655,-1.957252 -0.26384,-0.696408 -0.41499,-1.100804 -0.79232,-2.090019 -0.37734,-0.989214 -0.85486,-2.195512 -1.13281,-2.968438 -0.27795,-0.772925 -0.42042,-1.179717 -0.83464,-2.319571 -0.41423,-1.139853 -0.92915,-2.473601 -1.24346,-3.420354 -0.31431,-0.946753 -0.72572,-2.224113 -0.94373,-2.841053 -0.218,-0.61694 -0.3779,-0.985488 -0.65481,-1.851613 -0.27691,-0.866125 -0.55402,-1.704471 -0.83152,-2.599169 -0.2775,-0.894698 -0.58384,-1.870101 -0.8333,-2.684888 -0.24945,-0.814788 -0.65282,-2.053912 -0.74915,-2.445156 -0.0963,-0.391245 -0.14956,-0.585164 -0.28979,-1.174529 -0.14023,-0.589365 -0.16851,-0.823001 -0.42149,-1.768888 -0.25297,-0.945887 -0.54475,-1.966661 -0.75973,-2.838456 -0.21498,-0.871791 -0.39678,-1.523886 -0.64572,-2.616173 -0.24895,-1.092285 -0.6064,-2.596629 -0.74763,-3.277651 -0.14123,-0.681024 -0.27786,-1.1684 -0.42449,-2.043863 -0.14663,-0.875462 -0.33282,-1.957356 -0.44068,-2.627183 -0.10787,-0.669827 -0.2361,-1.239354 -0.3244,-2.010275 -0.0883,-0.770922 -0.22906,-1.73191 -0.26569,-2.313559 -0.0366,-0.581647 -0.0786,-1.248373 -0.11068,-1.745734 -0.0321,-0.497361 -0.10197,-0.936019 -0.0972,-1.492877 0.005,-0.556856 -0.0617,-0.88532 0.0137,-1.671363 0.0755,-0.786042 0.0854,-1.591929 0.22554,-2.358919 0.14015,-0.766993 0.22002,-1.715534 0.41964,-2.301766 0.19962,-0.586232 0.4586,-1.479003 0.59808,-1.75949 0.13947,-0.280488 0.22009,-0.521454 0.41763,-0.842256 0.19754,-0.320805 0.38107,-0.65477 0.59181,-0.963205 0.21075,-0.308436 0.3119,-0.58325 0.63144,-0.926097 0.31954,-0.342847 0.62548,-0.739283 0.95783,-1.029335 0.33235,-0.29005 0.66523,-0.625494 0.99625,-0.870948 0.33102,-0.245454 0.58226,-0.492715 0.99226,-0.737158 0.41,-0.244443 0.80074,-0.5236 1.22922,-0.734124 0.42847,-0.210523 0.82362,-0.447116 1.28463,-0.632364 0.46101,-0.185248 0.89556,-0.409004 1.38225,-0.556538 0.48669,-0.147532 0.77299,-0.370602 1.45927,-0.443392 0.68627,-0.07278 1.37965,-0.254509 2.05802,-0.219149 0.67837,0.03535 1.33443,-0.06291 2.03431,0.105275 0.69988,0.168183 1.34619,0.237805 2.09885,0.503751 0.75267,0.265946 1.27936,0.305184 2.25721,0.797044 0.97785,0.491861 1.99516,0.8195 2.93276,1.474788 0.9376,0.655285 2.0833,1.426781 2.81202,1.965065 0.72871,0.538285 1.51061,1.106919 2.18534,1.614062 0.67472,0.50714 1.45336,1.049218 2.02338,1.520629 0.57002,0.471411 0.95362,0.785344 1.70926,1.413439 0.75565,0.628097 1.33124,1.112025 2.26615,1.883494 0.93491,0.77147 1.7984,1.429917 2.80395,2.313618 1.00554,0.8837 1.92247,1.725996 3.01585,2.650307 1.09338,0.924311 1.93764,1.624359 3.27935,2.772143 1.34172,1.147781 3.13945,2.739405 4.02434,3.442554 0.8849,0.703149 1.44626,1.104961 2.65389,2.108653 1.20763,1.003689 2.55924,2.202595 3.62211,3.010278 1.06286,0.807686 2.31855,1.808747 3.1878,2.42226 0.86924,0.613511 1.65524,1.258618 2.60693,1.839743 0.95169,0.581123 1.93512,1.232842 2.85427,1.742581 0.91914,0.509735 1.48273,0.936606 2.75663,1.528417 1.2739,0.591811 2.10462,1.143715 3.82091,1.77464 1.7163,0.630925 3.39547,1.479299 5.1481,1.891982 1.75263,0.412683 4.01657,1.01146 5.2571,1.237255 1.24053,0.225795 2.79071,0.548516 3.7208,0.676592 0.93009,0.128076 1.85937,0.270289 2.78947,0.383434 0.93011,0.113145 2.02595,0.271911 2.78953,0.338641 0.76358,0.06673 1.13705,0.08919 2.28994,0.199405 1.15288,0.110217 2.59109,0.28388 3.45784,0.32986 0.86676,0.04597 2.00706,0.09515 2.59946,0.137133 0.59241,0.04198 1.19401,0.05773 1.77642,0.12514 0.5824,0.06741 0.98061,0.141151 1.55727,0.137723 l 0.18502,17.65072 c 0.0323,0.357584 0.0414,0.383387 0.0899,0.56344 0.12142,0.24143 0.44092,0.664995 0.32866,0.529558 -0.15931,-0.192216 0.19949,0.244639 0.35963,0.350433 0.17153,0.113323 0.23972,0.140763 0.36433,0.203798 0.12461,0.06303 0.54684,0.182528 0.77493,0.257599 l 0.0508,-0.0015 c 0.62961,-0.07155 58.49891,-0.0012 88.71494,0.0017 0.35332,-0.03178 0.37912,-0.04094 0.55917,-0.08945 0.24143,-0.121415 0.665,-0.440915 0.52956,-0.32866 -0.19222,0.159315 0.24464,-0.199492 0.35043,-0.359628 0.1133,-0.171534 0.1408,-0.239719 0.2038,-0.36433 0.063,-0.124611 0.17438,-0.46874 0.24948,-0.696824 l 0.004,-0.04868 0.14382,-17.600213 c 0.26437,0.0043 0.39953,0.02468 0.67265,0.03018 0.27312,0.0055 1.41308,0.237217 2.11922,0.355429 0.70615,0.118211 1.89534,0.459568 2.8426,0.688955 0.94727,0.229388 1.60272,0.722211 2.40368,1.082919 0.80096,0.360708 1.40502,0.653216 2.10713,0.979427 0.70212,0.326212 1.59291,0.912311 2.38897,1.368069 0.79606,0.455759 1.62423,1.067488 2.43594,1.600835 0.81172,0.533347 1.09461,0.921405 1.64152,1.381711 0.54691,0.460306 1.14609,1.15305 1.71873,1.729178 0.57265,0.576128 1.04613,1.192659 1.56879,1.788592 0.52267,0.595933 1.2483,1.685784 1.87206,2.52828 0.62375,0.842495 0.94077,1.549699 1.41075,2.324151 0.46999,0.774453 0.79167,1.441631 1.1871,2.162049 0.39544,0.720419 0.5459,1.304411 0.81845,1.95622 0.27255,0.651808 0.67505,1.531606 1.01218,2.297013 0.33713,0.765406 0.6311,1.722196 0.94626,2.582897 0.31515,0.860701 0.37197,1.433625 0.55756,2.15004 0.18559,0.716416 0.36998,1.490585 0.55457,2.23548 0.18459,0.744896 0.26522,1.489889 0.39743,2.234437 0.13221,0.744547 0.24725,1.459004 0.37048,2.188109 0.12323,0.729105 0.22499,1.590782 0.33709,2.385776 0.11207,0.794994 0.13927,1.59083 0.20857,2.385848 0.0693,0.795018 0.0842,1.366758 0.12588,2.04974 0.0417,0.682982 0.091,1.738538 0.13604,2.607411 0.0451,0.868872 8e-4,1.676611 8e-4,2.514519 0,0.837909 -0.0443,1.357723 -0.0669,2.036189 -0.0225,0.678465 -0.12722,1.848223 -0.19122,2.771936 -0.064,0.923713 -0.078,1.431959 -0.11747,2.147543 -0.0394,0.715585 -0.13676,1.756971 -0.20546,2.63506 -0.0687,0.878088 -0.26898,1.913586 -0.40386,2.869983 -0.13489,0.956395 -0.23115,1.54256 -0.34712,2.313445 -0.11598,0.770882 -0.23708,1.684351 -0.35602,2.526128 -0.11894,0.84178 -0.40951,1.851803 -0.61467,2.777307 -0.20515,0.925505 -0.41584,1.835997 -0.62416,2.753598 -0.20831,0.917602 -0.43581,1.690351 -0.69393,2.53796 -0.25811,0.847606 -0.46129,1.488044 -0.65252,2.22884 -0.19124,0.740796 -0.47249,1.625737 -0.70914,2.438209 -0.23664,0.812472 -0.57194,1.658139 -0.85831,2.486814 -0.28638,0.828672 -0.50279,1.566002 -0.75459,2.348605 -0.25179,0.782606 -0.63374,1.803639 -0.95101,2.705061 -0.31727,0.901425 -0.66252,1.653193 -0.99417,2.479392 -0.33166,0.826198 -0.71658,1.838841 -1.07527,2.757865 -0.35869,0.919026 -0.98348,2.449726 -1.47562,3.674196 -0.49214,1.22447 -0.74296,1.91195 -1.11483,2.86753 -0.37187,0.95558 -0.78472,1.88403 -1.17748,2.82564 -0.39276,0.94162 -0.81702,2.05711 -1.22592,3.08527 -0.4089,1.02816 -0.82256,1.83434 -1.23423,2.75111 -0.41168,0.91677 -0.73674,1.72799 -1.1055,2.5916 -0.36877,0.8636 -0.95747,2.47222 -1.43661,3.70793 -0.47913,1.23571 -0.59767,1.85967 -0.8969,2.7891 -0.29923,0.92944 -0.59611,1.69743 -0.89457,2.54575 -0.29845,0.84831 -0.48362,1.33655 -0.72583,2.00444 -0.24222,0.66788 -0.56051,1.82573 -0.84117,2.7382 -0.28065,0.91247 -0.46482,1.66788 -0.69762,2.50142 -0.23281,0.83355 -0.50132,1.90778 -0.75238,2.86127 -0.25106,0.95349 -0.41541,1.4569 -0.62351,2.18495 -0.20811,0.72805 -0.48179,2.03132 -0.72308,3.04658 -0.24129,1.01526 -0.41052,1.98772 -0.61618,2.98119 -0.20565,0.99347 -0.36616,1.7176 -0.54964,2.576 -0.18348,0.8584 -0.35306,1.97681 -0.52999,2.96481 -0.17693,0.98801 -0.27735,2.01273 -0.41642,3.0187 -0.13906,1.00597 -0.26608,1.93261 -0.39953,2.89852 -0.13344,0.96591 -0.2535,2.50069 -0.38065,3.75064 -0.12713,1.24995 -0.16533,1.81216 -0.21953,2.72322 -0.0542,0.91106 -0.16816,2.2647 -0.23296,3.40514 -0.0648,1.14044 -0.11852,2.36107 -0.17812,3.54121 -0.0595,1.18014 -0.0366,2.02177 -0.0741,3.0365 -0.0375,1.01475 -0.0721,1.45591 -0.0565,2.18016 0.0155,0.72426 0.058,2.02531 0.0824,3.02274 0.0243,0.99743 0.18974,2.67413 0.20694,4.01081 0.0172,1.33667 0.17506,2.33579 0.26226,3.50329 0.0871,1.1675 0.15923,2.05349 0.23843,3.07983 0.0792,1.02635 0.19702,1.97905 0.29512,2.96819 0.0981,0.98913 0.23954,1.89449 0.35892,2.84134 0.11938,0.94684 0.31388,1.97669 0.47043,2.96465 0.15654,0.98795 0.3442,2.19389 0.51591,3.29044 0.1717,1.09655 0.38482,1.93913 0.57684,2.90829 0.19201,0.96917 0.55629,2.52027 0.83404,3.78001 0.27774,1.25974 0.71707,3.44915 1.07521,5.17333 0.35815,1.72417 0.59499,2.44112 0.89208,3.66128 0.29692,1.22016 0.19292,0.92237 0.28892,1.38316 0.096,0.46078 0.25028,1.54456 0.37503,2.31645 0.1247,0.77189 0.0222,0.84512 0.0329,1.26728 0.0107,0.42217 -0.0163,0.94087 -0.0431,1.40974 -0.0269,0.46888 -0.0537,1.05097 -0.1138,1.56843 -0.0601,0.51747 -0.11802,0.76523 -0.18752,1.14862 -0.0347,0.19169 -0.0978,0.39812 -0.15643,0.61968 -0.0587,0.22157 -0.21108,0.44696 -0.26518,0.6624 -0.24355,0.42739 -0.42723,0.77698 -0.66433,1.14624 -0.23654,0.37283 -1.04785,2.10046 -0.83417,1.05061 0.19869,-0.35205 -0.74716,0.75196 -1.17003,1.09314 -0.42287,0.34116 -0.8297,0.57428 -1.33506,0.82174 -0.45824,0.22437 -0.86573,0.37915 -1.28541,0.5008 -0.42088,0.122 -1.53837,0.2075 -2.30663,0.3281 -0.76826,0.12061 -1.50589,-0.0549 -2.19943,-0.0261 -0.69354,0.0289 -1.07271,-0.23389 -1.60816,-0.33299 -0.53545,-0.0991 -1.16743,-0.36335 -1.75154,-0.54542 -0.58411,-0.18208 -2.29188,-0.91375 -3.43735,-1.38193 -1.14548,-0.46818 -2.36785,-0.92178 -3.53007,-1.44236 -1.16223,-0.52059 -2.24525,-1.11782 -3.36407,-1.66494 -1.12198,-0.54866 -1.29821,-0.92493 -2.08297,-1.25926 0.15444,-7.59339 0.2742,-15.2546 0.39071,-22.85199 -0.0658,-0.34125 -0.0322,-0.8741 -0.1193,-1.14456 z"
         inkscape:path-effect="#path-effect2032" />
    </g>
    <g
       id="g2876"
       transform="rotate(180,108.97937,55.560459)"
       inkscape:label="top"
       style="display:none">
      <path
         d="m 295.5555,172.83052 c -0.94416,0.0717 -1.76762,-0.63561 -1.83937,-1.57976 -0.0716,-0.94417 0.63561,-1.76765 1.57983,-1.83937 0.94417,-0.0717 1.76766,0.63556 1.83941,1.57983 0.0716,0.94416 -0.6357,1.76765 -1.57987,1.8393 z"
         style="display:inline;fill:none;fill-opacity:1;fill-rule:evenodd;stroke:#040002;stroke-width:0.264583;stroke-linecap:butt;stroke-linejoin:miter;stroke-miterlimit:22.9256;stroke-dasharray:none;stroke-opacity:1"
         id="path2834" />
      <path
         d="m 218.04379,172.99718 c -0.94416,0.0717 -1.76772,-0.6356 -1.83936,-1.57976 -0.0717,-0.94427 0.63556,-1.76771 1.57972,-1.83936 0.94426,-0.0717 1.76775,0.63556 1.8394,1.57973 0.0718,0.94415 -0.6356,1.76774 -1.57976,1.83939 z"
         style="display:inline;fill:none;fill-opacity:1;fill-rule:evenodd;stroke:#040002;stroke-width:0.264583;stroke-linecap:butt;stroke-linejoin:miter;stroke-miterlimit:22.9256;stroke-dasharray:none;stroke-opacity:1"
         id="path2836" />
      <path
         d="m 282.99473,180.69748 -53.03302,0.006 c -4.99595,5.3e-4 -9.08388,-4.34143 -9.08454,-9.649 v 0 c -6.2e-4,-5.30756 4.08652,-9.65029 9.08247,-9.65089 l 53.033,-0.006 c 4.99596,-6.3e-4 9.08397,4.34132 9.08452,9.64888 v 0 c 6.2e-4,5.30756 -4.08663,9.65041 -9.08243,9.65093 z"
         style="display:inline;fill:none;stroke:#040002;stroke-width:0.264583;stroke-linecap:butt;stroke-linejoin:miter;stroke-miterlimit:22.9256;stroke-dasharray:none;stroke-opacity:1"
         id="path2838" />
      <path
         d="m 218.08974,112.8288 c -0.94416,0.0717 -1.76776,-0.6356 -1.83941,-1.57976 -0.0716,-0.94415 0.6356,-1.76771 1.57987,-1.83936 0.94417,-0.0716 1.76762,0.63556 1.83926,1.57973 0.0718,0.94425 -0.63556,1.76774 -1.57972,1.83939 z"
         style="display:inline;fill:none;fill-opacity:1;fill-rule:evenodd;stroke:#040002;stroke-width:0.264583;stroke-linecap:butt;stroke-linejoin:miter;stroke-miterlimit:22.9256;stroke-dasharray:none;stroke-opacity:1"
         id="path2840" />
      <path
         d="m 295.59005,112.71677 c -0.94423,0.0717 -1.76772,-0.6356 -1.83937,-1.57987 -0.0718,-0.94415 0.6356,-1.76761 1.57973,-1.83936 0.94416,-0.0716 1.76776,0.63556 1.83941,1.57983 0.0716,0.94415 -0.63561,1.76764 -1.57977,1.8394 z"
         style="display:inline;fill:none;fill-opacity:1;fill-rule:evenodd;stroke:#040002;stroke-width:0.264583;stroke-linecap:butt;stroke-linejoin:miter;stroke-miterlimit:22.9256;stroke-dasharray:none;stroke-opacity:1"
         id="path2842" />
      <path
         d="m 283.25327,120.80056 -53.03299,0.006 c -4.99588,5.3e-4 -9.08399,-4.34145 -9.08443,-9.64891 v 0 c -6.2e-4,-5.30767 4.08641,-9.65046 9.08247,-9.651 l 53.03288,-0.006 c 4.99598,-5.4e-4 9.08399,4.34142 9.08453,9.64898 v 0 c 5.2e-4,5.30757 -4.08652,9.65036 -9.08246,9.65089 z"
         style="display:inline;fill:none;stroke:#040002;stroke-width:0.264583;stroke-linecap:butt;stroke-linejoin:miter;stroke-miterlimit:22.9256;stroke-dasharray:none;stroke-opacity:1"
         id="path2844" />
      <path
         d="m 306.70244,122.8962 c -0.99809,0.0677 -1.86208,-0.68629 -1.92986,-1.68438 -0.0677,-0.99808 0.68649,-1.86208 1.68442,-1.92985 0.99804,-0.0677 1.86209,0.68634 1.92981,1.68437 0.0677,0.99809 -0.68643,1.86213 -1.68437,1.92986 z"
         style="display:inline;fill:none;fill-opacity:1;fill-rule:evenodd;stroke:#040002;stroke-width:0.377357;stroke-linecap:butt;stroke-linejoin:miter;stroke-miterlimit:22.9256;stroke-dasharray:none;stroke-opacity:1"
         id="path2862"
         inkscape:label="path2392" />
      <path
         d="m 220.89818,193.4899 c -0.99807,0.0677 -1.86207,-0.68644 -1.92984,-1.68452 -0.0678,-0.99809 0.68643,-1.86209 1.68436,-1.92986 0.99809,-0.0677 1.86213,0.68644 1.92986,1.68452 0.0677,0.99793 -0.68644,1.86209 -1.68438,1.92986 z"
         style="display:inline;fill:none;fill-opacity:1;fill-rule:evenodd;stroke:#040002;stroke-width:0.377357;stroke-linecap:butt;stroke-linejoin:miter;stroke-miterlimit:22.9256;stroke-dasharray:none;stroke-opacity:1"
         id="path2866" />
      <path
         d="m 138.41477,242.54447 c -0.99809,0.0677 -1.86209,-0.68643 -1.92986,-1.68451 -0.0678,-0.99808 0.68644,-1.86208 1.68438,-1.92985 0.99807,-0.0677 1.86207,0.68643 1.92985,1.68452 0.0677,0.99794 -0.68643,1.86207 -1.68437,1.92984 z"
         style="display:inline;fill:none;fill-opacity:1;fill-rule:evenodd;stroke:#040002;stroke-width:0.377357;stroke-linecap:butt;stroke-linejoin:miter;stroke-miterlimit:22.9256;stroke-dasharray:none;stroke-opacity:1"
         id="path2868" />
      <path
         d="m 146.2431,182.01937 c -0.9981,0.0677 -1.86211,-0.68645 -1.92983,-1.6844 -0.0677,-0.99809 0.68644,-1.8621 1.68439,-1.92984 0.9981,-0.0679 1.86211,0.6863 1.92983,1.68441 0.0677,0.99809 -0.68644,1.8621 -1.68439,1.92983 z"
         style="display:inline;fill:none;fill-opacity:1;fill-rule:evenodd;stroke:#040002;stroke-width:0.377362;stroke-linecap:butt;stroke-linejoin:miter;stroke-miterlimit:22.9256;stroke-dasharray:none;stroke-opacity:1"
         id="path2870" />
      <path
         d="m 301.21449,225.11833 c -0.99794,0.0678 -1.86199,-0.68633 -1.9297,-1.68441 -0.0679,-0.99805 0.68628,-1.86208 1.68436,-1.92982 0.99793,-0.0678 1.86192,0.68629 1.92985,1.68439 0.0678,0.99807 -0.68648,1.86206 -1.68451,1.92984 z"
         style="display:inline;fill:none;fill-opacity:1;fill-rule:evenodd;stroke:#040002;stroke-width:0.377356;stroke-linecap:butt;stroke-linejoin:miter;stroke-miterlimit:22.9256;stroke-dasharray:none;stroke-opacity:1"
         id="path2872" />
      <path
         id="path2874"
         style="display:inline;fill:none;stroke:#000000;stroke-width:0.264583px;stroke-linecap:butt;stroke-linejoin:miter;stroke-opacity:1"
         inkscape:label="contour"
         d="m 140.07719,253.07814 c 0.15903,-0.006 0.31761,-0.0258 0.47284,-0.061 0.31124,-0.0705 0.60841,-0.204 0.8661,-0.39223 0.23108,-0.16879 0.42843,-0.3792 0.60926,-0.60099 0.19106,-0.23435 0.36504,-0.48283 0.51263,-0.74673 0.23444,-0.4192 0.40031,-0.8736 0.54467,-1.3317 0.17405,-0.55233 0.31853,-1.11339 0.4625,-1.67432 0.1481,-0.57701 0.29583,-1.15401 0.43719,-1.73271 0.16745,-0.68553 0.32625,-1.37321 0.46302,-2.0655 0.16464,-0.83334 0.29722,-1.67282 0.44442,-2.50941 0.11999,-0.68203 0.24981,-1.36218 0.39325,-2.03967 0.10856,-0.51277 0.22474,-1.02413 0.3359,-1.53634 0.11591,-0.53412 0.2261,-1.06948 0.32711,-1.60662 0.1529,-0.81305 0.2845,-1.62984 0.45372,-2.43965 0.14099,-0.67469 0.30787,-1.34397 0.48834,-2.00918 0.14499,-0.53443 0.29902,-1.06674 0.46096,-1.59628 0.1955,-0.63929 0.40291,-1.27472 0.60151,-1.91306 0.16702,-0.53684 0.32771,-1.07565 0.50953,-1.60766 0.14021,-0.41025 0.29309,-0.81627 0.44958,-1.22059 0.14684,-0.37938 0.29694,-0.75766 0.46044,-1.13017 0.19707,-0.44898 0.41331,-0.88894 0.61392,-1.33635 0.22564,-0.50322 0.43139,-1.01553 0.66042,-1.51722 0.23217,-0.50857 0.48783,-1.00613 0.73743,-1.50637 0.25762,-0.51633 0.50901,-1.0354 0.78238,-1.54357 0.26168,-0.48643 0.54304,-0.96231 0.82785,-1.43557 0.28475,-0.47316 0.5729,-0.94405 0.86972,-1.40974 0.40255,-0.63158 0.82088,-1.25302 1.24747,-1.86862 0.42539,-0.61388 0.85932,-1.22193 1.30173,-1.82366 0.29577,-0.40227 0.59552,-0.80174 0.89813,-1.19889 0.33575,-0.44064 0.67548,-0.87917 1.03973,-1.29656 0.4111,-0.47108 0.85234,-0.91412 1.27641,-1.37356 0.42585,-0.46138 0.83401,-0.93906 1.25987,-1.40043 0.40827,-0.44232 0.83265,-0.86946 1.26246,-1.29088 0.32045,-0.31419 0.64392,-0.62538 0.97616,-0.92708 0.3644,-0.33089 0.73898,-0.65038 1.11156,-0.97203 0.4744,-0.40955 0.94575,-0.82253 1.43403,-1.21543 0.39822,-0.32045 0.80778,-0.62715 1.21439,-0.93689 0.37985,-0.28935 0.75725,-0.58143 1.13947,-0.86765 0.44564,-0.33372 0.89736,-0.65955 1.35495,-0.97669 0.43827,-0.30375 0.88231,-0.59968 1.33429,-0.88263 0.55557,-0.3478 1.12308,-0.67616 1.6924,-1.00097 0.63905,-0.36459 1.28025,-0.72504 1.92805,-1.07384 0.80989,-0.43608 1.62985,-0.85375 2.46238,-1.24488 0.51723,-0.243 1.03928,-0.47565 1.56631,-0.6966 0.53228,-0.22315 1.06952,-0.43401 1.61127,-0.63304 0.62721,-0.23042 1.2604,-0.44465 1.89963,-0.63924 0.54212,-0.16502 1.08855,-0.31624 1.63711,-0.45836 0.53197,-0.13783 1.06641,-0.26752 1.6061,-0.37104 0.58694,-0.11259 1.17949,-0.19414 1.77199,-0.27234 0.59953,-0.0792 1.19955,-0.15512 1.79937,-0.23202 0.71501,-0.0917 1.43004,-0.18452 2.14819,-0.24702 0.51886,-0.0452 1.03876,-0.0744 1.55856,-0.10697 0.55017,-0.0345 1.10042,-0.0731 1.65106,-0.0992 0.71518,-0.0335 1.43141,-0.0467 2.14716,-0.0284 0.67826,0.0173 1.35528,0.0628 2.03192,0.11266 0.47219,0.0348 0.94416,0.0719 1.41593,0.11213 0.61382,0.0523 1.22754,0.11038 1.8371,0.19948 0.57781,0.0845 1.15134,0.19704 1.72496,0.30644 0.60754,0.11587 1.21577,0.22796 1.82314,0.34468 0.61459,0.1181 1.22833,0.2409 1.8371,0.38602 0.65244,0.15552 1.29861,0.33655 1.94045,0.53124 0.66515,0.20176 1.32586,0.4182 1.98076,0.65112 0.628,0.22335 1.25071,0.46216 1.86965,0.70952 0.68328,0.27307 1.36197,0.5564 2.04277,0.8356 0.6486,0.26599 1.29903,0.52829 1.94613,0.79789 0.74934,0.31219 1.49452,0.63427 2.24069,0.95394 0.76369,0.32717 1.52822,0.65134 2.28979,0.98341 0.63944,0.27882 1.27675,0.56312 1.91978,0.83354 0.73359,0.30851 1.47454,0.59904 2.20968,0.90382 0.77875,0.32286 1.5516,0.66238 2.34559,0.94568 0.27582,0.0984 0.55424,0.1897 0.83458,0.2744 0.13542,-0.40596 0.29274,-0.80452 0.4718,-1.19321 0.12568,-0.27282 0.26181,-0.54051 0.39068,-0.81184 0.14562,-0.30659 0.28249,-0.61827 0.45062,-0.91312 0.10628,-0.18639 0.2245,-0.36555 0.34261,-0.54467 0.0954,-0.14475 0.19126,-0.28975 0.30438,-0.42116 0.1108,-0.12872 0.23754,-0.24317 0.35656,-0.36432 0.20553,-0.20921 0.38881,-0.43941 0.60203,-0.64079 0.25741,-0.24312 0.55561,-0.44112 0.87127,-0.60151 0.2083,-0.10584 0.42472,-0.19574 0.6475,-0.26614 0.14798,-0.0468 0.29865,-0.0848 0.44907,-0.12299 0.15833,-0.0402 0.31674,-0.0806 0.47491,-0.12143 0.29739,-0.0768 0.59406,-0.1551 0.89245,-0.2279 0.32119,-0.0784 0.64423,-0.15076 0.96738,-0.22066 0.52608,-0.11374 1.05327,-0.22149 1.58234,-0.32039 0.61975,-0.11586 1.24171,-0.21966 1.86655,-0.30386 0.71487,-0.0963 1.43284,-0.16669 2.14974,-0.24649 0.72868,-0.0811 1.45646,-0.17189 2.18488,-0.25529 0.53251,-0.061 1.06543,-0.11824 1.5999,-0.15864 0.60001,-0.0454 1.20139,-0.0698 1.80196,-0.10697 0.61562,-0.0381 1.23062,-0.0896 1.8464,-0.12506 0.68339,-0.0394 1.36771,-0.0591 2.05155,-0.0899 0.7783,-0.0351 1.55606,-0.085 2.33474,-0.11007 0.6448,-0.0207 1.28986,-0.0241 1.93477,-0.0413 0.62256,-0.0166 1.24483,-0.0462 1.86758,-0.0522 0.44245,-0.005 0.88519,0.002 1.32757,0.0114 0.44325,0.009 0.88598,0.0194 1.32912,0.0325 0.90678,0.0269 1.81365,0.0638 2.72025,0.0961 0.91047,0.0324 1.82107,0.0603 2.73058,0.11317 0.80777,0.047 1.61447,0.11389 2.42052,0.18449 0.96621,0.0847 1.93192,0.17453 2.8975,0.26613 0.67335,0.0639 1.34644,0.12876 2.01848,0.20516 0.84555,0.0962 1.68911,0.21092 2.52853,0.35088 0.65983,0.11002 1.31725,0.23573 1.96991,0.38241 0.55579,0.12491 1.10809,0.26511 1.66243,0.39635 0.41946,0.0993 0.84154,0.19405 1.24385,0.34882 0.39551,0.15215 0.76721,0.36079 1.12809,0.58291 0.37159,0.22871 0.73355,0.47238 1.08056,0.73691 0.32435,0.24726 0.63717,0.51422 0.89348,0.83147 0.19432,0.24052 0.35377,0.50686 0.52349,0.76533 0.18572,0.28282 0.38479,0.558 0.54157,0.85783 0.1574,0.30101 0.27108,0.62505 0.33538,0.95859 l 0.11885,1.14464 -0.39067,22.85235 c 0.67989,0.44303 1.37485,0.86268 2.08307,1.25884 1.0924,0.61106 2.21656,1.16521 3.36414,1.66501 1.16543,0.50758 2.35436,0.95887 3.53002,1.44229 1.14228,0.46969 2.27314,0.97045 3.43751,1.38235 0.57663,0.20398 1.16079,0.38585 1.75132,0.54518 0.52899,0.14273 1.0642,0.2672 1.60817,0.3328 0.72892,0.0879 1.4664,0.069 2.19935,0.0264 0.77686,-0.0452 1.55765,-0.1177 2.30683,-0.32814 0.44334,-0.12453 0.87241,-0.29663 1.2852,-0.50075 0.46912,-0.23197 0.9182,-0.50559 1.33532,-0.82165 0.42616,-0.32291 0.81886,-0.69021 1.16995,-1.09348 0.30325,-0.32918 0.58219,-0.68061 0.83406,-1.05058 0.24873,-0.36537 0.47118,-0.74873 0.66456,-1.14618 0.10552,-0.21342 0.1942,-0.43521 0.2651,-0.66249 0.0634,-0.20345 0.11278,-0.41104 0.15658,-0.6196 0.0798,-0.37977 0.14248,-0.76281 0.18758,-1.14825 0.061,-0.52074 0.0901,-1.04513 0.11369,-1.5689 0.0212,-0.46968 0.0379,-0.9396 0.0429,-1.40973 0.005,-0.42269 4.4e-4,-0.84569 -0.0326,-1.26711 -0.0611,-0.78034 -0.21926,-1.54961 -0.37517,-2.31665 -0.0938,-0.46157 -0.18696,-0.92301 -0.28887,-1.38287 -0.27178,-1.2264 -0.60562,-2.43829 -0.89245,-3.66127 -0.40218,-1.71484 -0.71191,-3.44976 -1.07487,-5.17333 -0.26589,-1.26263 -0.56017,-2.51922 -0.83406,-3.78013 -0.2098,-0.96586 -0.40755,-1.93454 -0.57671,-2.90835 -0.19001,-1.09385 -0.344,-2.19345 -0.51624,-3.29024 -0.15523,-0.98848 -0.32539,-1.97462 -0.47026,-2.96467 -0.13823,-0.94463 -0.25346,-1.89236 -0.35915,-2.84117 -0.11007,-0.98819 -0.20997,-1.97764 -0.29507,-2.9683 -0.0881,-1.02591 -0.16003,-2.0532 -0.23823,-3.07991 -0.089,-1.16765 -0.18622,-2.3346 -0.26252,-3.50315 -0.0873,-1.33589 -0.1474,-2.6737 -0.2067,-4.01112 -0.0446,-1.00708 -0.0887,-2.01451 -0.0827,-3.02256 0.005,-0.72697 0.0356,-1.45356 0.0568,-2.18023 0.0297,-1.01204 0.0413,-2.02456 0.0739,-3.0365 0.0381,-1.18133 0.10478,-2.36173 0.17828,-3.54139 0.0707,-1.13551 0.14786,-2.27044 0.23306,-3.40496 0.0682,-0.90813 0.14111,-1.81601 0.21911,-2.72335 0.10767,-1.2521 0.22448,-2.50372 0.38085,-3.75067 0.12135,-0.96774 0.26653,-1.93232 0.39946,-2.89853 0.13844,-1.0063 0.26363,-2.01423 0.41651,-3.01843 0.15113,-0.99259 0.32961,-1.98087 0.53021,-2.96467 0.17541,-0.8603 0.36758,-1.71708 0.54932,-2.57607 0.21004,-0.99276 0.40603,-1.98855 0.6165,-2.98122 0.21651,-1.02117 0.44862,-2.03965 0.72295,-3.04684 0.19904,-0.73078 0.41985,-1.4553 0.62322,-2.18488 0.26481,-0.94997 0.49951,-1.90811 0.75241,-2.86132 0.22199,-0.8367 0.45802,-1.66932 0.69763,-2.50114 0.26432,-0.91761 0.53325,-1.83446 0.84129,-2.73834 0.22923,-0.67263 0.48024,-1.33776 0.72605,-2.00452 0.31115,-0.84397 0.61439,-1.69082 0.89452,-2.54558 0.30415,-0.92804 0.58063,-1.8649 0.89659,-2.78898 0.42891,-1.25443 0.92931,-2.48346 1.4366,-3.7083 0.35939,-0.86773 0.72281,-1.73404 1.10588,-2.59158 0.40995,-0.91771 0.84261,-1.82547 1.23403,-2.75125 0.43096,-1.01931 0.81097,-2.05909 1.22577,-3.08508 0.38247,-0.94601 0.79452,-1.87995 1.1777,-2.82567 0.38511,-0.9505 0.74093,-1.9125 1.11466,-2.86752 0.45689,-1.16752 0.93956,-2.3249 1.40199,-3.490231 H 150.7246 c 0.0241,0.07721 0.0465,0.154896 0.0708,0.232031 0.23302,0.73917 0.47887,1.47471 0.69143,2.22002 0.13399,0.46983 0.25496,0.94346 0.3669,1.41903 0.14727,0.62563 0.27905,1.25451 0.40308,1.88516 0.11439,0.58166 0.22182,1.16481 0.35243,1.74304 0.12715,0.56291 0.2765,1.12099 0.39791,1.68517 0.12453,0.57867 0.21956,1.16323 0.31316,1.7477 0.10941,0.68296 0.21658,1.3663 0.34261,2.04639 0.11723,0.63261 0.25117,1.26247 0.34417,1.8991 0.0922,0.63097 0.14435,1.26715 0.20205,1.90221 0.0365,0.4015 0.0752,0.80246 0.11059,1.20406 0.0482,0.54734 0.0902,1.09575 0.10955,1.64487 0.016,0.4571 0.0165,0.91426 0.0284,1.37149 0.0136,0.52073 0.0422,1.04136 0.0512,1.56218 0.0111,0.61514 -0.004,1.23034 -0.0207,1.84536 -0.0184,0.68918 -0.0377,1.3785 -0.0724,2.06706 -0.0344,0.68312 -0.0842,1.36547 -0.12971,2.04794 -0.0434,0.65175 -0.0829,1.30361 -0.13901,1.9544 -0.0625,0.72521 -0.14557,1.44872 -0.21807,2.17299 -0.0692,0.69108 -0.12893,1.3834 -0.24237,2.06861 -0.0845,0.51018 -0.1986,1.01499 -0.293,1.52342 -0.10465,0.56367 -0.1851,1.13182 -0.2713,1.69861 -0.0883,0.58067 -0.18215,1.16027 -0.28577,1.73839 -0.11262,0.62831 -0.23707,1.25437 -0.37362,1.87792 -0.12638,0.57709 -0.26328,1.15214 -0.4036,1.726 -0.15483,0.63319 -0.31339,1.26527 -0.478,1.896 -0.17289,0.66247 -0.35237,1.32328 -0.54157,1.98128 -0.17289,0.60128 -0.35399,1.20004 -0.53692,1.79834 -0.21732,0.71077 -0.43754,1.42087 -0.64079,2.13578 -0.16,0.56276 -0.30972,1.12909 -0.50229,1.68156 -0.17602,0.50501 -0.38722,0.99691 -0.5793,1.49603 -0.2076,0.53945 -0.3927,1.08725 -0.59324,1.62936 -0.26521,0.71695 -0.55704,1.42387 -0.83148,2.13733 -0.27052,0.70327 -0.52417,1.41268 -0.79685,2.11512 -0.29524,0.76057 -0.61274,1.51219 -0.92604,2.26549 -0.32213,0.77453 -0.63992,1.55138 -0.9741,2.32079 -0.37363,0.86026 -0.76754,1.711 -1.15135,2.56677 -0.30427,0.67843 -0.60244,1.35997 -0.89193,2.04484 -0.2767,0.6546 -0.54571,1.31253 -0.82683,1.96525 -0.30293,0.70335 -0.61984,1.40079 -0.92604,2.10272 -0.51941,1.19069 -1.00836,2.39435 -1.4795,3.60494 -0.28743,0.73855 -0.56811,1.4798 -0.86816,2.21331 -0.25875,0.63256 -0.53181,1.25883 -0.79065,1.89135 -0.21029,0.51387 -0.41122,1.0317 -0.60823,1.55081 -0.21772,0.57369 -0.43031,1.14952 -0.63769,1.72703 -0.26046,0.72532 -0.51251,1.4537 -0.75757,2.18436 -0.23497,0.70059 -0.46344,1.40309 -0.7028,2.1022 -0.15245,0.44526 -0.30962,0.88883 -0.46302,1.33377 -0.2012,0.58357 -0.39638,1.16922 -0.57671,1.75958 -0.18932,0.6198 -0.36216,1.24463 -0.54261,1.86707 -0.16939,0.58429 -0.34548,1.16673 -0.52089,1.74925 -0.15607,0.5183 -0.31128,1.03697 -0.46148,1.55701 -0.14402,0.49863 -0.28375,0.99832 -0.41806,1.49965 -0.12867,0.48031 -0.25274,0.96195 -0.3669,1.44591 -0.16637,0.70528 -0.31175,1.41556 -0.48266,2.11976 -0.12405,0.51114 -0.26148,1.01873 -0.37775,1.53169 -0.13207,0.5827 -0.23667,1.17131 -0.34107,1.75958 -0.1173,0.66093 -0.23452,1.32213 -0.34726,1.98386 -0.10403,0.61062 -0.20419,1.2218 -0.30179,1.83348 -0.10134,0.6352 -0.19953,1.27105 -0.29353,1.90738 -0.0869,0.58842 -0.16987,1.17717 -0.23977,1.76785 -0.063,0.5324 -0.11519,1.06597 -0.17829,1.59835 -0.0659,0.55554 -0.14403,1.11036 -0.17983,1.66863 -0.0287,0.44754 -0.0303,0.89657 -0.0491,1.34463 -0.0255,0.60584 -0.0824,1.20987 -0.11473,1.81539 -0.0317,0.60063 -0.0396,1.20204 -0.0357,1.80351 0.005,0.71232 0.0281,1.42463 0.0589,2.1363 0.0293,0.67855 0.0662,1.35695 0.11317,2.0345 0.0508,0.73279 0.11372,1.46464 0.17932,2.19625 0.0662,0.73822 0.13541,1.47643 0.22841,2.21175 0.0861,0.68063 0.19253,1.35819 0.28783,2.0376 0.10117,0.72135 0.18972,1.4447 0.30645,2.16369 0.10696,0.65885 0.23776,1.31374 0.38964,1.96371 0.15709,0.67223 0.33643,1.33902 0.53433,2.00039 0.16482,0.55082 0.34231,1.09799 0.5116,1.64745 0.21727,0.70516 0.42131,1.4145 0.64647,2.11718 0.29218,0.91183 0.62021,1.81263 0.99942,2.69183 0.2525,0.58543 0.52766,1.16066 0.79168,1.74098 0.18311,0.40249 0.36082,0.80734 0.53951,1.21181 0.1756,0.39747 0.35188,0.79478 0.54105,1.18597 0.23177,0.47928 0.48281,0.94961 0.75758,1.4056 0.21119,0.3505 0.4365,0.69227 0.6692,1.02888 0.22375,0.32365 0.45457,0.64287 0.70642,0.94516 0.26707,0.32057 0.55964,0.62371 0.90072,0.86403 0.21298,0.15006 0.44369,0.27428 0.68368,0.37569 0.32791,0.13856 0.67421,0.23463 1.02785,0.27543 0.1581,0.0182 0.31793,0.0253 0.47697,0.0191 z" />
    </g>
    <g
       id="g2998"
       transform="rotate(180,108.97937,55.560459)"
       inkscape:label="bottom"
       style="display:inline">
      <path
         d="m 174.2917,84.574511 c -0.9797,0.0665 -1.82788,-0.6737 -1.89438,-1.653399 -0.0665,-0.979699 0.67377,-1.827777 1.65347,-1.894311 0.97973,-0.0665 1.82792,0.6737 1.89441,1.653434 0.0665,0.97977 -0.6738,1.827777 -1.6535,1.894276 z"
         style="display:inline;fill:none;fill-opacity:1;fill-rule:evenodd;stroke:#040002;stroke-width:0.264583;stroke-linecap:butt;stroke-linejoin:miter;stroke-miterlimit:22.9256;stroke-dasharray:none;stroke-opacity:1"
         id="path2944" />
      <path
         d="m 146.3795,54.081917 c -0.9797,0.0666 -1.82788,-0.6737 -1.89438,-1.653399 -0.0665,-0.979699 0.67377,-1.827814 1.6535,-1.894314 0.9797,-0.0665 1.82789,0.673703 1.89439,1.653508 0.0665,0.979699 -0.67381,1.827706 -1.65351,1.894205 z"
         style="display:inline;fill:none;fill-opacity:1;fill-rule:evenodd;stroke:#040002;stroke-width:0.264583;stroke-linecap:butt;stroke-linejoin:miter;stroke-miterlimit:22.9256;stroke-dasharray:none;stroke-opacity:1"
         id="path2946" />
      <path
         d="m 200.6912,57.282109 c -2.62449,0.17822 -4.89648,-1.80499 -5.0746,-4.42937 -0.17819,-2.62442 1.80492,-4.89652 4.42941,-5.0746 2.62459,-0.17823 4.89648,1.80488 5.07471,4.42937 0.17818,2.62442 -1.80492,4.89641 -4.42952,5.0746 z"
         style="display:inline;fill:none;fill-opacity:1;fill-rule:evenodd;stroke:#040002;stroke-width:0.264583;stroke-linecap:butt;stroke-linejoin:miter;stroke-miterlimit:22.9256;stroke-dasharray:none;stroke-opacity:1"
         id="path2948" />
      <path
         d="m 163.21447,31.580416 c -2.62449,0.17822 -4.89652,-1.80499 -5.07471,-4.42941 -0.17808,-2.62439 1.80499,-4.89649 4.42952,-5.07457 2.62449,-0.17822 4.89648,1.80488 5.07467,4.42937 0.17812,2.62442 -1.80499,4.89642 -4.42948,5.07461 z"
         style="display:inline;fill:none;fill-opacity:1;fill-rule:evenodd;stroke:#040002;stroke-width:0.264583;stroke-linecap:butt;stroke-linejoin:miter;stroke-miterlimit:22.9256;stroke-dasharray:none;stroke-opacity:1"
         id="path2950" />
      <path
         d="m 131.28809,-0.665176 c -2.62459,0.17819 -4.89648,-1.80491 -5.07467,-4.4294 -0.17822,-2.62439 1.80488,-4.89642 4.42948,-5.07461 2.62452,-0.17818 4.89652,1.80499 5.0746,4.42941 0.17822,2.62438 -1.80488,4.89649 -4.42941,5.0746 z"
         style="display:inline;fill:none;fill-opacity:1;fill-rule:evenodd;stroke:#040002;stroke-width:0.264583;stroke-linecap:butt;stroke-linejoin:miter;stroke-miterlimit:22.9256;stroke-dasharray:none;stroke-opacity:1"
         id="path2952" />
      <path
         d="m 169.42062,76.251001 c 0.6405,0.831603 -0.35271,1.788619 -1.35672,1.098833 L 151.39551,59.147629 c -0.59652,-1.092306 0.6484,-1.813807 1.4618,-1.34112 z"
         style="display:inline;fill:none;fill-opacity:1;fill-rule:evenodd;stroke:#040002;stroke-width:0.264583;stroke-linecap:butt;stroke-linejoin:miter;stroke-miterlimit:22.9256;stroke-dasharray:none;stroke-opacity:1"
         id="path2954" />
      <path
         d="m 218.08974,112.8288 c -0.94416,0.0717 -1.76776,-0.6356 -1.83941,-1.57976 -0.0716,-0.94415 0.6356,-1.76771 1.57987,-1.83936 0.94417,-0.0716 1.76762,0.63556 1.83926,1.57973 0.0718,0.94425 -0.63556,1.76774 -1.57972,1.83939 z"
         style="display:inline;fill:none;fill-opacity:1;fill-rule:evenodd;stroke:#040002;stroke-width:0.264583;stroke-linecap:butt;stroke-linejoin:miter;stroke-miterlimit:22.9256;stroke-dasharray:none;stroke-opacity:1"
         id="path2962" />
      <path
         d="m 295.59005,112.71677 c -0.94423,0.0717 -1.76772,-0.6356 -1.83937,-1.57987 -0.0718,-0.94415 0.6356,-1.76761 1.57973,-1.83936 0.94416,-0.0716 1.76776,0.63556 1.83941,1.57983 0.0716,0.94415 -0.63561,1.76764 -1.57977,1.8394 z"
         style="display:inline;fill:none;fill-opacity:1;fill-rule:evenodd;stroke:#040002;stroke-width:0.264583;stroke-linecap:butt;stroke-linejoin:miter;stroke-miterlimit:22.9256;stroke-dasharray:none;stroke-opacity:1"
         id="path2964" />
      <path
         d="m 283.25327,120.80056 -53.03299,0.006 c -4.99588,5.3e-4 -9.08399,-4.34145 -9.08443,-9.64891 v 0 c -6.2e-4,-5.30767 4.08641,-9.65046 9.08247,-9.651 l 53.03288,-0.006 c 4.99598,-5.4e-4 9.08399,4.34142 9.08453,9.64898 v 0 c 5.2e-4,5.30757 -4.08652,9.65036 -9.08246,9.65089 z"
         style="display:inline;fill:none;stroke:#040002;stroke-width:0.264583;stroke-linecap:butt;stroke-linejoin:miter;stroke-miterlimit:22.9256;stroke-dasharray:none;stroke-opacity:1"
         id="path2966" />
      <path
         d="m 219.3168,49.2231 c -0.94481,0.0641 -1.76259,-0.64967 -1.82669,-1.59437 -0.0642,-0.94481 0.64968,-1.76262 1.59438,-1.82672 0.94471,-0.0642 1.76262,0.64971 1.82672,1.59441 0.0641,0.9447 -0.64971,1.76258 -1.59441,1.82668 z"
         style="display:inline;fill:none;fill-opacity:1;fill-rule:evenodd;stroke:#040002;stroke-width:0.264583;stroke-linecap:butt;stroke-linejoin:miter;stroke-miterlimit:22.9256;stroke-dasharray:none;stroke-opacity:1"
         id="path2968" />
      <path
         d="m 295.34781,62.987505 c -0.9447,0.06421 -1.76251,-0.649675 -1.82661,-1.594379 -0.0642,-0.944703 0.64971,-1.762619 1.59441,-1.826718 0.94467,-0.0641 1.76248,0.64971 1.82669,1.594414 0.0641,0.94481 -0.64971,1.762584 -1.59449,1.826683 z"
         style="display:inline;fill:none;fill-opacity:1;fill-rule:evenodd;stroke:#040002;stroke-width:0.264583;stroke-linecap:butt;stroke-linejoin:miter;stroke-miterlimit:22.9256;stroke-dasharray:none;stroke-opacity:1"
         id="path2970" />
      <path
         d="m 281.58419,68.570108 -52.1601,-9.582609 c -4.9137,-0.902687 -8.14938,-5.912273 -7.19028,-11.132399 v 0 c 0.95899,-5.22019 5.764,-8.75259 10.67759,-7.8499 l 52.1601,9.58282 c 4.91381,0.90269 8.14931,5.9122 7.19028,11.132394 v 0 c -0.95899,5.220194 -5.76389,8.752488 -10.67759,7.849694 z"
         style="display:inline;fill:none;stroke:#040002;stroke-width:0.264583;stroke-linecap:butt;stroke-linejoin:miter;stroke-miterlimit:22.9256;stroke-dasharray:none;stroke-opacity:1"
         id="path2972"
         sodipodi:nodetypes="ccssccssc" />
      <path
         d="m 121.6615,-18.059659 c -0.99794,0.06775 -1.86194,-0.686441 -1.92968,-1.684546 -0.0678,-0.99809 0.6863,-1.862099 1.68441,-1.929832 0.99793,-0.06775 1.86194,0.686455 1.92981,1.684546 0.0678,0.997948 -0.68644,1.862114 -1.68454,1.929832 z"
         style="display:inline;fill:none;fill-opacity:1;fill-rule:evenodd;stroke:#040002;stroke-width:0.377362;stroke-linecap:butt;stroke-linejoin:miter;stroke-miterlimit:22.9256;stroke-dasharray:none;stroke-opacity:1"
         id="path2974" />
      <path
         d="m 153.7332,87.784028 c -0.99793,0.06777 -1.86193,-0.686438 -1.92971,-1.684371 -0.0678,-0.998085 0.68645,-1.862082 1.68438,-1.929805 0.99794,-0.06777 1.86208,0.686287 1.92985,1.684372 0.0677,0.998084 -0.68643,1.862081 -1.68452,1.929804 z"
         style="display:inline;fill:none;fill-opacity:1;fill-rule:evenodd;stroke:#040002;stroke-width:0.377357;stroke-linecap:butt;stroke-linejoin:miter;stroke-miterlimit:22.9256;stroke-dasharray:none;stroke-opacity:1"
         id="path2976" />
      <path
         d="m 131.71455,37.877477 c -0.99793,0.06775 -1.86209,-0.686288 -1.92986,-1.684365 -0.0678,-0.998091 0.68649,-1.862088 1.68452,-1.929862 0.99793,-0.06775 1.86199,0.686345 1.92971,1.684422 0.0677,0.998034 -0.68643,1.862088 -1.68437,1.929805 z"
         style="display:inline;fill:none;fill-opacity:1;fill-rule:evenodd;stroke:#040002;stroke-width:0.377357;stroke-linecap:butt;stroke-linejoin:miter;stroke-miterlimit:22.9256;stroke-dasharray:none;stroke-opacity:1"
         id="path2978" />
      <path
         d="m 203.97201,19.811185 c -0.99794,0.06775 -1.86193,-0.686274 -1.92971,-1.684365 -0.0678,-0.998077 0.68645,-1.862088 1.68438,-1.929805 0.99793,-0.06775 1.86213,0.686445 1.92985,1.684379 0.0677,0.998077 -0.68643,1.862074 -1.68452,1.929791 z"
         style="display:inline;fill:none;fill-opacity:1;fill-rule:evenodd;stroke:#040002;stroke-width:0.377357;stroke-linecap:butt;stroke-linejoin:miter;stroke-miterlimit:22.9256;stroke-dasharray:none;stroke-opacity:1"
         id="path2980" />
      <path
         d="m 307.06081,20.974211 c -0.99793,0.06789 -1.86208,-0.686331 -1.92986,-1.684366 -0.0677,-0.998091 0.68645,-1.862131 1.68452,-1.929862 0.99794,-0.06775 1.86193,0.686445 1.92971,1.684379 0.0677,0.998078 -0.68643,1.862074 -1.68437,1.929849 z"
         style="display:inline;fill:none;fill-opacity:1;fill-rule:evenodd;stroke:#040002;stroke-width:0.377357;stroke-linecap:butt;stroke-linejoin:miter;stroke-miterlimit:22.9256;stroke-dasharray:none;stroke-opacity:1"
         id="path2982" />
      <path
         d="m 306.70244,122.8962 c -0.99809,0.0677 -1.86208,-0.68629 -1.92986,-1.68438 -0.0677,-0.99808 0.68649,-1.86208 1.68442,-1.92985 0.99804,-0.0677 1.86209,0.68634 1.92981,1.68437 0.0677,0.99809 -0.68643,1.86213 -1.68437,1.92986 z"
         style="display:inline;fill:none;fill-opacity:1;fill-rule:evenodd;stroke:#040002;stroke-width:0.377357;stroke-linecap:butt;stroke-linejoin:miter;stroke-miterlimit:22.9256;stroke-dasharray:none;stroke-opacity:1"
         id="path2984"
         inkscape:label="path2392" />
      <path
         d="m 323.69625,72.255528 c -0.99808,0.06777 -1.86213,-0.686438 -1.92985,-1.684521 -0.0677,-0.998086 0.68643,-1.862082 1.68437,-1.929805 0.99809,-0.06777 1.86208,0.686438 1.92986,1.684521 0.0677,0.997934 -0.68645,1.862082 -1.68438,1.929805 z"
         style="display:inline;fill:none;fill-opacity:1;fill-rule:evenodd;stroke:#040002;stroke-width:0.377357;stroke-linecap:butt;stroke-linejoin:miter;stroke-miterlimit:22.9256;stroke-dasharray:none;stroke-opacity:1"
         id="path2986" />
      <path
         id="path2996"
         style="display:inline;fill:none;stroke:#000000;stroke-width:0.264583px;stroke-linecap:butt;stroke-linejoin:miter;stroke-opacity:1"
         inkscape:label="contour"
         d="M 312.72402 123.95321 C 312.73064 123.93308 312.7386 123.91341 312.7452 123.89327 C 313.04935 122.96523 313.32583 122.02837 313.64179 121.10429 C 314.0707 119.84986 314.5711 118.62082 315.07839 117.39599 C 315.43778 116.52826 315.8012 115.66195 316.18427 114.80441 C 316.59422 113.88669 317.02688 112.97894 317.4183 112.05316 C 317.84927 111.03386 318.22927 109.99407 318.64407 108.96808 C 319.02653 108.02207 319.4386 107.08813 319.82177 106.14241 C 320.20688 105.19191 320.5627 104.22991 320.93643 103.27489 C 321.4174 102.04582 321.92797 100.82843 322.41231 99.600691 C 322.77441 98.682838 323.12207 97.759171 323.4877 96.84272 C 323.81766 96.015671 324.16188 95.194409 324.48144 94.363285 C 324.82448 93.471055 325.13879 92.568109 325.4328 91.65854 C 325.68571 90.876105 325.92379 90.088786 326.18728 89.309846 C 326.46827 88.479135 326.77796 87.658279 327.04562 86.823176 C 327.30398 86.017107 327.5227 85.199151 327.75462 84.385082 C 327.96673 83.640573 328.18995 82.898758 328.4073 82.155761 C 328.65355 81.313927 328.89259 80.469847 329.10131 79.617931 C 329.32527 78.7038 329.51383 77.781772 329.72504 76.864611 C 329.93786 75.940504 330.17367 75.020598 330.33999 74.087003 C 330.48915 73.24974 330.58224 72.403855 330.69604 71.561059 C 330.8004 70.788277 330.92239 70.017868 331.04331 69.247505 C 331.19314 68.293016 331.34135 67.337789 331.4469 66.377396 C 331.54316 65.501542 331.60384 64.622194 331.65258 63.742415 C 331.69223 63.026591 331.72397 62.310192 331.76988 61.594742 C 331.82919 60.670455 331.91185 59.747696 331.96108 58.822818 C 331.99719 58.144649 332.01558 57.465778 332.02826 56.786767 C 332.04392 55.948661 332.05107 55.110104 332.02723 54.272192 C 332.00247 53.402183 331.9442 52.533869 331.89132 51.665116 C 331.84973 50.981845 331.81133 50.298093 331.76523 49.615112 C 331.71146 48.818538 331.64724 48.022478 331.55697 47.229211 C 331.46616 46.431124 331.349 45.636043 331.21953 44.84331 C 331.10029 44.113231 330.97026 43.385076 330.84901 42.65533 C 330.72499 41.908983 330.61008 41.16064 330.45162 40.420841 C 330.2908 39.670066 330.08561 38.929628 329.89713 38.185318 C 329.71536 37.46753 329.54901 36.745777 329.33954 36.035579 C 329.07999 35.155596 328.75483 34.296033 328.39334 33.452791 C 328.06366 32.683746 327.70351 31.927854 327.381 31.155773 C 327.10852 30.503467 326.86267 29.839314 326.56245 29.199303 C 326.21315 28.454674 325.79209 27.746305 325.37544 27.037161 C 324.91629 26.255697 324.46145 25.471369 323.96467 24.713272 C 323.38963 23.835747 322.75958 22.994887 322.09295 22.184744 C 321.58898 21.572279 321.0641 20.977125 320.52406 20.396223 C 319.97059 19.800887 319.4008 19.220417 318.8053 18.66713 C 318.28109 18.180083 317.7365 17.713928 317.16354 17.285302 C 316.38523 16.703059 315.55717 16.191616 314.72803 15.684366 C 313.945 15.20533 313.15916 14.728768 312.33903 14.316491 C 311.64696 13.968594 310.93218 13.667767 310.23166 13.337223 C 309.43649 12.962015 308.65706 12.547426 307.82819 12.254085 C 306.90822 11.928504 305.94226 11.7573 304.98547 11.565238 C 304.28279 11.424186 303.5803 11.270849 302.86622 11.209704 C 302.64253 11.19055 302.41789 11.180687 302.19339 11.179731 L 302.04973 28.779691 L 302.0456 28.828267 C 301.9825 29.067085 301.89933 29.300784 301.79652 29.525382 C 301.7385 29.652108 301.67374 29.776528 301.59239 29.889701 C 301.4944 30.026034 301.37306 30.144397 301.24203 30.249369 C 301.0795 30.37957 300.90116 30.490178 300.71235 30.578031 L 300.15321 30.667431 L 211.43821 30.665881 L 211.38756 30.666914 C 211.12118 30.608526 210.86075 30.522277 210.61242 30.409565 C 210.4855 30.351958 210.3612 30.28742 210.2481 30.20596 C 210.11186 30.107839 209.99345 29.986074 209.88843 29.855077 C 209.75817 29.692589 209.64756 29.514756 209.55977 29.325911 L 209.46985 28.762121 L 209.28485 11.111519 C 208.76609 11.062023 208.24724 11.016377 207.72784 10.974059 C 207.13618 10.925854 206.54389 10.882389 205.9512 10.849002 C 205.08487 10.800201 204.21742 10.772786 203.35188 10.711543 C 202.19688 10.629819 201.04726 10.487557 199.89421 10.381847 C 199.1312 10.311896 198.36638 10.257955 197.60391 10.182376 C 196.67177 10.08998 195.74322 9.9653654 194.81442 9.8438957 C 193.88375 9.7221824 192.95251 9.6037396 192.02492 9.4604566 C 190.77899 9.2679995 189.5405 9.0304699 188.30422 8.7834953 C 186.53823 8.4307003 184.77405 8.0573097 183.04718 7.5463615 C 181.29311 7.0273675 179.58338 6.3683099 177.89917 5.6544873 C 176.60588 5.1063511 175.3258 4.5253457 174.07821 3.8799187 C 173.14494 3.3970986 172.23076 2.8784777 171.32179 2.3513298 C 170.35736 1.7920189 169.39794 1.2225207 168.46719 0.60880049 C 167.57917 0.023258558 166.71832 -0.60176059 165.86063 -1.2308805 C 164.78443 -2.0202723 163.71274 -2.8164898 162.67271 -3.6529549 C 161.44934 -4.6368668 160.27083 -5.6756978 159.05071 -6.6636238 C 158.17258 -7.3746351 157.27307 -8.0589627 156.39661 -8.7720223 C 155.02719 -9.8861271 153.71482 -11.068638 152.37205 -12.214706 C 151.28332 -13.143942 150.17483 -14.049176 149.09318 -14.98663 C 148.08183 -15.863145 147.09415 -16.767556 146.07682 -17.637114 C 145.15568 -18.424451 144.21085 -19.182852 143.27338 -19.950668 C 142.51348 -20.573043 141.75831 -21.201739 141.00685 -21.834274 C 140.44121 -22.310398 139.87765 -22.788779 139.29791 -23.247624 C 138.63631 -23.771255 137.95435 -24.269082 137.27426 -24.768462 C 136.54432 -25.304449 135.81593 -25.842433 135.08886 -26.382317 C 134.17044 -27.064293 133.25274 -27.750241 132.27715 -28.347572 C 131.34292 -28.919572 130.35825 -29.408598 129.34399 -29.822417 C 128.60494 -30.123953 127.84997 -30.385497 127.08677 -30.619268 C 126.39815 -30.830192 125.70081 -31.018965 124.98819 -31.123113 C 124.31552 -31.221421 123.63333 -31.243903 122.95369 -31.228533 C 122.26288 -31.21291 121.57072 -31.157628 120.89593 -31.008908 C 120.39909 -30.899408 119.91462 -30.73966 119.43659 -30.565524 C 118.9698 -30.395483 118.50792 -30.211406 118.05424 -30.008969 C 117.61829 -29.81444 117.18987 -29.603347 116.76957 -29.376966 C 116.34922 -29.15056 115.93703 -28.908858 115.5407 -28.642644 C 115.19855 -28.412822 114.86837 -28.165063 114.548 -27.905738 C 114.20507 -27.628153 113.87316 -27.337186 113.55219 -27.034473 C 113.21088 -26.712573 112.88136 -26.376028 112.59411 -26.005079 C 112.36528 -25.709562 112.16423 -25.393762 111.96263 -25.079037 C 111.75933 -24.761677 111.55503 -24.444656 111.37093 -24.115789 C 111.2178 -23.842237 111.079 -23.561208 110.95339 -23.273979 C 110.7049 -22.705802 110.50817 -22.115314 110.35497 -21.514397 C 110.1622 -20.758221 110.03786 -19.986328 109.93536 -19.212729 C 109.83157 -18.429466 109.75013 -17.642791 109.71005 -16.8537 C 109.68178 -16.297088 109.67396 -15.738857 109.6961 -15.181967 C 109.7159 -14.683659 109.75941 -14.187104 109.79325 -13.689552 C 109.83282 -13.10781 109.85955 -12.524767 109.90435 -11.943405 C 109.96402 -11.169288 110.05639 -10.397911 110.16997 -9.629851 C 110.26927 -8.9583847 110.38483 -8.2894889 110.4945 -7.6196378 C 110.63796 -6.743318 110.77119 -5.8651941 110.93478 -4.992408 C 111.06298 -4.3084636 111.20982 -3.6281571 111.35956 -2.9486051 C 111.60072 -1.8542396 111.84984 -0.76204702 112.1068 0.32871422 C 112.31278 1.203033 112.5238 2.0765087 112.75276 2.945092 C 113.00242 3.8922094 113.27357 4.8337726 113.5124 5.7836784 C 113.6602 6.3715267 113.79573 6.9624186 113.93408 7.5525627 C 114.02613 7.945185 114.11964 8.3376354 114.22399 8.727168 C 114.44459 9.5506714 114.71342 10.359848 114.97278 11.17198 C 115.25785 12.064647 115.53144 12.96123 115.80632 13.857087 C 116.07317 14.72676 116.34149 15.596328 116.63779 16.456412 C 116.85103 17.075377 117.07859 17.689258 117.29253 18.307979 C 117.61865 19.251096 117.91272 20.204587 118.23614 21.148632 C 118.62933 22.2963 119.06586 23.428823 119.48 24.569095 C 119.76051 25.341455 120.03089 26.117648 120.31457 26.88885 C 120.6802 27.882827 121.06768 28.868432 121.44732 29.857144 C 121.71439 30.552688 121.97743 31.250019 122.23952 31.947456 C 122.48473 32.599988 122.72884 33.252612 122.97591 33.904443 C 123.33937 34.863352 123.70913 35.820207 124.08178 36.775585 C 124.55906 37.999193 125.04141 39.220513 125.54939 40.431693 C 125.91947 41.314061 126.30308 42.19071 126.68214 43.069258 C 127.05426 43.931732 127.42212 44.796238 127.77561 45.666515 C 128.14248 46.569734 128.49394 47.479413 128.8696 48.379011 C 129.17071 49.100069 129.48701 49.814453 129.8003 50.530301 C 130.12738 51.277667 130.45109 52.026589 130.7837 52.771508 C 131.23242 53.776448 131.6974 54.773823 132.15002 55.777009 C 132.67729 56.945637 133.18785 58.12198 133.70962 59.293074 C 134.11748 60.208497 134.5322 61.120936 134.95657 62.028824 C 135.52569 63.246399 136.11197 64.45604 136.6867 65.670979 C 137.06905 66.479252 137.4463 67.289987 137.821 68.101838 C 138.20286 68.929218 138.58202 69.757615 138.95271 70.590059 C 139.38605 71.563181 139.80756 72.541465 140.26374 73.504093 C 140.62889 74.274634 141.01619 75.03473 141.37478 75.808345 C 141.73472 76.584854 142.06567 77.374523 142.40883 78.158589 C 142.83847 79.140243 143.28742 80.113691 143.71108 81.097944 C 144.05888 81.905968 144.38926 82.721243 144.72342 83.535005 C 145.00059 84.209992 145.2803 84.88379 145.54352 85.564338 C 145.78614 86.191613 146.01477 86.824563 146.27474 87.444844 C 146.51664 88.02199 146.78555 88.587563 147.03129 89.163085 C 147.32885 89.85999 147.59251 90.570505 147.86069 91.279235 C 148.15314 92.052082 148.45078 92.823382 148.73299 93.600024 C 149.00609 94.351574 149.26449 95.10818 149.51176 95.868619 C 149.73402 96.552162 149.94756 97.238697 150.15668 97.926375 C 150.36868 98.62352 150.57632 99.321732 150.7954 100.01669 C 151.02841 100.75585 151.27427 101.4914 151.48683 102.23671 C 151.62082 102.70654 151.74179 103.18017 151.85373 103.65574 C 152.001 104.28137 152.13278 104.91025 152.25681 105.5409 C 152.3712 106.12255 152.47863 106.70571 152.60924 107.28394 C 152.73639 107.84685 152.88574 108.40494 153.00715 108.96911 C 153.13168 109.54778 153.22667 110.13234 153.32031 110.71681 C 153.42972 111.39977 153.53689 112.08311 153.66292 112.7632 C 153.78016 113.39582 153.91405 114.02567 154.00709 114.6623 C 154.0993 115.29328 154.1514 115.92946 154.20914 116.56451 C 154.24565 116.96602 154.28432 117.36697 154.31973 117.76857 C 154.36799 118.31591 154.41002 118.86431 154.42928 119.41344 C 154.44532 119.87054 154.44581 120.32769 154.45771 120.78493 C 154.47126 121.30566 154.49945 121.82629 154.50887 122.34711 C 154.51855 122.88249 154.50453 123.41788 154.49078 123.95321 L 312.72402 123.95321 z " />
    </g>
  </g>
</svg>
