<?xml version="1.0" encoding="UTF-8" standalone="no"?>
<!-- Created with Inkscape (http://www.inkscape.org/) -->

<svg
   width="210mm"
   height="297mm"
   viewBox="0 0 210 297"
   version="1.1"
   id="svg3013"
   inkscape:version="1.2.1 (9c6d41e410, 2022-07-14, custom)"
   sodipodi:docname="strat-sss-11h_freecad_bottom.svg"
   xmlns:inkscape="http://www.inkscape.org/namespaces/inkscape"
   xmlns:sodipodi="http://sodipodi.sourceforge.net/DTD/sodipodi-0.dtd"
   xmlns="http://www.w3.org/2000/svg"
   xmlns:svg="http://www.w3.org/2000/svg">
  <sodipodi:namedview
     id="namedview3015"
     pagecolor="#505050"
     bordercolor="#ffffff"
     borderopacity="1"
     inkscape:showpageshadow="0"
     inkscape:pageopacity="0"
     inkscape:pagecheckerboard="1"
     inkscape:deskcolor="#505050"
     inkscape:document-units="mm"
     showgrid="false"
     inkscape:zoom="1.1893044"
     inkscape:cx="-300.17547"
     inkscape:cy="344.73933"
     inkscape:current-layer="layer1" />
  <defs
     id="defs3010" />
  <g
     inkscape:label="Layer 1"
     inkscape:groupmode="layer"
     id="layer1">
    <g
       id="g484"
       transform="translate(-656.25629,-40.102514)"
       style="display:inline;fill:none;stroke:#040002;stroke-width:0.264583;stroke-dasharray:none;stroke-opacity:1"
       inkscape:label="bottom">
      <path
         id="path482"
         style="fill:none;stroke:#040002;stroke-width:0.264583;stroke-linecap:butt;stroke-linejoin:miter;stroke-miterlimit:22.9256;stroke-dasharray:none;stroke-opacity:1"
         d="M 13.773513 133.2218 C 10.783151 141.35673 7.2043229 149.15541 3.7772243 157.39139 C -0.2486017 166.97399 -3.3144248 177.30159 -5.080633 187.64019 C -8.7817993 204.23699 -5.454017 223.76652 4.0903835 236.47648 C 9.3166682 242.126 16.734624 248.24164 30.950759 247.74401 L 30.869111 236.94777 C 31.024411 233.49489 32.669254 231.88914 36.96693 232.05195 L 102.89314 232.06125 C 105.33303 232.418 106.75253 234.04941 106.95284 236.816 L 107.01847 247.79466 C 121.1737 247.95721 136.90989 248.26823 148.80868 254.01391 C 159.63906 259.24374 163.71343 263.69724 171.68946 270.39793 C 179.63725 277.07481 190.86969 286.61149 196.45229 289.53629 C 204.36148 293.67999 216.43558 289.05862 216.55959 276.41565 C 216.39431 270.47314 215.44183 264.20988 214.24655 258.40228 C 211.57722 246.82769 207.16411 235.17611 203.2281 224.07724 C 199.4942 213.72245 195.18294 204.42898 190.56582 194.45889 C 184.54444 181.6613 178.8249 169.00746 175.2634 155.13364 C 173.64659 147.09536 172.87591 140.17688 173.07335 133.2218 L 13.773513 133.2218 z M 20.016026 134.52198 C 20.715836 134.47448 21.321395 135.00299 21.368915 135.70279 C 21.416415 136.4026 20.887808 137.00817 20.188109 137.05568 C 19.48834 137.10318 18.8827 136.57464 18.83522 135.87487 C 18.78772 135.17507 19.316327 134.56946 20.016026 134.52198 z M 43.380492 137.32336 L 96.41188 137.74142 C 101.40767 137.78082 105.46085 142.1554 105.41908 147.46279 C 105.37728 152.77019 101.25522 157.08035 96.259435 157.04102 L 43.228046 156.62244 C 38.232231 156.58314 34.179491 152.20898 34.221361 146.90159 C 34.263161 141.59419 38.384817 137.28395 43.380492 137.32336 z M 31.139895 145.40091 C 32.084604 145.33681 32.902567 146.05042 32.966657 146.99512 C 33.030757 147.93993 32.317138 148.7578 31.372439 148.82189 C 30.42763 148.88609 29.609777 148.17185 29.545677 147.22715 C 29.481477 146.28244 30.195196 145.46501 31.139895 145.40091 z M 108.65093 145.85359 C 109.59563 145.78939 110.41349 146.5031 110.47769 147.44781 C 110.54179 148.39251 109.82772 149.2104 108.88295 149.27457 C 107.93824 149.33867 107.12039 148.62516 107.05619 147.68035 C 106.99209 146.73564 107.70622 145.91769 108.65093 145.85359 z M 172.99119 171.75072 C 173.69088 171.70322 174.29655 172.23183 174.34407 172.93152 C 174.39157 173.63132 173.86297 174.23692 173.16327 174.28441 C 172.46357 174.33191 171.85738 173.80342 171.80986 173.10361 C 171.76236 172.40381 172.29138 171.79821 172.99119 171.75072 z M 152.30253 173.73871 C 153.28222 173.67221 154.12997 174.41266 154.19647 175.39236 C 154.26297 176.37206 153.52304 177.22028 152.54334 177.28681 C 151.56361 177.35331 150.71537 176.6129 150.64888 175.63317 C 150.58238 174.6534 151.32283 173.80521 152.30253 173.73871 z M 157.80452 180.72743 C 158.02881 180.72172 158.27905 180.79115 158.53005 180.96359 L 175.19829 199.16558 C 175.7948 200.25789 174.55028 200.97979 173.73688 200.5071 L 157.17355 182.06223 C 156.69317 181.43853 157.13163 180.74457 157.80452 180.72743 z M 2.8930405 185.39071 C 3.5928398 185.34321 4.1989663 185.87223 4.2464463 186.57204 C 4.2939462 187.27184 3.7648223 187.87744 3.065123 187.92492 C 2.3653137 187.97242 1.759754 187.4434 1.712234 186.7436 C 1.6647341 186.0439 2.1933412 185.43819 2.8930405 185.39071 z M 43.17947 189.60699 C 43.782983 189.58661 44.395638 189.63057 45.00985 189.74342 L 97.169973 199.32578 C 102.08367 200.22847 105.31933 205.23831 104.36023 210.45843 C 103.40124 215.67862 98.596433 219.21077 93.682848 218.30808 L 41.522724 208.72521 C 36.608919 207.82252 33.373436 202.81325 34.332465 197.59307 C 35.171581 193.0254 38.95488 189.74967 43.17947 189.60699 z M 31.246349 195.32602 C 32.191048 195.26182 33.008494 195.97554 33.072594 196.92024 C 33.136794 197.86495 32.423075 198.6829 31.478376 198.747 C 30.533707 198.8111 29.715824 198.09748 29.651614 197.15279 C 29.587514 196.20798 30.30157 195.39012 31.246349 195.32602 z M 180.21452 204.23142 C 181.19422 204.16482 182.04247 204.90537 182.10897 205.88507 C 182.17547 206.86476 181.43506 207.71251 180.45533 207.77901 C 179.47563 207.84551 178.62737 207.10569 178.56087 206.12588 C 178.49437 205.14618 179.23482 204.29792 180.21452 204.23142 z M 124.09856 208.96033 C 126.51133 209.04098 128.51889 210.93795 128.68588 213.39831 C 128.86407 216.02272 126.88066 218.29485 124.25618 218.47293 C 121.63159 218.65116 119.35978 216.66771 119.18155 214.04323 C 119.00337 211.41881 120.98666 209.14679 123.61125 208.9686 C 123.77528 208.95746 123.93771 208.95496 124.09856 208.96033 z M 107.27737 209.09004 C 108.22218 209.02594 109.04003 209.74008 109.10413 210.68478 C 109.16833 211.62958 108.45409 212.44744 107.50939 212.51154 C 106.56468 212.57574 105.74673 211.8615 105.68263 210.9168 C 105.61853 209.9721 106.33267 209.15414 107.27737 209.09004 z M 194.67048 222.08098 C 195.37018 222.03348 195.97637 222.5625 196.02389 223.2623 C 196.07139 223.96211 195.54233 224.56767 194.84256 224.61519 C 194.14287 224.66269 193.53716 224.13418 193.48968 223.43439 C 193.44218 222.73462 193.97078 222.12846 194.67048 222.08098 z M 162.80886 229.89962 C 165.22164 229.98027 167.22912 231.8772 167.39618 234.3376 C 167.57426 236.96198 165.591 239.23362 162.96647 239.4117 C 160.34199 239.58992 158.07004 237.607 157.89185 234.98252 C 157.71373 232.3581 159.69655 230.08608 162.32104 229.90789 C 162.48507 229.89675 162.64801 229.89425 162.80886 229.89962 z M 19.441384 236.87956 C 20.141084 236.83196 20.746753 237.3606 20.794273 238.06037 C 20.841773 238.76018 20.313266 239.36576 19.613467 239.41325 C 18.913768 239.46075 18.308098 238.93215 18.260578 238.23245 C 18.213078 237.53265 18.741685 236.92708 19.441384 236.87956 z M 112.07552 239.24066 C 112.77522 239.19316 113.38089 239.72165 113.42841 240.42146 C 113.47591 241.12126 112.94731 241.72739 112.24761 241.77487 C 111.54791 241.82237 110.94168 241.29324 110.8942 240.59354 C 110.8467 239.89375 111.37571 239.28814 112.07552 239.24066 z M 195.79341 258.9702 C 198.20625 259.05086 200.21367 260.94772 200.38073 263.40817 C 200.55895 266.03256 198.57562 268.30461 195.95102 268.4828 C 193.32651 268.66098 191.05448 266.67751 190.8764 264.05309 C 190.69818 261.42872 192.68157 259.15658 195.3061 258.97847 C 195.47014 258.96733 195.63255 258.96482 195.79341 258.9702 z M 204.46937 278.05896 C 205.16906 278.01146 205.77477 278.54047 205.82226 279.24028 C 205.86976 279.94008 205.34126 280.54568 204.64145 280.59317 C 203.94176 280.64067 203.33563 280.11216 203.28804 279.41236 C 203.24054 278.71266 203.76956 278.10644 204.46937 278.05896 z "
         transform="translate(547.49736,-107.46105)" />
    </g>
  </g>
</svg>
