<?xml version="1.0" encoding="UTF-8" standalone="no"?>
<!-- Created with Inkscape (http://www.inkscape.org/) -->

<svg
   width="210mm"
   height="297mm"
   viewBox="0 0 210 297"
   version="1.1"
   id="svg3013"
   inkscape:version="1.2.1 (9c6d41e410, 2022-07-14, custom)"
   sodipodi:docname="strat-sss-11h_2.svg"
   xmlns:inkscape="http://www.inkscape.org/namespaces/inkscape"
   xmlns:sodipodi="http://sodipodi.sourceforge.net/DTD/sodipodi-0.dtd"
   xmlns="http://www.w3.org/2000/svg"
   xmlns:svg="http://www.w3.org/2000/svg">
  <sodipodi:namedview
     id="namedview3015"
     pagecolor="#505050"
     bordercolor="#ffffff"
     borderopacity="1"
     inkscape:showpageshadow="0"
     inkscape:pageopacity="0"
     inkscape:pagecheckerboard="1"
     inkscape:deskcolor="#505050"
     inkscape:document-units="mm"
     showgrid="false"
     inkscape:zoom="1.1893044"
     inkscape:cx="610.44086"
     inkscape:cy="558.30955"
     inkscape:current-layer="layer1" />
  <defs
     id="defs3010" />
  <g
     inkscape:label="Layer 1"
     inkscape:groupmode="layer"
     id="layer1">
    <g
       id="g580"
       transform="translate(-547.49793,107.46143)"
       style="fill:none;stroke:#040002;stroke-width:0.264583;stroke-dasharray:none;stroke-opacity:1">
      <path
         d="m 654.7746,101.62922 c 0.94481,-0.0641 1.76259,0.64967 1.82669,1.59437 0.0642,0.94481 -0.64968,1.76262 -1.59438,1.82672 -0.94471,0.0642 -1.76262,-0.64971 -1.82672,-1.59441 -0.0641,-0.9447 0.64971,-1.76258 1.59441,-1.82668 z"
         style="fill:none;fill-opacity:1;fill-rule:evenodd;stroke:#040002;stroke-width:0.264583;stroke-linecap:butt;stroke-linejoin:miter;stroke-miterlimit:22.9256;stroke-dasharray:none;stroke-opacity:1"
         id="path2350" />
      <path
         d="m 656.14811,38.392494 c 0.9447,-0.06421 1.76248,0.64971 1.82668,1.594414 0.0641,0.944704 -0.64971,1.762513 -1.59448,1.826683 -0.94471,0.0641 -1.76252,-0.649675 -1.82672,-1.594485 -0.0641,-0.944703 0.64981,-1.762513 1.59452,-1.826612 z"
         style="fill:none;fill-opacity:1;fill-rule:evenodd;stroke:#040002;stroke-width:0.264583;stroke-linecap:butt;stroke-linejoin:miter;stroke-miterlimit:22.9256;stroke-dasharray:none;stroke-opacity:1"
         id="path2352" />
      <path
         d="m 578.6374,37.939597 c 0.94471,-0.0641 1.76259,0.649711 1.82668,1.594415 0.0641,0.944809 -0.64967,1.762584 -1.59437,1.826683 -0.94481,0.06421 -1.76262,-0.649675 -1.82672,-1.594379 -0.0642,-0.944704 0.64971,-1.762619 1.59441,-1.826719 z"
         style="fill:none;fill-opacity:1;fill-rule:evenodd;stroke:#040002;stroke-width:0.264583;stroke-linecap:butt;stroke-linejoin:miter;stroke-miterlimit:22.9256;stroke-dasharray:none;stroke-opacity:1"
         id="path2354" />
      <path
         d="m 699.7997,66.277813 c 0.9797,-0.0665 1.82788,0.6737 1.89438,1.653399 0.0665,0.979699 -0.67377,1.827777 -1.65347,1.894311 -0.97973,0.0665 -1.82792,-0.6737 -1.89441,-1.653434 -0.0665,-0.97977 0.6738,-1.827777 1.6535,-1.894276 z"
         style="fill:none;fill-opacity:1;fill-rule:evenodd;stroke:#040002;stroke-width:0.264583;stroke-linecap:butt;stroke-linejoin:miter;stroke-miterlimit:22.9256;stroke-dasharray:none;stroke-opacity:1"
         id="path2362" />
      <path
         d="m 727.7119,96.770407 c 0.9797,-0.0666 1.82788,0.6737 1.89438,1.653399 0.0665,0.979699 -0.67377,1.827814 -1.6535,1.894314 -0.9797,0.0665 -1.82789,-0.673703 -1.89439,-1.653508 -0.0665,-0.979699 0.67381,-1.827706 1.65351,-1.894205 z"
         style="fill:none;fill-opacity:1;fill-rule:evenodd;stroke:#040002;stroke-width:0.264583;stroke-linecap:butt;stroke-linejoin:miter;stroke-miterlimit:22.9256;stroke-dasharray:none;stroke-opacity:1"
         id="path2364" />
      <path
         d="m 671.1085,101.50772 c 2.62449,-0.17822 4.89648,1.80499 5.0746,4.42937 0.17819,2.62442 -1.80492,4.89652 -4.42941,5.0746 -2.62459,0.17823 -4.89648,-1.80488 -5.07471,-4.42937 -0.17818,-2.62442 1.80492,-4.89641 4.42952,-5.0746 z"
         style="fill:none;fill-opacity:1;fill-rule:evenodd;stroke:#040002;stroke-width:0.264583;stroke-linecap:butt;stroke-linejoin:miter;stroke-miterlimit:22.9256;stroke-dasharray:none;stroke-opacity:1"
         id="path2366" />
      <path
         d="m 709.81859,122.44691 c 2.62449,-0.17822 4.89652,1.80499 5.07471,4.42941 0.17808,2.62439 -1.80499,4.89649 -4.42952,5.07457 -2.62449,0.17822 -4.89648,-1.80488 -5.07467,-4.42937 -0.17812,-2.62442 1.80499,-4.89642 4.42948,-5.07461 z"
         style="fill:none;fill-opacity:1;fill-rule:evenodd;stroke:#040002;stroke-width:0.264583;stroke-linecap:butt;stroke-linejoin:miter;stroke-miterlimit:22.9256;stroke-dasharray:none;stroke-opacity:1"
         id="path2368" />
      <path
         d="m 742.80331,151.5175 c 2.62459,-0.17819 4.89648,1.80491 5.07467,4.4294 0.17822,2.62439 -1.80488,4.89642 -4.42948,5.07461 -2.62452,0.17818 -4.89652,-1.80499 -5.0746,-4.42941 -0.17822,-2.62438 1.80488,-4.89649 4.42941,-5.0746 z"
         style="fill:none;fill-opacity:1;fill-rule:evenodd;stroke:#040002;stroke-width:0.264583;stroke-linecap:butt;stroke-linejoin:miter;stroke-miterlimit:22.9256;stroke-dasharray:none;stroke-opacity:1"
         id="path2370" />
      <path
         d="m 578.74359,87.864815 c 0.9447,-0.06421 1.76251,0.649675 1.82661,1.594379 0.0642,0.944703 -0.64971,1.762619 -1.59441,1.826718 -0.94467,0.0641 -1.76248,-0.64971 -1.82669,-1.594414 -0.0641,-0.94481 0.64971,-1.762584 1.59449,-1.826683 z"
         style="fill:none;fill-opacity:1;fill-rule:evenodd;stroke:#040002;stroke-width:0.264583;stroke-linecap:butt;stroke-linejoin:miter;stroke-miterlimit:22.9256;stroke-dasharray:none;stroke-opacity:1"
         id="path2372" />
      <path
         d="m 704.67078,74.601323 c -0.6405,-0.831603 0.35271,-1.788619 1.35672,-1.098833 l 16.66839,18.202205 c 0.59652,1.092306 -0.6484,1.813807 -1.4618,1.34112 z"
         style="fill:none;fill-opacity:1;fill-rule:evenodd;stroke:#040002;stroke-width:0.264583;stroke-linecap:butt;stroke-linejoin:miter;stroke-miterlimit:22.9256;stroke-dasharray:none;stroke-opacity:1"
         id="path2374" />
      <path
         d="m 751.96661,170.59812 c 0.69969,-0.0475 1.30548,0.48129 1.35297,1.1811 0.0475,0.6998 -0.48119,1.30559 -1.181,1.35308 -0.69969,0.0475 -1.30548,-0.4813 -1.35307,-1.1811 -0.0475,-0.6997 0.48129,-1.3056 1.1811,-1.35308 z"
         style="fill:none;fill-opacity:1;fill-rule:evenodd;stroke:#040002;stroke-width:0.264583;stroke-linecap:butt;stroke-linejoin:miter;stroke-miterlimit:22.9256;stroke-dasharray:none;stroke-opacity:1"
         id="path2376" />
      <path
         d="m 720.48839,64.289522 c 0.6997,-0.04752 1.30549,0.481295 1.35301,1.180994 0.0475,0.699806 -0.4813,1.305596 -1.181,1.35308 -0.6997,0.04752 -1.30559,-0.481189 -1.35311,-1.180995 -0.0475,-0.699805 0.48129,-1.305595 1.1811,-1.353079 z"
         style="fill:none;fill-opacity:1;fill-rule:evenodd;stroke:#040002;stroke-width:0.264583;stroke-linecap:butt;stroke-linejoin:miter;stroke-miterlimit:22.9256;stroke-dasharray:none;stroke-opacity:1"
         id="path2382" />
      <path
         d="m 742.16799,114.62001 c 0.6997,-0.0475 1.3056,0.48119 1.35312,1.18099 0.0475,0.69981 -0.48133,1.3056 -1.1811,1.35312 -0.6997,0.0475 -1.30553,-0.48123 -1.35301,-1.18103 -0.0475,-0.69977 0.48129,-1.3056 1.18099,-1.35308 z"
         style="fill:none;fill-opacity:1;fill-rule:evenodd;stroke:#040002;stroke-width:0.264583;stroke-linecap:butt;stroke-linejoin:miter;stroke-miterlimit:22.9256;stroke-dasharray:none;stroke-opacity:1"
         id="path2384" />
      <path
         d="m 659.5727,131.77962 c 0.6997,-0.0475 1.30549,0.48118 1.35301,1.18099 0.0475,0.6998 -0.4813,1.3056 -1.181,1.35308 -0.6997,0.0475 -1.30563,-0.4813 -1.35311,-1.181 -0.0475,-0.6998 0.48129,-1.30559 1.1811,-1.35307 z"
         style="fill:none;fill-opacity:1;fill-rule:evenodd;stroke:#040002;stroke-width:0.264583;stroke-linecap:butt;stroke-linejoin:miter;stroke-miterlimit:22.9256;stroke-dasharray:none;stroke-opacity:1"
         id="path2386" />
      <path
         d="m 566.93869,129.4183 c 0.6997,-0.0476 1.3056,0.48122 1.35312,1.18099 0.0475,0.69981 -0.4813,1.30563 -1.1811,1.35312 -0.6997,0.0475 -1.30549,-0.4813 -1.35301,-1.181 -0.0475,-0.6998 0.48129,-1.30559 1.18099,-1.35311 z"
         style="fill:none;fill-opacity:1;fill-rule:evenodd;stroke:#040002;stroke-width:0.264583;stroke-linecap:butt;stroke-linejoin:miter;stroke-miterlimit:22.9256;stroke-dasharray:none;stroke-opacity:1"
         id="path2388" />
      <path
         d="m 567.5134,27.060707 c 0.69981,-0.04748 1.3056,0.481189 1.35312,1.180994 0.0475,0.699805 -0.48133,1.305595 -1.18103,1.353114 -0.69977,0.04748 -1.3056,-0.481224 -1.35308,-1.180994 -0.0475,-0.699805 0.48129,-1.30563 1.18099,-1.353114 z"
         style="fill:none;fill-opacity:1;fill-rule:evenodd;stroke:#040002;stroke-width:0.264583;stroke-linecap:butt;stroke-linejoin:miter;stroke-miterlimit:22.9256;stroke-dasharray:none;stroke-opacity:1"
         id="path2392" />
      <path
         d="m 550.39049,77.92971 c 0.6998,-0.04752 1.30563,0.481295 1.35311,1.1811 0.0475,0.699806 -0.48129,1.305596 -1.18099,1.35308 -0.69981,0.04752 -1.3056,-0.481295 -1.35312,-1.1811 -0.0475,-0.6997 0.4813,-1.305596 1.181,-1.35308 z"
         style="fill:none;fill-opacity:1;fill-rule:evenodd;stroke:#040002;stroke-width:0.264583;stroke-linecap:butt;stroke-linejoin:miter;stroke-miterlimit:22.9256;stroke-dasharray:none;stroke-opacity:1"
         id="path2394" />
      <path
         d="m 590.8778,29.862397 53.03139,0.418218 c 4.99579,0.03941 9.04889,4.413886 9.00712,9.721286 v 0 c -0.0418,5.307401 -4.16352,9.617322 -9.15931,9.577987 L 590.72561,49.1616 c -4.99582,-0.0393 -9.04899,-4.413779 -9.00712,-9.72118 v 0 c 0.0418,-5.307401 4.16363,-9.617428 9.15931,-9.578023 z"
         style="fill:none;stroke:#040002;stroke-width:0.264583;stroke-linecap:butt;stroke-linejoin:miter;stroke-miterlimit:22.9256;stroke-dasharray:none;stroke-opacity:1"
         id="path2404" />
      <path
         d="m 592.50721,82.282212 52.1601,9.582609 c 4.9137,0.902687 8.14938,5.912273 7.19028,11.132399 v 0 c -0.95899,5.22019 -5.764,8.75259 -10.67759,7.8499 l -52.1601,-9.58282 c -4.91381,-0.90269 -8.14931,-5.9122 -7.19028,-11.132394 v 0 c 0.95899,-5.220194 5.76389,-8.752488 10.67759,-7.849694 z"
         style="fill:none;stroke:#040002;stroke-width:0.264583;stroke-linecap:butt;stroke-linejoin:miter;stroke-miterlimit:22.9256;stroke-dasharray:none;stroke-opacity:1"
         id="path2406" />
      <path
         d="m 31.66683,85.234544 c 0.9447,-0.0642 1.76262,0.64971 1.82672,1.59441 0.0641,0.9447 -0.64971,1.76258 -1.59452,1.82668 -0.94471,0.0641 -1.76248,-0.64967 -1.82658,-1.59438 -0.0642,-0.9448 0.64967,-1.76261 1.59438,-1.82671 z"
         style="fill:none;fill-opacity:1;fill-rule:evenodd;stroke:#040002;stroke-width:0.264583;stroke-linecap:butt;stroke-linejoin:miter;stroke-miterlimit:22.9256;stroke-dasharray:none;stroke-opacity:1"
         id="path1622"
         transform="translate(547.49736,-107.46105)" />
      <path
         d="m 109.16565,85.741834 c 0.94477,-0.0641 1.76258,0.64971 1.82668,1.59452 0.0642,0.9447 -0.64971,1.76248 -1.59438,1.82668 -0.9447,0.0641 -1.76262,-0.64967 -1.82672,-1.59448 -0.0641,-0.9447 0.64971,-1.76251 1.59442,-1.82672 z"
         style="fill:none;fill-opacity:1;fill-rule:evenodd;stroke:#040002;stroke-width:0.264583;stroke-linecap:butt;stroke-linejoin:miter;stroke-miterlimit:22.9256;stroke-dasharray:none;stroke-opacity:1"
         id="path1624"
         transform="translate(547.49736,-107.46105)" />
      <path
         d="m 105.76173,65.863546 c 0.6998,-0.0475 1.30559,0.4813 1.35311,1.1811 0.0475,0.69981 -0.48129,1.3056 -1.18099,1.35312 -0.69981,0.0475 -1.30563,-0.4813 -1.35312,-1.1811 -0.0475,-0.6997 0.4813,-1.3056 1.181,-1.35312 z"
         style="fill:none;fill-opacity:1;fill-rule:evenodd;stroke:#040002;stroke-width:0.264583;stroke-linecap:butt;stroke-linejoin:miter;stroke-miterlimit:22.9256;stroke-dasharray:none;stroke-opacity:1"
         id="path1626"
         transform="translate(547.49736,-107.46105)" />
      <path
         d="m 188.59892,17.820543 c 0.69981,-0.04748 1.3056,0.481295 1.35312,1.1811 0.0475,0.699805 -0.4813,1.305595 -1.181,1.353114 -0.6998,0.04748 -1.30559,-0.481294 -1.35311,-1.1811 -0.0475,-0.699699 0.48129,-1.305595 1.18099,-1.353114 z"
         style="fill:none;fill-opacity:1;fill-rule:evenodd;stroke:#040002;stroke-width:0.264583;stroke-linecap:butt;stroke-linejoin:miter;stroke-miterlimit:22.9256;stroke-dasharray:none;stroke-opacity:1"
         id="path1644"
         transform="translate(547.49736,-107.46105)" />
      <path
         d="m 181.04083,77.354966 c 0.69981,-0.0475 1.3056,0.4813 1.35308,1.181 0.0475,0.6998 -0.48129,1.30559 -1.18099,1.35308 -0.69981,0.0476 -1.3056,-0.48119 -1.35308,-1.181 -0.0475,-0.6998 0.48129,-1.30559 1.18099,-1.35308 z"
         style="fill:none;fill-opacity:1;fill-rule:evenodd;stroke:#040002;stroke-width:0.264583;stroke-linecap:butt;stroke-linejoin:miter;stroke-miterlimit:22.9256;stroke-dasharray:none;stroke-opacity:1"
         id="path1646"
         transform="translate(547.49736,-107.46105)" />
      <path
         d="m 25.81082,33.659136 c 0.6997,-0.04748 1.30553,0.481225 1.35301,1.18103 0.0476,0.69977 -0.48119,1.305595 -1.18099,1.353079 -0.6997,0.04752 -1.30549,-0.481189 -1.35312,-1.180994 -0.0475,-0.699805 0.48133,-1.305595 1.1811,-1.353115 z"
         style="fill:none;fill-opacity:1;fill-rule:evenodd;stroke:#040002;stroke-width:0.264583;stroke-linecap:butt;stroke-linejoin:miter;stroke-miterlimit:22.9256;stroke-dasharray:none;stroke-opacity:1"
         id="path1656"
         transform="translate(547.49736,-107.46105)" />
      <path
         id="path1662"
         style="fill:none;stroke:#040002;stroke-width:0.264583;stroke-linecap:butt;stroke-linejoin:miter;stroke-miterlimit:22.9256;stroke-dasharray:none;stroke-opacity:1"
         transform="translate(547.49736,-107.46105)"
         d="m 98.96804,57.543638 c -0.91101,3.482517 -2.1748,4.653598 -5.5329,5.574313 -15.46182,2.175505 -30.13692,2.543915 -45.88961,-0.521794 -3.18911,-0.736106 -4.70408,-3.599321 -4.76169,-6.041813 L 42.871925,32.547629 28.74394,26.071941 c -2.04191,-0.725276 -15.56399,-1.012296 -10.87519,17.382102 0.56769,1.953225 0.89528,3.922818 1.35319,5.883416 3.09851,12.47641 3.5759,25.065814 3.10991,37.654301 -0.21731,12.744803 -1.89152,24.37141 -5.28662,36.22781 -3.34469,11.96118 -8.46578,22.63119 -13.26797,34.17178 -4.02583,9.58261 -7.09172,19.91039 -8.85793,30.249 -3.70117,16.59682 -0.3736,36.12611 9.17081,48.83609 5.22629,5.64952 12.64461,11.7651 26.86076,11.26747 l -0.08175,-10.7963 c 0.1553,-3.45289 1.79991,-5.05831 6.09759,-4.8955 l 65.92617,0.009 c 2.43989,0.35675 3.85962,1.98804 4.05993,4.75463 l 0.0654,10.97895 c 14.15525,0.16255 29.89186,0.47356 41.79066,6.21925 10.83039,5.22983 14.90447,9.68333 22.8805,16.38402 7.9478,6.67689 19.18007,16.21349 24.76267,19.1383 7.9092,4.1437 19.98369,-0.4778 20.1077,-13.12079 -0.16528,-5.94251 -1.11799,-12.20572 -2.31327,-18.01333 -2.66933,-11.5746 -7.08241,-23.2259 -11.01842,-34.32478 -3.7339,-10.3548 -8.04509,-19.64821 -12.66221,-29.61831 -6.02139,-12.79761 -11.74087,-25.45168 -15.30238,-39.32551 -2.7451,-13.64777 -3.07572,-24.06657 -0.31111,-36.9194 2.51612,-10.45439 7.15832,-20.20887 11.14492,-30.048689 7.53149,-15.666085 12.56668,-29.936898 13.1898,-48.081882 0.14019,-4.082627 -0.39663,-8.087607 -0.91941,-11.71441 -0.3851,-2.672221 -0.82582,-4.469412 -1.61262,-7.584404 -1.01738,-4.028405 -2.33419,-7.059789 -3.70219,-9.4627 -0.94269,-1.656186 -1.85808,-3.143391 -3.16639,-4.263815 -2.08552,-1.7859 -4.1957,-1.19507 -5.1664,0.657227 -0.0342,0.0654 -0.0604,0.136278 -0.0887,0.206586 -0.4493,1.117988 -0.39638,0.998997 -0.47597,1.282312 -0.45431,1.613394 -0.25591,0.857674 -0.453,1.599601 -0.83803,3.154186 -1.40931,6.953673 -1.90892,9.13638 -2.86988,12.537016 -6.02317,22.876485 -15.40808,32.135808 -19.94028,19.480097 -41.38839,18.326257 -66.35382,5.684607 -0.0218,-0.01102 -0.542307,-0.317221 -0.97931,-0.568474 z"
         sodipodi:nodetypes="cccccccccccccccccccscscccccccsccccccccccscc" />
      <path
         d="m 44.11784,77.430466 53.03138,0.41818 c 4.99573,0.0394 9.049,4.41392 9.00702,9.721208 v 0 c -0.0418,5.30751 -4.16341,9.6175 -9.15931,9.5781 l -53.03128,-0.41822 c -4.99583,-0.0394 -9.049,-4.41389 -9.00712,-9.72129 v 0 c 0.0419,-5.307398 4.16352,-9.617388 9.15931,-9.577978 z"
         style="fill:none;stroke:#040002;stroke-width:0.264583;stroke-linecap:butt;stroke-linejoin:miter;stroke-miterlimit:22.9256;stroke-dasharray:none;stroke-opacity:1"
         id="path1668"
         transform="translate(547.49736,-107.46105)" />
    </g>
  </g>
</svg>
