<?xml version="1.0" encoding="UTF-8" standalone="no"?>
<svg
   viewBox="0 0 1133.8597 680.31582"
   width="300mm"
   height="180mm"
   version="1.1"
   id="svg294"
   sodipodi:docname="strat-sss-11h.svg"
   inkscape:version="1.2.1 (9c6d41e410, 2022-07-14)"
   xmlns:inkscape="http://www.inkscape.org/namespaces/inkscape"
   xmlns:sodipodi="http://sodipodi.sourceforge.net/DTD/sodipodi-0.dtd"
   xmlns="http://www.w3.org/2000/svg"
   xmlns:svg="http://www.w3.org/2000/svg">
  <sodipodi:namedview
     id="namedview296"
     pagecolor="#505050"
     bordercolor="#ffffff"
     borderopacity="1"
     inkscape:showpageshadow="0"
     inkscape:pageopacity="0"
     inkscape:pagecheckerboard="1"
     inkscape:deskcolor="#505050"
     showgrid="false"
     inkscape:zoom="2"
     inkscape:cx="-132"
     inkscape:cy="185"
     inkscape:current-layer="g908"
     inkscape:document-units="mm" />
  <desc
     id="desc39">Strat Pickguard 11 holes.DXF - scale = 25.400000, origin = (0.000000, 0.000000), method = file</desc>
  <defs
     id="defs54">
    <marker
       id="DistanceX"
       orient="auto"
       refX="0"
       refY="0"
       style="overflow:visible">
      <path
         d="M 3,-3 -3,3 M 0,-5 V 5"
         style="stroke:#000000;stroke-width:0.5"
         id="path41" />
    </marker>
    <pattern
       id="Hatch"
       patternUnits="userSpaceOnUse"
       width="8"
       height="8"
       x="0"
       y="0">
      <path
         d="M8 4 l-4,4"
         stroke="#000000"
         stroke-width="0.25"
         linecap="square"
         id="path44" />
      <path
         d="M6 2 l-4,4"
         stroke="#000000"
         stroke-width="0.25"
         linecap="square"
         id="path46" />
      <path
         d="M4 0 l-4,4"
         stroke="#000000"
         stroke-width="0.25"
         linecap="square"
         id="path48" />
    </pattern>
    <symbol
       id="*Model_Space" />
    <symbol
       id="*Paper_Space" />
    <symbol
       id="*Paper_Space0" />
  </defs>
  <g
     inkscape:groupmode="layer"
     inkscape:label="0"
     id="g292">
    <g
       id="g2353"
       inkscape:label="Contour"
       transform="translate(-789.65078,-427.47282)"
       style="display:inline">
      <path
         id="path214"
         style="display:inline;fill:none;stroke:#000000;stroke-width:1;stroke-linecap:round;stroke-dasharray:none;stroke-opacity:1"
         d="m 429.70687,310.76561 a 10.298351,10.298351 0 0 0 -10.29835,-10.29835 m 0,245.48182 a 10.298351,10.298351 0 0 0 10.29835,-10.29835 M 382.09426,300.46711 h 37.30055 M 419.409,545.949 H 390.72 M 429.707,310.766 V 535.651 M 1004.19,332.606 h 69.58 m 7.9899,0.42813 c -2.6612,-0.14255 -5.3258,-0.28528 -7.9939,-0.42821 M 382.09604,300.46246 c 0,-8.82394 -0.853,-17.32187 -0.0859,-26.19112 0.6956,-8.04286 2.72344,-15.98309 5.81441,-23.49189 4.89785,-11.89821 12.46505,-22.71313 21.87425,-31.71985 11.04101,-10.56873 24.61833,-18.64771 37.81076,-24.65991 10.18211,-4.64029 20.13496,-8.04942 31.19091,-10.62897 19.84371,-4.62988 43.24106,-6.58734 64.15891,-6.37716 12.93896,0.13001 24.92922,1.08939 37.45867,3.14595 11.73309,1.92584 23.93901,4.81381 35.77727,8.05251 11.78541,3.22425 23.20643,6.79612 34.73834,10.88292 18.20259,6.45082 36.68148,14.18462 54.12796,21.14712 12.29363,4.90611 24.07463,9.42925 36.24633,13.83656 14.49047,5.24692 29.53466,10.32968 45.12205,14.87925 14.29838,4.17333 29.05382,7.89801 43.49717,10.65449 21.10496,4.02783 41.54355,5.9884 62.40781,6.42349 20.60826,0.42975 41.63182,-0.62878 62.98955,-2.81757 18.97608,-1.9447 38.21595,-4.78165 55.92287,-8.08339 6.9544,-1.29676 13.6723,-2.66521 20.6343,-4.33633 10.3026,-2.47297 21.1396,-5.60875 31.7141,-7.23701 3.8412,-0.59147 7.6478,-0.98402 11.5022,-0.66922 4.3092,0.35194 8.6782,1.58802 12.766,4.07263 3.0475,1.85227 5.9387,4.39844 8.0892,6.98472 2.6695,3.21036 4.1978,6.48252 5.264,10.16703 1.078,3.72566 1.6836,7.87293 1.4163,11.98315 -0.3517,5.40728 -2.2141,10.75041 -4.2659,15.89432 -2.5032,6.27567 -5.2881,12.2548 -7.8852,18.33449 -3.1338,7.33592 -5.9941,14.81824 -8.6225,22.32546 M 998.82051,512.2951 c -3.00062,-0.77939 -5.48889,-1.8066 -7.80921,-3.36878 -2.02419,-1.36281 -3.92056,-3.13276 -5.11082,-5.30112 -1.124,-2.04765 -1.61832,-4.45059 -2.08118,-6.92425 -2.44767,-13.08097 -4.01574,-28.13969 -5.15396,-41.09534 -1.1483,-13.07035 -1.85911,-24.00024 -1.78188,-36.01486 0.11575,-18.00792 2.00182,-38.45269 4.96096,-59.08341 0.74958,-5.22594 1.56801,-10.46382 2.56904,-14.16247 0.49157,-1.81628 1.02717,-3.26138 2.14273,-4.92288 1.74767,-2.60295 4.91873,-5.73701 8.25143,-7.33417 2.32957,-1.11642 4.73813,-1.4819 9.38348,-1.4819 M 383.12,545.95859 c 2.53002,-0.003 5.06336,-0.006 7.60001,-0.01 m 615.68709,-32.06558 c -4.1226,12.74703 -11.53601,28.89852 -17.66834,44.11092 -9.22504,22.88448 -15.55101,43.64378 -14.87593,66.14854 0.42513,14.17243 3.62679,29.03709 8.51859,43.19716 10.22694,29.60347 27.84098,56.12738 52.32648,74.93086 23.2163,17.82885 52.6102,28.71687 81.437,35.3331 12.266,2.81524 24.4293,4.85706 36.3519,6.85574 3.5899,0.60181 7.158,1.1997 10.9249,2.38011 2.5043,0.78475 5.0965,1.82696 6.9569,3.53504 1.3221,1.21374 2.2747,2.76371 2.7889,4.54309 0.5137,1.7773 0.5901,3.78348 0.065,5.62874 -1.1543,4.05493 -5.2139,7.33282 -9.2827,10.26693 -29.2653,21.10377 -59.0082,24.4233 -87.0183,24.96852 -35.8541,0.69791 -68.8688,-3.14994 -101.50676,-12.27637 -14.56299,-4.0722 -29.05098,-9.19533 -43.6231,-14.86359 -16.41235,-6.38407 -32.93143,-13.45965 -48.7118,-20.11695 -22.38391,-9.44316 -43.28151,-18.04475 -67.5575,-24.12973 -29.47486,-7.38814 -63.93007,-11.06636 -96.37806,-7.13745 -32.72021,3.96186 -63.39939,15.65904 -92.46793,27.95721 -38.95355,16.48027 -75.01478,34.03977 -107.17613,48.73712 -21.45046,9.8026 -41.16609,18.33199 -67.16016,27.71983 -14.1127,5.09684 -30.07604,10.44672 -47.51437,16.54714 -51.91895,18.16274 -116.91257,42.97857 -147.47395,13.61838 -5.4418,-5.22791 -9.7919,-12.17353 -12.16104,-20.7036 -1.80493,-6.49865 -2.46009,-13.91694 -1.07552,-20.81823 1.81011,-9.02239 7.10643,-17.16114 12.10923,-24.48005 18.0737,-26.44119 32.31639,-42.18214 47.38718,-59.13987 15.99479,-17.99743 32.92233,-37.36542 46.72686,-58.417 7.91304,-12.06719 14.79991,-24.68759 20.13832,-41.38071 5.3469,-16.71967 9.14039,-37.52504 10.97368,-61.18146 1.40795,-18.16787 1.65975,-38.01732 1.65975,-59.75784 M 998.82051,512.2951 c 0.30972,0.0871 0.61937,0.17415 0.93036,0.25629 0.31183,0.0824 0.62503,0.15977 0.93883,0.23429 0.3148,0.0747 0.6303,0.14656 0.9465,0.21556 0.317,0.0692 0.6346,0.13552 0.9527,0.1997 0.625,0.1261 1.2516,0.24385 1.8796,0.35475 0.6453,0.11395 1.2921,0.22066 1.9386,0.32732" />
      <path
         id="path1138"
         style="display:inline;fill:none;stroke:#000000;stroke-width:1;stroke-linecap:round;stroke-dasharray:none;stroke-opacity:1"
         transform="translate(4.3744885e-6)"
         d="m 937.88576,781.50291 a 5.14412,5.14412 0 0 0 -10.28824,0 5.14412,5.14412 0 0 0 10.28824,0 z M 1076.533,273.99972 a 5.14415,5.14415 0 0 0 -10.2883,0 5.14415,5.14415 0 0 0 10.2883,0 z M 415.55116,260.72519 a 5.14412,5.14412 0 0 0 -10.28824,0 5.14412,5.14412 0 0 0 10.28824,0 z m 332.67247,-0.95904 a 5.14412,5.14412 0 0 0 -10.28824,0 5.14412,5.14412 0 0 0 10.28824,0 z M 582.3785,205.65723 a 5.14412,5.14412 0 0 0 -10.28824,0 5.14412,5.14412 0 0 0 10.28824,0 z M 974.22586,536.1709 a 5.144118,5.144118 0 0 0 -10.28823,0 5.144118,5.144118 0 0 0 10.28823,0 z m 157.68274,267.07628 a 5.144118,5.144118 0 0 0 -10.2882,0 5.144118,5.144118 0 0 0 10.2882,0 z M 631.44087,758.44403 a 5.14412,5.14412 0 0 0 -10.28824,0 5.14412,5.14412 0 0 0 10.28824,0 z m -162.12848,73.0879 a 5.14412,5.14412 0 0 0 -10.28824,0 5.14412,5.14412 0 0 0 10.28824,0 z M 287.2978,865.20168 a 5.14412,5.14412 0 0 0 -10.28824,0 5.14412,5.14412 0 0 0 10.28824,0 z M 410.9117,563.98385 a 5.144118,5.144118 0 0 0 -10.28823,0 5.144118,5.144118 0 0 0 10.28823,0 z" />
    </g>
    <g
       id="g1017"
       inkscape:label="Pots">
      <path
         d="m 508.66999,600.61179 a 15.447526,15.447526 0 0 0 -30.89505,0 15.447526,15.447526 0 0 0 30.89505,0 z"
         style="display:inline;fill:none;stroke:#000000;stroke-width:1;stroke-linecap:round;stroke-dasharray:none;stroke-opacity:1"
         id="path1005"
         transform="translate(-789.65078,-427.47282)" />
      <path
         d="m 441.33575,727.62613 a 15.44753,15.44753 0 0 0 -30.89506,0 15.44753,15.44753 0 0 0 30.89506,0 z"
         style="display:inline;fill:none;stroke:#000000;stroke-width:1;stroke-linecap:round;stroke-dasharray:none;stroke-opacity:1"
         id="path1007"
         transform="translate(-789.65078,-427.47282)" />
      <path
         d="m 347.03765,836.43335 a 15.447526,15.447526 0 0 0 -30.89505,0 15.447526,15.447526 0 0 0 30.89505,0 z"
         style="display:inline;fill:none;stroke:#000000;stroke-width:1;stroke-linecap:round;stroke-dasharray:none;stroke-opacity:1"
         id="path1009"
         transform="translate(-789.65078,-427.47282)" />
    </g>
    <g
       id="g908"
       inkscape:label="selector">
      <path
         id="path898"
         style="display:inline;fill:none;stroke:#000000;stroke-width:1;stroke-linecap:round;stroke-dasharray:none;stroke-opacity:1"
         transform="translate(-789.65078,-427.47282)"
         d="m 536.58319,762.65646 a 2.574588,2.574588 0 0 0 3.48077,3.7945 m 60.71202,-55.69232 a 2.5745905,2.5745905 0 0 0 -3.48077,-3.79451 M 540.064,766.451 600.776,710.759 m -3.481,-3.795 -60.712,55.692" />
      <path
         d="m 524.30817,782.13376 a 5.14918,5.14918 0 0 0 -10.29836,0 5.14918,5.14918 0 0 0 10.29836,0 z"
         style="display:inline;fill:none;stroke:#000000;stroke-width:1;stroke-linecap:round;stroke-dasharray:none;stroke-opacity:1"
         id="path1402"
         transform="translate(-789.65078,-427.47282)" />
      <path
         d="m 623.34936,691.28134 a 5.1491755,5.1491755 0 0 0 -10.29835,0 5.1491755,5.1491755 0 0 0 10.29835,0 z"
         style="display:inline;fill:none;stroke:#000000;stroke-width:1;stroke-linecap:round;stroke-dasharray:none;stroke-opacity:1"
         id="path1404"
         transform="translate(-789.65078,-427.47282)" />
    </g>
    <g
       id="g3803"
       transform="translate(-789.65078,-427.47282)"
       inkscape:label="Pickups"
       style="display:inline">
      <path
         id="path845"
         style="display:inline;fill:none;stroke:#000000;stroke-width:1;stroke-linecap:round;stroke-dasharray:none;stroke-opacity:1"
         transform="translate(4.3744885e-6)"
         d="m 506.84888,547.41353 a 5.1491755,5.1491755 0 0 0 -10.29835,0 5.1491755,5.1491755 0 0 0 10.29835,0 z m 43.78237,-248.41071 a 5.1491755,5.1491755 0 0 0 -10.29835,0 5.1491755,5.1491755 0 0 0 10.29835,0 z"
         inkscape:label="bridge holes" />
      <path
         id="path1142"
         style="display:inline;fill:none;stroke:#000000;stroke-width:1;stroke-linecap:round;stroke-dasharray:none;stroke-opacity:1"
         transform="translate(4.3744885e-6)"
         d="m 480.00617,503.65093 a 28.960312,28.960312 0 0 0 57.04143,10.05355 m 30.128,-170.93907 A 28.960311,28.960311 0 0 0 510.13417,332.71187 M 537.048,513.704 567.176,342.765 m -57.042,-10.053 -30.128,170.939"
         inkscape:label="bridge" />
      <path
         id="path856"
         style="display:inline;fill:none;stroke:#000000;stroke-width:1;stroke-linecap:round;stroke-dasharray:none;stroke-opacity:1"
         transform="translate(4.3744885e-6)"
         d="m 909.32048,549.53806 a 5.1491755,5.1491755 0 0 0 -10.29835,0 5.1491755,5.1491755 0 0 0 10.29835,0 z m 0,-252.65977 a 5.1491755,5.1491755 0 0 0 -10.29835,0 5.1491755,5.1491755 0 0 0 10.29835,0 z"
         inkscape:label="middle holes" />
      <path
         id="path1125"
         style="display:inline;fill:none;stroke:#000000;stroke-width:1;stroke-linecap:round;stroke-dasharray:none;stroke-opacity:1"
         transform="translate(4.3744885e-6)"
         d="m 874.46234,508.39506 a 29.708965,29.708965 0 0 0 59.41793,0 m 0,-170.37377 a 29.708965,29.708965 0 0 0 -59.41793,0 M 933.88,508.395 V 338.021 m -59.418,0 v 170.374"
         inkscape:label="middle" />
      <path
         id="path852"
         style="display:inline;fill:none;stroke:#000000;stroke-width:1;stroke-linecap:round;stroke-dasharray:none;stroke-opacity:1"
         transform="translate(4.3744885e-6)"
         d="m 713.63226,296.70157 a 5.149175,5.149175 0 0 0 -10.29835,0 5.149175,5.149175 0 0 0 10.29835,0 z m 0,253.0132 a 5.149175,5.149175 0 0 0 -10.29835,0 5.149175,5.149175 0 0 0 10.29835,0 z"
         inkscape:label="middle holes" />
      <path
         id="path1129"
         style="display:inline;fill:none;stroke:#000000;stroke-width:1;stroke-linecap:round;stroke-dasharray:none;stroke-opacity:1"
         transform="translate(4.3744885e-6)"
         d="m 678.8597,508.39506 a 29.623385,29.623385 0 0 0 59.24677,0 m 0,-170.37377 a 29.623385,29.623385 0 0 0 -59.24677,0 M 738.106,508.395 V 338.021 m -59.246,0 v 170.374"
         inkscape:label="middle" />
    </g>
    <g
       id="g2739"
       inkscape:label="Base template"
       transform="translate(-789.65078,-427.47282)"
       style="display:none">
      <path
         d="m 390.72001,545.94908 c -0.002,2.40894 -0.004,4.81787 -0.0109,7.22678 -0.006,2.14689 -0.0169,4.29376 -0.032,6.44061 -0.0322,4.55304 -0.0853,9.10597 -0.17248,13.65831 -0.087,4.54603 -0.20796,9.09147 -0.37817,13.63523 -0.16994,4.53651 -0.389,9.07135 -0.67607,13.6019 -0.14338,2.26279 -0.30373,4.5245 -0.48364,6.78466 -0.17981,2.25893 -0.37916,4.5163 -0.59891,6.77175 -0.43938,4.50975 -0.96031,9.01183 -1.57301,13.50153 -0.61333,4.49438 -1.31862,8.97636 -2.13016,13.43921 -0.81426,4.47789 -1.73548,8.93652 -2.78393,13.36595 -1.05597,4.4612 -2.241,8.89276 -3.58785,13.27439 -0.67273,2.18853 -1.38583,4.3646 -2.14275,6.52538 -0.75121,2.14448 -1.54558,4.27391 -2.38409,6.38582 -0.8334,2.09903 -1.71039,4.18076 -2.63094,6.24306 -0.91651,2.05325 -1.87619,4.08723 -2.87737,6.10055 -0.9986,2.00812 -2.03848,3.99568 -3.11607,5.9625 -1.07662,1.96506 -2.19088,3.90942 -3.3374,5.83452 -2.29512,3.85367 -4.71953,7.63016 -7.2271,11.34964 -2.51553,3.73128 -5.11476,7.4052 -7.78318,11.02806 -2.6796,3.63803 -5.42897,7.22458 -8.23147,10.76884 -2.81321,3.55783 -5.67995,7.07305 -8.58596,10.55534 -2.90689,3.48336 -5.85308,6.93377 -8.82448,10.36221 -2.97177,3.42886 -5.96875,6.83574 -8.97723,10.23238 -1.50438,1.69849 -3.01165,3.39442 -4.51938,5.08993 -1.50775,1.69552 -3.01597,3.39062 -4.52123,5.08836 -1.50515,1.69764 -3.00734,3.39791 -4.50331,5.10365 -1.49583,1.70557 -2.98543,3.4166 -4.46564,5.1358 -2.96039,3.43837 -5.88319,6.90942 -8.75271,10.42408 -2.87123,3.51675 -5.68912,7.07717 -8.44972,10.68148 -2.75908,3.60234 -5.46093,7.24852 -8.10921,10.93298 -1.32324,1.84098 -2.6331,3.69151 -3.93002,5.55107 -0.64837,0.92965 -1.2935,1.86155 -1.93602,2.79525 -0.64249,0.93366 -1.28238,1.86912 -1.9166,2.80843 -0.63426,0.93936 -1.26286,1.88258 -1.87975,2.83347 -0.61724,0.95143 -1.22274,1.91055 -1.81046,2.88054 -0.58889,0.97196 -1.15992,1.95485 -1.7056,2.9518 -0.54847,1.00205 -1.07133,2.0183 -1.55907,3.05136 -0.48774,1.03305 -0.94037,2.08291 -1.34575,3.15127 -0.40231,1.06024 -0.75809,2.1387 -1.05279,3.23351 -0.14733,0.54735 -0.2794,1.09879 -0.39414,1.65382 -0.11522,0.55737 -0.21298,1.11836 -0.29437,1.68177 -0.16424,1.13683 -0.26186,2.28351 -0.30192,3.43176 -0.0398,1.1416 -0.0228,2.28475 0.0448,3.4248 0.0674,1.13747 0.18503,2.27186 0.34884,3.3995 0.16464,1.1333 0.37592,2.25978 0.6317,3.3759 0.25592,1.11677 0.55639,2.22316 0.90272,3.31577 0.68731,2.16832 1.55527,4.28236 2.60886,6.301 1.0597,2.03035 2.30718,3.96418 3.72766,5.75797 0.70414,0.8892 1.45079,1.74399 2.23717,2.56056 0.78771,0.81796 1.61529,1.59756 2.48039,2.33419 1.74374,1.48481 3.63991,2.79503 5.6393,3.91557 1.99313,1.11703 4.08883,2.04557 6.24143,2.80769 2.15551,0.76315 4.36807,1.35943 6.60705,1.81985 2.14001,0.44005 4.30416,0.75599 6.47753,0.97267 2.35765,0.23505 4.72616,0.35329 7.09532,0.38084 4.53428,0.0527 9.07095,-0.22679 13.58006,-0.71941 4.48143,-0.48959 8.93564,-1.18968 13.36181,-2.0333 4.432,-0.84473 8.8359,-1.83337 13.21418,-2.92226 4.39369,-1.09271 8.7616,-2.28639 13.10869,-3.5507 4.3462,-1.26404 8.6716,-2.59869 12.98156,-3.98097 4.30385,-1.38031 8.5923,-2.8081 12.87103,-4.2642 2.13825,-0.72768 4.27407,-1.46242 6.40823,-2.20195 2.13379,-0.73941 4.26592,-1.48361 6.39718,-2.23026 2.13109,-0.74659 4.26132,-1.49563 6.39149,-2.24481 2.13018,-0.74918 4.26032,-1.49849 6.39149,-2.24483 4.26285,-1.49286 8.52987,-2.97382 12.79904,-4.44852 2.13479,-0.73742 4.27012,-1.47328 6.40553,-2.20888 2.13544,-0.73561 4.27096,-1.47096 6.40615,-2.20729 2.13511,-0.73629 4.26988,-1.47357 6.40372,-2.2135 2.13365,-0.73986 4.26637,-1.48239 6.39755,-2.2293 2.13088,-0.74681 4.26021,-1.49801 6.38709,-2.25611 2.12647,-0.75796 4.25049,-1.52282 6.37133,-2.29644 4.24061,-1.54686 8.46852,-3.12876 12.68194,-4.74833 4.21304,-1.61942 8.4116,-3.27651 12.59455,-4.97211 4.1839,-1.69599 8.35219,-3.4305 12.50567,-5.19966 4.15552,-1.77003 8.29621,-3.57474 12.42509,-5.40598 4.1312,-1.83226 8.25057,-3.69108 12.36274,-5.56563 4.11395,-1.87537 8.22069,-3.76649 12.32355,-5.66597 4.10391,-1.89996 8.20395,-3.80829 12.30269,-5.71937 2.04956,-0.95563 4.09878,-1.91195 6.14798,-2.86833 2.0492,-0.95638 4.09838,-1.91282 6.1478,-2.86873 4.09862,-1.9117 8.19824,-3.82123 12.30074,-5.7246 4.10153,-1.90292 8.20593,-3.79968 12.31497,-5.6863 4.10731,-1.88583 8.21927,-3.76152 12.33733,-5.62386 8.22914,-3.72153 16.48265,-7.38974 24.77053,-10.97842 2.07039,-0.89649 4.14292,-1.78801 6.21759,-2.67451 2.07403,-0.88622 4.1502,-1.76743 6.229,-2.64246 4.15533,-1.74909 8.32114,-3.47348 12.5037,-5.15655 4.17933,-1.68176 8.37538,-3.32227 12.59318,-4.90524 4.21599,-1.58228 8.45373,-3.10708 12.71679,-4.55805 4.26532,-1.45173 8.55599,-2.82955 12.87392,-4.11671 4.32767,-1.29006 8.68272,-2.48904 13.06494,-3.58017 4.40378,-1.0965 8.83499,-2.08407 13.2905,-2.94666 4.49429,-0.87009 9.0133,-1.61302 13.55261,-2.21055 9.07442,-1.19452 18.23001,-1.80801 27.38294,-1.92689 4.53773,-0.0589 9.07482,0.004 13.60799,0.17857 4.52474,0.17456 9.04559,0.46095 13.55707,0.85269 4.51378,0.39195 9.01818,0.88935 13.50916,1.48763 4.50261,0.59982 8.99173,1.30105 13.46298,2.10147 3.59129,0.64289 7.17106,1.34978 10.73696,2.1206 2.686,0.58062 5.36413,1.19753 8.0332,1.85142 2.67644,0.6557 5.34377,1.3486 8.00121,2.07778 4.4175,1.21213 8.80767,2.52452 13.16913,3.92539 4.35346,1.39829 8.67832,2.88474 12.97742,4.44174 4.29776,1.55652 8.56978,3.18356 12.82237,4.85924 2.12691,0.83808 4.24897,1.68833 6.36727,2.54784 2.11885,0.85974 4.23394,1.72873 6.34639,2.60408 2.11292,0.87554 4.2232,1.75743 6.33201,2.64281 2.1091,0.88551 4.21674,1.77451 6.32394,2.66452 2.10732,0.89006 4.2142,1.78112 6.32121,2.67189 2.10699,0.89076 4.21411,1.78123 6.32197,2.66992 4.21454,1.77689 8.43207,3.54671 12.65709,5.29853 4.22071,1.75002 8.44891,3.48209 12.68896,5.18478 4.23358,1.7001 8.47898,3.37091 12.74074,4.99919 4.25388,1.62527 8.52407,3.20815 12.81487,4.73343 4.28291,1.52247 8.58636,2.98755 12.91376,4.37887 4.32181,1.38953 8.66751,2.70549 13.03901,3.92985 4.37143,1.22434 8.76867,2.35708 13.18807,3.39539 4.4272,1.04013 8.87671,1.98549 13.34431,2.8353 4.4838,0.85287 8.9859,1.60951 13.5017,2.27098 4.5402,0.66502 9.0943,1.23384 13.6586,1.70925 9.1836,0.95654 18.4086,1.53491 27.6389,1.77402 4.6049,0.11929 9.2111,0.15415 13.8167,0.1131 2.3011,-0.0205 4.602,-0.06 6.9025,-0.12047 2.3001,-0.0605 4.5998,-0.14199 6.8981,-0.25355 2.2993,-0.11162 4.5972,-0.25332 6.8923,-0.43242 2.2985,-0.17937 4.5942,-0.39625 6.8849,-0.65801 2.2981,-0.26259 4.5911,-0.57035 6.876,-0.92973 2.2969,-0.36129 4.5856,-0.77475 6.8629,-1.24663 4.5322,-0.93912 9.0194,-2.10964 13.4227,-3.54006 4.3923,-1.42682 8.701,-3.11224 12.8908,-5.0558 4.2231,-1.95908 8.3253,-4.18045 12.2788,-6.636 1.978,-1.22857 3.9187,-2.51576 5.822,-3.85594 0.4764,-0.33546 0.9504,-0.67424 1.4218,-1.01673 0.4719,-0.34287 0.9411,-0.68946 1.4048,-1.04345 0.4635,-0.3539 0.9215,-0.71521 1.3695,-1.08852 0.4477,-0.37295 0.8856,-0.75789 1.3055,-1.16217 0.4211,-0.4054 0.8241,-0.83025 1.1841,-1.29203 0.1802,-0.2311 0.3496,-0.47145 0.4866,-0.72975 0.034,-0.0648 0.067,-0.13062 0.095,-0.19819 0.014,-0.0337 0.027,-0.0678 0.038,-0.1026 0.011,-0.0344 0.019,-0.0695 0.026,-0.10489 0.014,-0.0709 0.021,-0.14284 0.024,-0.2149 0,-0.0726 0,-0.1453 -8e-4,-0.21785 -0.01,-0.14369 -0.027,-0.28683 -0.058,-0.42752 -0.031,-0.14153 -0.074,-0.28058 -0.132,-0.41351 -0.058,-0.13273 -0.1323,-0.25935 -0.2246,-0.37071 -0.046,-0.0557 -0.097,-0.1075 -0.1505,-0.15578 -0.054,-0.0483 -0.1107,-0.0931 -0.1688,-0.13623 -0.2313,-0.17174 -0.4813,-0.31728 -0.7369,-0.45081 -0.2548,-0.13311 -0.5152,-0.25428 -0.7789,-0.36761 -0.5282,-0.227 -1.0699,-0.42254 -1.6159,-0.60386 -0.5441,-0.18068 -1.0923,-0.34724 -1.6438,-0.50266 -1.1019,-0.31054 -2.2165,-0.57663 -3.337,-0.81238 -0.561,-0.11805 -1.1235,-0.22849 -1.6869,-0.33398 -0.5641,-0.10559 -1.129,-0.20622 -1.6944,-0.30418 -0.5655,-0.098 -1.1315,-0.19325 -1.6975,-0.28829 -0.566,-0.095 -1.132,-0.18984 -1.6981,-0.28474 -2.2641,-0.37956 -4.5279,-0.76064 -6.7908,-1.14752 -2.2628,-0.38686 -4.5245,-0.77953 -6.7845,-1.18261 -2.2598,-0.40307 -4.5178,-0.81656 -6.7731,-1.24469 -2.2555,-0.42817 -4.5083,-0.87098 -6.7572,-1.33226 -2.2488,-0.46125 -4.4937,-0.94097 -6.7339,-1.44329 -8.9177,-1.99958 -17.7607,-4.35736 -26.4645,-7.15434 -8.6871,-2.79158 -17.2355,-6.02065 -25.5502,-9.78974 -8.3581,-3.78876 -16.48,-8.12319 -24.1824,-13.10342 -3.8237,-2.47229 -7.5439,-5.10373 -11.1343,-7.90269 -3.5935,-2.80141 -7.0568,-5.77065 -10.3795,-8.88916 -3.3518,-3.1459 -6.5606,-6.44372 -9.619,-9.87527 -3.0514,-3.42374 -5.9533,-6.98061 -8.7013,-10.65224 -2.733,-3.65144 -5.31389,-7.41637 -7.74075,-11.27785 -2.42991,-3.86633 -4.70542,-7.82944 -6.82631,-11.87348 -2.13527,-4.07145 -4.11382,-8.22493 -5.93592,-12.44569 -1.81642,-4.20758 -3.47736,-8.48203 -4.98443,-12.81018 -1.49931,-4.30587 -2.84634,-8.66489 -4.02276,-13.06989 -1.17682,-4.40651 -2.18292,-8.85903 -2.98927,-13.34904 -0.81285,-4.52618 -1.42271,-9.09045 -1.78679,-13.6736 -0.18242,-2.29635 -0.30314,-4.59745 -0.35608,-6.90012 -0.0525,-2.28516 -0.0384,-4.57188 0.0414,-6.85664 0.15863,-4.54619 0.5767,-9.08469 1.22575,-13.5883 0.65113,-4.51811 1.53475,-9.0011 2.60297,-13.43759 0.53815,-2.23504 1.12316,-4.45828 1.74847,-6.67016 0.62642,-2.2158 1.29329,-4.4202 1.99408,-6.61366 0.69982,-2.1904 1.43348,-4.36989 2.19469,-6.53966 0.76083,-2.16872 1.5492,-4.32773 2.35944,-6.47846 0.81035,-2.15103 1.64259,-4.29377 2.49147,-6.42987 0.84916,-2.1368 1.71497,-4.26696 2.59134,-6.39274 0.87666,-2.12652 1.76389,-4.24867 2.65509,-6.36913 0.44566,-1.0604 0.89233,-2.12037 1.33932,-3.18021 0.447,-1.05986 0.89433,-2.11959 1.34121,-3.17951 0.89367,-2.11964 1.78551,-4.24005 2.66888,-6.36402 0.8831,-2.12329 1.75773,-4.25013 2.61518,-6.38391 0.44768,-1.11409 0.89069,-2.23006 1.32704,-3.34862 0.39904,-1.0229 0.79252,-2.04796 1.17985,-3.07538 0.42474,-1.12667 0.84208,-2.25619 1.2442,-3.39107 0.36553,-1.03163 0.71848,-2.06769 1.07143,-3.10375"
         style="fill:none;stroke:#000000;stroke-width:1;stroke-linecap:round;stroke-dasharray:none;stroke-opacity:1"
         id="path2589" />
      <path
         d="m 998.82051,512.2951 c 0.30972,0.0871 0.61937,0.17415 0.93036,0.25629 0.31183,0.0824 0.62503,0.15977 0.93883,0.23429 0.3148,0.0747 0.6303,0.14656 0.9465,0.21556 0.317,0.0692 0.6346,0.13552 0.9527,0.1997 0.625,0.1261 1.2516,0.24385 1.8796,0.35475 0.6453,0.11395 1.2921,0.22066 1.9386,0.32732"
         style="fill:none;stroke:#000000;stroke-width:1;stroke-linecap:round;stroke-dasharray:none;stroke-opacity:1"
         id="path2591" />
      <path
         d="m 1006.4071,513.88301 c -4.1226,12.74703 -11.53601,28.89852 -17.66834,44.11092 -9.22504,22.88448 -15.55101,43.64378 -14.87593,66.14854 0.42513,14.17243 3.62679,29.03709 8.51859,43.19716 10.22694,29.60347 27.84098,56.12738 52.32648,74.93086 23.2163,17.82885 52.6102,28.71687 81.437,35.3331 12.266,2.81524 24.4293,4.85706 36.3519,6.85574 3.5899,0.60181 7.158,1.1997 10.9249,2.38011 2.5043,0.78475 5.0965,1.82696 6.9569,3.53504 1.3221,1.21374 2.2747,2.76371 2.7889,4.54309 0.5137,1.7773 0.5901,3.78348 0.065,5.62874 -1.1543,4.05493 -5.2139,7.33282 -9.2827,10.26693 -29.2653,21.10377 -59.0082,24.4233 -87.0183,24.96852 -35.8541,0.69791 -68.8688,-3.14994 -101.50676,-12.27637 -14.56299,-4.0722 -29.05098,-9.19533 -43.6231,-14.86359 -16.41235,-6.38407 -32.93143,-13.45965 -48.7118,-20.11695 -22.38391,-9.44316 -43.28151,-18.04475 -67.5575,-24.12973 -29.47486,-7.38814 -63.93007,-11.06636 -96.37806,-7.13745 -32.72021,3.96186 -63.39939,15.65904 -92.46793,27.95721 -38.95355,16.48027 -75.01478,34.03977 -107.17613,48.73712 -21.45046,9.8026 -41.16609,18.33199 -67.16016,27.71983 -14.1127,5.09684 -30.07604,10.44672 -47.51437,16.54714 -51.91895,18.16274 -116.91257,42.97857 -147.47395,13.61838 -5.4418,-5.22791 -9.7919,-12.17353 -12.16104,-20.7036 -1.80493,-6.49865 -2.46009,-13.91694 -1.07552,-20.81823 1.81011,-9.02239 7.10643,-17.16114 12.10923,-24.48005 18.0737,-26.44119 32.31639,-42.18214 47.38718,-59.13987 15.99479,-17.99743 32.92233,-37.36542 46.72686,-58.417 7.91304,-12.06719 14.79991,-24.68759 20.13832,-41.38071 5.3469,-16.71967 9.14039,-37.52504 10.97368,-61.18146 1.40795,-18.16787 1.65975,-38.01732 1.65975,-59.75784"
         style="fill:none;stroke:#000000;stroke-width:1;stroke-linecap:round;stroke-dasharray:none;stroke-opacity:1"
         id="path2593" />
      <path
         d="m 383.12,545.95859 c 2.53002,-0.003 5.06336,-0.006 7.60001,-0.01"
         style="fill:none;stroke:#000000;stroke-width:1;stroke-linecap:round;stroke-dasharray:none;stroke-opacity:1"
         id="path2595" />
      <path
         d="m 998.82051,512.2951 c -3.00062,-0.77939 -5.48889,-1.8066 -7.80921,-3.36878 -2.02419,-1.36281 -3.92056,-3.13276 -5.11082,-5.30112 -1.124,-2.04765 -1.61832,-4.45059 -2.08118,-6.92425 -2.44767,-13.08097 -4.01574,-28.13969 -5.15396,-41.09534 -1.1483,-13.07035 -1.85911,-24.00024 -1.78188,-36.01486 0.11575,-18.00792 2.00182,-38.45269 4.96096,-59.08341 0.74958,-5.22594 1.56801,-10.46382 2.56904,-14.16247 0.49157,-1.81628 1.02717,-3.26138 2.14273,-4.92288 1.74767,-2.60295 4.91873,-5.73701 8.25143,-7.33417 2.32957,-1.11642 4.73813,-1.4819 9.38348,-1.4819"
         style="fill:none;stroke:#000000;stroke-width:1;stroke-linecap:round;stroke-dasharray:none;stroke-opacity:1"
         id="path2597" />
      <path
         d="m 1073.766,332.60592 c 0.3744,-1.07229 0.7488,-2.14459 1.1263,-3.21583 0.3774,-1.07107 0.7578,-2.14108 1.1428,-3.20939 0.77,-2.13605 1.5587,-4.26533 2.3666,-6.38747 1.6156,-4.24417 3.3077,-8.45977 5.0896,-12.63666 0.4458,-1.04489 0.8972,-2.08736 1.3517,-3.12843 0.4547,-1.04132 0.9126,-2.08126 1.3709,-3.12098 0.4584,-1.03976 0.9172,-2.07931 1.3739,-3.11985 0.4565,-1.04039 0.9108,-2.08176 1.36,-3.12532 0.4492,-1.04342 0.8933,-2.08902 1.3297,-3.13783 0.4364,-1.04876 0.8652,-2.10072 1.2828,-3.15715 0.4177,-1.05667 0.8242,-2.11781 1.2072,-3.18762 0.3819,-1.06671 0.7403,-2.14204 1.0602,-3.22905 0.3189,-1.0834 0.5994,-2.17841 0.8193,-3.28682 0.221,-1.11437 0.3807,-2.24229 0.4485,-3.3759 0.068,-1.13792 0.044,-2.28157 -0.054,-3.4181 -0.097,-1.13432 -0.2672,-2.26154 -0.5001,-3.37503 -0.117,-0.55967 -0.2499,-1.11586 -0.3976,-1.66817 -0.1468,-0.54938 -0.3082,-1.09491 -0.4873,-1.63471 -0.1784,-0.53781 -0.3743,-1.06992 -0.5927,-1.59278 -0.2188,-0.52374 -0.4603,-1.03819 -0.7267,-1.53945 -0.2693,-0.50651 -0.5639,-0.99956 -0.8824,-1.47668 -0.3178,-0.47617 -0.6592,-0.93647 -1.0198,-1.38106 -0.3585,-0.44196 -0.7359,-0.86839 -1.1275,-1.28117 -0.392,-0.41309 -0.7982,-0.81251 -1.2169,-1.19846 -0.4208,-0.38795 -0.8542,-0.76228 -1.2993,-1.1221 -0.445,-0.35965 -0.9016,-0.70479 -1.3703,-1.03302 -0.4654,-0.32597 -0.9426,-0.63527 -1.4321,-0.92358 -0.489,-0.28795 -0.9902,-0.55496 -1.5023,-0.79995 -1.0321,-0.49383 -2.1083,-0.89817 -3.2099,-1.21044 -1.0952,-0.31043 -2.2157,-0.52987 -3.345,-0.66512 -0.5664,-0.0678 -1.135,-0.11449 -1.7045,-0.14203 -0.5728,-0.0277 -1.1466,-0.036 -1.7201,-0.0286 -1.1377,0.0148 -2.2743,0.0916 -3.4065,0.20611 -1.1266,0.11395 -2.2488,0.26515 -3.3681,0.43426 -1.1186,0.16898 -2.2344,0.35583 -3.3476,0.55662 -2.2277,0.40182 -4.4453,0.85948 -6.6551,1.35119 -2.2131,0.49247 -4.4183,1.01909 -6.6196,1.56156 -1.1014,0.27144 -2.2019,0.54685 -3.3019,0.82416 -1.1001,0.27734 -2.1997,0.55659 -3.2994,0.83558 -1.0996,0.27899 -2.1994,0.55773 -3.2997,0.83429 -1.1001,0.27651 -2.2008,0.55084 -3.3027,0.82012 -2.2032,0.53841 -4.4113,1.05668 -6.6243,1.55297 -2.2127,0.49622 -4.4304,0.97048 -6.6515,1.42751 -4.4435,0.91431 -8.901,1.75968 -13.366,2.56319 -4.4669,0.80387 -8.9412,1.56583 -13.42242,2.28474 -4.47806,0.71841 -8.96307,1.39382 -13.45405,2.02685 -4.48845,0.63269 -8.98287,1.22305 -13.48263,1.76911 -4.49882,0.54595 -9.00297,1.04761 -13.5122,1.50141 -9.02316,0.90807 -18.06663,1.62448 -27.12284,2.11129 -9.03676,0.48577 -18.0862,0.74292 -27.13663,0.73117 -8.96138,-0.0116 -17.92373,-0.2869 -26.86532,-0.86899 -4.44504,-0.28937 -8.88496,-0.65456 -13.31703,-1.09886 -4.4207,-0.44316 -8.8336,-0.96501 -13.23565,-1.56643 -4.39625,-0.60062 -8.78168,-1.2806 -13.15311,-2.04069 -4.37135,-0.76007 -8.7287,-1.60024 -13.07123,-2.51112 -8.70166,-1.82524 -17.34379,-3.93437 -25.92872,-6.25035 -8.62303,-2.32627 -17.18836,-4.86121 -25.70045,-7.56186 -4.27289,-1.35567 -8.53237,-2.75309 -12.7796,-4.18673 -4.25834,-1.43738 -8.50438,-2.91117 -12.73996,-4.41446 -8.48868,-3.0128 -16.9354,-6.14409 -25.34552,-9.36967 -4.20499,-1.61276 -8.40084,-3.2491 -12.58889,-4.90517 -2.09407,-0.82805 -4.18619,-1.66104 -6.27676,-2.4979 -2.09063,-0.83688 -4.17971,-1.67763 -6.2682,-2.51981 -2.08853,-0.84219 -4.17648,-1.68582 -6.2647,-2.5288 -2.08821,-0.84298 -4.17669,-1.6853 -6.26624,-2.52496 -2.08947,-0.83963 -4.18001,-1.67658 -6.27241,-2.50886 -2.09171,-0.832 -4.18528,-1.65932 -6.2815,-2.47994 -4.18787,-1.63946 -8.38634,-3.2522 -12.60131,-4.82066 -2.10471,-0.7832 -4.21355,-1.55535 -6.32734,-2.3137 -2.11177,-0.75761 -4.22848,-1.50144 -6.35031,-2.23047 -4.23853,-1.45631 -8.49748,-2.8536 -12.77522,-4.1907 -4.27371,-1.33586 -8.56618,-2.61164 -12.8748,-3.82988 -2.15389,-0.609 -4.31181,-1.20361 -6.47367,-1.78354 -2.16208,-0.57998 -4.32811,-1.14527 -6.49851,-1.6935 -4.34371,-1.0972 -8.70495,-2.12607 -13.08595,-3.06486 -4.39222,-0.94119 -8.80429,-1.79183 -13.23764,-2.51523 -4.46046,-0.72783 -8.94246,-1.32686 -13.4385,-1.78764 -4.51191,-0.46241 -9.03797,-0.78559 -13.56902,-0.98541 -4.50546,-0.1987 -9.01586,-0.27543 -13.52556,-0.25281 -4.49698,0.0226 -8.99327,0.14394 -13.48488,0.36324 -4.48824,0.21914 -8.97181,0.53606 -13.44567,0.95699 -4.47993,0.4215 -8.95013,0.94729 -13.40365,1.59322 -4.47335,0.6488 -8.92988,1.41882 -13.35417,2.34273 -2.22679,0.46501 -4.44543,0.969 -6.65291,1.51826 -2.20381,0.54834 -4.3965,1.1418 -6.57505,1.78339 -2.16741,0.63832 -4.32081,1.32428 -6.45765,2.05848 -2.12993,0.73183 -4.24339,1.51157 -6.33874,2.33716 -2.09279,0.82457 -4.16752,1.69488 -6.22431,2.60549 -2.0579,0.9111 -4.09783,1.86255 -6.11798,2.85484 -4.05703,1.99279 -8.03428,4.15027 -11.89905,6.49962 -4.43996,2.69898 -8.73148,5.6512 -12.78398,8.89899 -1.51433,1.21362 -2.99528,2.46852 -4.43634,3.76793 -1.4438,1.30188 -2.84756,2.64843 -4.20605,4.03935 -1.59421,1.63224 -3.12609,3.32556 -4.59031,5.0755 -1.45674,1.741 -2.8465,3.53804 -4.16312,5.38725 -1.30976,1.83959 -2.54715,3.73081 -3.70583,5.66917 -1.15997,1.94054 -2.24106,3.92834 -3.23656,5.95822 -1.00356,2.04633 -1.92013,4.13543 -2.74287,6.261 -0.81486,2.10519 -1.53767,4.24616 -2.16087,6.41582 -0.611,2.12722 -1.12625,4.28202 -1.5378,6.45693 -0.40684,2.14999 -0.71235,4.31964 -0.90758,6.49841 -0.0974,1.08647 -0.16728,2.17522 -0.21566,3.26487 -0.0484,1.09049 -0.0752,2.18188 -0.0865,3.27338 -0.0112,1.09318 -0.007,2.18647 0.008,3.27958 0.0147,1.09472 0.0397,2.18928 0.0699,3.28367 0.0303,1.09537 0.0659,2.19059 0.10204,3.28578 0.0362,1.0953 0.0729,2.19059 0.10553,3.28601 0.0326,1.09468 0.0612,2.18949 0.0821,3.28446 0.0107,0.56352 0.0194,1.12709 0.0246,1.69068 0.005,0.53017 0.007,1.06036 0.008,1.59055"
         style="fill:none;stroke:#000000;stroke-width:1;stroke-linecap:round;stroke-dasharray:none;stroke-opacity:1"
         id="path2599" />
      <path
         d="m 382.09604,300.46246 c 0,-8.82394 -0.853,-17.32187 -0.0859,-26.19112 0.6956,-8.04286 2.72344,-15.98309 5.81441,-23.49189 4.89785,-11.89821 12.46505,-22.71313 21.87425,-31.71985 11.04101,-10.56873 24.61833,-18.64771 37.81076,-24.65991 10.18211,-4.64029 20.13496,-8.04942 31.19091,-10.62897 19.84371,-4.62988 43.24106,-6.58734 64.15891,-6.37716 12.93896,0.13001 24.92922,1.08939 37.45867,3.14595 11.73309,1.92584 23.93901,4.81381 35.77727,8.05251 11.78541,3.22425 23.20643,6.79612 34.73834,10.88292 18.20259,6.45082 36.68148,14.18462 54.12796,21.14712 12.29363,4.90611 24.07463,9.42925 36.24633,13.83656 14.49047,5.24692 29.53466,10.32968 45.12205,14.87925 14.29838,4.17333 29.05382,7.89801 43.49717,10.65449 21.10496,4.02783 41.54355,5.9884 62.40781,6.42349 20.60826,0.42975 41.63182,-0.62878 62.98955,-2.81757 18.97608,-1.9447 38.21595,-4.78165 55.92287,-8.08339 6.9544,-1.29676 13.6723,-2.66521 20.6343,-4.33633 10.3026,-2.47297 21.1396,-5.60875 31.7141,-7.23701 3.8412,-0.59147 7.6478,-0.98402 11.5022,-0.66922 4.3092,0.35194 8.6782,1.58802 12.766,4.07263 3.0475,1.85227 5.9387,4.39844 8.0892,6.98472 2.6695,3.21036 4.1978,6.48252 5.264,10.16703 1.078,3.72566 1.6836,7.87293 1.4163,11.98315 -0.3517,5.40728 -2.2141,10.75041 -4.2659,15.89432 -2.5032,6.27567 -5.2881,12.2548 -7.8852,18.33449 -3.1338,7.33592 -5.9941,14.81824 -8.6225,22.32546"
         style="fill:none;stroke:#000000;stroke-width:1;stroke-linecap:round;stroke-dasharray:none;stroke-opacity:1"
         id="path2601"
         sodipodi:nodetypes="csssssssssssssssssssssssssc" />
      <path
         d="m 1081.7599,333.03413 c -2.6612,-0.14255 -5.3258,-0.28528 -7.9939,-0.42821"
         style="fill:none;stroke:#000000;stroke-width:1;stroke-linecap:round;stroke-dasharray:none;stroke-opacity:1"
         id="path2603" />
      <path
         d="m 550.63125,299.00282 a 5.1491755,5.1491755 0 0 0 -10.29835,0 5.1491755,5.1491755 0 0 0 10.29835,0 z"
         style="fill:none;stroke:#000000;stroke-width:1;stroke-linecap:round;stroke-dasharray:none;stroke-opacity:1"
         id="path2605" />
      <path
         d="m 506.84888,547.41353 a 5.1491755,5.1491755 0 0 0 -10.29835,0 5.1491755,5.1491755 0 0 0 10.29835,0 z"
         style="fill:none;stroke:#000000;stroke-width:1;stroke-linecap:round;stroke-dasharray:none;stroke-opacity:1"
         id="path2607" />
      <path
         d="m 713.63226,549.71477 a 5.149175,5.149175 0 0 0 -10.29835,0 5.149175,5.149175 0 0 0 10.29835,0 z"
         style="fill:none;stroke:#000000;stroke-width:1;stroke-linecap:round;stroke-dasharray:none;stroke-opacity:1"
         id="path2609" />
      <path
         d="m 713.63226,296.70157 a 5.149175,5.149175 0 0 0 -10.29835,0 5.149175,5.149175 0 0 0 10.29835,0 z"
         style="fill:none;stroke:#000000;stroke-width:1;stroke-linecap:round;stroke-dasharray:none;stroke-opacity:1"
         id="path2611" />
      <path
         d="m 909.32048,296.87829 a 5.1491755,5.1491755 0 0 0 -10.29835,0 5.1491755,5.1491755 0 0 0 10.29835,0 z"
         style="fill:none;stroke:#000000;stroke-width:1;stroke-linecap:round;stroke-dasharray:none;stroke-opacity:1"
         id="path2613" />
      <path
         d="m 909.32048,549.53806 a 5.1491755,5.1491755 0 0 0 -10.29835,0 5.1491755,5.1491755 0 0 0 10.29835,0 z"
         style="fill:none;stroke:#000000;stroke-width:1;stroke-linecap:round;stroke-dasharray:none;stroke-opacity:1"
         id="path2615" />
      <path
         d="m 524.30817,782.13376 a 5.14918,5.14918 0 0 0 -10.29836,0 5.14918,5.14918 0 0 0 10.29836,0 z"
         style="fill:none;stroke:#000000;stroke-width:1;stroke-linecap:round;stroke-dasharray:none;stroke-opacity:1"
         id="path2617" />
      <path
         d="m 623.34936,691.28134 a 5.1491755,5.1491755 0 0 0 -10.29835,0 5.1491755,5.1491755 0 0 0 10.29835,0 z"
         style="fill:none;stroke:#000000;stroke-width:1;stroke-linecap:round;stroke-dasharray:none;stroke-opacity:1"
         id="path2619" />
      <path
         d="m 508.66999,600.61179 a 15.447526,15.447526 0 0 0 -30.89505,0 15.447526,15.447526 0 0 0 30.89505,0 z"
         style="fill:none;stroke:#000000;stroke-width:1;stroke-linecap:round;stroke-dasharray:none;stroke-opacity:1"
         id="path2621" />
      <path
         d="m 441.33575,727.62613 a 15.44753,15.44753 0 0 0 -30.89506,0 15.44753,15.44753 0 0 0 30.89506,0 z"
         style="fill:none;stroke:#000000;stroke-width:1;stroke-linecap:round;stroke-dasharray:none;stroke-opacity:1"
         id="path2623" />
      <path
         d="m 347.03765,836.43335 a 15.447526,15.447526 0 0 0 -30.89505,0 15.447526,15.447526 0 0 0 30.89505,0 z"
         style="fill:none;stroke:#000000;stroke-width:1;stroke-linecap:round;stroke-dasharray:none;stroke-opacity:1"
         id="path2625" />
      <path
         d="m 419.38305,260.43999 a 9.268516,9.268516 0 0 0 -18.53703,0 9.268516,9.268516 0 0 0 18.53703,0 z"
         style="fill:none;stroke:#000000;stroke-width:1;stroke-linecap:round;stroke-dasharray:none;stroke-opacity:1"
         id="path2627" />
      <path
         d="m 752.38261,259.48 a 9.268516,9.268516 0 0 0 -18.53703,0 9.268516,9.268516 0 0 0 18.53703,0 z"
         style="fill:none;stroke:#000000;stroke-width:1;stroke-linecap:round;stroke-dasharray:none;stroke-opacity:1"
         id="path2629" />
      <path
         d="m 586.37442,205.31789 a 9.268516,9.268516 0 0 0 -18.53703,0 9.268516,9.268516 0 0 0 18.53703,0 z"
         style="fill:none;stroke:#000000;stroke-width:1;stroke-linecap:round;stroke-dasharray:none;stroke-opacity:1"
         id="path2631" />
      <path
         d="m 1081.0148,273.72757 a 9.26855,9.26855 0 0 0 -18.5371,0 9.26855,9.26855 0 0 0 18.5371,0 z"
         style="fill:none;stroke:#000000;stroke-width:1;stroke-linecap:round;stroke-dasharray:none;stroke-opacity:1"
         id="path2633" />
      <path
         d="m 978.60705,536.15652 a 9.268516,9.268516 0 0 0 -18.53703,0 9.268516,9.268516 0 0 0 18.53703,0 z"
         style="fill:none;stroke:#000000;stroke-width:1;stroke-linecap:round;stroke-dasharray:none;stroke-opacity:1"
         id="path2635" />
      <path
         d="m 942.23122,781.72975 a 9.268516,9.268516 0 0 0 -18.53703,0 9.268516,9.268516 0 0 0 18.53703,0 z"
         style="fill:none;stroke:#000000;stroke-width:1;stroke-linecap:round;stroke-dasharray:none;stroke-opacity:1"
         id="path2637" />
      <path
         d="m 1136.4448,803.4954 a 9.268516,9.268516 0 0 0 -18.537,0 9.268516,9.268516 0 0 0 18.537,0 z"
         style="fill:none;stroke:#000000;stroke-width:1;stroke-linecap:round;stroke-dasharray:none;stroke-opacity:1"
         id="path2639" />
      <path
         d="m 635.48502,758.64819 a 9.268516,9.268516 0 0 0 -18.53703,0 9.268516,9.268516 0 0 0 18.53703,0 z"
         style="fill:none;stroke:#000000;stroke-width:1;stroke-linecap:round;stroke-dasharray:none;stroke-opacity:1"
         id="path2641" />
      <path
         d="m 473.19714,831.80795 a 9.268516,9.268516 0 0 0 -18.53703,0 9.268516,9.268516 0 0 0 18.53703,0 z"
         style="fill:none;stroke:#000000;stroke-width:1;stroke-linecap:round;stroke-dasharray:none;stroke-opacity:1"
         id="path2643" />
      <path
         d="m 291.00359,865.51081 a 9.268516,9.268516 0 0 0 -18.53703,0 9.268516,9.268516 0 0 0 18.53703,0 z"
         style="fill:none;stroke:#000000;stroke-width:1;stroke-linecap:round;stroke-dasharray:none;stroke-opacity:1"
         id="path2645" />
      <path
         d="m 414.73903,563.99682 a 9.268516,9.268516 0 0 0 -18.53703,0 9.268516,9.268516 0 0 0 18.53703,0 z"
         style="fill:none;stroke:#000000;stroke-width:1;stroke-linecap:round;stroke-dasharray:none;stroke-opacity:1"
         id="path2647" />
      <path
         d="m 713.61822,549.71742 a 5.13655,5.13655 0 0 0 -10.2731,0 5.13655,5.13655 0 0 0 10.2731,0 z"
         style="fill:none;stroke:#000000;stroke-width:1;stroke-linecap:round;stroke-dasharray:none;stroke-opacity:1"
         id="path2649" />
      <path
         d="m 410.9117,563.98385 a 5.144118,5.144118 0 0 0 -10.28823,0 5.144118,5.144118 0 0 0 10.28823,0 z"
         style="fill:none;stroke:#000000;stroke-width:1;stroke-linecap:round;stroke-dasharray:none;stroke-opacity:1"
         id="path2653" />
      <path
         d="m 287.2978,865.20168 a 5.14412,5.14412 0 0 0 -10.28824,0 5.14412,5.14412 0 0 0 10.28824,0 z"
         style="fill:none;stroke:#000000;stroke-width:1;stroke-linecap:round;stroke-dasharray:none;stroke-opacity:1"
         id="path2655" />
      <path
         d="m 469.31239,831.53193 a 5.14412,5.14412 0 0 0 -10.28824,0 5.14412,5.14412 0 0 0 10.28824,0 z"
         style="fill:none;stroke:#000000;stroke-width:1;stroke-linecap:round;stroke-dasharray:none;stroke-opacity:1"
         id="path2657" />
      <path
         d="m 631.44087,758.44403 a 5.14412,5.14412 0 0 0 -10.28824,0 5.14412,5.14412 0 0 0 10.28824,0 z"
         style="fill:none;stroke:#000000;stroke-width:1;stroke-linecap:round;stroke-dasharray:none;stroke-opacity:1"
         id="path2659" />
      <path
         d="m 1131.9086,803.24718 a 5.144118,5.144118 0 0 0 -10.2882,0 5.144118,5.144118 0 0 0 10.2882,0 z"
         style="fill:none;stroke:#000000;stroke-width:1;stroke-linecap:round;stroke-dasharray:none;stroke-opacity:1"
         id="path2661" />
      <path
         d="m 974.22586,536.1709 a 5.144118,5.144118 0 0 0 -10.28823,0 5.144118,5.144118 0 0 0 10.28823,0 z"
         style="fill:none;stroke:#000000;stroke-width:1;stroke-linecap:round;stroke-dasharray:none;stroke-opacity:1"
         id="path2663" />
      <path
         d="m 582.3785,205.65723 a 5.14412,5.14412 0 0 0 -10.28824,0 5.14412,5.14412 0 0 0 10.28824,0 z"
         style="fill:none;stroke:#000000;stroke-width:1;stroke-linecap:round;stroke-dasharray:none;stroke-opacity:1"
         id="path2665" />
      <path
         d="m 748.22363,259.76615 a 5.14412,5.14412 0 0 0 -10.28824,0 5.14412,5.14412 0 0 0 10.28824,0 z"
         style="fill:none;stroke:#000000;stroke-width:1;stroke-linecap:round;stroke-dasharray:none;stroke-opacity:1"
         id="path2667" />
      <path
         d="m 415.55116,260.72519 a 5.14412,5.14412 0 0 0 -10.28824,0 5.14412,5.14412 0 0 0 10.28824,0 z"
         style="fill:none;stroke:#000000;stroke-width:1;stroke-linecap:round;stroke-dasharray:none;stroke-opacity:1"
         id="path2669" />
      <path
         d="m 1076.533,273.99972 a 5.14415,5.14415 0 0 0 -10.2883,0 5.14415,5.14415 0 0 0 10.2883,0 z"
         style="fill:none;stroke:#000000;stroke-width:1;stroke-linecap:round;stroke-dasharray:none;stroke-opacity:1"
         id="path2671" />
      <path
         d="m 937.88576,781.50291 a 5.14412,5.14412 0 0 0 -10.28824,0 5.14412,5.14412 0 0 0 10.28824,0 z"
         style="fill:none;stroke:#000000;stroke-width:1;stroke-linecap:round;stroke-dasharray:none;stroke-opacity:1"
         id="path2673" />
      <path
         style="fill:none;stroke:#000000;stroke-width:1;stroke-linecap:round;stroke-dasharray:none;stroke-opacity:1"
         d="m 1167.63,788.503 -0.23,-0.117"
         id="path2675" />
      <path
         style="fill:none;stroke:#000000;stroke-width:1;stroke-linecap:round;stroke-dasharray:none;stroke-opacity:1"
         d="m 1004.19,332.606 h 69.58"
         id="path2677" />
      <path
         style="fill:none;stroke:#000000;stroke-width:1;stroke-linecap:round;stroke-dasharray:none;stroke-opacity:1"
         d="M 429.707,310.766 V 535.651"
         id="path2679" />
      <path
         style="fill:none;stroke:#000000;stroke-width:1;stroke-linecap:round;stroke-dasharray:none;stroke-opacity:1"
         d="M 874.462,338.021 V 508.395"
         id="path2681" />
      <path
         style="fill:none;stroke:#000000;stroke-width:1;stroke-linecap:round;stroke-dasharray:none;stroke-opacity:1"
         d="M 933.88,508.395 V 338.021"
         id="path2683" />
      <path
         style="fill:none;stroke:#000000;stroke-width:1;stroke-linecap:round;stroke-dasharray:none;stroke-opacity:1"
         d="M 678.86,338.021 V 508.395"
         id="path2685" />
      <path
         style="fill:none;stroke:#000000;stroke-width:1;stroke-linecap:round;stroke-dasharray:none;stroke-opacity:1"
         d="M 738.106,508.395 V 338.021"
         id="path2687" />
      <path
         style="fill:none;stroke:#000000;stroke-width:1;stroke-linecap:round;stroke-dasharray:none;stroke-opacity:1"
         d="M 510.134,332.712 480.006,503.651"
         id="path2689" />
      <path
         style="fill:none;stroke:#000000;stroke-width:1;stroke-linecap:round;stroke-dasharray:none;stroke-opacity:1"
         d="M 537.048,513.704 567.176,342.765"
         id="path2691" />
      <path
         style="fill:none;stroke:#000000;stroke-width:1;stroke-linecap:round;stroke-dasharray:none;stroke-opacity:1"
         d="m 597.295,706.964 -60.712,55.692"
         id="path2693" />
      <path
         style="fill:none;stroke:#000000;stroke-width:1;stroke-linecap:round;stroke-dasharray:none;stroke-opacity:1"
         d="m 540.064,766.451 60.712,-55.692"
         id="path2695" />
      <path
         style="fill:none;stroke:#000000;stroke-width:1;stroke-linecap:round;stroke-dasharray:none;stroke-opacity:1"
         d="M 419.409,545.949 H 390.72"
         id="path2697" />
      <path
         style="fill:none;stroke:#000000;stroke-width:0.990555;stroke-linecap:round;stroke-dasharray:none;stroke-opacity:1"
         d="m 382.09426,300.46711 h 37.30055"
         id="path2699"
         sodipodi:nodetypes="cc" />
      <path
         d="m 419.40852,545.94908 a 10.298351,10.298351 0 0 0 10.29835,-10.29835"
         style="fill:none;stroke:#000000;stroke-width:1;stroke-linecap:round;stroke-dasharray:none;stroke-opacity:1"
         id="path2719" />
      <path
         d="M 429.70687,310.76561 A 10.298351,10.298351 0 0 0 419.40852,300.46726"
         style="fill:none;stroke:#000000;stroke-width:1;stroke-linecap:round;stroke-dasharray:none;stroke-opacity:1"
         id="path2721" />
      <path
         d="m 933.88027,338.02129 a 29.708965,29.708965 0 0 0 -59.41793,0"
         style="fill:none;stroke:#000000;stroke-width:1;stroke-linecap:round;stroke-dasharray:none;stroke-opacity:1"
         id="path2723" />
      <path
         d="m 874.46234,508.39506 a 29.708965,29.708965 0 0 0 59.41793,0"
         style="fill:none;stroke:#000000;stroke-width:1;stroke-linecap:round;stroke-dasharray:none;stroke-opacity:1"
         id="path2725" />
      <path
         d="m 738.10647,338.02129 a 29.623385,29.623385 0 0 0 -59.24677,0"
         style="fill:none;stroke:#000000;stroke-width:1;stroke-linecap:round;stroke-dasharray:none;stroke-opacity:1"
         id="path2727" />
      <path
         d="m 678.8597,508.39506 a 29.623385,29.623385 0 0 0 59.24677,0"
         style="fill:none;stroke:#000000;stroke-width:1;stroke-linecap:round;stroke-dasharray:none;stroke-opacity:1"
         id="path2729" />
      <path
         d="M 567.1756,342.76541 A 28.960311,28.960311 0 0 0 510.13417,332.71187"
         style="fill:none;stroke:#000000;stroke-width:1;stroke-linecap:round;stroke-dasharray:none;stroke-opacity:1"
         id="path2731" />
      <path
         d="m 480.00617,503.65093 a 28.960312,28.960312 0 0 0 57.04143,10.05355"
         style="fill:none;stroke:#000000;stroke-width:1;stroke-linecap:round;stroke-dasharray:none;stroke-opacity:1"
         id="path2733" />
      <path
         d="m 600.77598,710.75864 a 2.5745905,2.5745905 0 0 0 -3.48077,-3.79451"
         style="fill:none;stroke:#000000;stroke-width:1;stroke-linecap:round;stroke-dasharray:none;stroke-opacity:1"
         id="path2735" />
      <path
         d="m 536.58319,762.65646 a 2.574588,2.574588 0 0 0 3.48077,3.7945"
         style="fill:none;stroke:#000000;stroke-width:1;stroke-linecap:round;stroke-dasharray:none;stroke-opacity:1"
         id="path2737" />
    </g>
  </g>
</svg>
