<?xml version="1.0" encoding="UTF-8" standalone="no"?>
<!-- Created with Inkscape (http://www.inkscape.org/) -->

<svg
   width="210mm"
   height="297mm"
   viewBox="0 0 210 297"
   version="1.1"
   id="svg928"
   inkscape:version="1.2.1 (9c6d41e410, 2022-07-14)"
   sodipodi:docname="strat-sss-11h_freecad.svg"
   xmlns:inkscape="http://www.inkscape.org/namespaces/inkscape"
   xmlns:sodipodi="http://sodipodi.sourceforge.net/DTD/sodipodi-0.dtd"
   xmlns="http://www.w3.org/2000/svg"
   xmlns:svg="http://www.w3.org/2000/svg">
  <sodipodi:namedview
     id="namedview930"
     pagecolor="#505050"
     bordercolor="#ffffff"
     borderopacity="1"
     inkscape:showpageshadow="0"
     inkscape:pageopacity="0"
     inkscape:pagecheckerboard="1"
     inkscape:deskcolor="#505050"
     inkscape:document-units="mm"
     showgrid="false"
     inkscape:zoom="2"
     inkscape:cx="-191"
     inkscape:cy="-73.5"
     inkscape:current-layer="g1124" />
  <defs
     id="defs925" />
  <g
     inkscape:label="Layer 1"
     inkscape:groupmode="layer"
     id="layer1"
     transform="rotate(-90,30.94268,-14.478255)">
    <g
       id="g924"
       inkscape:label="top"
       style="display:none">
      <path
         id="path1404"
         style="display:inline;fill:none;stroke:#000000;stroke-width:0.0264583;stroke-linecap:round;stroke-dasharray:none;stroke-opacity:1"
         inkscape:label="selector holes"
         d="m 139.52203,20.193148 c -0.005,-0.252509 -0.0437,-0.502818 -0.11162,-0.73794 -0.13605,-0.470792 -0.38813,-0.880859 -0.73794,-1.201993 -0.49223,-0.451929 -1.17812,-0.727713 -1.84072,-0.935344 -0.99664,-0.312317 -1.94043,-0.47019 -2.89026,-0.629419 -3.15451,-0.528816 -6.37265,-1.069496 -9.61802,-1.814359 -7.62708,-1.750541 -15.40437,-4.631065 -21.547,-9.3482669 C 96.298029,0.55074834 91.637709,-6.4672658 88.931836,-14.299837 c -1.294285,-3.746509 -2.141644,-7.679496 -2.254126,-11.429277 -0.178615,-5.954371 1.495409,-11.446936 3.936194,-17.501774 1.62251,-4.024938 3.583881,-8.29796 4.67465,-11.670605 -0.171053,-0.02822 -0.341894,-0.05667 -0.51263,-0.08682 -0.166158,-0.02934 -0.33228,-0.06017 -0.497644,-0.09353 -0.08416,-0.01698 -0.168311,-0.03492 -0.252181,-0.05323 -0.08366,-0.01825 -0.166824,-0.03708 -0.250114,-0.05684 -0.08303,-0.01972 -0.166064,-0.04021 -0.248564,-0.06201 -0.08228,-0.02173 -0.164028,-0.04466 -0.245979,-0.0677 -0.793914,-0.206213 -1.452625,-0.478093 -2.066541,-0.891418 -0.535565,-0.360577 -1.036934,-0.828787 -1.351855,-1.402498 -0.297392,-0.541773 -0.428406,-1.177443 -0.550871,-1.83193 -0.647612,-3.461 -1.062589,-7.445397 -1.363741,-10.873238 -0.303821,-3.458189 -0.491722,-6.350272 -0.471289,-9.529134 0.03063,-4.764584 0.529644,-10.174106 1.312581,-15.632638 0.198326,-1.382693 0.41469,-2.768459 0.679545,-3.747058 0.130062,-0.480556 0.271733,-0.862633 0.566891,-1.302243 0.462403,-0.68869 1.301554,-1.51786 2.183329,-1.94045 0.616363,-0.29538 1.253601,-0.39224 2.482536,-0.39223 h 18.409213 c 0.7054,0.0378 1.41049,0.0755 2.1146,0.11317 0.69543,-1.98628 1.45185,-3.96565 2.281,-5.90661 0.68715,-1.60858 1.42438,-3.19043 2.08669,-4.85087 0.54287,-1.36099 1.03551,-2.77476 1.12861,-4.20543 0.0707,-1.0875 -0.0894,-2.18511 -0.37465,-3.17086 -0.2821,-0.97486 -0.6869,-1.84036 -1.3932,-2.68976 -0.56899,-0.68429 -1.3336,-1.35787 -2.13992,-1.84795 -1.08156,-0.65739 -2.23743,-0.98487 -3.37757,-1.07797 -1.01981,-0.0833 -2.02691,0.0208 -3.04322,0.17725 -2.79783,0.43081 -5.66534,1.26031 -8.39122,1.91461 -1.84203,0.44215 -3.619605,0.80464 -5.459619,1.14774 -4.684945,0.87358 -9.775253,1.62384 -14.795996,2.13837 -5.650886,0.57912 -11.213576,0.8594 -16.666166,0.74569 -5.520324,-0.11512 -10.928162,-0.63395 -16.51217,-1.69964 -3.821462,-0.72932 -7.725237,-1.71476 -11.508342,-2.81895 -4.124154,-1.20374 -8.104878,-2.54846 -11.938806,-3.93671 -3.220422,-1.1661 -6.33743,-2.36268 -9.590112,-3.66076 -3.467111,-1.38365 -7.088066,-2.8823 -10.7166589,-4.26589 V 13.000822 C 9.4747478,11.394411 14.2881,10.096174 19.286475,9.4909587 27.871652,8.451437 36.987671,9.4249624 44.78621,11.379732 c 6.423008,1.609981 11.952482,3.88561 17.874878,6.384107 4.175214,1.761407 8.545679,3.633558 12.888103,5.322672 3.855532,1.499725 7.688805,2.855143 11.541931,3.932577 8.63544,2.414695 17.370898,3.433036 26.857278,3.24838 7.41098,-0.144255 15.28031,-1.022622 23.0234,-6.606315 1.07654,-0.776315 2.15078,-1.643765 2.45618,-2.71663 0.0695,-0.244112 0.0987,-0.498867 0.0941,-0.751375 z" />
      <path
         id="path953"
         style="display:inline;fill:none;stroke:#000000;stroke-width:0.0264583;stroke-linecap:round;stroke-dasharray:none;stroke-opacity:1"
         d="m 77.159038,15.906004 c -9.83e-4,-1.813744 -2.723076,-1.813744 -2.722093,0 9.83e-4,1.813744 2.723076,1.813744 2.722093,0 z M 113.84274,-118.3706 c 0,-1.81474 -2.72211,-1.81474 -2.72211,0 0,1.81474 2.72211,1.81474 2.72211,0 z m -86.865077,-3.76596 c 0,-1.81473 -2.722094,-1.81473 -2.722094,0 0,1.81473 2.722094,1.81473 2.722094,0 z m 59.796348,73.131885 c -0.0018,-1.812887 -2.720252,-1.812887 -2.722091,0 0.0018,1.812887 2.720252,1.812887 2.722091,0 z m 41.720169,70.663844 c -0.005,-1.80925 -2.71662,-1.80925 -2.72208,0 0.005,1.80925 2.71662,1.80925 2.72208,0 z"
         inkscape:label="contour holes"
         sodipodi:nodetypes="ssssssssscccccc" />
      <path
         id="path961"
         style="display:inline;fill:none;stroke:#000000;stroke-width:0.0264583;stroke-linecap:round;stroke-dasharray:none;stroke-opacity:1"
         d="m 69.601151,-45.467951 a 1.3623845,1.3623845 0 0 0 -2.724769,0 1.3623845,1.3623845 0 0 0 2.724769,0 z m 0,-66.849359 a 1.3623845,1.3623845 0 0 0 -2.724769,0 1.3623845,1.3623845 0 0 0 2.724769,0 z"
         inkscape:label="middle holes" />
      <path
         id="path963"
         style="display:inline;fill:none;stroke:#000000;stroke-width:0.0264583;stroke-linecap:round;stroke-dasharray:none;stroke-opacity:1"
         d="m 60.378234,-56.353698 c 7.37e-4,4.340748 3.519795,7.859238 7.860532,7.859238 4.340737,0 7.859795,-3.51849 7.860452,-7.859238 v -45.077912 c -6.57e-4,-4.34071 -3.519715,-7.8592 -7.860452,-7.8592 -4.340737,0 -7.859795,3.51849 -7.860532,7.8592 z"
         inkscape:label="middle"
         sodipodi:nodetypes="csccscc" />
      <path
         id="path965"
         style="display:inline;fill:none;stroke:#000000;stroke-width:0.0264583;stroke-linecap:round;stroke-dasharray:none;stroke-opacity:1"
         d="m 17.825374,-112.36407 a 1.3623842,1.3623842 0 0 0 -2.724768,0 1.3623842,1.3623842 0 0 0 2.724768,0 z m 0,66.942873 a 1.3623842,1.3623842 0 0 0 -2.724768,0 1.3623842,1.3623842 0 0 0 2.724768,0 z"
         inkscape:label="middle holes" />
      <path
         id="path967"
         style="display:inline;fill:none;stroke:#000000;stroke-width:0.0264583;stroke-linecap:round;stroke-dasharray:none;stroke-opacity:1"
         d="m 16.46299,-109.26817 c -4.328233,0 -7.8371526,3.50835 -7.8378043,7.83656 v 45.077912 c 6.517e-4,4.328244 3.5095713,7.836597 7.8378043,7.836597 4.328233,0 7.837153,-3.508353 7.837782,-7.836597 v -45.077912 c -6.29e-4,-4.32821 -3.509549,-7.83656 -7.837782,-7.83656 z"
         inkscape:label="middle"
         sodipodi:nodetypes="sccsccs" />
    </g>
    <g
       id="g948"
       inkscape:label="template"
       style="display:none">
      <path
         id="path926"
         style="display:inline;fill:none;stroke:#000000;stroke-width:0.0264583;stroke-linecap:round;stroke-dasharray:none;stroke-opacity:1"
         d="m -57.296417,-108.64292 v 59.500653 c -4e-5,1.504812 -1.219961,2.724732 -2.724722,2.724721 l -7.590558,-4.1e-5 c -0.671177,9.69e-4 -1.341456,0.0018 -2.010829,0.0026 2.8e-5,5.752172 -0.06659,11.003999 -0.439114,15.810908 -0.485057,6.259087 -1.48875,11.763834 -2.903449,16.187574 -1.412452,4.4167161 -3.234601,7.7558634 -5.328257,10.9486368 -3.652444,5.5698902 -8.131183,10.6943311 -12.363133,15.4561412 -3.987475,4.486727 -7.755848,8.651515 -12.537841,15.647404 -1.32366,1.936459 -2.72497,4.089834 -3.2039,6.477005 -0.36633,1.825964 -0.19299,3.788718 0.28457,5.50815 0.62683,2.256912 1.77779,4.094605 3.2176,5.477821 8.086023,7.768207 25.28223,1.20236 39.019101,-3.603192 4.613886,-1.614068 8.837514,-3.029555 12.571495,-4.378092 6.877589,-2.483863 12.094009,-4.740595 17.769437,-7.334196 8.509346,-3.888669 18.050534,-8.534614 28.3569815,-12.895013 7.6910416,-3.253887 15.8082315,-6.348762 24.4654425,-7.3969989 8.585186,-1.0395228 17.701449,-0.066328 25.499996,1.8884439 6.423014,1.609982 11.952164,3.885817 17.874566,6.384316 4.175218,1.761409 8.545886,3.633487 12.888314,5.322603 3.855536,1.499726 7.688811,2.855219 11.541941,3.932654 8.635449,2.414698 17.370576,3.432774 26.856966,3.248118 7.41099,-0.144255 15.28046,-1.022547 23.02356,-6.606245 1.07654,-0.776316 2.15064,-1.64359 2.45604,-2.716456 0.13893,-0.488224 0.11871,-1.019025 -0.0172,-1.489269 -0.13605,-0.470793 -0.38809,-0.880889 -0.7379,-1.202024 -0.49223,-0.451929 -1.17808,-0.72768 -1.84068,-0.935311 -0.99665,-0.312317 -1.94071,-0.470508 -2.89054,-0.629737 -3.15452,-0.528817 -6.37272,-1.069048 -9.61809,-1.813912 C 116.69629,13.1238 108.91917,10.243015 102.77653,5.525808 96.298083,0.5507253 91.637708,-6.4670488 88.931833,-14.299628 c -1.294287,-3.746513 -2.141392,-7.67945 -2.253874,-11.429234 -0.178615,-5.954377 1.49513,-11.446935 3.935918,-17.501779 1.622511,-4.024942 3.583973,-8.298352 4.674743,-11.671001 -0.171053,-0.02822 -0.342185,-0.05645 -0.512921,-0.0866 -0.166158,-0.02934 -0.331946,-0.0605 -0.49731,-0.09386 -0.08416,-0.01698 -0.168198,-0.03453 -0.252068,-0.05284 -0.08366,-0.01825 -0.167138,-0.03727 -0.250428,-0.05703 -0.08303,-0.01972 -0.165899,-0.04019 -0.248399,-0.06199 -0.08228,-0.02173 -0.164207,-0.04477 -0.246158,-0.06781 -0.793914,-0.206214 -1.452268,-0.477996 -2.066185,-0.891322 -0.535566,-0.360577 -1.037314,-0.828875 -1.352236,-1.402587 -0.297392,-0.541773 -0.42818,-1.17755 -0.550645,-1.832038 -0.647612,-3.461003 -1.062497,-7.445284 -1.36365,-10.873129 -0.303821,-3.458192 -0.491889,-6.350055 -0.471456,-9.52892 0.03063,-4.764589 0.529648,-10.173928 1.312586,-15.632465 0.198326,-1.382695 0.414869,-2.768549 0.679724,-3.747149 0.130062,-0.480557 0.271772,-0.862788 0.56693,-1.302398 0.462404,-0.68869 1.301413,-1.51791 2.183189,-1.9405 0.616364,-0.29538 1.253628,-0.39208 2.482564,-0.39207 h 18.409013 c 0.7054,0.0378 1.41041,0.0756 2.11452,0.11329 0.69543,-1.98629 1.45222,-3.96598 2.28137,-5.90694 0.68715,-1.60858 1.42398,-3.19056 2.08629,-4.851 0.54287,-1.36099 1.03558,-2.77469 1.12868,-4.20536 0.0707,-1.0875 -0.0895,-2.18479 -0.37473,-3.17054 -0.2821,-0.97486 -0.68646,-1.84062 -1.39276,-2.69002 -0.56899,-0.68429 -1.33395,-1.35796 -2.14027,-1.84804 -1.08156,-0.65739 -2.23752,-0.98445 -3.37766,-1.07755 -1.01981,-0.0833 -2.02697,0.0206 -3.04329,0.17706 -2.79783,0.43081 -5.66512,1.26049 -8.39101,1.91479 -1.84203,0.44215 -3.619473,0.80422 -5.459489,1.14732 -4.68495,0.87359 -9.775493,1.6242 -14.796241,2.13873 -5.650892,0.57912 -11.213369,0.85919 -16.665964,0.74548 -5.520329,-0.11512 -10.928032,-0.63385 -16.512046,-1.69954 -3.821465,-0.72932 -7.725503,-1.71481 -11.508612,-2.819 -4.124158,-1.20374 -8.104595,-2.54855 -11.938527,-3.9368 -3.220425,-1.1661 -6.337477,-2.36284 -9.590163,-3.66092 -4.616042,-1.84216 -9.5052419,-3.88839 -14.3213377,-5.59516 -3.0511474,-1.0813 -6.0729551,-2.02636 -9.1911742,-2.87944 -3.1322021,-0.85691 -6.3616811,-1.62101 -9.4660571,-2.13056 -3.31508,-0.54413 -6.487499,-0.79796 -9.910928,-0.83236 -5.534507,-0.0556 -11.725048,0.4623 -16.975357,1.68729 -2.925216,0.6825 -5.558571,1.5845 -8.252584,2.81224 -3.490493,1.59073 -7.082821,3.72829 -10.004084,6.52459 -2.489515,2.38303 -4.491667,5.24447 -5.787555,8.39254 -0.817818,1.9867 -1.35435,4.08755 -1.538394,6.21555 -0.20296,2.34665 0.02273,4.59506 0.02249,6.93034 l 9.870668,6.4e-4 c 1.506659,2e-5 2.726578,1.21994 2.726623,2.72483 z"
         inkscape:label="contour"
         sodipodi:nodetypes="cccccssssssssssssssssssscssssssssscssscscssssssssscccssccsssssssssssssssssssssccc" />
      <path
         id="path928"
         style="display:inline;fill:none;stroke:#000000;stroke-width:0.0264583;stroke-linecap:round;stroke-dasharray:none;stroke-opacity:1"
         d="m 77.159038,15.906004 a 1.3610467,1.3610467 0 0 0 -2.722093,0 1.3610467,1.3610467 0 0 0 2.722093,0 z M 113.84274,-118.3706 a 1.361055,1.361055 0 0 0 -2.72211,0 1.361055,1.361055 0 0 0 2.72211,0 z m -174.884557,-3.51221 a 1.361047,1.361047 0 0 0 -2.722094,0 1.361047,1.361047 0 0 0 2.722094,0 z m 88.01948,-0.25375 a 1.361047,1.361047 0 0 0 -2.722094,0 1.361047,1.361047 0 0 0 2.722094,0 z m -43.879802,-14.3163 a 1.361047,1.361047 0 0 0 -2.722094,0 1.361047,1.361047 0 0 0 2.722094,0 z m 103.67615,87.448185 a 1.3610462,1.3610462 0 0 0 -2.722091,0 1.3610462,1.3610462 0 0 0 2.722091,0 z m 41.720169,70.663844 a 1.3610462,1.3610462 0 0 0 -2.72208,0 1.3610462,1.3610462 0 0 0 2.72208,0 z M -3.9210703,9.8050207 a 1.3610467,1.3610467 0 0 0 -2.7220934,0 1.3610467,1.3610467 0 0 0 2.7220934,0 z M -46.81751,29.142833 a 1.3610467,1.3610467 0 0 0 -2.722093,0 1.3610467,1.3610467 0 0 0 2.722093,0 z m -48.157966,8.908443 a 1.361047,1.361047 0 0 0 -2.722094,0 1.361047,1.361047 0 0 0 2.722094,0 z m 32.706136,-79.697117 a 1.3610462,1.3610462 0 0 0 -2.72209,0 1.3610462,1.3610462 0 0 0 2.72209,0 z"
         inkscape:label="contour holes" />
      <path
         id="path930"
         style="display:inline;fill:none;stroke:#000000;stroke-width:0.0264583;stroke-linecap:round;stroke-dasharray:none;stroke-opacity:1"
         d="m -79.169327,30.439665 a 4.0871528,4.0871528 0 0 0 -8.174305,0 4.0871528,4.0871528 0 0 0 8.174305,0 z M -54.219653,1.6511283 a 4.087154,4.087154 0 0 0 -8.174308,0 4.087154,4.087154 0 0 0 8.174308,0 z m 17.815495,-33.6058393 a 4.0871528,4.0871528 0 0 0 -8.174305,0 4.0871528,4.0871528 0 0 0 8.174305,0 z"
         inkscape:label="pots holes" />
      <path
         id="path932"
         style="display:inline;fill:none;stroke:#000000;stroke-width:0.0264583;stroke-linecap:round;stroke-dasharray:none;stroke-opacity:1"
         d="m -36.885993,-46.030066 a 1.3623843,1.3623843 0 0 0 -2.724768,0 1.3623843,1.3623843 0 0 0 2.724768,0 z m 11.584071,-65.725134 a 1.3623843,1.3623843 0 0 0 -2.724768,0 1.3623843,1.3623843 0 0 0 2.724768,0 z"
         inkscape:label="bridge holes" />
      <path
         id="path934"
         style="display:inline;fill:none;stroke:#000000;stroke-width:0.0264583;stroke-linecap:round;stroke-dasharray:none;stroke-opacity:1"
         d="m -20.924515,-100.17641 c 0.734486,-4.16755 -2.048556,-8.1415 -6.21615,-8.87604 -4.167594,-0.73454 -8.141557,2.04849 -8.876119,6.21611 l -7.971356,45.227443 c -0.734051,4.167368 2.048951,8.140847 6.216252,8.875334 4.167301,0.734486 8.141062,-2.048114 8.876016,-6.215408 z"
         inkscape:label="bridge"
         sodipodi:nodetypes="csccscc" />
      <path
         id="path936"
         style="display:inline;fill:none;stroke:#000000;stroke-width:0.0264583;stroke-linecap:round;stroke-dasharray:none;stroke-opacity:1"
         d="m 69.601151,-45.467951 a 1.3623845,1.3623845 0 0 0 -2.724769,0 1.3623845,1.3623845 0 0 0 2.724769,0 z m 0,-66.849359 a 1.3623845,1.3623845 0 0 0 -2.724769,0 1.3623845,1.3623845 0 0 0 2.724769,0 z"
         inkscape:label="middle holes" />
      <path
         id="path938"
         style="display:inline;fill:none;stroke:#000000;stroke-width:0.0264583;stroke-linecap:round;stroke-dasharray:none;stroke-opacity:1"
         d="m 60.378234,-56.353698 c 7.37e-4,4.340748 3.519795,7.859238 7.860532,7.859238 4.340737,0 7.859795,-3.51849 7.860452,-7.859238 v -45.077912 c -6.57e-4,-4.34071 -3.519715,-7.8592 -7.860452,-7.8592 -4.340737,0 -7.859795,3.51849 -7.860532,7.8592 z"
         inkscape:label="middle"
         sodipodi:nodetypes="csccscc" />
      <path
         id="path940"
         style="display:inline;fill:none;stroke:#000000;stroke-width:0.0264583;stroke-linecap:round;stroke-dasharray:none;stroke-opacity:1"
         d="m 17.825374,-112.36407 a 1.3623842,1.3623842 0 0 0 -2.724768,0 1.3623842,1.3623842 0 0 0 2.724768,0 z m 0,66.942873 a 1.3623842,1.3623842 0 0 0 -2.724768,0 1.3623842,1.3623842 0 0 0 2.724768,0 z"
         inkscape:label="middle holes" />
      <path
         id="path942"
         style="display:inline;fill:none;stroke:#000000;stroke-width:0.0264583;stroke-linecap:round;stroke-dasharray:none;stroke-opacity:1"
         d="m 16.46299,-109.26817 c -4.328233,0 -7.8371526,3.50835 -7.8378043,7.83656 v 45.077912 c 6.517e-4,4.328244 3.5095713,7.836597 7.8378043,7.836597 4.328233,0 7.837153,-3.508353 7.837782,-7.836597 v -45.077912 c -6.29e-4,-4.32821 -3.509549,-7.83656 -7.837782,-7.83656 z"
         inkscape:label="middle"
         sodipodi:nodetypes="sccsccs" />
      <path
         id="path944"
         style="display:inline;fill:none;stroke:#000000;stroke-width:0.0264583;stroke-linecap:round;stroke-dasharray:none;stroke-opacity:1"
         d="m -28.097842,11.92352 16.063365,-14.7351952 c 0.668308,-0.6140578 -0.252644,-1.6180206 -0.920982,-1.0040276 L -29.018825,10.919493 c -0.668227,0.614074 0.252726,1.618034 0.920983,1.004027 z"
         inkscape:label="selector"
         sodipodi:nodetypes="ccccc" />
      <path
         id="path946"
         style="display:inline;fill:none;stroke:#000000;stroke-width:0.0264583;stroke-linecap:round;stroke-dasharray:none;stroke-opacity:1"
         d="m -6.0619463,-7.9650853 a 1.3623843,1.3623843 0 0 0 -2.7247683,0 1.3623843,1.3623843 0 0 0 2.7247683,0 z M -32.266561,16.072917 a 1.3623855,1.3623855 0 0 0 -2.724771,0 1.3623855,1.3623855 0 0 0 2.724771,0 z"
         inkscape:label="selector holes" />
    </g>
    <g
       id="g1124"
       inkscape:label="bottom"
       style="display:inline">
      <path
         id="path1122"
         style="display:inline;fill:none;stroke:#000000;stroke-width:0.0264583;stroke-linecap:round;stroke-dasharray:none;stroke-opacity:1"
         inkscape:label="contour"
         d="M 27.448767 -128.00556 C 26.668608 -128.27952 25.889673 -128.55414 25.121261 -128.83238 C 21.900839 -129.99848 18.783831 -131.19506 15.531149 -132.49314 C 10.915111 -134.3353 6.0261499 -136.3819 1.210059 -138.08866 C -1.8410854 -139.16996 -4.8628953 -140.115 -7.9811113 -140.96807 C -11.11331 -141.82498 -14.342827 -142.58914 -17.4472 -143.09869 C -20.762277 -143.64282 -23.934798 -143.89628 -27.358223 -143.93068 C -32.892725 -143.98628 -39.083111 -143.46844 -44.333414 -142.24345 C -47.258627 -141.56095 -49.89213 -140.65896 -52.586141 -139.43122 C -56.07663 -137.84049 -59.668921 -135.70285 -62.590181 -132.90655 C -65.079694 -130.52352 -67.082055 -127.66237 -68.377942 -124.5143 C -69.195759 -122.5276 -69.732305 -120.42666 -69.916349 -118.29866 C -70.119309 -115.95201 -69.893371 -113.70361 -69.893611 -111.36833 L -60.022896 -111.36781 C -58.516238 -111.36779 -57.296492 -110.1478 -57.296447 -108.64292 L -57.296447 -49.142155 C -57.296487 -47.637344 -58.516586 -46.417762 -60.021346 -46.417773 L -67.61158 -46.417773 C -68.282756 -46.416804 -68.952938 -46.41599 -69.62231 -46.41519 C -69.622282 -40.663023 -69.689036 -35.411173 -70.06156 -30.604268 C -70.546616 -24.345188 -71.550561 -18.840361 -72.965258 -14.416626 C -74.377709 -9.9999142 -76.199445 -6.6607104 -78.293099 -3.4679402 C -81.945539 2.1019444 -86.424739 7.2266754 -90.656685 11.988481 C -94.644156 16.475203 -98.412433 20.639706 -103.19442 27.635588 C -104.51808 29.572045 -105.91943 31.725543 -106.39836 34.112712 C -106.76469 35.938674 -106.59118 37.901472 -106.11362 39.620903 C -105.48679 41.877812 -104.33606 43.71539 -102.89625 45.098604 C -94.810233 52.866804 -77.613782 46.300754 -63.876924 41.495207 C -59.263043 39.88114 -55.039576 38.465715 -51.305599 37.117179 C -44.428016 34.633319 -39.211563 32.376859 -33.536141 29.78326 C -25.026803 25.894595 -15.485652 21.248318 -5.1792151 16.887923 C 2.5118188 13.634039 10.629273 10.539195 19.286475 9.4909587 C 21.974252 9.1655137 24.713615 9.0571379 27.448767 9.0946005 L 27.448767 -128.00556 z " />
      <path
         id="path1152"
         style="display:inline;fill:none;stroke:#000000;stroke-width:0.0264583;stroke-linecap:round;stroke-dasharray:none;stroke-opacity:1"
         d="m -61.041817,-121.88281 c 0,-1.81473 -2.722094,-1.81473 -2.722094,0 0,1.81473 2.722094,1.81473 2.722094,0 z m 88.01948,-0.25375 c 0,-1.81473 -2.722094,-1.81473 -2.722094,0 0,1.81473 2.722094,1.81473 2.722094,0 z m -43.879802,-14.3163 c 0,-1.81473 -2.722094,-1.81473 -2.722094,0 0,1.81473 2.722094,1.81473 2.722094,0 z M -3.9210703,9.8050207 c 0,-1.8147281 -2.7220934,-1.8147281 -2.7220934,0 0,1.8147283 2.7220934,1.8147283 2.7220934,0 z M -46.81751,29.142833 c -9.83e-4,-1.813744 -2.723076,-1.813744 -2.722093,0 9.83e-4,1.813744 2.723076,1.813744 2.722093,0 z m -48.157966,8.908443 c 0,-1.814728 -2.722094,-1.814728 -2.722094,0 0,1.814728 2.722094,1.814728 2.722094,0 z m 32.706136,-79.697117 c -0.0024,-1.812318 -2.719683,-1.812318 -2.72209,0 0.0024,1.812318 2.719683,1.812318 2.72209,0 z"
         inkscape:label="contour holes"
         sodipodi:nodetypes="ssssssssssssssssssccc" />
      <path
         id="path1154"
         style="display:inline;fill:none;stroke:#000000;stroke-width:0.0264583;stroke-linecap:round;stroke-dasharray:none;stroke-opacity:1"
         d="m -79.169327,30.439665 a 4.0871528,4.0871528 0 0 0 -8.174305,0 4.0871528,4.0871528 0 0 0 8.174305,0 z M -54.219653,1.6511283 a 4.087154,4.087154 0 0 0 -8.174308,0 4.087154,4.087154 0 0 0 8.174308,0 z m 17.815495,-33.6058393 a 4.0871528,4.0871528 0 0 0 -8.174305,0 4.0871528,4.0871528 0 0 0 8.174305,0 z"
         inkscape:label="pots holes"
         transform="translate(0)" />
      <path
         id="path1156"
         style="display:inline;fill:none;stroke:#000000;stroke-width:0.0264583;stroke-linecap:round;stroke-dasharray:none;stroke-opacity:1"
         d="m -36.885993,-46.030066 a 1.3623843,1.3623843 0 0 0 -2.724768,0 1.3623843,1.3623843 0 0 0 2.724768,0 z m 11.584071,-65.725134 a 1.3623843,1.3623843 0 0 0 -2.724768,0 1.3623843,1.3623843 0 0 0 2.724768,0 z"
         inkscape:label="bridge holes"
         transform="translate(0)" />
      <path
         id="path1158"
         style="display:inline;fill:none;stroke:#000000;stroke-width:0.0264583;stroke-linecap:round;stroke-dasharray:none;stroke-opacity:1"
         d="m -20.924515,-100.17641 c 0.734486,-4.16755 -2.048556,-8.1415 -6.21615,-8.87604 -4.167594,-0.73454 -8.141557,2.04849 -8.876119,6.21611 l -7.971356,45.227443 c -0.734051,4.167368 2.048951,8.140847 6.216252,8.875334 4.167301,0.734486 8.141062,-2.048114 8.876016,-6.215408 z"
         inkscape:label="bridge"
         sodipodi:nodetypes="csccscc"
         transform="translate(0)" />
      <path
         id="path1164"
         style="display:inline;fill:none;stroke:#000000;stroke-width:0.0264583;stroke-linecap:round;stroke-dasharray:none;stroke-opacity:1"
         d="m 17.825374,-112.36407 a 1.3623842,1.3623842 0 0 0 -2.724768,0 1.3623842,1.3623842 0 0 0 2.724768,0 z m 0,66.942873 a 1.3623842,1.3623842 0 0 0 -2.724768,0 1.3623842,1.3623842 0 0 0 2.724768,0 z"
         inkscape:label="middle holes"
         transform="translate(0)" />
      <path
         id="path1166"
         style="display:inline;fill:none;stroke:#000000;stroke-width:0.0264583;stroke-linecap:round;stroke-dasharray:none;stroke-opacity:1"
         d="m 16.46299,-109.26817 c -4.328233,0 -7.8371526,3.50835 -7.8378043,7.83656 v 45.077912 c 6.517e-4,4.328244 3.5095713,7.836597 7.8378043,7.836597 4.328233,0 7.837153,-3.508353 7.837782,-7.836597 v -45.077912 c -6.29e-4,-4.32821 -3.509549,-7.83656 -7.837782,-7.83656 z"
         inkscape:label="middle"
         sodipodi:nodetypes="sccsccs"
         transform="translate(0)" />
      <path
         id="path1168"
         style="display:inline;fill:none;stroke:#000000;stroke-width:0.0264583;stroke-linecap:round;stroke-dasharray:none;stroke-opacity:1"
         d="m -28.097842,11.92352 16.063365,-14.7351952 c 0.668308,-0.6140578 -0.252644,-1.6180206 -0.920982,-1.0040276 L -29.018825,10.919493 c -0.668227,0.614074 0.252726,1.618034 0.920983,1.004027 z"
         inkscape:label="selector"
         sodipodi:nodetypes="ccccc"
         transform="translate(0)" />
      <path
         id="path1170"
         style="display:inline;fill:none;stroke:#000000;stroke-width:0.0264583;stroke-linecap:round;stroke-dasharray:none;stroke-opacity:1"
         d="m -6.0619463,-7.9650853 a 1.3623843,1.3623843 0 0 0 -2.7247683,0 1.3623843,1.3623843 0 0 0 2.7247683,0 z M -32.266561,16.072917 a 1.3623855,1.3623855 0 0 0 -2.724771,0 1.3623855,1.3623855 0 0 0 2.724771,0 z"
         inkscape:label="selector holes"
         transform="translate(0)" />
    </g>
  </g>
</svg>
