<?xml version="1.0" encoding="UTF-8" standalone="no"?>
<!-- Created with Inkscape (http://www.inkscape.org/) -->

<svg
   width="210mm"
   height="297mm"
   viewBox="0 0 210 297"
   version="1.1"
   id="svg426"
   sodipodi:docname="strat-sss-11h_2.svg"
   inkscape:version="1.2.1 (9c6d41e410, 2022-07-14)"
   xmlns:inkscape="http://www.inkscape.org/namespaces/inkscape"
   xmlns:sodipodi="http://sodipodi.sourceforge.net/DTD/sodipodi-0.dtd"
   xmlns="http://www.w3.org/2000/svg"
   xmlns:svg="http://www.w3.org/2000/svg">
  <sodipodi:namedview
     id="namedview428"
     pagecolor="#505050"
     bordercolor="#ffffff"
     borderopacity="1"
     inkscape:showpageshadow="0"
     inkscape:pageopacity="0"
     inkscape:pagecheckerboard="1"
     inkscape:deskcolor="#505050"
     inkscape:document-units="mm"
     showgrid="false"
     inkscape:zoom="2.3786088"
     inkscape:cx="-93.331867"
     inkscape:cy="-19.339035"
     inkscape:current-layer="layer1" />
  <defs
     id="defs423" />
  <g
     inkscape:label="Layer 1"
     inkscape:groupmode="layer"
     id="layer1">
    <path
       style="fill:none;stroke-width:0.08466667;stroke:#000000;stroke-opacity:1;stroke-dasharray:none"
       d="m -131.66169,95.071057 c -0.52522,0.11689 -1.12888,0.7309 -1.27013,1.29189 -0.43595,1.73147 1.69171,2.92546 2.95743,1.65962 1.27693,-1.27704 0.0931,-3.34777 -1.6873,-2.95151 z"
       id="path11701" />
    <path
       style="fill:none;stroke-width:0.08466667;stroke:#000000;stroke-opacity:1;stroke-dasharray:none"
       d="m -75.872721,84.854017 c -1.37089,0.61582 -1.4202,2.49367 -0.084,3.19765 1.93066,1.01715 3.585,-1.76791 1.79622,-3.02391 -0.44276,-0.31089 -1.22928,-0.39069 -1.71225,-0.17374 z"
       id="path11697" />
    <path
       style="fill:none;stroke-width:0.08466667;stroke:#000000;stroke-opacity:1;stroke-dasharray:none"
       d="m -116.7749,82.694707 c -4.08977,0.48362 -5.82535,5.48824 -2.91947,8.41839 3.10005,3.12595 8.43089,0.93949 8.45531,-3.46796 0.0165,-2.97276 -2.58523,-5.29934 -5.53584,-4.95043 z"
       id="path11693" />
    <path
       style="fill:none;stroke-width:0.08466667;stroke:#000000;stroke-opacity:1;stroke-dasharray:none"
       d="m 127.54917,76.331677 c -1.18809,0.55012 -1.4172,2.08854 -0.43896,2.94752 0.89613,0.78689 2.26922,0.48518 2.77623,-0.61003 0.66986,-1.44695 -0.89044,-3.0074 -2.33727,-2.33749 z"
       id="path11689" />
    <path
       style="fill:none;stroke-width:0.08466667;stroke:#000000;stroke-opacity:1;stroke-dasharray:none"
       d="m 68.025339,69.680887 c -1.3085,0.60319 -1.39599,2.5441 -0.14328,3.17822 1.62248,0.82129 3.24658,-0.80359 2.41405,-2.4152 -0.3713,-0.71879 -1.52545,-1.10659 -2.27077,-0.76302 z"
       id="path11685" />
    <path
       style="fill:none;stroke-width:0.08466667;stroke:#000000;stroke-opacity:1;stroke-dasharray:none"
       d="m -59.014701,69.522247 c -0.53022,0.16806 -1.00272,0.6606 -1.16314,1.21247 -0.50758,1.74617 1.76591,3.03865 2.98577,1.69743 1.21687,-1.33793 -0.10813,-3.45334 -1.82263,-2.9099 z"
       id="path11681" />
    <path
       style="fill:none;stroke-width:0.08466667;stroke:#000000;stroke-opacity:1;stroke-dasharray:none"
       d="m -26.084141,62.378007 c -1.73094,0.69087 -1.40128,3.24548 0.44339,3.43589 1.90622,0.19675 2.69389,-2.45512 0.98255,-3.308 -0.46957,-0.23402 -1.03336,-0.28458 -1.42594,-0.12789 z"
       id="path11677" />
    <path
       style="fill:none;stroke-width:0.08466667;stroke:#000000;stroke-opacity:1;stroke-dasharray:none"
       d="m -88.912681,49.292257 c -2.75476,0.72497 -4.39781,3.78524 -3.4437,6.41404 1.90802,5.25701 9.62469,3.96649 9.62469,-1.60963 0,-3.23047 -3.07614,-5.62152 -6.18099,-4.80441 z"
       id="path11673" />
    <path
       style="fill:none;stroke-width:0.08466667;stroke:#000000;stroke-opacity:1;stroke-dasharray:none"
       d="m -35.104151,48.393227 c -0.16653,0.0696 -17.0632,15.717 -18.0138,16.68196 -1.10171,1.11837 0.003,2.60694 1.1809,1.59074 1.60049,-1.38118 18.13246,-16.85534 18.17421,-17.01132 0.24404,-0.91173 -0.501,-1.61237 -1.34131,-1.26138 z"
       id="path11669" />
    <path
       style="fill:none;stroke-width:0.08466667;stroke:#000000;stroke-opacity:1;stroke-dasharray:none"
       d="m -28.752191,41.498577 c -1.40528,0.53456 -1.54206,2.53158 -0.22115,3.229 1.25693,0.66364 2.81434,-0.41069 2.59395,-1.78937 -0.17695,-1.10692 -1.3602,-1.82482 -2.3728,-1.43963 z"
       id="path11665" />
    <path
       style="fill:none;stroke-width:0.08466667;stroke:#000000;stroke-opacity:1;stroke-dasharray:none"
       d="m -67.787231,10.346697 c -4.31398,0.92101 -5.39563,6.59997 -1.72173,9.03953 2.87563,1.90947 6.85222,0.24619 7.57359,-3.16779 0.71892,-3.40244 -2.46305,-6.5952198 -5.85186,-5.87174 z"
       id="path11661" />
    <path
       style="fill:none;stroke-width:0.08466667;stroke:#000000;stroke-opacity:1;stroke-dasharray:none"
       d="m -94.035291,2.5767972 c -2.02028,0.93838 -0.8927,3.90108 1.25748,3.30399 0.62961,-0.17485 1.24145,-1.01208 1.23985,-1.69659 -0.003,-1.25033 -1.3707,-2.1307 -2.49733,-1.6074 z"
       id="path11657" />
    <path
       style="fill:none;stroke-width:0.08466667;stroke:#000000;stroke-opacity:1;stroke-dasharray:none"
       d="m 59.034049,-1.7730828 c -1.73941,0.86686001 -0.92599,3.54238 1.00735,3.31338 1.05661,-0.12514 1.78377,-1.15457999 1.52,-2.15184999 -0.30345,-1.14729001 -1.47528,-1.68585001 -2.52735,-1.16153001 z"
       id="path11653" />
    <path
       style="fill:none;stroke-width:0.08466667;stroke:#000000;stroke-opacity:1;stroke-dasharray:none"
       d="m -0.7720006,-1.7970628 c -1.03902,0.52569 -1.30996,1.83146001 -0.56702,2.73284001 0.82037,0.99534999 2.39617,0.76804999 2.94863,-0.42533 0.68494,-1.47953 -0.92847,-3.04272001 -2.38161,-2.30751001 z"
       id="path11649" />
    <path
       style="fill:none;stroke-width:0.08466667;stroke:#000000;stroke-opacity:1;stroke-dasharray:none"
       d="m -64.375051,-2.4128128 c -1.59213,0.29884 -1.92325,2.50764001 -0.49435,3.29758001 0.95915,0.53022999 2.1743,0.0498 2.53051,-1.00056 0.42944,-1.26620001 -0.70568,-2.54674001 -2.03616,-2.29702001 z"
       id="path11645" />
    <path
       style="fill:none;stroke-width:0.08466667;stroke:#000000;stroke-opacity:1;stroke-dasharray:none"
       d="m 79.117259,-5.8913128 c -1.42359,0.65916 -1.38633,2.65991 0.0608,3.26447 1.13136,0.47264 2.4333,-0.40847 2.4333,-1.64675 0,-1.26796 -1.35348,-2.14585 -2.49408,-1.61772 z"
       id="path11641" />
    <path
       style="fill:none;stroke-width:0.08466667;stroke:#000000;stroke-opacity:1;stroke-dasharray:none"
       d="m -54.311361,-73.834723 c -3.35963,0.63511 -6.05482,2.97296 -7.11846,6.17468 -0.15204,0.45763 -1.71998,9.13395 -4.8969,27.09726 l -4.67326,26.42409 -3.4e-4,1.3972 c -0.002,10.3211102 14.74804,12.56639021 17.85394,2.71772 0.33971,-1.07723 9.53714,-53.29298 9.59213,-54.45657 0.26971,-5.70748 -5.14426,-10.41545 -10.75715,-9.35438 z"
       id="path11637" />
    <path
       style="fill:none;stroke-width:0.08466667;stroke:#000000;stroke-opacity:1;stroke-dasharray:none"
       d="m 58.189429,-74.177723 c -3.95697,0.71805 -7.02575,4.0162 -7.47351,8.03212 -0.11972,1.0738 -0.12605,53.7172 -0.007,54.75897 1.16604,10.1677602 15.41311,11.08840021 18.06026,1.16705 l 0.18711,-0.70131 v -27.85938 -27.85938 l -0.22515,-0.81452 c -1.28605,-4.65244 -5.86436,-7.57239 -10.54213,-6.72355 z"
       id="path11633" />
    <path
       style="fill:none;stroke-width:0.08466667;stroke:#000000;stroke-opacity:1;stroke-dasharray:none"
       d="m -1.4541906,-74.386893 c -3.5835,0.60655 -6.45047,3.21385 -7.42889,6.756 l -0.22702,0.82188 v 27.85938 27.85938 l 0.18711,0.70131 c 2.64958,9.93047021 16.91853,8.9857102 18.05368,-1.19536 0.11832,-1.0612 0.12459,-53.52195 0.007,-54.63196 -0.55901,-5.25588 -5.46265,-9.03873 -10.5914,-8.17063 z"
       id="path11629" />
    <path
       style="fill:none;stroke-width:0.08466667;stroke:#000000;stroke-opacity:1;stroke-dasharray:none"
       d="m -51.276351,-78.545373 c -1.43917,0.66846 -1.40222,2.65278 0.0608,3.26397 1.28266,0.53584 2.72013,-0.70914 2.36575,-2.04897 -0.28844,-1.09053 -1.44631,-1.6703 -2.42654,-1.215 z"
       id="path11625" />
    <path
       style="fill:none;stroke-width:0.08466667;stroke:#000000;stroke-opacity:1;stroke-dasharray:none"
       d="m 59.515879,-79.387123 c -0.87332,0.16999 -1.43941,0.85397 -1.43941,1.7392 0,1.81843 2.40762,2.44953 3.30674,0.8668 0.72633,-1.27855 -0.4259,-2.88657 -1.86733,-2.606 z"
       id="path11621" />
    <path
       style="fill:none;stroke-width:0.08466667;stroke:#000000;stroke-opacity:1;stroke-dasharray:none"
       d="m -0.3390706,-79.368893 c -1.14949,0.20175 -1.76742,1.48187 -1.21843,2.52412 0.92149,1.74941 3.47273,0.99 3.30896,-0.98496 -0.0862,-1.03985 -1.01968,-1.72712 -2.09053,-1.53916 z"
       id="path11617" />
    <path
       style="fill:none;stroke-width:0.08466667;stroke:#000000;stroke-opacity:1;stroke-dasharray:none"
       d="m 110.65727,-86.536513 c -1.39978,0.63133 -1.48515,2.54348 -0.14341,3.21216 1.68215,0.83833 3.35005,-1.1451 2.21474,-2.63372 -0.46072,-0.6041 -1.4203,-0.87207 -2.07133,-0.57844 z"
       id="path11613" />
    <path
       style="fill:none;stroke-width:0.08466667;stroke:#000000;stroke-opacity:1;stroke-dasharray:none"
       d="m 9.3474794,-90.916243 c -1.79129,0.83829 -1.08147,3.57352 0.8784896,3.38517 2.17523,-0.20903 2.16469,-3.40128 -0.0116,-3.51617 -0.3845796,-0.0203 -0.6193896,0.0152 -0.8668696,0.131 z"
       id="path11609" />
    <path
       style="fill:none;stroke-width:0.08466667;stroke:#000000;stroke-opacity:1;stroke-dasharray:none"
       d="m -92.765221,-90.936643 c -1.43622,0.7455 -1.25473,2.81716 0.28172,3.21574 1.29906,0.33701 2.3551,-0.73239 2.0946,-2.12109 -0.17169,-0.91526 -1.52285,-1.53767 -2.37632,-1.09465 z"
       id="path11605" />
    <path
       style="fill:none;stroke-width:0.08466667;stroke:#000000;stroke-opacity:1;stroke-dasharray:none"
       d="m -41.250661,-107.46958 c -1.09085,0.57594 -1.23937,2.0051 -0.2946,2.83469 0.9488,0.83314 2.47968,0.31938 2.75828,-0.92568 0.32051,-1.43231 -1.17369,-2.59011 -2.46368,-1.90901 z"
       id="path11601" />
    <path
       style="fill:none;stroke:#000000;stroke-width:0.0846667;stroke-dasharray:none;stroke-opacity:1"
       d="m -56.102601,-114.89905 c -22.01662,0.94083 -35.81172,7.70553 -42.11936,20.654047 -2.423729,4.97551 -3.893139,12.75298 -3.195029,16.91094 l 0.0669,0.39855 6.028179,0.0264 c 5.9052,0.0259 6.03784,0.0301 6.50126,0.20608 1.40694,0.53426 2.22363,1.47402 2.67437,3.07733 0.14868,0.52887 0.15473,1.8628 0.15473,34.08329 v 33.5328702 l -0.18773,0.70373 c -0.42513,1.59364 -1.31109,2.74733 -2.56408,3.33891 -1.1518,0.54381 -1.00327,0.53329 -7.0381,0.49827 l -5.471679,-0.0318 -0.0557,1.13258001 c -0.0579,1.17655 -0.26599,7.10363999 -0.5586,15.90906979 -0.60504,18.20705 -4.94354,29.38799 -16.72456,43.10159 -2.37375,2.76314 -4.67451,5.64492 -14.94095,18.71405 -2.57929,3.28343 -5.07025,6.44619 -5.53547,7.02835 -5.01985,6.28184 -5.79675,12.53827 -2.22173,17.891633 5.31702,7.96186 12.49175,8.86891 31.67535,4.00452 1.16423,-0.29522 2.78357,-0.69661 3.59853,-0.89199 13.424049,-3.21825 43.549879,-15.530693 74.595299,-30.487133 4.04958,-1.95093 10.34318,-4.57866 14.60035,-6.09602 15.0643804,-5.3693 30.37781,-6.67773 45.03276,-3.84774 10.55398,2.03805 20.40803,5.45734 35.08898,12.17564 21.60564,9.88717 41.731281,13.26941 59.464121,9.99332 8.53975,-1.5777 17.33221,-5.66264 18.93426,-8.79677 1.74959,-3.42279 -0.15261,-5.5056 -5.68322,-6.22283 -25.17323,-3.26454 -40.260651,-11.8257 -48.216491,-27.35982 -8.30084,-16.20775 -8.55175,-27.6142 -1.02153,-46.4389698 1.41547,-3.53852 2.96663,-7.00456 4.3865,-9.8015902 0.0177,-0.0349 -0.2202,-0.0635 -0.52874,-0.0635 -3.23241,0 -6.28332,-2.62559 -6.90394,-5.94147 -2.15793,-11.52968 -2.24375,-25.87405 -0.24989,-41.76711 0.53578,-4.27061 1.12455,-5.42512 3.34014,-6.54955 1.67494,-0.85005 1.07302,-0.82499 14.804951,-0.61621 6.60594,0.10044 12.02274,0.17064 12.03734,0.156 0.0605,-0.0607 6.26012,-15.23227 6.44451,-15.77088 2.01163,-5.87612 -2.55047,-12.26054 -8.7745,-12.27945 l -1.65109,-0.005 -2.15911,0.53537 c -23.879421,5.92111 -50.525311,8.18966 -66.341941,5.64817 -12.21426,-1.96266 -26.03836,-6.2627 -41.9948296,-13.062667 -21.9947304,-9.37324 -41.7641004,-14.26826 -55.2902704,-13.69025 z"
       id="path11573"
       sodipodi:nodetypes="cssccssscsscccssscsscscssssssssscsssssscssccc" />
  </g>
</svg>
