<?xml version="1.0" encoding="UTF-8" standalone="no"?>
<svg
   viewBox="0 0 793.7007874015749 1122.5196850393702"
   width="793.7007874015749"
   height="1122.5196850393702"
   version="1.1"
   id="svg294"
   sodipodi:docname="Strat Pickguard 11 holes.svg"
   inkscape:version="1.2.1 (9c6d41e410, 2022-07-14)"
   xmlns:inkscape="http://www.inkscape.org/namespaces/inkscape"
   xmlns:sodipodi="http://sodipodi.sourceforge.net/DTD/sodipodi-0.dtd"
   xmlns="http://www.w3.org/2000/svg"
   xmlns:svg="http://www.w3.org/2000/svg">
  <sodipodi:namedview
     id="namedview296"
     pagecolor="#505050"
     bordercolor="#ffffff"
     borderopacity="1"
     inkscape:showpageshadow="0"
     inkscape:pageopacity="0"
     inkscape:pagecheckerboard="1"
     inkscape:deskcolor="#505050"
     showgrid="false"
     inkscape:zoom="16"
     inkscape:cx="524.3125"
     inkscape:cy="340.90625"
     inkscape:current-layer="g292" />
  <desc
     id="desc39">Strat Pickguard 11 holes.DXF - scale = 25.400000, origin = (0.000000, 0.000000), method = file</desc>
  <defs
     id="defs54">
    <marker
       id="DistanceX"
       orient="auto"
       refX="0.0"
       refY="0.0"
       style="overflow:visible">
      <path
         d="M 3,-3 L -3,3 M 0,-5 L  0,5"
         style="stroke:#000000; stroke-width:0.5"
         id="path41" />
    </marker>
    <pattern
       id="Hatch"
       patternUnits="userSpaceOnUse"
       width="8"
       height="8"
       x="0"
       y="0">
      <path
         d="M8 4 l-4,4"
         stroke="#000000"
         stroke-width="0.25"
         linecap="square"
         id="path44" />
      <path
         d="M6 2 l-4,4"
         stroke="#000000"
         stroke-width="0.25"
         linecap="square"
         id="path46" />
      <path
         d="M4 0 l-4,4"
         stroke="#000000"
         stroke-width="0.25"
         linecap="square"
         id="path48" />
    </pattern>
    <symbol
       id="*Model_Space" />
    <symbol
       id="*Paper_Space" />
    <symbol
       id="*Paper_Space0" />
  </defs>
  <g
     inkscape:groupmode="layer"
     inkscape:label="0"
     id="g292">
    <path
       d="M 390.720015,545.949085 C 390.718126,548.358016 390.716237,550.766947 390.709115,553.175864 C 390.702767,555.322748 390.692263,557.469621 390.677093,559.616471 C 390.644921,564.169508 390.591765,568.722444 390.504614,573.274782 C 390.417584,577.820812 390.296653,582.366246 390.126443,586.910011 C 389.956504,591.446520 389.737442,595.981364 389.450367,600.511911 C 389.306987,602.774698 389.146641,605.036414 388.966733,607.296568 C 388.786922,609.555499 388.587569,611.812870 388.367821,614.068325 C 387.928437,618.578065 387.407509,623.080146 386.794813,627.569854 C 386.181479,632.064230 385.476186,636.546207 384.664653,641.009065 C 383.850388,645.486949 382.929166,649.945584 381.880717,654.375013 C 380.824749,658.836207 379.639723,663.267774 378.292867,667.649396 C 377.620141,669.837925 376.907041,672.013995 376.150119,674.174784 C 375.398910,676.319260 374.604538,678.448686 373.766030,680.560597 C 372.932634,682.659631 372.055638,684.741363 371.135091,686.803657 C 370.218580,688.856907 369.258901,690.890890 368.257720,692.904206 C 367.259123,694.912326 366.219238,696.899886 365.141647,698.866715 C 364.065028,700.831770 362.950770,702.776130 361.804247,704.701230 C 359.509133,708.554901 357.084724,712.331388 354.577149,716.050869 C 352.061618,719.782152 349.462392,723.456066 346.793969,727.078927 C 344.114371,730.716958 341.364995,734.303508 338.562504,737.847772 C 335.749288,741.405601 332.882550,744.920820 329.976542,748.403115 C 327.069648,751.886470 324.123460,755.336881 321.152059,758.765319 C 318.180294,762.194178 315.183311,765.601058 312.174834,768.997701 C 310.670446,770.696191 309.163183,772.392121 307.655447,774.087630 C 306.147699,775.783151 304.639477,777.478251 303.134224,779.175993 C 301.629066,780.873628 300.126876,782.573905 298.630909,784.279638 C 297.135082,785.985211 295.645477,787.696240 294.165273,789.415436 C 291.204878,792.853812 288.282085,796.324858 285.412561,799.839521 C 282.541333,803.356271 279.723437,806.916689 276.962844,810.520996 C 274.203757,814.123337 271.501911,817.769520 268.853634,821.453978 C 267.530393,823.294958 266.220526,825.145494 264.923608,827.005055 C 264.275243,827.934700 263.630115,828.866600 262.987595,829.800297 C 262.345101,830.733958 261.705215,831.669416 261.070991,832.608725 C 260.436728,833.548090 259.808127,834.491308 259.191243,835.442196 C 258.574004,836.393631 257.968495,837.352745 257.380785,838.322744 C 256.791887,839.294703 256.220859,840.277591 255.675183,841.274536 C 255.126712,842.276588 254.603853,843.292842 254.116110,844.325897 C 253.628367,845.358954 253.175742,846.408812 252.770356,847.477166 C 252.368047,848.537409 252.012265,849.615868 251.717572,850.710676 C 251.570238,851.258031 251.438175,851.809473 251.323434,852.364496 C 251.208207,852.921873 251.110450,853.482863 251.029056,854.046273 C 250.864821,855.183099 250.767203,856.329783 250.727138,857.478026 C 250.687306,858.619632 250.704363,859.762778 250.771902,860.902827 C 250.839287,862.040301 250.956926,863.174691 251.120742,864.302332 C 251.285380,865.435629 251.496661,866.562110 251.752436,867.678235 C 252.008358,868.794996 252.308826,869.901389 252.655162,870.994001 C 253.342475,873.162318 254.210432,875.276362 255.264020,877.295002 C 256.323717,879.325347 257.571203,881.259178 258.991678,883.052974 C 259.695820,883.942173 260.442470,884.796962 261.228846,885.613528 C 262.016563,886.431486 262.844142,887.211089 263.709236,887.947720 C 265.452985,889.432531 267.349154,890.742745 269.348543,891.863285 C 271.341669,892.980316 273.437370,893.908859 275.589974,894.670982 C 277.745477,895.434133 279.958037,896.030415 282.197021,896.490826 C 284.337029,896.930885 286.501176,897.246820 288.674548,897.463497 C 291.032201,897.698546 293.400709,897.816790 295.769872,897.844336 C 300.304148,897.897053 304.840819,897.617546 309.349927,897.124932 C 313.831360,896.635342 318.285567,895.935253 322.711736,895.091635 C 327.143742,894.246904 331.547637,893.258263 335.925925,892.169375 C 340.319614,891.076656 344.687517,889.882982 349.034613,888.618673 C 353.380811,887.354626 357.706211,886.019975 362.016169,884.637704 C 366.320021,883.257392 370.608474,881.829596 374.887197,880.373497 C 377.025449,879.645824 379.161270,878.911084 381.295431,878.171547 C 383.429218,877.432141 385.561345,876.687940 387.692609,875.941288 C 389.823698,875.194698 391.953925,874.445656 394.084104,873.696478 C 396.214284,872.947301 398.344416,872.197987 400.475590,871.451646 C 404.738442,869.958789 409.005462,868.477829 413.274633,867.003127 C 415.409421,866.265706 417.544747,865.529849 419.680161,864.794249 C 421.815598,864.058641 423.951123,863.323290 426.086312,862.586964 C 428.221417,861.850667 430.356187,861.113395 432.490034,860.373461 C 434.623677,859.633598 436.756399,858.891073 438.887585,858.144156 C 441.018456,857.397350 443.147792,856.646154 445.274669,855.888053 C 447.401144,855.130095 449.525160,854.365233 451.645997,853.591609 C 455.886614,852.044747 460.114518,850.462850 464.327944,848.843278 C 468.540980,847.223856 472.739541,845.566765 476.922489,843.871167 C 481.106394,842.175183 485.274679,840.440674 489.428163,838.671511 C 493.583675,836.901485 497.724372,835.096770 501.853255,833.265532 C 505.984453,831.433268 510.103823,829.574451 514.215989,827.699896 C 518.329939,825.824528 522.436679,823.933409 526.539540,822.033933 C 530.643454,820.133969 534.743489,818.225643 538.842233,816.314557 C 540.891785,815.358930 542.941014,814.402614 544.990214,813.446233 C 547.039415,812.489852 549.088587,811.533406 551.138011,810.577502 C 555.236628,808.665801 559.336254,806.756266 563.438751,804.852896 C 567.540280,802.949976 571.644677,801.053219 575.753720,799.166600 C 579.861033,797.280775 583.972989,795.405079 588.091047,793.542737 C 596.320189,789.821207 604.573700,786.153004 612.861580,782.564319 C 614.931966,781.667834 617.004496,780.776311 619.079170,779.889811 C 621.153201,779.003585 623.229375,778.122379 625.308172,777.247355 C 629.463500,775.498261 633.629312,773.773870 637.811874,772.090801 C 641.991198,770.409035 646.187246,768.768528 650.405052,767.185561 C 654.621045,765.603275 658.858776,764.078479 663.121841,762.627514 C 667.387156,761.175783 671.677831,759.797961 675.995761,758.510804 C 680.323434,757.220743 684.678484,756.021756 689.060704,754.930628 C 693.464479,753.834134 697.895692,752.846563 702.351201,751.983975 C 706.845487,751.113881 711.364495,750.370955 715.903814,749.773419 C 724.978230,748.578905 734.133817,747.965413 743.286751,747.846528 C 747.824485,747.787588 752.361567,747.850216 756.894741,748.025099 C 761.419485,748.199657 765.940335,748.486052 770.451806,748.877794 C 774.965591,749.269738 779.469987,749.767138 783.960969,750.365416 C 788.463577,750.965243 792.952701,751.666473 797.423948,752.466891 C 801.015243,753.109784 804.595005,753.816667 808.160911,754.587494 C 810.846908,755.168114 813.525044,755.785015 816.194108,756.438908 C 818.870555,757.094610 821.537881,757.787509 824.195315,758.516690 C 828.612819,759.728821 833.002987,761.041211 837.364448,762.442076 C 841.717909,763.840371 846.042768,765.326819 850.341868,766.883824 C 854.639628,768.440344 858.911645,770.067379 863.164237,771.743058 C 865.291152,772.581142 867.413208,773.431394 869.531511,774.290904 C 871.650359,775.150636 873.765452,776.019631 875.877904,776.894976 C 877.990824,777.770516 880.101101,778.652408 882.209909,779.537793 C 884.319012,780.423301 886.426646,781.312302 888.533853,782.202313 C 890.641167,783.092368 892.748054,783.983432 894.855065,784.874202 C 896.962055,785.764962 899.069169,786.655428 901.177032,787.544125 C 905.391565,789.321014 909.609095,791.090830 913.834124,792.842647 C 918.054834,794.592672 922.283028,796.324736 926.523078,798.027431 C 930.756658,799.727527 935.002058,801.398345 939.263821,803.026622 C 943.517702,804.651888 947.787886,806.234771 952.078690,807.760050 C 956.361596,809.282522 960.665048,810.747601 964.992451,812.138924 C 969.314259,813.528449 973.659956,814.844408 978.031455,816.068767 C 982.402891,817.293109 986.800127,818.425854 991.219528,819.464156 C 995.646727,820.504290 1000.096168,821.449648 1004.563818,822.299460 C 1009.047571,823.152335 1013.549665,823.908973 1018.065511,824.570436 C 1022.605686,825.235462 1027.159761,825.804283 1031.724089,826.279691 C 1040.907656,827.236227 1050.132726,827.814601 1059.363041,828.053715 C 1063.967920,828.173005 1068.574104,828.207858 1073.179651,828.166806 C 1075.480765,828.146294 1077.781720,828.106834 1080.082158,828.046343 C 1082.382345,827.985860 1084.682015,827.904352 1086.980306,827.792786 C 1089.279607,827.681171 1091.577527,827.539472 1093.872596,827.360372 C 1096.171132,827.181002 1098.466808,826.964117 1100.757497,826.702364 C 1103.055573,826.439768 1105.348630,826.132014 1107.633500,825.772627 C 1109.930418,825.411345 1112.219063,824.997884 1114.496355,824.526002 C 1119.028550,823.586877 1123.515779,822.416359 1127.919124,820.985936 C 1132.311365,819.559119 1136.620146,817.873705 1140.809860,815.930141 C 1145.033017,813.971062 1149.135198,811.749695 1153.088653,809.294142 C 1155.066660,808.065572 1157.007438,806.778379 1158.910686,805.438198 C 1159.387089,805.102737 1159.861140,804.763956 1160.332517,804.421467 C 1160.804418,804.078597 1161.273638,803.732011 1161.737279,803.378018 C 1162.200803,803.024116 1162.658750,802.662810 1163.106847,802.289504 C 1163.554523,801.916548 1163.992366,801.531615 1164.412288,801.127325 C 1164.833354,800.721933 1165.236403,800.297079 1165.596430,799.835305 C 1165.776612,799.604201 1165.946019,799.363850 1166.083019,799.105546 C 1166.117357,799.040803 1166.149660,798.974932 1166.178170,798.907360 C 1166.192373,798.873698 1166.205635,798.839614 1166.216492,798.804765 C 1166.227202,798.770391 1166.235572,798.735273 1166.242315,798.699873 C 1166.255810,798.629018 1166.262785,798.557033 1166.266073,798.484969 C 1166.269385,798.412360 1166.268953,798.339672 1166.265286,798.267123 C 1166.258021,798.123431 1166.238061,797.980287 1166.207008,797.839601 C 1166.175766,797.698065 1166.133298,797.559016 1166.074964,797.426090 C 1166.016718,797.293364 1165.942656,797.166743 1165.850385,797.055382 C 1165.804268,796.999725 1165.753604,796.947879 1165.699864,796.899596 C 1165.646061,796.851257 1165.589175,796.806489 1165.531107,796.763373 C 1165.299808,796.591627 1165.049766,796.446087 1164.794172,796.312565 C 1164.539357,796.179450 1164.279023,796.058279 1164.015315,795.944949 C 1163.487116,795.717952 1162.945380,795.522412 1162.399392,795.341090 C 1161.855343,795.160413 1161.307072,794.993854 1160.755593,794.838430 C 1159.653737,794.527891 1158.539076,794.261799 1157.418623,794.026046 C 1156.857582,793.907999 1156.295090,793.797558 1155.731653,793.692071 C 1155.167644,793.586476 1154.602688,793.485846 1154.037284,793.387895 C 1153.471781,793.289927 1152.905829,793.194641 1152.339835,793.099600 C 1151.773823,793.004556 1151.207770,792.909757 1150.641732,792.814864 C 1148.377621,792.435298 1146.113764,792.054220 1143.850889,791.667339 C 1141.588134,791.280478 1139.326360,790.887814 1137.066437,790.484732 C 1134.806575,790.081660 1132.548562,789.668169 1130.293287,789.240041 C 1128.037788,788.811870 1125.785028,788.369059 1123.536120,787.907782 C 1121.287331,787.446529 1119.042394,786.966813 1116.802167,786.464492 C 1107.884540,784.464910 1099.041540,782.107127 1090.337668,779.310145 C 1081.650630,776.518572 1073.102183,773.289497 1064.787499,769.520415 C 1056.429394,765.731649 1048.307502,761.397221 1040.605073,756.416986 C 1036.781433,753.944698 1033.061163,751.313262 1029.470825,748.514300 C 1025.877341,745.712885 1022.414018,742.743651 1019.091340,739.625141 C 1015.739473,736.479236 1012.530733,733.181421 1009.472322,729.749875 C 1006.420861,726.326128 1003.519047,722.769258 1000.770985,719.097630 C 998.038036,715.446194 995.457153,711.681259 993.030285,707.819775 C 990.600376,703.953451 988.324869,699.990337 986.203980,695.946304 C 984.068708,691.874847 982.090158,687.721370 980.268056,683.500611 C 978.451642,679.293027 976.790701,675.018581 975.283629,670.690430 C 973.784317,666.384564 972.437293,662.025545 971.260874,657.620543 C 970.084052,653.214031 969.077952,648.761505 968.271601,644.271497 C 967.458753,639.745320 966.848886,635.181053 966.484807,630.597902 C 966.302387,628.301547 966.181672,626.000452 966.128725,623.697781 C 966.076181,621.412619 966.090378,619.125905 966.170101,616.841136 C 966.328733,612.294946 966.746797,607.756452 967.395847,603.252840 C 968.046985,598.734735 968.930598,594.251736 969.998816,589.815252 C 970.536970,587.580209 971.121977,585.356972 971.747289,583.145093 C 972.373709,580.929292 973.040577,578.724890 973.741375,576.531429 C 974.441194,574.341030 975.174848,572.161542 975.936056,569.991767 C 976.696892,567.823052 977.485256,565.664041 978.295497,563.513313 C 979.105851,561.362283 979.938089,559.219539 980.786969,557.083440 C 981.636130,554.946635 982.501944,552.816480 983.378307,550.690699 C 984.254975,548.564177 985.142199,546.442032 986.033398,544.321567 C 986.479065,543.261172 986.925727,542.201197 987.372718,541.141361 C 987.819721,540.081497 988.267053,539.021772 988.713928,537.961854 C 989.607596,535.842211 990.499438,533.721797 991.382813,531.597830 C 992.265907,529.474539 993.140540,527.347698 993.997986,525.213919 C 994.445674,524.099834 994.888677,522.983858 995.325034,521.865297 C 995.724071,520.842400 996.117550,519.817342 996.504876,518.789917 C 996.929617,517.663246 997.346958,516.533729 997.749076,515.398847 C 998.114607,514.367221 998.467559,513.331162 998.820510,512.295103"
       style="fill:none;stroke:#000000;stroke-width:1;stroke-linecap:round;stroke-opacity:1;stroke-dasharray:none"
       id="path56" />
    <path
       d="M 998.820511,512.295102 C 999.130234,512.382187 999.439881,512.469250 999.750867,512.551390 C 1000.062688,512.633750 1000.375855,512.711161 1000.689750,512.785683 C 1001.004528,512.860415 1001.320038,512.932242 1001.636192,513.001241 C 1001.953185,513.070422 1002.270826,513.136760 1002.588899,513.200938 C 1003.213859,513.327036 1003.840490,513.444794 1004.468505,513.555690 C 1005.113841,513.669645 1005.760639,513.776354 1006.407119,513.883010"
       style="fill:none;stroke:#000000;stroke-width:1;stroke-linecap:round;stroke-opacity:1;stroke-dasharray:none"
       id="path58" />
    <path
       d="M 1006.407119,513.883010 C 1002.284483,526.630041 994.871088,542.781533 988.738764,557.993927 C 979.513716,580.878413 973.187752,601.637710 973.862828,624.142467 C 974.287958,638.314899 977.489621,653.179559 982.381421,667.339632 C 992.608363,696.943101 1010.222441,723.467008 1034.707909,742.270488 C 1057.924242,760.099342 1087.318106,770.987362 1116.144931,777.603592 C 1128.410901,780.418834 1140.574206,782.460647 1152.496841,784.459335 C 1156.086733,785.061138 1159.654805,785.659031 1163.421721,786.839445 C 1165.926002,787.624195 1168.518167,788.666403 1170.378645,790.374479 C 1171.700686,791.588224 1172.653268,793.138193 1173.167534,794.917570 C 1173.681200,796.694872 1173.757570,798.701047 1173.232296,800.546307 C 1172.078012,804.601243 1168.018419,807.879127 1163.949592,810.813240 C 1134.684332,831.917009 1104.941350,835.236538 1076.931324,835.781760 C 1041.077157,836.479671 1008.062477,832.631819 975.424544,823.505387 C 960.861548,819.433187 946.373560,814.310058 931.801441,808.641801 C 915.389086,802.257730 898.870011,795.182155 883.089643,788.524850 C 860.705728,779.081688 839.808128,770.480105 815.532140,764.395116 C 786.057278,757.006984 751.602073,753.328760 719.154082,757.257666 C 686.433869,761.219534 655.754691,772.916709 626.686155,785.214877 C 587.732603,801.695146 551.671372,819.254653 519.510021,833.952000 C 498.059563,843.754599 478.343931,852.283993 452.349862,861.671827 C 438.237165,866.768669 422.273823,872.118546 404.835491,878.218975 C 352.916545,896.381715 287.922924,921.197539 257.361543,891.837351 C 251.919742,886.609436 247.569644,879.663825 245.200502,871.133750 C 243.395568,864.635105 242.740414,857.216811 244.124981,850.315521 C 245.935093,841.293131 251.231413,833.154384 256.234209,825.835469 C 274.307909,799.394282 288.550604,783.653334 303.621389,766.695602 C 319.616180,748.698172 336.543715,729.330179 350.348247,708.278599 C 358.261286,696.211405 365.148163,683.591015 370.486570,666.897890 C 375.833466,650.178219 379.626963,629.372849 381.460251,605.716431 C 382.868196,587.548557 383.119995,567.699113 383.119995,545.958594"
       style="fill:none;stroke:#000000;stroke-width:1;stroke-linecap:round;stroke-opacity:1;stroke-dasharray:none"
       id="path60" />
    <path
       d="M 383.120003,545.958594 C 385.650024,545.955428 388.183359,545.952258 390.720015,545.949085"
       style="fill:none;stroke:#000000;stroke-width:1;stroke-linecap:round;stroke-opacity:1;stroke-dasharray:none"
       id="path62" />
    <path
       d="M 998.820511,512.295102 C 995.819891,511.515709 993.331623,510.488505 991.011303,508.926322 C 988.987113,507.563512 987.090739,505.793562 985.900477,503.625196 C 984.776481,501.577550 984.282163,499.174614 983.819300,496.700954 C 981.371629,483.619983 979.803560,468.561265 978.665337,455.605608 C 977.517039,442.535259 976.806231,431.605371 976.883457,419.590754 C 976.999206,401.582829 978.885276,381.138057 981.844419,360.507345 C 982.593998,355.281396 983.412430,350.043517 984.413459,346.344869 C 984.905029,344.528591 985.440632,343.083492 986.556193,341.421990 C 988.303857,338.819043 991.474917,335.684978 994.807620,334.087819 C 997.137193,332.971399 999.545746,332.605922 1004.191112,332.605922"
       style="fill:none;stroke:#000000;stroke-width:1;stroke-linecap:round;stroke-opacity:1;stroke-dasharray:none"
       id="path64" />
    <path
       d="M 1073.765996,332.605922 C 1074.140413,331.533626 1074.514829,330.461329 1074.892270,329.390092 C 1075.269652,328.319024 1075.650058,327.249015 1076.035149,326.180700 C 1076.805121,324.044650 1077.593825,321.915369 1078.401661,319.793226 C 1080.017284,315.549065 1081.709428,311.333458 1083.491341,307.156567 C 1083.937102,306.111680 1084.388481,305.069215 1084.843049,304.028145 C 1085.297728,302.986817 1085.755597,301.946883 1086.213943,300.907162 C 1086.672307,299.867400 1087.131147,298.827849 1087.587752,297.787313 C 1088.044291,296.746925 1088.498595,295.705552 1088.947830,294.661985 C 1089.396999,293.618572 1089.841100,292.572967 1090.277530,291.524160 C 1090.713942,290.475399 1091.142682,289.423437 1091.560273,288.367006 C 1091.977957,287.310339 1092.384485,286.249201 1092.767473,285.179389 C 1093.149350,284.112682 1093.507823,283.037352 1093.827734,281.950342 C 1094.146582,280.866940 1094.427123,279.771935 1094.646965,278.663521 C 1094.867988,277.549152 1095.027659,276.421228 1095.095540,275.287617 C 1095.163679,274.149698 1095.139329,273.006047 1095.041911,271.869521 C 1094.944682,270.735201 1094.774667,269.607977 1094.541811,268.494490 C 1094.424772,267.934825 1094.291858,267.378631 1094.144227,266.826324 C 1093.997378,266.276943 1093.835969,265.731408 1093.656923,265.191606 C 1093.478539,264.653803 1093.282649,264.121689 1093.064188,263.598835 C 1092.845356,263.075094 1092.603876,262.560644 1092.337452,262.059379 C 1092.068238,261.552867 1091.773554,261.059817 1091.455129,260.582703 C 1091.137331,260.106529 1090.795886,259.646228 1090.435291,259.201641 C 1090.076828,258.759681 1089.699441,258.333250 1089.307781,257.920471 C 1088.915827,257.507380 1088.509577,257.107962 1088.090914,256.722015 C 1087.670077,256.334065 1087.236696,255.959728 1086.791564,255.599911 C 1086.346642,255.240265 1085.889979,254.895125 1085.421342,254.566890 C 1084.955939,254.240921 1084.478726,253.931623 1083.989166,253.643306 C 1083.500243,253.355365 1082.999006,253.088349 1082.486947,252.843360 C 1081.454780,252.349529 1080.378644,251.945190 1079.276964,251.632921 C 1078.181764,251.322490 1077.061320,251.103050 1075.932010,250.967798 C 1075.365633,250.899965 1074.797026,250.853309 1074.227496,250.825773 C 1073.654681,250.798079 1073.080931,250.789728 1072.507445,250.797160 C 1071.369744,250.811906 1070.233077,250.888773 1069.100910,251.003275 C 1067.974296,251.117216 1066.852138,251.268425 1065.732764,251.437529 C 1064.614216,251.606509 1063.498449,251.793358 1062.385209,251.994152 C 1060.157480,252.395968 1057.939874,252.853629 1055.730149,253.345338 C 1053.517009,253.837806 1051.311774,254.364427 1049.110504,254.906904 C 1048.009061,255.178342 1046.908611,255.453750 1045.808640,255.731059 C 1044.708534,256.008402 1043.608908,256.287648 1042.509219,256.566644 C 1041.409552,256.845634 1040.309822,257.124375 1039.209540,257.400927 C 1038.109411,257.677440 1037.008729,257.951765 1035.906802,258.221053 C 1033.703643,258.759459 1031.495506,259.277728 1029.282464,259.774024 C 1027.069754,260.270245 1024.852141,260.744499 1022.631008,261.201528 C 1018.187523,262.115838 1013.729954,262.961211 1009.265000,263.764724 C 1004.798104,264.568587 1000.323817,265.330554 995.842585,266.049464 C 991.364516,266.767867 986.879513,267.443275 982.388532,268.076314 C 977.900080,268.708998 973.405657,269.299361 968.905896,269.845422 C 964.407078,270.391368 959.902926,270.893031 955.393699,271.346830 C 946.370542,272.254899 937.327066,272.971310 928.270860,273.458121 C 919.234099,273.943887 910.184663,274.201039 901.134233,274.189290 C 892.172853,274.177657 883.210498,273.902390 874.268913,273.320300 C 869.823866,273.030931 865.383952,272.665738 860.951883,272.221441 C 856.531179,271.778285 852.118279,271.256431 847.716231,270.655013 C 843.319979,270.054388 838.934549,269.374408 834.563122,268.614324 C 830.191767,267.854253 825.834415,267.014080 821.491890,266.103203 C 812.790227,264.277964 804.148101,262.168828 795.563175,259.852846 C 786.940139,257.526584 778.374813,254.991637 769.862721,252.290990 C 765.589829,250.935322 761.330352,249.537901 757.083119,248.104265 C 752.824777,246.666880 748.578744,245.193090 744.343158,243.689799 C 735.854477,240.677001 727.407763,237.545707 718.997642,234.320130 C 714.792646,232.707366 710.596797,231.071033 706.408747,229.414960 C 704.314678,228.586907 702.222560,227.753919 700.131992,226.917063 C 698.041363,226.080182 695.952285,225.239434 693.863786,224.397253 C 691.775256,223.555058 689.687305,222.711431 687.599091,221.868453 C 685.510877,221.025474 683.422401,220.183146 681.332848,219.343487 C 679.243383,218.503863 677.152843,217.666908 675.060445,216.834635 C 672.968732,216.002634 670.875163,215.175312 668.778939,214.354686 C 664.591070,212.715226 660.392605,211.102491 656.177635,209.534034 C 654.072917,208.750835 651.964084,207.978677 649.850291,207.220335 C 647.738525,206.462720 645.621810,205.718894 643.499978,204.989859 C 639.261446,203.533552 635.002499,202.136264 630.724763,200.799156 C 626.451048,199.463304 622.158578,198.187518 617.849960,196.969282 C 615.696075,196.360284 613.538155,195.765668 611.376293,195.185743 C 609.214209,194.605759 607.048183,194.040469 604.877778,193.492237 C 600.534073,192.395041 596.172830,191.366168 591.791831,190.427383 C 587.399614,189.486195 582.987540,188.635555 578.554189,187.912150 C 574.093729,187.184322 569.611731,186.585288 565.115693,186.124508 C 560.603776,185.662100 556.077720,185.338925 551.546671,185.139099 C 547.041211,184.940402 542.530813,184.863667 538.021111,184.886295 C 533.524128,184.908859 529.027838,185.030227 524.536232,185.249530 C 520.047985,185.468669 515.564417,185.785595 511.090562,186.206524 C 506.610625,186.628025 502.140428,187.153811 497.686906,187.799740 C 493.213558,188.448544 488.757034,189.218564 484.332743,190.142467 C 482.105945,190.607479 479.887312,191.111473 477.679834,191.660728 C 475.476021,192.209072 473.283327,192.802527 471.104782,193.444122 C 468.937371,194.082438 466.783965,194.768403 464.647128,195.502602 C 462.517204,196.234426 460.403743,197.014174 458.308392,197.839758 C 456.215596,198.664335 454.140867,199.534637 452.084081,200.445247 C 450.026185,201.356350 447.986253,202.307804 445.966103,203.300091 C 441.909069,205.292884 437.931824,207.450362 434.067046,209.799708 C 429.627093,212.498695 425.335574,215.450909 421.283071,218.698698 C 419.768742,219.912323 418.287788,221.167220 416.846726,222.466631 C 415.402929,223.768507 413.999175,225.115065 412.640677,226.505977 C 411.046472,228.138219 409.514589,229.831541 408.050367,231.581485 C 406.593634,233.322478 405.203873,235.119516 403.887254,236.968727 C 402.577486,238.808316 401.340100,240.699537 400.181424,242.637904 C 399.021448,244.578445 397.940358,246.566239 396.944862,248.596125 C 395.941304,250.642449 395.024731,252.731550 394.201989,254.857117 C 393.387132,256.962314 392.664316,259.103281 392.041122,261.272938 C 391.430116,263.400160 390.914874,265.554959 390.503320,267.729871 C 390.096481,269.879863 389.790968,272.049509 389.595742,274.228277 C 389.498389,275.314755 389.428460,276.403502 389.380082,277.493150 C 389.331667,278.583641 389.304835,279.675034 389.293633,280.766526 C 389.282414,281.859711 389.286874,282.952996 389.301560,284.046113 C 389.316267,285.140834 389.341230,286.235388 389.371491,287.329779 C 389.401778,288.425154 389.437373,289.520366 389.473527,290.615559 C 389.509685,291.710864 389.546403,292.806151 389.579062,293.901568 C 389.611698,294.996249 389.640280,296.091061 389.661138,297.186034 C 389.671873,297.749554 389.680562,298.313117 389.685721,298.876709 C 389.690574,299.406877 389.692304,299.937070 389.694034,300.467264"
       style="fill:none;stroke:#000000;stroke-width:1;stroke-linecap:round;stroke-opacity:1;stroke-dasharray:none"
       id="path66" />
    <path
       d="M 382.096036,300.958550 C 382.096036,292.134618 381.243040,283.140586 382.010118,274.271338 C 382.705723,266.228485 384.733565,258.288245 387.824530,250.779450 C 392.722381,238.881237 400.289585,228.066323 409.698784,219.059600 C 420.739794,208.490867 434.317105,200.411890 447.509545,194.399694 C 457.691653,189.759397 467.644496,186.350275 478.700455,183.770724 C 498.544158,179.140838 521.941507,177.183382 542.859357,177.393561 C 555.798317,177.523570 567.788578,178.482954 580.318032,180.539507 C 592.051123,182.465346 604.257044,185.353316 616.095301,188.592024 C 627.880708,191.816274 639.301725,195.388137 650.833638,199.474937 C 669.036230,205.925763 687.515119,213.659563 704.961599,220.622060 C 717.255227,225.528171 729.036234,230.051307 741.207931,234.458617 C 755.698400,239.705541 770.742594,244.788305 786.329977,249.337868 C 800.628356,253.511204 815.383800,257.235879 829.827153,259.992359 C 850.932109,264.020192 871.370696,265.980762 892.234962,266.415850 C 912.843224,266.845599 933.866782,265.787071 955.224509,263.598285 C 974.200586,261.653576 993.440460,258.816629 1011.147419,255.514887 C 1018.101802,254.218132 1024.819731,252.849682 1031.781734,251.178561 C 1042.084293,248.705591 1052.921348,245.569806 1063.495760,243.941555 C 1067.337021,243.350077 1071.143624,242.957529 1074.998014,243.272326 C 1079.307231,243.624271 1083.676177,244.860347 1087.763989,247.344957 C 1090.811450,249.197232 1093.702664,251.743404 1095.853224,254.329685 C 1098.522718,257.540040 1100.050990,260.812197 1101.117155,264.496712 C 1102.195226,268.222368 1102.800813,272.369644 1102.533490,276.479858 C 1102.181808,281.887136 1100.319356,287.230270 1098.267605,292.374177 C 1095.764427,298.649848 1092.979486,304.628979 1090.382369,310.708672 C 1087.248620,318.044587 1084.388334,325.526912 1081.759891,333.034134"
       style="fill:none;stroke:#000000;stroke-width:1;stroke-linecap:round;stroke-opacity:1;stroke-dasharray:none"
       id="path70" />
    <path
       d="M 1081.759890,333.034134 C 1079.098747,332.891584 1076.434118,332.748846 1073.765996,332.605922"
       style="fill:none;stroke:#000000;stroke-width:1;stroke-linecap:round;stroke-opacity:1;stroke-dasharray:none"
       id="path72" />
    <path
       d="M 550.631247,299.002821 A 5.149175,5.149175 0.000000 0, 0 540.332896,299.002821 A 5.149175,5.149175 0.000000 0, 0 550.631247,299.002821 z"
       style="fill:none;stroke:#000000;stroke-width:1;stroke-linecap:round;stroke-opacity:1;stroke-dasharray:none"
       id="path74" />
    <path
       d="M 506.848879,547.413527 A 5.149175,5.149175 0.000000 0, 0 496.550528,547.413527 A 5.149175,5.149175 0.000000 0, 0 506.848879,547.413527 z"
       style="fill:none;stroke:#000000;stroke-width:1;stroke-linecap:round;stroke-opacity:1;stroke-dasharray:none"
       id="path76" />
    <path
       d="M 713.632261,549.714773 A 5.149175,5.149175 0.000000 0, 0 703.333911,549.714773 A 5.149175,5.149175 0.000000 0, 0 713.632261,549.714773 z"
       style="fill:none;stroke:#000000;stroke-width:1;stroke-linecap:round;stroke-opacity:1;stroke-dasharray:none"
       id="path78" />
    <path
       d="M 713.632261,296.701575 A 5.149175,5.149175 0.000000 0, 0 703.333911,296.701575 A 5.149175,5.149175 0.000000 0, 0 713.632261,296.701575 z"
       style="fill:none;stroke:#000000;stroke-width:1;stroke-linecap:round;stroke-opacity:1;stroke-dasharray:none"
       id="path80" />
    <path
       d="M 909.320481,296.878287 A 5.149175,5.149175 0.000000 0, 0 899.022130,296.878287 A 5.149175,5.149175 0.000000 0, 0 909.320481,296.878287 z"
       style="fill:none;stroke:#000000;stroke-width:1;stroke-linecap:round;stroke-opacity:1;stroke-dasharray:none"
       id="path82" />
    <path
       d="M 909.320481,549.538062 A 5.149175,5.149175 0.000000 0, 0 899.022130,549.538062 A 5.149175,5.149175 0.000000 0, 0 909.320481,549.538062 z"
       style="fill:none;stroke:#000000;stroke-width:1;stroke-linecap:round;stroke-opacity:1;stroke-dasharray:none"
       id="path84" />
    <path
       d="M 524.308165,782.133760 A 5.149175,5.149175 0.000000 0, 0 514.009814,782.133760 A 5.149175,5.149175 0.000000 0, 0 524.308165,782.133760 z"
       style="fill:none;stroke:#000000;stroke-width:1;stroke-linecap:round;stroke-opacity:1;stroke-dasharray:none"
       id="path86" />
    <path
       d="M 623.349358,691.281338 A 5.149175,5.149175 0.000000 0, 0 613.051007,691.281338 A 5.149175,5.149175 0.000000 0, 0 623.349358,691.281338 z"
       style="fill:none;stroke:#000000;stroke-width:1;stroke-linecap:round;stroke-opacity:1;stroke-dasharray:none"
       id="path88" />
    <path
       d="M 508.669988,600.611792 A 15.447526,15.447526 0.000000 0, 0 477.774936,600.611792 A 15.447526,15.447526 0.000000 0, 0 508.669988,600.611792 z"
       style="fill:none;stroke:#000000;stroke-width:1;stroke-linecap:round;stroke-opacity:1;stroke-dasharray:none"
       id="path90" />
    <path
       d="M 441.335747,727.626133 A 15.447526,15.447526 0.000000 0, 0 410.440695,727.626133 A 15.447526,15.447526 0.000000 0, 0 441.335747,727.626133 z"
       style="fill:none;stroke:#000000;stroke-width:1;stroke-linecap:round;stroke-opacity:1;stroke-dasharray:none"
       id="path92" />
    <path
       d="M 347.037650,836.433350 A 15.447526,15.447526 0.000000 0, 0 316.142598,836.433350 A 15.447526,15.447526 0.000000 0, 0 347.037650,836.433350 z"
       style="fill:none;stroke:#000000;stroke-width:1;stroke-linecap:round;stroke-opacity:1;stroke-dasharray:none"
       id="path94" />
    <path
       d="M 419.383048,260.439991 A 9.268516,9.268516 0.000000 0, 0 400.846017,260.439991 A 9.268516,9.268516 0.000000 0, 0 419.383048,260.439991 z"
       style="fill:none;stroke:#000000;stroke-width:1;stroke-linecap:round;stroke-opacity:1;stroke-dasharray:none"
       id="path96" />
    <path
       d="M 752.382609,259.480004 A 9.268516,9.268516 0.000000 0, 0 733.845578,259.480004 A 9.268516,9.268516 0.000000 0, 0 752.382609,259.480004 z"
       style="fill:none;stroke:#000000;stroke-width:1;stroke-linecap:round;stroke-opacity:1;stroke-dasharray:none"
       id="path98" />
    <path
       d="M 586.374420,205.317887 A 9.268516,9.268516 0.000000 0, 0 567.837389,205.317887 A 9.268516,9.268516 0.000000 0, 0 586.374420,205.317887 z"
       style="fill:none;stroke:#000000;stroke-width:1;stroke-linecap:round;stroke-opacity:1;stroke-dasharray:none"
       id="path100" />
    <path
       d="M 1081.014761,273.727573 A 9.268516,9.268516 0.000000 0, 0 1062.477730,273.727573 A 9.268516,9.268516 0.000000 0, 0 1081.014761,273.727573 z"
       style="fill:none;stroke:#000000;stroke-width:1;stroke-linecap:round;stroke-opacity:1;stroke-dasharray:none"
       id="path102" />
    <path
       d="M 978.607052,536.156520 A 9.268516,9.268516 0.000000 0, 0 960.070021,536.156520 A 9.268516,9.268516 0.000000 0, 0 978.607052,536.156520 z"
       style="fill:none;stroke:#000000;stroke-width:1;stroke-linecap:round;stroke-opacity:1;stroke-dasharray:none"
       id="path104" />
    <path
       d="M 942.231219,781.729746 A 9.268516,9.268516 0.000000 0, 0 923.694188,781.729746 A 9.268516,9.268516 0.000000 0, 0 942.231219,781.729746 z"
       style="fill:none;stroke:#000000;stroke-width:1;stroke-linecap:round;stroke-opacity:1;stroke-dasharray:none"
       id="path106" />
    <path
       d="M 1136.444818,803.495396 A 9.268516,9.268516 0.000000 0, 0 1117.907787,803.495396 A 9.268516,9.268516 0.000000 0, 0 1136.444818,803.495396 z"
       style="fill:none;stroke:#000000;stroke-width:1;stroke-linecap:round;stroke-opacity:1;stroke-dasharray:none"
       id="path108" />
    <path
       d="M 635.485025,758.648191 A 9.268516,9.268516 0.000000 0, 0 616.947993,758.648191 A 9.268516,9.268516 0.000000 0, 0 635.485025,758.648191 z"
       style="fill:none;stroke:#000000;stroke-width:1;stroke-linecap:round;stroke-opacity:1;stroke-dasharray:none"
       id="path110" />
    <path
       d="M 473.197142,831.807954 A 9.268516,9.268516 0.000000 0, 0 454.660110,831.807954 A 9.268516,9.268516 0.000000 0, 0 473.197142,831.807954 z"
       style="fill:none;stroke:#000000;stroke-width:1;stroke-linecap:round;stroke-opacity:1;stroke-dasharray:none"
       id="path112" />
    <path
       d="M 291.003590,865.510813 A 9.268516,9.268516 0.000000 0, 0 272.466558,865.510813 A 9.268516,9.268516 0.000000 0, 0 291.003590,865.510813 z"
       style="fill:none;stroke:#000000;stroke-width:1;stroke-linecap:round;stroke-opacity:1;stroke-dasharray:none"
       id="path114" />
    <path
       d="M 414.739034,563.996823 A 9.268516,9.268516 0.000000 0, 0 396.202003,563.996823 A 9.268516,9.268516 0.000000 0, 0 414.739034,563.996823 z"
       style="fill:none;stroke:#000000;stroke-width:1;stroke-linecap:round;stroke-opacity:1;stroke-dasharray:none"
       id="path116" />
    <path
       d="M 713.618217,549.717420 A 5.136549,5.136549 0.000000 0, 0 703.345118,549.717420 A 5.136549,5.136549 0.000000 0, 0 713.618217,549.717420 z"
       style="fill:none;stroke:#000000;stroke-width:1;stroke-linecap:round;stroke-opacity:1;stroke-dasharray:none"
       id="path118" />
    <path
       d="M 907.943204,300.380976 L 908.435608,299.466566 L 908.826605,297.500894"
       style="fill:none;stroke:#000000;stroke-width:1;stroke-linecap:round;stroke-opacity:1;stroke-dasharray:none"
       id="path120" />
    <path
       d="M 410.911703,563.983855 A 5.144118,5.144118 0.000000 0, 0 400.623468,563.983855 A 5.144118,5.144118 0.000000 0, 0 410.911703,563.983855 z"
       style="fill:none;stroke:#000000;stroke-width:1;stroke-linecap:round;stroke-opacity:1;stroke-dasharray:none"
       id="path122" />
    <path
       d="M 287.297798,865.201682 A 5.144118,5.144118 0.000000 0, 0 277.009563,865.201682 A 5.144118,5.144118 0.000000 0, 0 287.297798,865.201682 z"
       style="fill:none;stroke:#000000;stroke-width:1;stroke-linecap:round;stroke-opacity:1;stroke-dasharray:none"
       id="path124" />
    <path
       d="M 469.312390,831.531927 A 5.144118,5.144118 0.000000 0, 0 459.024155,831.531927 A 5.144118,5.144118 0.000000 0, 0 469.312390,831.531927 z"
       style="fill:none;stroke:#000000;stroke-width:1;stroke-linecap:round;stroke-opacity:1;stroke-dasharray:none"
       id="path126" />
    <path
       d="M 631.440865,758.444026 A 5.144118,5.144118 0.000000 0, 0 621.152630,758.444026 A 5.144118,5.144118 0.000000 0, 0 631.440865,758.444026 z"
       style="fill:none;stroke:#000000;stroke-width:1;stroke-linecap:round;stroke-opacity:1;stroke-dasharray:none"
       id="path128" />
    <path
       d="M 1131.908589,803.247179 A 5.144118,5.144118 0.000000 0, 0 1121.620354,803.247179 A 5.144118,5.144118 0.000000 0, 0 1131.908589,803.247179 z"
       style="fill:none;stroke:#000000;stroke-width:1;stroke-linecap:round;stroke-opacity:1;stroke-dasharray:none"
       id="path130" />
    <path
       d="M 974.225860,536.170898 A 5.144118,5.144118 0.000000 0, 0 963.937625,536.170898 A 5.144118,5.144118 0.000000 0, 0 974.225860,536.170898 z"
       style="fill:none;stroke:#000000;stroke-width:1;stroke-linecap:round;stroke-opacity:1;stroke-dasharray:none"
       id="path132" />
    <path
       d="M 582.378499,205.657232 A 5.144118,5.144118 0.000000 0, 0 572.090264,205.657232 A 5.144118,5.144118 0.000000 0, 0 582.378499,205.657232 z"
       style="fill:none;stroke:#000000;stroke-width:1;stroke-linecap:round;stroke-opacity:1;stroke-dasharray:none"
       id="path134" />
    <path
       d="M 748.223626,259.766148 A 5.144118,5.144118 0.000000 0, 0 737.935391,259.766148 A 5.144118,5.144118 0.000000 0, 0 748.223626,259.766148 z"
       style="fill:none;stroke:#000000;stroke-width:1;stroke-linecap:round;stroke-opacity:1;stroke-dasharray:none"
       id="path136" />
    <path
       d="M 415.551156,260.725192 A 5.144118,5.144118 0.000000 0, 0 405.262920,260.725192 A 5.144118,5.144118 0.000000 0, 0 415.551156,260.725192 z"
       style="fill:none;stroke:#000000;stroke-width:1;stroke-linecap:round;stroke-opacity:1;stroke-dasharray:none"
       id="path138" />
    <path
       d="M 1076.532978,273.999722 A 5.144118,5.144118 0.000000 0, 0 1066.244743,273.999722 A 5.144118,5.144118 0.000000 0, 0 1076.532978,273.999722 z"
       style="fill:none;stroke:#000000;stroke-width:1;stroke-linecap:round;stroke-opacity:1;stroke-dasharray:none"
       id="path140" />
    <path
       d="M 937.885757,781.502909 A 5.144118,5.144118 0.000000 0, 0 927.597522,781.502909 A 5.144118,5.144118 0.000000 0, 0 937.885757,781.502909 z"
       style="fill:none;stroke:#000000;stroke-width:1;stroke-linecap:round;stroke-opacity:1;stroke-dasharray:none"
       id="path142" />
    <path
       style="fill:none;stroke:#000000;stroke-width:1;stroke-linecap:round;stroke-opacity:1;stroke-dasharray:none"
       d="M 1167.63 788.503 L 1167.4 788.386"
       id="path144" />
    <path
       style="fill:none;stroke:#000000;stroke-width:1;stroke-linecap:round;stroke-opacity:1;stroke-dasharray:none"
       d="M 1004.19 332.606 L 1073.77 332.606"
       id="path150" />
    <path
       style="fill:none;stroke:#000000;stroke-width:1;stroke-linecap:round;stroke-opacity:1;stroke-dasharray:none"
       d="M 1081.58 333.141 L 1081.76 333.034"
       id="path152" />
    <path
       style="fill:none;stroke:#000000;stroke-width:1;stroke-linecap:round;stroke-opacity:1;stroke-dasharray:none"
       d="M 429.707 310.766 L 429.707 535.651"
       id="path154" />
    <path
       style="fill:none;stroke:#000000;stroke-width:1;stroke-linecap:round;stroke-opacity:1;stroke-dasharray:none"
       d="M 389.694 300.467 L 419.409 300.467"
       id="path156" />
    <path
       style="fill:none;stroke:#000000;stroke-width:1;stroke-linecap:round;stroke-opacity:1;stroke-dasharray:none"
       d="M 874.462 338.021 L 874.462 508.395"
       id="path158" />
    <path
       style="fill:none;stroke:#000000;stroke-width:1;stroke-linecap:round;stroke-opacity:1;stroke-dasharray:none"
       d="M 933.88 508.395 L 933.88 338.021"
       id="path160" />
    <path
       style="fill:none;stroke:#000000;stroke-width:1;stroke-linecap:round;stroke-opacity:1;stroke-dasharray:none"
       d="M 678.86 338.021 L 678.86 508.395"
       id="path162" />
    <path
       style="fill:none;stroke:#000000;stroke-width:1;stroke-linecap:round;stroke-opacity:1;stroke-dasharray:none"
       d="M 738.106 508.395 L 738.106 338.021"
       id="path164" />
    <path
       style="fill:none;stroke:#000000;stroke-width:1;stroke-linecap:round;stroke-opacity:1;stroke-dasharray:none"
       d="M 510.134 332.712 L 480.006 503.651"
       id="path166" />
    <path
       style="fill:none;stroke:#000000;stroke-width:1;stroke-linecap:round;stroke-opacity:1;stroke-dasharray:none"
       d="M 537.048 513.704 L 567.176 342.765"
       id="path168" />
    <path
       style="fill:none;stroke:#000000;stroke-width:1;stroke-linecap:round;stroke-opacity:1;stroke-dasharray:none"
       d="M 597.295 706.964 L 536.583 762.656"
       id="path170" />
    <path
       style="fill:none;stroke:#000000;stroke-width:1;stroke-linecap:round;stroke-opacity:1;stroke-dasharray:none"
       d="M 540.064 766.451 L 600.776 710.759"
       id="path172" />
    <path
       style="fill:none;stroke:#000000;stroke-width:1;stroke-linecap:round;stroke-opacity:1;stroke-dasharray:none"
       d="M 419.409 545.949 L 390.72 545.949"
       id="path174" />
    <path
       style="fill:none;stroke:#000000;stroke-width:1;stroke-linecap:round;stroke-opacity:1;stroke-dasharray:none"
       d="M 420.116 301.081 L 419.409 300.467"
       id="path176" />
    <path
       style="fill:none;stroke:#000000;stroke-width:1;stroke-linecap:round;stroke-opacity:1;stroke-dasharray:none"
       d="M 382.256 301.081 L 420.116 301.081"
       id="path178" />
    <path
       style="fill:none;stroke:#000000;stroke-width:1;stroke-linecap:round;stroke-opacity:1;stroke-dasharray:none"
       d="M 382.256 301.081 L 382.096 300.959"
       id="path180" />
    <path
       style="fill:none;stroke:#000000;stroke-width:1;stroke-linecap:round;stroke-opacity:1;stroke-dasharray:none"
       d="M 540.476 765.922 L 540.064 766.451"
       id="path184" />
    <path
       style="fill:none;stroke:#000000;stroke-width:1;stroke-linecap:round;stroke-opacity:1;stroke-dasharray:none"
       d="M 540.476 765.922 L 601.039 710.366"
       id="path186" />
    <path
       style="fill:none;stroke:#000000;stroke-width:1;stroke-linecap:round;stroke-opacity:1;stroke-dasharray:none"
       d="M 601.039 710.366 L 600.776 710.759"
       id="path188" />
    <path
       style="fill:none;stroke:#000000;stroke-width:1;stroke-linecap:round;stroke-opacity:1;stroke-dasharray:none"
       d="M 678.931 508.499 L 678.86 508.395"
       id="path190" />
    <path
       style="fill:none;stroke:#000000;stroke-width:1;stroke-linecap:round;stroke-opacity:1;stroke-dasharray:none"
       d="M 738.032 508.499 L 738.106 508.395"
       id="path192" />
    <path
       style="fill:none;stroke:#000000;stroke-width:1;stroke-linecap:round;stroke-opacity:1;stroke-dasharray:none"
       d="M 678.931 338.543 L 678.86 338.021"
       id="path200" />
    <path
       style="fill:none;stroke:#000000;stroke-width:1;stroke-linecap:round;stroke-opacity:1;stroke-dasharray:none"
       d="M 678.931 338.543 L 678.931 508.499"
       id="path202" />
    <path
       style="fill:none;stroke:#000000;stroke-width:1;stroke-linecap:round;stroke-opacity:1;stroke-dasharray:none"
       d="M 738.032 338.543 L 738.106 338.021"
       id="path204" />
    <path
       style="fill:none;stroke:#000000;stroke-width:1;stroke-linecap:round;stroke-opacity:1;stroke-dasharray:none"
       d="M 738.032 508.499 L 738.032 338.543"
       id="path206" />
    <path
       d="M 419.408516,545.949085 A 10.298351,10.298351 0.000000 0 0 429.706867,535.650734"
       style="fill:none;stroke:#000000;stroke-width:1;stroke-linecap:round;stroke-opacity:1;stroke-dasharray:none"
       id="path212" />
    <path
       d="M 429.706867,310.765614 A 10.298351,10.298351 0.000000 0 0 419.408516,300.467264"
       style="fill:none;stroke:#000000;stroke-width:1;stroke-linecap:round;stroke-opacity:1;stroke-dasharray:none"
       id="path214" />
    <path
       d="M 933.880267,338.021289 A 29.708962,29.708962 0.000000 0 0 874.462343,338.021289"
       style="fill:none;stroke:#000000;stroke-width:1;stroke-linecap:round;stroke-opacity:1;stroke-dasharray:none"
       id="path216" />
    <path
       d="M 874.462343,508.395059 A 29.708962,29.708962 0.000000 0 0 933.880267,508.395059"
       style="fill:none;stroke:#000000;stroke-width:1;stroke-linecap:round;stroke-opacity:1;stroke-dasharray:none"
       id="path218" />
    <path
       d="M 738.106468,338.021289 A 29.623383,29.623383 0.000000 0 0 678.859703,338.021289"
       style="fill:none;stroke:#000000;stroke-width:1;stroke-linecap:round;stroke-opacity:1;stroke-dasharray:none"
       id="path220" />
    <path
       d="M 678.859703,508.395059 A 29.623383,29.623383 0.000000 0 0 738.106468,508.395059"
       style="fill:none;stroke:#000000;stroke-width:1;stroke-linecap:round;stroke-opacity:1;stroke-dasharray:none"
       id="path222" />
    <path
       d="M 567.175600,342.765414 A 28.960311,28.960311 0.000000 0 0 510.134172,332.711867"
       style="fill:none;stroke:#000000;stroke-width:1;stroke-linecap:round;stroke-opacity:1;stroke-dasharray:none"
       id="path224" />
    <path
       d="M 480.006175,503.650934 A 28.960311,28.960311 0.000000 0 0 537.047603,513.704481"
       style="fill:none;stroke:#000000;stroke-width:1;stroke-linecap:round;stroke-opacity:1;stroke-dasharray:none"
       id="path226" />
    <path
       d="M 600.775985,710.758635 A 2.574588,2.574588 0.000000 0 0 597.295215,706.964133"
       style="fill:none;stroke:#000000;stroke-width:1;stroke-linecap:round;stroke-opacity:1;stroke-dasharray:none"
       id="path228" />
    <path
       d="M 536.583187,762.656462 A 2.574588,2.574588 0.000000 0 0 540.063958,766.450964"
       style="fill:none;stroke:#000000;stroke-width:1;stroke-linecap:round;stroke-opacity:1;stroke-dasharray:none"
       id="path230" />
  </g>
</svg>
