<?xml version="1.0" encoding="UTF-8" standalone="no"?>
<!-- Created with Inkscape (http://www.inkscape.org/) -->

<svg
   width="210mm"
   height="297mm"
   viewBox="0 0 210 297"
   version="1.1"
   id="svg928"
   inkscape:version="1.2.1 (9c6d41e410, 2022-07-14)"
   sodipodi:docname="strat-sss-11h_freecad.svg"
   xmlns:inkscape="http://www.inkscape.org/namespaces/inkscape"
   xmlns:sodipodi="http://sodipodi.sourceforge.net/DTD/sodipodi-0.dtd"
   xmlns="http://www.w3.org/2000/svg"
   xmlns:svg="http://www.w3.org/2000/svg">
  <sodipodi:namedview
     id="namedview930"
     pagecolor="#505050"
     bordercolor="#ffffff"
     borderopacity="1"
     inkscape:showpageshadow="0"
     inkscape:pageopacity="0"
     inkscape:pagecheckerboard="1"
     inkscape:deskcolor="#505050"
     inkscape:document-units="mm"
     showgrid="false"
     inkscape:zoom="1.4142136"
     inkscape:cx="18.384776"
     inkscape:cy="67.175144"
     inkscape:current-layer="g2353" />
  <defs
     id="defs925" />
  <g
     inkscape:label="Layer 1"
     inkscape:groupmode="layer"
     id="layer1">
    <g
       id="g2353"
       inkscape:label="Contour"
       transform="matrix(0,-0.264583,0.264583,0,-143.30803,216.25482)"
       style="display:inline">
      <path
         id="path845"
         style="display:inline;fill:none;stroke:#000000;stroke-width:1;stroke-linecap:round;stroke-dasharray:none;stroke-opacity:1"
         d="m 615.28804,539.3417 a 5.1491755,5.1491755 0 0 0 -10.29835,0 5.1491755,5.1491755 0 0 0 10.29835,0 z m 43.78237,-248.41071 a 5.1491755,5.1491755 0 0 0 -10.29835,0 5.1491755,5.1491755 0 0 0 10.29835,0 z"
         inkscape:label="bridge holes" />
      <path
         id="path1142"
         style="display:inline;fill:none;stroke:#000000;stroke-width:1;stroke-linecap:round;stroke-dasharray:none;stroke-opacity:1"
         d="m 588.44533,495.5791 a 28.960312,28.960312 0 0 0 57.04143,10.05355 m 30.128,-170.93907 a 28.960311,28.960311 0 0 0 -57.04143,-10.05354 m 26.91383,180.99213 30.128,-170.939 m -57.042,-10.053 -30.128,170.939"
         inkscape:label="bridge" />
      <path
         id="path856"
         style="display:inline;fill:none;stroke:#000000;stroke-width:1;stroke-linecap:round;stroke-dasharray:none;stroke-opacity:1"
         d="m 1017.7603,541.46623 a 5.1492,5.1492 0 0 0 -10.2984,0 5.1492,5.1492 0 0 0 10.2984,0 z m 0,-252.65977 a 5.1492,5.1492 0 0 0 -10.2984,0 5.1492,5.1492 0 0 0 10.2984,0 z"
         inkscape:label="middle holes" />
      <path
         id="path1125"
         style="display:inline;fill:none;stroke:#000000;stroke-width:1;stroke-linecap:round;stroke-dasharray:none;stroke-opacity:1"
         d="m 982.9015,500.32323 a 29.70928,29.70928 0 0 0 59.4185,0 m 0,-170.37377 a 29.70928,29.70928 0 0 0 -59.4185,0 m 59.4183,170.37371 v -170.374 m -59.41864,0 v 170.374"
         inkscape:label="middle" />
      <path
         id="path852"
         style="display:inline;fill:none;stroke:#000000;stroke-width:1;stroke-linecap:round;stroke-dasharray:none;stroke-opacity:1"
         d="m 822.07142,288.62974 a 5.149175,5.149175 0 0 0 -10.29835,0 5.149175,5.149175 0 0 0 10.29835,0 z m 0,253.0132 a 5.149175,5.149175 0 0 0 -10.29835,0 5.149175,5.149175 0 0 0 10.29835,0 z"
         inkscape:label="middle holes" />
      <path
         id="path1129"
         style="display:inline;fill:none;stroke:#000000;stroke-width:1;stroke-linecap:round;stroke-dasharray:none;stroke-opacity:1"
         d="m 787.29886,500.32323 a 29.623385,29.623385 0 0 0 59.24677,0 m 0,-170.37377 a 29.623385,29.623385 0 0 0 -59.24677,0 m 59.2463,170.37371 v -170.374 m -59.246,0 v 170.374"
         inkscape:label="middle" />
      <path
         id="path2043"
         style="display:inline;fill:none;fill-opacity:1;stroke:#000000;stroke-width:1.00157606;stroke-linecap:round;stroke-dasharray:none;stroke-opacity:1"
         d="m 538.14609,302.69398 v 224.88506 c -7e-5,5.68748 -4.6108,10.29821 -10.29817,10.29817 l -28.68876,-2.4e-4 c -2.53665,0.004 -5.06999,0.007 -7.59991,0.01 10e-5,21.74052 -0.2517,41.58997 -1.65965,59.75784 -1.83329,23.65642 -5.62678,44.46179 -10.97368,61.18146 -5.33841,16.69312 -12.22528,29.31352 -20.13832,41.38071 -13.80453,21.05158 -30.73207,40.41957 -46.72686,58.417 -15.07079,16.95773 -29.31348,32.69868 -47.38718,59.13987 -5.0028,7.31891 -10.29912,15.45766 -12.10923,24.48005 -1.38457,6.90129 -0.72941,14.31958 1.07552,20.81823 2.36914,8.53007 6.71924,15.47569 12.16104,20.7036 30.56138,29.36019 95.555,4.54436 147.47395,-13.61838 17.43833,-6.10042 33.40167,-11.4503 47.51437,-16.54714 25.99407,-9.38784 45.7097,-17.91723 67.16016,-27.71983 32.16135,-14.69735 68.22258,-32.25685 107.17613,-48.73712 29.06854,-12.29817 59.74772,-23.99535 92.46793,-27.95721 32.44799,-3.92891 66.9032,-0.25069 96.37806,7.13745 24.27599,6.08498 45.17359,14.68657 67.5575,24.12973 15.78101,6.6573 32.30011,13.73288 48.71241,20.11695 14.5721,5.66826 29.0601,10.79139 43.6231,14.86359 32.638,9.12643 65.6527,12.97428 101.5068,12.27637 28.0101,-0.54522 57.753,-3.86475 87.0183,-24.96852 4.0688,-2.93411 8.1284,-6.212 9.2827,-10.26693 0.5251,-1.84526 0.4487,-3.85144 -0.065,-5.62874 -0.5142,-1.77938 -1.4668,-3.32935 -2.7889,-4.54309 -1.8604,-1.70808 -4.4526,-2.75029 -6.9569,-3.53504 -3.7669,-1.18041 -7.335,-1.7783 -10.9249,-2.38011 -11.9226,-1.99868 -24.0859,-4.0405 -36.3519,-6.85574 -28.8268,-6.61623 -58.2207,-17.50425 -81.437,-35.3331 -24.4855,-18.80348 -42.0996,-45.32739 -52.3265,-74.93086 -4.8918,-14.16007 -8.0935,-29.02473 -8.5186,-43.19716 -0.6751,-22.50476 5.6509,-43.26406 14.8759,-66.14854 6.1324,-15.2124 13.5458,-31.36389 17.6684,-44.11092 -0.6465,-0.10666 -1.2933,-0.21337 -1.9386,-0.32732 -0.628,-0.1109 -1.2546,-0.22865 -1.8796,-0.35475 -0.3181,-0.0642 -0.6357,-0.1305 -0.9527,-0.1997 -0.3162,-0.069 -0.6317,-0.14086 -0.9465,-0.21556 -0.3138,-0.0745 -0.627,-0.15189 -0.9389,-0.23429 -0.3109,-0.0821 -0.6206,-0.16919 -0.9303,-0.25629 -3.0006,-0.77939 -5.4889,-1.8066 -7.8092,-3.36878 -2.0242,-1.36281 -3.9206,-3.13276 -5.1108,-5.30112 -1.124,-2.04765 -1.6184,-4.45059 -2.0812,-6.92425 -2.4477,-13.08097 -4.0158,-28.13969 -5.154,-41.09534 -1.1483,-13.07035 -1.8591,-24.00024 -1.7819,-36.01486 0.1158,-18.00792 2.0019,-38.45269 4.961,-59.08341 0.7496,-5.22594 1.568,-10.46382 2.569,-14.16247 0.4916,-1.81628 1.0272,-3.26138 2.1428,-4.92288 1.7476,-2.60295 4.9187,-5.73701 8.2514,-7.33417 2.3296,-1.11642 4.7381,-1.4819 9.383,-1.48186 h 69.5774 c 2.6661,0.14289 5.3307,0.28562 7.9919,0.42817 2.6284,-7.50722 5.4887,-14.98954 8.6225,-22.32546 2.5971,-6.07969 5.382,-12.05882 7.8852,-18.33449 2.0518,-5.14391 3.9142,-10.48704 4.2659,-15.89432 0.2673,-4.11022 -0.3383,-8.25749 -1.4163,-11.98315 -1.0662,-3.68451 -2.5945,-6.95667 -5.264,-10.16703 -2.1505,-2.58628 -5.0417,-5.13245 -8.0892,-6.98472 -4.0878,-2.48461 -8.4568,-3.72069 -12.766,-4.07263 -3.8544,-0.3148 -7.661,0.0778 -11.5022,0.66922 -10.5745,1.62826 -21.4115,4.76404 -31.7141,7.23701 -6.962,1.67112 -13.6799,3.03957 -20.6343,4.33633 -17.7069,3.30174 -36.9468,6.13869 -55.9229,8.08339 -21.3577,2.18879 -42.3813,3.24732 -62.9895,2.81757 -20.86493,-0.43509 -41.30352,-2.39566 -62.40848,-6.42349 -14.44335,-2.75648 -29.19879,-6.48116 -43.49717,-10.65449 -15.58739,-4.54957 -30.63158,-9.63233 -45.12205,-14.87925 -12.1717,-4.40731 -23.9527,-8.93045 -36.24633,-13.83656 -17.44648,-6.9625 -35.92537,-14.6963 -54.12796,-21.14712 -11.53191,-4.0868 -22.95293,-7.65867 -34.73834,-10.88292 -11.83826,-3.2387 -24.04418,-6.12667 -35.77727,-8.05251 -12.52945,-2.05656 -24.51971,-3.01594 -37.45867,-3.14595 -20.91785,-0.21018 -44.3152,1.74728 -64.15891,6.37716 -11.05595,2.57955 -21.0088,5.98868 -31.19091,10.62897 -13.19243,6.0122 -26.76975,14.09118 -37.81076,24.65991 -9.4092,9.00672 -16.9764,19.82164 -21.87425,31.71985 -3.09097,7.5088 -5.11881,15.44903 -5.81441,23.49189 -0.7671,8.86925 0.0859,17.36718 0.085,26.19345 l 37.30652,0.002 c 5.69447,7e-5 10.3052,4.6108 10.30527,10.29862 z"
         transform="translate(1.9685066e-6)"
         sodipodi:nodetypes="cccccsssssssssssssscsssccssssssssccssssscsscscsscscccssscsssssssssssssssssssssccc" />
    </g>
    <g
       id="g3803"
       transform="matrix(0.264583,0,0,0.264583,-187.52014,-114.43985)"
       inkscape:label="Pickups"
       style="display:inline" />
  </g>
</svg>
