<?xml version="1.0" encoding="UTF-8" standalone="no"?>
<!-- Created with Inkscape (http://www.inkscape.org/) -->

<svg
   width="210mm"
   height="297mm"
   viewBox="0 0 210 297"
   version="1.1"
   id="svg4330"
   inkscape:version="1.2 (dc2aedaf03, 2022-05-15)"
   sodipodi:docname="freecad_letters_small.svg"
   xmlns:inkscape="http://www.inkscape.org/namespaces/inkscape"
   xmlns:sodipodi="http://sodipodi.sourceforge.net/DTD/sodipodi-0.dtd"
   xmlns="http://www.w3.org/2000/svg"
   xmlns:svg="http://www.w3.org/2000/svg">
  <sodipodi:namedview
     id="namedview4332"
     pagecolor="#505050"
     bordercolor="#eeeeee"
     borderopacity="1"
     inkscape:showpageshadow="0"
     inkscape:pageopacity="0"
     inkscape:pagecheckerboard="0"
     inkscape:deskcolor="#505050"
     inkscape:document-units="mm"
     showgrid="false"
     inkscape:zoom="1"
     inkscape:cx="660.99998"
     inkscape:cy="1017"
     inkscape:window-width="1920"
     inkscape:window-height="1027"
     inkscape:window-x="-8"
     inkscape:window-y="-8"
     inkscape:window-maximized="1"
     inkscape:current-layer="layer2" />
  <defs
     id="defs4327" />
  <g
     inkscape:groupmode="layer"
     id="layer2"
     inkscape:label="JEVOUSMERDE small"
     transform="translate(-0.00359611,-0.08937791)">
    <g
       aria-label="JeVous"
       transform="matrix(3.4950067,0,0,3.2649718,-3449.4645,130.089)"
       id="text113023-3"
       style="font-size:12px;font-family:HAPPINESS;-inkscape-font-specification:'HAPPINESS, Normal';white-space:pre;display:inline;fill:none;stroke:#000000;stroke-width:0;stroke-dasharray:none;stroke-opacity:1"
       inkscape:label="JEVOUS">
      <path
         id="path8378-6"
         style="stroke-width:0.0156649"
         inkscape:label="J"
         d="m 998.35742,14.166016 c 0.25346,0 0.43378,0.09001 0.57617,0.242187 0.14193,0.151676 0.23757,0.37382 0.26172,0.625 0,6.67e-4 0,0.0013 0,0.002 0.14421,1.381945 0.29889,2.751188 0.28711,4.105469 -0.012,1.257857 -0.0523,2.58587 -0.74414,3.537109 -0.68127,0.940805 -1.84483,1.378777 -2.89844,0.873047 0,-6.67e-4 0,-0.0013 0,-0.002 -0.55356,-0.263598 -0.81949,-0.644626 -0.95898,-1.128906 -0.13928,-0.483536 -0.12722,-1.071098 -0.041,-1.658203 v -0.002 c 0.0303,-0.193026 0.1671,-0.353593 0.375,-0.460938 0.20833,-0.107554 0.47574,-0.136955 0.65625,-0.08594 10e-4,9e-6 0.003,9e-6 0.004,0 0.25849,0.06924 0.40529,0.203722 0.5,0.386718 0.0943,0.182114 0.12607,0.425576 0.0859,0.691407 l 0.002,-0.0078 c -0.0275,0.15086 -0.0406,0.31699 -0.0273,0.490235 10e-4,0.12736 0.0826,0.240116 0.20312,0.28125 l 0.0117,0.0039 c 0.0103,0.0032 0.0207,0.0058 0.0312,0.0078 0.16483,0.03662 0.30287,-0.02445 0.38867,-0.07813 0.0842,-0.05257 0.14347,-0.110053 0.18946,-0.164062 l 0.002,-0.002 c 0.50021,-0.562837 0.48607,-1.341585 0.50976,-1.898438 0,-6.67e-4 0,-0.0013 0,-0.002 0.061,-1.671633 -0.0975,-3.319789 -0.26562,-4.953125 10e-6,-0.0013 10e-6,-0.0026 0,-0.0039 -0.0225,-0.195012 0.0639,-0.382972 0.23437,-0.541016 0.16953,-0.157176 0.41765,-0.257812 0.61719,-0.257812 z"
         sodipodi:nodetypes="ccccccccccccccccccccccccccccscc" />
      <path
         id="path8380-7"
         style="stroke-width:0.0156649"
         inkscape:label="E"
         d="m 1004.7679,15.910156 c 0.6233,-0.03383 1.0367,0.791814 0.6999,1.297919 -0.2339,0.377006 -0.7157,0.413135 -1.1147,0.434488 -0.4617,0.05094 -0.9346,0.06089 -1.3888,0.137151 -0.2877,0.142796 -0.1515,0.502475 -0.1726,0.755561 -0.1054,0.47221 0.4249,0.529916 0.7504,0.402581 0.3881,-0.09793 0.8775,-0.07987 1.133,0.274611 0.3214,0.440299 0.1025,1.224536 -0.47,1.313632 -0.3973,0.07671 -0.7999,0.124953 -1.1991,0.185773 -0.3523,0.167864 -0.1499,0.629516 -0.2075,0.934347 -0.057,0.266973 0.017,0.681538 0.3798,0.610677 0.6675,-0.01976 1.3352,-0.06396 2.0026,-0.06716 0.4648,0.0281 0.7137,0.551664 0.6262,0.968746 -0.048,0.410319 -0.4234,0.758675 -0.8414,0.727535 -1.0454,0.03501 -2.0962,0.0779 -3.1382,0.108027 -0.4612,-0.04922 -0.8225,-0.519416 -0.7523,-0.97815 0.056,-1.944976 0.052,-3.891792 -0.018,-5.83635 3e-4,-0.278614 0.153,-0.670487 0.4262,-0.850207 0.34,-0.21893 0.7591,-0.168902 1.1432,-0.224428 0.7138,-0.06492 1.4276,-0.129833 2.1414,-0.194749 z"
         sodipodi:nodetypes="ccsccccssccccccccccccccscccccccccccccccccccccccc" />
      <path
         id="path4109"
         style="display:inline;stroke-width:0.0156649"
         inkscape:label="V"
         transform="translate(7.8683687e-6)"
         d="m 1007.959,17.097656 c 0.2151,-0.05791 0.4547,-0.04687 0.6543,0.03906 0.2013,0.08661 0.3669,0.235356 0.4649,0.505859 0,6.67e-4 0,0.0013 0,0.002 0.5668,1.531832 1.1944,3.042576 1.8945,4.527344 l 0.01,0.01563 c 0.1004,0.233558 0.4277,0.244152 0.543,0.01758 l 0.014,-0.02734 c 0,-0.0013 0,-0.0026 0,-0.0039 0.6876,-1.411227 1.329,-2.871874 1.8848,-4.345703 v -0.002 c 0.092,-0.241287 0.2459,-0.430938 0.4258,-0.541016 0.1803,-0.110408 0.3791,-0.14979 0.623,-0.08203 0.1896,0.05244 0.3946,0.21294 0.5156,0.412109 0.1212,0.199171 0.1578,0.414644 0.09,0.601563 -0.8955,2.351906 -1.9211,4.630539 -3.125,6.835937 0,0.0013 0,0.0026 0,0.0039 -0.2719,0.510662 -1.1708,0.536327 -1.4453,0.0039 -1.1698,-2.26792 -2.1968,-4.620091 -3.0684,-7.019531 0,-6.67e-4 0,-0.0013 0,-0.002 -0.1009,-0.274629 -0.063,-0.454612 0.033,-0.607421 0.095,-0.15065 0.273,-0.27541 0.4883,-0.333985 z"
         sodipodi:nodetypes="ccccccccccccccccccccccc" />
      <path
         id="path8384-3"
         style="stroke-width:0.0156649"
         inkscape:label="O"
         d="m 1020.825,17.124999 h 0.01 c 0.01,-5.23e-4 0.011,-0.0012 0.016,-0.002 0.678,-0.0339 1.308,0.06729 1.7481,0.527344 0.6857,0.717955 1.0018,1.894657 0.957,2.914062 v 0.002 c -0.04,1.021217 -0.318,2.119373 -0.8594,2.935547 -0.5404,0.814779 -1.3104,1.353509 -2.4453,1.355469 -1.0844,-0.01166 -2.052,-0.179796 -2.7617,-0.94336 -0.627,-0.681095 -0.9785,-1.879953 -0.9024,-2.804687 0.1704,-2.009708 1.3841,-3.600556 3.3282,-4.177734 0.318,-0.09356 0.5406,-0.02271 0.7207,0.123047 0.2258,0.07572 0.087,0.02668 0.1888,0.07031 z m 0.044,1.66211 c -0.1783,0.01886 -0.3432,0.05897 -0.4218,0.07617 -0.1843,0.02909 -0.366,0.0184 -0.5215,-0.02734 -0.01,-0.003 -0.017,-0.0056 -0.025,-0.0078 l -0.01,-0.002 c -0.057,-0.01073 -0.1162,-0.0046 -0.1699,0.01758 l -0.01,0.0039 c -0.013,0.0049 -0.026,0.0108 -0.039,0.01758 -0.7385,0.429653 -1.2563,1.164251 -1.3907,2.03711 v 0.0059 c -0.067,0.516267 -0.014,1.141458 0.2833,1.632813 0.1692,0.276789 0.418,0.449864 0.6738,0.53125 0.254,0.08082 0.5107,0.08984 0.7597,0.08984 0.2641,0 0.5121,-0.01295 0.754,-0.111328 0.2431,-0.09889 0.4523,-0.291333 0.6093,-0.5625 v -0.0059 c 0.2733,-0.494623 0.456,-1.073415 0.4707,-1.650391 0.024,-0.521978 0.072,-1.273112 -0.3281,-1.845703 -0.1029,-0.152992 -0.2508,-0.185353 -0.3536,-0.199219 -0.095,-0.01159 -0.1872,-0.0098 -0.2793,0 z"
         sodipodi:nodetypes="ccccccccccccccccccccccccssccccccccc" />
      <path
         id="path8386-5"
         style="stroke-width:0.0156649"
         inkscape:label="U"
         d="m 1025.9531,16.341797 c 0.2227,0 0.44,0.07331 0.5938,0.205078 0.1532,0.131307 0.2554,0.312924 0.2578,0.607422 0,6.67e-4 0,0.0013 0,0.002 0.012,1.138013 0.013,2.289419 0.025,3.443359 -10e-5,0.09129 -0.011,0.610741 0.041,1.09375 0.025,0.240838 0.061,0.475194 0.1445,0.681641 0.041,0.102242 0.093,0.203075 0.1973,0.291016 0,6.67e-4 0,0.0013 0,0.002 0.1161,0.09678 0.2963,0.131977 0.4414,0.08789 0.5201,-0.151967 0.7902,-0.608947 0.9004,-1.046875 v -0.002 c 0.1097,-0.437031 0.1036,-0.895294 0.1036,-1.228515 v -0.0039 c 0.012,-1.020871 0.013,-2.038507 0.025,-3.042968 0,-0.0013 0,-0.0026 0,-0.0039 0,-0.291717 0.1029,-0.470666 0.2579,-0.603515 0.1546,-0.132447 0.3724,-0.207032 0.5937,-0.207031 0.2213,0 0.4417,0.07396 0.5938,0.205078 0.1517,0.130942 0.25,0.310358 0.25,0.605468 -0.012,0.841906 -0.012,1.691461 -0.024,2.539063 0,0.0013 0,0.0026 0,0.0039 0,0.747383 0.01,1.502227 -0.1679,2.150391 -0.1593,0.575493 -0.5088,1.216706 -0.9727,1.673828 -0.4646,0.457755 -1.0197,0.728636 -1.6543,0.662109 -0.7398,-0.07072 -1.2901,-0.385868 -1.6894,-0.865234 -0.399,-0.479099 -0.6433,-1.131915 -0.7051,-1.857422 v -0.002 c -0.1177,-1.496633 -0.044,-3.048869 -0.057,-4.583984 10e-4,-0.292725 0.1,-0.473932 0.25,-0.603516 0.151,-0.130349 0.3712,-0.203126 0.5937,-0.203125 z"
         sodipodi:nodetypes="scscccccccccscsccsccccccccccccss" />
      <path
         id="path8388-6"
         style="stroke-width:0.0156649"
         inkscape:label="S"
         d="m 1036.8926,14.451177 c 0,-6.51e-4 -0.026,-0.0033 -0.037,-0.0039 z M 1035.8418,15 c 0.3142,0.003 0.6387,0.03041 0.9746,0.07422 0,7.23e-4 0.01,0.0014 0.01,0.002 0.2637,0.02987 0.4911,0.125973 0.6425,0.265625 0.152,0.14013 0.2403,0.314789 0.2403,0.583984 0,0.191195 -0.1008,0.441955 -0.2598,0.613281 -0.1598,0.172345 -0.3509,0.261131 -0.5527,0.238282 -0.5863,-0.08138 -1.5258,-0.333081 -2.25,0.158203 -0.208,0.138667 -0.3586,0.371298 -0.3321,0.619141 0,6.67e-4 0,0.0013 0,0.002 0.027,0.244683 0.1935,0.422894 0.3887,0.544921 0,6.67e-4 0,0.0013 0,0.002 1.0831,0.667506 2.1432,0.942193 2.711,1.949218 0.6613,1.188419 -0.151,2.739338 -1.3829,3.146485 -1.3,0.436948 -2.5595,-0.06892 -3.7129,-0.826172 0,-6.67e-4 0,-0.0013 0,-0.002 -0.2441,-0.159594 -0.3482,-0.350121 -0.3828,-0.560547 -0.034,-0.209883 0.014,-0.444274 0.125,-0.636719 0.111,-0.192592 0.2786,-0.337259 0.457,-0.394531 0.1792,-0.05752 0.3736,-0.04936 0.6211,0.113281 0,6.67e-4 0,0.0013 0,0.002 0.4528,0.290268 1.0731,0.783203 1.8144,0.783203 0.1427,0 0.3649,-0.02057 0.5977,-0.113281 0.1151,-0.04599 0.2483,-0.109579 0.3437,-0.265625 0.098,-0.161978 0.074,-0.402144 -0.033,-0.558594 0,-0.0013 0,-0.0026 0,-0.0039 -0.3656,-0.515161 -1.0177,-0.651845 -1.3633,-0.818359 v -0.002 c -0.4524,-0.226339 -0.928,-0.482108 -1.2051,-0.808594 0,-6.67e-4 0,-0.0013 0,-0.002 -0.3978,-0.467716 -0.6442,-1.085857 -0.6601,-1.679688 -0.016,-0.593922 0.1836,-1.155246 0.6855,-1.583984 0.51,-0.43187 1.0458,-0.662906 1.627,-0.769531 0.2909,-0.05336 0.594,-0.07525 0.9082,-0.07227 z"
         sodipodi:nodetypes="cccccccscccccccccccccsccsccccccccccscc" />
    </g>
    <g
       aria-label="MERDE"
       transform="matrix(2.1363392,0,0,2.3189468,-1973.2203,-1989.0213)"
       id="text17129-2"
       style="font-size:24px;font-family:HAPPINESS;-inkscape-font-specification:'HAPPINESS, Normal';white-space:pre;display:inline;fill:none;stroke:#000000;stroke-width:0;stroke-dasharray:none;stroke-opacity:1"
       inkscape:label="MERDE">
      <path
         id="path20428-9"
         style="stroke-width:0.0237745"
         inkscape:label="M"
         d="m 942.04688,953.09766 c 0.52409,0.13127 0.9183,0.46694 1.07226,1.16601 l 0.82422,3.91992 c 0.0818,0.38922 0.56316,0.53185 0.84375,0.25 l 0.0137,-0.0137 c 1.18254,-1.08396 2.40341,-2.12815 3.67578,-3.11133 0.55963,-0.41534 1.39747,-0.57084 2.04102,-0.41015 6.7e-4,0 0.001,0 0.002,0 0.36378,0.0914 0.6464,0.26254 0.82617,0.49218 0.18131,0.2316 0.285,0.52867 0.23633,1.00196 -0.38926,3.77141 -0.63095,7.55603 -0.7207,11.32812 -6e-5,0.005 -6e-5,0.009 0,0.0137 7.9e-4,0.1945 -0.0276,0.35236 -0.0781,0.52343 -0.15136,0.51286 -0.48211,0.84612 -0.91406,1.04883 -0.43101,0.20228 -0.96436,0.24986 -1.42383,0.13477 -0.72958,-0.18276 -1.22329,-0.60022 -1.20117,-1.57227 0,-6.7e-4 0,-0.001 0,-0.002 0.0371,-1.97085 0.12744,-3.95353 0.26367,-5.92578 10e-6,-0.001 10e-6,-0.003 0,-0.004 l 0.004,-0.0606 c 0.0274,-0.45326 -0.51471,-0.70551 -0.84375,-0.39257 l -0.043,0.041 c -0.002,0.002 -0.004,0.004 -0.006,0.006 -0.81094,0.79773 -1.59819,1.60296 -2.37109,2.4375 -6.7e-4,0.001 -0.001,0.003 -0.002,0.004 -0.44508,0.48963 -1.09791,0.6096 -1.70703,0.45703 -0.62603,-0.15681 -1.13057,-0.59363 -1.26367,-1.19141 v 0.006 l -0.64453,-3.04492 c -0.0919,-0.42672 -0.64804,-0.53917 -0.89844,-0.18164 l -0.0312,0.0449 c -1.1682,1.67715 -2.32088,3.38347 -3.42773,5.10352 -6.7e-4,6.6e-4 -0.001,0.001 -0.002,0.002 -0.52887,0.82531 -1.31224,0.99551 -2.0039,0.82226 -0.4617,-0.11565 -0.88542,-0.3986 -1.14063,-0.7539 -0.25556,-0.3558 -0.35739,-0.75726 -0.21484,-1.24024 0.0485,-0.16439 0.13732,-0.34175 0.25781,-0.52929 v -0.002 c 2.09776,-3.24322 4.29973,-6.41031 6.62305,-9.49609 6.7e-4,-0.001 0.001,-0.003 0.002,-0.004 0.53532,-0.72753 1.50744,-1.05369 2.25196,-0.86718 z"
         sodipodi:nodetypes="ccccccccsccccssscccccccccscccccccssscccccc" />
      <path
         id="path20430-1"
         style="stroke-width:0.0237745"
         inkscape:label="E"
         d="m 959.05083,955.9668 c 0.01,9.5e-4 0.0195,0.002 0.0293,0.002 l 5.5332,0.4082 c 6.7e-4,0 0.001,0 0.002,0 0.45261,0.0321 0.82598,0.29678 1.08399,0.69727 0.25758,0.39986 0.36651,0.92713 0.2832,1.35351 -0.206,1.05437 -1.11641,1.5617 -2.18359,1.48829 -1.10407,-0.0856 -2.1832,-0.1665 -3.28516,-0.25196 h -0.006 l -0.0156,-0.002 c -0.25448,-0.0229 -0.48526,0.1498 -0.53516,0.40039 l -0.004,0.0195 c 0,6.7e-4 0,0.001 0,0.002 -0.0826,0.42239 -0.13652,0.82834 -0.21093,1.20899 l -0.004,0.0176 c -0.0671,0.31125 0.16987,0.60513 0.48828,0.60547 h 0.0254 c 0.35829,0.0113 0.72904,0.024 1.15235,0.0195 0.003,2e-5 0.005,2e-5 0.008,0 0.53188,-0.0135 1.0165,0.1362 1.36328,0.40234 0.34746,0.26671 0.56764,0.63219 0.59961,1.1543 v -0.0293 c -10e-6,0.015 6.6e-4,0.03 0.002,0.0449 0.04,0.43573 -0.12752,0.95872 -0.43554,1.34571 -0.30822,0.38732 -0.72628,0.62768 -1.17774,0.63086 -0.001,-10e-6 -0.003,-10e-6 -0.004,0 -0.79834,0.0123 -1.56613,0.005 -2.35157,-0.0293 h -0.002 c -0.25697,-0.0223 -0.48875,0.15447 -0.53516,0.4082 l -0.004,0.0215 c -0.11968,0.6124 -0.23696,1.21751 -0.37696,1.8125 0,6.7e-4 0,0.001 0,0.002 l -0.006,0.0254 c -0.0671,0.28857 0.12992,0.57191 0.42382,0.60937 l 3.8086,0.48438 c 0.60978,0.0761 0.94116,0.33122 1.14843,0.67578 0.20691,0.34397 0.27141,0.80837 0.17969,1.27148 -0.0911,0.46214 -0.33821,0.90738 -0.6914,1.20508 -0.35269,0.29728 -0.79701,0.46498 -1.39844,0.39063 l -6.13477,-0.79883 c -6.7e-4,0 -0.001,0 -0.002,0 -0.912,-0.11534 -1.59582,-1.12966 -1.4043,-2.01758 0.88461,-3.90366 1.64787,-7.80498 2.27344,-11.7539 v -0.002 c 0.0692,-0.35296 0.20518,-0.62377 0.37305,-0.83789 0.15082,-0.17829 -0.0488,0.0589 0.14453,-0.17974 0.39498,-0.56122 1.07181,-0.87539 1.8457,-0.80468 z"
         sodipodi:nodetypes="scccssccccccccccccccccccsccccccccccscsccccccccss" />
      <path
         id="path20432-2"
         style="stroke-width:0.0237745"
         inkscape:label="R"
         d="m 977.42384,955.63477 c 1.80587,0.0755 3.62787,1.27266 3.9002,3.15513 0.61918,2.46349 -0.43572,5.1853 -2.55743,6.58519 -1.78152,1.35275 1.77415,1.87128 2.65061,2.45021 1.76518,0.32257 4.5766,1.90734 2.7417,3.89863 -1.5258,1.03443 -3.20877,-0.42992 -4.71443,-0.84713 -1.61024,-0.61383 -3.12719,-1.48484 -4.72644,-2.09546 -1.21573,0.84479 0.65932,3.31148 -1.30848,3.93219 -1.91191,0.88255 -2.9555,-1.21732 -2.72942,-2.81551 -0.29743,-3.88799 -0.5984,-7.77788 -0.78935,-11.67212 0.0313,-1.39073 1.57682,-1.72147 2.6698,-1.61225 1.45847,-0.82447 3.20666,-1.10782 4.86324,-0.97888 z m -0.41211,3.45312 c -1.27673,0.13672 -3.23711,0.30495 -3.38287,1.68368 0.0228,1.1949 -0.14176,3.91223 1.76649,2.51112 1.48086,-0.47805 3.57522,-2.86127 1.95224,-4.14118 l -0.33571,-0.0539 z"
         sodipodi:nodetypes="ccccscccccccccsccccccccccscccccscsssccccccccsccccccccccccscccc" />
      <path
         id="path20434-7"
         style="stroke-width:0.0237745"
         inkscape:label="D"
         d="m 991.7246,953.49414 c 3.67775,-0.16027 6.51258,3.10987 7.40587,6.41487 0.90213,3.06537 -0.37661,6.67451 -3.24673,8.20961 -1.33697,0.79975 -2.85309,1.34542 -4.41691,1.42826 -0.44352,0.43972 -2.74289,1.30955 -3.3384,-0.21377 -0.8101,-3.35927 -1.30462,-6.80653 -1.98425,-10.2009 -0.34795,-1.46 -1.09527,-3.98649 1.16826,-4.22414 1.2967,-0.87589 2.85337,-1.3508 4.41216,-1.41393 z m 0.63281,3.64063 c -1.59459,-0.18387 -3.5368,0.549 -2.48722,2.41241 0.40562,2.04377 0.71802,4.11383 1.17923,6.1419 1.11276,0.62881 2.56877,-0.47563 3.53456,-1.07949 1.67509,-1.24664 1.48394,-3.70396 0.45642,-5.30563 -0.54079,-1.02706 -1.39966,-2.17302 -2.68299,-2.16919 z"
         sodipodi:nodetypes="cccccccccsccccsccsscccccccccccccccsccsscc" />
      <path
         id="path20436-0"
         style="stroke-width:0.0237745"
         inkscape:label="E"
         d="m 1006.5156,948.5293 c 2.6094,0.4215 1.851,3.81655 -0.4878,3.91313 -0.971,0.46013 -3.1465,0.72133 -2.1758,2.05688 0.4114,2.15615 2.4775,-0.60622 3.7165,0.27181 2.145,1.01183 0.834,3.67071 -1.1444,3.85008 -1.5611,0.32261 -0.4044,1.73735 -0.2199,2.73246 0.5056,0.66493 1.3488,-0.0837 1.9958,-0.17259 1.1058,-0.26529 2.1746,-0.97811 3.3318,-0.75922 1.7526,0.62333 1.5382,3.46947 -0.3773,3.6229 -1.9065,0.59422 -3.7861,1.29215 -5.71,1.81914 -2.5164,-0.0796 -2.2696,-3.18253 -3.1015,-4.86771 -0.8636,-2.80383 -1.9913,-5.52982 -2.86518,-8.32146 -0.19223,-1.22493 0.84098,-2.04209 1.91028,-2.31622 1.6063,-0.59982 3.1795,-1.3041 4.8075,-1.83468 l 0.3353,0.005 z"
         sodipodi:nodetypes="cscccccccccccccccccccccccccscccccccccccccccccccc" />
    </g>
  </g>
</svg>
