<?xml version="1.0" encoding="UTF-8" standalone="no"?>
<!-- Created with Inkscape (http://www.inkscape.org/) -->

<svg
   width="210mm"
   height="297mm"
   viewBox="0 0 210 297"
   version="1.1"
   id="svg7348"
   inkscape:version="1.2 (dc2aedaf03, 2022-05-15)"
   sodipodi:docname="freecad_letters.svg"
   xmlns:inkscape="http://www.inkscape.org/namespaces/inkscape"
   xmlns:sodipodi="http://sodipodi.sourceforge.net/DTD/sodipodi-0.dtd"
   xmlns:xlink="http://www.w3.org/1999/xlink"
   xmlns="http://www.w3.org/2000/svg"
   xmlns:svg="http://www.w3.org/2000/svg">
  <sodipodi:namedview
     id="namedview7350"
     pagecolor="#505050"
     bordercolor="#eeeeee"
     borderopacity="1"
     inkscape:showpageshadow="0"
     inkscape:pageopacity="0"
     inkscape:pagecheckerboard="0"
     inkscape:deskcolor="#505050"
     inkscape:document-units="mm"
     showgrid="false"
     inkscape:zoom="2.1341967"
     inkscape:cx="205.22944"
     inkscape:cy="580.07774"
     inkscape:window-width="1920"
     inkscape:window-height="1027"
     inkscape:window-x="-8"
     inkscape:window-y="-8"
     inkscape:window-maximized="1"
     inkscape:current-layer="text113023-3" />
  <defs
     id="defs7345" />
  <g
     inkscape:groupmode="layer"
     id="layer4"
     inkscape:label="JEVOUSMERDE"
     style="display:inline;fill:none;stroke:#000000;stroke-opacity:1"
     transform="translate(182.78871,0.9018325)">
    <g
       aria-label="JeVous"
       transform="matrix(3.4950067,0,0,3.2649718,-3632.2532,-17.392245)"
       id="g4144"
       style="font-size:12px;font-family:HAPPINESS;-inkscape-font-specification:'HAPPINESS, Normal';white-space:pre;display:inline;fill:none;stroke:#000000;stroke-width:0;stroke-dasharray:none;stroke-opacity:1"
       inkscape:label="JEVOUS">
      <path
         style="color:#000000;-inkscape-font-specification:'HAPPINESS, Normal';fill:none;stroke:#000000;stroke-width:0.0156649;stroke-dasharray:none;stroke-opacity:1"
         d="m 998.35742,13.835902 c -0.29843,0 -0.61069,0.133243 -0.83984,0.345703 -0.22916,0.212461 -0.37648,0.504771 -0.33985,0.822266 0.168,1.631927 0.32363,3.263543 0.26368,4.90625 -0.024,0.564307 -0.0367,1.254983 -0.42774,1.693359 v 0.002 c -0.0293,0.03513 -0.0712,0.07475 -0.11719,0.103516 -0.0422,0.02639 -0.0878,0.0372 -0.13281,0.03125 -0.009,-0.136386 6.3e-4,-0.272965 0.0234,-0.398438 v -0.002 c 0.0484,-0.320492 0.0127,-0.634176 -0.12109,-0.892578 -0.13377,-0.258401 -0.36546,-0.45981 -0.70508,-0.550781 -0.28043,-0.07925 -0.6173,-0.03477 -0.89649,0.109375 -0.27918,0.144144 -0.50192,0.389472 -0.55078,0.707031 -0.0902,0.613118 -0.11109,1.243617 0.0488,1.798828 0.15992,0.555211 0.50312,1.034222 1.13672,1.335938 1.20689,0.579306 2.54712,0.07229 3.30664,-0.976563 0.77158,-1.060927 0.79464,-2.468433 0.80664,-3.728515 0.012,-1.3812 -0.14507,-2.762664 -0.28906,-4.142578 -0.0303,-0.314879 -0.15055,-0.605625 -0.34961,-0.81836 -0.19906,-0.212734 -0.47653,-0.345703 -0.81641,-0.345703 z m 0,0.0293 c 0.33212,0 0.60098,0.130625 0.79492,0.337891 0.19394,0.207265 0.31208,0.491661 0.3418,0.800781 0.14401,1.380083 0.30105,2.759874 0.28906,4.138672 -0.012,1.259915 -0.0383,2.659867 -0.80273,3.710937 -0.75248,1.039143 -2.07642,1.53949 -3.26953,0.966797 -0.6264,-0.298284 -0.96107,-0.767618 -1.11914,-1.316406 -0.15808,-0.548788 -0.13867,-1.176229 -0.0488,-1.78711 0.0471,-0.306439 0.26234,-0.542737 0.53515,-0.683593 0.27282,-0.140856 0.60344,-0.186123 0.875,-0.109375 0.33238,0.08903 0.55727,0.285511 0.6875,0.537109 0.13024,0.251598 0.16482,0.559493 0.11719,0.875 -0.0242,0.13301 -0.0356,0.278201 -0.0234,0.423828 v 0.0098 l 0.0117,0.0039 c 0.0591,0.01313 0.11605,-0.0078 0.16602,-0.03906 0.0492,-0.03072 0.0924,-0.07292 0.12305,-0.109375 0.40101,-0.449623 0.41351,-1.151152 0.4375,-1.714844 0.06,-1.64529 -0.0976,-3.278087 -0.26563,-4.910156 -0.0354,-0.306505 0.10623,-0.589336 0.33008,-0.796875 0.22385,-0.207539 0.53074,-0.337891 0.82031,-0.337891 z"
         id="path4130"
         inkscape:label="J" />
      <path
         style="color:#000000;-inkscape-font-specification:'HAPPINESS, Normal';fill:none;stroke:#000000;stroke-width:0.0156649;stroke-dasharray:none;stroke-opacity:1"
         d="m 1004.7402,15.581819 -2.7734,0.251953 c -0.4951,0.03683 -0.9191,0.316244 -1.0898,0.751953 -0.098,0.170636 -0.1465,0.377345 -0.1465,0.607422 0.072,1.991644 0.072,3.971188 0.012,5.962891 -0.012,0.621072 0.5464,1.192324 1.1797,1.167968 l 3.0957,-0.109375 c 0.3758,-0.01516 0.6602,-0.173599 0.8496,-0.402343 0.1894,-0.228745 0.2844,-0.526147 0.2851,-0.820313 8e-4,-0.294165 -0.092,-0.584901 -0.2812,-0.798828 -0.1894,-0.213927 -0.4767,-0.35109 -0.8555,-0.335937 l -1.8926,0.07227 c 0.011,-0.303244 0.014,-0.605316 0.014,-0.908203 0.3915,-0.04776 0.7705,-0.106528 1.1621,-0.177734 0.3172,-0.05489 0.5652,-0.272117 0.711,-0.546875 0.1457,-0.274758 0.1907,-0.608109 0.1054,-0.900391 -0.085,-0.327898 -0.2894,-0.562467 -0.5507,-0.699219 -0.2614,-0.136751 -0.5796,-0.175807 -0.8946,-0.115234 -0.198,0.03494 -0.3718,0.05869 -0.5469,0.08203 -6e-4,-0.194128 -0.011,-0.388949 -0.012,-0.582031 0.5472,-0.0476 1.0835,-0.09498 1.6309,-0.142578 0.6418,-0.06055 1.1777,-0.497982 1.1777,-1.177734 0,-0.298431 -0.1337,-0.608298 -0.3476,-0.835938 -0.214,-0.22764 -0.5088,-0.374245 -0.8321,-0.34375 z m 0,0.0293 c 0.3127,-0.02951 0.5996,0.111625 0.8086,0.333984 0.209,0.22236 0.3398,0.526837 0.3398,0.816407 0,0.664246 -0.5202,1.088989 -1.1504,1.148437 -0.552,0.048 -1.0925,0.09653 -1.6445,0.144531 h -0.014 v 0.01367 c 0,0.20458 0.012,0.409862 0.012,0.613281 v 0.01563 l 0.018,-0.002 c 0.18,-0.024 0.3601,-0.04792 0.5645,-0.08398 0.309,-0.05943 0.6203,-0.01997 0.875,0.113281 0.2546,0.133248 0.4521,0.359586 0.5351,0.679688 0.083,0.283718 0.039,0.610665 -0.1035,0.878906 -0.1422,0.268241 -0.3807,0.478145 -0.6875,0.53125 -0.3957,0.07196 -0.7801,0.131727 -1.1758,0.179687 l -0.014,0.002 v 0.01367 c 0,0.312 2e-4,0.621973 -0.012,0.933594 v 0.01758 l 1.9239,-0.07422 c 0.3712,-0.01485 0.6463,0.1186 0.8301,0.326172 0.1837,0.207573 0.2761,0.491463 0.2753,0.779297 -7e-4,0.287834 -0.095,0.578026 -0.2793,0.800781 -0.1844,0.222756 -0.4599,0.377734 -0.8281,0.392579 l -3.0957,0.109375 c -0.6141,0.02362 -1.1591,-0.534508 -1.1484,-1.136719 v -0.002 c 0.06,-1.991633 0.06,-3.973144 -0.012,-5.964844 3e-4,-0.225067 0.048,-0.426948 0.1425,-0.591797 v -0.002 c 0.1658,-0.426218 0.5813,-0.698732 1.0684,-0.734375 z"
         id="path4132"
         inkscape:label="E" />
      <path
         style="color:#000000;-inkscape-font-specification:'HAPPINESS, Normal';display:inline;fill:none;stroke:#000000;stroke-width:0.0156649;stroke-dasharray:none;stroke-opacity:1"
         d="m 1007.8711,16.778625 c -0.2828,0.07657 -0.5336,0.240868 -0.6816,0.476562 -0.1481,0.235694 -0.1929,0.543857 -0.062,0.898438 0.876,2.412004 1.9079,4.776603 3.0839,7.05664 0.4017,0.779045 1.6295,0.75494 2.0313,0 1.2123,-2.220657 2.2443,-4.512412 3.1445,-6.876953 0.1099,-0.298991 0.045,-0.621633 -0.1172,-0.888672 -0.1623,-0.267039 -0.4226,-0.479392 -0.709,-0.558593 -0.3277,-0.09104 -0.6321,-0.03628 -0.8828,0.117187 -0.2507,0.153463 -0.4474,0.404335 -0.5625,0.707031 -0.548,1.45346 -1.1789,2.894415 -1.8574,4.289063 -0.6904,-1.466348 -1.3109,-2.954978 -1.8711,-4.46875 -0.1273,-0.351626 -0.3659,-0.578228 -0.6426,-0.697266 -0.2766,-0.119038 -0.5902,-0.131262 -0.873,-0.05469 z m 0.01,0.0293 c 0.2767,-0.07493 0.5838,-0.06335 0.8535,0.05273 0.2698,0.116087 0.5023,0.335314 0.627,0.679688 0.5641,1.524366 1.1885,3.025542 1.8847,4.501953 l 0.012,0.02734 0.014,-0.02734 c 0.6842,-1.404363 1.3209,-2.857779 1.8731,-4.322266 0.113,-0.297303 0.3065,-0.541869 0.5508,-0.691406 0.2443,-0.149537 0.5391,-0.204195 0.8593,-0.115235 0.2777,0.0768 0.5328,0.283962 0.6914,0.544922 0.1587,0.260961 0.2214,0.574273 0.1153,0.863282 -0.8998,2.363454 -1.931,4.655661 -3.1426,6.874999 -0.3902,0.733059 -1.5882,0.756954 -1.9785,0 -1.1757,-2.279428 -2.2082,-4.643279 -3.084,-7.054687 -0.1277,-0.347419 -0.085,-0.642913 0.059,-0.871094 0.1433,-0.22818 0.3893,-0.387965 0.666,-0.46289 z"
         id="path4134"
         inkscape:label="V" />
      <path
         style="color:#000000;-inkscape-font-specification:'HAPPINESS, Normal';display:inline;fill:none;stroke:#000000;stroke-width:0.0156649;stroke-dasharray:none;stroke-opacity:1"
         d="m 1019.8203,16.614668 c -2.0696,0.613659 -3.382,2.335503 -3.5625,4.464844 -0.084,1.02444 0.2765,2.288454 0.9883,3.060547 0.7959,0.856152 1.8806,1.036812 2.998,1.048828 1.2469,0 2.1376,-0.618818 2.7246,-1.503906 0.5871,-0.885088 0.874,-2.037212 0.9161,-3.107422 v 0 c 0.048,-1.095412 -0.275,-2.346269 -1.0469,-3.154297 -0.5321,-0.556321 -1.2819,-0.665005 -2.0039,-0.628906 l 0.01,0.0039 c -0.2554,-0.206764 -0.6093,-0.304839 -1.0215,-0.183594 z m 0.01,0.0293 c 0.4037,-0.118754 0.7455,-0.0235 0.9941,0.177735 v 0.002 h 0.01 c 0.718,-0.0359 1.4566,0.07146 1.9805,0.61914 0.7641,0.799971 1.0869,2.046181 1.039,3.134766 -0.042,1.065788 -0.3252,2.210934 -0.9082,3.089844 -0.5826,0.878406 -1.4632,1.489533 -2.6992,1.490234 -1.1145,-0.01198 -2.1904,-0.191216 -2.9785,-1.039062 -0.7042,-0.763906 -1.0641,-2.019599 -0.9805,-3.035157 0.1796,-2.118654 1.4846,-3.829113 3.543,-4.439453 z m 1.289,2.439453 c -0.064,-0.0087 -0.14,-0.0064 -0.2187,0.002 -0.1573,0.01664 -0.3227,0.0563 -0.4063,0.07422 -0.226,0.03568 -0.4507,0.0222 -0.6523,-0.03711 l -0.01,-0.002 -0.01,0.0039 c -0.6637,0.386149 -1.1235,1.037914 -1.2442,1.822266 -0.06,0.458863 -5e-4,1.036994 0.2422,1.4375 0.1338,0.218823 0.3091,0.338485 0.5098,0.402343 0.2007,0.06386 0.4276,0.07422 0.668,0.07422 0.2525,0 0.4605,-0.01464 0.6406,-0.08789 0.1801,-0.07325 0.3297,-0.205518 0.4629,-0.435546 0.253,-0.457892 0.4215,-1.000562 0.4336,-1.519532 0.024,-0.516387 0.039,-1.213963 -0.2774,-1.664062 -0.028,-0.04164 -0.082,-0.06161 -0.1465,-0.07031 z m 0,0.0293 c 0.06,0.0082 0.1048,0.02629 0.125,0.05664 0.3077,0.4379 0.2975,1.130873 0.2735,1.646484 v 0.002 c -0.012,0.51303 -0.1788,1.049799 -0.4297,1.503907 -0.1308,0.225971 -0.2753,0.353075 -0.4492,0.423828 -0.174,0.07075 -0.3775,0.08594 -0.6289,0.08594 -0.2397,0 -0.4649,-0.01012 -0.6602,-0.07227 -0.1953,-0.06214 -0.3619,-0.175496 -0.4922,-0.388672 -0.2373,-0.391494 -0.2979,-0.966786 -0.2383,-1.419922 0.1197,-0.773846 0.5721,-1.41711 1.2266,-1.798828 0.204,0.05841 0.4316,0.0729 0.6582,0.03711 v -0.002 c 0.084,-0.01809 0.2496,-0.05591 0.4043,-0.07227 0.077,-0.0082 0.1507,-0.01012 0.2109,-0.002 z"
         id="path4138"
         inkscape:label="O" />
      <path
         style="color:#000000;-inkscape-font-specification:'HAPPINESS, Normal';fill:none;stroke:#000000;stroke-width:0.0156649;stroke-dasharray:none;stroke-opacity:1"
         d="m 1025.9531,16.01133 c -0.2934,0 -0.5882,0.095 -0.8086,0.285156 -0.2204,0.190158 -0.3672,0.47666 -0.3672,0.855469 0.012,1.523452 -0.06,3.082173 0.061,4.607421 0.066,0.78251 0.3285,1.499743 0.7793,2.041016 0.4508,0.541274 1.0905,0.906031 1.9101,0.984375 0.7492,0.07854 1.4082,-0.249679 1.9219,-0.755859 0.5137,-0.50618 0.8839,-1.189729 1.0586,-1.822266 0.1928,-0.7108 0.1797,-1.492488 0.1797,-2.236328 0.012,-0.852138 0.011,-1.703113 0.023,-2.542969 0,-0.378808 -0.1468,-0.66531 -0.3671,-0.855468 -0.2204,-0.190159 -0.5133,-0.285157 -0.8067,-0.285157 -0.2934,0 -0.5867,0.09503 -0.8086,0.285157 -0.2219,0.190127 -0.372,0.47666 -0.375,0.855468 -0.012,1.008118 -0.011,2.026992 -0.023,3.046875 0,0.336088 0,0.774456 -0.092,1.154297 -0.095,0.379841 -0.2877,0.700225 -0.6778,0.8125 -0.053,0.01668 -0.095,0.0057 -0.1347,-0.02734 -0.04,-0.03301 -0.076,-0.08997 -0.1055,-0.164062 -0.06,-0.148186 -0.097,-0.364454 -0.1211,-0.591797 -0.048,-0.454685 -0.039,-0.953678 -0.039,-1.0625 -0.012,-1.151896 -0.012,-2.305209 -0.024,-3.445312 0,-0.378809 -0.1531,-0.663389 -0.375,-0.853516 -0.2219,-0.190127 -0.5151,-0.285156 -0.8086,-0.285156 z m 0,0.0293 c 0.2871,0 0.5733,0.09247 0.7891,0.277343 0.2157,0.184873 0.3603,0.462794 0.3633,0.833985 0.012,1.139894 0.013,2.291257 0.025,3.443359 0,0.107178 -0.01,0.609093 0.039,1.066406 0.024,0.228657 0.061,0.446295 0.1231,0.59961 0.031,0.07666 0.068,0.137725 0.1133,0.175781 0.045,0.03762 0.1017,0.0496 0.1621,0.03125 0.4019,-0.115724 0.6006,-0.448827 0.6972,-0.833985 0.097,-0.385157 0.094,-0.824244 0.094,-1.160156 0.012,-1.020115 0.013,-2.038995 0.025,-3.046875 0,-0.371191 0.1475,-0.647159 0.3632,-0.832031 0.2158,-0.184872 0.502,-0.279297 0.7891,-0.279297 0.2871,0 0.5748,0.09446 0.7891,0.279297 0.2142,0.184841 0.3554,0.460841 0.3554,0.832031 -0.012,0.840142 -0.011,1.691109 -0.023,2.542969 0,0.744158 0.012,1.523317 -0.1797,2.228516 -0.1733,0.627461 -0.5415,1.306775 -1.0508,1.808593 -0.5093,0.501819 -1.1576,0.825506 -1.8964,0.748047 -0.8124,-0.07766 -1.4445,-0.43693 -1.8907,-0.972656 -0.4462,-0.535726 -0.7076,-1.247902 -0.7734,-2.025391 -0.1199,-1.522748 -0.047,-3.082877 -0.059,-4.607421 6e-4,-0.370081 0.1417,-0.647557 0.3555,-0.832032 0.2142,-0.184841 0.502,-0.277344 0.789,-0.277343 z"
         id="path4140"
         inkscape:label="U" />
      <path
         style="color:#000000;-inkscape-font-specification:'HAPPINESS, Normal';fill:none;stroke:#000000;stroke-width:0.0156649;stroke-dasharray:none;stroke-opacity:1"
         d="m 1036.8555,14.74787 c -1.3818,-0.180227 -2.6597,-0.09559 -3.7676,0.84375 -0.5795,0.494982 -0.8189,1.166522 -0.8008,1.84375 0.018,0.677228 0.2921,1.360208 0.7383,1.884766 0.3387,0.399225 0.8564,0.664532 1.3125,0.892578 0.3983,0.193136 0.9831,0.34971 1.2422,0.714843 0.058,0.08394 0.058,0.145969 0.025,0.199219 -0.033,0.05325 -0.1004,0.09771 -0.1836,0.13086 -0.1665,0.0663 -0.3892,0.08984 -0.4766,0.08984 -0.5807,0 -1.168,-0.428071 -1.6367,-0.728515 -0.3182,-0.209082 -0.6306,-0.240929 -0.9004,-0.154297 -0.2698,0.08663 -0.4962,0.290913 -0.6426,0.544922 -0.1463,0.254008 -0.2144,0.558917 -0.166,0.853515 0.048,0.294598 0.2141,0.577105 0.5293,0.783203 1.1896,0.781064 2.5621,1.349213 3.9961,0.867188 1.4247,-0.470859 2.3414,-2.234046 1.5684,-3.623047 -0.6392,-1.133682 -1.7947,-1.43385 -2.8243,-2.068359 -0.1415,-0.08847 -0.223,-0.196458 -0.2343,-0.302735 -0.011,-0.106277 0.044,-0.214541 0.1855,-0.308593 v 0 c 0.5563,-0.378751 1.4161,-0.189627 2.0293,-0.105469 0.3234,0.03662 0.618,-0.113113 0.832,-0.34375 0.2139,-0.230637 0.3476,-0.543415 0.3477,-0.835938 0,-0.351742 -0.1334,-0.628585 -0.3477,-0.826171 -0.2143,-0.197587 -0.5076,-0.315273 -0.8281,-0.351563 z m 0,0.0293 c 0.3154,0.03571 0.6038,0.151336 0.8125,0.34375 0.2087,0.192413 0.3379,0.460431 0.3379,0.804687 0,0.283477 -0.1308,0.591044 -0.3399,0.816407 -0.209,0.225362 -0.4941,0.369364 -0.8066,0.333984 -0.6109,-0.08384 -1.4791,-0.279874 -2.0508,0.109375 -0.1469,0.09795 -0.2119,0.219168 -0.1992,0.337891 0.013,0.118722 0.1016,0.232691 0.248,0.324218 1.0344,0.63749 2.1817,0.936278 2.8145,2.058594 0.763,1.370997 -0.1435,3.112985 -1.5508,3.578125 -1.422,0.477974 -2.7863,-0.08239 -3.9727,-0.861328 -0.3088,-0.201901 -0.4684,-0.476646 -0.5156,-0.763672 -0.047,-0.287026 0.019,-0.587446 0.1621,-0.835937 0.1432,-0.248491 0.3634,-0.445305 0.625,-0.529297 0.2616,-0.08399 0.5651,-0.05648 0.877,0.148437 0.4673,0.299556 1.0571,0.734375 1.6523,0.734375 0.093,0 0.3138,-0.0231 0.4863,-0.0918 0.086,-0.03435 0.161,-0.07995 0.1993,-0.142578 0.038,-0.06262 0.037,-0.14236 -0.025,-0.232422 -0.2689,-0.378866 -0.8603,-0.533745 -1.2539,-0.724609 -0.4559,-0.227953 -0.9695,-0.491992 -1.3028,-0.884766 -0.4418,-0.519441 -0.7145,-1.197417 -0.7324,-1.867187 -0.018,-0.66977 0.2185,-1.331295 0.791,-1.820313 1.1001,-0.932655 2.3659,-1.01571 3.7442,-0.835937 z"
         id="path4142"
         inkscape:label="S" />
    </g>
    <g
       aria-label="MERDE"
       transform="matrix(2.1363392,0,0,2.3189468,-2156.009,-1989.9231)"
       id="g4156"
       style="font-size:24px;font-family:HAPPINESS;-inkscape-font-specification:'HAPPINESS, Normal';white-space:pre;display:inline;fill:none;stroke:#000000;stroke-width:0;stroke-dasharray:none;stroke-opacity:1"
       inkscape:label="MERDE">
      <path
         style="color:#000000;-inkscape-font-specification:'HAPPINESS, Normal';fill:none;stroke:#000000;stroke-width:0.0237745;stroke-dasharray:none;stroke-opacity:1"
         d="m 950.65284,954.36791 c -0.81787,-0.20486 -1.79607,-0.0255 -2.50361,0.50027 -1.27906,0.988 -2.50214,2.03953 -3.687,3.12452 l -0.8094,-3.84803 5.6e-4,-0.002 c -0.19289,-0.87597 -0.76983,-1.39915 -1.47213,-1.57507 -0.9827,-0.24615 -2.15656,0.16376 -2.82707,1.07502 -2.33207,3.09741 -4.53923,6.27493 -6.64379,9.52873 -0.13861,0.21541 -0.25454,0.43724 -0.32377,0.67184 -0.19003,0.64385 -0.0444,1.24209 0.29388,1.71309 0.33831,0.47098 0.86835,0.81662 1.45243,0.96292 0.88835,0.22252 1.94824,-0.0414 2.59919,-1.05723 1.09227,-1.6974 2.23055,-3.38428 3.38464,-5.04212 l 0.62364,2.94128 c 0.18389,0.82593 0.86902,1.39972 1.6635,1.59871 0.77064,0.19304 1.6474,0.0348 2.24348,-0.62007 l 5.7e-4,-0.002 c 0.75191,-0.81183 1.52187,-1.59593 2.31178,-2.374 -0.13451,1.96099 -0.22481,3.93233 -0.26176,5.89319 -0.0272,1.19654 0.70166,1.88606 1.61257,2.11423 0.58423,0.14637 1.23514,0.0889 1.78917,-0.17119 0.55404,-0.26002 1.01137,-0.72474 1.20814,-1.39149 0.062,-0.2101 0.10182,-0.42571 0.10069,-0.67712 0.0894,-3.75742 0.33155,-7.52664 0.71933,-11.28395 0.0603,-0.58679 -0.0812,-1.05058 -0.3512,-1.3955 -0.27001,-0.34492 -0.66833,-0.57018 -1.12379,-0.68427 z m -0.0132,0.0453 c 0.44775,0.11217 0.83738,0.33252 1.10019,0.66824 0.26281,0.33571 0.40002,0.78544 0.34068,1.3625 -0.38793,3.7585 -0.62911,7.52953 -0.71854,11.28819 10e-4,0.24658 -0.0382,0.45858 -0.0992,0.66534 -0.19282,0.65332 -0.63814,1.10696 -1.18118,1.36181 -0.54303,0.25485 -1.18384,0.31067 -1.75756,0.16696 -0.89549,-0.22431 -1.60603,-0.89189 -1.57923,-2.06945 0.0373,-1.97994 0.12794,-3.9712 0.2647,-5.95114 l 0.004,-0.0599 -0.0427,0.0419 c -0.80628,0.79315 -1.58928,1.59351 -2.35618,2.42157 -0.58246,0.64076 -1.43925,0.7952 -2.19667,0.60548 -0.78033,-0.19546 -1.45087,-0.75901 -1.6306,-1.5662 l -0.64538,-3.04589 -0.0315,0.0448 c -1.16541,1.67314 -2.31435,3.37684 -3.41719,5.09065 -0.64001,0.99874 -1.67463,1.2544 -2.54638,1.03605 -0.57387,-0.14375 -1.09537,-0.48483 -1.42693,-0.94643 -0.33155,-0.46159 -0.47342,-1.04313 -0.2875,-1.67304 0.0674,-0.22857 0.18099,-0.44612 0.318,-0.65911 2.10397,-3.2529 4.31004,-6.43092 6.64134,-9.52731 0.65839,-0.8948 1.81406,-1.2964 2.77672,-1.05525 0.68726,0.17214 1.24953,0.68116 1.43923,1.54254 l 0.82518,3.92484 0.0308,-0.0288 c 1.19295,-1.09351 2.42568,-2.15132 3.71363,-3.14618 0.69413,-0.51517 1.66002,-0.69336 2.46279,-0.49227 z"
         id="path4146"
         inkscape:label="M" />
      <path
         style="color:#000000;-inkscape-font-specification:'HAPPINESS, Normal';fill:none;stroke:#000000;stroke-width:0.0237745;stroke-dasharray:none;stroke-opacity:1"
         d="m 964.65539,955.8322 -5.55413,-0.40905 c -0.98768,-0.0896 -1.9294,0.32 -2.43173,1.12085 -4e-4,4.7e-4 10e-5,10e-4 -3.9e-4,0.002 -5.1e-4,8.1e-4 -0.002,6.7e-4 -0.002,0.002 -0.25527,0.30262 -0.42859,0.69029 -0.51661,1.14075 l -3.8e-4,0.002 c -0.6243,3.94394 -1.38419,7.84036 -2.2683,11.74131 -0.26204,1.21477 0.61474,2.51682 1.86669,2.67508 l 6.13477,0.79903 c 0.74405,0.0926 1.3637,-0.12793 1.82326,-0.51528 0.45954,-0.38736 0.75973,-0.9406 0.8741,-1.51807 0.11488,-0.57739 0.0424,-1.17896 -0.24713,-1.66035 -0.28958,-0.48138 -0.79785,-0.84173 -1.54774,-0.93536 l -3.75885,-0.47647 c 0.13991,-0.59687 0.2577,-1.19726 0.37495,-1.79731 0.79146,0.0341 1.565,0.0416 2.3658,0.0291 0.64198,-0.006 1.20996,-0.34863 1.60089,-0.83991 0.39154,-0.49201 0.60837,-1.13275 0.55314,-1.73402 -0.0411,-0.67149 -0.35154,-1.19809 -0.81213,-1.55161 -0.46059,-0.35353 -1.07059,-0.53456 -1.71261,-0.51817 -0.40475,0.004 -0.75902,-0.007 -1.11376,-0.018 0.0745,-0.38654 0.12865,-0.77617 0.20307,-1.16101 1.0975,0.0851 2.17106,0.16717 3.26881,0.25229 1.28422,0.09 2.50384,-0.59612 2.76464,-1.9309 0.11443,-0.58558 -0.0292,-1.23617 -0.36202,-1.75283 -0.33283,-0.51665 -0.85629,-0.90031 -1.50207,-0.94564 z m -0.005,0.0468 c 0.62913,0.0446 1.14182,0.41705 1.46855,0.92422 0.32672,0.50718 0.4663,1.14802 0.35457,1.71984 -0.25609,1.3107 -1.44764,1.98063 -2.71333,1.89178 -1.10504,-0.0857 -2.18574,-0.16626 -3.29072,-0.25196 l -0.0215,-0.002 -0.004,0.0192 c -0.0787,0.40246 -0.13414,0.80842 -0.21246,1.20906 l -0.005,0.0269 0.0258,-2.6e-4 c 0.36354,0.0115 0.7293,0.0236 1.14528,0.0192 0.63238,-0.0161 1.23171,0.16097 1.68297,0.5073 0.45124,0.34637 0.75434,0.8601 0.79469,1.51896 l -3.9e-4,0.002 c 0.0539,0.58733 -0.15825,1.21728 -0.54253,1.70007 -0.38418,0.48278 -0.93903,0.81753 -1.56563,0.82193 -0.80678,0.0124 -1.58414,0.005 -2.38155,-0.0298 l -0.0215,-0.002 -0.004,0.0212 c -0.12002,0.61414 -0.23939,1.22806 -0.38283,1.83769 l -0.007,0.0247 3.80881,0.48475 c 0.73794,0.0921 1.23146,0.44386 1.51423,0.91392 0.28276,0.47007 0.35402,1.06005 0.2416,1.62768 -0.1119,0.56771 -0.40883,1.1115 -0.85886,1.49083 -0.45002,0.37932 -1.05328,0.59486 -1.78526,0.50371 l -6.13479,-0.79902 c -1.22302,-0.15467 -2.08589,-1.4327 -1.82992,-2.61937 0.88431,-3.90185 1.64649,-7.79978 2.27101,-11.74482 0.087,-0.44556 0.25853,-0.82654 0.50901,-1.12217 l 3.8e-4,-0.002 0.002,-0.002 c 0.49158,-0.78709 1.41343,-1.18936 2.38803,-1.10031 l 0.002,3.2e-4 z"
         id="path4148"
         inkscape:label="E" />
      <path
         style="color:#000000;-inkscape-font-specification:'HAPPINESS, Normal';fill:none;stroke:#000000;stroke-width:0.0237745;stroke-dasharray:none;stroke-opacity:1"
         d="m 975.57898,955.11821 c -1.19335,0.14252 -2.30101,0.44704 -3.26431,1.00662 l 0.0175,-10e-4 c -0.69496,-0.1518 -1.46554,-0.0128 -2.05093,0.39525 -0.58539,0.40808 -0.98576,1.08602 -0.93669,2.00486 0.25262,4.2679 0.5563,8.55712 0.90456,12.81746 0.0641,0.75375 0.40421,1.29879 0.87616,1.64214 0.47195,0.34335 1.07326,0.48568 1.65814,0.43949 0.58486,-0.0462 1.1549,-0.28113 1.56247,-0.69384 0.40756,-0.41271 0.6513,-1.00396 0.58723,-1.75771 -0.05,-0.537 -0.0757,-1.07686 -0.12481,-1.61522 2.33767,1.1567 4.70938,2.19488 7.16745,3.1036 1.18428,0.46484 2.54311,0.13757 3.10876,-1.09824 0.25527,-0.5322 0.2702,-1.20132 0.0723,-1.79349 -0.19794,-0.59217 -0.61122,-1.10839 -1.2175,-1.32898 -1.76066,-0.67408 -3.50218,-1.399 -5.20094,-2.17291 0.51124,-0.35072 1.01604,-0.76608 1.46968,-1.22755 1.72649,-1.70838 2.20848,-4.33137 1.53841,-6.5983 -0.40823,-1.39579 -1.33081,-2.25129 -2.46027,-2.71868 -1.12946,-0.46739 -2.46527,-0.5495 -3.70718,-0.40313 z m 0.006,0.0466 c 1.23606,-0.1457 2.56426,-0.0639 3.68328,0.39913 1.11902,0.46308 2.02758,1.30518 2.4319,2.6876 0.66567,2.25201 0.18883,4.85925 -1.52487,6.5541 -0.46101,0.46896 -0.97551,0.89379 -1.4953,1.24722 l -0.0331,0.0242 0.0369,0.0167 c 1.71109,0.78047 3.46588,1.51036 5.23972,2.18945 0.59046,0.21482 0.99502,0.71858 1.18931,1.29984 0.19429,0.58124 0.17751,1.23883 -0.0716,1.75815 -0.55538,1.21334 -1.88248,1.53146 -3.0483,1.07386 -2.46884,-0.91269 -4.85405,-1.95149 -7.20181,-3.11461 l -0.0371,-0.0186 0.004,0.0408 c 0.0511,0.54931 0.079,1.10138 0.13024,1.65204 0.063,0.74171 -0.17817,1.31789 -0.57686,1.7216 -0.39869,0.40372 -0.95755,0.63431 -1.53242,0.67971 -0.57488,0.0454 -1.1645,-0.0946 -1.62592,-0.43027 -0.46141,-0.33569 -0.79428,-0.86663 -0.85732,-1.60834 -0.34824,-4.25999 -0.65179,-8.54798 -0.90438,-12.81552 -0.0483,-0.90415 0.34304,-1.564 0.91695,-1.96409 0.57393,-0.40009 1.33238,-0.5374 2.01432,-0.38844 l 0.008,10e-4 0.008,-0.005 c 0.95633,-0.55554 2.05817,-0.85938 3.24714,-1.00136 z m 1.41519,4.42238 c -0.27486,-0.006 -0.63944,0.0952 -0.9939,0.14715 -0.25961,0.0445 -0.61762,0.0848 -0.94569,0.18054 -0.32714,0.0955 -0.6263,0.2461 -0.76345,0.51704 -0.0632,0.10185 -0.10522,0.17704 -0.16861,0.25247 l -0.005,0.006 9.3e-4,0.01 c 0.0517,0.8149 0.10271,1.63009 0.18063,2.46746 l 0.003,0.0311 0.0302,-0.0124 c 0.75712,-0.28896 1.51377,-0.64272 2.09201,-1.1336 0.57822,-0.49088 0.97642,-1.11933 1.00863,-1.94781 0.0129,-0.19139 -0.0239,-0.32131 -0.10418,-0.40343 -0.0798,-0.0822 -0.1967,-0.11174 -0.33413,-0.11476 z m -0.002,0.0452 c 0.1311,0.003 0.23594,0.032 0.30349,0.10149 0.0675,0.0695 0.10346,0.18325 0.091,0.36723 l 1.8e-4,0.002 c -0.0317,0.81455 -0.42078,1.42805 -0.99226,1.9132 -0.56371,0.47857 -1.30816,0.82687 -2.05276,1.11286 -0.0758,-0.822 -0.12576,-1.62327 -0.17664,-2.42464 0.0622,-0.0761 0.10526,-0.14959 0.16526,-0.24634 l -1.8e-4,-0.002 c 0.12752,-0.2543 0.41512,-0.40321 0.73783,-0.49738 0.3227,-0.0941 0.67804,-0.13324 0.94004,-0.17813 0.35847,-0.0525 0.7218,-0.15406 0.98399,-0.14827 z"
         id="path4150"
         inkscape:label="R" />
      <path
         style="color:#000000;-inkscape-font-specification:'HAPPINESS, Normal';fill:none;stroke:#000000;stroke-width:0.0237745;stroke-dasharray:none;stroke-opacity:1"
         d="m 990.0808,953.1549 c -1.08486,0.23841 -2.14883,0.67198 -3.00678,1.26148 -0.57366,0.0859 -1.11304,0.3631 -1.4747,0.80453 -0.36166,0.44142 -0.54386,1.04696 -0.4013,1.78556 0.72162,3.95262 1.46592,7.90112 2.21125,11.85011 0.1896,1.07473 0.9243,1.67404 1.75422,1.85659 0.82641,0.18178 1.74785,-0.0466 2.33427,-0.62059 2.32155,-0.10558 4.83682,-1.28465 6.34811,-2.80259 2.15733,-2.15264 2.61583,-5.48969 1.55402,-8.32973 -1.0526,-2.79031 -3.17658,-5.30191 -6.1857,-5.90053 -0.9372,-0.18944 -2.04524,-0.14395 -3.13339,0.0952 z m 0.0121,0.0457 c 1.08289,-0.23792 2.18513,-0.28189 3.11376,-0.0942 2.9883,0.59449 5.10187,3.08892 6.15033,5.86823 1.05591,2.82433 0.5983,6.14238 -1.54485,8.28087 -1.5031,1.50973 -4.01562,2.68783 -6.32439,2.79113 l -0.008,-7.9e-4 -0.007,0.007 c -0.57339,0.56685 -1.48714,0.79482 -2.3015,0.61569 -0.81435,-0.17913 -1.52936,-0.76149 -1.71589,-1.8188 -0.74529,-3.94899 -1.48962,-7.89767 -2.21125,-11.85011 -0.14024,-0.72659 0.0384,-1.31697 0.392,-1.74855 0.35359,-0.43158 0.88249,-0.70399 1.4459,-0.78835 l 0.006,-8.9e-4 0.004,-0.003 c 0.85336,-0.58816 1.91843,-1.02077 3.00134,-1.25869 z m 2.27039,4.43479 c -0.5357,0.007 -1.56858,0.089 -2.24843,0.41182 l -0.0147,0.006 0.003,0.0174 c 0.45415,2.43642 0.90883,4.87422 1.36715,7.33434 l 0.004,0.0212 0.0231,-0.003 c 1.11895,-0.16754 2.35296,-0.7661 3.06281,-1.45983 0.87875,-0.86873 0.96583,-2.44461 0.45311,-3.54452 -0.22666,-0.5259 -0.55013,-1.22138 -0.98581,-1.78564 -0.43568,-0.56425 -0.98571,-1.00029 -1.66399,-0.99747 z m 2.7e-4,0.0475 c 0.65806,-0.003 1.19614,0.42105 1.62714,0.97924 0.431,0.5582 0.75375,1.24988 0.97991,1.77465 0.5044,1.08204 0.41615,2.64315 -0.44425,3.49372 -0.69533,0.67955 -1.91391,1.26603 -3.01541,1.4369 -0.45501,-2.44251 -0.90663,-4.86121 -1.35762,-7.28037 0.66609,-0.3101 1.68222,-0.39713 2.21019,-0.40417 z"
         id="path4152"
         inkscape:label="D" />
      <path
         style="color:#000000;-inkscape-font-specification:'HAPPINESS, Normal';fill:none;stroke:#000000;stroke-width:0.0237745;stroke-dasharray:none;stroke-opacity:1"
         d="m 1005.6627,948.0925 -5.1283,2.00246 c -0.9231,0.34151 -1.5525,1.1072 -1.59429,2.03389 -0.0746,0.37717 -0.0355,0.795 0.11258,1.23209 l 6.4e-4,0.002 c 1.42577,3.763 2.70737,7.54163 3.88077,11.37729 0.3776,1.18868 1.8082,1.96984 2.9978,1.57693 l 5.8407,-1.9045 c 0.7061,-0.23479 1.145,-0.69426 1.358,-1.23347 0.2131,-0.53921 0.2016,-1.15762 0.013,-1.71838 -0.1898,-0.56034 -0.554,-1.06347 -1.0524,-1.36697 -0.4983,-0.30352 -1.1299,-0.40654 -1.8418,-0.17016 l -3.572,1.17852 c -0.1755,-0.58886 -0.3728,-1.17127 -0.57,-1.75328 0.719,-0.30686 1.4086,-0.62978 2.1125,-0.98183 l 6e-4,0.002 c 0.5681,-0.27797 0.8972,-0.82546 0.9974,-1.42849 0.1002,-0.60304 -0.029,-1.26353 -0.3798,-1.77315 v 0 c -0.3735,-0.5779 -0.9149,-0.91207 -1.5007,-1.02938 -0.5852,-0.11716 -1.2162,-0.0178 -1.7767,0.26945 v 0 c -0.3567,0.176 -0.6764,0.31728 -0.9966,0.45843 -0.127,-0.37475 -0.2758,-0.74293 -0.4022,-1.11607 1.0158,-0.39203 2.0089,-0.77646 3.025,-1.16855 1.184,-0.46705 1.921,-1.59504 1.4824,-2.88968 -0.1924,-0.56797 -0.6463,-1.08367 -1.2007,-1.40003 -0.5544,-0.31636 -1.211,-0.43361 -1.8064,-0.19874 z m 0.015,0.0448 c 0.5801,-0.2288 1.2217,-0.11653 1.766,0.19401 0.5442,0.31056 0.9896,0.81934 1.1775,1.37396 0.4307,1.27128 -0.2897,2.37283 -1.4565,2.83314 -1.0229,0.39469 -2.0216,0.78354 -3.0443,1.17818 l -0.02,0.008 0.01,0.0186 c 0.1323,0.39035 0.2864,0.77409 0.418,1.16268 l 0.01,0.0262 0.024,-0.0112 c 0.3281,-0.14464 0.6565,-0.28926 1.0233,-0.47021 0.5526,-0.28366 1.1729,-0.3819 1.7469,-0.267 0.5739,0.11493 1.1005,0.44136 1.4669,1.00839 l 7e-4,0.002 c 0.3425,0.49782 0.4702,1.14687 0.3721,1.73853 -0.098,0.59173 -0.4206,1.12436 -0.9739,1.39513 v 0 c -0.7091,0.35467 -1.4022,0.67915 -2.1267,0.98798 l -0.019,0.008 0.01,0.0205 c 0.2018,0.59566 0.404,1.19089 0.5822,1.79271 l 0.01,0.0242 3.6188,-1.19194 c 0.7004,-0.23263 1.3146,-0.13094 1.8013,0.16543 0.4866,0.29636 0.8458,0.78917 1.0311,1.34035 0.1866,0.5508 0.1971,1.15918 -0.012,1.68722 -0.2086,0.52801 -0.6373,0.97664 -1.332,1.20758 l -5.8408,1.9045 c -1.162,0.38379 -2.5667,-0.38245 -2.9352,-1.54373 -1.1741,-3.83644 -2.4563,-7.61684 -3.88207,-11.38102 -0.14641,-0.43216 -0.18508,-0.84315 -0.11189,-1.21183 l -6.5e-4,-0.002 -6.5e-4,-0.002 c 0.0408,-0.90728 0.65826,-1.65716 1.56716,-1.99332 z"
         id="path4154"
         inkscape:label="E" />
    </g>
  </g>
  <g
     inkscape:groupmode="layer"
     id="layer2"
     inkscape:label="JEVOUSMERDE small">
    <g
       aria-label="JeVous"
       transform="matrix(3.4950067,0,0,3.2649718,-3449.4645,-16.490413)"
       id="text113023-3"
       style="display:inline;fill:none;stroke:#000000;stroke-opacity:1;font-size:12px;font-family:HAPPINESS;-inkscape-font-specification:'HAPPINESS, Normal';white-space:pre;stroke-width:0;stroke-dasharray:none"
       inkscape:label="JEVOUS">
      <path
         id="path8378-6"
         style="color:#000000;-inkscape-font-specification:'HAPPINESS, Normal';fill:none;stroke:#000000;stroke-width:0.0156649;stroke-dasharray:none;stroke-opacity:1"
         inkscape:label="J"
         sodipodi:type="inkscape:offset"
         inkscape:radius="0.30"
         inkscape:original="M 998.35742 13.835938 C 998.05899 13.835938 997.74673 13.969181 997.51758 14.181641 C 997.28842 14.394102 997.1411 14.686411 997.17773 15.003906 C 997.34573 16.635833 997.50136 18.267449 997.44141 19.910156 C 997.41741 20.474463 997.40471 21.16514 997.01367 21.603516 L 997.01367 21.605469 C 996.98437 21.640599 996.94247 21.680218 996.89648 21.708984 C 996.85428 21.735374 996.80868 21.746184 996.76367 21.740234 C 996.75467 21.603848 996.76434 21.46727 996.78711 21.341797 L 996.78711 21.339844 C 996.83551 21.019352 996.79981 20.705668 996.66602 20.447266 C 996.53225 20.188865 996.30056 19.987455 995.96094 19.896484 C 995.68051 19.817234 995.34364 19.861714 995.06445 20.005859 C 994.78527 20.150003 994.56253 20.395332 994.51367 20.712891 C 994.42347 21.326009 994.40261 21.956508 994.5625 22.511719 C 994.72242 23.06693 995.06562 23.54594 995.69922 23.847656 C 996.90611 24.426962 998.24634 23.919947 999.00586 22.871094 C 999.77744 21.810167 999.8005 20.40266 999.8125 19.142578 C 999.8245 17.761378 999.66743 16.379914 999.52344 15 C 999.49314 14.685121 999.37289 14.394376 999.17383 14.181641 C 998.97477 13.968907 998.6973 13.835938 998.35742 13.835938 z M 998.35742 13.865234 C 998.68954 13.865234 998.9584 13.995859 999.15234 14.203125 C 999.34628 14.41039 999.46442 14.694786 999.49414 15.003906 C 999.63815 16.383989 999.79519 17.76378 999.7832 19.142578 C 999.7712 20.402493 999.7449 21.802446 998.98047 22.853516 C 998.22799 23.892659 996.90405 24.393005 995.71094 23.820312 C 995.08454 23.522029 994.74987 23.052694 994.5918 22.503906 C 994.43372 21.955118 994.4531 21.327678 994.54297 20.716797 C 994.59007 20.410358 994.80531 20.174059 995.07812 20.033203 C 995.35095 19.892347 995.68157 19.84708 995.95312 19.923828 C 996.2855 20.012858 996.5104 20.209339 996.64062 20.460938 C 996.77086 20.712536 996.80544 21.020431 996.75781 21.335938 C 996.73361 21.468947 996.72217 21.614139 996.73438 21.759766 L 996.73438 21.769531 L 996.74609 21.773438 C 996.80519 21.786568 996.86214 21.765635 996.91211 21.734375 C 996.96131 21.703655 997.00451 21.661455 997.03516 21.625 C 997.43617 21.175377 997.44867 20.473848 997.47266 19.910156 C 997.53266 18.264866 997.37506 16.632069 997.20703 15 C 997.17163 14.693495 997.31326 14.410664 997.53711 14.203125 C 997.76096 13.995586 998.06785 13.865234 998.35742 13.865234 z "
         d="m 998.35742,13.835938 c -0.29843,0 -0.61069,0.133243 -0.83984,0.345703 -0.22916,0.212461 -0.37648,0.50477 -0.33985,0.822265 0.168,1.631927 0.32363,3.263543 0.26368,4.90625 -0.024,0.564307 -0.0367,1.254984 -0.42774,1.69336 v 0.002 c -0.0293,0.03513 -0.0712,0.07475 -0.11719,0.103515 -0.0422,0.02639 -0.0878,0.0372 -0.13281,0.03125 -0.009,-0.136386 6.7e-4,-0.272964 0.0234,-0.398437 v -0.002 c 0.0484,-0.320492 0.0127,-0.634176 -0.12109,-0.892578 -0.13377,-0.258401 -0.36546,-0.459811 -0.70508,-0.550782 -0.28043,-0.07925 -0.6173,-0.03477 -0.89649,0.109375 -0.27918,0.144144 -0.50192,0.389473 -0.55078,0.707032 -0.0902,0.613118 -0.11106,1.243617 0.0488,1.798828 0.15992,0.555211 0.50312,1.034221 1.13672,1.335937 1.20689,0.579306 2.54712,0.07229 3.30664,-0.976562 0.77158,-1.060927 0.79464,-2.468434 0.80664,-3.728516 0.012,-1.3812 -0.14507,-2.762664 -0.28906,-4.142578 -0.0303,-0.314879 -0.15055,-0.605624 -0.34961,-0.818359 -0.19906,-0.212734 -0.47653,-0.345703 -0.81641,-0.345703 z m 0,0.0293 c 0.33212,0 0.60098,0.130625 0.79492,0.337891 0.19394,0.207265 0.31208,0.491661 0.3418,0.800781 0.14401,1.380083 0.30105,2.759874 0.28906,4.138672 -0.012,1.259915 -0.0383,2.659868 -0.80273,3.710938 -0.75248,1.039143 -2.07642,1.539489 -3.26953,0.966796 -0.6264,-0.298283 -0.96107,-0.767618 -1.11914,-1.316406 -0.15808,-0.548788 -0.1387,-1.176228 -0.0488,-1.787109 0.0471,-0.306439 0.26234,-0.542738 0.53515,-0.683594 0.27283,-0.140856 0.60345,-0.186123 0.875,-0.109375 0.33238,0.08903 0.55728,0.285511 0.6875,0.53711 0.13024,0.251598 0.16482,0.559493 0.11719,0.875 -0.0242,0.133009 -0.0356,0.278201 -0.0234,0.423828 v 0.0098 l 0.0117,0.0039 c 0.0591,0.01313 0.11605,-0.0078 0.16602,-0.03906 0.0492,-0.03072 0.0924,-0.07292 0.12305,-0.109375 0.40101,-0.449623 0.41351,-1.151152 0.4375,-1.714844 0.06,-1.64529 -0.0976,-3.278087 -0.26563,-4.910156 -0.0354,-0.306505 0.10623,-0.589336 0.33008,-0.796875 0.22385,-0.207539 0.53074,-0.337891 0.82031,-0.337891 z" />
      <path
         id="path8380-7"
         style="color:#000000;-inkscape-font-specification:'HAPPINESS, Normal';fill:none;stroke:#000000;stroke-width:0.0156649;stroke-dasharray:none;stroke-opacity:1"
         inkscape:label="E"
         sodipodi:type="inkscape:offset"
         inkscape:radius="0.4"
         inkscape:original="M 1004.7402 15.582031 L 1001.9668 15.833984 C 1001.4717 15.870814 1001.0477 16.150228 1000.877 16.585938 C 1000.779 16.756573 1000.7305 16.963282 1000.7305 17.193359 C 1000.8025 19.185003 1000.8022 21.164547 1000.7422 23.15625 C 1000.7302 23.777322 1001.2886 24.348575 1001.9219 24.324219 L 1005.0176 24.214844 C 1005.3934 24.199684 1005.6778 24.041244 1005.8672 23.8125 C 1006.0566 23.583755 1006.1516 23.286354 1006.1523 22.992188 C 1006.1531 22.698023 1006.0603 22.407286 1005.8711 22.193359 C 1005.6817 21.979432 1005.3944 21.842269 1005.0156 21.857422 L 1003.123 21.929688 C 1003.134 21.626444 1003.1367 21.324371 1003.1367 21.021484 C 1003.5282 20.973724 1003.9072 20.914956 1004.2988 20.84375 C 1004.616 20.78886 1004.864 20.571633 1005.0098 20.296875 C 1005.1555 20.022117 1005.2005 19.688766 1005.1152 19.396484 C 1005.0302 19.068586 1004.8258 18.834018 1004.5645 18.697266 C 1004.3031 18.560515 1003.9849 18.521458 1003.6699 18.582031 C 1003.4719 18.616971 1003.2981 18.640722 1003.123 18.664062 C 1003.1224 18.469935 1003.1123 18.275113 1003.1113 18.082031 C 1003.6585 18.034431 1004.1948 17.987051 1004.7422 17.939453 C 1005.384 17.878903 1005.9199 17.441471 1005.9199 16.761719 C 1005.9199 16.463288 1005.7862 16.153421 1005.5723 15.925781 C 1005.3583 15.698141 1005.0635 15.551536 1004.7402 15.582031 z M 1004.7402 15.611328 C 1005.0529 15.581818 1005.3398 15.722953 1005.5488 15.945312 C 1005.7578 16.167673 1005.8887 16.472149 1005.8887 16.761719 C 1005.8887 17.425965 1005.3685 17.850708 1004.7383 17.910156 C 1004.1863 17.958156 1003.6457 18.006687 1003.0938 18.054688 L 1003.0801 18.054688 L 1003.0801 18.068359 C 1003.0801 18.272939 1003.0918 18.478222 1003.0918 18.681641 L 1003.0918 18.697266 L 1003.1094 18.695312 C 1003.2894 18.671312 1003.4694 18.647388 1003.6738 18.611328 C 1003.9828 18.551898 1004.2941 18.591358 1004.5488 18.724609 C 1004.8034 18.857857 1005.001 19.084195 1005.084 19.404297 C 1005.167 19.688015 1005.123 20.014962 1004.9805 20.283203 C 1004.8383 20.551444 1004.5998 20.761348 1004.293 20.814453 C 1003.8973 20.886413 1003.5129 20.946181 1003.1172 20.994141 L 1003.1035 20.996094 L 1003.1035 21.009766 C 1003.1035 21.321766 1003.104 21.631738 1003.0918 21.943359 L 1003.0918 21.960938 L 1005.0156 21.886719 C 1005.3868 21.871869 1005.6619 22.005319 1005.8457 22.212891 C 1006.0294 22.420464 1006.1219 22.704353 1006.1211 22.992188 C 1006.1204 23.280022 1006.0261 23.570214 1005.8418 23.792969 C 1005.6574 24.015725 1005.3819 24.170702 1005.0137 24.185547 L 1001.918 24.294922 C 1001.3039 24.318542 1000.7588 23.760414 1000.7695 23.158203 L 1000.7695 23.15625 C 1000.8295 21.164617 1000.8298 19.183106 1000.7578 17.191406 C 1000.7581 16.966339 1000.8059 16.764458 1000.9004 16.599609 L 1000.9004 16.597656 C 1001.0662 16.171438 1001.4817 15.898924 1001.9688 15.863281 L 1004.7402 15.611328 z "
         d="m 1004.7402,15.582031 -2.7734,0.251953 c -0.4951,0.03683 -0.9191,0.316244 -1.0898,0.751954 -0.098,0.170635 -0.1465,0.377344 -0.1465,0.607421 0.072,1.991644 0.072,3.971188 0.012,5.962891 -0.012,0.621072 0.5464,1.192325 1.1797,1.167969 l 3.0957,-0.109375 c 0.3758,-0.01516 0.6602,-0.1736 0.8496,-0.402344 0.1894,-0.228745 0.2844,-0.526146 0.2851,-0.820312 8e-4,-0.294165 -0.092,-0.584902 -0.2812,-0.798829 -0.1894,-0.213927 -0.4767,-0.35109 -0.8555,-0.335937 l -1.8926,0.07227 c 0.011,-0.303244 0.014,-0.605317 0.014,-0.908204 0.3915,-0.04776 0.7705,-0.106528 1.1621,-0.177734 0.3172,-0.05489 0.5652,-0.272117 0.711,-0.546875 0.1457,-0.274758 0.1907,-0.608109 0.1054,-0.900391 -0.085,-0.327898 -0.2894,-0.562466 -0.5507,-0.699218 -0.2614,-0.136751 -0.5796,-0.175808 -0.8946,-0.115235 -0.198,0.03494 -0.3718,0.05869 -0.5469,0.08203 -6e-4,-0.194127 -0.011,-0.388949 -0.012,-0.582031 0.5472,-0.0476 1.0835,-0.09498 1.6309,-0.142578 0.6418,-0.06055 1.1777,-0.497982 1.1777,-1.177734 0,-0.298431 -0.1337,-0.608298 -0.3476,-0.835938 -0.214,-0.22764 -0.5088,-0.374245 -0.8321,-0.34375 z m 0,0.0293 c 0.3127,-0.02951 0.5996,0.111625 0.8086,0.333984 0.209,0.222361 0.3399,0.526837 0.3399,0.816407 0,0.664246 -0.5202,1.088989 -1.1504,1.148437 -0.552,0.048 -1.0926,0.09653 -1.6445,0.144532 h -0.014 v 0.01367 c 0,0.20458 0.012,0.409863 0.012,0.613282 v 0.01563 l 0.018,-0.002 c 0.18,-0.024 0.36,-0.04792 0.5644,-0.08398 0.309,-0.05943 0.6203,-0.01997 0.875,0.113281 0.2546,0.133248 0.4522,0.359586 0.5352,0.679688 0.083,0.283718 0.039,0.610665 -0.1035,0.878906 -0.1422,0.268241 -0.3807,0.478145 -0.6875,0.53125 -0.3957,0.07196 -0.7801,0.131728 -1.1758,0.179688 l -0.014,0.002 v 0.01367 c 0,0.312 5e-4,0.621972 -0.012,0.933593 v 0.01758 l 1.9238,-0.07422 c 0.3712,-0.01485 0.6463,0.1186 0.8301,0.326172 0.1837,0.207573 0.2762,0.491462 0.2754,0.779297 -7e-4,0.287834 -0.095,0.578026 -0.2793,0.800781 -0.1844,0.222756 -0.4599,0.377733 -0.8281,0.392578 l -3.0957,0.109375 c -0.6141,0.02362 -1.1592,-0.534508 -1.1485,-1.136719 v -0.002 c 0.06,-1.991633 0.06,-3.973144 -0.012,-5.964844 3e-4,-0.225067 0.048,-0.426948 0.1426,-0.591797 v -0.002 c 0.1658,-0.426218 0.5813,-0.698732 1.0684,-0.734375 z" />
      <path
         style="color:#000000;font-size:12px;font-family:HAPPINESS;-inkscape-font-specification:'HAPPINESS, Normal';white-space:pre;display:inline;fill:none;stroke:#000000;stroke-width:0.0156649;stroke-dasharray:none;stroke-opacity:1"
         sodipodi:type="inkscape:offset"
         inkscape:radius="0.30"
         inkscape:original="M 1007.8711 16.779297 C 1007.5883 16.855867 1007.3375 17.020165 1007.1895 17.255859 C 1007.0414 17.491553 1006.9961 17.799716 1007.127 18.154297 C 1008.003 20.566301 1009.0349 22.9309 1010.2109 25.210938 C 1010.6126 25.989982 1011.8404 25.965877 1012.2422 25.210938 C 1013.4545 22.990281 1014.4865 20.698525 1015.3867 18.333984 C 1015.4966 18.034993 1015.4317 17.712352 1015.2695 17.445312 C 1015.1072 17.178273 1014.8469 16.96592 1014.5605 16.886719 C 1014.2328 16.795679 1013.9284 16.850439 1013.6777 17.003906 C 1013.427 17.157369 1013.2303 17.408242 1013.1152 17.710938 C 1012.5672 19.164397 1011.9363 20.605352 1011.2578 22 C 1010.5674 20.533652 1009.9469 19.045022 1009.3867 17.53125 C 1009.2594 17.179624 1009.0208 16.953022 1008.7441 16.833984 C 1008.4675 16.714946 1008.1539 16.702725 1007.8711 16.779297 z M 1007.8809 16.808594 L 1007.8828 16.808594 C 1008.159 16.734228 1008.4653 16.745513 1008.7344 16.861328 C 1009.0042 16.977415 1009.2366 17.196642 1009.3613 17.541016 C 1009.9254 19.065382 1010.5499 20.566558 1011.2461 22.042969 L 1011.2578 22.070312 L 1011.2715 22.042969 C 1011.9557 20.638606 1012.5923 19.18519 1013.1445 17.720703 C 1013.2575 17.4234 1013.451 17.178834 1013.6953 17.029297 C 1013.9396 16.87976 1014.2345 16.825102 1014.5547 16.914062 C 1014.8324 16.990862 1015.0875 17.198024 1015.2461 17.458984 C 1015.4048 17.719945 1015.4674 18.033257 1015.3613 18.322266 C 1014.4615 20.68572 1013.4303 22.977928 1012.2188 25.197266 C 1011.8285 25.930325 1010.6305 25.95422 1010.2402 25.197266 C 1009.0645 22.917838 1008.0321 20.553986 1007.1562 18.142578 C 1007.0285 17.795159 1007.0728 17.499665 1007.2168 17.271484 C 1007.3598 17.043756 1007.6048 16.883705 1007.8809 16.808594 z "
         xlink:href="#path8382-5"
         id="path4109"
         inkscape:href="#path8382-5"
         d="m 1008.3184,16.587891 c -0.1644,-0.0093 -0.3299,0.0084 -0.4864,0.05078 -0.3127,0.08466 -0.5943,0.266281 -0.7656,0.539062 -0.1715,0.272938 -0.2204,0.636659 -0.076,1.027344 0.8781,2.417814 1.911,4.786594 3.0899,7.072266 0.4576,0.887517 1.831,0.865361 2.291,0.0039 v -0.002 c 1.2155,-2.226681 2.2503,-4.523215 3.1523,-6.892578 a 0.14624037,0.14624037 0 0 0 0,-0.002 c 0.1281,-0.348461 0.051,-0.718711 -0.1289,-1.015625 -0.1804,-0.296936 -0.4657,-0.532016 -0.7949,-0.623047 -0.3648,-0.10134 -0.7156,-0.04009 -0.998,0.132812 -0.2822,0.17273 -0.4979,0.449958 -0.6231,0.779297 a 0.14624037,0.14624037 0 0 0 0,0.002 c -0.5087,1.349234 -1.0947,2.68304 -1.7187,3.984375 -0.6341,-1.367646 -1.2148,-2.752756 -1.7364,-4.162109 v -0.002 c -0.1405,-0.386771 -0.4106,-0.647845 -0.7207,-0.78125 -0.155,-0.06673 -0.32,-0.102042 -0.4843,-0.111328 z m -0.016,0.322265 c 0.1288,0.0071 0.2555,0.03531 0.3731,0.08594 0.2364,0.101719 0.4371,0.285382 0.5488,0.59375 a 0.14624037,0.14624037 0 0 0 0,0.002 c 0.5655,1.528005 1.1906,3.033187 1.8887,4.513672 l 0.01,0.02148 a 0.14624037,0.14624037 0 0 0 0.2657,0.0098 l 0.014,-0.02734 a 0.14624037,0.14624037 0 0 0 0,-0.002 c 0.6857,-1.40743 1.3251,-2.865239 1.8789,-4.333984 v -0.002 c 0.1029,-0.269607 0.2776,-0.48703 0.4903,-0.617187 0.2131,-0.130465 0.4611,-0.178236 0.7441,-0.09961 0.2348,0.06493 0.4652,0.249626 0.6055,0.480468 0.1406,0.231152 0.1914,0.496882 0.1035,0.736328 -0.8976,2.35752 -1.9271,4.643197 -3.1348,6.855469 a 0.14624037,0.14624037 0 0 0 0,0.002 c -0.3325,0.624659 -1.3848,0.649466 -1.7187,0.002 -1.1728,-2.273818 -2.2044,-4.633487 -3.0781,-7.039062 -0.1147,-0.31194 -0.074,-0.550744 0.047,-0.742188 0.1195,-0.190158 0.3337,-0.333339 0.5801,-0.40039 0.1232,-0.03317 0.2541,-0.04616 0.3828,-0.03906 z"
         transform="translate(7.8683687e-6)"
         inkscape:label="V" />
      <path
         id="path8384-3"
         style="color:#000000;-inkscape-font-specification:'HAPPINESS, Normal';fill:none;stroke:#000000;stroke-width:0.0156649;stroke-dasharray:none;stroke-opacity:1"
         inkscape:label="O"
         sodipodi:type="inkscape:offset"
         inkscape:radius="0.30"
         inkscape:original="M 1019.8203 16.615234 C 1017.7507 17.228893 1016.4383 18.950737 1016.2578 21.080078 C 1016.1738 22.104518 1016.5343 23.368532 1017.2461 24.140625 C 1018.042 24.996777 1019.1267 25.177437 1020.2441 25.189453 C 1021.491 25.189453 1022.3818 24.570635 1022.9688 23.685547 C 1023.5558 22.800459 1023.8427 21.648335 1023.8848 20.578125 C 1023.9328 19.482713 1023.6098 18.231856 1022.8379 17.423828 C 1022.3058 16.867507 1021.556 16.758823 1020.834 16.794922 L 1020.8438 16.798828 C 1020.5883 16.592064 1020.2345 16.493989 1019.8223 16.615234 L 1019.8203 16.615234 z M 1019.8301 16.644531 C 1020.2338 16.525777 1020.5756 16.621031 1020.8242 16.822266 L 1020.8242 16.824219 L 1020.834 16.824219 C 1021.552 16.788319 1022.2906 16.895679 1022.8145 17.443359 C 1023.5786 18.24333 1023.9014 19.48954 1023.8535 20.578125 C 1023.8115 21.643913 1023.5283 22.789059 1022.9453 23.667969 C 1022.3627 24.546375 1021.4821 25.157502 1020.2461 25.158203 C 1019.1316 25.146223 1018.0557 24.966987 1017.2676 24.119141 C 1016.5634 23.355235 1016.2035 22.099542 1016.2871 21.083984 C 1016.4667 18.96533 1017.7717 17.254871 1019.8301 16.644531 z M 1021.1113 19.083984 C 1021.0488 19.076347 1020.9763 19.077837 1020.9004 19.085938 C 1020.7431 19.102577 1020.5777 19.142236 1020.4941 19.160156 C 1020.2681 19.195836 1020.0434 19.182357 1019.8418 19.123047 L 1019.832 19.121094 L 1019.8223 19.125 C 1019.1586 19.511149 1018.6988 20.162914 1018.5781 20.947266 C 1018.5181 21.406129 1018.5776 21.98426 1018.8203 22.384766 C 1018.9541 22.603589 1019.1294 22.723251 1019.3301 22.787109 C 1019.5308 22.850969 1019.7576 22.861328 1019.998 22.861328 C 1020.2505 22.861328 1020.4586 22.846688 1020.6387 22.773438 C 1020.8188 22.700187 1020.9684 22.567919 1021.1016 22.337891 C 1021.3546 21.879999 1021.5231 21.337329 1021.5352 20.818359 C 1021.5592 20.301972 1021.5742 19.604396 1021.2578 19.154297 C 1021.2298 19.112657 1021.1758 19.092684 1021.1113 19.083984 z M 1021.1191 19.113281 C 1021.1791 19.121481 1021.2239 19.139572 1021.2441 19.169922 C 1021.5518 19.607822 1021.5416 20.300795 1021.5176 20.816406 L 1021.5176 20.818359 C 1021.5056 21.331389 1021.3388 21.868158 1021.0879 22.322266 C 1020.9571 22.548237 1020.8126 22.675341 1020.6387 22.746094 C 1020.4647 22.816844 1020.2612 22.832031 1020.0098 22.832031 C 1019.7701 22.832031 1019.5449 22.821916 1019.3496 22.759766 C 1019.1543 22.697626 1018.9877 22.58427 1018.8574 22.371094 C 1018.6201 21.9796 1018.5595 21.404308 1018.6191 20.951172 C 1018.7388 20.177326 1019.1912 19.534062 1019.8457 19.152344 C 1020.0497 19.210754 1020.2773 19.225243 1020.5039 19.189453 L 1020.5039 19.1875 C 1020.5879 19.16941 1020.7535 19.131594 1020.9082 19.115234 C 1020.9852 19.107034 1021.0589 19.105161 1021.1191 19.113281 z "
         d="m 1019.8203,16.615234 c -2.0696,0.613659 -3.382,2.335503 -3.5625,4.464844 -0.084,1.02444 0.2765,2.288454 0.9883,3.060547 0.7959,0.856152 1.8806,1.036812 2.998,1.048828 1.2469,0 2.1377,-0.618818 2.7247,-1.503906 0.587,-0.885088 0.8739,-2.037212 0.916,-3.107422 0.048,-1.095412 -0.275,-2.346269 -1.0469,-3.154297 -0.5321,-0.556321 -1.2819,-0.665005 -2.0039,-0.628906 l 0.01,0.0039 c -0.2555,-0.206764 -0.6093,-0.304839 -1.0215,-0.183594 z m 0.01,0.0293 c 0.4037,-0.118754 0.7455,-0.0235 0.9941,0.177735 v 0.002 h 0.01 c 0.718,-0.0359 1.4566,0.07146 1.9805,0.61914 0.7641,0.799971 1.0869,2.046181 1.039,3.134766 -0.042,1.065788 -0.3252,2.210934 -0.9082,3.089844 -0.5826,0.878406 -1.4632,1.489533 -2.6992,1.490234 -1.1145,-0.01198 -2.1904,-0.191216 -2.9785,-1.039062 -0.7042,-0.763906 -1.0641,-2.019599 -0.9805,-3.035157 0.1796,-2.118654 1.4846,-3.829113 3.543,-4.439453 z m 1.2812,2.439453 c -0.062,-0.0076 -0.135,-0.0061 -0.2109,0.002 -0.1573,0.01664 -0.3227,0.0563 -0.4063,0.07422 -0.226,0.03568 -0.4507,0.0222 -0.6523,-0.03711 l -0.01,-0.002 -0.01,0.0039 c -0.6637,0.386149 -1.1235,1.037914 -1.2442,1.822266 -0.06,0.458863 -5e-4,1.036994 0.2422,1.4375 0.1338,0.218823 0.3091,0.338485 0.5098,0.402343 0.2007,0.06386 0.4275,0.07422 0.6679,0.07422 0.2525,0 0.4606,-0.01464 0.6407,-0.08789 0.1801,-0.07325 0.3297,-0.205519 0.4629,-0.435547 0.253,-0.457892 0.4215,-1.000562 0.4336,-1.519532 0.024,-0.516387 0.039,-1.213963 -0.2774,-1.664062 -0.028,-0.04164 -0.082,-0.06161 -0.1465,-0.07031 z m 0.01,0.0293 c 0.06,0.0082 0.1048,0.02629 0.125,0.05664 0.3077,0.4379 0.2975,1.130873 0.2735,1.646484 v 0.002 c -0.012,0.51303 -0.1788,1.049799 -0.4297,1.503907 -0.1308,0.225971 -0.2753,0.353075 -0.4492,0.423828 -0.174,0.07075 -0.3775,0.08594 -0.6289,0.08594 -0.2397,0 -0.4649,-0.01011 -0.6602,-0.07227 -0.1953,-0.06214 -0.3619,-0.175496 -0.4922,-0.388672 -0.2373,-0.391494 -0.2979,-0.966786 -0.2383,-1.419922 0.1197,-0.773846 0.5721,-1.41711 1.2266,-1.798828 0.204,0.05841 0.4316,0.0729 0.6582,0.03711 v -0.002 c 0.084,-0.01809 0.2496,-0.05591 0.4043,-0.07227 0.077,-0.0082 0.1507,-0.01007 0.2109,-0.002 z" />
      <path
         id="path8386-5"
         style="color:#000000;-inkscape-font-specification:'HAPPINESS, Normal';fill:none;stroke:#000000;stroke-width:0.0156649;stroke-dasharray:none;stroke-opacity:1"
         inkscape:label="U"
         sodipodi:type="inkscape:offset"
         inkscape:radius="0.30"
         inkscape:original="M 1025.9531 16.011719 C 1025.6597 16.011719 1025.3649 16.106719 1025.1445 16.296875 C 1024.9241 16.487033 1024.7773 16.773535 1024.7773 17.152344 C 1024.7893 18.675796 1024.7169 20.234518 1024.8379 21.759766 C 1024.9039 22.542276 1025.1664 23.259508 1025.6172 23.800781 C 1026.068 24.342055 1026.7077 24.706812 1027.5273 24.785156 C 1028.2765 24.863696 1028.9355 24.535477 1029.4492 24.029297 C 1029.9629 23.523117 1030.3331 22.839568 1030.5078 22.207031 C 1030.7006 21.496231 1030.6875 20.714543 1030.6875 19.970703 C 1030.6995 19.118565 1030.6989 18.26759 1030.7109 17.427734 C 1030.7109 17.048926 1030.564 16.762424 1030.3438 16.572266 C 1030.1234 16.382107 1029.8305 16.287109 1029.5371 16.287109 C 1029.2437 16.287109 1028.9504 16.382139 1028.7285 16.572266 C 1028.5066 16.762393 1028.3565 17.048926 1028.3535 17.427734 C 1028.3415 18.435852 1028.3421 19.454726 1028.3301 20.474609 C 1028.3301 20.810697 1028.3303 21.249065 1028.2383 21.628906 C 1028.1433 22.008747 1027.9506 22.329131 1027.5605 22.441406 C 1027.5075 22.458086 1027.4655 22.447103 1027.4258 22.414062 C 1027.3858 22.381052 1027.3498 22.324092 1027.3203 22.25 C 1027.2603 22.101814 1027.2233 21.885546 1027.1992 21.658203 C 1027.1512 21.203518 1027.1602 20.704525 1027.1602 20.595703 C 1027.1482 19.443807 1027.1487 18.290494 1027.1367 17.150391 C 1027.1367 16.771582 1026.9836 16.487002 1026.7617 16.296875 C 1026.5398 16.106748 1026.2466 16.011719 1025.9531 16.011719 z M 1025.9531 16.041016 C 1026.2402 16.041016 1026.5264 16.133486 1026.7422 16.318359 C 1026.9579 16.503232 1027.1025 16.781153 1027.1055 17.152344 C 1027.1175 18.292238 1027.1189 19.443601 1027.1309 20.595703 C 1027.1309 20.702881 1027.1209 21.204796 1027.1699 21.662109 C 1027.1939 21.890766 1027.2309 22.108404 1027.293 22.261719 C 1027.324 22.338379 1027.361 22.399444 1027.4062 22.4375 C 1027.4513 22.47512 1027.508 22.4871 1027.5684 22.46875 C 1027.9703 22.353026 1028.169 22.019924 1028.2656 21.634766 C 1028.3626 21.249609 1028.3594 20.810521 1028.3594 20.474609 C 1028.3714 19.454494 1028.3728 18.435614 1028.3848 17.427734 C 1028.3848 17.056543 1028.5323 16.780575 1028.748 16.595703 C 1028.9638 16.410831 1029.25 16.316406 1029.5371 16.316406 C 1029.8242 16.316406 1030.1119 16.410866 1030.3262 16.595703 C 1030.5404 16.780544 1030.6816 17.056544 1030.6816 17.427734 C 1030.6696 18.267876 1030.6702 19.118843 1030.6582 19.970703 C 1030.6582 20.714861 1030.6702 21.49402 1030.4785 22.199219 C 1030.3052 22.82668 1029.937 23.505995 1029.4277 24.007812 C 1028.9184 24.509632 1028.2701 24.833318 1027.5312 24.755859 C 1026.7188 24.678199 1026.0868 24.318929 1025.6406 23.783203 C 1025.1944 23.247477 1024.933 22.535301 1024.8672 21.757812 C 1024.7473 20.235065 1024.8206 18.674935 1024.8086 17.150391 C 1024.8092 16.78031 1024.9503 16.502834 1025.1641 16.318359 C 1025.3783 16.133518 1025.6661 16.041015 1025.9531 16.041016 z "
         d="m 1025.9531,16.011719 c -0.2934,0 -0.5882,0.095 -0.8086,0.285156 -0.2204,0.190158 -0.3672,0.47666 -0.3672,0.855469 0.012,1.523452 -0.06,3.082174 0.061,4.607422 0.066,0.78251 0.3285,1.499742 0.7793,2.041015 0.4508,0.541274 1.0905,0.906031 1.9101,0.984375 0.7492,0.07854 1.4082,-0.249679 1.9219,-0.755859 0.5137,-0.50618 0.8839,-1.189729 1.0586,-1.822266 0.1928,-0.7108 0.1797,-1.492488 0.1797,-2.236328 0.012,-0.852138 0.011,-1.703113 0.023,-2.542969 0,-0.378808 -0.1469,-0.66531 -0.3671,-0.855468 -0.2204,-0.190159 -0.5133,-0.285157 -0.8067,-0.285157 -0.2934,0 -0.5867,0.09503 -0.8086,0.285157 -0.2219,0.190127 -0.372,0.47666 -0.375,0.855468 -0.012,1.008118 -0.011,2.026992 -0.023,3.046875 0,0.336088 2e-4,0.774456 -0.092,1.154297 -0.095,0.379841 -0.2877,0.700225 -0.6778,0.8125 -0.053,0.01668 -0.095,0.0057 -0.1347,-0.02734 -0.04,-0.03301 -0.076,-0.08997 -0.1055,-0.164062 -0.06,-0.148186 -0.097,-0.364454 -0.1211,-0.591797 -0.048,-0.454685 -0.039,-0.953678 -0.039,-1.0625 -0.012,-1.151896 -0.012,-2.305209 -0.024,-3.445312 0,-0.378809 -0.1531,-0.663389 -0.375,-0.853516 -0.2219,-0.190127 -0.5151,-0.285156 -0.8086,-0.285156 z m 0,0.0293 c 0.2871,0 0.5733,0.09247 0.7891,0.277343 0.2157,0.184873 0.3603,0.462794 0.3633,0.833985 0.012,1.139894 0.013,2.291257 0.025,3.443359 0,0.107178 -0.01,0.609093 0.039,1.066406 0.024,0.228657 0.061,0.446295 0.1231,0.59961 0.031,0.07666 0.068,0.137725 0.1132,0.175781 0.045,0.03762 0.1018,0.0496 0.1622,0.03125 0.4019,-0.115724 0.6006,-0.448826 0.6972,-0.833984 0.097,-0.385157 0.094,-0.824245 0.094,-1.160157 0.012,-1.020115 0.013,-2.038995 0.025,-3.046875 0,-0.371191 0.1475,-0.647159 0.3632,-0.832031 0.2158,-0.184872 0.502,-0.279297 0.7891,-0.279297 0.2871,0 0.5748,0.09446 0.7891,0.279297 0.2142,0.184841 0.3554,0.460841 0.3554,0.832031 -0.012,0.840142 -0.011,1.691109 -0.023,2.542969 0,0.744158 0.012,1.523317 -0.1797,2.228516 -0.1733,0.627461 -0.5415,1.306776 -1.0508,1.808593 -0.5093,0.50182 -1.1576,0.825506 -1.8965,0.748047 -0.8124,-0.07766 -1.4444,-0.43693 -1.8906,-0.972656 -0.4462,-0.535726 -0.7076,-1.247902 -0.7734,-2.025391 -0.1199,-1.522747 -0.047,-3.082877 -0.059,-4.607421 6e-4,-0.370081 0.1417,-0.647557 0.3555,-0.832032 0.2142,-0.184841 0.502,-0.277344 0.789,-0.277343 z" />
      <path
         id="path8388-6"
         style="color:#000000;-inkscape-font-specification:'HAPPINESS, Normal';fill:none;stroke:#000000;stroke-width:0.0156649;stroke-dasharray:none;stroke-opacity:1"
         inkscape:label="S"
         sodipodi:type="inkscape:offset"
         inkscape:radius="0.30"
         inkscape:original="M 1036.8535 14.748047 C 1035.4725 14.568169 1034.1952 14.652919 1033.0879 15.591797 C 1032.5084 16.086779 1032.269 16.758319 1032.2871 17.435547 C 1032.3051 18.112775 1032.5792 18.795755 1033.0254 19.320312 C 1033.3641 19.719538 1033.8818 19.984845 1034.3379 20.212891 C 1034.7362 20.406027 1035.321 20.562601 1035.5801 20.927734 C 1035.6381 21.011674 1035.6385 21.073703 1035.6055 21.126953 C 1035.5725 21.180203 1035.5051 21.224663 1035.4219 21.257812 C 1035.2554 21.324112 1035.0327 21.347656 1034.9453 21.347656 C 1034.3646 21.347656 1033.7773 20.919585 1033.3086 20.619141 C 1032.9904 20.410059 1032.678 20.378212 1032.4082 20.464844 C 1032.1384 20.551474 1031.912 20.755757 1031.7656 21.009766 C 1031.6193 21.263774 1031.5512 21.568683 1031.5996 21.863281 C 1031.6476 22.157879 1031.8137 22.440386 1032.1289 22.646484 C 1033.3185 23.427548 1034.691 23.995697 1036.125 23.513672 C 1037.5497 23.042813 1038.4664 21.279626 1037.6934 19.890625 C 1037.0542 18.756943 1035.8987 18.456775 1034.8691 17.822266 C 1034.7276 17.733796 1034.6461 17.625808 1034.6348 17.519531 C 1034.6238 17.413254 1034.6788 17.30499 1034.8203 17.210938 C 1035.3766 16.832186 1036.2364 17.021311 1036.8496 17.105469 C 1037.173 17.142089 1037.4676 16.992356 1037.6816 16.761719 C 1037.8955 16.531082 1038.0292 16.218304 1038.0293 15.925781 C 1038.0293 15.574039 1037.8959 15.297195 1037.6816 15.099609 C 1037.4678 14.902417 1037.1752 14.784589 1036.8555 14.748047 L 1036.8535 14.748047 z M 1034.8789 14.777344 C 1035.5052 14.66247 1036.1663 14.687457 1036.8555 14.777344 C 1037.1709 14.813054 1037.4593 14.92868 1037.668 15.121094 C 1037.8767 15.313507 1038.0059 15.581525 1038.0059 15.925781 C 1038.0059 16.209258 1037.8751 16.516824 1037.666 16.742188 C 1037.457 16.96755 1037.1719 17.111552 1036.8594 17.076172 C 1036.2485 16.992332 1035.3803 16.796298 1034.8086 17.185547 C 1034.6617 17.283497 1034.5967 17.404714 1034.6094 17.523438 C 1034.6224 17.64216 1034.711 17.756129 1034.8574 17.847656 C 1035.8918 18.485146 1037.0391 18.783934 1037.6719 19.90625 C 1038.4349 21.277247 1037.5284 23.019235 1036.1211 23.484375 C 1034.6991 23.962349 1033.3348 23.401985 1032.1484 22.623047 C 1031.8396 22.421146 1031.68 22.146401 1031.6328 21.859375 C 1031.5858 21.572349 1031.6518 21.271929 1031.7949 21.023438 C 1031.9381 20.774946 1032.1583 20.578133 1032.4199 20.494141 C 1032.6815 20.410151 1032.985 20.437661 1033.2969 20.642578 C 1033.7642 20.942134 1034.354 21.376953 1034.9492 21.376953 C 1035.0422 21.376953 1035.263 21.353856 1035.4355 21.285156 C 1035.5215 21.250806 1035.5965 21.205206 1035.6348 21.142578 C 1035.6728 21.079958 1035.6714 21.000218 1035.6094 20.910156 C 1035.3405 20.53129 1034.7491 20.376411 1034.3555 20.185547 C 1033.8996 19.957594 1033.386 19.693555 1033.0527 19.300781 C 1032.6109 18.78134 1032.3382 18.103364 1032.3203 17.433594 C 1032.3023 16.763824 1032.5388 16.102299 1033.1113 15.613281 C 1033.6614 15.146954 1034.2527 14.892218 1034.8789 14.777344 z "
         d="m 1036.8535,14.748047 c -1.381,-0.179878 -2.6583,-0.09513 -3.7656,0.84375 -0.5795,0.494982 -0.8189,1.166522 -0.8008,1.84375 0.018,0.677228 0.2921,1.360208 0.7383,1.884765 0.3387,0.399226 0.8564,0.664533 1.3125,0.892579 0.3983,0.193136 0.9831,0.34971 1.2422,0.714843 0.058,0.08394 0.058,0.145969 0.025,0.199219 -0.033,0.05325 -0.1004,0.09771 -0.1836,0.130859 -0.1665,0.0663 -0.3892,0.08984 -0.4766,0.08984 -0.5807,0 -1.168,-0.428071 -1.6367,-0.728515 -0.3182,-0.209082 -0.6306,-0.240929 -0.9004,-0.154297 -0.2698,0.08663 -0.4962,0.290913 -0.6426,0.544922 -0.1463,0.254008 -0.2144,0.558917 -0.166,0.853515 0.048,0.294598 0.2141,0.577105 0.5293,0.783203 1.1896,0.781064 2.5621,1.349213 3.9961,0.867188 1.4247,-0.470859 2.3414,-2.234046 1.5684,-3.623047 -0.6392,-1.133682 -1.7947,-1.43385 -2.8243,-2.068359 -0.1415,-0.08847 -0.223,-0.196458 -0.2343,-0.302735 -0.011,-0.106277 0.044,-0.214541 0.1855,-0.308593 0.5563,-0.378752 1.4161,-0.189627 2.0293,-0.105469 0.3234,0.03662 0.618,-0.113113 0.832,-0.34375 0.2139,-0.230637 0.3476,-0.543415 0.3477,-0.835938 0,-0.351742 -0.1334,-0.628586 -0.3477,-0.826172 -0.2138,-0.197192 -0.5064,-0.31502 -0.8261,-0.351562 z m -1.9746,0.0293 c 0.6263,-0.114874 1.2874,-0.08989 1.9766,0 0.3154,0.03571 0.6038,0.151336 0.8125,0.34375 0.2087,0.192413 0.3379,0.460431 0.3379,0.804687 0,0.283477 -0.1308,0.591043 -0.3399,0.816407 -0.209,0.225362 -0.4941,0.369364 -0.8066,0.333984 -0.6109,-0.08384 -1.4791,-0.279874 -2.0508,0.109375 -0.1469,0.09795 -0.2119,0.219167 -0.1992,0.337891 0.013,0.118722 0.1016,0.232691 0.248,0.324218 1.0344,0.63749 2.1817,0.936278 2.8145,2.058594 0.763,1.370997 -0.1435,3.112985 -1.5508,3.578125 -1.422,0.477974 -2.7863,-0.08239 -3.9727,-0.861328 -0.3088,-0.201901 -0.4684,-0.476646 -0.5156,-0.763672 -0.047,-0.287026 0.019,-0.587446 0.1621,-0.835937 0.1432,-0.248492 0.3634,-0.445305 0.625,-0.529297 0.2616,-0.08399 0.5651,-0.05648 0.877,0.148437 0.4673,0.299556 1.0571,0.734375 1.6523,0.734375 0.093,0 0.3138,-0.0231 0.4863,-0.0918 0.086,-0.03435 0.161,-0.07995 0.1993,-0.142578 0.038,-0.06262 0.037,-0.14236 -0.025,-0.232422 -0.2689,-0.378866 -0.8603,-0.533745 -1.2539,-0.724609 -0.4559,-0.227953 -0.9695,-0.491992 -1.3028,-0.884766 -0.4418,-0.519441 -0.7145,-1.197417 -0.7324,-1.867187 -0.018,-0.66977 0.2185,-1.331295 0.791,-1.820313 0.5501,-0.466327 1.1414,-0.721063 1.7676,-0.835937 z" />
    </g>
    <g
       aria-label="MERDE"
       transform="matrix(2.1363392,0,0,2.3189468,-1973.2203,-1989.0213)"
       id="text17129-2"
       style="display:inline;fill:none;stroke:#000000;stroke-opacity:1;font-size:24px;font-family:HAPPINESS;-inkscape-font-specification:'HAPPINESS, Normal';white-space:pre;stroke-width:0;stroke-dasharray:none"
       inkscape:label="MERDE">
      <path
         id="path20428-9"
         style="color:#000000;-inkscape-font-specification:'HAPPINESS, Normal';fill:none;stroke:#000000;stroke-width:0.0237745;stroke-dasharray:none;stroke-opacity:1"
         inkscape:label="M"
         sodipodi:type="inkscape:offset"
         inkscape:radius="0.5"
         inkscape:original="M 942.18164 952.56836 C 941.19894 952.32221 940.02403 952.73132 939.35352 953.64258 C 937.02145 956.73999 934.8155 959.91808 932.71094 963.17188 C 932.57233 963.38729 932.45595 963.60915 932.38672 963.84375 C 932.19669 964.4876 932.34141 965.08564 932.67969 965.55664 C 933.018 966.02762 933.54873 966.37323 934.13281 966.51953 C 935.02116 966.74205 936.08147 966.47872 936.73242 965.46289 C 937.82469 963.76549 938.9631 962.07776 940.11719 960.41992 L 940.74023 963.36133 C 940.92412 964.18726 941.60982 964.75999 942.4043 964.95898 C 943.17494 965.15202 944.0504 964.99471 944.64648 964.33984 L 944.64844 964.33789 C 945.40035 963.52606 946.16907 962.74096 946.95898 961.96289 C 946.82447 963.92388 946.73422 965.89656 946.69727 967.85742 C 946.67007 969.05396 947.39964 969.74253 948.31055 969.9707 C 948.89478 970.11707 949.54558 970.06087 950.09961 969.80078 C 950.65365 969.54076 951.11182 969.07495 951.30859 968.4082 C 951.37059 968.1981 951.40933 967.98188 951.4082 967.73047 C 951.4976 963.97305 951.73917 960.20458 952.12695 956.44727 C 952.18725 955.86048 952.04734 955.39765 951.77734 955.05273 C 951.50733 954.70781 951.1078 954.48128 950.65234 954.36719 C 949.83447 954.16233 948.85598 954.34337 948.14844 954.86914 C 946.86938 955.85714 945.64775 956.9072 944.46289 957.99219 L 943.65234 954.14453 L 943.6543 954.14258 C 943.46141 953.26661 942.88394 952.74428 942.18164 952.56836 z M 942.16797 952.61328 C 942.85523 952.78542 943.41772 953.29487 943.60742 954.15625 L 944.43359 958.08008 L 944.46289 958.05078 C 945.65584 956.95727 946.88978 955.90111 948.17773 954.90625 C 948.87133 954.39147 949.83627 954.21371 950.63867 954.41406 L 950.64062 954.41406 C 951.08764 954.52637 951.47777 954.74675 951.74023 955.08203 C 952.00304 955.41774 952.13942 955.8663 952.08008 956.44336 C 951.69215 960.20186 951.45076 963.97376 951.36133 967.73242 C 951.36233 967.979 951.32467 968.19168 951.26367 968.39844 C 951.07085 969.05176 950.62507 969.50492 950.08203 969.75977 C 949.539 970.01462 948.89794 970.06949 948.32422 969.92578 C 947.42873 969.70147 946.71734 969.03498 946.74414 967.85742 C 946.78144 965.87748 946.87301 963.88619 947.00977 961.90625 L 947.01367 961.8457 L 946.9707 961.88672 C 946.16442 962.67987 945.38213 963.48053 944.61523 964.30859 C 944.03277 964.94935 943.17539 965.10378 942.41797 964.91406 C 941.63764 964.7186 940.96684 964.15485 940.78711 963.34766 L 940.14258 960.30273 L 940.11133 960.34766 C 938.94592 962.0208 937.7962 963.72369 936.69336 965.4375 C 936.05335 966.43624 935.01823 966.69296 934.14648 966.47461 C 933.57261 966.33086 933.05226 965.98894 932.7207 965.52734 C 932.38915 965.06575 932.24572 964.48538 932.43164 963.85547 C 932.49904 963.6269 932.61299 963.4083 932.75 963.19531 C 934.85397 959.94241 937.06128 956.76436 939.39258 953.66797 C 940.05097 952.77317 941.20531 952.37213 942.16797 952.61328 z "
         d="m 942.18164,952.56836 c -0.9827,-0.24615 -2.15761,0.16296 -2.82812,1.07422 -2.33207,3.09741 -4.53802,6.2755 -6.64258,9.5293 -0.13861,0.21541 -0.25499,0.43727 -0.32422,0.67187 -0.19003,0.64385 -0.0453,1.24189 0.29297,1.71289 0.33831,0.47098 0.86904,0.81659 1.45312,0.96289 0.88835,0.22252 1.94866,-0.0408 2.59961,-1.05664 1.09227,-1.6974 2.23068,-3.38513 3.38477,-5.04297 l 0.62304,2.94141 c 0.18389,0.82593 0.86959,1.39866 1.66407,1.59765 0.77064,0.19304 1.6461,0.0357 2.24218,-0.61914 l 0.002,-0.002 c 0.75191,-0.81183 1.52063,-1.59693 2.31054,-2.375 -0.13451,1.96099 -0.22476,3.93367 -0.26171,5.89453 -0.0272,1.19654 0.70237,1.88511 1.61328,2.11328 0.58423,0.14637 1.23503,0.0902 1.78906,-0.16992 0.55404,-0.26002 1.01221,-0.72583 1.20898,-1.39258 0.062,-0.2101 0.10074,-0.42632 0.0996,-0.67773 0.0894,-3.75742 0.33097,-7.52589 0.71875,-11.2832 0.0603,-0.58679 -0.0796,-1.04962 -0.34961,-1.39454 -0.27001,-0.34492 -0.66954,-0.57145 -1.125,-0.68554 -0.81787,-0.20486 -1.79636,-0.0238 -2.5039,0.50195 -1.27906,0.988 -2.50069,2.03806 -3.68555,3.12305 l -0.81055,-3.84766 0.002,-0.002 c -0.19289,-0.87597 -0.77036,-1.3983 -1.47266,-1.57422 z m -0.0137,0.0449 c 0.68726,0.17214 1.24975,0.68159 1.43945,1.54297 l 0.82617,3.92383 0.0293,-0.0293 c 1.19295,-1.09351 2.42689,-2.14967 3.71484,-3.14453 0.6936,-0.51478 1.65854,-0.69254 2.46094,-0.49219 h 0.002 c 0.44702,0.11231 0.83715,0.33269 1.09961,0.66797 0.26281,0.33571 0.39919,0.78427 0.33985,1.36133 -0.38793,3.7585 -0.62932,7.5304 -0.71875,11.28906 0.001,0.24658 -0.0367,0.45926 -0.0977,0.66602 -0.19282,0.65332 -0.6386,1.10648 -1.18164,1.36133 -0.54303,0.25485 -1.18409,0.30972 -1.75781,0.16601 -0.89549,-0.22431 -1.60688,-0.8908 -1.58008,-2.06836 0.0373,-1.97994 0.12887,-3.97123 0.26563,-5.95117 l 0.004,-0.0606 -0.043,0.041 c -0.80628,0.79315 -1.58857,1.59381 -2.35547,2.42187 -0.58246,0.64076 -1.43984,0.79519 -2.19726,0.60547 -0.78033,-0.19546 -1.45113,-0.75921 -1.63086,-1.5664 l -0.64453,-3.04493 -0.0312,0.0449 c -1.16541,1.67314 -2.31513,3.37603 -3.41797,5.08984 -0.64001,0.99874 -1.67513,1.25546 -2.54688,1.03711 -0.57387,-0.14375 -1.09422,-0.48567 -1.42578,-0.94727 -0.33155,-0.46159 -0.47498,-1.04196 -0.28906,-1.67187 0.0674,-0.22857 0.18135,-0.44717 0.31836,-0.66016 2.10397,-3.2529 4.31128,-6.43095 6.64258,-9.52734 0.65839,-0.8948 1.81273,-1.29584 2.77539,-1.05469 z" />
      <path
         id="path20430-1"
         style="color:#000000;-inkscape-font-specification:'HAPPINESS, Normal';fill:none;stroke:#000000;stroke-width:0.0237745;stroke-dasharray:none;stroke-opacity:1"
         inkscape:label="E"
         sodipodi:type="inkscape:offset"
         inkscape:radius="0.5"
         inkscape:original="M 959.10156 955.42383 C 958.11388 955.33423 957.17225 955.74407 956.66992 956.54492 C 956.66992 956.54492 956.66992 956.54688 956.66992 956.54688 C 956.66992 956.54688 956.66797 956.54883 956.66797 956.54883 C 956.4127 956.85145 956.23841 957.23899 956.15039 957.68945 L 956.15039 957.69141 C 955.52609 961.63535 954.76692 965.53069 953.88281 969.43164 C 953.62077 970.64641 954.4961 971.94916 955.74805 972.10742 L 961.88281 972.90625 C 962.62686 972.99885 963.24747 972.77797 963.70703 972.39062 C 964.16657 972.00327 964.46571 971.45052 964.58008 970.87305 C 964.69496 970.29566 964.62351 969.69428 964.33398 969.21289 C 964.0444 968.73151 963.53505 968.37097 962.78516 968.27734 L 959.02734 967.80078 C 959.16725 967.20391 959.28509 966.60396 959.40234 966.00391 C 960.1938 966.03801 960.96678 966.0457 961.76758 966.0332 C 962.40956 966.0272 962.97821 965.68464 963.36914 965.19336 C 963.76068 964.70135 963.9771 964.06025 963.92188 963.45898 C 963.88077 962.78749 963.56997 962.25977 963.10938 961.90625 C 962.64878 961.55272 962.0385 961.37228 961.39648 961.38867 C 960.99173 961.39267 960.63794 961.38209 960.2832 961.37109 C 960.3577 960.98455 960.41191 960.59382 960.48633 960.20898 C 961.58383 960.29408 962.65811 960.37777 963.75586 960.46289 C 965.04008 960.55289 966.25873 959.86603 966.51953 958.53125 C 966.63396 957.94567 966.49102 957.294 966.1582 956.77734 C 965.82537 956.26069 965.30203 955.87736 964.65625 955.83203 L 959.10156 955.42383 z M 959.0957 955.46875 L 959.09766 955.46875 L 964.65039 955.87891 C 965.27952 955.92351 965.79241 956.29556 966.11914 956.80273 C 966.44586 957.30991 966.58439 957.95162 966.47266 958.52344 C 966.21657 959.83414 965.02546 960.50291 963.75977 960.41406 C 962.65473 960.32836 961.57373 960.24781 960.46875 960.16211 L 960.44727 960.16016 L 960.44336 960.17969 C 960.36466 960.58215 960.31074 960.98803 960.23242 961.38867 L 960.22656 961.41602 L 960.25195 961.41602 C 960.61549 961.42752 960.98246 961.43995 961.39844 961.43555 C 962.03082 961.41945 962.62882 961.59508 963.08008 961.94141 C 963.53132 962.28778 963.83465 962.80208 963.875 963.46094 L 963.875 963.46289 C 963.9289 964.05022 963.71631 964.68127 963.33203 965.16406 C 962.94785 965.64684 962.39418 965.97998 961.76758 965.98438 C 960.9608 965.99677 960.18218 965.98988 959.38477 965.95508 L 959.36328 965.95312 L 959.35938 965.97461 C 959.23936 966.58875 959.12 967.20287 958.97656 967.8125 L 958.9707 967.83789 L 962.7793 968.32227 C 963.51724 968.41437 964.0102 968.76627 964.29297 969.23633 C 964.57573 969.7064 964.64758 970.29565 964.53516 970.86328 C 964.42326 971.43099 964.12581 971.97419 963.67578 972.35352 C 963.22576 972.73284 962.6226 972.94857 961.89062 972.85742 L 955.75586 972.05859 C 954.53284 971.90392 953.66981 970.62612 953.92578 969.43945 C 954.81009 965.5376 955.57275 961.64035 956.19727 957.69531 C 956.28427 957.24975 956.4546 956.8679 956.70508 956.57227 L 956.70508 956.57031 L 956.70898 956.56836 C 957.20056 955.78127 958.1211 955.3797 959.0957 955.46875 z "
         d="m 959.10156,955.42383 c -0.98768,-0.0896 -1.92931,0.32024 -2.43164,1.12109 0,0 0,0.002 0,0.002 0,0 -0.002,0.002 -0.002,0.002 -0.25527,0.30262 -0.42956,0.69016 -0.51758,1.14062 v 0.002 c -0.6243,3.94394 -1.38347,7.83928 -2.26758,11.74023 -0.26204,1.21477 0.61329,2.51752 1.86524,2.67578 l 6.13476,0.79883 c 0.74405,0.0926 1.36466,-0.12828 1.82422,-0.51563 0.45954,-0.38735 0.75868,-0.9401 0.87305,-1.51757 0.11488,-0.57739 0.0434,-1.17877 -0.2461,-1.66016 -0.28958,-0.48138 -0.79893,-0.84192 -1.54882,-0.93555 l -3.75782,-0.47656 c 0.13991,-0.59687 0.25775,-1.19682 0.375,-1.79687 0.79146,0.0341 1.56444,0.0418 2.36524,0.0293 0.64198,-0.006 1.21063,-0.34856 1.60156,-0.83984 0.39154,-0.49201 0.60796,-1.13311 0.55274,-1.73438 -0.0411,-0.67149 -0.35191,-1.19921 -0.8125,-1.55273 -0.4606,-0.35353 -1.07088,-0.53397 -1.7129,-0.51758 -0.40475,0.004 -0.75854,-0.007 -1.11328,-0.0176 0.0745,-0.38654 0.12871,-0.77727 0.20313,-1.16211 1.0975,0.0851 2.17178,0.16879 3.26953,0.25391 1.28422,0.09 2.50287,-0.59686 2.76367,-1.93164 0.11443,-0.58558 -0.0285,-1.23725 -0.36133,-1.75391 -0.33283,-0.51665 -0.85617,-0.89998 -1.50195,-0.94531 z m -0.006,0.0449 h 0.002 l 5.55273,0.41016 c 0.62913,0.0446 1.14202,0.41665 1.46875,0.92382 0.32672,0.50718 0.46525,1.14889 0.35352,1.72071 -0.25609,1.3107 -1.4472,1.97947 -2.71289,1.89062 -1.10504,-0.0857 -2.18604,-0.16625 -3.29102,-0.25195 l -0.0215,-0.002 -0.004,0.0195 c -0.0787,0.40246 -0.13262,0.80834 -0.21094,1.20898 l -0.006,0.0273 h 0.0254 c 0.36354,0.0115 0.73051,0.0239 1.14649,0.0195 0.63238,-0.0161 1.23038,0.15953 1.68164,0.50586 0.45124,0.34637 0.75457,0.86067 0.79492,1.51953 v 0.002 c 0.0539,0.58733 -0.15869,1.21838 -0.54297,1.70117 -0.38418,0.48278 -0.93785,0.81592 -1.56445,0.82032 -0.80678,0.0124 -1.5854,0.005 -2.38281,-0.0293 l -0.0215,-0.002 -0.004,0.0215 c -0.12002,0.61414 -0.23938,1.22826 -0.38282,1.83789 l -0.006,0.0254 3.8086,0.48438 c 0.73794,0.0921 1.2309,0.444 1.51367,0.91406 0.28276,0.47007 0.35461,1.05932 0.24219,1.62695 -0.1119,0.56771 -0.40935,1.11091 -0.85938,1.49024 -0.45002,0.37932 -1.05318,0.59505 -1.78516,0.5039 l -6.13476,-0.79883 c -1.22302,-0.15467 -2.08605,-1.43247 -1.83008,-2.61914 0.88431,-3.90185 1.64697,-7.7991 2.27149,-11.74414 0.087,-0.44556 0.25733,-0.82741 0.50781,-1.12304 v -0.002 l 0.004,-0.002 c 0.49158,-0.78709 1.41212,-1.18866 2.38672,-1.09961 z" />
      <path
         id="path20432-2"
         style="color:#000000;-inkscape-font-specification:'HAPPINESS, Normal';fill:none;stroke:#000000;stroke-width:0.0237745;stroke-dasharray:none;stroke-opacity:1"
         inkscape:label="R"
         sodipodi:type="inkscape:offset"
         inkscape:radius="0.5"
         inkscape:original="M 977.47461 955.08984 C 976.84424 955.02919 976.19908 955.04596 975.57812 955.11914 C 974.38477 955.26166 973.27775 955.56542 972.31445 956.125 L 972.33203 956.12305 C 971.63707 955.97125 970.86664 956.11148 970.28125 956.51953 C 969.69586 956.92761 969.29468 957.6046 969.34375 958.52344 C 969.59637 962.79134 969.90174 967.08146 970.25 971.3418 C 970.3141 972.09555 970.65305 972.64102 971.125 972.98438 C 971.59695 973.32772 972.19832 973.47002 972.7832 973.42383 C 973.36806 973.37763 973.93813 973.14123 974.3457 972.72852 C 974.75326 972.31581 974.99766 971.72445 974.93359 970.9707 C 974.88359 970.4337 974.8577 969.89383 974.80859 969.35547 C 977.14626 970.51217 979.51849 971.55026 981.97656 972.45898 C 983.16084 972.92382 984.51833 972.59714 985.08398 971.36133 C 985.33925 970.82913 985.35415 970.16053 985.15625 969.56836 C 984.95831 968.97619 984.54573 968.45887 983.93945 968.23828 C 982.17879 967.5642 980.43704 966.84032 978.73828 966.06641 C 979.24952 965.71569 979.75534 965.29936 980.20898 964.83789 C 981.93547 963.12951 982.41616 960.50716 981.74609 958.24023 C 981.33786 956.84444 980.41657 955.98887 979.28711 955.52148 C 978.72238 955.28779 978.10498 955.1505 977.47461 955.08984 z M 977.4707 955.13672 C 978.09714 955.19684 978.70807 955.33294 979.26758 955.56445 C 980.3866 956.02753 981.2949 956.86953 981.69922 958.25195 C 982.36489 960.50396 981.88948 963.10984 980.17578 964.80469 C 979.71477 965.27365 979.19948 965.6993 978.67969 966.05273 L 978.64648 966.07617 L 978.68359 966.09375 C 980.39468 966.87422 982.14999 967.60411 983.92383 968.2832 C 984.51429 968.49802 984.91899 969.00272 985.11328 969.58398 C 985.30757 970.16522 985.29013 970.82248 985.04102 971.3418 C 984.48564 972.55514 983.15801 972.87362 981.99219 972.41602 C 979.52335 971.50333 977.13878 970.4639 974.79102 969.30078 L 974.75391 969.28125 L 974.75781 969.32227 C 974.80891 969.87158 974.83743 970.42395 974.88867 970.97461 C 974.95167 971.71632 974.70924 972.29356 974.31055 972.69727 C 973.91186 973.10099 973.35417 973.33155 972.7793 973.37695 C 972.20442 973.42235 971.61376 973.28098 971.15234 972.94531 C 970.69093 972.60962 970.35796 972.0796 970.29492 971.33789 C 969.94668 967.0779 969.64322 962.78902 969.39062 958.52148 C 969.34232 957.61733 969.73468 956.95868 970.30859 956.55859 C 970.88252 956.1585 971.64033 956.02096 972.32227 956.16992 L 972.33008 956.16992 L 972.33789 956.16602 C 973.29422 955.61048 974.39697 955.30604 975.58594 955.16406 C 976.20397 955.09121 976.84427 955.0766 977.4707 955.13672 z M 977 959.58789 C 976.72514 959.58189 976.36032 959.68242 976.00586 959.73438 C 975.74625 959.77887 975.38862 959.81832 975.06055 959.91406 C 974.73341 960.00956 974.43403 960.1607 974.29688 960.43164 C 974.23367 960.53349 974.1923 960.60816 974.12891 960.68359 L 974.12305 960.68945 L 974.125 960.70117 C 974.1767 961.51607 974.22677 962.3306 974.30469 963.16797 L 974.30859 963.19922 L 974.33789 963.1875 C 975.09501 962.89854 975.85145 962.54361 976.42969 962.05273 C 977.00791 961.56185 977.40724 960.93395 977.43945 960.10547 C 977.45235 959.91408 977.41426 959.78329 977.33398 959.70117 C 977.25418 959.61897 977.13743 959.59091 977 959.58789 z M 976.99805 959.63281 C 977.12915 959.63581 977.23323 959.66489 977.30078 959.73438 C 977.36828 959.80387 977.40504 959.91758 977.39258 960.10156 L 977.39258 960.10352 C 977.36088 960.91807 976.97187 961.53048 976.40039 962.01562 C 975.83668 962.49419 975.09226 962.84292 974.34766 963.12891 C 974.27186 962.30691 974.22276 961.50645 974.17188 960.70508 C 974.23407 960.62898 974.27594 960.55573 974.33594 960.45898 L 974.33594 960.45703 C 974.46346 960.20273 974.75151 960.05315 975.07422 959.95898 C 975.39692 959.86488 975.75167 959.82614 976.01367 959.78125 C 976.37214 959.72875 976.73586 959.62702 976.99805 959.63281 z "
         d="m 977.47461,955.08984 c -0.63037,-0.0607 -1.27553,-0.0439 -1.89649,0.0293 -1.19335,0.14252 -2.30037,0.44628 -3.26367,1.00586 l 0.0176,-0.002 c -0.69496,-0.1518 -1.46539,-0.0116 -2.05078,0.39648 -0.58539,0.40808 -0.98657,1.08507 -0.9375,2.00391 0.25262,4.2679 0.55799,8.55802 0.90625,12.81836 0.0641,0.75375 0.40305,1.29922 0.875,1.64258 0.47195,0.34334 1.07332,0.48564 1.6582,0.43945 0.58486,-0.0462 1.15493,-0.2826 1.5625,-0.69531 0.40756,-0.41271 0.65196,-1.00407 0.58789,-1.75782 -0.05,-0.537 -0.0759,-1.07687 -0.125,-1.61523 2.33767,1.1567 4.7099,2.19479 7.16797,3.10351 1.18428,0.46484 2.54177,0.13816 3.10742,-1.09765 0.25527,-0.5322 0.27017,-1.2008 0.0723,-1.79297 -0.19794,-0.59217 -0.61052,-1.10949 -1.2168,-1.33008 -1.76066,-0.67408 -3.50241,-1.39796 -5.20117,-2.17187 0.51124,-0.35072 1.01706,-0.76705 1.4707,-1.22852 1.72649,-1.70838 2.20718,-4.33073 1.53711,-6.59766 -0.40823,-1.39579 -1.32952,-2.25136 -2.45898,-2.71875 -0.56473,-0.23369 -1.18213,-0.37098 -1.8125,-0.43164 z m -0.004,0.0469 c 0.62644,0.0601 1.23737,0.19622 1.79688,0.42773 1.11902,0.46308 2.02732,1.30508 2.43164,2.6875 0.66567,2.25201 0.19026,4.85789 -1.52344,6.55274 -0.46101,0.46896 -0.9763,0.89461 -1.49609,1.24804 l -0.0332,0.0234 0.0371,0.0176 c 1.71109,0.78047 3.4664,1.51036 5.24024,2.18945 0.59046,0.21482 0.99516,0.71952 1.18945,1.30078 0.19429,0.58124 0.17685,1.2385 -0.0723,1.75782 -0.55538,1.21334 -1.88301,1.53182 -3.04883,1.07422 -2.46884,-0.91269 -4.85341,-1.95212 -7.20117,-3.11524 l -0.0371,-0.0195 0.004,0.041 c 0.0511,0.54931 0.0796,1.10168 0.13086,1.65234 0.063,0.74171 -0.17943,1.31895 -0.57812,1.72266 -0.39869,0.40372 -0.95638,0.63428 -1.53125,0.67968 -0.57488,0.0454 -1.16554,-0.096 -1.62696,-0.43164 -0.46141,-0.33569 -0.79438,-0.86571 -0.85742,-1.60742 -0.34824,-4.25999 -0.6517,-8.54887 -0.9043,-12.81641 -0.0483,-0.90415 0.34406,-1.5628 0.91797,-1.96289 0.57393,-0.40009 1.33174,-0.53763 2.01368,-0.38867 h 0.008 l 0.008,-0.004 c 0.95633,-0.55554 2.05908,-0.85998 3.24805,-1.00196 0.61803,-0.0728 1.25833,-0.0875 1.88476,-0.0273 z M 977,959.58789 c -0.27486,-0.006 -0.63968,0.0945 -0.99414,0.14649 -0.25961,0.0445 -0.61724,0.0839 -0.94531,0.17968 -0.32714,0.0955 -0.62652,0.24664 -0.76367,0.51758 -0.0632,0.10185 -0.10458,0.17652 -0.16797,0.25195 l -0.006,0.006 0.002,0.0117 c 0.0517,0.8149 0.10177,1.62943 0.17969,2.4668 l 0.004,0.0312 0.0293,-0.0117 c 0.75712,-0.28896 1.51356,-0.64389 2.0918,-1.13477 0.57822,-0.49088 0.97755,-1.11878 1.00976,-1.94726 0.0129,-0.19139 -0.0252,-0.32218 -0.10547,-0.4043 -0.0798,-0.0822 -0.19655,-0.11026 -0.33398,-0.11328 z m -0.002,0.0449 c 0.1311,0.003 0.23518,0.0321 0.30273,0.10157 0.0675,0.0695 0.10426,0.1832 0.0918,0.36718 v 0.002 c -0.0317,0.81455 -0.42071,1.42696 -0.99219,1.9121 -0.56371,0.47857 -1.30813,0.8273 -2.05273,1.11329 -0.0758,-0.822 -0.1249,-1.62246 -0.17578,-2.42383 0.0622,-0.0761 0.10406,-0.14935 0.16406,-0.2461 v -0.002 c 0.12752,-0.2543 0.41557,-0.40388 0.73828,-0.49805 0.3227,-0.0941 0.67745,-0.13284 0.93945,-0.17773 0.35847,-0.0525 0.72219,-0.15423 0.98438,-0.14844 z" />
      <path
         id="path20434-7"
         style="color:#000000;-inkscape-font-specification:'HAPPINESS, Normal';fill:none;stroke:#000000;stroke-width:0.0237745;stroke-dasharray:none;stroke-opacity:1"
         inkscape:label="D"
         sodipodi:type="inkscape:offset"
         inkscape:radius="0.5"
         inkscape:original="M 993.21484 953.06055 C 992.27764 952.87111 991.16823 952.91515 990.08008 953.1543 C 988.99522 953.39271 987.93217 953.82652 987.07422 954.41602 C 986.50056 954.50192 985.96127 954.77927 985.59961 955.2207 C 985.23795 955.66212 985.05471 956.26726 985.19727 957.00586 C 985.91889 960.95848 986.66483 964.90843 987.41016 968.85742 C 987.59976 969.93215 988.33414 970.53034 989.16406 970.71289 C 989.99047 970.89467 990.91163 970.66579 991.49805 970.0918 C 993.8196 969.98622 996.33441 968.807 997.8457 967.28906 C 1000.003 965.13642 1000.4622 961.80098 999.40039 958.96094 C 998.34779 956.17063 996.22396 953.65917 993.21484 953.06055 z M 993.20703 953.10547 C 996.19533 953.69996 998.30896 956.1953 999.35742 958.97461 C 1000.4133 961.79894 999.95565 965.11737 997.8125 967.25586 C 996.3094 968.76559 993.79705 969.94357 991.48828 970.04688 L 991.48047 970.04492 L 991.47266 970.05273 C 990.89927 970.61958 989.98624 970.8471 989.17188 970.66797 C 988.35753 970.48884 987.64161 969.90692 987.45508 968.84961 C 986.70979 964.90062 985.96577 960.95244 985.24414 957 C 985.1039 956.27341 985.28312 955.68353 985.63672 955.25195 C 985.99031 954.82037 986.51862 954.54725 987.08203 954.46289 L 987.08789 954.46094 L 987.0918 954.45898 C 987.94516 953.87082 989.01084 953.43714 990.09375 953.19922 L 990.09375 953.20117 C 991.17664 952.96325 992.2784 952.91778 993.20703 953.10547 z M 992.36328 957.63477 C 991.82758 957.64177 990.79508 957.72406 990.11523 958.04688 L 990.09961 958.05273 L 990.10352 958.07031 C 990.55767 960.50673 991.01238 962.94418 991.4707 965.4043 L 991.47461 965.42578 L 991.49805 965.42383 C 992.617 965.25629 993.8507 964.65662 994.56055 963.96289 C 995.4393 963.09416 995.52639 961.51788 995.01367 960.41797 C 994.78701 959.89207 994.46302 959.19707 994.02734 958.63281 C 993.59166 958.06856 993.04156 957.63195 992.36328 957.63477 z M 992.36328 957.68359 C 993.02134 957.68059 993.55923 958.10392 993.99023 958.66211 C 994.42123 959.22031 994.74454 959.91273 994.9707 960.4375 C 995.4751 961.51954 995.38579 963.07912 994.52539 963.92969 C 993.83006 964.60924 992.61322 965.19632 991.51172 965.36719 C 991.05671 962.92468 990.60529 960.50705 990.1543 958.08789 C 990.82039 957.77779 991.83531 957.69063 992.36328 957.68359 z "
         d="m 993.21484,953.06055 c -0.9372,-0.18944 -2.04661,-0.1454 -3.13476,0.0937 -1.08486,0.23841 -2.14791,0.67222 -3.00586,1.26172 -0.57366,0.0859 -1.11295,0.36325 -1.47461,0.80468 -0.36166,0.44142 -0.5449,1.04656 -0.40234,1.78516 0.72162,3.95262 1.46756,7.90257 2.21289,11.85156 0.1896,1.07473 0.92398,1.67292 1.7539,1.85547 0.82641,0.18178 1.74757,-0.0471 2.33399,-0.62109 2.32155,-0.10558 4.83636,-1.2848 6.34765,-2.80274 2.1573,-2.15264 2.6165,-5.48808 1.55469,-8.32812 -1.0526,-2.79031 -3.17643,-5.30177 -6.18555,-5.90039 z m -0.008,0.0449 c 2.9883,0.59449 5.10193,3.08983 6.15039,5.86914 1.05588,2.82433 0.59823,6.14276 -1.54492,8.28125 -1.5031,1.50973 -4.01545,2.68771 -6.32422,2.79102 l -0.008,-0.002 -0.008,0.008 c -0.57339,0.56685 -1.48642,0.79437 -2.30078,0.61524 -0.81435,-0.17913 -1.53027,-0.76105 -1.7168,-1.81836 -0.74529,-3.94899 -1.48931,-7.89717 -2.21094,-11.84961 -0.14024,-0.72659 0.039,-1.31647 0.39258,-1.74805 0.35359,-0.43158 0.8819,-0.7047 1.44531,-0.78906 l 0.006,-0.002 0.004,-0.002 c 0.85336,-0.58816 1.91904,-1.02184 3.00195,-1.25976 v 0.002 c 1.08289,-0.23792 2.18465,-0.28339 3.11328,-0.0957 z m -0.84375,4.5293 c -0.5357,0.007 -1.5682,0.0893 -2.24805,0.41211 l -0.0156,0.006 0.004,0.0176 c 0.45415,2.43642 0.90886,4.87387 1.36718,7.33399 l 0.004,0.0215 0.0234,-0.002 c 1.11895,-0.16754 2.35265,-0.76721 3.0625,-1.46094 0.87875,-0.86873 0.96584,-2.44501 0.45312,-3.54492 -0.22666,-0.5259 -0.55065,-1.2209 -0.98633,-1.78516 -0.43568,-0.56425 -0.98578,-1.00086 -1.66406,-0.99804 z m 0,0.0488 c 0.65806,-0.003 1.19595,0.42033 1.62695,0.97852 0.431,0.5582 0.75431,1.25062 0.98047,1.77539 0.5044,1.08204 0.41509,2.64162 -0.44531,3.49219 -0.69533,0.67955 -1.91217,1.26663 -3.01367,1.4375 -0.45501,-2.44251 -0.90643,-4.86014 -1.35742,-7.2793 0.66609,-0.3101 1.68101,-0.39726 2.20898,-0.4043 z" />
      <path
         id="path20436-0"
         style="color:#000000;-inkscape-font-specification:'HAPPINESS, Normal';fill:none;stroke:#000000;stroke-width:0.0237745;stroke-dasharray:none;stroke-opacity:1"
         inkscape:label="E"
         sodipodi:type="inkscape:offset"
         inkscape:radius="0.5"
         inkscape:original="M 1005.6621 948.0918 L 1000.5352 950.0957 C 999.61206 950.43721 998.98124 951.20222 998.93945 952.12891 C 998.86485 952.50608 998.90465 952.92424 999.05273 953.36133 L 999.05273 953.36328 C 1000.4785 957.12628 1001.7602 960.90457 1002.9336 964.74023 C 1003.3112 965.92891 1004.742 966.70932 1005.9316 966.31641 L 1011.7734 964.41211 C 1012.4795 964.17732 1012.9179 963.7189 1013.1309 963.17969 C 1013.344 962.64048 1013.3331 962.0217 1013.1445 961.46094 C 1012.9547 960.9006 1012.5902 960.39725 1012.0918 960.09375 C 1011.5935 959.79023 1010.9619 959.68745 1010.25 959.92383 L 1006.6777 961.10156 C 1006.5022 960.5127 1006.3046 959.93162 1006.1074 959.34961 C 1006.8264 959.04275 1007.5168 958.71924 1008.2207 958.36719 C 1008.7878 958.08898 1009.1186 957.54388 1009.2188 956.94141 C 1009.3189 956.33837 1009.1887 955.67759 1008.8379 955.16797 C 1008.4644 954.59007 1007.9237 954.25598 1007.3379 954.13867 C 1006.7527 954.02151 1006.121 954.12095 1005.5605 954.4082 C 1005.2038 954.5842 1004.8847 954.72408 1004.5645 954.86523 C 1004.4375 954.49048 1004.2885 954.12314 1004.1621 953.75 C 1005.1779 953.35797 1006.1714 952.97412 1007.1875 952.58203 C 1008.3715 952.11498 1009.1085 950.98605 1008.6699 949.69141 C 1008.4775 949.12344 1008.0231 948.60738 1007.4688 948.29102 C 1006.9144 947.97466 1006.2575 947.85888 1005.6621 948.09375 L 1005.6621 948.0918 z M 1005.6777 948.13672 C 1006.2578 947.90792 1006.8991 948.02149 1007.4434 948.33203 C 1007.9876 948.64259 1008.4332 949.15046 1008.6211 949.70508 C 1009.0518 950.97636 1008.3309 952.07875 1007.1641 952.53906 C 1006.1412 952.93375 1005.1438 953.32216 1004.1211 953.7168 L 1004.0996 953.72461 L 1004.1113 953.74414 C 1004.2436 954.13449 1004.3977 954.51766 1004.5293 954.90625 L 1004.5391 954.93164 L 1004.5625 954.91992 C 1004.8906 954.77528 1005.2191 954.63212 1005.5859 954.45117 C 1006.1385 954.16751 1006.758 954.06869 1007.332 954.18359 C 1007.9059 954.29852 1008.4324 954.62438 1008.7988 955.19141 L 1008.8008 955.19336 C 1009.1433 955.69118 1009.27 956.33998 1009.1719 956.93164 C 1009.0739 957.52337 1008.7525 958.05736 1008.1992 958.32812 C 1007.4901 958.6828 1006.7968 959.00758 1006.0723 959.31641 L 1006.0527 959.32422 L 1006.0625 959.34375 C 1006.2643 959.93941 1006.4663 960.5349 1006.6445 961.13672 L 1006.6543 961.16016 L 1010.2734 959.96875 C 1010.9738 959.73612 1011.5875 959.8384 1012.0742 960.13477 C 1012.5608 960.43113 1012.9202 960.92343 1013.1055 961.47461 C 1013.2921 962.02541 1013.3028 962.63407 1013.0938 963.16211 C 1012.8851 963.69012 1012.4564 964.1382 1011.7617 964.36914 L 1005.9219 966.27344 C 1004.7599 966.65723 1003.3548 965.89175 1002.9863 964.73047 C 1001.8122 960.89403 1000.5293 957.11379 999.10352 953.34961 C 998.95711 952.91745 998.919 952.5054 998.99219 952.13672 L 998.99219 952.13477 L 998.99023 952.13281 C 999.03103 951.22553 999.64969 950.47678 1000.5586 950.14062 L 1005.6777 948.13672 z "
         d="m 1005.6621,948.0918 -5.1269,2.0039 c -0.92314,0.34151 -1.55396,1.10652 -1.59575,2.03321 -0.0746,0.37717 -0.0348,0.79533 0.11328,1.23242 v 0.002 c 1.42577,3.763 2.70747,7.54129 3.88087,11.37695 0.3776,1.18868 1.8084,1.96909 2.998,1.57618 l 5.8418,-1.9043 c 0.7061,-0.23479 1.1445,-0.69321 1.3575,-1.23242 0.2131,-0.53921 0.2022,-1.15799 0.014,-1.71875 -0.1898,-0.56034 -0.5543,-1.06369 -1.0527,-1.36719 -0.4983,-0.30352 -1.1299,-0.4063 -1.8418,-0.16992 l -3.5723,1.17773 c -0.1755,-0.58886 -0.3731,-1.16994 -0.5703,-1.75195 0.719,-0.30686 1.4094,-0.63037 2.1133,-0.98242 0.5671,-0.27821 0.8979,-0.82331 0.9981,-1.42578 0.1001,-0.60304 -0.03,-1.26382 -0.3809,-1.77344 -0.3735,-0.5779 -0.9142,-0.91199 -1.5,-1.0293 -0.5852,-0.11716 -1.2169,-0.0177 -1.7774,0.26953 -0.3567,0.176 -0.6758,0.31588 -0.996,0.45703 -0.127,-0.37475 -0.276,-0.74209 -0.4024,-1.11523 1.0158,-0.39203 2.0093,-0.77588 3.0254,-1.16797 1.184,-0.46705 1.921,-1.59598 1.4824,-2.89062 -0.1924,-0.56797 -0.6468,-1.08403 -1.2011,-1.40039 -0.5544,-0.31636 -1.2113,-0.43214 -1.8067,-0.19727 z m 0.016,0.0449 c 0.5801,-0.2288 1.2214,-0.11523 1.7657,0.19531 0.5442,0.31056 0.9898,0.81843 1.1777,1.37305 0.4307,1.27128 -0.2902,2.37367 -1.457,2.83398 -1.0229,0.39469 -2.0203,0.7831 -3.043,1.17774 l -0.021,0.008 0.012,0.0195 c 0.1323,0.39035 0.2864,0.77352 0.418,1.16211 l 0.01,0.0254 0.023,-0.0117 c 0.3281,-0.14464 0.6566,-0.2878 1.0234,-0.46875 0.5526,-0.28366 1.1721,-0.38248 1.7461,-0.26758 0.5739,0.11493 1.1004,0.44079 1.4668,1.00782 l 0,0.002 c 0.3425,0.49782 0.4692,1.14662 0.3711,1.73828 -0.098,0.59173 -0.4194,1.12572 -0.9727,1.39648 -0.7091,0.35468 -1.4024,0.67946 -2.1269,0.98829 l -0.02,0.008 0.01,0.0195 c 0.2018,0.59566 0.4038,1.19115 0.582,1.79297 l 0.01,0.0234 3.6191,-1.19141 c 0.7004,-0.23263 1.3141,-0.13035 1.8008,0.16602 0.4866,0.29636 0.846,0.78866 1.0313,1.33984 0.1866,0.5508 0.1973,1.15946 -0.012,1.6875 -0.2087,0.52801 -0.6374,0.97609 -1.3321,1.20703 l -5.8398,1.9043 c -1.162,0.38379 -2.5671,-0.38169 -2.9356,-1.54297 -1.1741,-3.83644 -2.457,-7.61668 -3.88278,-11.38086 -0.14641,-0.43216 -0.18452,-0.84421 -0.11133,-1.21289 v -0.002 l -0.002,-0.002 c 0.0408,-0.90728 0.65946,-1.65603 1.56837,-1.99219 z" />
    </g>
  </g>
</svg>
