999
"DXF R12 Output" (www.mydxf.blogspot.com)
 0 
SECTION
 2 
HEADER
 9 
$ACADVER
 1 
AC1009
 9 
$EXTMIN
 10 
 0 
 20 
 0 
 9 
$EXTMAX
 10 
 8.5 
 20 
 11 
 0 
ENDSEC
 0 
SECTION
 2 
ENTITIES
0
LINE
8
Layer 1
10
14.550800
20
67.027400
11
14.545012
21
67.396120
0
LINE
8
Layer 1
10
14.545012
20
67.396120
11
14.565416
21
67.804879
0
LINE
8
Layer 1
10
14.565416
20
67.804879
11
14.706104
21
67.942604
0
LINE
8
Layer 1
10
14.706104
20
67.942604
11
14.801119
21
67.954302
0
LINE
8
Layer 1
10
14.801119
20
67.954302
11
14.908413
21
67.928733
0
LINE
8
Layer 1
10
14.908413
20
67.928733
11
15.031934
21
67.786281
0
LINE
8
Layer 1
10
15.031934
20
67.786281
11
15.047081
21
67.590104
0
LINE
8
Layer 1
10
15.047081
20
67.590104
11
15.018043
21
67.391091
0
LINE
8
Layer 1
10
15.018043
20
67.391091
11
14.759880
21
67.253023
0
LINE
8
Layer 1
10
14.759880
20
67.253023
11
14.709961
21
67.261255
0
LINE
8
Layer 1
10
14.709961
20
67.261255
11
14.709900
21
67.173000
0
LINE
8
Layer 1
10
14.709900
20
67.173000
11
14.709900
21
67.084800
0
LINE
8
Layer 1
10
14.709900
20
67.084800
11
14.640784
21
67.053206
0
LINE
8
Layer 1
10
14.640784
20
67.053206
11
14.550737
21
67.027400
0
LINE
8
Layer 1
10
14.550737
20
67.027400
11
14.550800
21
67.027400
0
LINE
8
Layer 1
10
14.855380
20
67.451542
11
14.874913
21
67.604431
0
LINE
8
Layer 1
10
14.874913
20
67.604431
11
14.874900
21
67.734800
0
LINE
8
Layer 1
10
14.874900
20
67.734800
11
14.849523
21
67.760177
0
LINE
8
Layer 1
10
14.849523
20
67.760177
11
14.754149
21
67.772942
0
LINE
8
Layer 1
10
14.754149
20
67.772942
11
14.711406
21
67.589518
0
LINE
8
Layer 1
10
14.711406
20
67.589518
11
14.714779
21
67.471156
0
LINE
8
Layer 1
10
14.714779
20
67.471156
11
14.743941
21
67.445099
0
LINE
8
Layer 1
10
14.743941
20
67.445099
11
14.804467
21
67.424031
0
LINE
8
Layer 1
10
14.804467
20
67.424031
11
14.855365
21
67.451502
0
LINE
8
Layer 1
10
14.855365
20
67.451502
11
14.855380
21
67.451542
0
LINE
8
Layer 1
10
14.145659
20
67.254936
11
13.978591
21
67.397332
0
LINE
8
Layer 1
10
13.978591
20
67.397332
11
13.959005
21
67.603279
0
LINE
8
Layer 1
10
13.959005
20
67.603279
11
13.982105
21
67.815978
0
LINE
8
Layer 1
10
13.982105
20
67.815978
11
14.208602
21
67.956912
0
LINE
8
Layer 1
10
14.208602
20
67.956912
11
14.432260
21
67.814849
0
LINE
8
Layer 1
10
14.432260
20
67.814849
11
14.456714
21
67.614234
0
LINE
8
Layer 1
10
14.456714
20
67.614234
11
14.438474
21
67.409820
0
LINE
8
Layer 1
10
14.438474
20
67.409820
11
14.316528
21
67.278128
0
LINE
8
Layer 1
10
14.316528
20
67.278128
11
14.145660
21
67.254927
0
LINE
8
Layer 1
10
14.145660
20
67.254927
11
14.145659
21
67.254936
0
LINE
8
Layer 1
10
14.257854
20
67.443441
11
14.284564
21
67.465917
0
LINE
8
Layer 1
10
14.284564
20
67.465917
11
14.284500
21
67.603300
0
LINE
8
Layer 1
10
14.284500
20
67.603300
11
14.284500
21
67.740600
0
LINE
8
Layer 1
10
14.284500
20
67.740600
11
14.257790
21
67.763076
0
LINE
8
Layer 1
10
14.257790
20
67.763076
11
14.206367
21
67.785552
0
LINE
8
Layer 1
10
14.206367
20
67.785552
11
14.154943
21
67.763076
0
LINE
8
Layer 1
10
14.154943
20
67.763076
11
14.128234
21
67.740600
0
LINE
8
Layer 1
10
14.128234
20
67.740600
11
14.128300
21
67.608800
0
LINE
8
Layer 1
10
14.128300
20
67.608800
11
14.142250
21
67.457020
0
LINE
8
Layer 1
10
14.142250
20
67.457020
11
14.257857
21
67.443462
0
LINE
8
Layer 1
10
14.257857
20
67.443462
11
14.257854
21
67.443441
0
LINE
8
Layer 1
10
15.308994
20
67.260521
11
15.160018
21
67.392224
0
LINE
8
Layer 1
10
15.160018
20
67.392224
11
15.131021
21
67.451264
0
LINE
8
Layer 1
10
15.131021
20
67.451264
11
15.132206
21
67.609835
0
LINE
8
Layer 1
10
15.132206
20
67.609835
11
15.156960
21
67.816561
0
LINE
8
Layer 1
10
15.156960
20
67.816561
11
15.488834
21
67.932101
0
LINE
8
Layer 1
10
15.488834
20
67.932101
11
15.619775
21
67.784194
0
LINE
8
Layer 1
10
15.619775
20
67.784194
11
15.628389
21
67.636192
0
LINE
8
Layer 1
10
15.628389
20
67.636192
11
15.469978
21
67.555862
0
LINE
8
Layer 1
10
15.469978
20
67.555862
11
15.315075
21
67.482620
0
LINE
8
Layer 1
10
15.315075
20
67.482620
11
15.351890
21
67.429855
0
LINE
8
Layer 1
10
15.351890
20
67.429855
11
15.461970
21
67.499431
0
LINE
8
Layer 1
10
15.461970
20
67.499431
11
15.580157
21
67.588772
0
LINE
8
Layer 1
10
15.580157
20
67.588772
11
15.633048
21
67.514364
0
LINE
8
Layer 1
10
15.633048
20
67.514364
11
15.494064
21
67.280085
0
LINE
8
Layer 1
10
15.494064
20
67.280085
11
15.308982
21
67.260521
0
LINE
8
Layer 1
10
15.308982
20
67.260521
11
15.308994
21
67.260521
0
LINE
8
Layer 1
10
15.385757
20
67.704074
11
15.421234
21
67.772892
0
LINE
8
Layer 1
10
15.421234
20
67.772892
11
15.325689
21
67.760217
0
LINE
8
Layer 1
10
15.325689
20
67.760217
11
15.300312
21
67.703787
0
LINE
8
Layer 1
10
15.300312
20
67.703787
11
15.308262
21
67.672733
0
LINE
8
Layer 1
10
15.308262
20
67.672733
11
15.385757
21
67.704075
0
LINE
8
Layer 1
10
15.385757
20
67.704075
11
15.385757
21
67.704074
0
LINE
8
Layer 1
10
15.721021
20
67.267336
11
15.718679
21
67.529954
0
LINE
8
Layer 1
10
15.718679
20
67.529954
11
15.741654
21
67.811638
0
LINE
8
Layer 1
10
15.741654
20
67.811638
11
15.860268
21
67.931312
0
LINE
8
Layer 1
10
15.860268
20
67.931312
11
15.968788
21
67.953938
0
LINE
8
Layer 1
10
15.968788
20
67.953938
11
16.158215
21
67.867789
0
LINE
8
Layer 1
10
16.158215
20
67.867789
11
16.218537
21
67.525163
0
LINE
8
Layer 1
10
16.218537
20
67.525163
11
16.216223
21
67.304858
0
LINE
8
Layer 1
10
16.216223
20
67.304858
11
16.164486
21
67.279348
0
LINE
8
Layer 1
10
16.164486
20
67.279348
11
16.086692
21
67.252757
0
LINE
8
Layer 1
10
16.086692
20
67.252757
11
16.054283
21
67.286401
0
LINE
8
Layer 1
10
16.054283
20
67.286401
11
16.047155
21
67.529486
0
LINE
8
Layer 1
10
16.047155
20
67.529486
11
16.006263
21
67.775494
0
LINE
8
Layer 1
10
16.006263
20
67.775494
11
15.917373
21
67.763119
0
LINE
8
Layer 1
10
15.917373
20
67.763119
11
15.890660
21
67.740642
0
LINE
8
Layer 1
10
15.890660
20
67.740642
11
15.890533
21
67.530885
0
LINE
8
Layer 1
10
15.890533
20
67.530885
11
15.883686
21
67.310564
0
LINE
8
Layer 1
10
15.883686
20
67.310564
11
15.743433
21
67.247335
0
LINE
8
Layer 1
10
15.743433
20
67.247335
11
15.721025
21
67.267336
0
LINE
8
Layer 1
10
15.721025
20
67.267336
11
15.721021
21
67.267336
0
LINE
8
Layer 1
10
17.408291
20
67.259468
11
17.255528
21
67.424785
0
LINE
8
Layer 1
10
17.255528
20
67.424785
11
17.457693
21
67.645499
0
LINE
8
Layer 1
10
17.457693
20
67.645499
11
17.581908
21
67.710414
0
LINE
8
Layer 1
10
17.581908
20
67.710414
11
17.559923
21
67.751021
0
LINE
8
Layer 1
10
17.559923
20
67.751021
11
17.494543
21
67.783208
0
LINE
8
Layer 1
10
17.494543
20
67.783208
11
17.423202
21
67.757179
0
LINE
8
Layer 1
10
17.423202
20
67.757179
11
17.392582
21
67.705646
0
LINE
8
Layer 1
10
17.392582
20
67.705646
11
17.325304
21
67.637724
0
LINE
8
Layer 1
10
17.325304
20
67.637724
11
17.255829
21
67.694443
0
LINE
8
Layer 1
10
17.255829
20
67.694443
11
17.323564
21
67.849874
0
LINE
8
Layer 1
10
17.323564
20
67.849874
11
17.657663
21
67.844898
0
LINE
8
Layer 1
10
17.657663
20
67.844898
11
17.720665
21
67.532305
0
LINE
8
Layer 1
10
17.720665
20
67.532305
11
17.724570
21
67.318084
0
LINE
8
Layer 1
10
17.724570
20
67.318084
11
17.703994
21
67.297719
0
LINE
8
Layer 1
10
17.703994
20
67.297719
11
17.600785
21
67.261380
0
LINE
8
Layer 1
10
17.600785
20
67.261380
11
17.586648
21
67.410845
0
LINE
8
Layer 1
10
17.586648
20
67.410845
11
17.571352
21
67.548300
0
LINE
8
Layer 1
10
17.571352
20
67.548300
11
17.407776
21
67.474523
0
LINE
8
Layer 1
10
17.407776
20
67.474523
11
17.392584
21
67.437206
0
LINE
8
Layer 1
10
17.392584
20
67.437206
11
17.509786
21
67.394329
0
LINE
8
Layer 1
10
17.509786
20
67.394329
11
17.537254
21
67.397417
0
LINE
8
Layer 1
10
17.537254
20
67.397417
11
17.580660
21
67.286971
0
LINE
8
Layer 1
10
17.580660
20
67.286971
11
17.466973
21
67.247918
0
LINE
8
Layer 1
10
17.466973
20
67.247918
11
17.408295
21
67.259466
0
LINE
8
Layer 1
10
17.408295
20
67.259466
11
17.408291
21
67.259468
0
LINE
8
Layer 1
10
18.537761
20
67.260343
11
18.394137
21
67.390260
0
LINE
8
Layer 1
10
18.394137
20
67.390260
11
18.374345
21
67.585926
0
LINE
8
Layer 1
10
18.374345
20
67.585926
11
18.385112
21
67.765497
0
LINE
8
Layer 1
10
18.385112
20
67.765497
11
18.666604
21
67.912873
0
LINE
8
Layer 1
10
18.666604
20
67.912873
11
18.703501
21
67.905617
0
LINE
8
Layer 1
10
18.703501
20
67.905617
11
18.703500
21
67.996500
0
LINE
8
Layer 1
10
18.703500
20
67.996500
11
18.723033
21
68.099895
0
LINE
8
Layer 1
10
18.723033
20
68.099895
11
18.822871
21
68.135245
0
LINE
8
Layer 1
10
18.822871
20
68.135245
11
18.820811
21
67.398186
0
LINE
8
Layer 1
10
18.820811
20
67.398186
11
18.537747
21
67.260302
0
LINE
8
Layer 1
10
18.537747
20
67.260302
11
18.537761
21
67.260343
0
LINE
8
Layer 1
10
18.651695
20
67.399419
11
18.703468
21
67.587666
0
LINE
8
Layer 1
10
18.703468
20
67.587666
11
18.686100
21
67.740241
0
LINE
8
Layer 1
10
18.686100
20
67.740241
11
18.549874
21
67.768622
0
LINE
8
Layer 1
10
18.549874
20
67.768622
11
18.505103
21
67.566524
0
LINE
8
Layer 1
10
18.505103
20
67.566524
11
18.529868
21
67.425055
0
LINE
8
Layer 1
10
18.529868
20
67.425055
11
18.651694
21
67.399418
0
LINE
8
Layer 1
10
18.651694
20
67.399418
11
18.651695
21
67.399419
0
LINE
8
Layer 1
10
18.984968
20
67.267566
11
18.894071
21
67.367892
0
LINE
8
Layer 1
10
18.894071
20
67.367892
11
18.887562
21
67.638017
0
LINE
8
Layer 1
10
18.887562
20
67.638017
11
18.890159
21
67.876761
0
LINE
8
Layer 1
10
18.890159
20
67.876761
11
18.929226
21
67.896570
0
LINE
8
Layer 1
10
18.929226
20
67.896570
11
18.989997
21
67.913932
0
LINE
8
Layer 1
10
18.989997
20
67.913932
11
19.011703
21
67.911477
0
LINE
8
Layer 1
10
19.011703
20
67.911477
11
19.014017
21
67.660437
0
LINE
8
Layer 1
10
19.014017
20
67.660437
11
19.025932
21
67.397819
0
LINE
8
Layer 1
10
19.025932
20
67.397819
11
19.083769
21
67.396662
0
LINE
8
Layer 1
10
19.083769
20
67.396662
11
19.094186
21
67.631460
0
LINE
8
Layer 1
10
19.094186
20
67.631460
11
19.094200
21
67.855800
0
LINE
8
Layer 1
10
19.094200
20
67.855800
11
19.114842
21
67.876442
0
LINE
8
Layer 1
10
19.114842
20
67.876442
11
19.170620
21
67.907612
0
LINE
8
Layer 1
10
19.170620
20
67.907612
11
19.233104
21
67.657342
0
LINE
8
Layer 1
10
19.233104
20
67.657342
11
19.272172
21
67.386204
0
LINE
8
Layer 1
10
19.272172
20
67.386204
11
19.311239
21
67.640106
0
LINE
8
Layer 1
10
19.311239
20
67.640106
11
19.311200
21
67.873200
0
LINE
8
Layer 1
10
19.311200
20
67.873200
11
19.356778
21
67.894420
0
LINE
8
Layer 1
10
19.356778
20
67.894420
11
19.446106
21
67.895831
0
LINE
8
Layer 1
10
19.446106
20
67.895831
11
19.448448
21
67.628872
0
LINE
8
Layer 1
10
19.448448
20
67.628872
11
19.445767
21
67.381886
0
LINE
8
Layer 1
10
19.445767
20
67.381886
11
19.421663
21
67.340880
0
LINE
8
Layer 1
10
19.421663
20
67.340880
11
19.195522
21
67.268654
0
LINE
8
Layer 1
10
19.195522
20
67.268654
11
19.131678
21
67.270037
0
LINE
8
Layer 1
10
19.131678
20
67.270037
11
18.984958
21
67.267553
0
LINE
8
Layer 1
10
18.984958
20
67.267553
11
18.984968
21
67.267566
0
LINE
8
Layer 1
10
19.635318
20
67.262982
11
19.509561
21
67.357848
0
LINE
8
Layer 1
10
19.509561
20
67.357848
11
19.514031
21
67.533582
0
LINE
8
Layer 1
10
19.514031
20
67.533582
11
19.708299
21
67.652015
0
LINE
8
Layer 1
10
19.708299
20
67.652015
11
19.820750
21
67.706283
0
LINE
8
Layer 1
10
19.820750
20
67.706283
11
19.723588
21
67.785603
0
LINE
8
Layer 1
10
19.723588
20
67.785603
11
19.623750
21
67.694951
0
LINE
8
Layer 1
10
19.623750
20
67.694951
11
19.546550
21
67.632868
0
LINE
8
Layer 1
10
19.546550
20
67.632868
11
19.496172
21
67.634420
0
LINE
8
Layer 1
10
19.496172
20
67.634420
11
19.489641
21
67.694458
0
LINE
8
Layer 1
10
19.489641
20
67.694458
11
19.571675
21
67.858585
0
LINE
8
Layer 1
10
19.571675
20
67.858585
11
19.892026
21
67.846224
0
LINE
8
Layer 1
10
19.892026
20
67.846224
11
19.953647
21
67.510168
0
LINE
8
Layer 1
10
19.953647
20
67.510168
11
19.953600
21
67.298600
0
LINE
8
Layer 1
10
19.953600
20
67.298600
11
19.908021
21
67.277380
0
LINE
8
Layer 1
10
19.908021
20
67.277380
11
19.826094
21
67.272582
0
LINE
8
Layer 1
10
19.826094
20
67.272582
11
19.794350
21
67.273090
0
LINE
8
Layer 1
10
19.794350
20
67.273090
11
19.635267
21
67.262938
0
LINE
8
Layer 1
10
19.635267
20
67.262938
11
19.635318
21
67.262982
0
LINE
8
Layer 1
10
19.820136
20
67.548703
11
19.635904
21
67.466648
0
LINE
8
Layer 1
10
19.635904
20
67.466648
11
19.647410
21
67.403626
0
LINE
8
Layer 1
10
19.647410
20
67.403626
11
19.727675
21
67.387801
0
LINE
8
Layer 1
10
19.727675
20
67.387801
11
19.784280
21
67.390595
0
LINE
8
Layer 1
10
19.784280
20
67.390595
11
19.801685
21
67.345780
0
LINE
8
Layer 1
10
19.801685
20
67.345780
11
19.819086
21
67.300965
0
LINE
8
Layer 1
10
19.819086
20
67.300965
11
19.821485
21
67.422945
0
LINE
8
Layer 1
10
19.821485
20
67.422945
11
19.820131
21
67.548708
0
LINE
8
Layer 1
10
19.820131
20
67.548708
11
19.820136
21
67.548703
0
LINE
8
Layer 1
10
20.060000
20
67.253655
11
20.049233
21
67.497664
0
LINE
8
Layer 1
10
20.049233
20
67.497664
11
20.069621
21
67.781263
0
LINE
8
Layer 1
10
20.069621
20
67.781263
11
20.332020
21
67.915793
0
LINE
8
Layer 1
10
20.332020
20
67.915793
11
20.507506
21
67.708258
0
LINE
8
Layer 1
10
20.507506
20
67.708258
11
20.454734
21
67.647792
0
LINE
8
Layer 1
10
20.454734
20
67.647792
11
20.378086
21
67.691306
0
LINE
8
Layer 1
10
20.378086
20
67.691306
11
20.298420
21
67.782645
0
LINE
8
Layer 1
10
20.298420
20
67.782645
11
20.199329
21
67.743488
0
LINE
8
Layer 1
10
20.199329
20
67.743488
11
20.180982
21
67.509853
0
LINE
8
Layer 1
10
20.180982
20
67.509853
11
20.178244
21
67.299215
0
LINE
8
Layer 1
10
20.178244
20
67.299215
11
20.143782
21
67.281633
0
LINE
8
Layer 1
10
20.143782
20
67.281633
11
20.059991
21
67.253653
0
LINE
8
Layer 1
10
20.059991
20
67.253653
11
20.060000
21
67.253655
0
LINE
8
Layer 1
10
20.765380
20
67.264481
11
20.634800
21
67.378800
0
LINE
8
Layer 1
10
20.634800
20
67.378800
11
20.609047
21
67.425295
0
LINE
8
Layer 1
10
20.609047
20
67.425295
11
20.609100
21
67.585900
0
LINE
8
Layer 1
10
20.609100
20
67.585900
11
20.629141
21
67.787195
0
LINE
8
Layer 1
10
20.629141
20
67.787195
11
20.751135
21
67.904782
0
LINE
8
Layer 1
10
20.751135
20
67.904782
11
20.927190
21
67.904782
0
LINE
8
Layer 1
10
20.927190
20
67.904782
11
21.048510
21
67.792320
0
LINE
8
Layer 1
10
21.048510
20
67.792320
11
21.066617
21
67.632547
0
LINE
8
Layer 1
10
21.066617
20
67.632547
11
20.900631
21
67.546390
0
LINE
8
Layer 1
10
20.900631
20
67.546390
11
20.743743
21
67.462325
0
LINE
8
Layer 1
10
20.743743
20
67.462325
11
20.768999
21
67.418917
0
LINE
8
Layer 1
10
20.768999
20
67.418917
11
20.837752
21
67.390565
0
LINE
8
Layer 1
10
20.837752
20
67.390565
11
20.936919
21
67.471937
0
LINE
8
Layer 1
10
20.936919
20
67.471937
11
20.997287
21
67.532417
0
LINE
8
Layer 1
10
20.997287
20
67.532417
11
21.071531
21
67.487523
0
LINE
8
Layer 1
10
21.071531
20
67.487523
11
21.000491
21
67.323210
0
LINE
8
Layer 1
10
21.000491
20
67.323210
11
20.765369
21
67.264455
0
LINE
8
Layer 1
10
20.765369
20
67.264455
11
20.765380
21
67.264481
0
LINE
8
Layer 1
10
20.930956
20
67.709541
11
20.891355
21
67.771146
0
LINE
8
Layer 1
10
20.891355
20
67.771146
11
20.773193
21
67.756087
0
LINE
8
Layer 1
10
20.773193
20
67.756087
11
20.743676
21
67.674105
0
LINE
8
Layer 1
10
20.743676
20
67.674105
11
20.743700
21
67.621600
0
LINE
8
Layer 1
10
20.743700
20
67.621600
11
20.835157
21
67.663368
0
LINE
8
Layer 1
10
20.835157
20
67.663368
11
20.930979
21
67.709502
0
LINE
8
Layer 1
10
20.930979
20
67.709502
11
20.930956
21
67.709541
0
LINE
8
Layer 1
10
16.702316
20
67.275560
11
16.699974
21
67.694447
0
LINE
8
Layer 1
10
16.699974
20
67.694447
11
16.702372
21
68.093801
0
LINE
8
Layer 1
10
16.702372
20
68.093801
11
16.752863
21
68.118264
0
LINE
8
Layer 1
10
16.752863
20
68.118264
11
16.828256
21
68.014209
0
LINE
8
Layer 1
10
16.828256
20
68.014209
11
16.828200
21
67.906300
0
LINE
8
Layer 1
10
16.828200
20
67.906300
11
16.860756
21
67.913203
0
LINE
8
Layer 1
10
16.860756
20
67.913203
11
16.938689
21
67.919415
0
LINE
8
Layer 1
10
16.938689
20
67.919415
11
17.149024
21
67.761449
0
LINE
8
Layer 1
10
17.149024
20
67.761449
11
17.158052
21
67.514148
0
LINE
8
Layer 1
10
17.158052
20
67.514148
11
17.158105
21
67.299184
0
LINE
8
Layer 1
10
17.158105
20
67.299184
11
17.110073
21
67.275627
0
LINE
8
Layer 1
10
17.110073
20
67.275627
11
17.027881
21
67.495642
0
LINE
8
Layer 1
10
17.027881
20
67.495642
11
16.975965
21
67.772430
0
LINE
8
Layer 1
10
16.975965
20
67.772430
11
16.879178
21
67.771950
0
LINE
8
Layer 1
10
16.879178
20
67.771950
11
16.828200
21
67.498858
0
LINE
8
Layer 1
10
16.828200
20
67.498858
11
16.828200
21
67.298500
0
LINE
8
Layer 1
10
16.828200
20
67.298500
11
16.780204
21
67.277274
0
LINE
8
Layer 1
10
16.780204
20
67.277274
11
16.702244
21
67.275581
0
LINE
8
Layer 1
10
16.702244
20
67.275581
11
16.702316
21
67.275560
0
LINE
8
Layer 1
10
17.821326
20
67.266301
11
17.815069
21
67.511556
0
LINE
8
Layer 1
10
17.815069
20
67.511556
11
17.833515
21
67.782275
0
LINE
8
Layer 1
10
17.833515
20
67.782275
11
18.043691
21
67.918252
0
LINE
8
Layer 1
10
18.043691
20
67.918252
11
18.202866
21
67.856804
0
LINE
8
Layer 1
10
18.202866
20
67.856804
11
18.272696
21
67.713723
0
LINE
8
Layer 1
10
18.272696
20
67.713723
11
18.273741
21
67.671557
0
LINE
8
Layer 1
10
18.273741
20
67.671557
11
18.222821
21
67.649902
0
LINE
8
Layer 1
10
18.222821
20
67.649902
11
18.147857
21
67.668410
0
LINE
8
Layer 1
10
18.147857
20
67.668410
11
18.031413
21
67.782754
0
LINE
8
Layer 1
10
18.031413
20
67.782754
11
17.972055
21
67.751278
0
LINE
8
Layer 1
10
17.972055
20
67.751278
11
17.948182
21
67.724560
0
LINE
8
Layer 1
10
17.948182
20
67.724560
11
17.948200
21
67.517700
0
LINE
8
Layer 1
10
17.948200
20
67.517700
11
17.884964
21
67.270893
0
LINE
8
Layer 1
10
17.884964
20
67.270893
11
17.821332
21
67.266318
0
LINE
8
Layer 1
10
17.821332
20
67.266318
11
17.821326
21
67.266301
0
LINE
8
Layer 1
10
16.011100
20
68.578300
11
15.784500
21
68.800600
0
LINE
8
Layer 1
10
15.784500
20
68.800600
11
15.639262
21
68.950340
0
LINE
8
Layer 1
10
15.639262
20
68.950340
11
15.652507
21
68.982188
0
LINE
8
Layer 1
10
15.652507
20
68.982188
11
15.886862
21
69.338039
0
LINE
8
Layer 1
10
15.886862
20
69.338039
11
15.926046
21
69.598424
0
LINE
8
Layer 1
10
15.926046
20
69.598424
11
15.830421
21
69.848725
0
LINE
8
Layer 1
10
15.830421
20
69.848725
11
15.739763
21
69.959898
0
LINE
8
Layer 1
10
15.739763
20
69.959898
11
15.643245
21
69.981395
0
LINE
8
Layer 1
10
15.643245
20
69.981395
11
15.478479
21
70.012672
0
LINE
8
Layer 1
10
15.478479
20
70.012672
11
15.217879
21
70.069584
0
LINE
8
Layer 1
10
15.217879
20
70.069584
11
15.172900
21
70.086413
0
LINE
8
Layer 1
10
15.172900
20
70.086413
11
15.167318
21
70.372761
0
LINE
8
Layer 1
10
15.167318
20
70.372761
11
15.166951
21
70.697268
0
LINE
8
Layer 1
10
15.166951
20
70.697268
11
15.172181
21
70.735427
0
LINE
8
Layer 1
10
15.172181
20
70.735427
11
15.236674
21
70.754573
0
LINE
8
Layer 1
10
15.236674
20
70.754573
11
15.433131
21
70.798209
0
LINE
8
Layer 1
10
15.433131
20
70.798209
11
15.806229
21
70.909575
0
LINE
8
Layer 1
10
15.806229
20
70.909575
11
15.931449
21
71.171414
0
LINE
8
Layer 1
10
15.931449
20
71.171414
11
15.991206
21
71.315241
0
LINE
8
Layer 1
10
15.991206
20
71.315241
11
15.889992
21
71.475850
0
LINE
8
Layer 1
10
15.889992
20
71.475850
11
15.711030
21
71.738360
0
LINE
8
Layer 1
10
15.711030
20
71.738360
11
15.637547
21
71.849523
0
LINE
8
Layer 1
10
15.637547
20
71.849523
11
15.661025
21
71.881607
0
LINE
8
Layer 1
10
15.661025
20
71.881607
11
15.825437
21
72.052596
0
LINE
8
Layer 1
10
15.825437
20
72.052596
11
15.985521
21
72.219697
0
LINE
8
Layer 1
10
15.985521
20
72.219697
11
16.109013
21
72.304368
0
LINE
8
Layer 1
10
16.109013
20
72.304368
11
16.242877
21
72.248734
0
LINE
8
Layer 1
10
16.242877
20
72.248734
11
16.561421
21
72.021139
0
LINE
8
Layer 1
10
16.561421
20
72.021139
11
16.773021
21
72.013615
0
LINE
8
Layer 1
10
16.773021
20
72.013615
11
17.020695
21
72.119226
0
LINE
8
Layer 1
10
17.020695
20
72.119226
11
17.078558
21
72.153536
0
LINE
8
Layer 1
10
17.078558
20
72.153536
11
17.104739
21
72.237632
0
LINE
8
Layer 1
10
17.104739
20
72.237632
11
17.171503
21
72.556130
0
LINE
8
Layer 1
10
17.171503
20
72.556130
11
17.229364
21
72.787125
0
LINE
8
Layer 1
10
17.229364
20
72.787125
11
17.784721
21
72.793901
0
LINE
8
Layer 1
10
17.784721
20
72.793901
11
17.864370
21
72.776544
0
LINE
8
Layer 1
10
17.864370
20
72.776544
11
17.983395
21
72.308703
0
LINE
8
Layer 1
10
17.983395
20
72.308703
11
18.029167
21
72.149307
0
LINE
8
Layer 1
10
18.029167
20
72.149307
11
18.299573
21
72.026104
0
LINE
8
Layer 1
10
18.299573
20
72.026104
11
18.446934
21
71.971834
0
LINE
8
Layer 1
10
18.446934
20
71.971834
11
18.496960
21
71.997087
0
LINE
8
Layer 1
10
18.496960
20
71.997087
11
18.630713
21
72.079107
0
LINE
8
Layer 1
10
18.630713
20
72.079107
11
18.745864
21
72.152198
0
LINE
8
Layer 1
10
18.745864
20
72.152198
11
18.846027
21
72.226065
0
LINE
8
Layer 1
10
18.846027
20
72.226065
11
19.021362
21
72.308328
0
LINE
8
Layer 1
10
19.021362
20
72.308328
11
19.199879
21
72.145986
0
LINE
8
Layer 1
10
19.199879
20
72.145986
11
19.458795
21
71.852179
0
LINE
8
Layer 1
10
19.458795
20
71.852179
11
19.272895
21
71.557746
0
LINE
8
Layer 1
10
19.272895
20
71.557746
11
19.133857
21
71.301639
0
LINE
8
Layer 1
10
19.133857
20
71.301639
11
19.162361
21
71.199202
0
LINE
8
Layer 1
10
19.162361
20
71.199202
11
19.212794
21
71.082000
0
LINE
8
Layer 1
10
19.212794
20
71.082000
11
19.366581
21
70.859201
0
LINE
8
Layer 1
10
19.366581
20
70.859201
11
19.658472
21
70.798246
0
LINE
8
Layer 1
10
19.658472
20
70.798246
11
19.919729
21
70.732576
0
LINE
8
Layer 1
10
19.919729
20
70.732576
11
19.944965
21
70.719526
0
LINE
8
Layer 1
10
19.944965
20
70.719526
11
19.943836
21
70.465812
0
LINE
8
Layer 1
10
19.943836
20
70.465812
11
19.937325
21
70.147316
0
LINE
8
Layer 1
10
19.937325
20
70.147316
11
19.931952
21
70.082534
0
LINE
8
Layer 1
10
19.931952
20
70.082534
11
19.868649
21
70.063323
0
LINE
8
Layer 1
10
19.868649
20
70.063323
11
19.677654
21
70.021330
0
LINE
8
Layer 1
10
19.677654
20
70.021330
11
19.327203
21
69.950798
0
LINE
8
Layer 1
10
19.327203
20
69.950798
11
19.232893
21
69.737219
0
LINE
8
Layer 1
10
19.232893
20
69.737219
11
19.170688
21
69.572720
0
LINE
8
Layer 1
10
19.170688
20
69.572720
11
19.158089
21
69.459859
0
LINE
8
Layer 1
10
19.158089
20
69.459859
11
19.382628
21
69.100309
0
LINE
8
Layer 1
10
19.382628
20
69.100309
11
19.458721
21
68.950918
0
LINE
8
Layer 1
10
19.458721
20
68.950918
11
19.378501
21
68.852114
0
LINE
8
Layer 1
10
19.378501
20
68.852114
11
19.263772
21
68.725368
0
LINE
8
Layer 1
10
19.263772
20
68.725368
11
19.019510
21
68.512980
0
LINE
8
Layer 1
10
19.019510
20
68.512980
11
18.955184
21
68.527910
0
LINE
8
Layer 1
10
18.955184
20
68.527910
11
18.581963
21
68.774721
0
LINE
8
Layer 1
10
18.581963
20
68.774721
11
18.556157
21
68.795329
0
LINE
8
Layer 1
10
18.556157
20
68.795329
11
18.394449
21
68.774377
0
LINE
8
Layer 1
10
18.394449
20
68.774377
11
18.242809
21
68.741138
0
LINE
8
Layer 1
10
18.242809
20
68.741138
11
18.078951
21
69.085168
0
LINE
8
Layer 1
10
18.078951
20
69.085168
11
17.894197
21
69.530593
0
LINE
8
Layer 1
10
17.894197
20
69.530593
11
17.815221
21
69.760838
0
LINE
8
Layer 1
10
17.815221
20
69.760838
11
17.863703
21
69.821495
0
LINE
8
Layer 1
10
17.863703
20
69.821495
11
18.156888
21
70.171232
0
LINE
8
Layer 1
10
18.156888
20
70.171232
11
18.117310
21
70.732995
0
LINE
8
Layer 1
10
18.117310
20
70.732995
11
17.666628
21
71.040404
0
LINE
8
Layer 1
10
17.666628
20
71.040404
11
17.195729
21
70.952665
0
LINE
8
Layer 1
10
17.195729
20
70.952665
11
16.958471
21
70.652908
0
LINE
8
Layer 1
10
16.958471
20
70.652908
11
16.919836
21
70.268530
0
LINE
8
Layer 1
10
16.919836
20
70.268530
11
17.104616
21
69.942970
0
LINE
8
Layer 1
10
17.104616
20
69.942970
11
17.235401
21
69.819945
0
LINE
8
Layer 1
10
17.235401
20
69.819945
11
17.292263
21
69.766372
0
LINE
8
Layer 1
10
17.292263
20
69.766372
11
17.272070
21
69.702743
0
LINE
8
Layer 1
10
17.272070
20
69.702743
11
16.941576
21
68.888155
0
LINE
8
Layer 1
10
16.941576
20
68.888155
11
16.902158
21
68.785818
0
LINE
8
Layer 1
10
16.902158
20
68.785818
11
16.737031
21
68.759253
0
LINE
8
Layer 1
10
16.737031
20
68.759253
11
16.648184
21
68.807127
0
LINE
8
Layer 1
10
16.648184
20
68.807127
11
16.564382
21
68.792884
0
LINE
8
Layer 1
10
16.564382
20
68.792884
11
16.372144
21
68.668521
0
LINE
8
Layer 1
10
16.372144
20
68.668521
11
16.110970
21
68.511256
0
LINE
8
Layer 1
10
16.110970
20
68.511256
11
16.011131
21
68.578279
0
LINE
8
Layer 1
10
16.011131
20
68.578279
11
16.011100
21
68.578300
0
LINE
8
Layer 1
10
16.355100
20
68.830599
11
16.539886
21
68.959149
0
LINE
8
Layer 1
10
16.539886
20
68.959149
11
16.691438
21
68.948952
0
LINE
8
Layer 1
10
16.691438
20
68.948952
11
16.772739
21
68.914226
0
LINE
8
Layer 1
10
16.772739
20
68.914226
11
17.028555
21
69.472520
0
LINE
8
Layer 1
10
17.028555
20
69.472520
11
17.103210
21
69.675633
0
LINE
8
Layer 1
10
17.103210
20
69.675633
11
17.116791
21
69.712127
0
LINE
8
Layer 1
10
17.116791
20
69.712127
11
17.078868
21
69.754924
0
LINE
8
Layer 1
10
17.078868
20
69.754924
11
16.983427
21
69.861676
0
LINE
8
Layer 1
10
16.983427
20
69.861676
11
16.767665
21
70.398779
0
LINE
8
Layer 1
10
16.767665
20
70.398779
11
16.842013
21
70.744947
0
LINE
8
Layer 1
10
16.842013
20
70.744947
11
17.061876
21
71.019471
0
LINE
8
Layer 1
10
17.061876
20
71.019471
11
17.546652
21
71.193379
0
LINE
8
Layer 1
10
17.546652
20
71.193379
11
18.025632
21
71.034249
0
LINE
8
Layer 1
10
18.025632
20
71.034249
11
18.308682
21
70.615820
0
LINE
8
Layer 1
10
18.308682
20
70.615820
11
18.317710
21
70.224224
0
LINE
8
Layer 1
10
18.317710
20
70.224224
11
18.055688
21
69.784986
0
LINE
8
Layer 1
10
18.055688
20
69.784986
11
17.985444
21
69.708388
0
LINE
8
Layer 1
10
17.985444
20
69.708388
11
18.039264
21
69.565244
0
LINE
8
Layer 1
10
18.039264
20
69.565244
11
18.311239
21
68.929418
0
LINE
8
Layer 1
10
18.311239
20
68.929418
11
18.401201
21
68.940967
0
LINE
8
Layer 1
10
18.401201
20
68.940967
11
18.503988
21
68.961950
0
LINE
8
Layer 1
10
18.503988
20
68.961950
11
18.769707
21
68.817097
0
LINE
8
Layer 1
10
18.769707
20
68.817097
11
18.979405
21
68.697188
0
LINE
8
Layer 1
10
18.979405
20
68.697188
11
19.173189
21
68.853429
0
LINE
8
Layer 1
10
19.173189
20
68.853429
11
19.265827
21
68.960403
0
LINE
8
Layer 1
10
19.265827
20
68.960403
11
19.086593
21
69.279898
0
LINE
8
Layer 1
10
19.086593
20
69.279898
11
18.972163
21
69.450233
0
LINE
8
Layer 1
10
18.972163
20
69.450233
11
18.994783
21
69.512940
0
LINE
8
Layer 1
10
18.994783
20
69.512940
11
19.074018
21
69.707232
0
LINE
8
Layer 1
10
19.074018
20
69.707232
11
19.185850
21
70.022532
0
LINE
8
Layer 1
10
19.185850
20
70.022532
11
19.191616
21
70.058660
0
LINE
8
Layer 1
10
19.191616
20
70.058660
11
19.270935
21
70.084788
0
LINE
8
Layer 1
10
19.270935
20
70.084788
11
19.463114
21
70.129553
0
LINE
8
Layer 1
10
19.463114
20
70.129553
11
19.751269
21
70.195929
0
LINE
8
Layer 1
10
19.751269
20
70.195929
11
19.797243
21
70.254350
0
LINE
8
Layer 1
10
19.797243
20
70.254350
11
19.782034
21
70.608469
0
LINE
8
Layer 1
10
19.782034
20
70.608469
11
19.449261
21
70.694476
0
LINE
8
Layer 1
10
19.449261
20
70.694476
11
19.246074
21
70.736498
0
LINE
8
Layer 1
10
19.246074
20
70.736498
11
19.107913
21
70.984789
0
LINE
8
Layer 1
10
19.107913
20
70.984789
11
19.005184
21
71.209153
0
LINE
8
Layer 1
10
19.005184
20
71.209153
11
18.953033
21
71.311974
0
LINE
8
Layer 1
10
18.953033
20
71.311974
11
18.973672
21
71.356386
0
LINE
8
Layer 1
10
18.973672
20
71.356386
11
19.109295
21
71.572812
0
LINE
8
Layer 1
10
19.109295
20
71.572812
11
19.246432
21
71.788540
0
LINE
8
Layer 1
10
19.246432
20
71.788540
11
19.268583
21
71.832253
0
LINE
8
Layer 1
10
19.268583
20
71.832253
11
19.230219
21
71.886009
0
LINE
8
Layer 1
10
19.230219
20
71.886009
11
18.996561
21
72.122741
0
LINE
8
Layer 1
10
18.996561
20
72.122741
11
18.809433
21
72.024503
0
LINE
8
Layer 1
10
18.809433
20
72.024503
11
18.501265
21
71.825887
0
LINE
8
Layer 1
10
18.501265
20
71.825887
11
18.452238
21
71.801842
0
LINE
8
Layer 1
10
18.452238
20
71.801842
11
18.358646
21
71.846434
0
LINE
8
Layer 1
10
18.358646
20
71.846434
11
18.141927
21
71.939242
0
LINE
8
Layer 1
10
18.141927
20
71.939242
11
17.907866
21
72.049828
0
LINE
8
Layer 1
10
17.907866
20
72.049828
11
17.830735
21
72.326096
0
LINE
8
Layer 1
10
17.830735
20
72.326096
11
17.730206
21
72.643455
0
LINE
8
Layer 1
10
17.730206
20
72.643455
11
17.344495
21
72.638375
0
LINE
8
Layer 1
10
17.344495
20
72.638375
11
17.293022
21
72.437035
0
LINE
8
Layer 1
10
17.293022
20
72.437035
11
17.270760
21
72.321093
0
LINE
8
Layer 1
10
17.270760
20
72.321093
11
17.249128
21
72.217822
0
LINE
8
Layer 1
10
17.249128
20
72.217822
11
17.116892
21
72.004699
0
LINE
8
Layer 1
10
17.116892
20
72.004699
11
16.904841
21
71.912854
0
LINE
8
Layer 1
10
16.904841
20
71.912854
11
16.638916
21
71.818063
0
LINE
8
Layer 1
10
16.638916
20
71.818063
11
16.359663
21
71.986233
0
LINE
8
Layer 1
10
16.359663
20
71.986233
11
16.180821
21
72.108672
0
LINE
8
Layer 1
10
16.180821
20
72.108672
11
16.134993
21
72.136445
0
LINE
8
Layer 1
10
16.134993
20
72.136445
11
16.088778
21
72.106712
0
LINE
8
Layer 1
10
16.088778
20
72.106712
11
15.891300
21
71.923181
0
LINE
8
Layer 1
10
15.891300
20
71.923181
11
15.829028
21
71.849832
0
LINE
8
Layer 1
10
15.829028
20
71.849832
11
15.860903
21
71.786276
0
LINE
8
Layer 1
10
15.860903
20
71.786276
11
16.017590
21
71.538612
0
LINE
8
Layer 1
10
16.017590
20
71.538612
11
16.142402
21
71.340602
0
LINE
8
Layer 1
10
16.142402
20
71.340602
11
15.972672
21
70.925106
0
LINE
8
Layer 1
10
15.972672
20
70.925106
11
15.866980
21
70.740325
0
LINE
8
Layer 1
10
15.866980
20
70.740325
11
15.410094
21
70.645324
0
LINE
8
Layer 1
10
15.410094
20
70.645324
11
15.316046
21
70.607547
0
LINE
8
Layer 1
10
15.316046
20
70.607547
11
15.308965
21
70.268561
0
LINE
8
Layer 1
10
15.308965
20
70.268561
11
15.352246
21
70.199167
0
LINE
8
Layer 1
10
15.352246
20
70.199167
11
15.656231
21
70.125573
0
LINE
8
Layer 1
10
15.656231
20
70.125573
11
15.836529
21
70.094087
0
LINE
8
Layer 1
10
15.836529
20
70.094087
11
15.977093
21
69.843155
0
LINE
8
Layer 1
10
15.977093
20
69.843155
11
16.090571
21
69.571574
0
LINE
8
Layer 1
10
16.090571
20
69.571574
11
16.136667
21
69.477965
0
LINE
8
Layer 1
10
16.136667
20
69.477965
11
16.121329
21
69.445690
0
LINE
8
Layer 1
10
16.121329
20
69.445690
11
15.990709
21
69.239783
0
LINE
8
Layer 1
10
15.990709
20
69.239783
11
15.829776
21
68.968771
0
LINE
8
Layer 1
10
15.829776
20
68.968771
11
15.974076
21
68.821147
0
LINE
8
Layer 1
10
15.974076
20
68.821147
11
16.118462
21
68.680322
0
LINE
8
Layer 1
10
16.118462
20
68.680322
11
16.158646
21
68.703447
0
LINE
8
Layer 1
10
16.158646
20
68.703447
11
16.355099
21
68.830596
0
LINE
8
Layer 1
10
16.355099
20
68.830596
11
16.355100
21
68.830599
 0 
ENDSEC
 0 
EOF