<?xml version="1.0" encoding="UTF-8" standalone="no"?>
<!-- Created with Inkscape (http://www.inkscape.org/) -->

<svg
   width="210mm"
   height="297mm"
   viewBox="0 0 210 297"
   version="1.1"
   id="svg3392"
   inkscape:version="1.2 (dc2aedaf03, 2022-05-15)"
   sodipodi:docname="freecad_base.svg"
   xmlns:inkscape="http://www.inkscape.org/namespaces/inkscape"
   xmlns:sodipodi="http://sodipodi.sourceforge.net/DTD/sodipodi-0.dtd"
   xmlns="http://www.w3.org/2000/svg"
   xmlns:svg="http://www.w3.org/2000/svg">
  <sodipodi:namedview
     id="namedview3394"
     pagecolor="#505050"
     bordercolor="#ffffff"
     borderopacity="1"
     inkscape:showpageshadow="0"
     inkscape:pageopacity="0"
     inkscape:pagecheckerboard="1"
     inkscape:deskcolor="#505050"
     inkscape:document-units="mm"
     showgrid="false"
     inkscape:zoom="1.1893044"
     inkscape:cx="386.3603"
     inkscape:cy="400.23395"
     inkscape:window-width="1920"
     inkscape:window-height="1027"
     inkscape:window-x="-8"
     inkscape:window-y="-8"
     inkscape:window-maximized="1"
     inkscape:current-layer="svg3392" />
  <defs
     id="defs3389" />
  <g
     inkscape:label="Base"
     inkscape:groupmode="layer"
     id="layer1">
    <path
       id="path3875"
       style="display:inline;fill:none;fill-opacity:1;stroke:#000000;stroke-width:0.1;stroke-dasharray:none;stroke-opacity:1"
       inkscape:label="Base"
       d="m 105.00011,21.651563 c -8.402199,0 -15.213539,6.69288 -15.213539,14.94896 0.002,0.42889 0.0222,0.85751 0.0615,1.28467 -13.07077,-1.34721 -28.94144,-3.79926 -49.75201,-7.70805 0,0 -6.37485,-0.18701 -6.66729,4.96197 -0.0883,1.55484 0.0999,3.75766 0.2806,5.9862 0.10389,1.28063 0.0938,3.03283 0.11989,4.99401 0.0184,1.38459 0.0563,2.93355 -0.91467,3.80441 -1.09692,0.98379 -2.97794,0.12141 -4.38423,0.56121 -1.0655,0.33323 -2.15671,0.78139 -2.97243,1.54358 -2.23839,2.09152 -1.8743,5.60017 -1.8743,5.60017 l -0.0656,14.76137 c -1.00608,1.63629 -1.46606,3.78431 -1.46606,6.57583 0,1.60251 0.11483,1.71167 0.18603,1.99523 0.0564,0.28618 0.0726,0.52361 0.0925,0.71882 0.0247,0.18124 0.0574,0.49082 0.0925,0.93224 0.0671,0.84441 0.20728,1.00029 1.63349,7.01352 1.10188,4.64576 2.53752,9.81262 3.27164,11.773957 0.27234,0.7276 0.67979,1.92477 0.90537,2.66031 0.22558,0.73553 0.48718,1.53921 0.58188,1.78593 1.59316,5.2759 -0.1942,-0.34841 2.20555,7.24659 l 0.0517,1.38028 c 0.0348,0.93266 -0.30395,2.30185 -0.59531,3.04271 -0.50659,1.28807 -2.89338,5.67397 -3.54036,6.50606 -0.40926,0.52636 -1.2934,2.24365 -1.87327,3.63802 -0.19316,0.45617 -0.25885,0.83232 -0.48162,1.47123 -1.1798,4.29239 -1.20577,4.33984 -1.18546,4.25297 -0.0262,0.10357 -0.18266,0.70929 -0.90795,3.44682 -0.35147,0.76261 -0.49953,1.10166 -1.99885,5.51077 l -0.96583,2.84169 c -1.37368,6.74444 -0.66855,2.26891 -1.51309,8.25531 l -0.0403,1.01079 c -0.0183,6.6955 -0.0606,2.67061 0.0176,6.32106 -0.0787,0.89768 -0.11191,4.04836 -0.98495,21.3279 -0.13969,2.7649 -0.32518,6.19055 -0.41238,7.61297 -0.15344,2.50221 0.15422,6.32075 0.73019,9.05578 0.85672,4.06829 2.94917,8.23078 5.48545,10.91251 l 1.75907,1.85984 c 1.15586,1.2578 0.9142,1.04313 1.53531,1.5415 1.33003,1.15286 1.69675,1.49062 3.2923,2.56057 0.68116,0.46865 1.27165,0.7325 1.68517,1.04852 0.75073,0.41248 1.91828,1.04069 3.67884,1.87585 l -19.30372,29.76253 c 0,0 -0.86672,1.73775 -0.94982,3.34036 -0.0674,1.30032 -0.48259,1.60211 0.21911,2.77761 0.91082,1.52581 1.51218,2.67881 2.84892,3.16931 57.87732,21.23703 94.046479,27.41984 173.984219,-4.15065 0.49177,-0.19422 1.80224,-1.24429 2.82256,-2.84272 1.00909,-1.58078 0.99796,-3.00408 1.08986,-4.04058 0.14418,-1.62666 -1.16505,-4.46541 -1.5074,-5.60947 -0.49699,-1.66273 -13.0225,-33.68823 -13.25036,-34.27078 1.13108,-0.71458 2.59399,-1.73939 3.53105,-2.48926 l 1.98438,-1.58801 c 1.07684,-0.7737 0.84347,-0.5002 1.89136,-1.63143 1.36443,-1.25522 3.71259,-4.45176 4.6762,-6.36498 1.81597,-3.60563 2.15603,-6.52715 1.37046,-11.7812 -0.21807,-1.45843 -0.50405,-3.65222 -0.63562,-4.87515 -0.92586,-8.60518 -1.37915,-12.47072 -1.61128,-13.74852 -0.147,-0.80909 -0.26716,-1.86708 -0.26716,-2.35076 0,-0.48368 -0.11043,-1.30986 -0.24547,-1.83606 -0.13503,-0.52621 -0.38739,-1.90957 -0.56069,-3.07371 -0.5225,-3.5102 -1.10867,-6.56945 -1.8097,-9.44542 -0.29438,-1.20769 -0.84935,-3.50595 -1.233,-5.10667 -1.5177,-6.33239 -3.18204,-10.59724 -7.20783,-18.46916 -2.86064,-5.59358 -3.47558,-7.05227 -3.57498,-8.47803 -0.10882,-1.56218 -0.10583,-0.82543 -0.23306,-2.0774 0.0507,-0.72503 0.10636,-1.88663 0.64906,-3.85506 0.20044,-0.72701 0.6221,-1.50545 0.85576,-1.94303 0.52352,-1.68516 1.14524,-3.30327 1.48518,-4.78317 1.20343,-3.591907 1.9717,-6.713977 2.75487,-11.194147 0.56888,-3.2543 0.6965,-4.82609 0.709,-8.73125 0.0171,-5.35601 -0.27755,-7.39887 -1.41748,-9.83713 -0.0482,-0.10301 -0.10458,-0.19677 -0.15555,-0.29662 0.0666,-17.49389 0.0566,-19.74001 0.12247,-31.18983 0.004,-0.70534 0.0444,-2.24907 -0.18655,-3.33984 -0.2135,-1.00825 -0.57551,-2.00083 -1.09347,-2.89182 -0.37543,-0.6458 -0.8565,-1.2466 -1.42937,-1.72599 -0.57059,-0.47748 -1.25837,-0.80815 -1.94355,-1.09812 -0.6223,-0.26337 -1.27626,-0.47283 -1.94459,-0.57258 -1.01934,-0.15214 -3.0998,-0.0445 -3.0918,-0.0305 -21.747,3.57932 -35.67971,6.53246 -52.20301,7.17734 0.14217,-0.81706 0.21494,-1.64432 0.21755,-2.47323 0,-8.25608 -6.81134,-14.94896 -15.21354,-14.94896 z m 0,7.21196 c 4.34862,9e-5 7.87384,3.46401 7.87394,7.737 -0.002,0.73883 -0.11108,1.4727 -0.32401,2.17971 l -15.253849,-0.60151 c -0.11152,-0.51864 -0.16906,-1.04742 -0.17053,-1.5782 1e-4,-4.27318 3.525649,-7.73718 7.874449,-7.737 z"
       sodipodi:nodetypes="scccssssssccscccssscccsscccccccccssscccccccsscsssccsccsscssscsssccsccscccccsssscccscccccc" />
  </g>
  <g
     inkscape:groupmode="layer"
     id="layer5"
     inkscape:label="Text">
    <g
       inkscape:groupmode="layer"
       id="layer4"
       inkscape:label="JEVOUSMERDE"
       style="display:inline;fill:none;stroke:#000000;stroke-opacity:1"
       transform="translate(182.78871,5.1351663)">
      <g
         aria-label="JeVous"
         transform="matrix(3.4950067,0,0,3.2649718,-3632.2532,-17.392245)"
         id="text113023-3"
         style="font-size:12px;font-family:HAPPINESS;-inkscape-font-specification:'HAPPINESS, Normal';white-space:pre;display:inline;fill:none;stroke:#000000;stroke-width:0;stroke-dasharray:none;stroke-opacity:1"
         inkscape:label="JEVOUS">
        <path
           style="color:#000000;-inkscape-font-specification:'HAPPINESS, Normal';fill:none;stroke:#000000;stroke-width:0.0156649;stroke-dasharray:none;stroke-opacity:1"
           d="m 998.35742,13.835902 c -0.29843,0 -0.61069,0.133243 -0.83984,0.345703 -0.22916,0.212461 -0.37648,0.504771 -0.33985,0.822266 0.168,1.631927 0.32363,3.263543 0.26368,4.90625 -0.024,0.564307 -0.0367,1.254983 -0.42774,1.693359 v 0.002 c -0.0293,0.03513 -0.0712,0.07475 -0.11719,0.103516 -0.0422,0.02639 -0.0878,0.0372 -0.13281,0.03125 -0.009,-0.136386 6.3e-4,-0.272965 0.0234,-0.398438 v -0.002 c 0.0484,-0.320492 0.0127,-0.634176 -0.12109,-0.892578 -0.13377,-0.258401 -0.36546,-0.45981 -0.70508,-0.550781 -0.28043,-0.07925 -0.6173,-0.03477 -0.89649,0.109375 -0.27918,0.144144 -0.50192,0.389472 -0.55078,0.707031 -0.0902,0.613118 -0.11109,1.243617 0.0488,1.798828 0.15992,0.555211 0.50312,1.034222 1.13672,1.335938 1.20689,0.579306 2.54712,0.07229 3.30664,-0.976563 0.77158,-1.060927 0.79464,-2.468433 0.80664,-3.728515 0.012,-1.3812 -0.14507,-2.762664 -0.28906,-4.142578 -0.0303,-0.314879 -0.15055,-0.605625 -0.34961,-0.81836 -0.19906,-0.212734 -0.47653,-0.345703 -0.81641,-0.345703 z m 0,0.0293 c 0.33212,0 0.60098,0.130625 0.79492,0.337891 0.19394,0.207265 0.31208,0.491661 0.3418,0.800781 0.14401,1.380083 0.30105,2.759874 0.28906,4.138672 -0.012,1.259915 -0.0383,2.659867 -0.80273,3.710937 -0.75248,1.039143 -2.07642,1.53949 -3.26953,0.966797 -0.6264,-0.298284 -0.96107,-0.767618 -1.11914,-1.316406 -0.15808,-0.548788 -0.13867,-1.176229 -0.0488,-1.78711 0.0471,-0.306439 0.26234,-0.542737 0.53515,-0.683593 0.27282,-0.140856 0.60344,-0.186123 0.875,-0.109375 0.33238,0.08903 0.55727,0.285511 0.6875,0.537109 0.13024,0.251598 0.16482,0.559493 0.11719,0.875 -0.0242,0.13301 -0.0356,0.278201 -0.0234,0.423828 v 0.0098 l 0.0117,0.0039 c 0.0591,0.01313 0.11605,-0.0078 0.16602,-0.03906 0.0492,-0.03072 0.0924,-0.07292 0.12305,-0.109375 0.40101,-0.449623 0.41351,-1.151152 0.4375,-1.714844 0.06,-1.64529 -0.0976,-3.278087 -0.26563,-4.910156 -0.0354,-0.306505 0.10623,-0.589336 0.33008,-0.796875 0.22385,-0.207539 0.53074,-0.337891 0.82031,-0.337891 z"
           id="path8378-6"
           inkscape:label="J" />
        <path
           style="color:#000000;-inkscape-font-specification:'HAPPINESS, Normal';fill:none;stroke:#000000;stroke-width:0.0156649;stroke-dasharray:none;stroke-opacity:1"
           d="m 1004.7402,15.581819 -2.7734,0.251953 c -0.4951,0.03683 -0.9191,0.316244 -1.0898,0.751953 -0.098,0.170636 -0.1465,0.377345 -0.1465,0.607422 0.072,1.991644 0.072,3.971188 0.012,5.962891 -0.012,0.621072 0.5464,1.192324 1.1797,1.167968 l 3.0957,-0.109375 c 0.3758,-0.01516 0.6602,-0.173599 0.8496,-0.402343 0.1894,-0.228745 0.2844,-0.526147 0.2851,-0.820313 8e-4,-0.294165 -0.092,-0.584901 -0.2812,-0.798828 -0.1894,-0.213927 -0.4767,-0.35109 -0.8555,-0.335937 l -1.8926,0.07227 c 0.011,-0.303244 0.014,-0.605316 0.014,-0.908203 0.3915,-0.04776 0.7705,-0.106528 1.1621,-0.177734 0.3172,-0.05489 0.5652,-0.272117 0.711,-0.546875 0.1457,-0.274758 0.1907,-0.608109 0.1054,-0.900391 -0.085,-0.327898 -0.2894,-0.562467 -0.5507,-0.699219 -0.2614,-0.136751 -0.5796,-0.175807 -0.8946,-0.115234 -0.198,0.03494 -0.3718,0.05869 -0.5469,0.08203 -6e-4,-0.194128 -0.011,-0.388949 -0.012,-0.582031 0.5472,-0.0476 1.0835,-0.09498 1.6309,-0.142578 0.6418,-0.06055 1.1777,-0.497982 1.1777,-1.177734 0,-0.298431 -0.1337,-0.608298 -0.3476,-0.835938 -0.214,-0.22764 -0.5088,-0.374245 -0.8321,-0.34375 z m 0,0.0293 c 0.3127,-0.02951 0.5996,0.111625 0.8086,0.333984 0.209,0.22236 0.3398,0.526837 0.3398,0.816407 0,0.664246 -0.5202,1.088989 -1.1504,1.148437 -0.552,0.048 -1.0925,0.09653 -1.6445,0.144531 h -0.014 v 0.01367 c 0,0.20458 0.012,0.409862 0.012,0.613281 v 0.01563 l 0.018,-0.002 c 0.18,-0.024 0.3601,-0.04792 0.5645,-0.08398 0.309,-0.05943 0.6203,-0.01997 0.875,0.113281 0.2546,0.133248 0.4521,0.359586 0.5351,0.679688 0.083,0.283718 0.039,0.610665 -0.1035,0.878906 -0.1422,0.268241 -0.3807,0.478145 -0.6875,0.53125 -0.3957,0.07196 -0.7801,0.131727 -1.1758,0.179687 l -0.014,0.002 v 0.01367 c 0,0.312 2e-4,0.621973 -0.012,0.933594 v 0.01758 l 1.9239,-0.07422 c 0.3712,-0.01485 0.6463,0.1186 0.8301,0.326172 0.1837,0.207573 0.2761,0.491463 0.2753,0.779297 -7e-4,0.287834 -0.095,0.578026 -0.2793,0.800781 -0.1844,0.222756 -0.4599,0.377734 -0.8281,0.392579 l -3.0957,0.109375 c -0.6141,0.02362 -1.1591,-0.534508 -1.1484,-1.136719 v -0.002 c 0.06,-1.991633 0.06,-3.973144 -0.012,-5.964844 3e-4,-0.225067 0.048,-0.426948 0.1425,-0.591797 v -0.002 c 0.1658,-0.426218 0.5813,-0.698732 1.0684,-0.734375 z"
           id="path8380-7"
           inkscape:label="E" />
        <path
           style="color:#000000;-inkscape-font-specification:'HAPPINESS, Normal';fill:none;stroke:#000000;stroke-width:0.0156649;stroke-dasharray:none;stroke-opacity:1"
           d="m 1007.8711,16.778625 c -0.2828,0.07657 -0.5336,0.240868 -0.6816,0.476562 -0.1481,0.235694 -0.1929,0.543857 -0.062,0.898438 0.876,2.412004 1.9079,4.776603 3.0839,7.05664 0.4017,0.779045 1.6295,0.75494 2.0313,0 1.2123,-2.220657 2.2443,-4.512412 3.1445,-6.876953 0.1099,-0.298991 0.045,-0.621633 -0.1172,-0.888672 -0.1623,-0.267039 -0.4226,-0.479392 -0.709,-0.558593 -0.3277,-0.09104 -0.6321,-0.03628 -0.8828,0.117187 -0.2507,0.153463 -0.4474,0.404335 -0.5625,0.707031 -0.548,1.45346 -1.1789,2.894415 -1.8574,4.289063 -0.6904,-1.466348 -1.3109,-2.954978 -1.8711,-4.46875 -0.1273,-0.351626 -0.3659,-0.578228 -0.6426,-0.697266 -0.2766,-0.119038 -0.5902,-0.131262 -0.873,-0.05469 z m 0.01,0.0293 c 0.2767,-0.07493 0.5838,-0.06335 0.8535,0.05273 0.2698,0.116087 0.5023,0.335314 0.627,0.679688 0.5641,1.524366 1.1885,3.025542 1.8847,4.501953 l 0.012,0.02734 0.014,-0.02734 c 0.6842,-1.404363 1.3209,-2.857779 1.8731,-4.322266 0.113,-0.297303 0.3065,-0.541869 0.5508,-0.691406 0.2443,-0.149537 0.5391,-0.204195 0.8593,-0.115235 0.2777,0.0768 0.5328,0.283962 0.6914,0.544922 0.1587,0.260961 0.2214,0.574273 0.1153,0.863282 -0.8998,2.363454 -1.931,4.655661 -3.1426,6.874999 -0.3902,0.733059 -1.5882,0.756954 -1.9785,0 -1.1757,-2.279428 -2.2082,-4.643279 -3.084,-7.054687 -0.1277,-0.347419 -0.085,-0.642913 0.059,-0.871094 0.1433,-0.22818 0.3893,-0.387965 0.666,-0.46289 z"
           id="path8382-5"
           inkscape:label="V" />
        <path
           style="color:#000000;-inkscape-font-specification:'HAPPINESS, Normal';fill:none;stroke:#000000;stroke-width:0.0156649;stroke-dasharray:none;stroke-opacity:1"
           d="m 1019.8203,16.614668 c -2.0696,0.613659 -3.382,2.335503 -3.5625,4.464844 -0.084,1.02444 0.2765,2.288454 0.9883,3.060547 0.7959,0.856152 1.8806,1.036812 2.998,1.048828 1.2469,0 2.1376,-0.618818 2.7246,-1.503906 0.5871,-0.885088 0.874,-2.037212 0.9161,-3.107422 v 0 c 0.048,-1.095412 -0.275,-2.346269 -1.0469,-3.154297 -0.5321,-0.556321 -1.2819,-0.665005 -2.0039,-0.628906 l 0.01,0.0039 c -0.2554,-0.206764 -0.6093,-0.304839 -1.0215,-0.183594 z m 0.01,0.0293 c 0.4037,-0.118754 0.7455,-0.0235 0.9941,0.177735 v 0.002 h 0.01 c 0.718,-0.0359 1.4566,0.07146 1.9805,0.61914 0.7641,0.799971 1.0869,2.046181 1.039,3.134766 -0.042,1.065788 -0.3252,2.210934 -0.9082,3.089844 -0.5826,0.878406 -1.4632,1.489533 -2.6992,1.490234 -1.1145,-0.01198 -2.1904,-0.191216 -2.9785,-1.039062 -0.7042,-0.763906 -1.0641,-2.019599 -0.9805,-3.035157 0.1796,-2.118654 1.4846,-3.829113 3.543,-4.439453 z m 1.289,2.439453 c -0.064,-0.0087 -0.14,-0.0064 -0.2187,0.002 -0.1573,0.01664 -0.3227,0.0563 -0.4063,0.07422 -0.226,0.03568 -0.4507,0.0222 -0.6523,-0.03711 l -0.01,-0.002 -0.01,0.0039 c -0.6637,0.386149 -1.1235,1.037914 -1.2442,1.822266 -0.06,0.458863 -5e-4,1.036994 0.2422,1.4375 0.1338,0.218823 0.3091,0.338485 0.5098,0.402343 0.2007,0.06386 0.4276,0.07422 0.668,0.07422 0.2525,0 0.4605,-0.01464 0.6406,-0.08789 0.1801,-0.07325 0.3297,-0.205518 0.4629,-0.435546 0.253,-0.457892 0.4215,-1.000562 0.4336,-1.519532 0.024,-0.516387 0.039,-1.213963 -0.2774,-1.664062 -0.028,-0.04164 -0.082,-0.06161 -0.1465,-0.07031 z m 0,0.0293 c 0.06,0.0082 0.1048,0.02629 0.125,0.05664 0.3077,0.4379 0.2975,1.130873 0.2735,1.646484 v 0.002 c -0.012,0.51303 -0.1788,1.049799 -0.4297,1.503907 -0.1308,0.225971 -0.2753,0.353075 -0.4492,0.423828 -0.174,0.07075 -0.3775,0.08594 -0.6289,0.08594 -0.2397,0 -0.4649,-0.01012 -0.6602,-0.07227 -0.1953,-0.06214 -0.3619,-0.175496 -0.4922,-0.388672 -0.2373,-0.391494 -0.2979,-0.966786 -0.2383,-1.419922 0.1197,-0.773846 0.5721,-1.41711 1.2266,-1.798828 0.204,0.05841 0.4316,0.0729 0.6582,0.03711 v -0.002 c 0.084,-0.01809 0.2496,-0.05591 0.4043,-0.07227 0.077,-0.0082 0.1507,-0.01012 0.2109,-0.002 z"
           id="path8384-3"
           inkscape:label="O" />
        <path
           style="color:#000000;-inkscape-font-specification:'HAPPINESS, Normal';fill:none;stroke:#000000;stroke-width:0.0156649;stroke-dasharray:none;stroke-opacity:1"
           d="m 1025.9531,16.01133 c -0.2934,0 -0.5882,0.095 -0.8086,0.285156 -0.2204,0.190158 -0.3672,0.47666 -0.3672,0.855469 0.012,1.523452 -0.06,3.082173 0.061,4.607421 0.066,0.78251 0.3285,1.499743 0.7793,2.041016 0.4508,0.541274 1.0905,0.906031 1.9101,0.984375 0.7492,0.07854 1.4082,-0.249679 1.9219,-0.755859 0.5137,-0.50618 0.8839,-1.189729 1.0586,-1.822266 0.1928,-0.7108 0.1797,-1.492488 0.1797,-2.236328 0.012,-0.852138 0.011,-1.703113 0.023,-2.542969 0,-0.378808 -0.1468,-0.66531 -0.3671,-0.855468 -0.2204,-0.190159 -0.5133,-0.285157 -0.8067,-0.285157 -0.2934,0 -0.5867,0.09503 -0.8086,0.285157 -0.2219,0.190127 -0.372,0.47666 -0.375,0.855468 -0.012,1.008118 -0.011,2.026992 -0.023,3.046875 0,0.336088 0,0.774456 -0.092,1.154297 -0.095,0.379841 -0.2877,0.700225 -0.6778,0.8125 -0.053,0.01668 -0.095,0.0057 -0.1347,-0.02734 -0.04,-0.03301 -0.076,-0.08997 -0.1055,-0.164062 -0.06,-0.148186 -0.097,-0.364454 -0.1211,-0.591797 -0.048,-0.454685 -0.039,-0.953678 -0.039,-1.0625 -0.012,-1.151896 -0.012,-2.305209 -0.024,-3.445312 0,-0.378809 -0.1531,-0.663389 -0.375,-0.853516 -0.2219,-0.190127 -0.5151,-0.285156 -0.8086,-0.285156 z m 0,0.0293 c 0.2871,0 0.5733,0.09247 0.7891,0.277343 0.2157,0.184873 0.3603,0.462794 0.3633,0.833985 0.012,1.139894 0.013,2.291257 0.025,3.443359 0,0.107178 -0.01,0.609093 0.039,1.066406 0.024,0.228657 0.061,0.446295 0.1231,0.59961 0.031,0.07666 0.068,0.137725 0.1133,0.175781 0.045,0.03762 0.1017,0.0496 0.1621,0.03125 0.4019,-0.115724 0.6006,-0.448827 0.6972,-0.833985 0.097,-0.385157 0.094,-0.824244 0.094,-1.160156 0.012,-1.020115 0.013,-2.038995 0.025,-3.046875 0,-0.371191 0.1475,-0.647159 0.3632,-0.832031 0.2158,-0.184872 0.502,-0.279297 0.7891,-0.279297 0.2871,0 0.5748,0.09446 0.7891,0.279297 0.2142,0.184841 0.3554,0.460841 0.3554,0.832031 -0.012,0.840142 -0.011,1.691109 -0.023,2.542969 0,0.744158 0.012,1.523317 -0.1797,2.228516 -0.1733,0.627461 -0.5415,1.306775 -1.0508,1.808593 -0.5093,0.501819 -1.1576,0.825506 -1.8964,0.748047 -0.8124,-0.07766 -1.4445,-0.43693 -1.8907,-0.972656 -0.4462,-0.535726 -0.7076,-1.247902 -0.7734,-2.025391 -0.1199,-1.522748 -0.047,-3.082877 -0.059,-4.607421 6e-4,-0.370081 0.1417,-0.647557 0.3555,-0.832032 0.2142,-0.184841 0.502,-0.277344 0.789,-0.277343 z"
           id="path8386-5"
           inkscape:label="U" />
        <path
           style="color:#000000;-inkscape-font-specification:'HAPPINESS, Normal';fill:none;stroke:#000000;stroke-width:0.0156649;stroke-dasharray:none;stroke-opacity:1"
           d="m 1036.8555,14.74787 c -1.3818,-0.180227 -2.6597,-0.09559 -3.7676,0.84375 -0.5795,0.494982 -0.8189,1.166522 -0.8008,1.84375 0.018,0.677228 0.2921,1.360208 0.7383,1.884766 0.3387,0.399225 0.8564,0.664532 1.3125,0.892578 0.3983,0.193136 0.9831,0.34971 1.2422,0.714843 0.058,0.08394 0.058,0.145969 0.025,0.199219 -0.033,0.05325 -0.1004,0.09771 -0.1836,0.13086 -0.1665,0.0663 -0.3892,0.08984 -0.4766,0.08984 -0.5807,0 -1.168,-0.428071 -1.6367,-0.728515 -0.3182,-0.209082 -0.6306,-0.240929 -0.9004,-0.154297 -0.2698,0.08663 -0.4962,0.290913 -0.6426,0.544922 -0.1463,0.254008 -0.2144,0.558917 -0.166,0.853515 0.048,0.294598 0.2141,0.577105 0.5293,0.783203 1.1896,0.781064 2.5621,1.349213 3.9961,0.867188 1.4247,-0.470859 2.3414,-2.234046 1.5684,-3.623047 -0.6392,-1.133682 -1.7947,-1.43385 -2.8243,-2.068359 -0.1415,-0.08847 -0.223,-0.196458 -0.2343,-0.302735 -0.011,-0.106277 0.044,-0.214541 0.1855,-0.308593 v 0 c 0.5563,-0.378751 1.4161,-0.189627 2.0293,-0.105469 0.3234,0.03662 0.618,-0.113113 0.832,-0.34375 0.2139,-0.230637 0.3476,-0.543415 0.3477,-0.835938 0,-0.351742 -0.1334,-0.628585 -0.3477,-0.826171 -0.2143,-0.197587 -0.5076,-0.315273 -0.8281,-0.351563 z m 0,0.0293 c 0.3154,0.03571 0.6038,0.151336 0.8125,0.34375 0.2087,0.192413 0.3379,0.460431 0.3379,0.804687 0,0.283477 -0.1308,0.591044 -0.3399,0.816407 -0.209,0.225362 -0.4941,0.369364 -0.8066,0.333984 -0.6109,-0.08384 -1.4791,-0.279874 -2.0508,0.109375 -0.1469,0.09795 -0.2119,0.219168 -0.1992,0.337891 0.013,0.118722 0.1016,0.232691 0.248,0.324218 1.0344,0.63749 2.1817,0.936278 2.8145,2.058594 0.763,1.370997 -0.1435,3.112985 -1.5508,3.578125 -1.422,0.477974 -2.7863,-0.08239 -3.9727,-0.861328 -0.3088,-0.201901 -0.4684,-0.476646 -0.5156,-0.763672 -0.047,-0.287026 0.019,-0.587446 0.1621,-0.835937 0.1432,-0.248491 0.3634,-0.445305 0.625,-0.529297 0.2616,-0.08399 0.5651,-0.05648 0.877,0.148437 0.4673,0.299556 1.0571,0.734375 1.6523,0.734375 0.093,0 0.3138,-0.0231 0.4863,-0.0918 0.086,-0.03435 0.161,-0.07995 0.1993,-0.142578 0.038,-0.06262 0.037,-0.14236 -0.025,-0.232422 -0.2689,-0.378866 -0.8603,-0.533745 -1.2539,-0.724609 -0.4559,-0.227953 -0.9695,-0.491992 -1.3028,-0.884766 -0.4418,-0.519441 -0.7145,-1.197417 -0.7324,-1.867187 -0.018,-0.66977 0.2185,-1.331295 0.791,-1.820313 1.1001,-0.932655 2.3659,-1.01571 3.7442,-0.835937 z"
           id="path8388-6"
           inkscape:label="S" />
      </g>
      <g
         aria-label="MERDE"
         transform="matrix(2.1363392,0,0,2.3189468,-2156.009,-1989.9231)"
         id="text17129-2"
         style="font-size:24px;font-family:HAPPINESS;-inkscape-font-specification:'HAPPINESS, Normal';white-space:pre;display:inline;fill:none;stroke:#000000;stroke-width:0;stroke-dasharray:none;stroke-opacity:1"
         inkscape:label="MERDE">
        <path
           style="color:#000000;-inkscape-font-specification:'HAPPINESS, Normal';fill:none;stroke:#000000;stroke-width:0.0237745;stroke-dasharray:none;stroke-opacity:1"
           d="m 950.65284,954.36791 c -0.81787,-0.20486 -1.79607,-0.0255 -2.50361,0.50027 -1.27906,0.988 -2.50214,2.03953 -3.687,3.12452 l -0.8094,-3.84803 5.6e-4,-0.002 c -0.19289,-0.87597 -0.76983,-1.39915 -1.47213,-1.57507 -0.9827,-0.24615 -2.15656,0.16376 -2.82707,1.07502 -2.33207,3.09741 -4.53923,6.27493 -6.64379,9.52873 -0.13861,0.21541 -0.25454,0.43724 -0.32377,0.67184 -0.19003,0.64385 -0.0444,1.24209 0.29388,1.71309 0.33831,0.47098 0.86835,0.81662 1.45243,0.96292 0.88835,0.22252 1.94824,-0.0414 2.59919,-1.05723 1.09227,-1.6974 2.23055,-3.38428 3.38464,-5.04212 l 0.62364,2.94128 c 0.18389,0.82593 0.86902,1.39972 1.6635,1.59871 0.77064,0.19304 1.6474,0.0348 2.24348,-0.62007 l 5.7e-4,-0.002 c 0.75191,-0.81183 1.52187,-1.59593 2.31178,-2.374 -0.13451,1.96099 -0.22481,3.93233 -0.26176,5.89319 -0.0272,1.19654 0.70166,1.88606 1.61257,2.11423 0.58423,0.14637 1.23514,0.0889 1.78917,-0.17119 0.55404,-0.26002 1.01137,-0.72474 1.20814,-1.39149 0.062,-0.2101 0.10182,-0.42571 0.10069,-0.67712 0.0894,-3.75742 0.33155,-7.52664 0.71933,-11.28395 0.0603,-0.58679 -0.0812,-1.05058 -0.3512,-1.3955 -0.27001,-0.34492 -0.66833,-0.57018 -1.12379,-0.68427 z m -0.0132,0.0453 c 0.44775,0.11217 0.83738,0.33252 1.10019,0.66824 0.26281,0.33571 0.40002,0.78544 0.34068,1.3625 -0.38793,3.7585 -0.62911,7.52953 -0.71854,11.28819 10e-4,0.24658 -0.0382,0.45858 -0.0992,0.66534 -0.19282,0.65332 -0.63814,1.10696 -1.18118,1.36181 -0.54303,0.25485 -1.18384,0.31067 -1.75756,0.16696 -0.89549,-0.22431 -1.60603,-0.89189 -1.57923,-2.06945 0.0373,-1.97994 0.12794,-3.9712 0.2647,-5.95114 l 0.004,-0.0599 -0.0427,0.0419 c -0.80628,0.79315 -1.58928,1.59351 -2.35618,2.42157 -0.58246,0.64076 -1.43925,0.7952 -2.19667,0.60548 -0.78033,-0.19546 -1.45087,-0.75901 -1.6306,-1.5662 l -0.64538,-3.04589 -0.0315,0.0448 c -1.16541,1.67314 -2.31435,3.37684 -3.41719,5.09065 -0.64001,0.99874 -1.67463,1.2544 -2.54638,1.03605 -0.57387,-0.14375 -1.09537,-0.48483 -1.42693,-0.94643 -0.33155,-0.46159 -0.47342,-1.04313 -0.2875,-1.67304 0.0674,-0.22857 0.18099,-0.44612 0.318,-0.65911 2.10397,-3.2529 4.31004,-6.43092 6.64134,-9.52731 0.65839,-0.8948 1.81406,-1.2964 2.77672,-1.05525 0.68726,0.17214 1.24953,0.68116 1.43923,1.54254 l 0.82518,3.92484 0.0308,-0.0288 c 1.19295,-1.09351 2.42568,-2.15132 3.71363,-3.14618 0.69413,-0.51517 1.66002,-0.69336 2.46279,-0.49227 z"
           id="path20428-9"
           inkscape:label="M" />
        <path
           style="color:#000000;-inkscape-font-specification:'HAPPINESS, Normal';fill:none;stroke:#000000;stroke-width:0.0237745;stroke-dasharray:none;stroke-opacity:1"
           d="m 964.65539,955.8322 -5.55413,-0.40905 c -0.98768,-0.0896 -1.9294,0.32 -2.43173,1.12085 -4e-4,4.7e-4 10e-5,10e-4 -3.9e-4,0.002 -5.1e-4,8.1e-4 -0.002,6.7e-4 -0.002,0.002 -0.25527,0.30262 -0.42859,0.69029 -0.51661,1.14075 l -3.8e-4,0.002 c -0.6243,3.94394 -1.38419,7.84036 -2.2683,11.74131 -0.26204,1.21477 0.61474,2.51682 1.86669,2.67508 l 6.13477,0.79903 c 0.74405,0.0926 1.3637,-0.12793 1.82326,-0.51528 0.45954,-0.38736 0.75973,-0.9406 0.8741,-1.51807 0.11488,-0.57739 0.0424,-1.17896 -0.24713,-1.66035 -0.28958,-0.48138 -0.79785,-0.84173 -1.54774,-0.93536 l -3.75885,-0.47647 c 0.13991,-0.59687 0.2577,-1.19726 0.37495,-1.79731 0.79146,0.0341 1.565,0.0416 2.3658,0.0291 0.64198,-0.006 1.20996,-0.34863 1.60089,-0.83991 0.39154,-0.49201 0.60837,-1.13275 0.55314,-1.73402 -0.0411,-0.67149 -0.35154,-1.19809 -0.81213,-1.55161 -0.46059,-0.35353 -1.07059,-0.53456 -1.71261,-0.51817 -0.40475,0.004 -0.75902,-0.007 -1.11376,-0.018 0.0745,-0.38654 0.12865,-0.77617 0.20307,-1.16101 1.0975,0.0851 2.17106,0.16717 3.26881,0.25229 1.28422,0.09 2.50384,-0.59612 2.76464,-1.9309 0.11443,-0.58558 -0.0292,-1.23617 -0.36202,-1.75283 -0.33283,-0.51665 -0.85629,-0.90031 -1.50207,-0.94564 z m -0.005,0.0468 c 0.62913,0.0446 1.14182,0.41705 1.46855,0.92422 0.32672,0.50718 0.4663,1.14802 0.35457,1.71984 -0.25609,1.3107 -1.44764,1.98063 -2.71333,1.89178 -1.10504,-0.0857 -2.18574,-0.16626 -3.29072,-0.25196 l -0.0215,-0.002 -0.004,0.0192 c -0.0787,0.40246 -0.13414,0.80842 -0.21246,1.20906 l -0.005,0.0269 0.0258,-2.6e-4 c 0.36354,0.0115 0.7293,0.0236 1.14528,0.0192 0.63238,-0.0161 1.23171,0.16097 1.68297,0.5073 0.45124,0.34637 0.75434,0.8601 0.79469,1.51896 l -3.9e-4,0.002 c 0.0539,0.58733 -0.15825,1.21728 -0.54253,1.70007 -0.38418,0.48278 -0.93903,0.81753 -1.56563,0.82193 -0.80678,0.0124 -1.58414,0.005 -2.38155,-0.0298 l -0.0215,-0.002 -0.004,0.0212 c -0.12002,0.61414 -0.23939,1.22806 -0.38283,1.83769 l -0.007,0.0247 3.80881,0.48475 c 0.73794,0.0921 1.23146,0.44386 1.51423,0.91392 0.28276,0.47007 0.35402,1.06005 0.2416,1.62768 -0.1119,0.56771 -0.40883,1.1115 -0.85886,1.49083 -0.45002,0.37932 -1.05328,0.59486 -1.78526,0.50371 l -6.13479,-0.79902 c -1.22302,-0.15467 -2.08589,-1.4327 -1.82992,-2.61937 0.88431,-3.90185 1.64649,-7.79978 2.27101,-11.74482 0.087,-0.44556 0.25853,-0.82654 0.50901,-1.12217 l 3.8e-4,-0.002 0.002,-0.002 c 0.49158,-0.78709 1.41343,-1.18936 2.38803,-1.10031 l 0.002,3.2e-4 z"
           id="path20430-1"
           inkscape:label="E" />
        <path
           style="color:#000000;-inkscape-font-specification:'HAPPINESS, Normal';fill:none;stroke:#000000;stroke-width:0.0237745;stroke-dasharray:none;stroke-opacity:1"
           d="m 975.57898,955.11821 c -1.19335,0.14252 -2.30101,0.44704 -3.26431,1.00662 l 0.0175,-10e-4 c -0.69496,-0.1518 -1.46554,-0.0128 -2.05093,0.39525 -0.58539,0.40808 -0.98576,1.08602 -0.93669,2.00486 0.25262,4.2679 0.5563,8.55712 0.90456,12.81746 0.0641,0.75375 0.40421,1.29879 0.87616,1.64214 0.47195,0.34335 1.07326,0.48568 1.65814,0.43949 0.58486,-0.0462 1.1549,-0.28113 1.56247,-0.69384 0.40756,-0.41271 0.6513,-1.00396 0.58723,-1.75771 -0.05,-0.537 -0.0757,-1.07686 -0.12481,-1.61522 2.33767,1.1567 4.70938,2.19488 7.16745,3.1036 1.18428,0.46484 2.54311,0.13757 3.10876,-1.09824 0.25527,-0.5322 0.2702,-1.20132 0.0723,-1.79349 -0.19794,-0.59217 -0.61122,-1.10839 -1.2175,-1.32898 -1.76066,-0.67408 -3.50218,-1.399 -5.20094,-2.17291 0.51124,-0.35072 1.01604,-0.76608 1.46968,-1.22755 1.72649,-1.70838 2.20848,-4.33137 1.53841,-6.5983 -0.40823,-1.39579 -1.33081,-2.25129 -2.46027,-2.71868 -1.12946,-0.46739 -2.46527,-0.5495 -3.70718,-0.40313 z m 0.006,0.0466 c 1.23606,-0.1457 2.56426,-0.0639 3.68328,0.39913 1.11902,0.46308 2.02758,1.30518 2.4319,2.6876 0.66567,2.25201 0.18883,4.85925 -1.52487,6.5541 -0.46101,0.46896 -0.97551,0.89379 -1.4953,1.24722 l -0.0331,0.0242 0.0369,0.0167 c 1.71109,0.78047 3.46588,1.51036 5.23972,2.18945 0.59046,0.21482 0.99502,0.71858 1.18931,1.29984 0.19429,0.58124 0.17751,1.23883 -0.0716,1.75815 -0.55538,1.21334 -1.88248,1.53146 -3.0483,1.07386 -2.46884,-0.91269 -4.85405,-1.95149 -7.20181,-3.11461 l -0.0371,-0.0186 0.004,0.0408 c 0.0511,0.54931 0.079,1.10138 0.13024,1.65204 0.063,0.74171 -0.17817,1.31789 -0.57686,1.7216 -0.39869,0.40372 -0.95755,0.63431 -1.53242,0.67971 -0.57488,0.0454 -1.1645,-0.0946 -1.62592,-0.43027 -0.46141,-0.33569 -0.79428,-0.86663 -0.85732,-1.60834 -0.34824,-4.25999 -0.65179,-8.54798 -0.90438,-12.81552 -0.0483,-0.90415 0.34304,-1.564 0.91695,-1.96409 0.57393,-0.40009 1.33238,-0.5374 2.01432,-0.38844 l 0.008,10e-4 0.008,-0.005 c 0.95633,-0.55554 2.05817,-0.85938 3.24714,-1.00136 z m 1.41519,4.42238 c -0.27486,-0.006 -0.63944,0.0952 -0.9939,0.14715 -0.25961,0.0445 -0.61762,0.0848 -0.94569,0.18054 -0.32714,0.0955 -0.6263,0.2461 -0.76345,0.51704 -0.0632,0.10185 -0.10522,0.17704 -0.16861,0.25247 l -0.005,0.006 9.3e-4,0.01 c 0.0517,0.8149 0.10271,1.63009 0.18063,2.46746 l 0.003,0.0311 0.0302,-0.0124 c 0.75712,-0.28896 1.51377,-0.64272 2.09201,-1.1336 0.57822,-0.49088 0.97642,-1.11933 1.00863,-1.94781 0.0129,-0.19139 -0.0239,-0.32131 -0.10418,-0.40343 -0.0798,-0.0822 -0.1967,-0.11174 -0.33413,-0.11476 z m -0.002,0.0452 c 0.1311,0.003 0.23594,0.032 0.30349,0.10149 0.0675,0.0695 0.10346,0.18325 0.091,0.36723 l 1.8e-4,0.002 c -0.0317,0.81455 -0.42078,1.42805 -0.99226,1.9132 -0.56371,0.47857 -1.30816,0.82687 -2.05276,1.11286 -0.0758,-0.822 -0.12576,-1.62327 -0.17664,-2.42464 0.0622,-0.0761 0.10526,-0.14959 0.16526,-0.24634 l -1.8e-4,-0.002 c 0.12752,-0.2543 0.41512,-0.40321 0.73783,-0.49738 0.3227,-0.0941 0.67804,-0.13324 0.94004,-0.17813 0.35847,-0.0525 0.7218,-0.15406 0.98399,-0.14827 z"
           id="path20432-2"
           inkscape:label="R" />
        <path
           style="color:#000000;-inkscape-font-specification:'HAPPINESS, Normal';fill:none;stroke:#000000;stroke-width:0.0237745;stroke-dasharray:none;stroke-opacity:1"
           d="m 990.0808,953.1549 c -1.08486,0.23841 -2.14883,0.67198 -3.00678,1.26148 -0.57366,0.0859 -1.11304,0.3631 -1.4747,0.80453 -0.36166,0.44142 -0.54386,1.04696 -0.4013,1.78556 0.72162,3.95262 1.46592,7.90112 2.21125,11.85011 0.1896,1.07473 0.9243,1.67404 1.75422,1.85659 0.82641,0.18178 1.74785,-0.0466 2.33427,-0.62059 2.32155,-0.10558 4.83682,-1.28465 6.34811,-2.80259 2.15733,-2.15264 2.61583,-5.48969 1.55402,-8.32973 -1.0526,-2.79031 -3.17658,-5.30191 -6.1857,-5.90053 -0.9372,-0.18944 -2.04524,-0.14395 -3.13339,0.0952 z m 0.0121,0.0457 c 1.08289,-0.23792 2.18513,-0.28189 3.11376,-0.0942 2.9883,0.59449 5.10187,3.08892 6.15033,5.86823 1.05591,2.82433 0.5983,6.14238 -1.54485,8.28087 -1.5031,1.50973 -4.01562,2.68783 -6.32439,2.79113 l -0.008,-7.9e-4 -0.007,0.007 c -0.57339,0.56685 -1.48714,0.79482 -2.3015,0.61569 -0.81435,-0.17913 -1.52936,-0.76149 -1.71589,-1.8188 -0.74529,-3.94899 -1.48962,-7.89767 -2.21125,-11.85011 -0.14024,-0.72659 0.0384,-1.31697 0.392,-1.74855 0.35359,-0.43158 0.88249,-0.70399 1.4459,-0.78835 l 0.006,-8.9e-4 0.004,-0.003 c 0.85336,-0.58816 1.91843,-1.02077 3.00134,-1.25869 z m 2.27039,4.43479 c -0.5357,0.007 -1.56858,0.089 -2.24843,0.41182 l -0.0147,0.006 0.003,0.0174 c 0.45415,2.43642 0.90883,4.87422 1.36715,7.33434 l 0.004,0.0212 0.0231,-0.003 c 1.11895,-0.16754 2.35296,-0.7661 3.06281,-1.45983 0.87875,-0.86873 0.96583,-2.44461 0.45311,-3.54452 -0.22666,-0.5259 -0.55013,-1.22138 -0.98581,-1.78564 -0.43568,-0.56425 -0.98571,-1.00029 -1.66399,-0.99747 z m 2.7e-4,0.0475 c 0.65806,-0.003 1.19614,0.42105 1.62714,0.97924 0.431,0.5582 0.75375,1.24988 0.97991,1.77465 0.5044,1.08204 0.41615,2.64315 -0.44425,3.49372 -0.69533,0.67955 -1.91391,1.26603 -3.01541,1.4369 -0.45501,-2.44251 -0.90663,-4.86121 -1.35762,-7.28037 0.66609,-0.3101 1.68222,-0.39713 2.21019,-0.40417 z"
           id="path20434-7"
           inkscape:label="D" />
        <path
           style="color:#000000;-inkscape-font-specification:'HAPPINESS, Normal';fill:none;stroke:#000000;stroke-width:0.0237745;stroke-dasharray:none;stroke-opacity:1"
           d="m 1005.6627,948.0925 -5.1283,2.00246 c -0.9231,0.34151 -1.5525,1.1072 -1.59429,2.03389 -0.0746,0.37717 -0.0355,0.795 0.11258,1.23209 l 6.4e-4,0.002 c 1.42577,3.763 2.70737,7.54163 3.88077,11.37729 0.3776,1.18868 1.8082,1.96984 2.9978,1.57693 l 5.8407,-1.9045 c 0.7061,-0.23479 1.145,-0.69426 1.358,-1.23347 0.2131,-0.53921 0.2016,-1.15762 0.013,-1.71838 -0.1898,-0.56034 -0.554,-1.06347 -1.0524,-1.36697 -0.4983,-0.30352 -1.1299,-0.40654 -1.8418,-0.17016 l -3.572,1.17852 c -0.1755,-0.58886 -0.3728,-1.17127 -0.57,-1.75328 0.719,-0.30686 1.4086,-0.62978 2.1125,-0.98183 l 6e-4,0.002 c 0.5681,-0.27797 0.8972,-0.82546 0.9974,-1.42849 0.1002,-0.60304 -0.029,-1.26353 -0.3798,-1.77315 v 0 c -0.3735,-0.5779 -0.9149,-0.91207 -1.5007,-1.02938 -0.5852,-0.11716 -1.2162,-0.0178 -1.7767,0.26945 v 0 c -0.3567,0.176 -0.6764,0.31728 -0.9966,0.45843 -0.127,-0.37475 -0.2758,-0.74293 -0.4022,-1.11607 1.0158,-0.39203 2.0089,-0.77646 3.025,-1.16855 1.184,-0.46705 1.921,-1.59504 1.4824,-2.88968 -0.1924,-0.56797 -0.6463,-1.08367 -1.2007,-1.40003 -0.5544,-0.31636 -1.211,-0.43361 -1.8064,-0.19874 z m 0.015,0.0448 c 0.5801,-0.2288 1.2217,-0.11653 1.766,0.19401 0.5442,0.31056 0.9896,0.81934 1.1775,1.37396 0.4307,1.27128 -0.2897,2.37283 -1.4565,2.83314 -1.0229,0.39469 -2.0216,0.78354 -3.0443,1.17818 l -0.02,0.008 0.01,0.0186 c 0.1323,0.39035 0.2864,0.77409 0.418,1.16268 l 0.01,0.0262 0.024,-0.0112 c 0.3281,-0.14464 0.6565,-0.28926 1.0233,-0.47021 0.5526,-0.28366 1.1729,-0.3819 1.7469,-0.267 0.5739,0.11493 1.1005,0.44136 1.4669,1.00839 l 7e-4,0.002 c 0.3425,0.49782 0.4702,1.14687 0.3721,1.73853 -0.098,0.59173 -0.4206,1.12436 -0.9739,1.39513 v 0 c -0.7091,0.35467 -1.4022,0.67915 -2.1267,0.98798 l -0.019,0.008 0.01,0.0205 c 0.2018,0.59566 0.404,1.19089 0.5822,1.79271 l 0.01,0.0242 3.6188,-1.19194 c 0.7004,-0.23263 1.3146,-0.13094 1.8013,0.16543 0.4866,0.29636 0.8458,0.78917 1.0311,1.34035 0.1866,0.5508 0.1971,1.15918 -0.012,1.68722 -0.2086,0.52801 -0.6373,0.97664 -1.332,1.20758 l -5.8408,1.9045 c -1.162,0.38379 -2.5667,-0.38245 -2.9352,-1.54373 -1.1741,-3.83644 -2.4563,-7.61684 -3.88207,-11.38102 -0.14641,-0.43216 -0.18508,-0.84315 -0.11189,-1.21183 l -6.5e-4,-0.002 -6.5e-4,-0.002 c 0.0408,-0.90728 0.65826,-1.65716 1.56716,-1.99332 z"
           id="path20436-0"
           inkscape:label="E" />
      </g>
    </g>
  </g>
  <g
     id="g162321"
     inkscape:label="Base extrude"
     transform="translate(205.00362,-76.90843)"
     style="display:inline">
    <path
       style="display:inline;fill:none;stroke:#000000;stroke-width:0.1;stroke-dasharray:none;stroke-opacity:1"
       d="m -95.44255,231.91206 c 0.42368,-0.46816 0.42481,-0.56745 0.0173,-1.52135 -0.82582,-1.93315 -1.17237,-3.4082 -1.34936,-5.74352 -0.17659,-2.32992 -0.17237,-2.35227 0.83389,-4.41615 0.81655,-1.67479 0.94955,-2.14888 0.69042,-2.46111 -0.28153,-0.33923 -0.41628,-0.33917 -1.09715,5.3e-4 -1.18405,0.59068 -1.76289,1.61694 -1.90472,3.37699 -0.10589,1.31405 -0.24429,1.66091 -0.85789,2.15018 -0.90107,0.71849 -4.62393,1.85505 -7.28709,2.22469 -2.92247,0.40563 -5.93659,0.32496 -6.87917,0.26225 -0.13767,-0.009 -1.75127,-0.17579 -2.47058,-0.25082 -1.10375,-0.11513 -1.89817,-0.19068 -2.74202,-0.42372 -0.84384,-0.23305 -2.08288,-0.52085 -2.75342,-0.63957 -2.24678,-0.39779 -3.46082,-0.87059 -3.68363,-1.43458 -0.11838,-0.29966 -0.35603,-2.15219 -0.52811,-4.11672 -0.17207,-1.96453 -0.43268,-3.64657 -0.57912,-3.73788 -0.14645,-0.0913 -0.50453,-0.1037 -0.79574,-0.0275 -0.50858,0.133 -0.52121,0.27009 -0.31992,3.4733 0.29065,4.62525 0.2123,5.54279 -0.56716,6.64213 -1.59803,2.25383 -2.04576,2.82996 -2.83355,3.64608 -0.67622,0.70054 -0.78282,0.95571 -0.55265,1.32292 0.15684,0.25023 0.54563,0.49363 0.86398,0.54089 0.75513,0.1121 2.77139,-2.0378 3.37253,-3.59606 0.55151,-1.42964 1.3252,-1.68021 2.84769,-0.92229 2.77791,1.38291 3.83909,1.63985 8.09588,1.96023 3.56275,0.26815 9.37219,0.10424 10.41958,-0.29397 0.35442,-0.13476 1.67119,-0.32832 2.92614,-0.43015 1.95394,-0.15854 2.41355,-0.11415 3.19926,0.30898 0.50464,0.27177 0.91752,0.62735 0.91752,0.79018 0,0.16283 0.16561,0.64177 0.36802,1.06431 0.20241,0.42254 0.57316,1.21474 0.8239,1.76044 0.50751,1.10458 1.12079,1.26967 1.82516,0.49134 z"
       id="path66737-4"
       sodipodi:nodetypes="sssssssssssssssscssssssssssssssss"
       inkscape:label="Mouth"
       sodipodi:insensitive="true" />
    <path
       style="display:inline;fill:none;stroke:#000000;stroke-width:0.1;stroke-dasharray:none;stroke-opacity:1"
       d="m -55.72945,227.00459 c 2.09937,-0.47959 4.64039,-1.18132 4.93343,-1.36243 0.12907,-0.0798 0.56013,-0.20399 0.95792,-0.27605 0.39778,-0.0721 1.25725,-0.36717 1.90994,-0.6558 0.65269,-0.28862 1.60519,-0.62597 2.11667,-0.74965 0.51148,-0.12368 1.7634,-0.54478 2.78204,-0.93578 1.01865,-0.39099 2.20927,-0.80152 2.64584,-0.91228 0.43656,-0.11075 1.62718,-0.56504 2.64583,-1.00951 1.01864,-0.44448 2.4388,-1.00441 3.1559,-1.24429 0.7171,-0.23987 1.61007,-0.60268 1.98438,-0.80622 0.3743,-0.20354 1.95879,-0.97046 3.52107,-1.70426 2.98327,-1.40122 4.96469,-2.90375 4.96469,-3.76475 0,-1.23803 -1.4087,-2.80127 -3.24217,-3.59785 -1.36102,-0.59132 -4.45551,0.13818 -8.29972,1.95657 -1.03653,0.4903 -1.99643,0.89146 -2.13311,0.89146 -0.13669,0 -0.71737,0.22445 -1.29041,0.49878 -0.57303,0.27432 -1.99438,0.93485 -3.15855,1.46783 -1.16416,0.53298 -2.32341,1.08244 -2.57609,1.22101 -0.25269,0.13858 -0.57307,0.25196 -0.71195,0.25196 -0.13888,0 -1.24182,0.4556 -2.45098,1.01245 -1.20916,0.55685 -2.79379,1.17064 -3.52139,1.36397 -0.72761,0.19334 -1.44198,0.43614 -1.5875,0.53955 -0.14553,0.10341 -0.56224,0.25532 -0.92605,0.33757 -3.42147,0.77358 -4.97143,1.44887 -5.92408,2.58103 -1.32294,1.57223 -1.1505,2.99942 0.54193,4.4854 1.01005,0.88683 1.39263,0.92979 3.66236,0.41129 z"
       id="path66739-0"
       inkscape:label="Wisker R 2"
       sodipodi:nodetypes="sscssssssssssssssssssscsss"
       sodipodi:insensitive="true" />
    <path
       style="display:inline;fill:none;stroke:#000000;stroke-width:0.1;stroke-dasharray:none;stroke-opacity:1"
       d="m -24.86038,244.31917 c 0.27947,0 0.80037,-0.29225 1.15755,-0.64944 0.74054,-0.74053 0.83601,-1.82039 0.32866,-3.71733 -0.37684,-1.40896 -0.2167,-1.34608 -6.02922,-2.36754 -2.11005,-0.37081 -4.61037,-0.85275 -5.55625,-1.07099 -0.94589,-0.21823 -2.73183,-0.59073 -3.96875,-0.82779 -2.81329,-0.53916 -7.4848,-1.66567 -11.1125,-2.67973 -5.56156,-1.55463 -7.26781,-1.74709 -8.73991,-0.98583 -1.569,0.81136 -1.96299,2.96038 -0.83119,4.53364 0.62896,0.87428 3.51603,1.67896 13.27526,3.70004 1.09141,0.22603 2.57969,0.56551 3.3073,0.75442 2.30002,0.59716 6.91957,1.62649 12.43541,2.77088 3.64216,0.75565 3.6539,0.75735 4.46485,0.64503 0.41837,-0.0579 0.98933,-0.10536 1.26879,-0.10536 z"
       id="path66735-4"
       inkscape:label="Wisker R 1"
       sodipodi:nodetypes="sssssssssssscs"
       sodipodi:insensitive="true" />
    <path
       id="path66733-3"
       style="display:inline;fill:none;stroke:#000000;stroke-width:0.1;stroke-dasharray:none;stroke-opacity:1"
       inkscape:label="FU L"
       d="m -150.88646,292.88298 c -0.56471,-0.081 -0.7363,-0.10102 -1.06985,-0.20101 -0.83444,-0.25011 -4.59448,-1.61123 -5.89861,-2.55584 -1.577,-1.14225 -4.4105,-4.18819 -5.69181,-6.11855 -1.47002,-2.21469 -3.74806,-7.18232 -4.39042,-9.57402 -1.53775,-5.7255 -0.66302,-11.36847 2.43232,-15.69106 1.48112,-2.06834 2.9923,-2.91222 5.12646,-2.86272 0.90455,0.021 1.8179,-0.0734 2.02967,-0.20962 0.27192,-0.17497 0.43295,-1.01699 0.54816,-2.86622 0.17516,-2.81119 0.40237,-3.4669 1.50064,-4.33081 0.54139,-0.42586 1.08729,-0.55391 2.36125,-0.55391 1.41417,0 1.81722,0.11601 2.74968,0.79149 0.60094,0.43532 1.22306,1.03521 1.38248,1.33309 0.15942,0.29788 0.39162,0.54161 0.516,0.54161 0.40831,0 0.55361,-1.14242 0.69513,-5.46568 0.40527,-12.37995 1.44535,-14.95392 5.99205,-14.82894 2.09002,0.0574 2.96688,0.56038 3.87235,2.22096 0.67366,1.23545 0.76979,1.69053 0.77659,3.67625 0.004,1.24644 -0.14313,3.70599 -0.32755,5.46568 -0.18442,1.75968 -0.40425,4.27923 -0.4885,5.59899 -0.0842,1.31976 -0.38123,3.55821 -0.65995,4.97433 -0.89965,4.57099 -0.7738,4.81676 2.58044,5.03949 2.24975,0.14938 2.3623,0.18797 3.08985,1.05946 0.47069,0.56381 0.75504,1.21446 0.75504,1.72767 0,1.0749 0.28175,1.08956 1.44284,1.07962 0.77225,-0.007 0.35266,-0.014 0.70075,0.002 0.5491,-0.0825 0.66183,-0.0896 0.72568,-0.16223 0.52379,-0.0172 -0.14376,0.016 0.45013,0.0231 1.43655,0.017 2.85425,0.74363 3.31121,1.69703 0.42617,0.8892 0.46538,5.99072 0.0582,7.58492 -0.13625,0.53353 -0.32407,1.74991 -0.41738,2.70308 -0.53953,5.51088 -1.80233,9.54023 -3.78148,12.06595 -2.03313,2.59463 -7.88703,6.72351 -10.63465,7.50086 -0.72619,0.20545 -2.58012,0.39148 -4.11984,0.41341 -2.33882,0.0819 -3.16732,0.0473 -5.61692,-0.0784 z m 9.53304,2.87759 c 3.2331,-0.74183 5.56283,-1.65872 8.69138,-3.42058 5.06223,-2.85083 7.83384,-6.55891 8.49098,-11.35994 0.13046,-0.95317 0.35221,-4.85246 0.49276,-8.66511 0.14056,-3.81264 0.335,-7.86309 0.43209,-9.00098 0.21642,-2.53654 -0.20952,-3.85185 -1.77489,-5.48094 -1.27215,-1.32392 -3.28773,-2.39056 -6.32999,-3.34978 -2.70301,-0.85224 -3.62924,-1.31623 -4.17064,-2.08919 -0.51477,-0.73493 -0.53425,-2.56264 -0.0478,-4.48534 0.20256,-0.80068 0.51881,-4.28907 0.70276,-7.75199 l 0.33447,-6.2962 -0.76253,-1.40101 c -0.87795,-1.61309 -2.99178,-3.60071 -4.98045,-4.68308 -1.15289,-0.62749 -1.70059,-0.75052 -3.38479,-0.76039 -1.73924,-0.0102 -2.20371,0.0948 -3.45519,0.78084 -1.95898,1.07392 -3.22924,2.87678 -4.25604,6.0406 -0.1984,0.61132 -0.29718,2.38301 -0.26162,4.69281 0.053,3.44336 0.0136,3.78108 -0.54622,4.68693 -0.33184,0.53691 -0.84109,1.10346 -1.1317,1.25898 -0.74015,0.39612 -3.31136,1.04357 -4.14429,1.04357 -1.23894,0 -2.42089,1.17706 -2.88825,2.87629 -0.87391,3.17734 -1.20185,3.82141 -2.14686,4.21625 -0.49071,0.20504 -1.34956,0.37279 -1.90855,0.37279 -1.13452,0 -1.75797,0.54076 -3.74491,3.24827 -2.34311,3.19284 -3.90625,6.81208 -4.61797,10.69221 -1.15993,6.3236 3.16389,16.85535 9.27512,22.59192 3.35305,3.14748 10.74774,6.10537 15.61953,6.24784 1.13757,0.0333 2.10766,0.22699 2.24404,0.23622 1.40916,0.0953 2.3863,0.14853 4.26957,-0.24099 z"
       sodipodi:insensitive="true" />
    <path
       id="path66729-9"
       style="display:inline;fill:none;stroke:#000000;stroke-width:0.1;stroke-dasharray:none;stroke-opacity:1"
       inkscape:label="FU R"
       d="m -87.21485,294.33016 c -2.74747,-0.39758 -3.75656,-0.70785 -5.47411,-1.68318 -2.07251,-1.17689 -7.88735,-6.74924 -7.88735,-7.55843 0,-0.15847 -0.0953,-0.28813 -0.21186,-0.28813 -0.35993,0 -1.30082,-2.19576 -1.592,-3.71526 -0.41363,-2.15846 -0.63831,-10.98289 -0.32308,-12.68891 0.14788,-0.80037 0.43977,-2.38301 0.64864,-3.51698 0.6707,-3.64129 1.70115,-4.78166 4.6347,-5.1291 1.15909,-0.13728 1.49506,-0.0712 2.16846,0.4267 0.95271,0.70437 1.49612,0.55781 1.9001,-0.51247 0.16466,-0.43624 0.43989,-0.70071 0.50596,-0.79315 0.0522,-0.0731 0.12302,-0.14282 0.21538,-0.33073 0.0438,-0.0892 2.0208,-2.3151 3.25674,-2.3151 0.39454,0 1.16972,0.47088 1.99157,1.2098 1.5644,1.40653 2.27815,1.45673 3.0034,0.21123 0.87072,-1.49531 1.09484,-4.93305 0.73506,-11.27489 -0.49678,-8.75667 -0.0726,-10.81892 2.48621,-12.08707 1.53128,-0.7589 3.47618,-0.9425 4.40038,-0.41539 0.35986,0.20525 0.91649,0.49224 1.23694,0.63775 1.127,0.51178 1.52375,1.76096 1.46528,4.6135 -0.0294,1.43352 -0.1741,3.04086 -0.32159,3.57188 -0.1475,0.53101 -0.26979,1.56079 -0.27176,2.28839 -0.002,0.72761 -0.18123,2.74715 -0.39835,4.48786 -0.44149,3.5396 -0.50295,5.43402 -0.1763,5.43402 0.12015,0 0.50711,-0.30897 0.8599,-0.6866 0.74146,-0.79367 1.73293,-1.35376 2.71004,-1.53095 1.02313,-0.18553 2.61411,1.0932 3.4519,2.77443 0.80298,1.61138 0.8399,2.05986 0.31355,3.8088 -0.24614,0.81783 -0.29803,1.43477 -0.14478,1.72113 0.28538,0.53322 2.04338,1.21235 3.73192,1.44167 0.97443,0.13234 1.28221,0.30404 1.53346,0.8555 0.7228,1.58637 1.42671,11.25496 0.96915,13.31185 -0.32094,1.44273 -1.86384,4.5417 -3.3877,6.80432 -0.76278,1.13257 -2.94529,3.62398 -4.85002,5.53647 -3.57216,3.58669 -4.88212,4.4709 -7.59838,5.12885 -1.5419,0.37348 -7.65616,0.5408 -9.58146,0.26219 z m 8.8705,2.48465 c 3.19284,-0.44388 4.22721,-0.85119 7.13679,-2.81025 1.7543,-1.1812 5.42413,-4.67891 7.57504,-7.21977 5.52573,-6.52749 6.47417,-9.12404 5.77738,-15.81664 -0.59802,-5.74395 -1.70396,-8.89442 -3.81568,-10.86969 -0.68345,-0.63929 -1.48241,-1.23845 -1.77545,-1.33145 -0.74992,-0.23802 -1.06447,-0.99937 -1.5546,-3.76282 -0.23527,-1.32653 -0.61266,-2.96882 -0.95798,-3.38883 -0.72366,-0.8802 -2.28764,-1.60442 -3.25044,-1.96564 -0.86864,-0.32589 -1.50347,-0.83157 -1.48846,-4.48664 0.008,-1.8466 0.11268,-3.95947 0.23354,-4.69526 0.28529,-1.7368 0.13694,-4.16666 -0.31928,-5.22961 -1.12028,-2.61017 -3.54661,-4.62828 -5.85034,-4.86604 -1.68649,-0.17406 -4.32617,0.2905 -5.63423,0.99158 -2.18432,1.17072 -4.19512,4.31566 -4.90002,7.66375 -0.17801,0.84549 -0.30943,3.9332 -0.31366,7.36945 -0.007,5.87929 -0.011,5.9172 -0.62712,6.41614 -0.40639,0.32908 -1.0425,0.50371 -1.84728,0.50715 -1.66586,0.007 -4.62023,0.4412 -6.38684,0.93842 -3.37762,0.95065 -5.91193,2.80469 -7.07254,5.17408 -2.21726,4.52656 -2.85766,7.99248 -2.82947,15.31351 0.0244,6.32711 0.39204,8.40196 2.08644,11.77396 1.01426,2.01847 1.49259,2.63735 3.13968,4.0623 1.76007,1.52268 4.55771,3.38787 6.26811,4.17895 2.90689,1.34448 3.57647,1.55489 6.60986,2.07707 2.77637,0.47795 6.24856,0.46954 9.79655,-0.0237 z"
       sodipodi:insensitive="true" />
    <path
       style="display:inline;fill:none;stroke:#000000;stroke-width:0.1;stroke-dasharray:none;stroke-opacity:1"
       d="m -76.64463,221.52327 c 1.55515,-0.35748 1.5729,-0.3697 3.97281,-2.7364 1.46697,-1.44667 2.12552,-2.36414 3.00851,-4.1914 2.13689,-4.42208 2.51513,-7.59625 1.32916,-11.15441 -1.12907,-3.3875 -3.44906,-6.09742 -6.56226,-7.66521 -2.39438,-1.20579 -3.52334,-1.43804 -5.03895,-1.03662 -1.97869,0.52407 -2.45578,0.77691 -4.42191,2.34337 -2.30901,1.83965 -3.53322,3.95031 -4.14839,7.15221 -0.58542,3.04707 -0.65723,4.15614 -0.43939,6.7859 0.15948,1.92531 0.36566,2.6885 1.16118,4.29812 1.664,3.36687 4.16507,5.64625 7.03261,6.40927 1.25601,0.3342 1.90175,0.30199 4.10663,-0.20483 z"
       id="path66741-2"
       inkscape:label="Eye R"
       sodipodi:nodetypes="ssssssssssss"
       sodipodi:insensitive="true" />
    <path
       style="display:inline;fill:none;stroke:#000000;stroke-width:0.1;stroke-dasharray:none;stroke-opacity:1"
       d="m -139.07838,216.89565 c 1.8443,-0.62842 3.08766,-1.39328 4.6866,-2.883 3.85467,-3.59137 4.94614,-6.16205 4.60087,-10.83617 -0.23963,-3.2441 -0.94675,-5.35772 -2.52272,-7.54063 -1.68798,-2.33805 -3.33669,-3.22935 -5.95459,-3.21908 -1.92096,0.007 -3.32883,0.48177 -3.7147,0.61397 -0.14566,0.0499 -2.23941,1.17424 -2.63665,1.5137 -0.18811,0.18606 -3.25182,2.8733 -4.36218,5.06016 -1.69111,3.33068 -2.01817,6.55718 -1.05425,10.40047 0.75969,3.02896 1.6783,4.61694 3.22093,5.56793 2.70646,1.66846 5.38026,2.12557 7.73669,1.32265 z"
       id="path66743-3"
       inkscape:label="Eye L"
       sodipodi:nodetypes="sssscscssss"
       sodipodi:insensitive="true" />
    <path
       id="path4871"
       style="display:inline;fill:none;fill-opacity:1;stroke:#000000;stroke-width:0.1;stroke-dasharray:none;stroke-opacity:1"
       inkscape:label="Contour MERDE"
       d="m -23.969325,284.18225 c -0.301748,0.1954 -0.648695,0.43804 -0.900203,0.58756 -1.152639,0.68523 -2.640933,1.57463 -3.307292,1.97611 -0.33318,0.20073 -0.740138,0.43007 -1.12758,0.63768 -0.387442,0.20762 -0.755098,0.39321 -1.009757,0.50747 -0.50933,0.22852 -1.640423,0.75467 -2.513542,1.16892 -0.733674,0.34808 -1.546027,0.72034 -2.356962,1.08314 -0.810935,0.36279 -1.620585,0.71609 -2.349211,1.02577 -0.728626,0.30969 -1.376188,0.57606 -1.862935,0.76481 -0.486747,0.18876 -0.812839,0.29973 -0.898136,0.29973 -0.09302,0 -0.177438,0.0253 -0.238746,0.0656 -0.03065,0.0202 -0.05569,0.0442 -0.07286,0.0708 -0.01718,0.0266 -0.02636,0.0557 -0.02636,0.0863 0,0.0306 -0.03178,0.0696 -0.08888,0.11317 -0.0571,0.0436 -0.139423,0.0917 -0.241329,0.14211 -0.203812,0.10083 -0.485037,0.20955 -0.794266,0.30128 -0.309235,0.0917 -0.917671,0.30197 -1.648995,0.56689 -0.731325,0.26492 -1.585537,0.5843 -2.385901,0.89452 -0.695186,0.26945 -1.486061,0.56431 -2.347661,0.87643 -0.8616,0.31212 -1.793959,0.64152 -2.77244,0.9803 -1.956962,0.67756 -4.098176,1.39244 -6.22546,2.0805 -2.127284,0.68805 -4.240922,1.34939 -6.142261,1.91977 -0.950669,0.2852 -1.848171,0.54755 -2.668054,0.77929 -0.819883,0.23174 -1.561853,0.43304 -2.201416,0.59531 -0.755882,0.19178 -1.434322,0.3561 -2.090312,0.50333 -0.655989,0.14723 -1.28982,0.27707 -1.955436,0.39997 -0.665615,0.1229 -1.36343,0.23881 -2.148189,0.3576 -0.78476,0.11879 -1.656183,0.24079 -2.669605,0.37569 -1.164168,0.15497 -2.771505,0.40192 -3.571875,0.54932 -0.371414,0.0684 -0.963563,0.14586 -1.716691,0.22738 -0.753127,0.0815 -1.667382,0.16745 -2.683557,0.25218 -1.016175,0.0847 -2.134332,0.16844 -3.294889,0.24649 -1.160557,0.0781 -2.363381,0.1504 -3.549654,0.21188 -1.242789,0.0901 -2.134716,0.13939 -4.498434,0.30231 v 5.1e-4 l -13.626006,0.18552 c -3.03059,0.0412 -5.53451,0.0538 -7.72046,0.0388 -1.09297,-0.008 -2.10611,-0.0218 -3.06647,-0.0429 -0.96037,-0.0211 -1.86753,-0.049 -2.74764,-0.0832 -1.76022,-0.0684 -3.41269,-0.16271 -5.16609,-0.28164 -1.75341,-0.11893 -3.6078,-0.26236 -5.77329,-0.42891 -0.87313,-0.0672 -2.42094,-0.23631 -3.43959,-0.37569 -0.50932,-0.0697 -1.19548,-0.15022 -1.89084,-0.22428 -0.69536,-0.0741 -1.39991,-0.1418 -1.94562,-0.18448 -0.5457,-0.0427 -1.14628,-0.1059 -1.6738,-0.17363 -0.52751,-0.0677 -0.98195,-0.13991 -1.23661,-0.19999 -0.25466,-0.0601 -0.75396,-0.14984 -1.35341,-0.2465 -0.59945,-0.0967 -1.29905,-0.20023 -1.95388,-0.2868 -0.62167,-0.0822 -1.17443,-0.16069 -1.68827,-0.24185 -0.51385,-0.0812 -0.98904,-0.16472 -1.45573,-0.25683 -0.46668,-0.0921 -0.92491,-0.19297 -1.40508,-0.30799 -0.48017,-0.11503 -0.98203,-0.24438 -1.53634,-0.39429 -0.7276,-0.19679 -2.51354,-0.62141 -3.96875,-0.94362 -0.74749,-0.16551 -1.5009,-0.34868 -2.23656,-0.5426 -0.73565,-0.19391 -1.45376,-0.39842 -2.1301,-0.60616 -0.67634,-0.20774 -1.31097,-0.41883 -1.88051,-0.6258 -0.56953,-0.20698 -1.07406,-0.40989 -1.48931,-0.60152 -0.30844,-0.14233 -0.60685,-0.27154 -0.83923,-0.36535 -0.23238,-0.0938 -0.39872,-0.15245 -0.44286,-0.15245 -0.0442,0 -0.4248,-0.1636 -1.00253,-0.42736 -0.57772,-0.26376 -1.35246,-0.62766 -2.18487,-1.02784 -0.15826,-0.0748 -0.24761,-0.1239 -0.39636,-0.19534 l -18.87172,29.0959 c 0,0 -0.86671,1.73775 -0.94981,3.34036 -0.0674,1.30032 -0.48258,1.60211 0.21911,2.77761 0.91082,1.52581 1.51217,2.67882 2.84892,3.16932 57.87725,21.237 94.046511,27.4198 173.984172,-4.15065 0.49177,-0.19422 1.802249,-1.2443 2.822569,-2.84273 1.0090873,-1.58077 0.9979543,-3.00408 1.0898542,-4.04058 0.1441799,-1.62665 -1.1650502,-4.46541 -1.5074002,-5.60947 -0.48847,-1.63423 -12.395248,-32.08285 -13.026598,-33.69717 z"
       transform="translate(1.0208333e-6)" />
    <path
       id="path4865"
       style="display:inline;fill:none;fill-opacity:1;stroke:#000000;stroke-width:0.1;stroke-dasharray:none;stroke-opacity:1"
       inkscape:label="Contour JEVOUS anneau"
       d="m -45.746433,-132.14623 c -8.402191,0 -15.213536,6.6929 -15.213536,14.94896 0.002,0.42889 0.0222,0.85752 0.0615,1.28468 -13.07076,-1.34721 -28.94145,-3.79927 -49.751981,-7.70806 0,0 -6.37485,-0.187 -6.66729,4.96197 -0.0883,1.55484 0.0999,3.75767 0.2806,5.9862 0.10389,1.28063 0.0938,3.03284 0.11989,4.99401 0.0184,1.38459 0.0563,2.93356 -0.91468,3.80442 -1.0969,0.98379 -2.97793,0.12141 -4.38422,0.5612 -1.06549,0.33323 -2.15672,0.7814 -2.97243,1.54358 -2.2384,2.091494 -1.87431,5.600145 -1.87431,5.600145 l -0.0656,14.761373 c 0.44803,0.05315 0.25404,0.07636 0.48111,-0.04393 0.17978,-0.214577 0.37206,-0.418135 0.57723,-0.611333 0.20516,-0.193197 0.42302,-0.376212 0.65422,-0.548803 0.2312,-0.172591 0.47593,-0.335068 0.73381,-0.487826 0.25788,-0.152757 0.52921,-0.295734 0.81442,-0.429431 0.28521,-0.133697 0.58392,-0.258211 0.8971,-0.373621 0.31319,-0.115409 0.64056,-0.221466 0.98237,-0.31936 0.34181,-0.09789 0.6981,-0.187565 1.06918,-0.268717 0.37109,-0.08115 0.75707,-0.153925 1.15807,-0.219109 0.35399,-0.05754 0.71601,-0.104817 1.09141,-0.141593 0.3754,-0.03678 0.7642,-0.06315 1.1715,-0.07855 0.40731,-0.0154 0.83342,-0.02002 1.28313,-0.01344 0.44971,0.0066 0.92313,0.02457 1.42575,0.05374 0.50263,0.02918 1.03439,0.06958 1.60042,0.121956 0.56603,0.05238 1.16615,0.116559 1.80609,0.192753 1.27988,0.152388 2.71834,0.3528 4.35684,0.604097 1.81901,0.27898 4.55745,0.684214 6.08542,0.900204 2.171631,0.306985 5.109291,0.75876 7.796401,1.191658 1.34356,0.21645 2.62442,0.427935 3.71554,0.614433 1.09111,0.186499 1.99264,0.347943 2.5771,0.463538 0.69123,0.13671 1.83465,0.357546 2.54093,0.490926 0.70627,0.13338 2.04574,0.428427 2.97657,0.655257 1.42492,0.347232 2.83491,0.663397 4.1925,0.942061 1.3576,0.278665 2.66256,0.519989 3.87729,0.717786 0.60736,0.0989 1.19228,0.186658 1.74976,0.263033 0.55749,0.07638 1.08779,0.140956 1.58595,0.19327 0.49817,0.05231 0.96431,0.09214 1.39371,0.118856 0.42941,0.02672 0.82186,0.04073 1.17306,0.04031 0.44674,-5e-4 0.8693,-0.01086 1.35496,-0.03979 0.48565,-0.02893 1.03432,-0.07691 1.73477,-0.153479 0.70046,-0.07658 1.55261,-0.18161 2.64377,-0.325045 1.09115,-0.143435 2.42159,-0.324979 4.079336,-0.554488 0.47294,-0.06548 1.468439,-0.17094 2.691309,-0.288355 1.22287,-0.117415 2.673122,-0.246998 4.055566,-0.359668 0.885927,-0.0722 1.719947,-0.131386 2.519743,-0.176733 0.799796,-0.04535 1.565048,-0.07679 2.313554,-0.09302 0.748506,-0.01622 1.48021,-0.01723 2.212268,-0.0021 0.732057,0.01517 1.464919,0.04678 2.215368,0.0956 0.75045,0.04882 1.518657,0.114722 2.322339,0.199471 0.803683,0.08475 1.642456,0.188152 2.534213,0.311092 0.891756,0.12294 1.836317,0.265516 2.850988,0.428914 1.014672,0.163398 2.099724,0.347849 3.272152,0.553971 0.35854,0.06303 0.766213,0.118026 1.211812,0.165365 0.4456,0.04734 0.929051,0.08671 1.438672,0.118339 0.509622,0.03163 1.04568,0.05539 1.596285,0.07131 0.550606,0.01592 1.115584,0.02409 1.684135,0.02429 0.568552,1.94e-4 1.140312,-0.0077 1.703772,-0.02325 0.56346,-0.01554 1.118832,-0.03848 1.654163,-0.06976 0.53533,-0.03129 1.050626,-0.07078 1.53479,-0.117822 0.484163,-0.04704 0.937246,-0.102041 1.347204,-0.164848 0.812835,-0.124428 1.479456,-0.230144 2.089795,-0.336414 0.610339,-0.106269 1.164327,-0.21281 1.750798,-0.339514 0.58647,-0.126704 1.205422,-0.273157 1.946651,-0.458887 0.741229,-0.185729 1.604809,-0.410667 2.6794233,-0.694014 4.8285398,-1.273149 8.5962848,-2.248106 11.4173908,-2.952791 1.410553,-0.352343 2.584205,-0.636911 3.535701,-0.857829 0.951497,-0.220919 1.680959,-0.378284 2.201933,-0.474907 1.085749,-0.201364 1.93763,-0.357263 2.6654703,-0.483174 0.7278406,-0.125912 1.3313066,-0.221594 1.9192626,-0.301791 0.587957,-0.0802 1.160666,-0.145069 1.826762,-0.209289 0.666097,-0.06422 1.425707,-0.12769 2.387968,-0.205672 0.533707,-0.04325 1.051674,-0.07812 1.55391,-0.10387 0.502237,-0.02575 0.98881,-0.04267 1.460376,-0.05064 0.471567,-0.008 0.927731,-0.007 1.369426,0.0031 0.441695,0.01008 0.868953,0.02947 1.281575,0.05788 0.412623,0.02841 0.810926,0.06616 1.195276,0.113172 0.38435,0.04701 0.754684,0.103094 1.11156,0.168982 0.356877,0.06589 0.700226,0.141304 1.030428,0.226342 0.330203,0.08504 0.647035,0.179758 0.951364,0.284221 0.304328,0.104462 0.596145,0.218969 0.875398,0.343131 0.279253,0.124162 0.546008,0.257908 0.800985,0.402043 0.254977,0.144135 0.498171,0.298638 0.729671,0.463021 0.231501,0.164383 0.451602,0.338577 0.660425,0.523482 0.208823,0.184905 0.4063,0.380309 0.593245,0.586011 0.186946,0.205702 0.3633,0.421766 0.529167,0.648539 0.582311,0.26051 0.308363,0.204333 0.845942,0.375688 0.0666,-17.493874 0.0566,-19.739987 0.122473,-31.189797 0.004,-0.70534 0.0444,-2.24907 -0.186551,-3.33985 -0.2135,-1.00824 -0.575514,-2.00083 -1.093474,-2.89181 -0.375429,-0.6458 -0.8565,-1.24661 -1.42937,-1.726 -0.570589,-0.47747 -1.258371,-0.80815 -1.94355,-1.09812 -0.6223,-0.26336 -1.276255,-0.47283 -1.944585,-0.57257 -1.019339,-0.15214 -3.099801,-0.0445 -3.091801,-0.0305 -21.74697809,3.57931 -35.679731,6.53246 -52.203015,7.17734 0.14217,-0.81706 0.214948,-1.64433 0.217558,-2.47324 0,-8.25606 -6.81135,-14.94896 -15.213542,-14.94896 z m 0,7.21197 c 4.348616,9e-5 7.873838,3.46401 7.873938,7.73699 -0.002,0.73883 -0.111081,1.4727 -0.324011,2.17971 l -15.253849,-0.60151 c -0.11152,-0.51864 -0.169062,-1.04742 -0.170532,-1.5782 1e-4,-4.27317 3.525659,-7.73718 7.874454,-7.73699 z"
       sodipodi:nodetypes="scccsssssscccsssssssssssssssssssssssssssssssssssssssssssssssscssssssssssssssssssssssssccsssssscccsscccccc"
       transform="translate(-54.21459,230.70731)" />
    <path
       id="rect179804"
       style="display:inline;fill:none;fill-opacity:1;stroke:#000000;stroke-width:0.1;stroke-dasharray:none;stroke-opacity:1"
       d="m -186.7884,236.68253 c 0.035,0.26814 0.10971,0.50976 0.24467,0.61131 0.16483,0.12404 3.83618,-0.20707 11.62025,-0.55269 1.96454,-0.0872 3.63137,-0.25002 3.70417,-0.36173 0.0728,-0.1117 1.50151,-0.27336 3.175,-0.35916 5.5263,-0.28322 6.99624,-0.44033 8.44082,-0.90175 1.16585,-0.37239 1.4951,-0.6135 1.78594,-1.30793 0.48762,-1.1643 0.44728,-2.28682 -0.10645,-2.96158 -0.45592,-0.55558 -0.52794,-0.55984 -4.69636,-0.28267 -7.45664,0.49581 -11.29666,0.7657 -14.68437,1.03198 -7.07724,0.55629 -8.16048,0.56651 -8.93068,0.57179 -0.14279,0.0665 -0.26949,0.14167 -0.38542,0.38043 -0.19968,0.69282 -0.20693,2.72228 -0.16757,4.132 z"
       sodipodi:nodetypes="cssscsssssccc"
       inkscape:label="Wisker L 2"
       sodipodi:insensitive="true" />
    <path
       id="rect179798"
       style="fill:none;fill-opacity:1;stroke:#000000;stroke-width:0.1;stroke-dasharray:none;stroke-opacity:1"
       d="m -181.50045,210.53145 c -0.20994,0.9981 -0.22147,1.7067 -0.0471,2.35135 0.33018,0.5689 1.23632,0.83919 1.77682,1.04321 0.60831,0.41799 1.22204,0.76016 1.36374,0.76016 0.1417,0 0.9768,0.40623 1.85622,0.9033 0.87942,0.49708 1.87354,0.98723 2.20865,1.08882 0.3351,0.1016 0.96645,0.39905 1.40301,0.66094 0.43656,0.2619 1.80578,1.00379 3.04271,1.649 1.23693,0.64521 2.72521,1.4491 3.30729,1.78594 0.58208,0.33684 2.12991,1.23427 3.43959,1.99471 1.30969,0.76043 2.83291,1.46218 3.38532,1.55908 0.90306,0.15847 1.09655,0.0838 1.91823,-0.73794 0.57814,-0.57814 0.91416,-1.16908 0.91416,-1.60869 0,-0.97007 -1.8415,-2.72492 -3.97082,-3.78427 -0.94476,-0.47011 -3.3846,-1.8875 -5.42189,-3.14968 -2.03729,-1.26216 -4.35901,-2.59265 -5.15938,-2.9564 -0.80036,-0.36375 -1.75286,-0.86745 -2.11666,-1.11932 -0.36381,-0.25186 -1.4949,-0.90519 -2.51355,-1.4521 -1.01862,-0.54691 -2.38786,-1.36295 -3.0427,-1.81333 -1.89521,0.0794 -1.78261,0.94655 -2.34364,2.82522 z"
       sodipodi:nodetypes="cccssssssscsscsssscc"
       inkscape:label="Wisker L 1"
       sodipodi:insensitive="true" />
  </g>
</svg>
