<?xml version="1.0" encoding="UTF-8" standalone="no"?>
<!-- Created with Inkscape (http://www.inkscape.org/) -->

<svg
   width="210mm"
   height="297mm"
   viewBox="0 0 210 297"
   version="1.1"
   id="svg4330"
   inkscape:version="1.2 (dc2aedaf03, 2022-05-15)"
   sodipodi:docname="freecad_letters_small.svg"
   xmlns:inkscape="http://www.inkscape.org/namespaces/inkscape"
   xmlns:sodipodi="http://sodipodi.sourceforge.net/DTD/sodipodi-0.dtd"
   xmlns="http://www.w3.org/2000/svg"
   xmlns:svg="http://www.w3.org/2000/svg">
  <sodipodi:namedview
     id="namedview4332"
     pagecolor="#505050"
     bordercolor="#eeeeee"
     borderopacity="1"
     inkscape:showpageshadow="0"
     inkscape:pageopacity="0"
     inkscape:pagecheckerboard="0"
     inkscape:deskcolor="#505050"
     inkscape:document-units="mm"
     showgrid="false"
     inkscape:zoom="1.0998546"
     inkscape:cx="265.94424"
     inkscape:cy="644.63066"
     inkscape:window-width="1920"
     inkscape:window-height="1027"
     inkscape:window-x="-8"
     inkscape:window-y="-8"
     inkscape:window-maximized="1"
     inkscape:current-layer="layer1" />
  <defs
     id="defs4327" />
  <g
     inkscape:label="Layer 1"
     inkscape:groupmode="layer"
     id="layer1">
    <path
       id="path8378-6"
       style="font-size:12px;font-family:HAPPINESS;-inkscape-font-specification:'HAPPINESS, Normal';white-space:pre;display:inline;fill:none;stroke:#000000;stroke-width:0.0529165"
       inkscape:label="J"
       d="m 93.693482,175.53131 c 1.0233,0 1.80825,0.35699 2.396,0.94378 0.58692,0.58597 0.96393,1.41288 1.05805,2.32757 -1.8e-5,0.002 -1.8e-5,0.005 0,0.007 0.50366,4.50897 1.045,8.99354 1.00345,13.45525 -0.0419,4.11023 -0.15833,8.56679 -2.70314,11.83553 -2.5055,3.23224 -6.85242,4.76403 -10.77857,3.00352 -2.06198,-0.91727 -3.11153,-2.30547 -3.63152,-3.99194 -0.51936,-1.6843 -0.46428,-3.66973 -0.15693,-5.62443 v -0.007 c 0.13631,-0.81365 0.75153,-1.46378 1.59047,-1.86843 0.84083,-0.40552 1.88591,-0.52742 2.67589,-0.31885 0.0023,1e-5 0.0047,1e-5 0.007,0 1.03256,0.25835 1.68211,0.79547 2.07516,1.50495 0.39235,0.70803 0.50835,1.61448 0.35499,2.56351 -0.0867,0.45263 -0.13002,0.94669 -0.0888,1.45393 v 0.032 c 2.1e-4,0.002 -1.7e-4,0.004 0,0.006 0.003,0.2096 0.148452,0.39419 0.3618,0.45914 l 0.0409,0.0127 c 0.01574,0.005 0.03173,0.009 0.0479,0.0127 0.39133,0.0812 0.73888,-0.0526 0.97615,-0.19129 0.23172,-0.13521 0.40542,-0.29937 0.53925,-0.44639 v -0.007 c 1.57429,-1.65298 1.58229,-4.06975 1.66561,-5.89863 0.21145,-5.41483 -0.34775,-10.77094 -0.93519,-16.10167 1.8e-5,-0.002 1.8e-5,-0.005 0,-0.007 -0.10136,-0.81872 0.30057,-1.59047 0.98979,-2.18727 0.68743,-0.5954 1.65733,-0.96929 2.51203,-0.96929 z"
       sodipodi:nodetypes="cscccccsccsccccccccccccccccccc" />
    <path
       id="path20428-9"
       style="font-size:24px;font-family:HAPPINESS;-inkscape-font-specification:'HAPPINESS, Normal';white-space:pre;display:inline;fill:none;stroke:#000000;stroke-width:0.0237745"
       inkscape:label="M"
       transform="matrix(2.1363392,0,0,2.3189468,-1881.8004,-2029.5317)"
       d="m 942.04688,953.09766 c 0.52409,0.13127 0.9183,0.46694 1.07226,1.16601 l 0.82422,3.91992 c 0.0818,0.38922 0.56316,0.53185 0.84375,0.25 l 0.0137,-0.0137 c 1.18254,-1.08396 2.40341,-2.12815 3.67578,-3.11133 0.55963,-0.41534 1.39747,-0.57084 2.04102,-0.41015 6.7e-4,0 0.001,0 0.002,0 0.36378,0.0914 0.6464,0.26254 0.82617,0.49218 0.18131,0.2316 0.285,0.52867 0.23633,1.00196 -0.38926,3.77141 -0.63095,7.55603 -0.7207,11.32812 -6e-5,0.005 -6e-5,0.009 0,0.0137 7.9e-4,0.1945 -0.0276,0.35236 -0.0781,0.52343 -0.15136,0.51286 -0.48211,0.84612 -0.91406,1.04883 -0.43101,0.20228 -0.96436,0.24986 -1.42383,0.13477 -0.72958,-0.18276 -1.22329,-0.60022 -1.20117,-1.57227 0,-6.7e-4 0,-0.001 0,-0.002 0.0371,-1.97085 0.12744,-3.95353 0.26367,-5.92578 10e-6,-0.001 10e-6,-0.003 0,-0.004 l 0.004,-0.0606 c 0.0274,-0.45326 -0.51471,-0.70551 -0.84375,-0.39257 l -0.043,0.041 c -0.002,0.002 -0.004,0.004 -0.006,0.006 -0.81094,0.79773 -1.59819,1.60296 -2.37109,2.4375 -6.7e-4,0.001 -0.001,0.003 -0.002,0.004 -0.44508,0.48963 -1.09791,0.6096 -1.70703,0.45703 -0.62603,-0.15681 -1.13057,-0.59363 -1.26367,-1.19141 v 0.006 l -0.64453,-3.04492 c -0.0919,-0.42672 -0.64804,-0.53917 -0.89844,-0.18164 l -0.0312,0.0449 c -1.1682,1.67715 -2.32088,3.38347 -3.42773,5.10352 -6.7e-4,6.6e-4 -0.001,0.001 -0.002,0.002 -0.52887,0.82531 -1.31224,0.99551 -2.0039,0.82226 -0.4617,-0.11565 -0.88542,-0.3986 -1.14063,-0.7539 -0.25556,-0.3558 -0.35739,-0.75726 -0.21484,-1.24024 0.0485,-0.16439 0.13732,-0.34175 0.25781,-0.52929 v -0.002 c 2.09776,-3.24322 4.29973,-6.41031 6.62305,-9.49609 6.7e-4,-0.001 0.001,-0.003 0.002,-0.004 0.53532,-0.72753 1.50744,-1.05369 2.25196,-0.86718 z"
       sodipodi:nodetypes="ccccccccsccccssscccccccccscccccccssscccccc" />
  </g>
</svg>
