<?xml version="1.0" encoding="UTF-8" standalone="no"?>
<!-- Created with Inkscape (http://www.inkscape.org/) -->

<svg
   width="210mm"
   height="297mm"
   viewBox="0 0 210 297"
   version="1.1"
   id="svg7348"
   inkscape:version="1.2 (dc2aedaf03, 2022-05-15)"
   sodipodi:docname="freecad_letters.svg"
   xmlns:inkscape="http://www.inkscape.org/namespaces/inkscape"
   xmlns:sodipodi="http://sodipodi.sourceforge.net/DTD/sodipodi-0.dtd"
   xmlns="http://www.w3.org/2000/svg"
   xmlns:svg="http://www.w3.org/2000/svg">
  <sodipodi:namedview
     id="namedview7350"
     pagecolor="#505050"
     bordercolor="#eeeeee"
     borderopacity="1"
     inkscape:showpageshadow="0"
     inkscape:pageopacity="0"
     inkscape:pagecheckerboard="0"
     inkscape:deskcolor="#505050"
     inkscape:document-units="mm"
     showgrid="false"
     inkscape:zoom="0.75455247"
     inkscape:cx="240.53993"
     inkscape:cy="561.92249"
     inkscape:window-width="1920"
     inkscape:window-height="1027"
     inkscape:window-x="-8"
     inkscape:window-y="-8"
     inkscape:window-maximized="1"
     inkscape:current-layer="layer4" />
  <defs
     id="defs7345" />
  <g
     inkscape:label="Layer 1"
     inkscape:groupmode="layer"
     id="layer1">
    <g
       inkscape:groupmode="layer"
       id="layer4"
       inkscape:label="JEVOUSMERDE"
       style="display:inline;fill:none;stroke:#000000;stroke-opacity:1"
       transform="translate(182.78871,0.90183251)">
      <g
         aria-label="JeVous"
         transform="matrix(3.4950067,0,0,3.2649718,-3632.2532,-17.392245)"
         id="text113023-3"
         style="font-size:12px;font-family:HAPPINESS;-inkscape-font-specification:'HAPPINESS, Normal';white-space:pre;display:inline;fill:none;stroke:#000000;stroke-width:0;stroke-dasharray:none;stroke-opacity:1"
         inkscape:label="JEVOUS">
        <path
           style="color:#000000;-inkscape-font-specification:'HAPPINESS, Normal';fill:none;stroke:#000000;stroke-width:0.0156649;stroke-dasharray:none;stroke-opacity:1"
           d="m 998.35742,13.835902 c -0.29843,0 -0.61069,0.133243 -0.83984,0.345703 -0.22916,0.212461 -0.37648,0.504771 -0.33985,0.822266 0.168,1.631927 0.32363,3.263543 0.26368,4.90625 -0.024,0.564307 -0.0367,1.254983 -0.42774,1.693359 v 0.002 c -0.0293,0.03513 -0.0712,0.07475 -0.11719,0.103516 -0.0422,0.02639 -0.0878,0.0372 -0.13281,0.03125 -0.009,-0.136386 6.3e-4,-0.272965 0.0234,-0.398438 v -0.002 c 0.0484,-0.320492 0.0127,-0.634176 -0.12109,-0.892578 -0.13377,-0.258401 -0.36546,-0.45981 -0.70508,-0.550781 -0.28043,-0.07925 -0.6173,-0.03477 -0.89649,0.109375 -0.27918,0.144144 -0.50192,0.389472 -0.55078,0.707031 -0.0902,0.613118 -0.11109,1.243617 0.0488,1.798828 0.15992,0.555211 0.50312,1.034222 1.13672,1.335938 1.20689,0.579306 2.54712,0.07229 3.30664,-0.976563 0.77158,-1.060927 0.79464,-2.468433 0.80664,-3.728515 0.012,-1.3812 -0.14507,-2.762664 -0.28906,-4.142578 -0.0303,-0.314879 -0.15055,-0.605625 -0.34961,-0.81836 -0.19906,-0.212734 -0.47653,-0.345703 -0.81641,-0.345703 z m 0,0.0293 c 0.33212,0 0.60098,0.130625 0.79492,0.337891 0.19394,0.207265 0.31208,0.491661 0.3418,0.800781 0.14401,1.380083 0.30105,2.759874 0.28906,4.138672 -0.012,1.259915 -0.0383,2.659867 -0.80273,3.710937 -0.75248,1.039143 -2.07642,1.53949 -3.26953,0.966797 -0.6264,-0.298284 -0.96107,-0.767618 -1.11914,-1.316406 -0.15808,-0.548788 -0.13867,-1.176229 -0.0488,-1.78711 0.0471,-0.306439 0.26234,-0.542737 0.53515,-0.683593 0.27282,-0.140856 0.60344,-0.186123 0.875,-0.109375 0.33238,0.08903 0.55727,0.285511 0.6875,0.537109 0.13024,0.251598 0.16482,0.559493 0.11719,0.875 -0.0242,0.13301 -0.0356,0.278201 -0.0234,0.423828 v 0.0098 l 0.0117,0.0039 c 0.0591,0.01313 0.11605,-0.0078 0.16602,-0.03906 0.0492,-0.03072 0.0924,-0.07292 0.12305,-0.109375 0.40101,-0.449623 0.41351,-1.151152 0.4375,-1.714844 0.06,-1.64529 -0.0976,-3.278087 -0.26563,-4.910156 -0.0354,-0.306505 0.10623,-0.589336 0.33008,-0.796875 0.22385,-0.207539 0.53074,-0.337891 0.82031,-0.337891 z"
           id="path8378-6"
           inkscape:label="J" />
        <path
           style="color:#000000;-inkscape-font-specification:'HAPPINESS, Normal';fill:none;stroke:#000000;stroke-width:0.0156649;stroke-dasharray:none;stroke-opacity:1"
           d="m 1004.7402,15.581819 -2.7734,0.251953 c -0.4951,0.03683 -0.9191,0.316244 -1.0898,0.751953 -0.098,0.170636 -0.1465,0.377345 -0.1465,0.607422 0.072,1.991644 0.072,3.971188 0.012,5.962891 -0.012,0.621072 0.5464,1.192324 1.1797,1.167968 l 3.0957,-0.109375 c 0.3758,-0.01516 0.6602,-0.173599 0.8496,-0.402343 0.1894,-0.228745 0.2844,-0.526147 0.2851,-0.820313 8e-4,-0.294165 -0.092,-0.584901 -0.2812,-0.798828 -0.1894,-0.213927 -0.4767,-0.35109 -0.8555,-0.335937 l -1.8926,0.07227 c 0.011,-0.303244 0.014,-0.605316 0.014,-0.908203 0.3915,-0.04776 0.7705,-0.106528 1.1621,-0.177734 0.3172,-0.05489 0.5652,-0.272117 0.711,-0.546875 0.1457,-0.274758 0.1907,-0.608109 0.1054,-0.900391 -0.085,-0.327898 -0.2894,-0.562467 -0.5507,-0.699219 -0.2614,-0.136751 -0.5796,-0.175807 -0.8946,-0.115234 -0.198,0.03494 -0.3718,0.05869 -0.5469,0.08203 -6e-4,-0.194128 -0.011,-0.388949 -0.012,-0.582031 0.5472,-0.0476 1.0835,-0.09498 1.6309,-0.142578 0.6418,-0.06055 1.1777,-0.497982 1.1777,-1.177734 0,-0.298431 -0.1337,-0.608298 -0.3476,-0.835938 -0.214,-0.22764 -0.5088,-0.374245 -0.8321,-0.34375 z m 0,0.0293 c 0.3127,-0.02951 0.5996,0.111625 0.8086,0.333984 0.209,0.22236 0.3398,0.526837 0.3398,0.816407 0,0.664246 -0.5202,1.088989 -1.1504,1.148437 -0.552,0.048 -1.0925,0.09653 -1.6445,0.144531 h -0.014 v 0.01367 c 0,0.20458 0.012,0.409862 0.012,0.613281 v 0.01563 l 0.018,-0.002 c 0.18,-0.024 0.3601,-0.04792 0.5645,-0.08398 0.309,-0.05943 0.6203,-0.01997 0.875,0.113281 0.2546,0.133248 0.4521,0.359586 0.5351,0.679688 0.083,0.283718 0.039,0.610665 -0.1035,0.878906 -0.1422,0.268241 -0.3807,0.478145 -0.6875,0.53125 -0.3957,0.07196 -0.7801,0.131727 -1.1758,0.179687 l -0.014,0.002 v 0.01367 c 0,0.312 2e-4,0.621973 -0.012,0.933594 v 0.01758 l 1.9239,-0.07422 c 0.3712,-0.01485 0.6463,0.1186 0.8301,0.326172 0.1837,0.207573 0.2761,0.491463 0.2753,0.779297 -7e-4,0.287834 -0.095,0.578026 -0.2793,0.800781 -0.1844,0.222756 -0.4599,0.377734 -0.8281,0.392579 l -3.0957,0.109375 c -0.6141,0.02362 -1.1591,-0.534508 -1.1484,-1.136719 v -0.002 c 0.06,-1.991633 0.06,-3.973144 -0.012,-5.964844 3e-4,-0.225067 0.048,-0.426948 0.1425,-0.591797 v -0.002 c 0.1658,-0.426218 0.5813,-0.698732 1.0684,-0.734375 z"
           id="path8380-7"
           inkscape:label="E" />
        <path
           style="color:#000000;-inkscape-font-specification:'HAPPINESS, Normal';fill:none;stroke:#000000;stroke-width:0.0156649;stroke-dasharray:none;stroke-opacity:1"
           d="m 1007.8711,16.778625 c -0.2828,0.07657 -0.5336,0.240868 -0.6816,0.476562 -0.1481,0.235694 -0.1929,0.543857 -0.062,0.898438 0.876,2.412004 1.9079,4.776603 3.0839,7.05664 0.4017,0.779045 1.6295,0.75494 2.0313,0 1.2123,-2.220657 2.2443,-4.512412 3.1445,-6.876953 0.1099,-0.298991 0.045,-0.621633 -0.1172,-0.888672 -0.1623,-0.267039 -0.4226,-0.479392 -0.709,-0.558593 -0.3277,-0.09104 -0.6321,-0.03628 -0.8828,0.117187 -0.2507,0.153463 -0.4474,0.404335 -0.5625,0.707031 -0.548,1.45346 -1.1789,2.894415 -1.8574,4.289063 -0.6904,-1.466348 -1.3109,-2.954978 -1.8711,-4.46875 -0.1273,-0.351626 -0.3659,-0.578228 -0.6426,-0.697266 -0.2766,-0.119038 -0.5902,-0.131262 -0.873,-0.05469 z m 0.01,0.0293 c 0.2767,-0.07493 0.5838,-0.06335 0.8535,0.05273 0.2698,0.116087 0.5023,0.335314 0.627,0.679688 0.5641,1.524366 1.1885,3.025542 1.8847,4.501953 l 0.012,0.02734 0.014,-0.02734 c 0.6842,-1.404363 1.3209,-2.857779 1.8731,-4.322266 0.113,-0.297303 0.3065,-0.541869 0.5508,-0.691406 0.2443,-0.149537 0.5391,-0.204195 0.8593,-0.115235 0.2777,0.0768 0.5328,0.283962 0.6914,0.544922 0.1587,0.260961 0.2214,0.574273 0.1153,0.863282 -0.8998,2.363454 -1.931,4.655661 -3.1426,6.874999 -0.3902,0.733059 -1.5882,0.756954 -1.9785,0 -1.1757,-2.279428 -2.2082,-4.643279 -3.084,-7.054687 -0.1277,-0.347419 -0.085,-0.642913 0.059,-0.871094 0.1433,-0.22818 0.3893,-0.387965 0.666,-0.46289 z"
           id="path8382-5"
           inkscape:label="V" />
        <path
           style="color:#000000;-inkscape-font-specification:'HAPPINESS, Normal';fill:none;stroke:#000000;stroke-width:0.0156649;stroke-dasharray:none;stroke-opacity:1"
           d="m 1019.8203,16.614668 c -2.0696,0.613659 -3.382,2.335503 -3.5625,4.464844 -0.084,1.02444 0.2765,2.288454 0.9883,3.060547 0.7959,0.856152 1.8806,1.036812 2.998,1.048828 1.2469,0 2.1376,-0.618818 2.7246,-1.503906 0.5871,-0.885088 0.874,-2.037212 0.9161,-3.107422 v 0 c 0.048,-1.095412 -0.275,-2.346269 -1.0469,-3.154297 -0.5321,-0.556321 -1.2819,-0.665005 -2.0039,-0.628906 l 0.01,0.0039 c -0.2554,-0.206764 -0.6093,-0.304839 -1.0215,-0.183594 z m 0.01,0.0293 c 0.4037,-0.118754 0.7455,-0.0235 0.9941,0.177735 v 0.002 h 0.01 c 0.718,-0.0359 1.4566,0.07146 1.9805,0.61914 0.7641,0.799971 1.0869,2.046181 1.039,3.134766 -0.042,1.065788 -0.3252,2.210934 -0.9082,3.089844 -0.5826,0.878406 -1.4632,1.489533 -2.6992,1.490234 -1.1145,-0.01198 -2.1904,-0.191216 -2.9785,-1.039062 -0.7042,-0.763906 -1.0641,-2.019599 -0.9805,-3.035157 0.1796,-2.118654 1.4846,-3.829113 3.543,-4.439453 z m 1.289,2.439453 c -0.064,-0.0087 -0.14,-0.0064 -0.2187,0.002 -0.1573,0.01664 -0.3227,0.0563 -0.4063,0.07422 -0.226,0.03568 -0.4507,0.0222 -0.6523,-0.03711 l -0.01,-0.002 -0.01,0.0039 c -0.6637,0.386149 -1.1235,1.037914 -1.2442,1.822266 -0.06,0.458863 -5e-4,1.036994 0.2422,1.4375 0.1338,0.218823 0.3091,0.338485 0.5098,0.402343 0.2007,0.06386 0.4276,0.07422 0.668,0.07422 0.2525,0 0.4605,-0.01464 0.6406,-0.08789 0.1801,-0.07325 0.3297,-0.205518 0.4629,-0.435546 0.253,-0.457892 0.4215,-1.000562 0.4336,-1.519532 0.024,-0.516387 0.039,-1.213963 -0.2774,-1.664062 -0.028,-0.04164 -0.082,-0.06161 -0.1465,-0.07031 z m 0,0.0293 c 0.06,0.0082 0.1048,0.02629 0.125,0.05664 0.3077,0.4379 0.2975,1.130873 0.2735,1.646484 v 0.002 c -0.012,0.51303 -0.1788,1.049799 -0.4297,1.503907 -0.1308,0.225971 -0.2753,0.353075 -0.4492,0.423828 -0.174,0.07075 -0.3775,0.08594 -0.6289,0.08594 -0.2397,0 -0.4649,-0.01012 -0.6602,-0.07227 -0.1953,-0.06214 -0.3619,-0.175496 -0.4922,-0.388672 -0.2373,-0.391494 -0.2979,-0.966786 -0.2383,-1.419922 0.1197,-0.773846 0.5721,-1.41711 1.2266,-1.798828 0.204,0.05841 0.4316,0.0729 0.6582,0.03711 v -0.002 c 0.084,-0.01809 0.2496,-0.05591 0.4043,-0.07227 0.077,-0.0082 0.1507,-0.01012 0.2109,-0.002 z"
           id="path8384-3"
           inkscape:label="O" />
        <path
           style="color:#000000;-inkscape-font-specification:'HAPPINESS, Normal';fill:none;stroke:#000000;stroke-width:0.0156649;stroke-dasharray:none;stroke-opacity:1"
           d="m 1025.9531,16.01133 c -0.2934,0 -0.5882,0.095 -0.8086,0.285156 -0.2204,0.190158 -0.3672,0.47666 -0.3672,0.855469 0.012,1.523452 -0.06,3.082173 0.061,4.607421 0.066,0.78251 0.3285,1.499743 0.7793,2.041016 0.4508,0.541274 1.0905,0.906031 1.9101,0.984375 0.7492,0.07854 1.4082,-0.249679 1.9219,-0.755859 0.5137,-0.50618 0.8839,-1.189729 1.0586,-1.822266 0.1928,-0.7108 0.1797,-1.492488 0.1797,-2.236328 0.012,-0.852138 0.011,-1.703113 0.023,-2.542969 0,-0.378808 -0.1468,-0.66531 -0.3671,-0.855468 -0.2204,-0.190159 -0.5133,-0.285157 -0.8067,-0.285157 -0.2934,0 -0.5867,0.09503 -0.8086,0.285157 -0.2219,0.190127 -0.372,0.47666 -0.375,0.855468 -0.012,1.008118 -0.011,2.026992 -0.023,3.046875 0,0.336088 0,0.774456 -0.092,1.154297 -0.095,0.379841 -0.2877,0.700225 -0.6778,0.8125 -0.053,0.01668 -0.095,0.0057 -0.1347,-0.02734 -0.04,-0.03301 -0.076,-0.08997 -0.1055,-0.164062 -0.06,-0.148186 -0.097,-0.364454 -0.1211,-0.591797 -0.048,-0.454685 -0.039,-0.953678 -0.039,-1.0625 -0.012,-1.151896 -0.012,-2.305209 -0.024,-3.445312 0,-0.378809 -0.1531,-0.663389 -0.375,-0.853516 -0.2219,-0.190127 -0.5151,-0.285156 -0.8086,-0.285156 z m 0,0.0293 c 0.2871,0 0.5733,0.09247 0.7891,0.277343 0.2157,0.184873 0.3603,0.462794 0.3633,0.833985 0.012,1.139894 0.013,2.291257 0.025,3.443359 0,0.107178 -0.01,0.609093 0.039,1.066406 0.024,0.228657 0.061,0.446295 0.1231,0.59961 0.031,0.07666 0.068,0.137725 0.1133,0.175781 0.045,0.03762 0.1017,0.0496 0.1621,0.03125 0.4019,-0.115724 0.6006,-0.448827 0.6972,-0.833985 0.097,-0.385157 0.094,-0.824244 0.094,-1.160156 0.012,-1.020115 0.013,-2.038995 0.025,-3.046875 0,-0.371191 0.1475,-0.647159 0.3632,-0.832031 0.2158,-0.184872 0.502,-0.279297 0.7891,-0.279297 0.2871,0 0.5748,0.09446 0.7891,0.279297 0.2142,0.184841 0.3554,0.460841 0.3554,0.832031 -0.012,0.840142 -0.011,1.691109 -0.023,2.542969 0,0.744158 0.012,1.523317 -0.1797,2.228516 -0.1733,0.627461 -0.5415,1.306775 -1.0508,1.808593 -0.5093,0.501819 -1.1576,0.825506 -1.8964,0.748047 -0.8124,-0.07766 -1.4445,-0.43693 -1.8907,-0.972656 -0.4462,-0.535726 -0.7076,-1.247902 -0.7734,-2.025391 -0.1199,-1.522748 -0.047,-3.082877 -0.059,-4.607421 6e-4,-0.370081 0.1417,-0.647557 0.3555,-0.832032 0.2142,-0.184841 0.502,-0.277344 0.789,-0.277343 z"
           id="path8386-5"
           inkscape:label="U" />
        <path
           style="color:#000000;-inkscape-font-specification:'HAPPINESS, Normal';fill:none;stroke:#000000;stroke-width:0.0156649;stroke-dasharray:none;stroke-opacity:1"
           d="m 1036.8555,14.74787 c -1.3818,-0.180227 -2.6597,-0.09559 -3.7676,0.84375 -0.5795,0.494982 -0.8189,1.166522 -0.8008,1.84375 0.018,0.677228 0.2921,1.360208 0.7383,1.884766 0.3387,0.399225 0.8564,0.664532 1.3125,0.892578 0.3983,0.193136 0.9831,0.34971 1.2422,0.714843 0.058,0.08394 0.058,0.145969 0.025,0.199219 -0.033,0.05325 -0.1004,0.09771 -0.1836,0.13086 -0.1665,0.0663 -0.3892,0.08984 -0.4766,0.08984 -0.5807,0 -1.168,-0.428071 -1.6367,-0.728515 -0.3182,-0.209082 -0.6306,-0.240929 -0.9004,-0.154297 -0.2698,0.08663 -0.4962,0.290913 -0.6426,0.544922 -0.1463,0.254008 -0.2144,0.558917 -0.166,0.853515 0.048,0.294598 0.2141,0.577105 0.5293,0.783203 1.1896,0.781064 2.5621,1.349213 3.9961,0.867188 1.4247,-0.470859 2.3414,-2.234046 1.5684,-3.623047 -0.6392,-1.133682 -1.7947,-1.43385 -2.8243,-2.068359 -0.1415,-0.08847 -0.223,-0.196458 -0.2343,-0.302735 -0.011,-0.106277 0.044,-0.214541 0.1855,-0.308593 v 0 c 0.5563,-0.378751 1.4161,-0.189627 2.0293,-0.105469 0.3234,0.03662 0.618,-0.113113 0.832,-0.34375 0.2139,-0.230637 0.3476,-0.543415 0.3477,-0.835938 0,-0.351742 -0.1334,-0.628585 -0.3477,-0.826171 -0.2143,-0.197587 -0.5076,-0.315273 -0.8281,-0.351563 z m 0,0.0293 c 0.3154,0.03571 0.6038,0.151336 0.8125,0.34375 0.2087,0.192413 0.3379,0.460431 0.3379,0.804687 0,0.283477 -0.1308,0.591044 -0.3399,0.816407 -0.209,0.225362 -0.4941,0.369364 -0.8066,0.333984 -0.6109,-0.08384 -1.4791,-0.279874 -2.0508,0.109375 -0.1469,0.09795 -0.2119,0.219168 -0.1992,0.337891 0.013,0.118722 0.1016,0.232691 0.248,0.324218 1.0344,0.63749 2.1817,0.936278 2.8145,2.058594 0.763,1.370997 -0.1435,3.112985 -1.5508,3.578125 -1.422,0.477974 -2.7863,-0.08239 -3.9727,-0.861328 -0.3088,-0.201901 -0.4684,-0.476646 -0.5156,-0.763672 -0.047,-0.287026 0.019,-0.587446 0.1621,-0.835937 0.1432,-0.248491 0.3634,-0.445305 0.625,-0.529297 0.2616,-0.08399 0.5651,-0.05648 0.877,0.148437 0.4673,0.299556 1.0571,0.734375 1.6523,0.734375 0.093,0 0.3138,-0.0231 0.4863,-0.0918 0.086,-0.03435 0.161,-0.07995 0.1993,-0.142578 0.038,-0.06262 0.037,-0.14236 -0.025,-0.232422 -0.2689,-0.378866 -0.8603,-0.533745 -1.2539,-0.724609 -0.4559,-0.227953 -0.9695,-0.491992 -1.3028,-0.884766 -0.4418,-0.519441 -0.7145,-1.197417 -0.7324,-1.867187 -0.018,-0.66977 0.2185,-1.331295 0.791,-1.820313 1.1001,-0.932655 2.3659,-1.01571 3.7442,-0.835937 z"
           id="path8388-6"
           inkscape:label="S" />
      </g>
      <g
         aria-label="MERDE"
         transform="matrix(2.1363392,0,0,2.3189468,-2156.009,-1989.9231)"
         id="text17129-2"
         style="font-size:24px;font-family:HAPPINESS;-inkscape-font-specification:'HAPPINESS, Normal';white-space:pre;display:inline;fill:none;stroke:#000000;stroke-width:0;stroke-dasharray:none;stroke-opacity:1"
         inkscape:label="MERDE">
        <path
           style="color:#000000;-inkscape-font-specification:'HAPPINESS, Normal';fill:none;stroke:#000000;stroke-width:0.0237745;stroke-dasharray:none;stroke-opacity:1"
           d="m 950.65284,954.36791 c -0.81787,-0.20486 -1.79607,-0.0255 -2.50361,0.50027 -1.27906,0.988 -2.50214,2.03953 -3.687,3.12452 l -0.8094,-3.84803 5.6e-4,-0.002 c -0.19289,-0.87597 -0.76983,-1.39915 -1.47213,-1.57507 -0.9827,-0.24615 -2.15656,0.16376 -2.82707,1.07502 -2.33207,3.09741 -4.53923,6.27493 -6.64379,9.52873 -0.13861,0.21541 -0.25454,0.43724 -0.32377,0.67184 -0.19003,0.64385 -0.0444,1.24209 0.29388,1.71309 0.33831,0.47098 0.86835,0.81662 1.45243,0.96292 0.88835,0.22252 1.94824,-0.0414 2.59919,-1.05723 1.09227,-1.6974 2.23055,-3.38428 3.38464,-5.04212 l 0.62364,2.94128 c 0.18389,0.82593 0.86902,1.39972 1.6635,1.59871 0.77064,0.19304 1.6474,0.0348 2.24348,-0.62007 l 5.7e-4,-0.002 c 0.75191,-0.81183 1.52187,-1.59593 2.31178,-2.374 -0.13451,1.96099 -0.22481,3.93233 -0.26176,5.89319 -0.0272,1.19654 0.70166,1.88606 1.61257,2.11423 0.58423,0.14637 1.23514,0.0889 1.78917,-0.17119 0.55404,-0.26002 1.01137,-0.72474 1.20814,-1.39149 0.062,-0.2101 0.10182,-0.42571 0.10069,-0.67712 0.0894,-3.75742 0.33155,-7.52664 0.71933,-11.28395 0.0603,-0.58679 -0.0812,-1.05058 -0.3512,-1.3955 -0.27001,-0.34492 -0.66833,-0.57018 -1.12379,-0.68427 z m -0.0132,0.0453 c 0.44775,0.11217 0.83738,0.33252 1.10019,0.66824 0.26281,0.33571 0.40002,0.78544 0.34068,1.3625 -0.38793,3.7585 -0.62911,7.52953 -0.71854,11.28819 10e-4,0.24658 -0.0382,0.45858 -0.0992,0.66534 -0.19282,0.65332 -0.63814,1.10696 -1.18118,1.36181 -0.54303,0.25485 -1.18384,0.31067 -1.75756,0.16696 -0.89549,-0.22431 -1.60603,-0.89189 -1.57923,-2.06945 0.0373,-1.97994 0.12794,-3.9712 0.2647,-5.95114 l 0.004,-0.0599 -0.0427,0.0419 c -0.80628,0.79315 -1.58928,1.59351 -2.35618,2.42157 -0.58246,0.64076 -1.43925,0.7952 -2.19667,0.60548 -0.78033,-0.19546 -1.45087,-0.75901 -1.6306,-1.5662 l -0.64538,-3.04589 -0.0315,0.0448 c -1.16541,1.67314 -2.31435,3.37684 -3.41719,5.09065 -0.64001,0.99874 -1.67463,1.2544 -2.54638,1.03605 -0.57387,-0.14375 -1.09537,-0.48483 -1.42693,-0.94643 -0.33155,-0.46159 -0.47342,-1.04313 -0.2875,-1.67304 0.0674,-0.22857 0.18099,-0.44612 0.318,-0.65911 2.10397,-3.2529 4.31004,-6.43092 6.64134,-9.52731 0.65839,-0.8948 1.81406,-1.2964 2.77672,-1.05525 0.68726,0.17214 1.24953,0.68116 1.43923,1.54254 l 0.82518,3.92484 0.0308,-0.0288 c 1.19295,-1.09351 2.42568,-2.15132 3.71363,-3.14618 0.69413,-0.51517 1.66002,-0.69336 2.46279,-0.49227 z"
           id="path20428-9"
           inkscape:label="M" />
        <path
           style="color:#000000;-inkscape-font-specification:'HAPPINESS, Normal';fill:none;stroke:#000000;stroke-width:0.0237745;stroke-dasharray:none;stroke-opacity:1"
           d="m 964.65539,955.8322 -5.55413,-0.40905 c -0.98768,-0.0896 -1.9294,0.32 -2.43173,1.12085 -4e-4,4.7e-4 10e-5,10e-4 -3.9e-4,0.002 -5.1e-4,8.1e-4 -0.002,6.7e-4 -0.002,0.002 -0.25527,0.30262 -0.42859,0.69029 -0.51661,1.14075 l -3.8e-4,0.002 c -0.6243,3.94394 -1.38419,7.84036 -2.2683,11.74131 -0.26204,1.21477 0.61474,2.51682 1.86669,2.67508 l 6.13477,0.79903 c 0.74405,0.0926 1.3637,-0.12793 1.82326,-0.51528 0.45954,-0.38736 0.75973,-0.9406 0.8741,-1.51807 0.11488,-0.57739 0.0424,-1.17896 -0.24713,-1.66035 -0.28958,-0.48138 -0.79785,-0.84173 -1.54774,-0.93536 l -3.75885,-0.47647 c 0.13991,-0.59687 0.2577,-1.19726 0.37495,-1.79731 0.79146,0.0341 1.565,0.0416 2.3658,0.0291 0.64198,-0.006 1.20996,-0.34863 1.60089,-0.83991 0.39154,-0.49201 0.60837,-1.13275 0.55314,-1.73402 -0.0411,-0.67149 -0.35154,-1.19809 -0.81213,-1.55161 -0.46059,-0.35353 -1.07059,-0.53456 -1.71261,-0.51817 -0.40475,0.004 -0.75902,-0.007 -1.11376,-0.018 0.0745,-0.38654 0.12865,-0.77617 0.20307,-1.16101 1.0975,0.0851 2.17106,0.16717 3.26881,0.25229 1.28422,0.09 2.50384,-0.59612 2.76464,-1.9309 0.11443,-0.58558 -0.0292,-1.23617 -0.36202,-1.75283 -0.33283,-0.51665 -0.85629,-0.90031 -1.50207,-0.94564 z m -0.005,0.0468 c 0.62913,0.0446 1.14182,0.41705 1.46855,0.92422 0.32672,0.50718 0.4663,1.14802 0.35457,1.71984 -0.25609,1.3107 -1.44764,1.98063 -2.71333,1.89178 -1.10504,-0.0857 -2.18574,-0.16626 -3.29072,-0.25196 l -0.0215,-0.002 -0.004,0.0192 c -0.0787,0.40246 -0.13414,0.80842 -0.21246,1.20906 l -0.005,0.0269 0.0258,-2.6e-4 c 0.36354,0.0115 0.7293,0.0236 1.14528,0.0192 0.63238,-0.0161 1.23171,0.16097 1.68297,0.5073 0.45124,0.34637 0.75434,0.8601 0.79469,1.51896 l -3.9e-4,0.002 c 0.0539,0.58733 -0.15825,1.21728 -0.54253,1.70007 -0.38418,0.48278 -0.93903,0.81753 -1.56563,0.82193 -0.80678,0.0124 -1.58414,0.005 -2.38155,-0.0298 l -0.0215,-0.002 -0.004,0.0212 c -0.12002,0.61414 -0.23939,1.22806 -0.38283,1.83769 l -0.007,0.0247 3.80881,0.48475 c 0.73794,0.0921 1.23146,0.44386 1.51423,0.91392 0.28276,0.47007 0.35402,1.06005 0.2416,1.62768 -0.1119,0.56771 -0.40883,1.1115 -0.85886,1.49083 -0.45002,0.37932 -1.05328,0.59486 -1.78526,0.50371 l -6.13479,-0.79902 c -1.22302,-0.15467 -2.08589,-1.4327 -1.82992,-2.61937 0.88431,-3.90185 1.64649,-7.79978 2.27101,-11.74482 0.087,-0.44556 0.25853,-0.82654 0.50901,-1.12217 l 3.8e-4,-0.002 0.002,-0.002 c 0.49158,-0.78709 1.41343,-1.18936 2.38803,-1.10031 l 0.002,3.2e-4 z"
           id="path20430-1"
           inkscape:label="E" />
        <path
           style="color:#000000;-inkscape-font-specification:'HAPPINESS, Normal';fill:none;stroke:#000000;stroke-width:0.0237745;stroke-dasharray:none;stroke-opacity:1"
           d="m 975.57898,955.11821 c -1.19335,0.14252 -2.30101,0.44704 -3.26431,1.00662 l 0.0175,-10e-4 c -0.69496,-0.1518 -1.46554,-0.0128 -2.05093,0.39525 -0.58539,0.40808 -0.98576,1.08602 -0.93669,2.00486 0.25262,4.2679 0.5563,8.55712 0.90456,12.81746 0.0641,0.75375 0.40421,1.29879 0.87616,1.64214 0.47195,0.34335 1.07326,0.48568 1.65814,0.43949 0.58486,-0.0462 1.1549,-0.28113 1.56247,-0.69384 0.40756,-0.41271 0.6513,-1.00396 0.58723,-1.75771 -0.05,-0.537 -0.0757,-1.07686 -0.12481,-1.61522 2.33767,1.1567 4.70938,2.19488 7.16745,3.1036 1.18428,0.46484 2.54311,0.13757 3.10876,-1.09824 0.25527,-0.5322 0.2702,-1.20132 0.0723,-1.79349 -0.19794,-0.59217 -0.61122,-1.10839 -1.2175,-1.32898 -1.76066,-0.67408 -3.50218,-1.399 -5.20094,-2.17291 0.51124,-0.35072 1.01604,-0.76608 1.46968,-1.22755 1.72649,-1.70838 2.20848,-4.33137 1.53841,-6.5983 -0.40823,-1.39579 -1.33081,-2.25129 -2.46027,-2.71868 -1.12946,-0.46739 -2.46527,-0.5495 -3.70718,-0.40313 z m 0.006,0.0466 c 1.23606,-0.1457 2.56426,-0.0639 3.68328,0.39913 1.11902,0.46308 2.02758,1.30518 2.4319,2.6876 0.66567,2.25201 0.18883,4.85925 -1.52487,6.5541 -0.46101,0.46896 -0.97551,0.89379 -1.4953,1.24722 l -0.0331,0.0242 0.0369,0.0167 c 1.71109,0.78047 3.46588,1.51036 5.23972,2.18945 0.59046,0.21482 0.99502,0.71858 1.18931,1.29984 0.19429,0.58124 0.17751,1.23883 -0.0716,1.75815 -0.55538,1.21334 -1.88248,1.53146 -3.0483,1.07386 -2.46884,-0.91269 -4.85405,-1.95149 -7.20181,-3.11461 l -0.0371,-0.0186 0.004,0.0408 c 0.0511,0.54931 0.079,1.10138 0.13024,1.65204 0.063,0.74171 -0.17817,1.31789 -0.57686,1.7216 -0.39869,0.40372 -0.95755,0.63431 -1.53242,0.67971 -0.57488,0.0454 -1.1645,-0.0946 -1.62592,-0.43027 -0.46141,-0.33569 -0.79428,-0.86663 -0.85732,-1.60834 -0.34824,-4.25999 -0.65179,-8.54798 -0.90438,-12.81552 -0.0483,-0.90415 0.34304,-1.564 0.91695,-1.96409 0.57393,-0.40009 1.33238,-0.5374 2.01432,-0.38844 l 0.008,10e-4 0.008,-0.005 c 0.95633,-0.55554 2.05817,-0.85938 3.24714,-1.00136 z m 1.41519,4.42238 c -0.27486,-0.006 -0.63944,0.0952 -0.9939,0.14715 -0.25961,0.0445 -0.61762,0.0848 -0.94569,0.18054 -0.32714,0.0955 -0.6263,0.2461 -0.76345,0.51704 -0.0632,0.10185 -0.10522,0.17704 -0.16861,0.25247 l -0.005,0.006 9.3e-4,0.01 c 0.0517,0.8149 0.10271,1.63009 0.18063,2.46746 l 0.003,0.0311 0.0302,-0.0124 c 0.75712,-0.28896 1.51377,-0.64272 2.09201,-1.1336 0.57822,-0.49088 0.97642,-1.11933 1.00863,-1.94781 0.0129,-0.19139 -0.0239,-0.32131 -0.10418,-0.40343 -0.0798,-0.0822 -0.1967,-0.11174 -0.33413,-0.11476 z m -0.002,0.0452 c 0.1311,0.003 0.23594,0.032 0.30349,0.10149 0.0675,0.0695 0.10346,0.18325 0.091,0.36723 l 1.8e-4,0.002 c -0.0317,0.81455 -0.42078,1.42805 -0.99226,1.9132 -0.56371,0.47857 -1.30816,0.82687 -2.05276,1.11286 -0.0758,-0.822 -0.12576,-1.62327 -0.17664,-2.42464 0.0622,-0.0761 0.10526,-0.14959 0.16526,-0.24634 l -1.8e-4,-0.002 c 0.12752,-0.2543 0.41512,-0.40321 0.73783,-0.49738 0.3227,-0.0941 0.67804,-0.13324 0.94004,-0.17813 0.35847,-0.0525 0.7218,-0.15406 0.98399,-0.14827 z"
           id="path20432-2"
           inkscape:label="R" />
        <path
           style="color:#000000;-inkscape-font-specification:'HAPPINESS, Normal';fill:none;stroke:#000000;stroke-width:0.0237745;stroke-dasharray:none;stroke-opacity:1"
           d="m 990.0808,953.1549 c -1.08486,0.23841 -2.14883,0.67198 -3.00678,1.26148 -0.57366,0.0859 -1.11304,0.3631 -1.4747,0.80453 -0.36166,0.44142 -0.54386,1.04696 -0.4013,1.78556 0.72162,3.95262 1.46592,7.90112 2.21125,11.85011 0.1896,1.07473 0.9243,1.67404 1.75422,1.85659 0.82641,0.18178 1.74785,-0.0466 2.33427,-0.62059 2.32155,-0.10558 4.83682,-1.28465 6.34811,-2.80259 2.15733,-2.15264 2.61583,-5.48969 1.55402,-8.32973 -1.0526,-2.79031 -3.17658,-5.30191 -6.1857,-5.90053 -0.9372,-0.18944 -2.04524,-0.14395 -3.13339,0.0952 z m 0.0121,0.0457 c 1.08289,-0.23792 2.18513,-0.28189 3.11376,-0.0942 2.9883,0.59449 5.10187,3.08892 6.15033,5.86823 1.05591,2.82433 0.5983,6.14238 -1.54485,8.28087 -1.5031,1.50973 -4.01562,2.68783 -6.32439,2.79113 l -0.008,-7.9e-4 -0.007,0.007 c -0.57339,0.56685 -1.48714,0.79482 -2.3015,0.61569 -0.81435,-0.17913 -1.52936,-0.76149 -1.71589,-1.8188 -0.74529,-3.94899 -1.48962,-7.89767 -2.21125,-11.85011 -0.14024,-0.72659 0.0384,-1.31697 0.392,-1.74855 0.35359,-0.43158 0.88249,-0.70399 1.4459,-0.78835 l 0.006,-8.9e-4 0.004,-0.003 c 0.85336,-0.58816 1.91843,-1.02077 3.00134,-1.25869 z m 2.27039,4.43479 c -0.5357,0.007 -1.56858,0.089 -2.24843,0.41182 l -0.0147,0.006 0.003,0.0174 c 0.45415,2.43642 0.90883,4.87422 1.36715,7.33434 l 0.004,0.0212 0.0231,-0.003 c 1.11895,-0.16754 2.35296,-0.7661 3.06281,-1.45983 0.87875,-0.86873 0.96583,-2.44461 0.45311,-3.54452 -0.22666,-0.5259 -0.55013,-1.22138 -0.98581,-1.78564 -0.43568,-0.56425 -0.98571,-1.00029 -1.66399,-0.99747 z m 2.7e-4,0.0475 c 0.65806,-0.003 1.19614,0.42105 1.62714,0.97924 0.431,0.5582 0.75375,1.24988 0.97991,1.77465 0.5044,1.08204 0.41615,2.64315 -0.44425,3.49372 -0.69533,0.67955 -1.91391,1.26603 -3.01541,1.4369 -0.45501,-2.44251 -0.90663,-4.86121 -1.35762,-7.28037 0.66609,-0.3101 1.68222,-0.39713 2.21019,-0.40417 z"
           id="path20434-7"
           inkscape:label="D" />
        <path
           style="color:#000000;-inkscape-font-specification:'HAPPINESS, Normal';fill:none;stroke:#000000;stroke-width:0.0237745;stroke-dasharray:none;stroke-opacity:1"
           d="m 1005.6627,948.0925 -5.1283,2.00246 c -0.9231,0.34151 -1.5525,1.1072 -1.59429,2.03389 -0.0746,0.37717 -0.0355,0.795 0.11258,1.23209 l 6.4e-4,0.002 c 1.42577,3.763 2.70737,7.54163 3.88077,11.37729 0.3776,1.18868 1.8082,1.96984 2.9978,1.57693 l 5.8407,-1.9045 c 0.7061,-0.23479 1.145,-0.69426 1.358,-1.23347 0.2131,-0.53921 0.2016,-1.15762 0.013,-1.71838 -0.1898,-0.56034 -0.554,-1.06347 -1.0524,-1.36697 -0.4983,-0.30352 -1.1299,-0.40654 -1.8418,-0.17016 l -3.572,1.17852 c -0.1755,-0.58886 -0.3728,-1.17127 -0.57,-1.75328 0.719,-0.30686 1.4086,-0.62978 2.1125,-0.98183 l 6e-4,0.002 c 0.5681,-0.27797 0.8972,-0.82546 0.9974,-1.42849 0.1002,-0.60304 -0.029,-1.26353 -0.3798,-1.77315 v 0 c -0.3735,-0.5779 -0.9149,-0.91207 -1.5007,-1.02938 -0.5852,-0.11716 -1.2162,-0.0178 -1.7767,0.26945 v 0 c -0.3567,0.176 -0.6764,0.31728 -0.9966,0.45843 -0.127,-0.37475 -0.2758,-0.74293 -0.4022,-1.11607 1.0158,-0.39203 2.0089,-0.77646 3.025,-1.16855 1.184,-0.46705 1.921,-1.59504 1.4824,-2.88968 -0.1924,-0.56797 -0.6463,-1.08367 -1.2007,-1.40003 -0.5544,-0.31636 -1.211,-0.43361 -1.8064,-0.19874 z m 0.015,0.0448 c 0.5801,-0.2288 1.2217,-0.11653 1.766,0.19401 0.5442,0.31056 0.9896,0.81934 1.1775,1.37396 0.4307,1.27128 -0.2897,2.37283 -1.4565,2.83314 -1.0229,0.39469 -2.0216,0.78354 -3.0443,1.17818 l -0.02,0.008 0.01,0.0186 c 0.1323,0.39035 0.2864,0.77409 0.418,1.16268 l 0.01,0.0262 0.024,-0.0112 c 0.3281,-0.14464 0.6565,-0.28926 1.0233,-0.47021 0.5526,-0.28366 1.1729,-0.3819 1.7469,-0.267 0.5739,0.11493 1.1005,0.44136 1.4669,1.00839 l 7e-4,0.002 c 0.3425,0.49782 0.4702,1.14687 0.3721,1.73853 -0.098,0.59173 -0.4206,1.12436 -0.9739,1.39513 v 0 c -0.7091,0.35467 -1.4022,0.67915 -2.1267,0.98798 l -0.019,0.008 0.01,0.0205 c 0.2018,0.59566 0.404,1.19089 0.5822,1.79271 l 0.01,0.0242 3.6188,-1.19194 c 0.7004,-0.23263 1.3146,-0.13094 1.8013,0.16543 0.4866,0.29636 0.8458,0.78917 1.0311,1.34035 0.1866,0.5508 0.1971,1.15918 -0.012,1.68722 -0.2086,0.52801 -0.6373,0.97664 -1.332,1.20758 l -5.8408,1.9045 c -1.162,0.38379 -2.5667,-0.38245 -2.9352,-1.54373 -1.1741,-3.83644 -2.4563,-7.61684 -3.88207,-11.38102 -0.14641,-0.43216 -0.18508,-0.84315 -0.11189,-1.21183 l -6.5e-4,-0.002 -6.5e-4,-0.002 c 0.0408,-0.90728 0.65826,-1.65716 1.56716,-1.99332 z"
           id="path20436-0"
           inkscape:label="E" />
      </g>
    </g>
  </g>
</svg>
