<?xml version="1.0" encoding="UTF-8" standalone="no"?>
<!-- Created with Inkscape (http://www.inkscape.org/) -->

<svg
   width="210mm"
   height="297mm"
   viewBox="0 0 210 297"
   version="1.1"
   id="svg7092"
   inkscape:version="1.2 (dc2aedaf03, 2022-05-15)"
   sodipodi:docname="freecad_head.svg"
   xmlns:inkscape="http://www.inkscape.org/namespaces/inkscape"
   xmlns:sodipodi="http://sodipodi.sourceforge.net/DTD/sodipodi-0.dtd"
   xmlns="http://www.w3.org/2000/svg"
   xmlns:svg="http://www.w3.org/2000/svg">
  <sodipodi:namedview
     id="namedview7094"
     pagecolor="#505050"
     bordercolor="#eeeeee"
     borderopacity="1"
     inkscape:showpageshadow="0"
     inkscape:pageopacity="0"
     inkscape:pagecheckerboard="0"
     inkscape:deskcolor="#505050"
     inkscape:document-units="mm"
     showgrid="false"
     inkscape:zoom="0.53354917"
     inkscape:cx="-45.918917"
     inkscape:cy="779.68447"
     inkscape:window-width="1920"
     inkscape:window-height="1027"
     inkscape:window-x="-8"
     inkscape:window-y="-8"
     inkscape:window-maximized="1"
     inkscape:current-layer="layer1" />
  <defs
     id="defs7089" />
  <g
     inkscape:label="Layer 1"
     inkscape:groupmode="layer"
     id="layer1">
    <g
       id="g151302"
       inkscape:label="Cat head"
       style="display:inline"
       transform="translate(176.67681,160.67212)">
      <path
         id="path66681-4"
         style="display:inline;fill:none;fill-opacity:1;stroke:#000000;stroke-width:0.1;stroke-dasharray:none;stroke-opacity:1"
         inkscape:label="Cat head"
         d="m -7.908046,-139.44834 c -3.22138,0.013 -7.01142,0.52063 -11.89746,1.57304 -2.56967,0.55347 -10.71668,2.57097 -13.09688,3.24321 -7.15137,2.01977 -10.07071,2.61528 -15.08125,3.07785 -3.73442,0.34476 -7.23858,0.0691 -13.49375,-1.06195 -5.1222,-0.92621 -9.43855,-1.12789 -14.94896,-0.69815 -2.69206,0.20995 -6.68073,0.64852 -8.86354,0.9741 -2.99282,0.4464 -5.13978,0.59057 -8.73125,0.58704 -5.17007,-0.005 -4.79844,0.0518 -15.411984,-2.35076 -2.32242,-0.52573 -5.64208,-1.16374 -7.47448,-1.43609 -0.80036,-0.11895 -3.83646,-0.58263 -6.74687,-1.03094 -4.66881,-0.71916 -8.21428,-1.24909 -14.47095,-2.16214 -0.97392,-0.14213 -3.21768,-0.25839 -4.98626,-0.25839 -4.66048,0 -7.19243,0.81372 -9.0997,2.92489 -2.38669,2.64177 -2.77936,5.72754 -1.51464,11.89178 1.50897,7.3547 3.61842,15.03284 5.67924,20.67006 1.43757,3.99171 2.27818,6.182334 2.37712,10.102222 0.0532,2.368441 0.0247,2.495423 -1.06971,4.773353 -0.61838,1.287086 -1.35179,2.659415 -1.62987,3.049943 -0.27808,0.390521 -0.79665,1.242743 -1.1529,1.893422 -0.35626,0.65071 -0.95553,1.71866 -1.3317,2.3735 -0.73993,1.28807 -1.07453,2.61298 -0.77153,3.05563 0.20545,0.30016 1.38504,0.99565 4.68757,2.76417 1.1641,0.62342 2.23573,1.22311 2.38125,1.33274 0.14553,0.10964 0.91942,0.55492 1.71979,0.9896 2.6554,1.4422 5.41515,3.04712 6.08541,3.5388 0.75554,0.55422 2.41959,1.47614 4.41679,2.4474 0.75568,0.36749 1.93153,1.20304 2.61328,1.85621 1.22686,1.1756 1.23831,1.20201 1.12034,2.62465 -0.0954,1.1501 -0.26833,1.57559 -0.8661,2.12959 -0.41087,0.38077 -0.81903,0.69679 -0.90692,0.70228 -0.0879,0.006 -0.61225,0.076 -1.1653,0.15606 -1.1915,0.17263 -2.55963,-0.31937 -4.35116,-1.56373 -0.69165,-0.48041 -2.26983,-1.39099 -3.50676,-2.02365 -1.23693,-0.63266 -2.38529,-1.25676 -2.55178,-1.38699 -0.16649,-0.13022 -0.99993,-0.58992 -1.85209,-1.02113 -0.85209,-0.4312 -1.72785,-0.893 -1.94613,-1.02629 -0.21828,-0.13329 -1.14734,-0.6076 -2.06447,-1.0542 -0.91712,-0.44661 -2.54425,-1.29022 -3.6158,-1.87482 -1.07154,-0.58461 -2.07644,-1.06299 -2.23346,-1.06299 -0.39704,0 -1.13203,1.68603 -2.42156,5.55625 -1.15055,3.45334 -0.87761,2.47671 -1.29811,3.83646 -0.58861,3.48282 -0.80726,4.64767 -0.88366,4.97231 -0.029,0.28004 -0.0336,0.38901 -0.17726,1.4857 l -0.0599,1.4304 2.60708,-0.17208 c 1.4337,-0.0946 5.10688,-0.35623 8.16281,-0.58188 3.05587,-0.22564 7.34219,-0.52456 9.525,-0.66404 2.18275,-0.13947 4.95087,-0.32841 6.15104,-0.41961 1.65391,-0.0733 1.91273,-0.10769 2.57969,0.78599 0.4961,1.18733 0.5097,2.83318 0.0331,3.97392 -0.44343,1.06127 -1.65463,1.68979 -3.62923,1.88257 -0.78667,0.0768 -2.08525,0.20365 -2.88562,0.28216 -0.80036,0.0785 -3.18161,0.26498 -5.29166,0.41444 -2.11006,0.14947 -4.19365,0.31147 -4.63021,0.35967 -0.43656,0.0482 -2.54094,0.17459 -4.6762,0.28112 -2.13526,0.10653 -4.69374,0.32699 -5.68596,0.48989 l -1.80402,0.29611 -0.19069,1.32292 c -0.24295,1.68696 -0.70976,8.0098 -1.00614,13.62604 -0.12671,2.40103 -0.29149,5.2586 -0.36587,6.35 -0.30157,4.42496 -0.18059,12.81725 0.21342,14.81666 0.86314,4.3794102 2.27751,7.4874502 4.84519,10.64638019 2.16373,2.66210001 6.10677,6.14548001 8.45323,7.46828001 0.41045,0.23139 1.1034,0.63672 1.53996,0.9002 1.37207,0.82815 7.84989,3.6731898 9.92187,4.3578798 1.09141,0.36067 2.93687,0.85983 4.10104,1.10897 2.8136,0.60211 3.6504,0.7961 5.68854,1.32034 0.94589,0.24329 2.4937,0.54928 3.43959,0.68006 0.94588,0.13079 2.43416,0.35909 3.30729,0.50694 4.75264,0.80479 9.34859,1.24722 22.357294,2.15336 4.58754,0.31955 25.8756,0.13448 31.08854,-0.27027 1.74625,-0.13558 4.90141,-0.38152 7.01146,-0.54673 2.11005,-0.16522 4.25318,-0.40449 4.7625,-0.53175 0.50932,-0.12726 1.93808,-0.3591 3.175,-0.51522 3.63861,-0.45928 6.13145,-0.88741 7.67292,-1.31775 7.12503,-1.98908 7.45726,-2.08972 13.22916,-4.01009 6.80294,-2.2633898 8.72838,-2.9457498 12.03855,-4.2648498 2.47899,-0.98796 4.04404,-1.6015 5.29166,-2.07481 1.43956,-0.54612 8.55534,-3.87436 9.16895,-4.28863001 0.38627,-0.26077 0.77608,-0.47439 0.8661,-0.47439 0.37074,0 4.65539,-2.59722999 6.50141,-3.94083999 5.98105,-4.35354 9.75774,-9.0362802 11.01173,-13.6539502 0.46378,-1.70785 0.46124,-4.5751 -0.007,-7.77369 -0.20491,-1.39981 -0.5093,-3.73575 -0.67644,-5.19089 -0.16715,-1.45521 -0.40955,-3.41975 -0.53847,-4.36563 -0.12892,-0.94589 -0.36909,-3.08902 -0.53382,-4.7625 -0.72168,-7.33131 -2.4005,-17.10216 -3.97805,-23.15104 -0.1518,-0.58208 -0.45909,-1.89177 -0.68264,-2.91042 -0.551,-2.51077 -2.04326,-7.11904 -3.32538,-10.26759 -1.02475,-2.51652 -1.44269,-3.36547 -4.72736,-9.603546 -0.85075001,-1.615671 -1.86340001,-3.877873 -2.24999001,-5.027084 -0.62731999,-1.864568 -0.68923999,-2.374081 -0.57619999,-4.735111 0.0864,-1.803905 0.30351999,-3.101154 0.68212999,-4.076237 0.1673,-0.710649 0.31942,-1.510352 0.63769,-2.356442 0.52988,-1.26539 2.82755001,-8.01153 3.88658001,-13.14649 0.18007,-0.87312 0.43646,-2.08685 0.56999,-2.69699 0.13354,-0.61014 0.24288,-1.67445 0.24288,-2.36523 0,-0.69078 0.14184,-1.94278 0.31523,-2.78226 0.38121,-1.84563 -0.0613,-8.31111 -0.71262,-10.41177 -0.88288,-2.84747 -3.14993,-5.23023 -5.67872,-5.96811 -0.51435,-0.15008 -2.12598,-0.40051 -3.58118,-0.55655 -0.96704,-0.1037 -1.97767,-0.15421 -3.05149,-0.14987 z M -158.26424,-56.364 c 0.087,-0.84055 -0.12339,0.52424 0,0 z m 48.21307,-36.933664 c 2.05983,-0.01435 3.44732,0.660495 4.94337,2.24069 1.86509,1.969982 2.46953,2.982596 3.06906,5.140254 0.702,2.52639 0.93404,7.05193 0.45269,8.82944 -0.40024,1.478 -1.43687,3.59833 -2.11512,4.32635 -0.27891,0.29937 -0.50694,0.63173 -0.50694,0.73897 0,0.38001 -4.11739,3.72362 -5.1909,4.21525 -2.58798,1.18521 -4.82351,1.30402 -7.82381,0.41599 -3.38741,-1.0026 -4.95008,-2.66295 -5.75727,-6.11642 -0.17007,-0.7276 -0.42781,-1.77461 -0.57258,-2.32699 -0.25629,-0.97786 -0.13203,-5.34019 0.19741,-6.93343 0.4089,-1.977495 1.902,-4.509748 3.71191,-6.295738 1.00206,-0.988807 2.07081,-1.941308 2.37505,-2.116666 2.1304,-1.227923 2.95191,-1.542973 4.9041,-1.881539 0.8649,-0.149999 1.62642,-0.231379 2.31303,-0.236161 z m 59.211894,2.277897 c 2.55764,0.0128 5.10013,1.204045 7.52667,3.551204 2.55241,2.468903 3.94204,5.785633 3.99201,9.528613 0.0539,4.03786 -0.72745,6.5708 -3.18534,10.32496 -2.03636,3.11032 -4.03341,4.66437 -6.74015,5.24515 -2.0669,0.44348 -2.86646,0.43525 -4.69119,-0.0481 -2.7924,-0.73955 -5.22253,-3.02246 -6.99389,-6.57014 -1.52419,-3.05262 -1.74699,-7.44316 -0.65215,-12.85348 0.75049,-3.708736 2.95709,-6.406763 6.72672,-8.224817 1.33371,-0.643236 2.67761,-0.960134 4.01732,-0.95343 z m 49.93183999,15.098307 c 0.54827,0.003 1.05406,0.0522 1.4397,0.15606 1.91132001,0.51467 4.00338001,2.85132 4.00338001,4.47156 0,0.97359 -1.64233,2.62602 -3.54501001,3.56671 -5.27715999,2.60909 -9.96521999,4.59214 -15.90186999,6.72724 -11.97941,4.30831 -15.28475,4.996 -17.39118,3.61631 -1.00094,-0.65559 -2.05569,-2.32227 -2.05569,-3.24838 0,-0.88836 0.82617,-2.5325 1.63866,-3.26078 0.91391,-0.81918 0.7964,-0.77255 6.828,-2.71508 2.54661,-0.82015 5.22552,-1.76881 5.95313,-2.10788 1.83194,-0.85369 4.74708,-2.1218 6.48229,-2.81999 0.80036,-0.32198 2.22911,-0.94058 3.175,-1.37459 3.42407,-1.5711 4.56963,-2.05207 4.88704,-2.05207 0.17782,0 0.66887,-0.16632 1.09141,-0.36949 0.77862,-0.37437 2.18895,-0.59565 3.39513999,-0.58962 z m -97.77542999,5.2033 c 0.45652,0.0107 0.86576,0.11888 1.02991,0.31987 0.14855,0.1819 0.39337,2.04448 0.54364,4.13929 0.17835,2.48598 0.39439,3.92685 0.62218,4.14858 0.41373,0.40272 5.07984,1.57027 7.88944,1.97404 2.13774,0.30721 8.6234,0.27985 9.92188,-0.0419 0.43656,-0.10816 1.50812,-0.33459 2.38125,-0.50333 2.28613,-0.44184 4.07591,-1.29427 4.51962,-2.15232 0.20624,-0.39882 0.37517,-1.23971 0.37517,-1.86862 0,-1.48276 1.08598,-2.86609 2.65772,-3.38481 1.06306,-0.35083 1.13612,-0.33979 1.6092,0.24443 0.70411,0.86954 0.62257,1.56141 -0.43718,3.70572 -0.86776,1.75586 -0.92214,2.01131 -0.78083,3.66696 0.16533,1.93701 0.42925,3.0859 1.24333,5.41207 0.63065,1.80189 0.49874,2.56265 -0.5519,3.18327 -1.0492,0.61978 -1.52754,0.58034 -2.29702,-0.18914 -0.35719,-0.35718 -0.64957,-0.78039 -0.64957,-0.94051 0,-0.61054 -1.13517,-2.7958 -1.67948,-3.23287 -0.74791,-0.60056 -1.65206,-0.58316 -5.10615,0.0966 -2.58089,0.50792 -3.42516,0.54888 -8.33541,0.40514 -5.87865,-0.17209 -8.21229,-0.58096 -10.80141,-1.8929 l -1.26814,-0.64286 -0.93689,1.5105 c -1.295214,2.08747 -2.643634,3.48832 -3.393594,3.52589 -1.09823,0.055 -1.40848,-0.0485 -1.90738,-0.63562 -0.74388,-0.87549 -0.41459,-2.12491 0.9462,-3.58842 0.6297,-0.67723 1.49898,-1.70014 1.93114,-2.27272 l 0.78549,-1.04128 -0.0703,-4.70204 c -0.066,-4.42897 -0.0398,-4.71804 0.445964,-4.97799 0.35302,-0.18893 0.85658,-0.27576 1.3131,-0.2651 z m -17.587044,12.18065 c 0.31052,-0.0112 0.60195,0.007 0.8661,0.0574 3.04274,0.58517 4.22526,1.18971 6.51071,3.32744 1.79351,1.67762 2.36043,2.89483 2.41381,5.18212 0.0794,3.40371 -0.3407,10.55782 -0.77773,13.24053 -0.64555,3.96276 -0.42833,4.29366 3.71037,5.64669 4.857284,1.58792 6.819534,2.98629 8.083744,5.7614 0.53794,1.18085 0.56668,1.51456 0.39171,4.58577 -0.10378,1.8217 -0.28161,3.49286 -0.39533,3.71347 -0.11373,0.22062 -0.22589,3.02038 -0.24908,6.22184 -0.0577,7.9634402 -0.57883,10.52150019 -2.75539,13.5226902 -2.193594,3.02471 -5.555794,5.29916 -11.091314,7.5028998 -3.13917,1.24975 -7.7052,1.3835 -8.53643,1.32085 -1.11664,-0.0842 -1.74028,-0.14215 -2.93729,-0.23823 -1.03331,-0.008 -2.24873,-0.27867 -2.67063,-0.40824 -0.42189,-0.12957 -1.81364,-0.3933 -3.12333,-0.77825 -3.13073,-0.9202198 -7.4407,-3.1085998 -9.39942,-4.7723198 -2.36208,-2.00629 -4.60265,-5.12175001 -6.47661,-9.00565 -2.39971,-4.97356 -3.05384,-7.4895202 -3.08095,-11.8540602 -0.0199,-3.20438 0.0434,-3.68774 0.77101,-5.87302 0.98817,-2.96816 2.91303,-6.63014 4.62504,-8.79947 1.64442,-2.0837 2.16647,-2.44533 3.53002,-2.44533 1.856,0 2.54939,-0.87122 3.52485,-4.42815 0.49324,-1.79855 1.21377,-2.41875 3.32021,-2.85719 2.57508,-0.53598 3.43527,-0.85182 4.16719,-1.53014 1.02882,-0.95348 1.12642,-1.43634 1.13326,-5.60431 0.007,-4.38381 0.39706,-6.02294 1.95182,-8.20208 1.21193,-1.69864 4.32,-3.20804 6.49366,-3.28662 z m 66.300354,3.12332 c 2.12565,0.0459 3.99741,0.81777 5.46013,2.28048 2.57514,2.57514 2.89217,3.96693 2.29082,10.0459 -0.40835,4.12767 -0.31034,6.05829 0.34416,6.7815 0.24069,0.26596 1.05381,0.66276 1.80661,0.8816 2.26329,0.65796 3.2001,2.09392 3.47937,5.33352 0.1985,2.30256 0.5932,2.98371 2.16266,3.72846 2.90374,1.37792 5.07054,7.78605 5.13664,15.19184 0.0267,2.9858402 -0.35059,5.9408902 -0.8077,6.3251902 -0.088,0.074 -0.48621,0.75634 -0.8847,1.51619 -1.63433,3.11611999 -6.79108,9.0476 -10.36578,11.9233 -2.66501,2.1438898 -4.9649,3.3663398 -7.29826,3.8788298 -2.70719,0.59458 -9.81418,0.75782 -12.43542,0.28577 -3.61127,-0.65031 -4.93585,-1.1028 -7.62434,-2.60449 -4.94604,-2.7626698 -7.51548,-5.2308998 -8.90592,-8.5550298 -1.58408,-3.78705 -1.86215,-5.61613 -1.82469,-12.0028902 0.0447,-7.61566 0.73445,-11.40418 2.81895,-15.47812 2.10216,-4.10848 5.71363,-5.71518 14.73347,-6.55412 0.38785,-0.0361 0.80906,-0.3409 1.03869,-0.75138 0.33504,-0.59894 0.20462,-1.14273 0.0315,-4.17235 -0.17885,-3.13039 -0.16745,-3.79448 0.11008,-6.58513 0.67659,-6.80347 3.17107,-9.87076 7.69203,-11.07839 1.05656,-0.28224 2.07546,-0.41154 3.04168,-0.39068 z m 20.56722,1.39992 c 2.15259,0.0223 5.37947,0.72904 10.65464,2.2133 0.80037,0.2252 1.93146,0.51388 2.51355,0.64182 4.6133,1.01402 6.36099,1.38313 8.20208,1.73219 1.16417,0.22071 2.59292,0.51072 3.175,0.64441 0.58208,0.1337 1.77271,0.36288 2.64583,0.50901 3.71611,0.62194 6.3711,1.185 6.66368,1.41335 0.17252,0.13464 0.50263,1.0765 0.7338,2.0929 0.6919,3.04201 -0.18977,4.99452 -2.25516,4.99452 -0.53645,0 -1.31743,0.0538 -1.73581,0.11989 -0.41837001,0.066 -1.95130001,-0.10401 -3.40651,-0.37827 -3.03866,-0.57271 -7.18666,-1.45973 -8.73125,-1.86707 -1.27845,-0.33716 -5.61184,-1.31683 -6.35,-1.43557 -1.56167,-0.25122 -10.86536,-2.35838 -12.56771,-2.84634 -2.37387,-0.68046 -3.08854,-1.24964 -3.37292,-2.68769 -0.31945,-1.6153 -0.009,-3.78877 0.60875,-4.26072 0.7794,-0.59568 1.74918,-0.90097 3.22203,-0.88573 z"
         sodipodi:nodetypes="sssssssssssssssccsssssssssscssccsssssssssccccsssccsssssssccsscssssssssssssssssssscsssssssssssccsssssssssccsssssssssssssssssssssssssssssssssssssssssssssssssssssssssssscccssscccssssssssssssssscssssssssssscssssssssssssssssssssssssssssssssssssssssss" />
    </g>
    <g
       id="g197871"
       inkscape:label="FU"
       transform="translate(-48.391482,86.648446)"
       style="display:inline">
      <path
         style="display:inline;fill:none;stroke:#000000;stroke-width:0.1;stroke-dasharray:none;stroke-opacity:1"
         d="m 123.74442,170.18562 c 0.79608,-0.0306 1.1051,-0.0337 1.40596,-0.0419 0.38643,-0.0105 0.60712,-0.007 1.77744,-0.25619 1.1644,-0.24839 4.74125,-2.32184 5.37078,-2.93453 0.19145,-0.18634 0.80776,-0.68608 1.36957,-1.11055 3.77884,-2.85503 5.9026,-6.49602 6.6378,-11.3799 0.24097,-1.60073 0.54537,-3.50573 0.67645,-4.23333 0.13107,-0.72761 0.36955,-2.63296 0.52995,-4.23412 0.35248,-3.5187 0.0802,-4.72013 -1.24476,-5.49189 -0.75516,-0.43987 -1.01594,-0.45916 -2.43457,-0.18007 -2.31131,0.45473 -2.86593,0.24441 -3.07759,-1.16702 -0.0948,-0.63206 -0.44413,-1.49006 -0.77633,-1.90668 -0.55106,-0.69109 -0.77503,-0.7652 -2.5557,-0.84558 -1.07345,-0.0485 -2.1992,-0.13964 -2.50167,-0.20264 -1.1622,-0.24203 -1.45061,-2.16981 -0.79822,-5.33543 0.511,-2.47953 0.66233,-3.66419 0.957,-7.49178 0.14004,-1.81901 0.36234,-4.58565 0.49399,-6.14809 0.14364,-1.70463 0.14293,-3.27004 -0.002,-3.91404 -0.69232,-3.08131 -3.07421,-4.52257 -5.525,-3.34314 -0.9672,0.46545 -1.33205,0.85578 -1.94429,2.08004 -0.84163,1.68295 -1.1199,4.05496 -1.34414,11.45752 -0.12502,4.12752 -0.29726,5.61615 -0.70752,6.11532 -0.45574,0.55452 -1.2611,0.23424 -2.4038,-0.95595 -1.55008,-1.61449 -2.95323,-2.00255 -4.36944,-1.20842 -1.37145,0.76903 -1.73839,1.6787 -1.81046,4.48823 -0.075,2.92443 -0.28998,3.16867 -2.63389,2.99261 -1.26566,-0.0951 -1.77524,-0.0101 -2.51355,0.41903 -2.55269,1.48379 -5.00257,5.91603 -5.44173,9.84501 -0.11386,1.01865 -0.19216,1.92353 -0.17399,2.01086 0.0182,0.0873 0.15271,1.11324 0.29899,2.27981 0.68075,5.42907 3.90779,11.70499 8.20139,15.94996 2.44274,2.41507 4.55419,3.67899 7.55054,4.51977 1.89265,0.53107 4.55501,0.31671 6.12867,0.25618 z"
         id="path66733-9"
         sodipodi:nodetypes="sssssssssssssssscsssssssscssssssss"
         inkscape:label="FU L" />
      <path
         style="display:inline;fill:none;stroke:#000000;stroke-width:0.1;stroke-dasharray:none;stroke-opacity:1"
         d="m 188.84016,171.77388 c 2.98193,-0.4831 3.79247,-0.78856 5.44383,-2.05159 1.90547,-1.45738 5.54542,-5.04655 6.62076,-6.52838 0.4224,-0.58209 0.89793,-1.1774 1.05673,-1.32292 0.68418,-0.62697 2.60336,-4.0179 3.33738,-5.89669 0.69478,-1.77835 0.79523,-2.36407 0.78105,-4.55435 -0.009,-1.38245 -0.13352,-3.22792 -0.27685,-4.10104 -0.14332,-0.87313 -0.26172,-2.12328 -0.2631,-2.77813 -0.002,-1.11803 -0.7656,-2.89631 -1.25343,-2.92041 -2.08402,-0.10293 -3.84445,-0.77037 -4.44355,-1.68471 -0.41127,-0.62768 -0.41418,-0.81963 -0.0374,-2.4695 0.38906,-1.70382 0.38339,-1.84161 -0.11927,-2.89658 -0.53182,-1.11618 -2.35938,-2.99338 -2.91421,-2.99338 -0.16455,0 -0.88517,0.59531 -1.60139,1.32292 -1.29703,1.31765 -1.8414,1.54078 -2.59583,1.064 -0.52328,-0.3307 -0.50976,-2.01325 0.0553,-6.88484 0.24475,-2.11005 0.58685,-5.52864 0.76021,-7.59687 0.36616,-4.36833 0.23894,-4.93172 -1.36465,-6.04301 -0.90291,-0.62571 -1.21683,-0.69834 -2.54293,-0.58838 -1.37486,0.11402 -1.60212,0.22604 -2.49128,1.22799 -1.28821,1.45164 -1.62343,3.29542 -1.38063,7.59387 0.30421,5.3857 0.2308,11.75247 -0.15607,13.53451 -0.42115,1.94003 -1.13194,2.57998 -2.80184,2.52263 -0.88594,-0.0304 -1.21034,-0.21126 -1.99159,-1.11021 -0.65571,-0.7545 -1.14344,-1.07386 -1.64001,-1.07386 -0.78294,0 -1.8802,0.88477 -2.32198,1.87231 -0.79886,1.78578 -1.49582,2.62561 -2.17895,2.62561 -0.28991,0 -1.09768,-0.31055 -1.79506,-0.69011 -1.15985,-0.63127 -1.35463,-0.66225 -2.28476,-0.36342 -0.55925,0.17967 -1.2406,0.51998 -1.51412,0.75625 -0.73663,0.63629 -1.4836,2.55934 -1.75549,4.51942 -0.13206,0.95204 -0.37727,2.62395 -0.54492,3.71536 -0.46223,3.00918 0.11573,11.84364 0.82097,12.54888 0.14133,0.14132 0.25695,0.4107 0.25695,0.59862 0,1.11941 6.6792,7.94958 8.98569,9.18879 2.82537,1.51799 7.96823,2.13479 12.15048,1.45722 z"
         id="path66729-8"
         sodipodi:nodetypes="ssssssscsssssssssssssssssssssssssssss"
         inkscape:label="FU R" />
    </g>
  </g>
</svg>
